<svg width="220" height="220" viewBox="0 0 220 220" fill="none" xmlns="http://www.w3.org/2000/svg">
<path d="M176.443 37.0868L188.088 38.1125C196.365 38.898 202.006 46.5265 200.522 54.5585L198.469 66.0004C197.494 71.4645 199.845 76.8403 204.245 79.9535L213.786 86.7534C220.551 91.4023 221.759 100.928 216.37 107.119L208.83 116.087C205.347 120.2 204.598 126.136 206.722 131.04L211.568 141.607C215.011 149.014 211.311 157.994 203.635 160.637L192.615 164.539C187.341 166.376 183.756 171.003 183.438 176.384L182.412 188.029C181.626 196.306 173.998 201.947 165.966 200.463L154.524 198.41C149.06 197.435 143.684 199.786 140.571 204.186L133.771 213.727C129.122 220.492 119.596 221.7 113.405 216.311L104.438 208.771C100.324 205.288 94.3881 204.539 89.4842 206.663L78.9176 211.508C71.5108 214.951 62.5301 211.251 59.8874 203.576L55.9858 192.556C54.1483 187.282 49.5213 183.697 44.1405 183.378L32.4952 182.353C24.2181 181.567 18.5773 173.939 20.0614 165.907L22.1142 154.465C23.0897 149.001 20.7387 143.625 16.3384 140.512L6.79751 133.712C0.0328187 129.063 -1.17593 119.537 4.21329 113.346L11.7535 104.378C15.2369 100.265 15.9856 94.3289 13.8614 89.425L9.01601 78.8584C5.2444 71.4933 8.80115 62.6977 16.6198 59.8698L27.6398 55.9682C32.914 54.1308 36.499 49.5037 36.8176 44.123L37.8432 32.4776C38.6287 24.2005 46.2572 18.5598 54.2892 20.0439L65.7311 22.0967C71.1952 23.0722 76.5711 20.7212 79.6842 16.3209L86.4841 6.77997C91.133 0.0152874 100.659 -1.19346 106.85 4.19576L115.817 11.736C119.931 15.2193 125.867 15.9681 130.771 13.8439L141.337 8.99847C148.744 5.55535 157.725 9.25551 160.368 16.9307L164.269 27.9508C166.25 33.0398 171.062 36.7683 176.443 37.0868Z" fill="#DB9A4E"/>
</svg>
