<svg width="164" height="104" viewBox="0 0 164 104" fill="none" xmlns="http://www.w3.org/2000/svg">
<path d="M163.413 51.997C163.429 49.4816 162.395 47.1458 160.729 45.349C158.646 43.0132 158.666 39.9587 160.568 37.6229C162.679 35.2872 163.748 32.053 163.138 28.9985C162.527 26.1237 160.451 22.8895 157.735 21.2724C155.436 20.0147 154.192 17.8586 154.416 15.5228C155.07 11.5699 151.953 7.07798 147.773 4.92186C143.802 2.76575 138.351 2.58607 134.566 4.38283C131.832 5.64057 128.48 5.10154 126.185 3.30477C124.098 1.68769 121.168 0.789307 118.233 0.789307C115.297 0.789307 112.566 1.68769 110.46 3.1251C107.722 4.92186 104.158 4.92186 101.653 3.1251C99.5638 1.86736 97.0532 0.968983 94.1176 0.968983C91.182 0.968983 88.4504 1.86736 86.3445 3.30477C83.6072 5.10154 80.0425 5.10154 77.5376 3.30477C75.4498 1.86736 72.7295 0.968983 69.7938 0.968983C66.8582 0.968983 64.1266 1.86736 62.0207 3.30477C59.2835 5.10154 55.7188 5.10154 53.2139 3.30477C51.126 1.86736 48.4057 0.968983 45.4701 0.968983C42.1151 0.968983 39.1727 2.04704 36.8548 3.8438C34.7478 5.46089 31.6002 5.82024 29.0908 4.74218C25.3288 2.76575 19.4542 3.30477 15.6662 5.46089C11.6686 7.617 8.49392 12.2886 9.3078 16.2415C9.71248 18.5773 8.44079 20.7334 6.12518 22.1708C3.38907 23.7879 1.48267 26.8424 0.83665 29.5375C-0.0213163 32.592 1.00677 35.8262 3.29864 38.162C5.38195 40.3181 5.3616 43.5523 3.25116 45.7084C1.35154 47.6848 0.288407 50.0206 0.272581 52.5361C0.256755 55.0515 1.2905 57.3873 2.95669 59.1841C5.04 61.3402 5.23047 64.3947 3.32972 66.5508C0.583434 69.785 -0.284707 74.4566 1.15937 78.2298C2.19537 80.2062 3.65301 81.8233 5.7431 82.9014C8.04175 84.1591 9.49599 86.3152 9.06192 88.651C8.40799 92.6039 11.5239 97.2755 15.7041 99.4316C19.6746 101.588 25.1242 101.947 28.9099 100.15C31.6437 98.8925 34.9953 99.4316 37.5003 101.228C39.5881 102.666 42.3073 103.744 45.4526 103.744C48.3882 103.744 51.1198 102.845 53.2257 101.408C55.9629 99.6113 59.5276 99.6113 62.0326 101.408C64.1204 102.845 66.8407 103.744 69.7763 103.744C72.7119 103.744 75.4435 102.845 77.5494 101.408C80.2867 99.6113 83.8514 99.6113 86.3563 101.408C88.4441 102.845 91.1644 103.744 94.1 103.744C97.0357 103.744 99.7672 102.845 101.873 101.408C104.61 99.6113 108.175 99.6113 110.68 101.408C112.768 102.845 115.488 103.744 118.424 103.744C121.779 103.744 124.721 102.666 127.039 100.869C129.146 99.2519 132.294 98.8925 134.803 99.9706C138.776 101.767 144.651 101.228 148.437 99.2519C152.435 97.0958 155.61 92.4242 155.005 88.4713C154.601 86.1355 155.874 83.7997 158.188 82.542C160.082 81.464 161.771 79.6672 162.622 77.6907C164.324 73.7379 163.515 69.0663 160.808 66.0118C158.935 63.8557 159.164 60.8012 161.273 58.8247C162.334 56.8483 163.397 54.5125 163.413 51.997Z" fill="#5F8B86"/>
</svg>
