<svg viewBox="0 0 61 81" fill="none" xmlns="http://www.w3.org/2000/svg">
  <path d="M48.68 13.9c.2.26.42.5.65.71a29.23 29.23 0 0 1 3.64 3.57c.25.28.48.58.68.9.22.42.5.81.84 1.16.2.24.38.51.5.8l2.2 4.27c.25.47.45.97.59 1.5.16.5.37.99.61 1.45.24.42.43.86.58 1.31.13.8.46 1.53.62 2.31.38 1.93.73 3.85.98 5.77.4 2.36.48 4.77.25 7.15a16.4 16.4 0 0 1-.62 3.13c-.3.8-.54 1.61-.74 2.44-.25 1.38-.71 2.68-1 4.03-.42.39-1.03.18-1.48.45a47.14 47.14 0 0 0-3.32 3.67c-.67.83-1.34 1.65-1.94 2.53a6.15 6.15 0 0 0-1.39 3.35l.73 1.42 1.18.8c-.1.24-.23.47-.37.7a42.22 42.22 0 0 1-5.62 6.66c-.69.66-1.36 1.33-2.08 1.96-.71.64-1.45 1.06-2.15 1.63a7.1 7.1 0 0 1-1.98 1.03c-.84.32-1.7.55-2.56.83l-1.2.4c-.1-.02-.2-.08-.3-.07a8.9 8.9 0 0 0-1.1.17c-1.3.28-2.63.3-3.93.05A8.91 8.91 0 0 1 27.8 79a1.01 1.01 0 0 0-.76-.16c-.37-.3-.77-.57-1.2-.77a37.87 37.87 0 0 1-7-5.26c-.52-.46-.94-1-1.44-1.49A46.7 46.7 0 0 1 13 66.3c-.71-.89-1.42-1.87-2.18-2.75a19.26 19.26 0 0 1-2.85-4.21l-.07-.15 1.52-.86.3-.92-.24-1.47-1.84-3.55a38.92 38.92 0 0 0-1.81-3.52 3.07 3.07 0 0 0-1.5-.47l-1.17.6a2.43 2.43 0 0 1-.3-.56c-.23-.77-.48-1.52-.75-2.27s-.35-1.34-.53-2c-.39-1.5-.63-3.03-.72-4.57-.32-2.8-.12-5.66.59-8.4.04-.2.07-.41.09-.62.34-.25.36-.65.47-1a59.03 59.03 0 0 1 2.87-6.57c.18-.38.5-.7.7-1.05.22-.37.45-.48.47-.83.66-.7 1.36-1.36 1.96-2.07a24.04 24.04 0 0 1 3.21-3.09c.25-.2.53-.37.82-.5l7.81-4.05a5.5 5.5 0 0 1 1.35-.45c1.19-.28 2.35-.64 3.53-.96l6.03 4.4c1.22.86 2.5 1.61 3.76 2.42.46.29.99.47 1.53.53.2-.03.48-.07.73-.13 1.19-.3 2.4-.51 3.61-.6a143.77 143.77 0 0 0 2.77-.73c1.9-.5 3.74-1.17 5.52-2ZM12.62 38.14a1.11 1.11 0 0 0 1.23-.06l5.69-2.94c.92-.42 1.77-.96 2.55-1.6.35-.32.72-.61 1.05-.97a4.71 4.71 0 0 0 1.23-4.4l-.8-1.53a6.9 6.9 0 0 0-6.9-1.56L9.44 28.8c-.38.11-.7.37-.89.7.05.75.26 1.47.62 2.12l3 5.83c.18.24.32.47.44.68Zm8.93 19.81a3.13 3.13 0 0 0 1.08-2.75 82.28 82.28 0 0 0-.8-5.85 11.73 11.73 0 0 0-1.18-2.54 2.4 2.4 0 0 0-2.1-.27 2.46 2.46 0 0 0-.98 2.2c-.02.85 0 1.7.07 2.55.24 1.53.33 3.07.51 4.66l.8 1.54c.38.23.7.62 1.3.67l1.3-.2Zm19.04-4.73a2.9 2.9 0 0 0-.8 1.66c-.22 1.64-.45 3.27-.65 4.9-.02.37-.03.73-.01 1.1.22.56.53 1.1.92 1.57.34.15.68.26 1.04.35a2.4 2.4 0 0 0 2.88-2.04c.18-1.74.38-3.49.47-5.26a3 3 0 0 0-.48-1.98l-.24-.29-1.03-.52a2.54 2.54 0 0 0-2.1.5Zm5.17-29.47c.23.83.22 1.71-.04 2.53-.03.21-.05.43-.06.64-.19.98-.1 2-.34 3a5.47 5.47 0 0 0 0 1.58 2.44 2.44 0 0 0 3.03 1.33c.2-.08.38-.2.52-.37.52-.54.83-1.25.87-2 .12-1.16.2-2.33.29-3.48.1-1.06.06-2.12-.12-3.16-.04-.12-.1-.22-.16-.32l-.92-.9c-.3-.1-.64-.23-1-.32a2.5 2.5 0 0 0-.5-.04l-.86.45-.7 1.06Zm-11.61 1.79a4.08 4.08 0 0 0-.63 1.84c-.07.58-.2 1.14-.38 1.69l-1.1 3.53c-.15.67-.24 1.35-.28 2.03l.44.84c.32.31.71.54 1.14.67h.43a1.64 1.64 0 0 0 1.57-.9c.32-.5.52-1.06.57-1.65.15-.84.35-1.68.61-2.5.07-.24.11-.5.16-.77.2-1.16.32-2.33.35-3.5a3.51 3.51 0 0 0-.65-1.26 2.8 2.8 0 0 0-1.5-.47l-.73.45Zm-3.87 21.83c-.32.5-.51 1.07-.54 1.66 0 .49-.1.96-.3 1.4-.35.96-.57 1.96-.63 2.97l.23 1.13.83.83c.6.33 1.29.42 1.95.25.36-.12.68-.33.94-.61.27-.32.49-.7.62-1.1.2-.67.37-1.34.62-1.99a6.2 6.2 0 0 0 .33-3.08l-.66-1.29c-.34-.34-.75-.6-1.2-.75l-.96.01-1.23.57Zm1.5 23.82-.03-1.47-2.05-3.96a4.77 4.77 0 0 0-2.69-1.43l-1.15.2a2.96 2.96 0 0 0-.95 2.22c.13.45.37.86.68 1.2.44.4.78.88 1 1.43l1.17 2.26c.07.16.15.3.23.45l.9.64h1.17a2.62 2.62 0 0 0 1.71-1.55Zm19.01-23.02c.42-.98.82-1.84 1.11-2.7.27-.9.62-1.77 1.06-2.6.1-.64.08-1.3-.05-1.93a2.23 2.23 0 0 0-.98-.83c-.27-.1-.56-.17-.85-.21a3.5 3.5 0 0 0-1.32.68 24.33 24.33 0 0 0-1.62 3.27c-.59 1.07-1 2.22-1.23 3.4.14.5.37.94.69 1.33.33.18.6.53 1.2.63l1.15-.2.84-.84Z" fill="#E3544D"/>
  <path d="M48.68 13.9a34.24 34.24 0 0 1-5.51 2.05 142.7 142.7 0 0 1-2.77.73c-1.22.1-2.43.3-3.6.61-.27.06-.54.1-.74.13a3.7 3.7 0 0 1-1.54-.53c-1.25-.81-2.53-1.57-3.75-2.42l-6.04-4.4a4.67 4.67 0 0 1-1.16-1.9 2.4 2.4 0 0 1 .1-1.1 2.3 2.3 0 0 1 2.26-1.7c.48-.03.97.03 1.42.2l.84.33a.32.32 0 0 0 .29-.36c-.03-.26-.1-.53-.11-.8a3.34 3.34 0 0 1 .96-2.61A2.84 2.84 0 0 1 31 1.27a4.6 4.6 0 0 1 2.7.35 7.63 7.63 0 0 1 2.57 1.84l1.09 1.17 1.07 1.2.42-.22c.24-.4.43-.85.62-1.24.35-.6.71-1.18 1.1-1.75a5.86 5.86 0 0 1 2.8-2.06 2.67 2.67 0 0 1 3.08.64c.27.27.45.62.51.99.11.52.12 1.06.02 1.6a9.73 9.73 0 0 1-1.03 2.67c-.3.54-.7 1.08-.93 1.63.28.21.44.02.59-.06.84-.46 1.75-.79 2.69-.98a6.32 6.32 0 0 1 1.59-.13 2.58 2.58 0 0 1 2.17 3.9 6.68 6.68 0 0 1-2.02 2.22c-.5.24-.97.58-1.35.87Z" fill="#3D6334"/>
  <path d="m52.27 66.64-1.19-.81-.73-1.42c.12-1.23.6-2.4 1.4-3.35a47.14 47.14 0 0 1 5.26-6.2c.46-.24 1.05-.06 1.48-.44.13.23.29.44.48.63.45.33.76.82.87 1.37-.14.86-.47 1.69-.98 2.4-.5.75-.94 1.52-1.41 2.3l-.51.8-1.8 2.8c-.21.34-.46.67-.75.97a2 2 0 0 1-1.62.83c-.17.02-.34.06-.5.12ZM12.63 38.13l-.36-.7-3.01-5.82a5.12 5.12 0 0 1-.62-2.12c.2-.34.51-.6.89-.7l7.21-3.73a6.9 6.9 0 0 1 6.91 1.56l.8 1.53a4.71 4.71 0 0 1-1.23 4.4c-.33.35-.7.64-1.04.96-.78.64-1.64 1.18-2.56 1.6l-5.69 2.95a1.11 1.11 0 0 1-1.3.07ZM21.54 57.94l-1.27.23c-.6-.06-.92-.45-1.3-.68l-.8-1.54c-.17-1.6-.28-3.13-.51-4.65-.07-.85-.1-1.7-.07-2.56a2.46 2.46 0 0 1 .97-2.2 2.4 2.4 0 0 1 2.1.28c.4.6.73 1.25 1 1.93.09.19.15.4.18.6.32 1.94.62 3.88.8 5.85a3.13 3.13 0 0 1-1.1 2.74ZM40.59 53.2a2.54 2.54 0 0 1 2.08-.54l1.03.52.23.3a3 3 0 0 1 .49 1.97c-.1 1.76-.3 3.5-.47 5.26a2.4 2.4 0 0 1-2.88 2.04c-.36-.09-.7-.2-1.04-.35-.4-.47-.7-1-.93-1.58-.01-.36 0-.72.02-1.09.2-1.63.43-3.26.65-4.9.1-.61.38-1.18.82-1.62ZM45.77 23.74l.72-1.02.8-.41c.16 0 .32 0 .48.03.37.1.71.23 1.02.33l.9.9c.08.1.13.2.17.31.19 1.05.23 2.11.12 3.16-.1 1.16-.17 2.32-.28 3.49a3.15 3.15 0 0 1-.87 2c-.14.16-.32.29-.52.37a2.44 2.44 0 0 1-2.81-.92.95.95 0 0 1-.22-.41 5.47 5.47 0 0 1 0-1.6c.24-.98.15-2 .33-2.99 0-.21.03-.42.06-.63.3-.84.32-1.75.1-2.6ZM7.94 59.25c-.2-.02-.41-.05-.62-.1a2.07 2.07 0 0 1-1.41-1.19 125.4 125.4 0 0 1-1.71-4.28c-.23-.59-.34-1.22-.55-1.83-.2-.6-.39-1.05-.65-1.7l.13-1.03 1.17-.6c.54.03 1.05.2 1.5.48a38.91 38.91 0 0 1 1.82 3.51l1.83 3.56.25 1.46-.3.92-1.46.8ZM34.16 25.52l.66-.34a2.8 2.8 0 0 1 1.5.48c.3.37.52.8.65 1.25a24.06 24.06 0 0 1-.34 3.5c-.06.27-.1.53-.17.78-.26.82-.46 1.65-.6 2.5a3.76 3.76 0 0 1-.58 1.65 1.64 1.64 0 0 1-1.57.9 3.3 3.3 0 0 0-.43 0 2.8 2.8 0 0 1-1.14-.67l-.43-.84c.03-.69.12-1.37.27-2.04l1.1-3.53c.18-.54.31-1.11.38-1.68.06-.7.3-1.38.7-1.96ZM30.28 47.36l1.2-.62.97-.01c.45.15.86.4 1.2.75l.67 1.28a6.2 6.2 0 0 1-.34 3.09c-.24.65-.42 1.32-.62 1.98-.13.4-.34.78-.62 1.1-.25.28-.58.5-.94.61-.66.17-1.35.08-1.95-.25l-.82-.82-.24-1.14c.07-1 .28-2 .64-2.96.19-.44.28-.92.29-1.4.05-.58.24-1.13.56-1.6ZM31.77 71.17a2.61 2.61 0 0 1-1.72 1.51h-1.17l-.9-.65-.23-.44-1.16-2.26a3.99 3.99 0 0 0-1-1.43 3.04 3.04 0 0 1-.68-1.2 2.96 2.96 0 0 1 .95-2.2l1.15-.21c1.03.17 1.97.67 2.69 1.43l2.04 3.96.03 1.49ZM50.79 48.15l-.83.82-1.15.2c-.57-.05-.85-.4-1.2-.63-.32-.39-.55-.84-.69-1.32.23-1.2.64-2.34 1.23-3.4.45-1.14 1-2.23 1.62-3.28a3.5 3.5 0 0 1 1.32-.68c.3.04.58.1.85.21.4.17.74.46.98.82.13.64.14 1.3.04 1.94-.43.83-.78 1.7-1.05 2.6-.28.93-.7 1.74-1.12 2.72Z" fill="#F6C168"/>
</svg>