<svg width="1319" height="311" viewBox="0 0 1319 311" fill="none" xmlns="http://www.w3.org/2000/svg">
<path d="M0 280C26.9669 278.417 34.1052 275.468 40.4504 271.432C45.4472 268.267 60.1997 259.958 70.1933 255.368C75.5867 252.836 80.5042 250.145 85.739 247.454C88.7792 246.619 91.6887 245.368 94.3842 243.735C100.888 240.016 108.661 236.692 116.037 233.289C117.861 232.34 119.765 231.39 121.589 230.282C125.814 228.094 130.157 226.139 134.597 224.426C141.814 221.577 148.715 218.57 155.139 215.326L195.114 199.973C210.183 194.197 226.364 189.053 243.495 184.7C253.013 182.326 263.086 180.269 273.556 178.844C293.305 176.233 313.372 174.096 333.597 172.435C337.959 172.118 342.321 171.96 346.684 171.96C356.043 172.197 365.402 171.96 374.682 171.168H378.33C389.593 171.168 400.855 170.852 412.039 170.377C422.475 170.129 432.885 169.23 443.209 167.686C446.144 167.291 448.999 166.658 451.696 165.945C461.61 163.334 471.128 160.406 480.249 157.162C484.056 155.658 488.101 154.313 491.988 152.967C502.45 149.239 512.768 145.121 522.92 140.622C531.486 136.666 540.37 132.946 549.253 129.148C553.536 127.328 557.581 125.349 561.309 123.292C579.249 113.099 597.849 104.11 616.987 96.3859C626.902 92.35 637.847 88.789 649.586 85.861C663.307 82.4582 677.187 79.2137 690.988 75.9691C697.968 74.3864 705.423 73.1994 713.037 72.5663C728.345 71.1419 743.97 70.4297 759.595 70.4297C763.957 70.4297 768.319 70.588 772.602 70.9045C778.71 71.4584 784.976 71.6958 791.162 72.0915C799.173 72.6455 807.025 73.6742 814.401 75.2569L826.298 77.7101C844.404 81.0992 861.927 87.0691 878.329 95.4363L899.585 106.753C905.93 110.235 911.958 113.875 917.51 117.594C919.572 119.018 921.872 120.364 924.014 121.709L943.525 133.025C958.595 141.888 974.22 150.435 990.717 158.823C997.221 162.147 1003.8 165.629 1011.26 168.636C1025.77 174.967 1041.4 180.585 1057.9 185.729C1063.61 187.391 1069.16 189.29 1074.39 191.269C1086.29 196.096 1099.77 199.973 1114.37 202.901C1122.7 204.484 1130.79 206.463 1138.96 208.124C1211.53 216.829 1235.32 280 1319 280V310H0V280Z" fill="#A2B660"/>
<g opacity="0.6">
<path d="M545.05 112.372C535.215 121.394 542.67 138.724 555.123 138.487C569.161 141.336 584.152 137.221 597.476 144.264C607.787 157.321 619.685 170.537 635.23 175.601C652.573 178.966 670.318 179.766 687.895 177.975C694.319 176.076 701.22 176.076 707.724 174.098C728.345 170.932 730.725 150.199 710.262 143.156C701.378 139.99 692.019 139.911 682.898 138.408C676.156 138.803 669.811 136.667 663.07 136.825C655.693 134.768 651.331 134.055 645.224 128.279C637.134 122.423 630.471 112.61 620.002 111.818C615.843 110.721 611.597 109.979 607.311 109.603C597.001 107.545 586.452 106.754 575.982 107.308C565.354 107.308 554.805 107.308 545.05 112.372ZM597.318 6.3317C609.215 17.1732 600.252 38.1439 585.103 37.8274C568.13 41.3093 550.046 36.2447 533.946 44.8704C521.572 60.6973 507.217 76.5243 488.419 82.776C467.419 86.8498 445.931 87.8097 424.65 85.6248C416.877 83.2508 408.629 83.2508 400.776 80.8767C375.872 77.0783 373.016 52.0716 397.683 43.5251C408.391 39.5683 419.733 39.5683 430.678 37.8274C438.927 38.223 446.541 35.6907 454.631 35.7699C463.673 33.3958 468.908 32.5253 476.284 25.4823C486.04 18.4393 494.05 6.56911 506.741 5.69862C511.755 4.34211 516.876 3.4155 522.048 2.9289C534.501 0.475725 547.27 -0.473894 559.961 0.23832C572.81 0.23832 585.579 0.23832 597.318 6.3317ZM1014.43 30.3096C1015.19 31.922 1015.52 33.7032 1015.38 35.4787C1015.24 37.2542 1014.64 38.9634 1013.64 40.4388C1006.34 44.7912 997.539 45.1869 989.528 46.2157C986.752 46.9279 983.897 47.2444 981.041 47.1653C975.648 48.194 970.096 48.748 964.623 48.748C953.043 49.3019 942.891 56.5032 931.311 57.9276C916.646 61.2056 901.36 60.3841 887.133 55.5536C863.735 41.6258 822.412 58.4816 804.646 40.8345C798.063 24.2162 828.44 23.8205 837.561 25.2449C852.631 26.3528 867.939 22.8709 882.771 25.2449C899.744 25.2449 916.559 23.3457 933.294 22.0004C955.74 22.0004 978.424 21.5256 1000.55 23.5831C1003.25 23.5831 1005.79 24.137 1008.25 25.3241C1010.63 26.5111 1012.77 28.1729 1014.51 30.3096H1014.43ZM316.782 123.451C318.628 117.29 318.235 110.676 315.672 104.775C306.551 96.5454 295.368 95.7541 285.136 93.934C281.769 92.6652 278.184 92.0735 274.587 92.193C267.831 90.2638 260.834 89.3045 253.807 89.3442C239.134 88.1571 226.205 74.8625 211.611 72.0928C202.453 69.0687 192.781 67.9029 183.165 68.6639C173.548 69.425 164.181 72.0975 155.615 76.5243C125.952 102.401 73.7629 71.1431 51.1582 103.984C42.7509 135.005 81.2184 135.559 92.719 133.106C111.913 130.969 131.266 137.458 150.063 133.106C171.558 133.106 192.893 136.509 214.07 139.12C242.623 139.12 271.177 139.911 299.333 136.271C302.664 136.192 305.916 135.005 308.93 132.789C311.944 130.653 314.641 127.487 316.862 123.53L316.782 123.451ZM50.2065 29.2017C53.4583 30.6261 55.9964 32.921 59.2483 34.1872C67.4177 37.1152 79.1562 34.1872 83.0426 45.1869C83.9944 53.1004 78.2838 57.8485 70.9075 56.8197C61.4943 57.7929 52.0055 57.7929 42.5923 56.8197C17.7668 54.604 21.8119 23.5831 50.2065 29.1225V29.2017ZM835.658 85.7831C847.872 87.4449 854.138 106.754 842.796 114.509C829.154 121.473 778.789 134.055 782.359 106.042C786.642 92.747 802.266 93.3009 812.498 88.3154C819.954 85.9414 827.885 85.15 835.658 85.7831Z" fill="white"/>
</g>
</svg>
