<?xml version="1.0" encoding="utf-8"?>
<!-- Generator: Adobe Illustrator 24.2.3, SVG Export Plug-In . SVG Version: 6.00 Build 0)  -->
<svg version="1.1" id="Layer_1" xmlns="http://www.w3.org/2000/svg" xmlns:xlink="http://www.w3.org/1999/xlink" x="0px" y="0px"
	 viewBox="0 0 141.7 141.7" style="enable-background:new 0 0 141.7 141.7;" xml:space="preserve">
<style type="text/css">
	.st0{fill:#F8F7F2;}
</style>
<g>
	<g>
		<circle class="st0" cx="86.2" cy="106.8" r="13"/>
		<path class="st0" d="M44.3,87c-7.1-1.1-13.8,3.7-14.9,10.8c-1.1,7.1,3.7,13.8,10.8,14.9c7.1,1.1,13.8-3.7,14.9-10.8
			C56.3,94.8,51.4,88.2,44.3,87z"/>
		<circle class="st0" cx="36.1" cy="56.1" r="13"/>
		<circle class="st0" cx="105.6" cy="67.1" r="13"/>
		<path class="st0" d="M99.3,53.5c0.9-0.4,1.9-0.8,2.9-1c-2.9-4.8-6.8-8.8-11.5-11.9c-0.3,1-0.7,2-1.2,2.9
			C93.5,46.1,96.8,49.5,99.3,53.5L99.3,53.5z"/>
		<path class="st0" d="M59.6,38.2c-0.1-1-0.2-2-0.1-3.1c-5.9,1.5-11.4,4.4-16.1,8.5c0.9,0.5,1.7,1.1,2.5,1.8
			C49.9,42.1,54.5,39.6,59.6,38.2z"/>
		<path class="st0" d="M30.3,69.4c-0.6,6.3,0.4,12.7,2.9,18.6c0.8-0.6,1.7-1.2,2.6-1.6c-2.1-5.1-2.9-10.6-2.6-16
			C32.2,70.1,31.3,69.8,30.3,69.4L30.3,69.4z"/>
		<path class="st0" d="M103.8,82c-1.4,5.1-3.8,9.9-7.3,14c0.7,0.7,1.4,1.5,2,2.3c4-4.7,6.9-10.2,8.4-16.2c-0.4,0-0.8,0.1-1.2,0.1
			C105,82.1,104.4,82.1,103.8,82L103.8,82z"/>
		<path class="st0" d="M55.9,106.2c-0.4,0.9-0.9,1.8-1.6,2.6c4.7,1.9,9.7,2.9,14.7,2.9c1,0,1.9-0.1,2.9-0.1c-0.3-1-0.6-1.9-0.7-3
			C66,109,60.8,108.2,55.9,106.2z"/>
	</g>
	<path class="st0" d="M75.8,49.8c-0.9,0-1.7-0.1-2.6-0.2l0.6-3.4c1.3,0.2,2.7,0.2,4.1,0l0.7,3.4C77.7,49.7,76.7,49.8,75.8,49.8z
		 M68.4,47.6l-0.2-0.1v0c-1.6-1-2.8-2.3-3.9-3.8l2.9-2c0.8,1.1,1.7,2.1,2.9,2.8l0.3,0.2L68.4,47.6L68.4,47.6z M83.6,47.4l-2-2.9
		c1.1-0.8,2.1-1.7,2.8-2.9l3,1.8l-0.1,0.1C86.4,45,85.1,46.4,83.6,47.4z M62.2,38.8c-0.2-0.9-0.3-1.9-0.3-2.9c0-0.8,0.1-1.7,0.2-2.5
		l3.4,0.6c-0.1,0.6-0.2,1.3-0.2,1.9c0,0.7,0.1,1.4,0.2,2.2L62.2,38.8z M89.4,38.5L86,37.8c0.1-0.6,0.2-1.2,0.2-1.9
		c0-0.7-0.1-1.4-0.2-2.2l3.4-0.7c0.2,0.9,0.3,1.9,0.3,2.9C89.6,36.8,89.6,37.6,89.4,38.5L89.4,38.5z M67,30.3l-1.4-1.1l-1.5-0.9
		c1-1.6,2.3-2.9,3.8-3.9l2,2.9c-1.1,0.8-2.1,1.7-2.8,2.9L67,30.3z M84.3,30c-0.8-1.1-1.7-2.1-2.9-2.8l-0.1-0.1l2-2.9l0.1,0l0,0
		c1.5,1,2.8,2.3,3.9,3.8C87.2,28.1,84.3,30,84.3,30z M73.6,25.8l-0.7-3.4c1.8-0.4,3.6-0.4,5.4-0.1l-0.6,3.4
		C76.4,25.5,75,25.5,73.6,25.8z"/>
</g>
</svg>
