<?xml version="1.0" encoding="utf-8"?>
<!-- Generator: Adobe Illustrator 24.2.3, SVG Export Plug-In . SVG Version: 6.00 Build 0)  -->
<svg version="1.1" id="Layer_1" xmlns="http://www.w3.org/2000/svg" xmlns:xlink="http://www.w3.org/1999/xlink" x="0px" y="0px"
	 viewBox="0 0 141.7 141.7" style="enable-background:new 0 0 141.7 141.7;" xml:space="preserve">
<style type="text/css">
	.st0{fill:#F8F7F2;}
</style>
<g>
	
		<rect x="30" y="73.6" transform="matrix(8.437344e-02 -0.9964 0.9964 8.437344e-02 -46.6384 115.3878)" class="st0" width="19" height="19"/>
	<circle class="st0" cx="98.3" cy="88.1" r="11.5"/>
	<path class="st0" d="M70.6,71.2L54.3,94.6L82.7,97C82.7,97,70.6,71.2,70.6,71.2z M70.1,77.1l7.7,16.5l-18.1-1.5L70.1,77.1
		L70.1,77.1z"/>
	<polygon class="st0" points="75,19.3 55.7,47.8 89.2,50.7 	"/>
	<rect x="80" y="83.4" transform="matrix(0.1343 -0.9909 0.9909 0.1343 -13.188 155.7018)" class="st0" width="5" height="4"/>
	<rect x="82.7" y="63.6" transform="matrix(0.134 -0.991 0.991 0.134 8.7975 141.2073)" class="st0" width="5" height="4"/>
	<rect x="81.4" y="73.5" transform="matrix(0.134 -0.991 0.991 0.134 -2.1784 148.459)" class="st0" width="5" height="4"/>
	<rect x="84" y="53.7" transform="matrix(0.134 -0.991 0.991 0.134 19.7833 133.947)" class="st0" width="5" height="4"/>
	
		<rect x="54.1" y="81.2" transform="matrix(2.792161e-02 -0.9996 0.9996 2.792161e-02 -28.084 137.47)" class="st0" width="5" height="4"/>
	
		<rect x="54.4" y="71.2" transform="matrix(2.792161e-02 -0.9996 0.9996 2.792161e-02 -17.8246 128.0217)" class="st0" width="5" height="4"/>
	
		<rect x="54.7" y="61.2" transform="matrix(2.792161e-02 -0.9996 0.9996 2.792161e-02 -7.5653 118.5733)" class="st0" width="5" height="4"/>
	
		<rect x="55" y="51.2" transform="matrix(2.792161e-02 -0.9996 0.9996 2.792161e-02 2.7132 109.1453)" class="st0" width="5" height="4"/>
	<path class="st0" d="M118.4,72.9c-4-4.7-9.5-7.6-15.6-8.1l-13.3-1.1l-0.4,3l13.4,1.1c5.3,0.4,10.1,2.9,13.6,7
		c3.4,4.1,5.1,9.3,4.6,14.6c-0.4,5.3-2.9,10.1-7,13.6c-4.1,3.4-9.3,5.1-14.6,4.6l-62.8-5.3c-11-0.9-19.2-10.6-18.2-21.6
		c0.4-5.3,2.9-10.2,7-13.6c3.6-3.1,8.2-4.7,12.9-4.7c0.6,0,1.2,0,1.7,0.1l13.4,1.1l0.1-3l-13.3-1.1c-6.1-0.5-12.1,1.4-16.8,5.3
		c-4.7,4-7.6,9.5-8.1,15.6c-1.1,12.6,8.3,23.8,21,24.9l62.8,5.3c0.7,0.1,1.3,0.1,2,0.1c5.4,0,10.6-1.9,14.8-5.4
		c4.7-4,7.6-9.5,8.1-15.6C124.2,83.6,122.3,77.6,118.4,72.9L118.4,72.9z"/>
	<polygon class="st0" points="81.5,63 61.2,61.3 61.1,64.3 81.1,66 	"/>
</g>
</svg>
