<?xml version="1.0" encoding="utf-8"?>
<!-- Generator: Adobe Illustrator 24.2.3, SVG Export Plug-In . SVG Version: 6.00 Build 0)  -->
<svg version="1.1" id="Layer_1" xmlns="http://www.w3.org/2000/svg" xmlns:xlink="http://www.w3.org/1999/xlink" x="0px" y="0px"
	 viewBox="0 0 141.7 141.7" style="enable-background:new 0 0 141.7 141.7;" xml:space="preserve">
<style type="text/css">
	.st0{fill:#F8F7F2;}
</style>
<g>
	<path class="st0" d="M86.9,46.1c0.8-0.8,0.8-2,0-2.8c-2.8-2.8-5.2-5.3-7.3-7.2c-2.4-2.2-4.3-3.5-6.2-4.4c-6.4-3-13.8-3-20.2,0
		c-1.9,0.9-3.8,2.2-6.2,4.4c-2.1,1.9-4.5,4.3-7.3,7.2c-0.8,0.8-0.8,2,0,2.8c2.8,2.8,5.2,5.3,7.3,7.2c2.4,2.2,4.3,3.5,6.2,4.4
		c3.2,1.5,6.7,2.2,10.1,2.2c3.5,0,6.9-0.7,10.1-2.2c1.9-0.9,3.8-2.2,6.2-4.4C81.7,51.4,84.2,48.9,86.9,46.1L86.9,46.1z M68.3,54.8
		c-5.5,0-10-4.5-10-10.1s4.5-10.1,10-10.1c5.5,0,10,4.5,10,10.1S73.8,54.8,68.3,54.8z"/>
	<path class="st0" d="M60.6,77.6c-2.4-2.2-4.3-3.5-6.2-4.4c-6.4-3-13.8-3-20.2,0c-1.9,0.9-3.8,2.2-6.2,4.4c-2.1,1.9-4.6,4.3-7.3,7.2
		c-0.8,0.8-0.8,2,0,2.8c2.8,2.8,5.2,5.3,7.3,7.2c2.4,2.2,4.3,3.5,6.2,4.4c3.2,1.5,6.7,2.2,10.1,2.2s6.9-0.7,10.1-2.2
		c1.9-0.9,3.8-2.2,6.2-4.4c2.1-1.9,4.5-4.3,7.3-7.2c0.8-0.8,0.8-2,0-2.8C65.2,82,62.7,79.5,60.6,77.6L60.6,77.6z M38.3,96.3
		c-5.5,0-10-4.5-10-10.1s4.5-10.1,10-10.1s10,4.5,10,10.1S43.8,96.3,38.3,96.3z"/>
	<path class="st0" d="M106.4,67.2c-2.6-3.7-7.1-5.8-12.4-5.8c-12.5,0-18.2,8.5-18.2,16.3c0,7.1,4.6,11.9,8.7,16.1
		c1.8,1.8,3.5,3.6,4.7,5.4c0.8,1.2,1.5,2.4,2.1,3.4c2,3.4,3.7,6.2,8,6.2c2.3,0,4.2-0.8,5.6-2.4c2-2.3,2.2-5.9,1.8-8.4l-0.3-1.5
		l-3,0.5l0.3,1.5c0.3,1.9,0.1,4.5-1.1,5.9c-0.7,0.9-1.8,1.3-3.2,1.3c-2.5,0-3.4-1.4-5.5-4.8c-0.6-1.1-1.4-2.3-2.2-3.6
		c-1.4-2.1-3.3-4-5-5.8c-4.1-4.2-7.9-8.1-7.9-14c0-6.6,4.7-13.3,15.2-13.3c5.6,0,8.5,2.5,10,4.5c1.8,2.5,2.3,5.8,1.4,8.3l-0.5,1.4
		l2.8,1l0.5-1.4C109.4,74.8,108.7,70.5,106.4,67.2L106.4,67.2z"/>
	<path class="st0" d="M97.1,78.9l3,0.4l0.2-1.5c0.6-4.3-1.6-6.3-3-7.1c-3-1.7-7.4-1.2-10.4,1.1C85,73.3,84,75.2,84,77.4
		c-0.1,3.5,2.4,7.7,6.8,11.4c1.9,1.6,3.5,4.1,3.5,5.4v1.5h3v-1.5c0-2.9-2.7-6.2-4.5-7.7c-3.7-3.1-5.8-6.5-5.8-9.1
		c0-1.3,0.6-2.4,1.7-3.3c2-1.6,5.2-2,7.1-0.9c1.3,0.7,1.8,2.1,1.5,4L97.1,78.9L97.1,78.9z"/>
	<path class="st0" d="M104.5,84.6l1.4-0.6l-1.1-2.8l-1.4,0.6c-2,0.8-4.2,2.5-4.5,4.9c-0.3,2,0.8,4,3.2,5.8l1.2,0.9L105,91l-1.2-0.9
		c-1.4-1.1-2.1-2.2-2-3C102,86,103.3,85,104.5,84.6L104.5,84.6z"/>
</g>
</svg>
