<?xml version="1.0" encoding="utf-8"?>
<!-- Generator: Adobe Illustrator 24.2.3, SVG Export Plug-In . SVG Version: 6.00 Build 0)  -->
<svg version="1.1" id="Layer_1" xmlns="http://www.w3.org/2000/svg" xmlns:xlink="http://www.w3.org/1999/xlink" x="0px" y="0px"
	 viewBox="0 0 141.7 141.7" style="enable-background:new 0 0 141.7 141.7;" xml:space="preserve">
<style type="text/css">
	.st0{fill:#F8F7F2;}
</style>
<g>
	<path class="st0" d="M31.5,67.9c-6.2-2.2-13,1.1-15.2,7.3c-2.2,6.2,1.1,13,7.3,15.2c6.2,2.2,13-1.1,15.2-7.3
		C40.9,76.9,37.7,70,31.5,67.9z M24.5,87.5c-4.6-1.6-7.1-6.7-5.4-11.4c1.6-4.6,6.7-7.1,11.4-5.4c4.6,1.6,7.1,6.7,5.4,11.4
		C34.3,86.7,29.2,89.1,24.5,87.5z"/>
	<path class="st0" d="M45.8,27.5c-6.2-2.2-13,1.1-15.2,7.3s1.1,13,7.3,15.2s13-1.1,15.2-7.3S52,29.6,45.8,27.5z M38.8,47.1
		c-4.6-1.6-7.1-6.7-5.4-11.4c1.6-4.6,6.7-7.1,11.4-5.4s7.1,6.7,5.4,11.4S43.5,48.7,38.8,47.1z"/>
	<path class="st0" d="M78.2,64.2c6.2,2.2,13-1.1,15.2-7.3s-1.1-13-7.3-15.2C80,39.6,73.1,42.8,71,49C68.8,55.2,72,62,78.2,64.2z
		 M85.2,44.6c4.6,1.6,7.1,6.7,5.4,11.4c-1.6,4.6-6.7,7.1-11.4,5.4s-7.1-6.7-5.4-11.4S80.5,42.9,85.2,44.6z"/>
	<path class="st0" d="M133,114.3c-1.4-3-2.7-5.7-3.9-7.8c-1.4-2.5-2.6-4.2-3.9-5.5c-4.5-4.4-10.6-6.5-16.9-6
		c-1.9,0.2-3.8,0.7-6.5,1.8c-2.3,0.9-4.9,2.2-8,3.6c-0.1,0-0.1,0.1-0.2,0.1l-25.2-8.9l-1,2.8l25.6,9.1c1.4,2.9,2.6,5.4,3.7,7.4
		c1.4,2.5,2.6,4.2,3.9,5.5c2.2,2.2,4.9,3.8,7.8,4.8c2.9,1,6,1.4,9.1,1.1c1.9-0.2,3.8-0.7,6.5-1.8c2.3-0.9,4.9-2.2,8-3.6
		C133,116.5,133.5,115.3,133,114.3L133,114.3z M105.8,115.5c-4.6-1.6-7-6.7-5.4-11.3c1.6-4.6,6.7-7,11.3-5.4c4.6,1.6,7,6.7,5.4,11.3
		C115.5,114.8,110.4,117.2,105.8,115.5z"/>
	<path class="st0" d="M59.5,90.4c0.2-0.5,0.4-1,0.7-1.5l-2.6-1.5c-0.4,0.6-0.7,1.3-0.9,2c-0.3,0.8-0.5,1.6-0.6,2.4l3,0.4
		C59.1,91.6,59.3,91,59.5,90.4L59.5,90.4z"/>
	<path class="st0" d="M59.3,95.7l-2.9,0.8c0.4,1.5,1.1,2.9,2,4.2l0,0l0.1,0.2l1.1-1.1l1.3-0.6l-0.2-0.3
		C60.1,97.8,59.5,96.8,59.3,95.7L59.3,95.7z"/>
	<path class="st0" d="M77.3,86.2L77.3,86.2L77.3,86.2l-1.4,1l-1.1,0.7l0.1,0.1c0.7,0.9,1.2,2,1.5,3.1l2.9-0.8
		C79,88.8,78.3,87.4,77.3,86.2L77.3,86.2z"/>
	<path class="st0" d="M60.6,83.9l0.9,1.2l0.8,1.3l0.1-0.1c0.9-0.7,2-1.2,3.1-1.5l-0.8-2.9C63.3,82.3,61.9,83,60.6,83.9L60.6,83.9z"
		/>
	<path class="st0" d="M70.1,102l0.8,2.9c1.5-0.4,2.9-1.1,4.1-2l0.1-0.1l-1.9-2.3C72.3,101.2,71.3,101.7,70.1,102z"/>
	<path class="st0" d="M72.3,85.7l1.5-2.6c-1.3-0.8-2.9-1.3-4.4-1.5l-0.4,3C70.2,84.7,71.3,85.1,72.3,85.7L72.3,85.7z"/>
	<path class="st0" d="M63.4,101.1l-1.5,2.6c0.6,0.4,1.3,0.7,2,0.9c0.8,0.3,1.6,0.5,2.4,0.6l0.4-3C65.5,102,64.4,101.7,63.4,101.1
		L63.4,101.1z"/>
</g>
</svg>
