<?xml version="1.0" encoding="utf-8"?>
<!-- Generator: Adobe Illustrator 24.2.3, SVG Export Plug-In . SVG Version: 6.00 Build 0)  -->
<svg version="1.1" id="Layer_1" xmlns="http://www.w3.org/2000/svg" xmlns:xlink="http://www.w3.org/1999/xlink" x="0px" y="0px"
	 viewBox="0 0 141.7 141.7" style="enable-background:new 0 0 141.7 141.7;" xml:space="preserve">
<style type="text/css">
	.st0{fill:#F8F7F2;}
</style>
<g>
	<circle class="st0" cx="38.4" cy="55.6" r="10.6"/>
	<polygon class="st0" points="64,114.8 90.7,110 73.2,89.2 	"/>
	<path class="st0" d="M97.7,88.1l8.6,18.9l10.3-27.5L97.7,88.1z M106,99.2l-4.4-9.6l9.6-4.3L106,99.2L106,99.2z"/>
	<path class="st0" d="M81.8,85.5c15.4,0,28-12.6,28-28s-12.6-28-28-28s-28,12.6-28,28c0,5.3,1.5,10.2,4,14.4L32.6,97.1l9.6,9.6
		l25.2-25.2C71.6,84,76.6,85.5,81.8,85.5L81.8,85.5z M56.8,57.5c0-13.8,11.2-25,25-25c13.8,0,25,11.2,25,25s-11.2,25-25,25
		S56.8,71.3,56.8,57.5z M42.2,102.4l-5.3-5.3l22.7-22.7c1.5,2,3.3,3.8,5.3,5.3C64.9,79.7,42.2,102.4,42.2,102.4z"/>
	<path class="st0" d="M67.3,68.1c-0.7-1-1.4-2.1-1.9-3.2l-2.7,1.2c0.6,1.3,1.3,2.6,2.2,3.8L67.3,68.1L67.3,68.1z"/>
	<path class="st0" d="M65.4,50.2L62.6,49c-0.6,1.3-1.1,2.8-1.3,4.2l2.9,0.6C64.5,52.5,64.9,51.3,65.4,50.2z"/>
	<path class="st0" d="M71.4,75.7l1.5-2.6c-1.1-0.6-2.1-1.4-3.1-2.2l-2,2.2C68.9,74.1,70.1,74.9,71.4,75.7z"/>
	<path class="st0" d="M63.8,57.5h-3c0,1.5,0.2,2.9,0.5,4.4l2.9-0.6C64,60,63.8,58.8,63.8,57.5L63.8,57.5z"/>
	<path class="st0" d="M76.2,40.4l-0.9-2.8c-1.4,0.5-2.7,1.1-4,1.8l1.5,2.6C73.9,41.3,75,40.8,76.2,40.4L76.2,40.4z"/>
	<path class="st0" d="M79.6,78.4l0.3-3c-1.2-0.1-2.5-0.4-3.7-0.8l-0.9,2.9C76.8,77.9,78.2,78.2,79.6,78.4L79.6,78.4z"/>
	<path class="st0" d="M99.4,53.7l2.9-0.6c-0.3-1.4-0.8-2.8-1.4-4.2l-2.7,1.2C98.8,51.2,99.1,52.4,99.4,53.7L99.4,53.7z"/>
	<path class="st0" d="M69.8,44.1l-2-2.2c-1.1,1-2.1,2.1-2.9,3.3l2.4,1.8C68,45.9,68.8,45,69.8,44.1L69.8,44.1z"/>
	<path class="st0" d="M96.4,46.8l2.4-1.8c-0.9-1.2-1.9-2.3-2.9-3.2l-2,2.2C94.8,44.9,95.6,45.8,96.4,46.8z"/>
	<path class="st0" d="M96.4,68l2.4,1.8c0.9-1.2,1.6-2.5,2.2-3.8l-2.7-1.2C97.8,65.9,97.1,67,96.4,68L96.4,68z"/>
	<path class="st0" d="M99.4,61.2l2.9,0.6c0.3-1.4,0.4-2.9,0.4-4.4v-0.1l-3,0.1C99.8,58.7,99.7,60,99.4,61.2z"/>
	<path class="st0" d="M83.7,75.4l0.3,3c1.5-0.2,2.9-0.5,4.3-0.9l-0.9-2.8C86.2,75,85,75.2,83.7,75.4L83.7,75.4z"/>
	<path class="st0" d="M83.6,39.6l0.3-3c-1.4-0.1-2.9-0.1-4.4,0l0.3,3C81.1,39.4,82.4,39.4,83.6,39.6L83.6,39.6z"/>
	<path class="st0" d="M92.3,39.2c-1.3-0.7-2.6-1.3-4-1.8l-0.9,2.9c1.2,0.4,2.4,0.9,3.4,1.5L92.3,39.2L92.3,39.2z"/>
	<path class="st0" d="M90.8,73.1l1.5,2.6c1.3-0.7,2.5-1.6,3.6-2.6l-2-2.2C92.9,71.7,91.9,72.4,90.8,73.1L90.8,73.1z"/>
</g>
</svg>
