<?xml version="1.0" encoding="utf-8"?>
<!-- Generator: Adobe Illustrator 24.2.3, SVG Export Plug-In . SVG Version: 6.00 Build 0)  -->
<svg version="1.1" id="Layer_1" xmlns="http://www.w3.org/2000/svg" xmlns:xlink="http://www.w3.org/1999/xlink" x="0px" y="0px"
	 viewBox="0 0 141.7 141.7" style="enable-background:new 0 0 141.7 141.7;" xml:space="preserve">
<style type="text/css">
	.st0{fill:none;stroke:#F8F7F2;stroke-width:3;}
	.st1{fill:#F8F7F2;stroke:#F8F7F2;stroke-width:4;stroke-linejoin:round;}
	.st2{fill:#F8F7F2;stroke:#F8F7F2;stroke-width:3.9998;stroke-linejoin:round;stroke-miterlimit:3.9998;}
</style>
<g>
	<rect x="29.7" y="92.4" class="st0" width="19.6" height="19.6"/>
	<path class="st1" d="M39.6,31L39.6,31c5.4,0,9.8,4.4,9.8,9.8l0,0c0,5.4-4.4,9.8-9.8,9.8l0,0c-5.4,0-9.8-4.4-9.8-9.8l0,0
		C29.7,35.4,34.1,31,39.6,31z"/>
	<rect x="59.2" y="31" class="st0" width="19.6" height="19.6"/>
	<rect x="59.2" y="92.4" class="st0" width="19.6" height="19.6"/>
	<path class="st0" d="M99.7,89.9L99.7,89.9c6.1,0,11,4.9,11,11l0,0c0,6.1-4.9,11-11,11l0,0c-6.1,0-11-4.9-11-11l0,0
		C88.7,94.9,93.6,89.9,99.7,89.9z"/>
	<path class="st0" d="M96.6,41.5L107.1,31v19.6H87.4L96.6,41.5z"/>
	
		<rect x="28.9" y="61.7" transform="matrix(0.9989 -4.587879e-02 4.587879e-02 0.9989 -3.2074 3.243)" class="st2" width="80.3" height="19.6"/>
</g>
</svg>
