<svg viewBox="0 0 1440 642" fill="none" xmlns="http://www.w3.org/2000/svg">
  <path d="M659.4 115.9c-2.2-.3-4.4-.4-6.7-.8-1-.1-1.9-.5-2.7-1-.9-.5-1.6-1.1-2.2-1.9-.5-.8-.9-1.6-1-2.5 0-1 .2-1.9.6-2.7.4-.8 1-1.6 1.9-2.1 1-.8 2-1.4 3.2-2l3-1.3 8.1-2c.4-1-.4-1.4-1-1.8-1.4-.7-2.9-1.3-4.2-2.2-2-1.2-3.7-2.5-5.3-4-1.2-1-2-2.4-2.2-3.9-.3-1.4 0-3 .8-4.3a8 8 0 0 1 3.3-3.2 9.8 9.8 0 0 1 4.8-1.1c3.3-.2 6.5.3 9.5 1.4l3.5 1.3.8.4v-1c-.6-1.4-1-2.9-1.5-4.3a24.4 24.4 0 0 1-1.6-10.8c0-1.2.4-2.5 1-3.6.6-1 1.3-1.8 2.3-2.5a9.6 9.6 0 0 1 10.4 0 29.2 29.2 0 0 1 5.3 5.8c1.5-.1 1.1-1 1.3-1.6.7-1.9 1-3.8 2-5.6a6.4 6.4 0 0 1 2.6-2.9 8 8 0 0 1 4.1-1c1.5-.2 3 .1 4.2.7 1.3.6 2.4 1.6 3 2.7 1.5 2.5 2.4 5.3 2.4 8v8.5c0 1.1.2 2.2.4 3.4h2.5c1-.3 1.7-.8 2.4-1.4 1.7-1.5 3.8-2.5 6-3a15 15 0 0 1 7 0c2 1.2 3.6 2.8 4.4 4.7.8 2 .8 4 0 6l-.8 3.6c-1.5 4.7-4.4 9-8.5 12.4l-4 3.7c-1.6.5-3 1.5-3.7 2.9l-2.7 1.8c-.6.4-1.1 1-2 .4V95c0-.8 0-1.6-.4-2.3a5 5 0 0 0-1.6-1.9c-.7.4-1.4.6-1.6 1a18 18 0 0 0-2 4.2c-.8 2.5-1.2 5-1.7 7.4 0 .6-.3 1.1-.5 1.6-.1.6-.3.8-.9 1.9-1-3-1.5-5.4-2.3-7.6l-5-14-1.2-1.7a7 7 0 0 0-1.6-.3c-.6 0-1.1.2-1.6.4-.6.5-1 1.2-1 2-.2.7 0 1.4.3 2.1 1.6 6.1 3.4 12.3 4.8 18.4l.4 2.4c-1-.4-2-.8-2.8-1.4l-10.6-7.3c-1.4-1-2.8-2-4.9-1.2-.3.1-.5.3-.7.6l-.3.7v.8l.5.8 3.1 3.2c3 2.6 6 5 9 7.7.8.8 1.6 1.7 2.2 2.6l-5.4.3-5.5.2-10 .5h-9.7l.3-.1Z" fill="#CA5769"/>
  <path d="M690 115c-.6-1-1.4-1.8-2.2-2.7l-9-7.7a22.7 22.7 0 0 1-3.5-4 1.7 1.7 0 0 1 .2-1.5l.7-.6c2-.8 3.4.2 4.9 1.2 3.4 2.5 7 5 10.6 7.4l2.8 1.4c0-1.1-.2-1.8-.4-2.5l-4.8-18.4c-.4-.6-.5-1.4-.3-2.1 0-.8.4-1.4 1-2l1.6-.4c.5 0 1 .2 1.6.4l1.2 1.6 5 14 2.3 7.6 1-1.8.4-1.6 1.6-7.5a18 18 0 0 1 2-4.2c.3-.4 1-.6 1.7-1a5 5 0 0 1 1.6 2c.3.7.5 1.5.4 2.2v14.3c.9.6 1.4 0 2-.4l2.7-1.9 3 3.4 14.1 18.5c6.6 9 11.4 18.9 14.2 29.2l2.4 7.7a111 111 0 0 1 5.5 31l.2 3.3-2.7 9-5.5 8.8c-.4-.7-.7-1.5-.9-2.3l-.8-18.9c-.2-6.4-1.1-12.8-2.6-19.1-1.2-5.3-2.9-10.6-4.5-15.9-2.7-9.5-6.8-18.7-12.2-27.3l-13.6-20.5c-.7-1-1.5-1.9-2.4-2.7l-5.1 2c.5 1.3.8 2.4 1.3 3.4 1.8 3.6 4 7 5.5 10.7 2.8 6.7 5.6 13.4 7.9 20.3 3.1 9.7 5.8 19.5 8.7 29.2.5 2 1 4 1.2 6.2.8 4.7 1.6 9.4 2.2 14 .6 4.8 1.3 8.8 1.5 13.4.3 6.9.2 13.7.3 20.4l-8.9 4v-2.4c-.2-9.4.2-18.7-.8-28-.8-6.9-1.6-13.6-3-20.5-1.1-5.5-2.6-11-4-16.4a339 339 0 0 0-13.8-42.7l-4.5-10.3-7.8.7Z" fill="#F9F5E7"/>
  <path d="m754.4 200-.2-3.4a111 111 0 0 0-5.4-31c-.9-2.5-1.7-5-2.4-7.6a90.4 90.4 0 0 0-14.2-29.2L718 110.2c-.9-1.2-2-2.2-3-3.3a6.5 6.5 0 0 1 3.8-3l11 4.4 1.2-.2 1.6-3.2c2-4.8 5.2-9.3 9.3-13 1-1 2.1-1.6 3.4-2.2a91 91 0 0 0-3.9 28.2c-.1.6 0 1.3.4 2 .3.6.9 1.2 1.6 1.5 2.8-.1 3.3-.5 3.7-2.2.4-2.5.8-5 .9-7.5a69 69 0 0 1 3.2-17.6c.4-2.3 1.4-4.5 3-6.5l2.3.7 2.4 4.3v4.5c0 4.3 0 8.7.3 13 .7 8 1.7 16.1 1.7 24.2 0 7.6.7 15.1 1.9 22.6l-2.6 1.4a9.5 9.5 0 0 0 0 5.3c.3 1 .3 2.2.3 3.3l-.9 8.2a25 25 0 0 0-.7 4.1c-.4 7-1.9 14-4.5 20.8ZM677.7 229.6c-2 0-3-1.4-4.3-2.4l-10.2-8.6-2.4-2a72 72 0 0 1-11.1-16.6l-3.8-7.7-2.5-9.3-1.4-5.6v-16.7a69.7 69.7 0 0 1 15.3-42l2.1-2.8h1.9c-.7 1.9-1.4 3.7-1.9 5.6-2 8.3-3.4 16.8-3.8 25.3-.3 6 0 12-.1 18 0 5 .7 9.9 2 14.6l6.7 22.4a68 68 0 0 0 13 25.6c.3.3.5.7.6 1l-.1 1.2Z" fill="#B3CF9C"/>
  <path d="m756.7 88.7-2.3-.7c0-.5-.3-1-.7-1.4-.4-.4-.8-.7-1.4-1l-3.5-5c-1.8-2.4-3.7-4.9-5.3-7.4a6.7 6.7 0 0 1-.7-5.5c.3-.7.8-1.4 1.4-2 .6-.5 1.4-1 2.2-1.2.8-.3 1.7-.4 2.6-.4 1.2 0 2.5 0 4 .2a5 5 0 0 0 0-1.7c-.9-3-1.2-6.1-.8-9.2 0-1.1.3-2.2 1-3.2a6 6 0 0 1 3-2c1.5-.3 3-.3 4.4.2 1.3.5 2.5 1.3 3.2 2.4 1.9 3.1 3.4 6.4 5 9.6l1.5 3.6 1.4-2c1-1.7 1.7-3.4 2.7-5 .7-1 1.6-2 2.7-2.9 1-.8 2.1-1.3 3.4-1.6 1.3-.2 2.6-.1 3.8.3 1.4.4 2.5 1.1 3.4 2 .8 1 1.3 2.2 1.4 3.4.2 1.5.1 3-.2 4.5-.6 3.2-1.5 6.3-2.2 9.5v1.5l2.7.4h4.8c1 0 2 .3 2.8.8.8.4 1.6 1 2 1.7.6.7.9 1.6 1 2.4 0 .8 0 1.7-.5 2.5a18.5 18.5 0 0 1-8.3 8.5c-2.5 1.5-5.2 2.7-7.9 4.1l-3.7.2c.1-.6.4-1 .7-1.6.8-1 1.8-2 2.5-3 .5-.7.7-1.5.6-2.2a3 3 0 0 0-1.2-2 4.4 4.4 0 0 0-5 0c-1.1.8-2 1.8-3 2.7-.6.4-1 1.2-2.3.7v-7c0-2.9 0-5.6-.3-8.3-.2-2.3-1.6-2.7-4.8-1.5-1 5.7-1.3 11.7-2.3 18-.5-.4-1-1-1.3-1.6a210.2 210.2 0 0 1-2.9-9c-.3-.4-.8-.9-1.3-1.2l-2.6.3c-.5 3.4-.4 6.8.3 10.1Z" fill="#CA5769"/>
  <path d="M756.7 88.7c-.7-3.3-.8-6.7-.3-10.1l2.6-.3c.5.3 1 .8 1.3 1.3a210.2 210.2 0 0 0 2.9 9l1.3 1.6c1-6.5 1.3-12.4 2.3-18 3.4-1.3 4.6-1 4.8 1.4.3 2.7.3 5.5.3 8.3v7c1.3.5 1.7-.3 2.2-.7 1-1 2-2 3.1-2.7a4.4 4.4 0 0 1 5 0 3 3 0 0 1 1.2 2c.1.7 0 1.5-.6 2.2-.7 1-1.7 2-2.5 3-.3.5-.6 1-.7 1.6l-.9.8-2.4 1.6 1.5 4.5 4.3 11c2 6 3 12 3.1 18 .3 3.3 0 6.4 0 9.7-1.4 3.6-4 6.7-7.6 9 .3-2.3.7-4.5.7-6.7v-16.4c0-1.3-.2-2.7-.5-4.1l-4.9-17.5-2-5.9a5 5 0 0 0-5 .3l1 11.3c1 7.3 1.9 14.5 1.9 22v3l1.7 19.1c-2.3 1.7-5 2.8-7.8 3.4-1.2-7.5-1.8-15-2-22.5 0-8.1-.9-16.2-1.6-24.3-.3-4.3-.2-8.7-.3-13v-4.4l-2-4.5Z" fill="#F9F5E7"/>
  <path d="m770.8 153.8-1.7-19.2v-3c0-7.3-1-14.7-1.9-22-.5-3.7-.7-7.5-1-11.2a5 5 0 0 1 5-.3l2 5.8c1.7 5.9 3.4 11.7 4.9 17.5.3 1.4.5 2.8.5 4.2v16.3c0 2.3-.5 4.5-.7 6.7a15.5 15.5 0 0 1-7.1 5.2ZM785.4 139.6v-9.5c0-6.2-1.1-12.2-3.1-18l-4.4-11.2-1.4-4.4 2.4-1.6.8-.9 3.8-.1 5.6 8.7 1.5 2.7c3 5.9 3.8 12.5 2 18.8-1 4.6-3 9.1-5.4 13.4l-1.8 2.1Z" fill="#B3CF9C"/>
  <path d="M752.3 85.5c.6.2 1 .6 1.4 1 .4.4.6.9.7 1.4-1.6 2-2.6 4.3-3 6.7a69 69 0 0 0-3.1 17.5c0 2.5-.5 5-.9 7.5-.2 1.7-1 2-3.7 2.2-.7-.3-1.3-.9-1.6-1.5-.4-.6-.5-1.3-.4-2a90.6 90.6 0 0 1 3.9-28.2c1.4-2.7 4.4-3.3 6.7-4.6Z" fill="#F9F5E7"/>
  <path d="M700.4 237.8h-1c-4-.8-7.9-1.8-11.6-3.2l1-1.4c-.6-1.5-1.1-2.9-1.9-4.4a66.2 66.2 0 0 0-4-6.7c-4.5-6.5-7.9-13.5-10-20.9-2-6.9-4-13.8-6.2-20.6a72.5 72.5 0 0 1-3.2-22c0-6.6.5-13.2 1-19.7.1-3 .5-6.1 1.2-9.2 1-4.6 2.3-9.2 3.4-13.9l9.9-.5.7 3.7 4.7 24.4 2.2 11 3.7 20 3.4 17.7c.8 4.4 1.2 8.7 2.1 13.2 1.8 7.7 2.4 15.5 3.4 23.4.6 3 .9 6 1.2 9ZM724 234.7c-.8.5-1.6 1-2.4 1.3a44.2 44.2 0 0 1-11.2 2c-.4-2.1-.8-4.2-1-6.3l-3.1-22a1073 1073 0 0 0-11.8-55.6c-2.5-10.6-5.1-21-7.8-31.6l-2.1-7.3 5.4-.2 8-.5 4.4 10.3a339 339 0 0 1 13.8 42.7c1.4 5.5 2.9 11 4 16.4 1.4 6.7 2.2 13.5 3 20.4 1 9.4.6 18.7.8 28v2.4Z" fill="#B3CF9C"/>
  <path d="M684.6 115.2c.7 2.4 1.5 4.8 2.1 7.3l7.8 31.5c2.5 10.6 5 21.6 7.3 32.5 1.6 7.7 3.2 15.4 4.5 23.1 1.3 7.8 2 14.6 3 22l1 6.3c-3.2 1-6.7 1-10 0-.2-3-.5-6.1-1-9.2-1.1-7.7-1.7-15.5-3.3-23.3-1-4.4-1.4-8.8-2.2-13.3l-3.3-17.7-3.8-19.9-2.1-11.1-4.7-24.4-.8-3.7 5.5-.1ZM669.2 115.9c-1.2 4.6-2.5 9.2-3.4 13.9-.7 3-1 6-1.2 9.2-.5 6.5-1 13-1 19.6 0 7.4 1 14.8 3.2 22 2.2 6.9 4.2 13.8 6.2 20.7 2.1 7.4 5.5 14.4 10 20.9 1.5 2.1 2.8 4.4 4 6.6.7 1.4 1.2 3 2 4.4l-1.2 1.4a24 24 0 0 1-8.9-4.2c0-.6-.4-1-1.1-.8.2-.4.2-.9.1-1.3a73 73 0 0 0-3-4.3 68 68 0 0 1-10.6-22.4l-6.6-22.3a50.1 50.1 0 0 1-2.1-14.6c0-6-.2-12 .1-18 .4-8.6 1.7-17 3.8-25.3.5-2 1.2-3.8 1.9-5.7l7.8.2Z" fill="#F9F5E7"/>
  <path d="M746.2 217.7c-2.9 4.5-6.6 8.5-11 11.9-.8.5-1.6 1-2.4 1.3 0-6.9 0-13.7-.3-20.5-.1-4.4-.9-8.9-1.5-13.3a533.3 533.3 0 0 0-3.4-20.3c-2.8-9.8-5.5-19.6-8.7-29.2-2.2-6.8-5-13.5-7.9-20.3-1.5-3.6-3.6-7.1-5.4-10.7l-1.4-3.3 5.2-2.1 2.4 2.8 13.5 20.4a104 104 0 0 1 12.2 27.4c1.6 5.2 3.4 10.5 4.6 15.8a98.3 98.3 0 0 1 2.5 19.2c.2 6.3.5 12.5.9 18.8.1.7.4 1.4.7 2.1Z" fill="#B3CF9C"/>
  <path d="M175.3 598.7c-.7 2.3-2.2 4.3-4.3 5.6-1.8 1.3-3.5 2.5-5.3 3.6-4.5 3-9.8 4.7-15.2 5l-2.4.3a21 21 0 0 0-.3-8.6 11 11 0 0 0-2.8-5.1 12.3 12.3 0 0 0-5.1-3.3c-3.2-1-6.7-1-10 .2-2.3.5-4.4 1.7-6 3.3a10.1 10.1 0 0 0-2.7 6c-.3 2-.3 4.2-.5 6.3l-1.6-.4c-4.7-.8-9-2.7-12.8-5.4a9.2 9.2 0 0 1-3.5-3 8.3 8.3 0 0 1-1.4-4c.8-3 2.7-5.4 5.3-7 3.7-2.6 7.5-5.1 11.4-7.5 4.4-2.7 9.5-4.4 14.9-4.6 2.4 0 4.8-.4 7.3-.5 4-.2 7.9.4 11.6 1.8 2.5.8 5.1 1.7 7.6 2.8 2 .8 3.8 1.9 5.6 3l5.2 3.8c1.3.9 2.4 2 3.3 3.4a11 11 0 0 1 1.7 4.3Z" fill="#F9F5E7"/>
  <path d="m148 613.2-3.6.4-5.6.5c-1 .2-2 .2-2.9.2-5.1-.4-10.2-1.2-15.2-2.3.1-2 .2-4.2.5-6.3.2-2.2 1.2-4.3 2.7-6 1.6-1.6 3.7-2.8 6-3.3 3.2-1.1 6.7-1.2 10-.2 2 .7 3.7 1.8 5.1 3.3a11 11 0 0 1 2.8 5.1c.7 2.8.8 5.8.3 8.6Z" fill="#CA5769"/>
  <path d="M1496.4 531.2c0-.8 0-1.5-.2-2.3l-3-12.9a13.9 13.9 0 0 0-8-9.8l-6.2-.9c-3-.4-5.9-.7-8.9-.9-4.7 0-9.5-.4-14.2-1a8.6 8.6 0 0 1-4.4-5.3l-1.1-3.6-3-11.8a1606.4 1606.4 0 0 0-15.8-54c-2-5.9-4.3-11.7-6.6-17.5a33.6 33.6 0 0 0-5-9.5 8.2 8.2 0 0 0-4.3-3.2c-2.3-.5-4.5-.9-6.9-1l-13.8-1-1.2-.1-5.7-.5h-1.6c-38.4-3-109.2-7-177.2-2.5-15.2-1.3-21.6 16.4-21.6 16.4l-1.4 1.9c-2.6 5.5-5.2 11-7.6 16.7a4 4 0 0 1-1.7 2c-.8.4-1.7.7-2.7.6-4 0-7.8.6-11.7 1.5-4 .8-7.8 1.9-12 2.4-4.3.5-8.3 2.4-11.3 5.3-1.9 2-3.3 4.4-4 6.9l-5.2 14.8c-1.9 5.6-3.8 11.3-5.5 17l-9.4 31.7-3.1 8.6c-.6 2-1.8 3.6-3.4 5a12.2 12.2 0 0 1-5.6 2.6c-2.8.7-5.7 1-8.5 1H1063a3330.8 3330.8 0 0 1-40.9-.6h-31c-3.4 0-6.6-.6-9.7-1.6a11 11 0 0 1-3.7-1.8 15 15 0 0 1-4.2-6.2c-1.7-5.6-3.9-11-5-16.8A16.6 16.6 0 0 0 961 490c-3.4-2-7.5-2.7-11.4-2.1-3.3.4-6.5.6-9.8.6-1.3 0-2.7.2-4 .4-1.4 0-2.5.2-3.7.3l-14.2.8-1.6.3-12.2 1.1c-2.4.2-4.9 0-7.3.2l-14.7 1.3-14.6.8h-1.2c-4.8.4-9.5 1-14.3 1.3l-14.2.8-1.6.3a99 99 0 0 1-4 .4l-12.3.9c-4 .3-8.3.9-12.5 1.3-4.2.4-8.1.5-12.2.8-.6 0-1 .2-1.6.3l-6.1.4c-1 0-2-.2-2.9-.6a83.6 83.6 0 0 1-12.1-7.6 21.6 21.6 0 0 0-14.5-6.2c-4.8 0-9.6-.3-14.2 0-4.7.2-8.7.6-13 .6h-.9c-3 .6-6 .8-9 .6a35 35 0 0 0-4 0 138.8 138.8 0 0 1-17.5 1.5c-6.3.8-12.6 1.8-19 2.2a576.4 576.4 0 0 0-32.4 4.1c-4.8.7-10.2 1.8-15.3 2.4-7.2.8-14.2 2.2-21.3 3.5-5.4 1.1-10.8 2.6-16 4.6a21 21 0 0 0-6.7 3.5 121 121 0 0 0-15 14.8c-3.9 5.1-8 10-12.6 14.5a33.6 33.6 0 0 0-4 5.2 252.6 252.6 0 0 1-20.8 19.6c-9.4 7.6-39.9 5.5-39.9 5.5-1.4-1-2.8 0-4.3 0a1072980.1 1072980.1 0 0 0-16.7.1c-2.5.5-5 .6-7.4.5h-9.4a28.3 28.3 0 0 0-19 6.8 52 52 0 0 1-16.5 7.9c-1.2.3-2.4.4-3.6.3l-37.3-.1c-1.1 0-2.2 0-3.3-.2l-10.5-1.4c-3-.1-5.8-1-8.2-2.6a15.2 15.2 0 0 1-5.5-6.2c-1.7-3-3-6.2-4.2-9.4L340 533c-.8-2.2-1.4-4.4-2-6.6l-8.6-28.8a48.4 48.4 0 0 0-3.2-7.8c-2-3.2-5.2-5.6-9-6.8l-7.3-2.6-3.2-1.6c-45.7-8-77.6-4.7-87.8-2-10.1 2.8-26.7 40.3-26.7 40.3a38.1 38.1 0 0 0-6 9 116.8 116.8 0 0 1-11.6 16.5l-1.1.3c-8.3.3-16.6 0-24.9.7-4.3.2-8.7.2-13 0 0 0-75.8-1-91.7-.6-15.8.3-32 22.2-32 22.2a92 92 0 0 1-8 7.7h-33l-6.5.6h-9s-57.6-8.3-69.9 14.7c-5.5 10.2-21 56-21 56H-10l23.3.1h32.3l18.4.1 77.6.2h61.4l123.1.2v-.6l4.8.3 105.9.2c1.6 0 3.2.2 4.8.4 2.4-.5 4.9-.7 7.3-.7h36.3l99-1.6h2.8l41.3.1 176 .3h10.6l237.6.5h5.3v-1.4h6.4l114.5.1 4 .2 68.2.1 4.4-.2 76.6.1v.3h31.1v-.2l92.3.2.3-.4h9.6l2.8-.5h43.9l-15.4-110.8ZM171 604.3c-1.8 1.3-3.5 2.5-5.3 3.6-4.5 3-9.7 4.7-15.2 5l-2.4.3-3.7.4-5.6.5c-1 .2-2 .2-2.9.2a110.6 110.6 0 0 1-16.8-2.7c-4.7-.8-9.1-2.7-12.8-5.4a9.1 9.1 0 0 1-3.5-3 8.3 8.3 0 0 1-1.5-4c.8-3 2.8-5.4 5.4-7 3.7-2.6 7.4-5.1 11.4-7.5 4.4-2.7 9.5-4.4 14.9-4.6 2.4 0 4.8-.4 7.3-.5 4-.2 7.9.4 11.6 1.8 2.5.8 5.1 1.7 7.6 2.8 2 .8 3.8 1.9 5.6 3l5.2 3.8c1.3.9 2.5 2 3.3 3.3.9 1.3 1.5 2.8 1.7 4.3-.7 2.4-2.2 4.4-4.3 5.7Z" fill="#EDA098"/>
  <path d="M478.3 641c.6-6.7 1.2-17.6 2-24.2l5.2-35.5V580c-4.5-1-9.2.7-13.9 0a11.3 11.3 0 0 1-6.8-8l-4.5-13.8-2.6-7a92.1 92.1 0 0 0-24.4-4.5 23.9 23.9 0 0 0-17 2.6c-6.4 3-12.6 6.2-19 9.3a9.3 9.3 0 0 1-1.8-2.3c-1.9-5.6-3.8-11.2-5.4-17-.2-1.3-.2-2.8 0-4.2l3.3-1.7c15.4-5.8 30.8-11.4 46.2-17.3a8.7 8.7 0 0 1 7.6.2c2.5 1.2 4.9 2.7 7.1 4.5 3.2 3 6.3 6.3 9 9.8 1.8 2 3.2 4.2 4.3 6.5 1.4 2.7 4.2 3.7 6 6 3 4 7.6 6.7 12.6 7.4l23.4 4.3a19 19 0 0 1 3 9.7c0 3.6-.2 7.3-.6 10.9-1.1 6.8-2.5 13.5-3.8 20.3l-.3 4.2c2.4.9 4.2 1.7 6.5 2.4l13.4 4.2 33.5 10.9-.6 23.5h-75c-2.6 0-5 0-7.4.2ZM381.1 620c-.1 1.9-.3 3.8-.7 5.7-1 3.7-2 11.5-3.1 15.2h-64.4c-2 .3-4 0-6-1l-3.4-38.3c-.3-2.8 0-5.6-.2-8.4 1.2 0 2.4.3 3.5.6 23 6.4 45.5 14 67.9 22 2.4.9 4.6 2.3 6.4 4.1Z" fill="#451515"/>
  <path d="M381.1 620c-1.8-2-4-3.4-6.4-4.3-22.4-8-45-15.6-67.9-22l-3.5-.7c-1-8.4-1.4-16.9-1.4-25.3-.2-2.2-.6-4.4-1.2-6.6-.6-3-1.4-5.9-2.1-8.7a16.3 16.3 0 0 1 11-12.7c4.2-1.7 8.3-3.4 12.3-5.3 1.7-.9 3.4-1.9 5-3l9.3-41.8c.7-3.2 1.7-6.3 2.8-9.3 1-2.5 2.8-4.5 5.2-5.7 4.8-2.5 10.2-4 15.6-4.2l20-2h2.3c11.6 0 23.2-.4 34.7-1.4h3a8.8 8.8 0 0 0 6.6-4.1c3.8-4.3 7.8-8.3 12-12 2.6-2.6 6-4.3 9.6-4.7 1.8-.2 3.7.1 5.3.8 5.7 1.8 11.1 3.9 17 5.5 13 4 26 7.7 39 11.6l5.2 1.6c4.9 3.6 4 8.4 4.6 13.4.9.4 1.9.6 2.8.7a13.2 13.2 0 0 1 13 8.5c1.7 3.2 3.1 6.6 4.6 9.9l5 11.7c2.6 6 4.9 12 6.8 18.2 2 7 4.8 13.8 7.2 20.7 1.4 3.6 2.4 7.3 3 11.1a17.8 17.8 0 0 1-7.1 16l-3.9 3v5.5l4 3a17.2 17.2 0 0 1 7.9 15.6c-.2 4.9-.8 9.7-1.2 14.5L528 606.6l-13.4-4.2-6.5-2.4c0-1.4.2-2.8.4-4.2 1.2-6.7 2.6-13.5 3.7-20.3.4-3.6.6-7.3.5-11 0-3.4-1-6.7-2.9-9.6l-23.4-4.3c-5-.7-9.6-3.3-12.6-7.4-1.7-2.3-4.6-3.3-6-6a31.3 31.3 0 0 0-4.2-6.5c-2.8-3.4-5.8-6.7-9-9.8a36.5 36.5 0 0 0-7.2-4.5 8.7 8.7 0 0 0-7.6-.2c-15.4 5.9-30.8 11.5-46.1 17.3-1.2.5-2.3 1.1-3.4 1.8-.2 1.4-.2 2.8 0 4.2l5.4 16.9c.5.9 1 1.7 1.8 2.4l1.4 12L400 581c0 1.8.5 3.6.6 5.4.3 3.5.6 6.9.5 10.3a7.2 7.2 0 0 1-4.4 6.7l-6.7 2.9a29.9 29.9 0 0 0-5 8.4 22.6 22.6 0 0 0-3.8 5.2Z" fill="#CA5769"/>
  <path d="M106 543.8c0-1.2.2-2.4.4-3.6a3.5 3.5 0 0 1 3-2.7 3.5 3.5 0 0 1 3.8 2 7.1 7.1 0 0 1 1 4.3H106Z" fill="#F9F5E7"/>
  <path d="M29.5 281.4a28 28 0 0 1-6.6-8.8c-4.9-8.4-8-17.7-9.3-27.3l-.6-2.6c3.2.7 6.5 1 9.8.8a3.8 3.8 0 0 0 3.5-3.1 3.8 3.8 0 0 0-1.6-4.3c-1.3-.8-2.7-1.3-4.1-1.6l-4.9-.5-4-.3c-1-6.3-1.5-12.7-1.6-19v-20c.2-5 1-10.1 2.2-15 .1-.4.3-.8.6-1.1l4.2 4c1 .8 2 1.5 3.3 2a3.6 3.6 0 0 0 5-3 5.7 5.7 0 0 0-1.7-5c-2.5-2.8-5-5.8-7.4-8.8l1.1-1.8a4.4 4.4 0 0 1 3.5 1.6c3.1 3.5 7.4 5.4 10.8 8.4l.9.8h8.3c1.5.2 3 0 4.3-.8a25 25 0 0 0 12.8-5.4c1-.8 2.2-1.4 3.4-2.1 1.6 3.3 2.6 7 3 10.6a114 114 0 0 1 2.2 20.4v24.9c-.2 3 .4 6.2 1.7 9 4.8.3 9.6.3 14.5 0l-3.7 4.4a6.7 6.7 0 0 0-2 5c2.8 4 4.4 4.2 7.3 1.1 2.4-2.4 4.4-5.2 6.5-7.9l.7-2-1.7-2.7a6.2 6.2 0 0 0-6 .7l-.2-5.8V171l5-2.6a4.2 4.2 0 0 0 2.9-3.6c-2-3.6-3-4.1-6.6-3.4l-1.2.4v-49.4a39 39 0 0 1 1-10.6l1.2.4a4 4 0 0 0 3.5 0 3.8 3.8 0 0 0 2-3 6.7 6.7 0 0 0-3.2-4.8l-2.7-2.2c.8-3.3 1.6-6.6 2.6-9.9A40.8 40.8 0 0 1 103 61.5l2.6-1.8c2.1 1 2.8 3.4 4.1 5.1 1.4 1.8 1.9 3.4 3.8 4.3 0 2.3 1.9 3.6 3.1 5.3a6.9 6.9 0 0 0 6 3.1h9c2.4 0 4.8-.3 7-1l5.3-.8 2.2 2.3a25.8 25.8 0 0 1 8 18.7v44.7l-4 2.9-5.2 4.2a5 5 0 0 0-1.3 6.2l2.9 1.4 7.3-3.6c0 4.3 0 8.6.2 13v21.7c-1.8 0-3.6 0-5.3.3-2.8-.1-5.5.6-7.8 2.1a3.3 3.3 0 0 0 .4 4.2l1.7.8c3.5 1.2 7.2 1.8 10.9 1.7v72.1l-5 2c-.9 4.3-.4 5.3 3 6.3l1.7.2.2 5.3v36l-9.3-2.8c-1.9-.6-3.8-.9-5.8-.7a3.6 3.6 0 0 0-3.5 2.6 4.6 4.6 0 0 0 2.2 3.5 37 37 0 0 0 5.5 2.9c3.6 1.4 7.3 2.5 11 3.8v72.2c-2.6 1-5 2-7.6 2.8a6.8 6.8 0 0 0-3.1 2.1 3.6 3.6 0 0 0 0 4.9 4.6 4.6 0 0 0 4.2 2l6.3-1.1.2 5.3v56.9a5.1 5.1 0 0 0 2 4 8.4 8.4 0 0 0 7.3-2 8.7 8.7 0 0 0 3.1-6.2v-41.1c0-6.7.3-13.5.7-20.2 0-4.3 1.6-8.5 4.4-11.8l1.7 3c.6 1.1 1.3 2 2 3a3.8 3.8 0 0 0 5 1 4.2 4.2 0 0 0 2-5c-.2-.8-.6-1.6-1-2.4l-3.5-7.2c3-1.8 6.6-2.9 10.1-3.1a18.3 18.3 0 0 1 18.7 17.3c.2 2 0 4.1 0 6.2v35.8l-3.3 1.1a7.9 7.9 0 0 0-4.7 4.4 5.6 5.6 0 0 0 4.8 4c1 .2 2.1.2 3.2.2v21a53 53 0 0 1-6.5 22.5 39 39 0 0 1-15 15.5l-3-1.8a4.3 4.3 0 0 0-2.8 4.7 74.7 74.7 0 0 1-17.3 6.2 4.3 4.3 0 0 0-4.6-3.4c-3.4.1-6.8.4-10.2 1-1.5.2-2.8.9-4 1.8a2.8 2.8 0 0 0 .6 4.8c1.2.6 2.5 1 3.9 1 2 .3 4.1.2 6.2.3v16.9h-39.6c.2-1.5 0-3-.8-4.3a3.5 3.5 0 0 0-3.7-2.3 3.5 3.5 0 0 0-3.1 2.8c-.3 1.1-.4 2.3-.4 3.5H83.7v-35.4l5.2-9.9c-1.5-3.4-1.5-3.4-5-3.7l-.2-5.4v-49.6c2.7-2.3 5-5 6.6-8.1a3.1 3.1 0 0 0-.6-4.1 3.1 3.1 0 0 0-4-.6l-2 1.3V355c0-1.6 0-3 .3-4.8 1.3 1.3.4 3.8 2.6 5a5.4 5.4 0 0 0 3-4c-1.6-3.6-1.6-3.6-5.8-3.6l-.1-4v-44.2c.3-1.5 0-3-.6-4.5-5 .5-9.7 3-14.8 2.1l-.4-1.7a4.5 4.5 0 0 0-8-1.6l-3 3.4-3.8-.9a37 37 0 0 1-15.5-7l-.8-1c1.4-2.6 4.1-4.5 4.4-7.6a4.3 4.3 0 0 0-3.4-3.8 5.2 5.2 0 0 0-4.5 1.4l-1.7 1.5-2 1.7Zm89.1 153.1c-.8.1-1.7.3-2.5.6-6.9 4-12.5 9.8-16.3 16.8a4.2 4.2 0 0 0-.4 3.8 19 19 0 0 0 10.4 7.1c5.2 1.8 11 1.8 16.1-.2 2.8-1 5.5-2.3 8.1-3.6 1.2-.6 2.3-1.4 3.2-2.4 3-3.3 6.2-6.8 8.9-10 .6-2.3.5-4-1.5-5a25.2 25.2 0 0 0-7.8-6.5c-1.9-1.1-4-1.7-6.2-1.7H123c-1.5.3-3 .6-4.4 1.1Zm-10.3-82a5.8 5.8 0 0 0 5.4 6c1.5.3 3 .5 4.4.4 2.5 0 5-.3 7.5-.7 1.5-.3 2.9-.8 4-1.7a5.1 5.1 0 0 0 2.2-5.5 5.4 5.4 0 0 0-4.7-4.2c-.9-.2-1.8-.2-2.6 0-3 .6-6 .8-9 .6a6.4 6.4 0 0 0-7.2 5.1Zm22.5 133.7c-1.2-2.4-1.5-2.9-2.4-3a5.1 5.1 0 0 0-4 .4l-1.8 1.2-7.6 4.6c-2.2 1-4.1 2.3-5.8 3.9a3.9 3.9 0 0 0 .7 4.6 4.4 4.4 0 0 0 4.6.7l.9-.3a39 39 0 0 0 14.2-8.8c.6-1 1-2.1 1.2-3.3ZM107.6 334l2.5-.7a567 567 0 0 0 11-4.7 4.6 4.6 0 0 0 1.6-5.6 4.8 4.8 0 0 0-5-2c-.5 0-.9.2-1.3.3l-10.3 4.4c-1 .5-1.8 1.1-2.4 2a3.9 3.9 0 0 0-.7 4.1 4.2 4.2 0 0 0 4.6 2.2Zm25.2-227.8 1 7.2c.2 1 .6 1.7 1 2.5a4 4 0 0 0 4.2 2 4 4 0 0 0 2.9-3.6v-.9l-1.2-11.5c-.1-.7-.4-1.4-.8-2a3.1 3.1 0 0 0-3-1.7 3.1 3.1 0 0 0-3 2.1c-.5 2-.9 4-1.1 6Zm-77 135a4.8 4.8 0 0 0-4.1 4.2c-.3 2.6-.6 5-.7 7.6 0 1 .3 2.1.7 3a3.8 3.8 0 0 0 5.9 2 4.5 4.5 0 0 0 2-2.8c.9-3.2 1-6.5.6-9.8a4.6 4.6 0 0 0-4.4-4.2Zm-8.4-26.4c1-.2 1.8-.7 2.6-1.2 2.5-2.5 4.6-5.5 6.2-8.6a3.5 3.5 0 0 0-.8-4.5 3.8 3.8 0 0 0-5-.2A28.3 28.3 0 0 0 43 209c-1.6 2.9.5 6 4.4 5.8h.1Zm66.7 56.4h1.9l9.3-2.5c1-.3 2-.7 2.8-1.3a3.8 3.8 0 0 0 2-4.1 4.4 4.4 0 0 0-4.3-2.6 4 4 0 0 0-1 0l-8.5 2.2a5.6 5.6 0 0 0-4.4 4.7 4.2 4.2 0 0 0 2 3.6h.2Zm25.5-54.4a6 6 0 0 0-1.4.6c-3.6 3.4-6 7.7-7 12.5-.1.9 0 1.8.1 2.6a3.6 3.6 0 0 0 5.3 2.3c.9-.5 1.6-1.2 2-2.2 1.2-3 2.2-6.1 3.1-9.3.2-1.5.2-3 0-4.4a2.3 2.3 0 0 0-2-2Zm-29.8-81c1.2 4 4.8 6 7.3 8.7a8.8 8.8 0 0 0 5.5 3l2-1.3c.5-3.8.5-4.4-.5-5.8-2.2-3-5-5.5-8.4-7.2-1-.6-2.3-.7-3.5-.4a4 4 0 0 0-2.4 3Zm75.3 293.7c2.8 1 5.9 1.5 9 1.3 2.4 0 4.7-.9 6.5-2.5a5.1 5.1 0 0 0 1.1-5.7 4.6 4.6 0 0 0-5.3-2.3l-2 .8c-3.2 1.8-6 3.9-8.7 6.3-.4.4-.4 1.3-.6 2.1Zm-82.3-35.8a4.3 4.3 0 0 0-2 3.5c-.1 4.2.2 8.5 1 12.7l.5 1.2a3.3 3.3 0 0 0 3.4 1.5 3.3 3.3 0 0 0 2.5-2.8v-1.3c-.4-3.1-.7-6.3-1.4-9.4-.4-1.5-1-3-1.9-4.4-.4-.4-1.4-.6-2.1-1ZM132 292.8l-.2-2.9c-2.8-1.5-3-1.7-4.4-1.2l-7.5 2.7a3.7 3.7 0 0 0-2.6 3.3c1.5 3.4 2.7 4.1 5.7 3 3.2-1 6.3-2.8 9-4.9Zm-2.3 88.2c-1.3 2.5-1.4 3.5 0 4.5 3 2 6.4 3.1 10 3a2.8 2.8 0 0 0 2.8-1.6 3.1 3.1 0 0 0-1.2-3.6c-.4-.4-1-.7-1.5-1-3-1.5-6.7-2-10.1-1.3Zm67.6 98c-1.5-3.1-3.6-5.9-6.2-8-.8-.4-1.7-.6-2.6-.6-.4 0-.8.3-1.3.5l-.8 2.2c.9 3 2.6 5.6 5 7.6a3.8 3.8 0 0 0 3.3 1 3.5 3.5 0 0 0 2.6-2.8Zm-21.8 23.4 2.2-1.3a2.6 2.6 0 0 0 .6-3.2 9.6 9.6 0 0 0-5.2-4.7 3.5 3.5 0 0 0-4 1 3.4 3.4 0 0 0-.5 4c.4 1 1.1 1.8 2 2.5a8 8 0 0 0 4.9 1.7Zm-57.4-317c-2 .5-3.8 1.4-5.3 2.7a3.7 3.7 0 0 0 0 5.9l2 1c3-1.1 5.7-3.3 7.1-6.3a4.1 4.1 0 0 0-3.8-3.2Z" fill="#B3CF9C"/>
  <path d="m143.6 76-5.3.7 10.5-20.3 6.5-12.8a7.9 7.9 0 0 0 1-4.2 2.9 2.9 0 0 0-4.5-2.4c-.9.6-1.6 1.3-2.3 2.1a40.9 40.9 0 0 0-3 4.9c-2.6 4.4-5 8.9-7.3 13.4a74.5 74.5 0 0 1-4 6.6c-.3-1.7-.5-3.3-.3-5V38.8c0-1 0-2-.2-3a3.1 3.1 0 0 0-3-2.7l-1.9 1.3c-2.1 10.2-1.3 20.5-3.3 31.5l-2.3-4.7-6-14a38.3 38.3 0 0 0-4-6.9c-1.5-2-3.7-1.7-5.3.3-.3.6-.6 1.2-.7 1.9l4 12.2c1.5 4 3.2 8.3 4.5 12.4l-.5.6-2.7 1.5c-2-.8-2.6-2.7-3.8-4.2-1.2-1.5-2-4-4.2-5.1-.1-2-1-3.7-2.3-5-2.7-4-5-8.1-6.9-12.4l-2-5a22.7 22.7 0 0 1-.9-14 5.6 5.6 0 0 1 6.7-2.8c1.4.4 2.9.8 4.2 1.4l2.2.6c1-2.4-.6-4.5-.4-6.7.2-2.3 0-4.2 0-5.8.7-1.9 2-3.5 3.6-4.6a6.2 6.2 0 0 1 7.9 0c1.7 1.4 3.2 3 4.5 5 1.6 2.6 2.9 5.4 4.3 8.2l1.4 2.1c.8-1.3 1.4-2.7 1.8-4.3 1.3-4.4 3.5-8.6 6.5-12.1 1-1.3 2.3-2.3 3.6-3.2a8 8 0 0 1 12 4.3c.5 1.1.8 2.3.9 3.5.3 4 .2 8-.5 12v3.3c1.5-.7 3-1.6 4.3-2.7 1.8-1.3 3.8-2.4 5.9-3.3 1.5-.5 3.1-.7 4.8-.6a6.7 6.7 0 0 1 6.2 6.5c.3 4.5-.6 9-2.7 13-2.3 4.4-5 8.5-7.6 12.7l-2 3.5 2.6-.3c4.4-1.2 8.9-2.5 13.4-3.6a17 17 0 0 1 5.3-.4 5.7 5.7 0 0 1 4.3 8.8c-.8 1.3-1.9 2.3-3.1 3.1a77 77 0 0 1-25.3 11.2c-4.8 1-9.7 2.4-14.6 3.6ZM31.7 176.3c-3.4-3-7.7-5-10.8-8.4a4.4 4.4 0 0 0-3.5-1.6 4.6 4.6 0 0 0-1.5-3.5 32.9 32.9 0 0 1-8.1-17c2-4.9 4.3-5.7 8.6-3.2l7.4 4.8c.3-.6.6-1.2.7-1.9v-7.1c0-4.2.4-8.4 1-12.5.2-1.5.7-3 1.4-4.2a4.5 4.5 0 0 1 7.1-1.4c1.3 1 2.3 2.4 2.7 4l3 10.4 1.1 5c1.2-.2 1.3-1 1.5-1.7 1.3-4.4 2.5-8.9 4-13.2.9-2.7 1.8-3.5 5-5.6A4 4 0 0 1 55 121c.8 1 1.3 2.3 1.4 3.6.3 5 .2 9.9-.4 14.8-.6 3.3-.7 6.7-1 10 1.2.7 1.7-.3 2.3-.8a11.6 11.6 0 0 1 8.8-2.6 4 4 0 0 1 4 4 16.7 16.7 0 0 1-4.4 13.2l-3.3 3.5c-.5.8-1 1.5-1.3 2.3L58 171a25 25 0 0 1-12.8 5.3l7.7-13a5.1 5.1 0 0 0 .5-5.6c-.8-.5-1.7-.7-2.6-.7-1.2.2-2.3.8-3.2 1.6-1 1.1-1.8 2.3-2.5 3.6l-2.8 3.7-.6-2.7c0-3.3-.2-6.5-.3-9.8a5.5 5.5 0 0 0-1.5-4.5c-2.5-.3-3.4 0-3.7 2-.4 2.4-.5 5-.9 7.4 0 .6.4 1.5-.8 1.8-.7-1.8-1.3-3.7-2.2-5.4-.5-1.2-1.2-2.3-2-3.4a2.6 2.6 0 0 0-4.7 1.9c0 1 .3 2 .6 3l4.6 15.5 1 4.6Z" fill="#EDA098"/>
  <path d="m153.5 153-7.4 3.5-2.8-1.3a5 5 0 0 1 1.2-6.3l5.2-4.1 4-2.9 5-2.6a4 4 0 0 1 3.9 0 4 4 0 0 1 1.6 6 16 16 0 0 1-3.7 3l-7 4.6ZM153.7 328c-3.6-1.3-7.3-2.4-10.9-3.8-2-.8-3.7-1.8-5.5-3a4.6 4.6 0 0 1-2.2-3.3 3.6 3.6 0 0 1 3.6-2.7c1.9-.1 3.8.1 5.7.7l9.3 2.9 3.1 1.4a4.3 4.3 0 0 1 2.6 4.3c-.2 2-1.6 3.1-4 3.4l-1.7.1ZM153.7 197c-3.7 0-7.4-.7-10.9-1.8l-1.7-.9a3.3 3.3 0 0 1-.4-4.1c2.3-1.5 5-2.2 7.8-2.1 1.7-.2 3.5-.2 5.3-.3h4.9a8 8 0 0 1 2.6.5 4.1 4.1 0 0 1 0 7.7c-1 .3-2 .5-3.2.5l-4.4.4ZM15.7 234.1l4.8.6c1.5.2 2.9.8 4.1 1.5a3.8 3.8 0 0 1 1.6 4.3 3.8 3.8 0 0 1-3.5 3.1c-3.3.2-6.6 0-9.8-.7l-5.1-1a3.6 3.6 0 0 1-2.8-3.6 4 4 0 0 1 2.8-3.5c1.3-.4 2.6-.6 4-.9l3.8.2ZM16.3 168l7.5 9a5.7 5.7 0 0 1 1.6 4.8 3.6 3.6 0 0 1-5 3.1c-1.2-.5-2.3-1.3-3.3-2.1l-4.2-4-2.6-4.6a4 4 0 0 1 0-5 4 4 0 0 1 4.7-1.4l1.3.3ZM29.5 281.4l2.2-1.6c.7-.5 1-1 1.6-1.5A5.2 5.2 0 0 1 38 277a4.3 4.3 0 0 1 3.4 3.8c-.3 3.2-3.1 5-4.5 7.6l-5.5 4.5-6-2.1a4.6 4.6 0 0 1 1-5.2l3.2-4.1ZM153.4 410.9l-6.2 1.1a4.6 4.6 0 0 1-4.2-2 3.6 3.6 0 0 1 0-4.8c.8-1 1.9-1.8 3-2.2 2.6-.8 5.1-1.8 7.6-2.7h3.1a4.1 4.1 0 0 1 3.8 3.3 4 4 0 0 1-1.7 4.3c-1 .6-2 1.2-3.1 1.6l-2.3 1.4ZM153.7 527c-2.1 0-4.2 0-6.3-.3a11 11 0 0 1-3.8-1 2.8 2.8 0 0 1-.6-4.8c1.1-1 2.5-1.6 4-1.9 3.3-.4 6.7-.7 10.2-.9a4.3 4.3 0 0 1 4.5 3.4 4.9 4.9 0 0 1-4.3 4.9l-3.7.6ZM177.6 388.3l3.5 7.2c.4.8.8 1.6 1 2.5a4.2 4.2 0 0 1-2 4.9 3.8 3.8 0 0 1-4.9-1c-.8-1-1.4-1.9-2-3l-1.8-3c-.5-1-.5-2.6-.7-4a4.6 4.6 0 0 1 3.1-5.4 5.2 5.2 0 0 1 3.8 1.8ZM83.8 232.1a6.2 6.2 0 0 1 6-.6l1.7 2.7c-.1.7-.3 1.3-.7 2-2 2.6-4 5.4-6.4 7.8-3 3.2-4.5 2.8-7.4-1a6.7 6.7 0 0 1 2-5.1l3.7-4.4 1.1-1.4ZM83.8 494.9c3.5.3 3.5.3 5 3.7l-5.2 9.9c-.6.4-1 1-1.7 1.4a4.1 4.1 0 0 1-4.9.3 4 4 0 0 1-1-5.2c.5-1 1-1.9 1.7-2.7l6.1-7.4ZM206.5 454.2c-1 0-2.1 0-3.1-.2a5.6 5.6 0 0 1-5-4 7.9 7.9 0 0 1 4.8-4.4l3.3-1.2c1.2-.4 2.7 0 4 0a4.2 4.2 0 0 1 3.8 6c-.4.9-1.1 1.6-2 2l-2.5 1-3.3.8ZM57 297.3l2.7-3.5a4.6 4.6 0 0 1 8.1 1.6l.4 1.8a60.3 60.3 0 0 1-4.3 6.2 4.4 4.4 0 0 1-7.6-1.8 5 5 0 0 1 0-2.2l.6-2.1ZM85.3 92.3l2.8 2.2a6.7 6.7 0 0 1 3.1 4.7 3.8 3.8 0 0 1-2 3.1 4 4 0 0 1-3.4 0l-1.3-.4-2.9-2-2.9-2.8a4.1 4.1 0 0 1-1-3.7c.3-1.6 1.4-2.5 3.5-2.9l4.1 1.8ZM83.6 161.8l1.3-.3c3.6-.8 4.6-.3 6.5 3.4a4.2 4.2 0 0 1-2.8 3.5c-1.7.8-3.3 1.8-5 2.7h-3.1a3.6 3.6 0 0 1-1.8-6.3c.5-.5 1.2-1 1.8-1.3 1-.5 2.1-1 3.1-1.7ZM153.5 277.4c-.6 0-1.2 0-1.8-.2-3.4-1-3.9-2-2.9-6.2l4.9-2c1.8-.2 3.5-.5 5.3-.5a3.1 3.1 0 0 1 3.6 2.6 3.6 3.6 0 0 1-2.3 4.2c-.7.3-1.5.3-2.2.6l-4.6 1.5ZM83.8 428.2l2-1.2a3.1 3.1 0 0 1 4 .6 3.1 3.1 0 0 1 .5 4c-1.7 3.2-4 6-6.7 8.3-.6 0-1.1 0-1.7-.2a3.6 3.6 0 0 1-2.3-5.3l1.6-2.6 2.6-3.6ZM179 515.4a4.3 4.3 0 0 1 2.8-4.7l3.1 1.9 2.6 4.7c.4.8.7 1.6.9 2.5a3.5 3.5 0 0 1-2 4 3.1 3.1 0 0 1-4-1.1l-1.9-3.6-1.5-3.7ZM83.8 347.6c4.2 0 4.2 0 5.8 3.4a5.4 5.4 0 0 1-3.1 4c-2.1-1.1-1.3-3.6-2.6-5v-2.4Z" fill="#F9F5E7"/>
  <path d="m15.6 234.1-3.9-.3 4 .3Z" fill="#EDA098"/>
  <path d="m113.3 69.1 2.7-1.5.5-.6c-1.4-4-3-8.2-4.4-12.5-1.3-4.3-2.8-8-4.1-12 .1-.7.4-1.3.7-1.9 1.6-2 3.8-2.3 5.2-.3 1.7 2.2 3 4.5 4.2 7 2.1 4.5 4 9.3 6 13.9.5 1.3 1.2 2.6 2.3 4.7 2-11 1.2-21.3 3.3-31.5l2-1.3a3.1 3.1 0 0 1 2.8 2.6c.2 1 .3 2.1.2 3.1V59c0 1.7 0 3.3.4 5l4-6.6c2.4-4.5 4.7-9 7.2-13.4l3.1-4.9c.6-.8 1.4-1.5 2.3-2a2.9 2.9 0 0 1 4.5 2.3c.1 1.5-.3 3-1 4.2l-6.5 12.8-10.5 20.3c-2.3.7-4.7 1-7 1h-9a6.9 6.9 0 0 1-6-3.1c-1-1.9-3-3.1-3-5.5ZM144.7 441.6c2 1 2 2.7 1.5 5-2.8 3.1-5.8 6.7-9 10-.8 1-1.9 1.8-3 2.4a81.9 81.9 0 0 1-8.2 3.6c-5.2 2-11 2-16.2.2a19 19 0 0 1-10.4-7 4.2 4.2 0 0 1 .5-4c3.8-7 9.4-12.7 16.3-16.7.8-.3 1.7-.5 2.6-.6a19 19 0 0 0-1 7.5 11.3 11.3 0 0 0 10.2 10.6 13.5 13.5 0 0 0 12.5-4.8c1.5-2 2.9-4 4.2-6.2ZM31.7 176.3l-1.1-4.7-4.6-15.4c-.3-1-.5-2-.5-3.1a2.6 2.6 0 0 1 1.5-2.5 2.7 2.7 0 0 1 3.1.6c.8 1 1.5 2.2 2 3.4.9 1.8 1.5 3.6 2.3 5.4 1.1-.3.7-1.2.8-1.8l.9-7.5c.3-1.8 1.1-2.2 3.6-1.9a5.5 5.5 0 0 1 1.5 4.5c0 3.3.2 6.5.3 9.8l.7 2.7 2.7-3.7c.8-1.3 1.6-2.5 2.6-3.6.8-.8 2-1.4 3-1.6 1 0 2 .2 2.8.7a5.1 5.1 0 0 1-.6 5.7l-7.6 13.1c-1.3.7-2.8 1-4.3.8h-8.3l-1-.8h.2Z" fill="#F9F5E7"/>
  <path d="M144.7 441.6a67.1 67.1 0 0 1-4.4 6.2 13.5 13.5 0 0 1-12.5 4.8 11.3 11.3 0 0 1-10.3-10.6c-.1-2.6.2-5 1-7.5l4.4-1h7.5c2.2 0 4.4.6 6.3 1.8 3 1.5 5.8 3.7 8 6.3Z" fill="#CA5769"/>
  <path d="M108.3 352.5a6.4 6.4 0 0 1 7.3-5c3 .2 6 0 8.9-.7.8-.2 1.7-.2 2.6 0a5.4 5.4 0 0 1 4.7 4.2 5.1 5.1 0 0 1-2.1 5.5 9.7 9.7 0 0 1-4 1.7c-2.6.4-5 .7-7.6.8-1.5 0-3-.1-4.4-.4a5.8 5.8 0 0 1-5.4-6ZM130.8 486.2a8.2 8.2 0 0 1-3.8 5.7 39 39 0 0 1-11.6 6.4l-.9.3a4.4 4.4 0 0 1-4.6-.7 3.9 3.9 0 0 1-.7-4.6c1.7-1.6 3.6-3 5.8-3.9l7.6-4.6 2-1.2c1-.7 2.5-.8 3.8-.5.9.2 1.2.7 2.4 3.1ZM107.6 334a4.2 4.2 0 0 1-4.6-2.2 3.9 3.9 0 0 1 .7-4.2c.6-.8 1.4-1.4 2.4-1.9l10.3-4.4 1.3-.4a4.8 4.8 0 0 1 5 2.1 4.6 4.6 0 0 1-1.5 5.6l-1.5 1-9.6 3.7-2.5.7ZM132.8 106.2c.3-2 .6-4 1.1-5.9a3.1 3.1 0 0 1 3.1-2 3.1 3.1 0 0 1 3 1.6c.4.6.7 1.3.8 2l1.2 11.5v.9a4 4 0 0 1-3 3.5 4 4 0 0 1-4-2c-.5-.7-.9-1.5-1-2.4-.6-2.3-.9-4.6-1.2-7.2ZM55.8 241.2a4.6 4.6 0 0 1 4.3 4.1c.5 3.3.4 6.6-.4 9.8a4.5 4.5 0 0 1-2.1 2.8 3.8 3.8 0 0 1-5.9-1.9c-.4-1-.7-2-.7-3.1 0-2.5.4-5 .6-7.6a4.8 4.8 0 0 1 4.2-4.1ZM47.3 214.8c-3.8.2-6-3-4.5-5.8 2-3.4 4.5-6.4 7.6-8.7a3.8 3.8 0 0 1 5 .2 3.5 3.5 0 0 1 .8 4.5c-1.6 3.1-3.7 6-6.2 8.6-.8.5-1.7 1-2.7 1.2ZM114 271.2a4.2 4.2 0 0 1-2.1-3.6 5.6 5.6 0 0 1 4.3-4.5l8.7-2.2h.8a4.4 4.4 0 0 1 4.3 2.6 3.8 3.8 0 0 1-1.9 4.1c-.9.6-1.8 1-2.8 1.3l-9.3 2.4-2-.1ZM139.6 216.8a2.3 2.3 0 0 1 2.2 2.2c.2 1.5.2 3 0 4.4-.9 3.2-2 6.3-3.1 9.4a4.6 4.6 0 0 1-3.7 2.6 3.5 3.5 0 0 1-3.6-2.7c-.2-.9-.3-1.8-.2-2.7 1-4.7 3.5-9.1 7-12.4a6 6 0 0 1 1.4-.8ZM109.8 135.9a4 4 0 0 1 2.4-3.1c1.2-.4 2.4-.2 3.5.4 3.3 1.7 6.2 4.1 8.3 7.2 1.1 1.3 1 2 .6 5.8l-2 1.2c-2.1-.3-4-1.3-5.5-3-2.5-2.8-6.1-4.8-7.3-8.5ZM185 429.5c.3-.8.3-1.7.7-2a46.5 46.5 0 0 1 10.7-7.1 4.5 4.5 0 0 1 5.3 2.2 5.1 5.1 0 0 1-1.1 5.8 9.9 9.9 0 0 1-6.5 2.5c-3.1.2-6.2-.3-9-1.4ZM102.8 393.7c.7.4 1.7.6 2.1 1.3a14 14 0 0 1 2 4.4c.6 3.1.9 6.2 1.3 9.3v1.3a3.3 3.3 0 0 1-2.5 2.9 3.3 3.3 0 0 1-3.4-1.6l-.5-1.2c-.8-4.2-1.1-8.5-1-12.8a4.3 4.3 0 0 1 2-3.6ZM132 292.8a31.7 31.7 0 0 1-9 5c-3.2 1.1-4.2.4-5.7-3.1a3.7 3.7 0 0 1 2.6-3.4l7.5-2.7c1.4-.4 1.6-.3 4.4 1.3l.2 2.9ZM129.7 381a15.3 15.3 0 0 1 11.7 2.4 3.1 3.1 0 0 1 1.2 3.6 2.8 2.8 0 0 1-2.9 1.7c-3.6 0-7-1-10-3.1-1.4-1-1.3-2.1 0-4.6ZM197.3 479a3.5 3.5 0 0 1-2.7 2.8 3.8 3.8 0 0 1-3.3-1.1 16 16 0 0 1-5-7.6l.8-2.2c.6-.2 1-.5 1.4-.5.9 0 1.7.2 2.5.6 2.7 2.1 4.8 4.9 6.3 8ZM175.5 502.4a8 8 0 0 1-7-4.3 3.4 3.4 0 0 1 .5-4 3.5 3.5 0 0 1 4-1c2.3.8 4.2 2.5 5.2 4.7a2.6 2.6 0 0 1-.5 3c-.7.7-1.5 1.2-2.2 1.6ZM118.1 185.5a4.1 4.1 0 0 1 3.8 3.3c-1.5 3-4 5.2-7.2 6.2-.7-.2-1.3-.5-2-1a3.7 3.7 0 0 1 0-5.8c1.6-1.3 3.4-2.3 5.4-2.7Z" fill="#F9F5E7"/>
  <path d="m31.7 176.3.9.9-1-.9ZM83 574h124v50H83z" fill="#EDA098"/>
  <path d="m1353 398.1 1.2-2.3c1.5-3 2-3.5 5.4-3.6h4.1l1.2-2-3.3-1-1.3.9a1.6 1.6 0 0 1-2.1 0c-.3-.3-.5-.7-.5-1.1 0-.5.2-.9.5-1.2.5-.6 1.2-1.1 1.9-1.6a2.2 2.2 0 0 1 2.1-.2l4.7 1.9 1 1 2.8-.8v-2.3l-1.9-1.2c-.5-.4-.8-.8-.6-1.4a1.1 1.1 0 0 1 1.5-.6c1.3.5 2.5 1.1 3.7 1.8.3 0 .5.7.6 1.2l.5 1.8c2.2.2 4.5.4 5.7 3l1.2-2.7c-.5-1-1.1-1.8-2-2.5-.7-.6-.8-1-.4-1.5.4-.4 1-.4 1.6 0 1.4.8 2.5 2 3.2 3.4.3.6 0 1.5 0 2.3h2.7l.6-1c-.9-.8-1.7-1.6-2.4-2.5-.8-.8-1-.9-.5-1.5.4-.6 1 0 1.6 0 1.5.4 2.8 1.2 3.9 2.4.3.3.5.6.5 1 .1.4 0 .8-.1 1.1l-.8 1.5 1 1 4.8-.7a4.1 4.1 0 0 1 2.8-2.4 4.2 4.2 0 0 1 1.5-3.6l-.9-1a7.8 7.8 0 0 1-8.2 0 5.7 5.7 0 0 1-3.6-4.3l4.1.4c2 2 4 2.3 5.2.9a2.8 2.8 0 0 0-.3-4c-1.5-1.1-3.4-.8-4.9 1.1l-4-.7c.5-2.7 4.4-4.1 7.5-4.1 1.6.2 3 1 4.1 2a4.4 4.4 0 0 1 1.8 3.8c3 1.9 3.6 4.2 1.9 6.3a4.1 4.1 0 0 1-1.9 4.4c0 1.8-1.3 2.6-2.9 3.1 0 1.6-1.2 2.1-2.4 2.4-1.3.3-2.6.4-4.1.6l-.7 1.2 3.5 1.6 1.7.6a1.4 1.4 0 0 1 .8.7l.2.5-.1.6c-.3.7-1 1-2 .7-2-.6-3.9-1.6-5.5-2.9-.5-.4-1.1-.9-1.9-.4l2.2 2.8.9 1.6.1.5-.1.6-.4.4-.6.2a2 2 0 0 1-2-.6 33 33 0 0 1-4.4-5.6l-3.4-2 .7 1.7 1.9 3.7.4 1.3a1.2 1.2 0 0 1-.8 1.3h-.7c-.3 0-.5-.1-.7-.3l-.6-1-2.7-5.7-2.4 1c.6 1.6 1 3 1.6 4.2.2.4.3.9.2 1.3 0 .5-.3.9-.6 1.2l-2.2 1.7a1.6 1.6 0 0 1-2.2 0 1.7 1.7 0 0 1 0-2.4l.7-.7.7-.7-.6-3.6h-3l-.6 3a2.7 2.7 0 0 1-2.5 2.3c-2.7.5-5.4.6-8.2.3-.6 0-.6 0-1.3-1 2.7-2.3 5.9-4.1 8.7-6.2-1-1.6-1-1.6-2.4-1.1l-7.5 2.5-2 .5V398Z" fill="#451515"/>
  <path d="M627 521.2c-5.5-1.4-11-2.7-16.5-4.4-3-.8-5.9-2.3-8.2-4.4a6 6 0 0 1-1.9-6.9 7 7 0 0 1 5.6-4.6c2.2-.3 4.4-.3 6.6-.4.5-1.7-.7-2.2-1.2-3a77.2 77.2 0 0 1-4.7-6.7c-1-1.7-1.5-3.5-1.6-5.4a5.5 5.5 0 0 1 6.3-6.2c1.7.2 3.3.6 4.8 1.2 2.2.7 4.4 1.6 6.4 2.4 1-2-.2-3.1-.7-4.4l-1.6-4.1c-1.5-3.7-3-7.4-4.7-11.1a27 27 0 0 1-1.7-12.4 7.3 7.3 0 0 1 3.4-5.8 5.2 5.2 0 0 1 4.8-.8c2.2.7 4.1 2 5.7 3.7a73 73 0 0 1 11.6 16.5c1 1.9 2.2 3.6 3.4 5.4 0 .2.7.2 1.4.5 0-2.2 0-4.2.3-6.2.3-7.6 1.4-15.2 3.3-22.5a10.2 10.2 0 0 1 7.9-7.6c5.3 1 6.6 5.3 7.5 9.7a68 68 0 0 1 1.5 16.3v4.8c1.5.4 1.7-.7 2-1.3l2.7-5a7.4 7.4 0 0 1 8.1-4.7l2.5.3a8.8 8.8 0 0 1 3.2 9.7l-3.1 20.5c0 .8.2 1.5.4 2.2l3-.3c2-.4 3.8-.6 5.7-.8 6 0 7.2.9 9.3 7.3-1 3.4-2.7 6.5-5.2 9a80.3 80.3 0 0 1-15 12.8c-1.9 1-3.9 2.2-6 3-3.5 1.6-7 3-10.7 4.5l1.6-4.8c1.8-5.2 3.7-10.3 5.4-15.5 1-2.9 1.6-5.8 2-8.8.6-3.3-.4-4.4-4-5.8a6.3 6.3 0 0 0-3.7 4.1l-5.7 12.6c-.4 1-.6 2.1-2.1 1.8 0-.3-.5-.7-.5-1l-1.6-18.3c-.3-2.3-.7-4.6-1.2-6.8a4.6 4.6 0 0 0-4.1-4l-3.3 2.3V504.5c0 1 .3 2.1-1.3 2.7a46 46 0 0 1-6.8-7.2 7 7 0 0 0-7.6-2.8l-2 4c3.8 8 8.5 15.3 14 22l-13.7-2Z" fill="#CA5769"/>
  <path d="m627 521.2 13.7 2.1a28 28 0 0 0 21-1.5c3.5-1.4 7.1-2.8 10.7-4.4l6-3c2.7.4 5.3 1.1 8 2 2.1.8 4 2 5.8 3.5a7.7 7.7 0 0 1-.7 12.1c-1.6 1.2-3.3 2-5 2.6a76.4 76.4 0 0 1-28 5.3h-18.9c-3.6 0-7.2-.7-10.5-2.1-1.8-.7-3.4-1.7-4.8-3a7.5 7.5 0 0 1-.7-10.7c1-1 2.2-2 3.4-2.9ZM703.3 515.2l6.1 3.8c2.7 3 6.5 3.6 10.5 1.5 2.1-1 4.2-1.7 6.4-2.7l3.7-2.1c1.1.8 2.3 1.8 3.3 3a11.3 11.3 0 0 1 1.5 10.4c-.4 1-.8 2-1.4 3-.5.8-1.2 1.6-1.8 2-1 1-2 1.5-3.1 1.8-5.2 2-10.3 2.5-14.9 1.2l-9.1-2.6a8.1 8.1 0 0 1-4.5-3.4c-.7-.9-1.2-2-1.6-3.4-.2-.7-.3-1.5-.3-2.5a13.2 13.2 0 0 1 5.2-10Z" fill="#451515"/>
  <path d="M661.6 521.8a28 28 0 0 1-20.9 1.5 117.8 117.8 0 0 1-14.1-22l2-4a7 7 0 0 1 7.6 2.8c2 2.6 4.3 5 6.8 7.2 1.7-.6 1.4-1.8 1.3-2.8V478l3.3-2.3a4.6 4.6 0 0 1 4.2 4c.5 2.2.9 4.5 1.1 6.8.7 6 1.1 12.1 1.7 18.2 0 .4.3.7.5 1 1.4.4 1.7-.8 2-1.7a1100 1100 0 0 0 7.1-15.1c.7-.7 1.5-1.3 2.3-1.6 3.7 1.3 4.4 2.4 4.1 5.7-.4 3-1 6-2 8.8-1.7 5.3-3.6 10.4-5.4 15.5l-1.6 4.6Z" fill="#F9F5E7"/>
  <path d="M707.7 520.9a5.6 5.6 0 0 1-3.2-3.2 138 138 0 0 1-13-35.2 7.8 7.8 0 0 1 10.8-8c1.8.6 3.5 1.7 4.8 3l6.1 6.8 2.8 3c.4-.6.8-1.3 1-2l2.2-7.5c.6-2 1.4-4 2.2-5.8a6.9 6.9 0 0 1 7-4.6 7.7 7.7 0 0 1 6.2 6.5v15.8a23 23 0 0 1-.5 3.7c-.2 1.4-.2 2.8 0 4.2 1.8-.3 3.5-1 4.9-2.2 2.7-1.8 5.9-2.6 9-2.3a6.3 6.3 0 0 1 5.3 3.6 5 5 0 0 1 .3 4.5c-.6 1.4-1.3 2.7-2.3 4a55 55 0 0 1-15.3 12.5c-.5.2-1 .3-1.6.3l.4-1.2c.4-3.4-1.9-5.2-5-4a25 25 0 0 0-3.4 1.6l-3.8 2.3-.5-.4.4-2.5 4.8-15.4.7-2.4a2.4 2.4 0 0 0-1.6-2.6 2.1 2.1 0 0 0-2.6.8c-.6.9-1.1 1.9-1.5 2.9l-5.8 16.5-1.3 3.4c-.4-1-.8-1.4-.9-1.9a173 173 0 0 1-.5-18.6 2.9 2.9 0 0 0-3.5-1.4 3.7 3.7 0 0 0-2.6 2.9 7 7 0 0 0-.2 2c0 4.6.3 9.1.4 13.7l-.2 7.2Z" fill="#FFD063"/>
  <path d="M707.7 520.9v-7c0-4.6-.3-9.2-.5-13.7 0-.7 0-1.4.2-2a3.6 3.6 0 0 1 2.7-3 2.9 2.9 0 0 1 3.4 1.5c-.1 6.2 0 12.4.6 18.6 0 .4.4 1 .9 1.8l1.3-3.4 5.8-16.5c.3-1 .8-2 1.5-2.9a2.1 2.1 0 0 1 2.6-.8 2.4 2.4 0 0 1 1.6 2.6l-.7 2.4c-1.6 5.2-3.3 10.3-4.8 15.5l-.4 2.4-.2.6.6-.2 3.9-2.2 3.3-1.7c3.2-1.1 5.4.7 5 4 0 .5-.2.8-.3 1.2-3 2-6.1 3.7-9.5 5a17 17 0 0 1-6.4 1.2c-1.6 0-3.3 0-5-.2a6.4 6.4 0 0 1-5.6-3.2Z" fill="#F9F5E7"/>
  <path d="m879.2 441.9 1.4 2.5a43.7 43.7 0 0 1 8 22.4c1 2.8 1.4 5.8 1.2 8.7v75.6c-.2 1.5 0 3 .5 4.4 2 0 3.9-.5 5.6-1.5.8-1.4 1.2-3 1.2-4.6v-6c.2-7.4.3-14.8.7-22.1.2-3.6.8-7.2 2-10.5A21.1 21.1 0 0 1 916 496a20.6 20.6 0 0 1 20.1 5.7c3 2.8 5 6.4 6.2 10.3.4 1.4.6 2.9.6 4.3 0 14 .3 28-.1 41.9a42.4 42.4 0 0 1-22.4 36.4 72 72 0 0 1-21.3 6.9c-2.3.4-4.7.5-7 .7l-1.6.4c-.8 1.2-1 2.7-.8 4V640.9h-18.5c.4-.9.8-1.8 1.3-2.5a6.6 6.6 0 0 0 .6-6 4.2 4.2 0 0 0-3.2-1.6 5 5 0 0 0-3.6 2.4l-4.7 7.7H826v-3.7c0-47 0-93.9.2-140.8.8-9.9.3-19.7.7-29.6.2-4.4 1-8.8 2.3-13 1.2-3.6 3.3-7 6-9.7 1.7-2 3.7-3.7 5.8-5.1l2.3-1.8a1057.9 1057.9 0 0 0 14.9 8.7 7.7 7.7 0 0 0 9.4 1.6l3.2-1.8c3-.9 5.7-2.1 8.4-3.7Zm48.1 100.9-.7-8.3-.7-3.7c-.5-2.5-2.2-4-4.1-3.8-2 .3-3.4 2.3-3 5.1l1.3 10.3c0 .9.3 1.8.6 2.6a3 3 0 0 0 3.1 2 3 3 0 0 0 3.1-2.1c.2-.7.4-1.4.4-2.1Zm-63.6 17.5c.3.9.7 1.6 1.2 2.4a3.4 3.4 0 0 0 5 .4c2.5-2.6 4.8-5.6 7.2-8.4l.2-.3a3 3 0 0 0-.6-3.7 3.2 3.2 0 0 0-4-.3c-.5.3-.9.6-1.2 1-2 1.9-3.9 3.7-5.7 5.8-.8 1-1.5 2-2.1 3.1Zm-16.6-47c3.3-1.3 3.9-2.5 2.6-5.6l-3.7-8.4-.2-.7a3 3 0 0 0-3.3-2 3.2 3.2 0 0 0-2.5 3.3c-.1.9 0 1.7.2 2.6 1 2.7 2 5.5 3.2 8.2a4.4 4.4 0 0 0 3.7 2.7Zm3.3 76.4c1.8-.3 3-.8 3.5-2.2a4.4 4.4 0 0 0-1-4.1l-.6-.9a361.7 361.7 0 0 0-5.8-5.7 3.4 3.4 0 0 0-3.8.5 2.8 2.8 0 0 0-.5 3.6c1.5 2.9 3.5 5.4 6 7.5.6.5 1.4 1 2.2 1.3Zm-5.8 25.9c1 2.5 1 2.5 2.5 3 3 .7 6.1 1 9.1.5a9 9 0 0 0 2.6-.7 3 3 0 0 0 2-2.5 3 3 0 0 0-1.7-3.1c-.7-.4-1.5-.7-2.4-.8-3.5-.2-7 .5-10.3 2-.7.5-1.3 1-1.8 1.6Zm83.9-40.1.4-1.5a3.6 3.6 0 0 0-5.1-3.9 12.4 12.4 0 0 0-7.3 7.4l.6 1.5a3.3 3.3 0 0 0 4.4 1.6l1.2-.7 5.8-4.4Zm-79-31.5v-1.8c0-1.6-.3-3.2-.7-4.7a3.1 3.1 0 0 0-6.2.1l-.1 1.1c.2 2.8.3 5.6.7 8.4a3.1 3.1 0 0 0 3.4 2.6 3 3 0 0 0 3-2.8V544Zm29.8 35.8a3.5 3.5 0 0 0-3 2 20 20 0 0 0-2 8.4c0 1 .4 2 1 2.7a2.6 2.6 0 0 0 2.7 1 5.7 5.7 0 0 0 3.2-4c.7-2.2 1.1-4.5 1.6-6.5-.5-2.1-1.5-3.4-3.5-3.6Zm2.6-61c-1.3-3.4-2.8-4.1-5.9-3.3-2 .6-4 1.7-5.7 3.1a3.4 3.4 0 0 0-.2 5.5c.7.5 1.5.9 2.2 1.2l6.5-3a4.4 4.4 0 0 0 3.2-3.6h-.1Zm-12.7-38.9h-.3v-1a3.3 3.3 0 0 0-2.4-3 3 3 0 0 0-3.6 1.8 69 69 0 0 0-2 6.7 7 7 0 0 0 0 2.2 3.3 3.3 0 0 0 2.5 3.2 3.2 3.2 0 0 0 3.6-2l2.2-7.9Zm-20.3-13.2-.2-1.9a3 3 0 0 0-2.6-2.2 2.9 2.9 0 0 0-2.6 1.6l-.4 1-1.8 6.4a3.2 3.2 0 0 0 1.7 4 3.1 3.1 0 0 0 3.6-.7c.3-.3.5-.7.6-1.1l1.8-7Z" fill="#B3CF9C"/>
  <path d="m861.5 640.8 4.8-7.7a5 5 0 0 1 3.5-2.4 4.2 4.2 0 0 1 3.2 1.7 6.6 6.6 0 0 1-.6 5.8l-1.2 2.6h-9.7Z" fill="#F9F5E7"/>
  <path d="M858.2 446 848 440l-4.6-2.8-4.3-3c-2-1.7-4-3.3-5.8-5a8.2 8.2 0 0 1-1.8-2.4 4.6 4.6 0 0 1 3.9-6.8c1.2 0 2.4 0 3.5.2.7-.8 0-1.2-.1-1.7l-1.9-3.6a4.4 4.4 0 0 1 1.6-5.2 4 4 0 0 1 5.4.2c2.4 2.1 4.5 4.5 6.8 6.8 1 1 1.4 2.3 2.8 2.8v.3h.2l-.4-.2.5-2.1.4-12.3c.1-1.4.3-2.9.7-4.3a3.6 3.6 0 0 1 3-3 4.1 4.1 0 0 1 4.5 2 14 14 0 0 1 2 6.3l.5 6.3.3 1.5c1.2-.8 1.2-2 1.7-3l3.5-6.8c.7-1 1.5-2 2.5-2.8a6.4 6.4 0 0 1 6.3-1 5.1 5.1 0 0 1 3.3 5.6c0 2.2-.2 4.4-.6 6.6-.6 2.9-1.5 5.7-2.2 8.6l-.7 2.6c0 .2 0 .5-.2.8h.8a12 12 0 0 1 8.9-1.3 4.3 4.3 0 0 1 2.6 4.4 7.7 7.7 0 0 1-2.3 6 51 51 0 0 1-9.6 8.4 35 35 0 0 1-8.4 3.9l.9-4.7 1.2-6.6a3.4 3.4 0 0 0-.7-3 2 2 0 0 0-2 1.2l-2.8 5.2-1.5 2.3-.9-10.7c0-1 0-2-.2-3a2 2 0 0 0-2-1.8c-1.7 1.2-1.9 1.2-1.9 2.8 0 2.9.3 5.7.3 8.5v2l-1.6-2.4-1.1-2.2a3.2 3.2 0 0 0-3.4-1.8c-.4 1.8-.2 3.7.4 5.5 1 2.8 1.8 5.7 2.7 8.6Z" fill="#CA5769"/>
  <path d="m858.2 446-2.7-8.8a9.5 9.5 0 0 1-.4-5.5 3.2 3.2 0 0 1 3.3 1.7l1.2 2.3c.3.7.7 1.2 1.6 2.4v-2c0-2.8-.3-5.6-.3-8.5 0-1.6 0-1.6 1.8-2.8a2 2 0 0 1 2 1.9l.3 2.9.8 10.7 1.5-2.4c1-1.7 1.8-3.5 2.8-5.1a2 2 0 0 1 2-1.3 3.4 3.4 0 0 1 .7 3.1l-1.2 6.6-1 4.7-3.1 1.7a7.7 7.7 0 0 1-9.3-1.6ZM927.3 542.8c0 .6-.2 1.3-.4 2a3 3 0 0 1-3 2 3 3 0 0 1-3.2-2 10 10 0 0 1-.6-2.5l-1.3-10.3c-.4-2.8.7-4.8 3-5.2 2.2-.3 3.6 1.3 4.1 3.9l.7 3.6.7 8.5ZM863.7 560.3c.6-1 1.3-2.1 2.1-3.1l5.7-5.9 1.1-1a3.2 3.2 0 0 1 5 2.1 3 3 0 0 1-.3 2l-.2.3c-2.4 2.8-4.7 5.7-7.3 8.4a3.4 3.4 0 0 1-5-.4c-.4-.8-.8-1.5-1.1-2.4ZM847.1 513.4a4.4 4.4 0 0 1-3.6-2.7 187 187 0 0 1-3.2-8.2c-.2-.9-.3-1.7-.2-2.6a3.2 3.2 0 0 1 2.5-3.3 3 3 0 0 1 3.3 2l.2.7 3.7 8.4c1.2 2.9.6 4.3-2.7 5.7ZM850.4 589.7l-2.3-1.3c-2.4-2.1-4.4-4.6-6-7.5a2.8 2.8 0 0 1 .6-3.6 3.4 3.4 0 0 1 3.8-.5l1.4 1.2a369 369 0 0 1 5 5.4 4.4 4.4 0 0 1 1 4c-.5 1.5-1.7 2-3.5 2.3ZM844.6 615.6c.5-.6 1-1 1.7-1.5 3.3-1.5 6.8-2.2 10.3-2 .9 0 1.7.3 2.4.7a3 3 0 0 1 1.6 3.1 3 3 0 0 1-1.9 2.6 9 9 0 0 1-2.5.7c-3 .4-6.2.2-9.1-.5-1.5-.6-1.6-.6-2.5-3.1ZM928.5 575.5l-5.9 4.4a5.6 5.6 0 0 1-2.5 1 3.3 3.3 0 0 1-3.1-1.9l-.6-1.5a12.4 12.4 0 0 1 7.2-7.4 3.6 3.6 0 0 1 5.2 3.9l-.3 1.5ZM849.6 544v3a3 3 0 0 1-3 2.7 3.1 3.1 0 0 1-3.4-2.5c-.4-2.8-.5-5.6-.7-8.4 0-.4 0-.8.2-1.1a3.1 3.1 0 0 1 6.1-.2 40.5 40.5 0 0 1 .8 6.6ZM879.3 579.8c2 .2 3 1.5 3.5 3.6l-1.6 6.5a5.7 5.7 0 0 1-3.2 4 2.6 2.6 0 0 1-2.8-1 5 5 0 0 1-1-2.7c.2-3 .9-5.8 2.2-8.5a3.5 3.5 0 0 1 3-1.9ZM882 518.7a4.4 4.4 0 0 1-3.2 3.7c-2.1.8-4.2 1.9-6.4 3a12 12 0 0 1-2.2-1.3 3.4 3.4 0 0 1 .1-5.5c1.7-1.4 3.7-2.5 5.8-3.1 3-.7 4.5 0 5.9 3.2ZM869.2 480c-.7 2.5-1.4 5-2.3 7.6a3.2 3.2 0 0 1-3.6 2 3.3 3.3 0 0 1-2.5-3.1 7 7 0 0 1 0-2.2c.5-2.3 1.2-4.5 2-6.7a3 3 0 0 1 3.6-1.8 3.3 3.3 0 0 1 2.5 3v1l.3.1ZM849 466.7c-.6 2.1-1 4.6-1.9 7a3.1 3.1 0 0 1-4.2 2 3.2 3.2 0 0 1-1.7-4c.5-2.2 1.2-4.3 1.8-6.4l.4-1a2.9 2.9 0 0 1 2.6-1.7 3 3 0 0 1 2.6 2.2l.4 2Z" fill="#F9F5E7"/>
  <path d="M250 614.6c-.4-.1-1-.2-1.2-.5-.5-.8-1-1.6-1.3-2.5L246 607l-4.4-1.7c-1.6-.5-3.2-1.3-4.4-2.5.1-2 .2-2 2.5-2.5l8.8 3.7c1.6 0 2.7-1.2 4.1-1.7 1.3-.6 2.6-1.2 3.8-2 1-.1 1.9-.2 2.5.8.1.4 0 .8-.2 1.2-.2.4-.5.8-1 1l-3 1.8-1 .5c.4.8 1.2.8 1.7 1l2 1.1c.4.3.7.6.8 1 .1.4 0 .9-.1 1.3-.5.8-1.5 1-2.8.7l-1.8-.8a15 15 0 0 0-3.8-1c0 .4 0 .9.2 1.3l1 3v.5c0 .2 0 .3-.2.5l-.3.3-.5.2ZM220.4 592.3l-1.7 2.8-1.3 1.9c-.8.9-1.4.8-2.7-.1.7-2.5 2.6-4.5 3.7-7a8.8 8.8 0 0 0-1.4-3.8c-.6-1.5-1-3-1-4.5-.1-.4.1-.6 1.1-1.2 2.1 1 2.3 1.1 5.7 8.4l4.8 2c1 .2 2 .7 2.9 1.3 0 1.6-.6 2.2-2 1.8-1.2-.4-2.4-.7-3.6-.8-.4 1.4.8 2.5.6 4l-.8.8c-1.5.1-2-.8-2.5-1.7l-1.8-3.9ZM172.5 568.4c-1.1 1.5-.3 3.3-1.8 4.6a5 5 0 0 1-1 .1c-.2 0-.6 0-.9-.2l-.4-.6c-.4-1-.4-2-.2-3l.6-4.5-2.6-2.6-1.4-1.5c-.2-.3-.4-.6-.4-1 0-.3 0-.7.2-1 1.4-.8 1.8-.8 2.7 0l3 2.7 1.2.8a41.3 41.3 0 0 1 8-.3c.8.7 1 1.4.4 2-1.3 1.3-3 .5-4.6 1-.4.4-.1.7.1 1l1.3 1.4.8 1.1c.3.3.3.7.3 1 0 .4-.3.7-.6 1-.3.2-.7.3-1 .3-.5 0-.8-.1-1.1-.4l-1.5-1.2-1.1-.7ZM199.5 587.5l1.5 1.8.7 1.3c-.6.9-1.2 1-2 .8l-1.5-1.1-1.5-1.5c-.8.2-.5.8-.6 1.2l-.4 1.8c0 .3-.3.6-.6.8l-1 .2c-.3 0-.6 0-.9-.3-.2-.2-.3-.5-.3-.8l.1-2.6.4-2.4-5.3-6.2c0-1 .5-1.5 1.6-1.6 1 .6 2 1.4 2.6 2.3 1 .8 1.7 1.7 2.4 2.4l8.4.6.7.2c.3 0 .6.2.8.5.2.2.3.5.2.8 0 .4-.2.7-.4.9-.3.2-.6.4-1 .4l-3.8.2h-.4l.3.3ZM195.6 570l-1.8-.8c-.3-1.7.9-3.1 1-4.6-.9-2.2-2.6-4.2-2.9-6.6.5-.7 1-.7 1.5-.4.5.3.9.6 1.2 1l1.4 2.2 1.2 1.8c2.4.7 5.1-.3 7 1.5 0 .3 0 .6-.2 1l-.7 1-1.4.1-1.1.3 1.5 2.2c.4.7.4 1.2-.7 2.3-2.4 0-2.7-2.2-4.3-3.2l-1.7 2.3Z" fill="#CA5769"/>
  <path d="M67 601.4a94.4 94.4 0 0 1-9.6-23.2l-.9-1.9-.3-3-.5-4.5c1.6-1.1 1.8-3 2.7-4.6a8 8 0 0 0 .6-6.8c-2.4-8-4.4-16-5.9-24.3-1.7-9.2-4.2-18.1-5.4-27.4L46.5 495 45 481.6l-.8-8.4 3.8.5c2.8.6 5.6 1 8.4 1l1 2.4 1.5 9.8.7 4.5 1.3 9c.6 5.3 1.9 10.5 2 15.8 0 2.7.3 5.4.9 8 1 4.8 1.4 9.6 1.3 14.4 0 3 .5 6.1 1.4 9 0 .6 0 1.3.9 1.4l6.1-6.3c.2-4.6 0-9.2-.5-13.8-.8-6-1-12-1.7-17.9-.5-4.5-1.2-9-2-13.6-1-6.2-2.4-12.5-3.6-18.7l-.6-3.1c1-1.6 2.7-1.6 3.8-2.3h1.4c1.6 2.8 2.7 5.9 3.3 9l3.1 16.2c.5 2.5 1.2 5 1.5 7.6l1.8 16.4.7 7.7c.2 1.6.6 3.2 1 4.7h.5l6.2-5v-9.7l2.9 4.5c1.8 3.3 4.1 6.3 6.9 9 1.2 1.3 2.4 2.7 3.4 4.2a85.7 85.7 0 0 0 5.3 20.5c1.4 6.5 2.2 13 2.3 19.6.2 10.5 0 21 0 31.4a17.4 17.4 0 0 1-5.8 3l-1-2.7-1.6-10-2.1-14-2.7-15.4c-.8-4.6-1.4-9.3-2.4-13.9-.6-3-.9-6-.8-9.1V544c0-.5-.2-1.1-.6-1.5-.3-.5-.9-.8-1.5-1-.5.1-1 .4-1.4.7-.5.3-.8.7-1 1.2-1 1.9-1.6 4-1.6 6.1-.2 7 .6 14.1 1 21.1 0 3 .4 6.1.8 9.2l1.3 10.5 2 14 2 10.4h-6.3v-.5a58.2 58.2 0 0 1-6.1-14l-3.7-11.5a93.4 93.4 0 0 1-3.1-22.3 19.5 19.5 0 0 0-.4-7.6c0-.2-.2-.4-.3-.5l-.6-.4a2 2 0 0 0-.7-.1c-.5 0-1 .3-1.3.6-.4.3-.6.8-.7 1.2a62 62 0 0 0-2.3 9.3 51 51 0 0 0 1 15.4c1.6 7.7 4.1 15.2 6.2 22.9.4.8.5 1.8.3 2.7-2.1-.6-3.2-2.2-4.6-3.6-1.3-1.3-2.8-3.4-4.2-5Z" fill="#B3CF9C"/>
  <path d="M101.7 537.7c-1-1.5-2.2-2.9-3.4-4.2-2.8-2.7-5-5.7-6.9-9l-2.9-4.5c-1-2.2-2.4-4.4-3.2-6.7a9.6 9.6 0 0 1 1-10.2l1.5-.6a8 8 0 0 1 7.7.2L98 504l1.9 1.9.1-4c-.2-3.7.2-7.3 1.1-10.9a8.5 8.5 0 0 1 6-3.2c2 .2 3.7.8 5.2 1.9 1.4 1 2.5 2.5 3 4 1.3 3.3 2.2 6.6 2.7 9.9.5 2.3.7 4.6 1 7 1 .2 1.2-.5 1.5-1a59.2 59.2 0 0 1 16.1-17.3 6.9 6.9 0 0 1 4-1.4c1 0 2.1 0 3.1.4s1.9 1 2.6 1.6c.8.8 1.3 1.6 1.6 2.5.4 1 .4 2 .3 2.9-.5 3.5-1.6 7-3.4 10-1 1.4-1.7 3-2.1 4.5h4c1 0 2 .3 3 .7.8.5 1.5 1.2 2 2a4.8 4.8 0 0 1-.3 5.2 26.5 26.5 0 0 1-5.8 6.1 99.3 99.3 0 0 1-16.7 10.7l-3 1.2c-2.6 0-4.8 1.7-7.8 1.4 1-1.5 2.4-2.8 3.8-4a71.4 71.4 0 0 0 10.9-11.4c.2-.5.2-1 .1-1.5s-.5-1-1-1.3c-.3-.3-.8-.5-1.3-.6-.6 0-1 .1-1.5.4l-2.6 1.6-7.5 6.1-3.2 2.5c0-1.3.2-2.5.4-3.9l1-5.9c0-2-.9-2.2-3.2-2a10.4 10.4 0 0 0-3 5l-2.2 6.8-1.3 2.4c-.9-4.9-2.5-8.8-2.8-13a9 9 0 0 0-.5-2c-.1-.4-.4-.6-.6-.9a3.6 3.6 0 0 0-3 .6c-.9 2-1 4-.5 6.1.3.8.4 1.6.6 2.5l1.7 7.5c.2.8.7 1.9-.6 2.7Z" fill="#FFD063"/>
  <path d="M101.7 537.7c1.3-.8.8-1.9.6-3l-1.7-7.5-.6-2.4c-.5-2-.4-4.2.5-6.2a3.5 3.5 0 0 1 3-.5c.2.2.5.5.6.8.3.7.4 1.3.5 2 .3 4.3 1.9 8.3 2.8 13 .5-.7 1-1.5 1.3-2.4l2.2-6.7c.5-1.8 1.6-3.5 3-4.8 2.4-.1 3.3.4 3.2 2-.1 1.8-.7 4-1 6l-.4 3.8a1 1 0 0 0-.3 0v.2l.3-.3 3.3-2.4 7.5-6c.8-.7 1.7-1.2 2.6-1.7a2.6 2.6 0 0 1 2.9.1c.4.4.7.8.9 1.4.1.5 0 1-.2 1.5a71.5 71.5 0 0 1-10.9 11.4 22.9 22.9 0 0 0-3.7 4c3 .3 5.2-1.4 7.7-1.4l1.4 3.3c4.4 9.1 7.7 18.7 9.7 28.6a44.4 44.4 0 0 1-7.8 20.7c-.2.3-.6.5-.9.6 0-2.5 0-5.1.3-7.7.7-5.3.5-10.6-.7-15.8-1.7-7.8-4.2-15.5-7.5-23-.5-1.6-1.4-3-2.7-4.3-2.4-.3-4.9-.1-7.3.4l.4 1.8 3.6 9.4c.8 2 1.5 4.2 2 6.4 1 4 1.7 8 2.4 12.1l.8 7.4.9 22.5-1.8 2a178.2 178.2 0 0 1-9.2 6c0-10.5.1-21 0-31.5a99.6 99.6 0 0 0-3.3-22.3c-2-5.7-3.5-11.5-4.4-17.5Z" fill="#F9F5E7"/>
  <path d="m109.4 609.1 6-3.6 3.3-2.3 2.5.8c1.2.6 2.2 1.4 3 2.5.7 1 1 2.2 1.2 3.4a7.2 7.2 0 0 1-3.5 6.2 55.4 55.4 0 0 1-23.2 7.5 231 231 0 0 1-29.4 1.6 28.3 28.3 0 0 1-11.5-2.8c-1.6-.8-3-2-4-3.5a9 9 0 0 1-.2-9.8c1-1.5 2.3-2.7 4-3.6l6.5-3 2.8-1.1c1.4 1.6 2.7 3.3 4.3 4.9 1.6 1.6 2.4 3 4.5 3.6l.8.7c2.2 1.8 5 3 7.9 3.4a4.3 4.3 0 0 0 3.2.6h6.2c3.4 0 6.7-.8 9.7-2.4 2.1-.7 4.2-1.7 6-3Z" fill="#451515"/>
  <path d="M70.4 473.1H69l1.2-4 4-11.5a3.9 3.9 0 0 0 0-3.4c-2.2-1.1-3-1.2-4.2 0-1 .9-1.7 2-2.3 3.1-1 2-1.7 4.2-2.6 6.3l-1.2 2.6-1.3-2.1c-1.1-2.8-2.1-5.6-3.3-8.3-.7-1.4-1.5-2.7-2.5-4l-.6-.4a1.7 1.7 0 0 0-1.4 0l-.5.5a7 7 0 0 0 .1 4L56 461c.4 1.2.4 2.5.6 3.8-2.6-2-5-4.3-6.9-7-2.5 0-3 0-3.6.8a3 3 0 0 0 0 3.4l1 1.6 3.7 4.9 5.7 6.2c-2.8 0-5.6-.5-8.4-1l-3.8-.5-7.9-2-4.6-1.7-.6-2.4a3.7 3.7 0 0 1 .2-3.3 4.7 4.7 0 0 1 2.8-2 12.8 12.8 0 0 1 6.8 0c0-1.3-1-1.7-1.6-2.4a5 5 0 0 1-1.5-2.7c-.3-3 .6-4 4.5-5.3 1.4.4 3 1 4.6 1.3 1.6.4 2.7.5 4 .7l.5.1-.3-.2-1.1-4.8c-.3-1.2-.5-2.5-.5-3.8 0-3.2.8-4.1 4.5-5.2 1.4.1 2.8.6 4 1.3 1 .8 2 1.8 2.6 3l2.2 4.1 1 1.5c.4-.4.8-.9 1-1.4.2-.5.3-1 .2-1.6l.8-5.6c.2-1 .5-1.8.9-2.7a5 5 0 0 1 1.7-2c.8-.6 1.7-1 2.7-1a5.3 5.3 0 0 1 5 2c1 1.1 1.4 2.5 1.4 4v10.8l-.2.2.2-.2 4.1-1.2 1.4.2a6 6 0 0 1 2.6 1c.7.5 1.3 1.2 1.7 2a4.7 4.7 0 0 1-.3 4.8c-.8 1.5-1.9 2.8-2.7 4.2l-1.6 2.5c-2.2.7-4.1 2-5.4 4-2.6.6-5 2-7 3.7Z" fill="#FFD063"/>
  <path d="m31.8 469.6 4.6 1.6 1 12.3c.3 5 1 10 1.2 15 .4 5.3 1 10.6 2.1 15.8 1 5.4 2.3 10.8 3.5 16.2 2 9.5 4.2 19 7.3 28.4.9 2.2 1.3 4.5 1.3 6.9l-2.4-1-6.5-12.8c-2.4-4.6-4.6-9.2-6.5-14-1.4-3.8-3-7.7-4.2-11.6-.7-2-1.2-4.1-1.5-6.2-.7-3.3-1-6.8-1.8-10a190 190 0 0 1-2.9-23.8l-.8-9.8c-.1-.5-.3-.9-.6-1.3 1.7-2.2 3.8-4.1 6.2-5.7Z" fill="#B3CF9C"/>
  <path d="M25.6 475.3c.3.4.5.8.6 1.3l.8 9.8c.5 8 1.5 15.9 3 23.7.7 3.3 1 6.8 1.7 10 .3 2.2.8 4.2 1.5 6.3l4.2 11.7c1.9 4.7 4 9.4 6.5 14 2 4.2 4.3 8.4 6.5 12.7a30 30 0 0 1-8.6-4.7l-3.6-2.7-4-4-1-2.7A162 162 0 0 1 23 523.4c-.6-3.8-1-7.7-1.7-11.5a153.4 153.4 0 0 1-2.4-24.5c1.4-4.3 3.6-8.4 6.6-12Z" fill="#F9F5E7"/>
  <path d="m38.2 557.4 3.6 2.6a30 30 0 0 0 8.6 4.8l2.4 1c1.1.8 2.7 1.4 2.9 3l.5 4.4.3 3.1c-3.2.4-6.4.8-9.6 1a74 74 0 0 1-17-.8c-1.3-.2-2.5-.5-3.7-1a7.6 7.6 0 0 1-3-2c-.8-1-1.3-2-1.6-3.1a6.9 6.9 0 0 1 2.2-6.3c3-2.4 6.3-4.2 10-5.3l4.4-1.4Z" fill="#451515"/>
  <path d="m120.4 601.3-1-22.6a64 64 0 0 0-.7-7.4c-.7-4-1.4-8-2.3-12.1-.6-2.2-1.3-4.3-2.1-6.4l-3.6-9.4-.4-1.8c2.4-.5 5-.6 7.4-.4 1.2 1.2 2.1 2.8 2.7 4.4 3.3 7.4 5.8 15.1 7.4 23 1.2 5.1 1.4 10.5.7 15.7-.3 2.6-.4 5.2-.3 7.8l-.1.7c-2 3.2-4.6 6-7.7 8.5ZM77.4 469.4c1.2-1.8 3.1-3.2 5.4-4l3.4 2.7.8 1 .9.7c-.3 1 .3 1.8.8 2.6 1.2 1.8 2.2 3.7 3 5.7 2.2 6.9 4.1 14 5.6 21l.7 5-2.4-1.2a8 8 0 0 0-7.7-.2l-1.4.5c-.8-4.1-1.8-8.2-2.5-12.4a87 87 0 0 0-6.6-21.4ZM19 487.4l.3 1.7c.1 7.6.8 15.2 2.1 22.8.6 3.8 1 7.6 1.7 11.5.2 1.5.5 3 1 4.4a162 162 0 0 0 9 22.9l1 2.6a7 7 0 0 1-3.6-2.6 42.5 42.5 0 0 1-7.7-11.4l-3-6a58.2 58.2 0 0 1-5.8-23.6 64 64 0 0 1 5-22.3Z" fill="#B3CF9C"/>
  <path d="m97.9 503.9-.7-5a198 198 0 0 0-5.7-21c-.8-2-1.8-3.8-3-5.6-.4-.9-1-1.6-.8-2.6 1.5.1 2 1.3 2.9 2.1 3.8 4.4 6.8 9.4 8.8 14.7l1.6 4.4c-1 3.5-1.3 7.2-1 10.8 0 1.1 0 2.3-.2 4l-2-1.8Z" fill="#F9F5E7"/>
  <path d="M136.8 570.7c-2-9.8-5.2-19.4-9.7-28.5l-1.3-3.3 3-1.2a36.5 36.5 0 0 1 8.9 21.7c.1 3 0 5.9-.2 8.8l-.7 2.5Z" fill="#B3CF9C"/>
  <path d="m87.8 469.8-.9-.8c.6 0 .9.2.9.8ZM87 469l-.8-1 .8 1ZM128 592.7l.2-.7-.2.7ZM56.4 474.8l-5.6-6.3-3.7-4.9-1-1.5a3 3 0 0 1 0-3.4c.5-.8 1-.9 3.6-.8 2 2.6 4.3 5 7 7-.1 0-.1.1 0 .2h.2l-.4-.3-.6-3.8-1.5-5.1a7 7 0 0 1-.2-4l.6-.5a1.7 1.7 0 0 1 2 .5c1 1.2 1.8 2.5 2.4 4 1.3 2.6 2.3 5.4 3.4 8.2l1.2 2.1 1.3-2.6c.9-2 1.6-4.2 2.6-6.3a11 11 0 0 1 2.3-3.1c1.2-1.2 2-1 4 0a3.9 3.9 0 0 1 0 3.4l-3.9 11.6-1.2 4c-1.2.7-2.7.7-3.8 2.3l.6 3.1 3.6 18.7c.8 4.6 1.5 9.1 2 13.7.7 5.9.9 12 1.7 17.8.4 4.6.6 9.2.5 13.8l-6 6.3c-1 0-.9-.8-1-1.3-.8-3-1.3-6-1.3-9 0-4.9-.4-9.7-1.4-14.4-.5-2.7-.8-5.4-.9-8 0-5.4-1.3-10.6-2-15.8l-1.3-9-.7-4.6-1.5-9.8-1-2.2ZM55.7 568.8c-.2-1.6-1.8-2.2-3-3 .1-2.4-.3-4.7-1.2-7-3-9.3-5.2-18.8-7.3-28.3-1.2-5.4-2.5-10.8-3.5-16.2-1-5.2-1.7-10.5-2-15.8-.3-4.9-1-10-1.4-15l-1-12.3 8 2 .8 8.4 1.4 13.3 1.3 10.8c1 9.3 3.6 18.2 5.4 27.4 1.5 8.2 3.4 16.3 5.8 24.3a7.9 7.9 0 0 1-.6 6.8c-1 1.5-1 3.5-2.7 4.6ZM103.6 612.1a19.8 19.8 0 0 1-9.7 2.5L92 604l-2-14c-.5-3.4-1-7-1.3-10.4-.4-3-.8-6.1-.9-9.2-.3-7-1.1-14-.9-21 0-2.2.6-4.3 1.6-6.2.2-.5.5-.9 1-1.2.4-.3.9-.6 1.4-.6.6.1 1.2.4 1.5.9.4.4.6 1 .6 1.5v3.2c0 3 .2 6.1.8 9.1 1 4.6 1.6 9.3 2.4 14l2.7 15.2 2 14 1.7 10.1 1 2.6Z" fill="#F9F5E7"/>
  <path d="m77.4 469.4 1.6 4a87 87 0 0 1 4.9 17.3l2.4 12.4a9.6 9.6 0 0 0-1 10.3c.8 2.2 2.1 4.4 3.2 6.6v9.8l-6.1 5h-.6l-1-4.7-.7-7.7c-.6-5.5-1-11-1.8-16.4-.3-2.5-1-5.1-1.5-7.6l-3-16.3c-.6-3.1-1.8-6.1-3.3-9 1.9-1.7 4.3-3 6.9-3.7ZM84.5 614c-3-.4-5.7-1.6-7.8-3.5l-.8-.7c.2-.9.1-1.9-.3-2.7-2-7.7-4.6-15.2-6.2-23a51 51 0 0 1-1-15.3 62 62 0 0 1 2.3-9.3c.1-.4.4-.9.7-1.2.4-.3.8-.5 1.3-.6a2 2 0 0 1 1.3.5l.4.5v.6c.6 2.3.7 4.7.3 7a93.4 93.4 0 0 0 3.1 22.3l3.7 11.5a58.2 58.2 0 0 0 6.2 14l-3.2-.1Z" fill="#F9F5E7"/>
  <path d="m84.5 614 3 .1v.5a4.5 4.5 0 0 1-3-.6Z" fill="#EDA098"/>
  <path d="m115.7 532-.3.2v-.2h.3Z" fill="#F6C168"/>
</svg>