<svg viewBox="0 0 1364 664" fill="none" xmlns="http://www.w3.org/2000/svg">
  <mask id="a" style="mask-type:alpha" maskUnits="userSpaceOnUse" x="-2" y="0" width="1366" height="664">
    <path fill="#D9D9D9" d="M-2 0h1366v664H-2z"/>
  </mask>
  <g mask="url(#a)">
    <path d="m-228.3 422.6 26.3 3c1 0 2 .4 3 .4 3.4.5 6.8 1.5 10.7 2 3.4.5 6.9 1.4 10.3 2h2c9.7 1.4 20 2.9 29.7 4.8l14.7 3h1l15.1 4.4c1 0 2 .4 3 .4l11.2 3c3.4-.5 6.3-1 9.8-.5 4.9-.5 9.2-2 13.6-2.5 7.4 0 14.7-2.4 22-3.9a130.3 130.3 0 0 0 58.6-38.1c3.5-4.4 7-8.8 10.3-13.2 0-.5.5-.5.5-1 0-.4.5-.4.5-1 1-1.4 2-2.8 3-4.8 19.5-24.4 39-49.3 60-71.8A358 358 0 0 1 212 216a222.1 222.1 0 0 1 51.8-17.1c36.1-5 71.8 1.4 107 11.7 2.4 1 4.9 2.4 7.3 3.4 3 1.5 5.9 3.4 8.8 4.9h.5l2 1.5c2.9 2.4 5.8 4.8 9.2 7.3l8.8 7.3 5 5c1.4 1.9 2.9 3.3 4.3 4.8l5.9 6.3c1.4 2 3 3.5 4.9 5.4 3.4 4.4 6.3 8.8 9.7 12.7 3.5 4.4 7.4 8.8 10.8 13.2l5.4 6.8c2 2 3.4 4 5.3 6 2 2.4 4.4 4.3 6.4 6.3l7.3 5.8c5.4 4 11.3 7.3 16.6 11.3 1.5 1 3 2 4.4 2.4 1.5 1 3 1.5 4.4 2 3 1.4 5.4 2.4 8.3 3.4 3 1 5.9 2.4 9.3 3.4 2.5 1 5.4 2 8.3 3.4 3 1.5 5.9 2.5 8.8 4 2.5.9 5 1.9 6.9 2.9 2.4 1 4.8 2.4 7.3 3.4l3 1.4 8.7 5.9c3.4 2 6.4 4.4 9.8 6.3 2 1.5 3.9 3 5.9 4 1 1 2.4 1.4 3.4 2.4 1.4 1 2.9 2.4 4.4 3.4 2 1.5 3.4 3 5.3 5 .5.9 1.5 1.4 2 2.3 1.5 1.5 3.4 3.5 5.4 5 1.4 1.4 3.4 2.9 4.9 4.8v.5a1057 1057 0 0 1 49.3 72.8c0 .5 0 1 .5 1.5.5.4.5 1 1 1.4l.5.5c3.4 5.4 6.8 11.3 9.7 16.6-1 2.5.5 5 3 5.9.5 0 .5 0 1 .5 1.4 3 3.4 5.8 4.8 8.8 27.9 51.8 56.7 103.5 81.6 157.8a345.3 345.3 0 0 1 21.5 58c3 13.8 15.2 39.2 10.8 52.4-3.4 6.3-11.3-2-6.9-6.9a376.5 376.5 0 0 0-13.2-47.4c-1 4-3.9 6.4-7.3 6.4-5.8 1-11.7-1.5-17.6-3-3.9-1-7.8-1.4-11.7-1.9-18.6-1.5-36.6 1.5-54.7 1.5-13.7.5-27.4-1.5-41-2-27.4-.5-54.8-1.4-81.7.5-20.5 1.5-41.5 2-62 4a366 366 0 0 1-40 1.4c-19.6-.5-38.7 0-58.2 0a260.7 260.7 0 0 1 23 50.3c5.3 10.7 1.4 25.4-7.9 25.4-2 0-4.4-1-7.3-2.4-5.4-5.4-4.9-14.2-8.3-21a181.2 181.2 0 0 0-17.6-36.7c-3-5.4-5.9-10.2-9.3-15.1-2 4.9-5.9 8.3-10.3 8.3h-76.7c-35.1 0-69.8 0-105-.5-36.2 0-72.3 0-108.5-.5-35.7 0-71.8 0-107.5-.5-34.7 0-69.4 0-104-.5v-26.4c-30.8 0-61.6-.5-92.4-1h-17.6v8.9c0 3.9-2.4 7.3-5.9 9.2v-13.6c-1 2.9-2.4 5.3-4.4 7.3v-108c0-15.6 0-31.7-.4-47.4 0-15.6 0-31.2-.5-47.3 0-16.2 0-32.3-.5-48V420.7v.5c14.1-.4 29.3 0 44 1.5Z" fill="#1E0E25"/>
    <path d="M-230.3 692.3c-7.3 1-10.8 10.2-6.8 16 3.9 6 11.7 5 17.5 5 24 1 46.5-6.4 66.5-20 4.4-3 8.8-5.4 13.2-8.4 2.4 3.5 6.8 5.4 13.2 4 17.6 2.9 35.2 0 52.8-3 6.3.5 13.1.5 19.5 1-6.4 10.3 6.4 23 16.1 16.1 19.6-11.7 108.5 3 130.5-14.1h8.3c52.8 0 106.5-3.5 158.8 1.4 18 6.4 36.6 13.7 55.7 17.1a211.9 211.9 0 0 1-51.3 14.7c-8.8 1-17.1 1.4-26 1-4.8 0-9.7-.5-14.6-.5-2.4 0-4.4 1-6.3 2-6.4 4.8-5 16 3.4 18 10.7 2.4 22 3.9 33.2 3.4 11.7-.5 23.5-2.4 34.7-5.4 10.8-2.9 21.5-7.3 32.3-11.2 18.5-7.8 38-14.7 56.2-23.4l11.7-6c49.3-5.3 99.2-3.8 149-5.3 40.6 0 80.6-3 120.7-2 41 1.5 82 3 122.6 3 80.7-4.4 160.8 3.4 241.4-1 21 1.5 41.5 1 62.5.5-1.4 7.3 5 15.1 17.6 12.2 14.7-2 29.4-2.4 44-4.9 20-3.9 41-9.7 61.6-7.3 1.5 1 3.4 2 5.3 2 2.5.4 5 0 7.4-1.5 3.4 3 8.3-3 5.4-6.4 1-2 1-4.4.5-6.3 9.2 11.2 17.5 23 26.3 34.2h-3.4c-1 0-1 1.5 0 1.5 2 0 3.4.4 5.4.4 1 0 1.5-1.4 1.5-2-1.5-4.8-4.4-8.7-6.4-13.1-4.9-9.8-9.8-19.5-15.6-28.3-9.8-13.2-19.6-27-30.3-39.1a847.1 847.1 0 0 0-29.3-30.3c-10.3-10.3-22-18.6-33.3-27.9a302.7 302.7 0 0 0-42.5-27.8c-15.1-7.8-29.8-16.1-45.4-22.5a449.4 449.4 0 0 0-79.2-24.4A835.4 835.4 0 0 0 915 493a512.5 512.5 0 0 0-109.4-1.5c-44.5 4.4-88.5 16.6-131 29.8-21 6.8-41.5 16.6-62 25.4-10.3 4.4-21 8.8-30.8 14.2a355 355 0 0 0-28.9 18c-5.3 4-10.7 7.9-17 11.3-7.4 4.4-15.2 7.8-22 12.7l-10.3 7.3a755.4 755.4 0 0 1-43 25c-11.7 5.8-22.5 14-33.7 20.4l-41 22c-1 0-1.5.5-2.5.5-17.1 4.4-34.2 9.3-52.3 7.8h-1a141.4 141.4 0 0 1-23-18.5 445.7 445.7 0 0 0-39-35.2c-10.3-8.8-20-18-30.8-26-13.2-8.7-26.4-18-40-26.3-8.4-4.4-17.2-8.3-25.5-12.7-11.7-5.4-24.4-9.3-36.6-14.2-49.9-14.6-107-19.5-153.4 8.4-49 26.3-80.2 75.2-127.6 104-17 10.8-34.2 23.5-54.7 25.4-11.2 0-20.5 0-29.8 1.5Z" fill="#F92115"/>
    <path d="M440.6 698.6c-6.9-18-21.5-31.7-35.2-45a191.2 191.2 0 0 0-66-40.5 202.7 202.7 0 0 0-96.2-13.2c-24 3.5-45.5 16.7-64.5 30.3-6.4 3.5-12.3 7.8-18.6 10.8-10.3 2.4-21.5 2.4-31.8 5.4a54.6 54.6 0 0 0-22.4 8.3c-12.7 6.8-32.8 34.6-16.2 45.9 8.3 4.9 17.1-.5 25-3.4 14.6-5.4 30.7-6.4 46.4-9.8 6.8 7.3 25.9 2 35.2 1.5 14.6 1 29.3 1 43.4 2.9 8.3 1.5 17.1 3 25.4 4.9 10.8 2 28.9 11.7 32.8-4.4 4.4 0 9.3-.5 13.7-1a37 37 0 0 0 17-5.4c24 3 78.2 33.7 92.4 2.5.5.5 1.5 1 2 2l5.3 5.3c-1 3.9 4 4.9 6.9 6.8 2.4 1.5 5.8-.5 5.4-3.9Z" fill="#FEBC3F"/>
    <path d="M390.7 667.4c3-2.5 2-7.9-.5-10.3-2-4.4-8.3-6.4-12.2-4-12.7 8.4 3.4 24 12.7 14.3Z" fill="#fff"/>
    <path d="M354 644.9c5.5-4.9-.4-13.7-7.3-11.7-12.2 4.4-2 19 7.4 11.7Z" fill="#fff"/>
    <path d="M361.9 668.3c6.8-7.8-5.4-17-11.2-8.3-4 7.4 5.8 13.7 11.2 8.3Z" fill="#fff"/>
    <path d="M338 684.5c15.1-5 8.3-26-6.4-24-18 3.4-11.2 30.3 6.4 24Z" fill="#fff"/>
    <path d="M326.2 641.5c5-6.4-4.9-13.7-10.7-9.8-10.8 7.3 4.4 21 10.7 9.8Z" fill="#fff"/>
    <path d="M309.6 619.5c0-5.9-4.9-10.8-10.7-10.8-5.9 0-10.8 5-10.8 10.8 0 5.8 4.9 10.7 10.8 10.7 5.8 0 10.7-4.9 10.7-10.7Z" fill="#fff"/>
    <path d="M116.1 438.7v-1c-.5-1.4-1.4-2.4-2.4-2.4-4-5.4-7.8-10.7-11.7-16.6-1.5-3.4-3.5-7.3-7.4-8.3C84 407 76.1 421.1 84.4 428c6.3 4.4 13.6 7.3 20.5 11.2 3.4 2.5 11.7 7.3 11.2-.5Z" fill="#1E0E25"/>
    <path d="M86.3 378.2c7.4-3 8.3-12.3 8.3-19.1.5-9.3.5-18-1-27.4 0-1.4 0-2.9-1-3.9-1.9-2.4-6.3-1-5.8 2-1 4.4-3.9 7.8-5.4 11.7-2.9 5.4-4.4 11.7-6.3 17.6-1 3-2 5.9-2 8.8-1 6.8 6.4 12.7 13.2 10.3Z" fill="#1E0E25"/>
    <path d="M79 293.2c8.8-1 17.1-5.4 25.9-7.4 3-1 5.4-2 8.3-2.4 2-.5 4.4-1 5.4-3.4 1-3-2-5.9-5-5.4a85.2 85.2 0 0 0-35 1c-10.3 1.4-11.8 15.1-1.6 17.6h2Zm34.2-10.8c-.5 0-1-.5-1.5-1 0 0 .5.5 1.5 1Z" fill="#1E0E25"/>
    <path d="M71.2 261.9c9.3-6.4 12.2-25 15.1-35.2.5-3.9 2.5-7.8 2-11.7-1-2.5-4.4-3-5.9-1-2.4 3-3.9 6.4-5.8 9.8-4 6.8-10.3 12.7-12.7 20-1.5 4-3.5 7.8-3.5 12.2-1 5.4 5.9 9.3 10.8 5.9Z" fill="#1E0E25"/>
    <path d="M48.7 275c9.3-5.8.5-17-4.9-22-5.8-6.3-12.2-12.1-18.5-18.5-3-2.4-4.4-5.8-7.4-7.8-3.4-2-7.3 2-5.4 5.4 5 7.8 10.8 15.6 15.2 23.4 4.9 5.9 10.7 24.5 21 19.6Z" fill="#1E0E25"/>
    <path d="M32 434.3c2-.5 3-2 4-3.4l4.9-6.3C45.8 418.7 52 414.3 57 408c4.9-7.9-5.4-15.7-11.7-8.8-6.4 8.8-13.7 17-18.6 26.8-3 3.5 1 9.8 5.4 8.3Z" fill="#1E0E25"/>
    <path d="M48.2 405c3.4-1 7.3-1 11.3-1.4 5.8-.5 9.7-7.4 6.8-12.3-3-5.3-10.3-5.8-16.1-5.3a45 45 0 0 0-16.2 5.3c-.4 3.5-1 6.4-2 9.8l-2.8 12.7c6.3-3 12.7-6.3 19-8.8Z" fill="#41751C"/>
    <path d="M-17.3 710.3c2-13.1 2-26.8 4-40 2-13.7 2.9-27.4 3.4-41 2.4-64 6.3-128.5 7.3-192.5.5-29.8 0-60.1 1-90 .5-17.5 0-35.6 3.9-52.7 1 0 2 0 2-1 .4-1.4 1-2.9 0-4.3-.5-1-2.5-1.5-3.5-.5-1 .5-1.4 1.4-2.4 2.4-4 8.8-5 18.6-6.4 28.3-.5 6.4-1.4 12.7-2 19.6-4.8 69.4-10.7 138.2-15.6 207.6-6.8-40.5-18.5-80.1-28.3-120.2-5.9-22.4-10.8-45.4-18-67.9-5.5-15.1-12.3-29.8-19.1-44.4-8.3-18.1-29.4-2-15.7 8.8 6.4 12.7 13.2 25.4 18.1 39 5.9 16.2 9.3 32.8 13.2 48.9 8.8 37.6 19 74.3 27.4 111.9 8.3 39 11.7 78.6 12.2 118.7v33.7c0 11.7-1 23.4.5 35.2 2.4 8.8 15.1 9.7 18 .4Z" fill="#41751C"/>
    <path d="M-13.8 576c10.7-62 22.4-123.6 41-183.7 7.8-27.8 19.5-54.2 26.4-82-.5-4.4-5.9-6.4-8.8-3-2.4 3-7.8 5.4-4.4 9.8a695.5 695.5 0 0 0-53.3 148 456.7 456.7 0 0 0-13.6 109.4c-.5 7.9 11.2 9.3 12.7 1.5Z" fill="#41751C"/>
    <path d="M.8 433.8c3.4-2 2.5-6.3 2.5-9.2.5-2.5.5-4.4.5-6.9 0-4.4-6-4.9-6.9-.5-5.9 1-3.9 6.4-4.9 10.8-1 4.9 5 8.8 8.8 5.8Z" fill="#41751C"/>
    <path d="M.3 430c5.4-3 5-17.6 2.5-22.5-.5-10.3-16.6-9.8-15.7 1 1 4.8-1.4 11.7 3.5 15 .4 5 4.8 9.4 9.7 6.4Z" fill="#41751C"/>
    <path d="M-3.6 499.3a9 9 0 0 0 3.4-5.9l1.5-24.9c1-14.1.5-27.8.5-42 0-4.9 0-9.8-1-14.1-.5-2-3.4-2.5-4.4-.5-.5.5-.5 1-.5 2-.5 1.9-2.9 4.3-.5 6.3-2 16.6-3.4 33.2-6.3 49.3l-4.4 22.5c-2 6.3 6.3 11.2 11.7 7.3Z" fill="#41751C"/>
    <path d="M53.6 274.6c3.4-1 6.3-4 8.8-6.9a31.4 31.4 0 0 0 8.3-17c3.9-12.8 2.4-27-2.5-39.6-2.4-4-3.4-8.3-6.3-11.7-2.5-2.5-5.9-8.3-9.8-6-8.8 7.4-14.2 10.4-17.6 21.6-5.8 14.2-5.3 35.7 4 47.9 2.4 5.3 8.2 18 15 11.7Zm1-5.4a4.4 4.4 0 0 0-3-3c-1.4-.9-2.4-1.9-3.4-3.3-2-3.5-4.4-6.4-5.9-9.8-1.4-4-2.4-8.3-3.4-12.2-1.4-9.8 1.5-19 5-28.4 1.9-4.8 6.3-8.3 9.7-12.2 3 3 4.4 6.4 5.8 9.8a56.2 56.2 0 0 1 1.5 48.4c-1 3.9-3.4 7.3-6.3 10.7Z" fill="#fff"/>
    <path d="M55 270.7c5.4-2 5.4-8.3 7.9-12.7 3-8.3 4.4-17.1 3.4-26-1-6.3-2-12.6-4-18.5.6-3-1.4-5.3-2.4-7.8-1.4-2.4-2.4-6.3-5.3-6.8-3-.5-5.9 2-5.9 4.9-.5 0-1.5 0-2 .4a7 7 0 0 0-4.3 7.4c-8.8 11.2-8.4 27.3-4 40.5 1.5 3.4 2 7.8 5.4 9.8 1 5.4 5.4 11.2 11.3 8.8Z" fill="#fff"/>
    <path d="M18 293.6c6.8-.4 13.6-2.4 19.5-5.3 5.8-3 10.7-7.4 15.6-11.8 3-2.9.5-8.3-3.4-8.3-1-3.9-5.4-4.8-8.8-6.3-4-2.5-7.8-5.4-12.2-7.3-5.4-2-10.8-3-16.2-3.5a55 55 0 0 0-31.7 5.4c-3 1.5-10.8 3.4-10.3 7.3 0 1 .5 1.5 1.5 2 3 3.9 4.9 8.8 8.3 11.7a49 49 0 0 0 37.6 16.1Zm-3-9.2A40 40 0 0 1-1.6 280c10.7 2.9 21.5 4.4 32.7 2.4-5.4 2-10.7 2-16.1 2Z" fill="#fff"/>
    <path d="M29.6 288.3c4.4-.5 9.8-1.5 12.8-5.4 4.8-4.9 1.4-13.7-5.4-14.2 2 0 3.9 0 5.4 1 0 .5.4.5 1 .5 2.4 0 1-3 .4-4.4a24.9 24.9 0 0 0-16.6-12.2c-6.8-2-13.7-2.5-20.5-2.5-8.8 0-17.1 1.5-25 5.4l-7.3 3c-3.4 1.9-2.9 6.8 0 9.2 3.5 3 6.4 5.9 10.3 7.8 3.9 3 8.8 5 13.2 6.4a61.7 61.7 0 0 0 31.7 5.4c.5 0 0 0 0 0Zm-18.5-17.6c-7.3-1.5-15.2-2-22-4.9 6.3-.5 12.2-2 18-3 6-.4 11.3 0 17.2 2 3.9 1 7.8 4 12.2 4-2.5 0-4.4 1.4-6.9 1.9-5.8 1.4-12.2 1-18.5 0Z" fill="#fff"/>
    <path d="M15.5 345a47.1 47.1 0 0 0 18-8.4c6.4-3.9 10.8-9.3 14.7-15.1a87.8 87.8 0 0 0 9.3-26.9c1.5-6.8 1-13.7-1-20.5-.5-4.4-4.9-7.8-9.3-5.9-3.9 1.5-4.8 5.9-5.3 9.8-5-.5-6.9 3.4-9.3 6.8a59 59 0 0 0-21 32.8 72.4 72.4 0 0 0-1 20.5c0 3-.5 7.8 4.9 6.8Z" fill="#fff"/>
    <path d="M38.4 318.6c.5 0 1 0 1-.5.5 0 .5-1 0-1 0-1.5-2-2-2.4-.5 0 1.5 0 2.4 1.4 2Z" fill="#fff"/>
    <path d="M100 329.8c4.9-3 3-9.8 3.4-14.7.5-12.2-3.4-24.9-12.2-33.7-3.9-4.4-8.8-7.8-14.2-9.7a42 42 0 0 0-24.4-3c-3.4 1-5.4 5.4-2.4 7.8-2 6-2.5 12.3-1.5 18.6 1 4 2 8.3 4 12.2a35.4 35.4 0 0 0 15 14.2c8.4 3.9 17.2 6.3 26.4 7.8 1.5.5 3.5 2 6 .5Z" fill="#fff"/>
    <path d="M78 282.9c9.3-.5 18.6-4 25-11.2a46.1 46.1 0 0 0 13.6-26.4c.5-2.5 0-4.4 0-6.9 1-2.9-.5-6.3-3.9-6.8-3.9 0-7.3.5-11.2 1.5-5.9 1-11.7 2-17.1 4.4a58.3 58.3 0 0 0-25 22.4c-3.4 4.4-8.3 19 0 20 2.5 2 5.4 2.5 8.4 2.5 3.9 0 7.3 1 10.2.5Z" fill="#fff"/>
    <path d="M80.5 285.3a66.8 66.8 0 0 0 34.7-25.4c5.8-7.8 10.2-21-.5-27.3-9.3-5-20-3.4-29.8-.5-6.4 2-12.3 4.9-15.7 10.7l-2.4 4c-.5 1-1.5 2.4-1 3.9 0 1 .5 1.4 1.5 2 1.4.4 2.4-.6 3.4-1 1-.6 2-.6 2.4-1.5 8.3-5.4 26-10.3 35.2-5.9-.5 10.7-19.5 23-28.8 26.4-12.7-4-14.7 17 1 14.6Z" fill="#fff"/>
    <path d="M79.5 285.8c5.4-2 10.2-5.3 14.6-8.8 6.4-4.4 12.3-9.3 17.6-14.6 5.4-6.9 11.8-15.2 10.3-24.4-1-4.4-4.4-8.4-8.8-9.3-4.4-1.5-9.3-1-14.2-1-6.8.5-13.7 3-19.5 6.3-3.4 2-6.9 4.4-9.8 6.9-1.5 1.4-3.4 3-3.9 4.9-1.5 2.4-1 6.3 2 7.8 2.4 1 4.4-2.5 2.4-4 3-1.4 5.9-2.4 8.8-3.8 3-1.5 5.9-3 9.3-4 3-1 5.8-1.4 8.8-1.9 3.9 0 7.8 0 11.7 1-4.9 14.6-23 26.8-37.1 32.2-10.8 5.4-2 19.6 7.8 12.7Z" fill="#fff"/>
    <path d="M100 332.7c4.4-2.4 7.8-6.8 8.3-12.2 1-5.9 1-11.7-1.5-17-2.4-5.5-5.8-9.9-9.2-14.7-3-4-5.9-8.8-10.8-10.3-3.4-1-10.7-3.4-11.2 2 0 .4.5 1.4 0 2-.5 2.4 3 3.8 4.4 1.9 1.4 1 2.9 2.9 3.4 4.4 2.4 5.8 5.9 11.2 8.8 16.6 2 4.4 2 9.2 1.5 14.1-1 3.5-5.4 2-7.9 1.5-11.2-3.4-25.4-11.2-31.2-22 2-10.7-13.2-14.6-16.2-3.9-2 8.3 4.4 15.2 9.3 21 3.4 3.4 7.4 5.9 10.8 8.3 11.2 7.8 28.3 15.7 41.5 8.3Z" fill="#fff"/>
    <path d="M50.7 274.6c2.9-.5 4.8-3 5.8-5.4 1.5-3.4-.5-7.3-2-10.7l-2.9-8.3c-2.9-8.3-3.4-18.1-3.9-26.4 0-8.3 1.5-15.6 8.3-21.5 3.5 4.9 5 11.2 6.4 17l1.4 11.3c0 5.9-.4 12.2-2.4 18.1-3.9 3.4 1.5 7.3 4.9 4.4a30.4 30.4 0 0 0 10.3-22.5c-.5-11.7-4-33.7-14.2-41-10.8-6.4-23.5 4.9-27.4 15.1a91.2 91.2 0 0 0-1.4 44.5c3.4 8.3 5.3 27.8 17 25.4Z" fill="#fff"/>
    <path d="M35.5 293.2c3-.5 5.9-2 8.3-4 4.4-3.9 3-11.7-2.4-14.1-2.5-1-5.4-.5-7.8.5-2.5.5-5 1-7.9 1.4-12.2 1.5-25.4 2-36.6-3.4-2-1.5-4.9-2-5.9-4.4 2-2.4 5.4-3 8.3-3.9a71 71 0 0 1 25-2.4c3.9.5 7.3 1.4 11.2 2 4.4.4 8.8.4 13.2.4 2.4 0 2.4-3 1.5-4.9-3.5-7.8-17.1-12.2-25.5-13.7a64.7 64.7 0 0 0-27.3 1c-7.3 2-15.2 4.4-20 10.3-3 3.9-5.4 8.8-4 14.1a23 23 0 0 0 11.8 15.2c17 10.7 39 10.2 58.1 5.9Z" fill="#fff"/>
    <path d="M21.8 356.7a70.8 70.8 0 0 0 21-25.4 73.7 73.7 0 0 0 8.8-28.4c.5-6.3-2.9-13.7-10.2-12.2-4 .5-7.4 4.4-7.4 8.3 0 2 .5 4 .5 6.4a78.8 78.8 0 0 1-19 39c-3-13.6 6.8-39.5 14.6-50.8l.5-.4c1.5 0 1.5-2 .5-2.5-3.4-1.5-8.3 2-11.2 4C7.2 304.3 1.8 321.4.9 337c-.6 6.4 0 13.2 3.8 18a14 14 0 0 0 17.1 1.6Z" fill="#fff"/>
    <path d="M40 303.9c2.8-3 5.3-6.3 7.7-9.8 1 7.4 10.8 9.8 14.2 3 2.4-6.9 0-14.2-.5-21 4-3 18-7.9 14.7-13.2-1-1.5-2.5-2-4-2-1.4 0-3.4 2-4.8 2l-6.4 2.9c1.5-6.4 3.4-13.2 2.5-20-2-5-8.3-3.5-9.8 1-3 6.8-4 14.1-5.4 21.4a65.7 65.7 0 0 0-17-2.4c-3 .5-5.5-1-8.4-1-4.9.5-6.8 6.9-3.4 9.8 6.8 3.9 15.1 4.4 23 4.9-5 4.9-8.8 10.7-12.8 16.1-2.4 5.4 5 12.2 10.3 8.3Z" fill="#FEBC3F"/>
    <path d="M18 312.2c2.8-4.9-2-9.8-3.5-14.6A44.9 44.9 0 0 0-11.9 273a25.8 25.8 0 0 0-17-2c-8.4 1-16.7 3-23 8.4-2.5 2.4-2.5 7.3 1.4 7.8 1 6.3 3.4 12.2 6.9 17 2.9 3 5.8 6.4 8.7 8.9a40 40 0 0 0 20 5.8c9.4-.4 18.2-2 27-4.8 2.4 0 4.8 0 5.8-2Z" fill="#fff"/>
    <path d="M-19.2 281.4a64.7 64.7 0 0 0 19-38c1.5-9.8-1-23.5-12.7-24-10.2-.5-19.5 6.3-26.8 13.2a25.4 25.4 0 0 0-8.8 16.6c-.5 1.5 0 3 0 4.4 0 1.4 0 3 .5 3.9.4.5 1.4 1 2.4 1 1.5-.5 1.5-1.5 2.4-2.5.5-.5 1.5-1.4 1.5-2.4 4.9-8.8 18-21 28.8-21.5 4.4 9.8-6.8 29.3-13.6 36.6-13.7 2.5-6 22 7.3 12.7Z" fill="#fff"/>
    <path d="M-19.7 282.4c4-4.4 6.3-9.3 9.3-14.6 3.4-6.9 6.8-13.7 8.8-21 1.4-8.4 3.4-18.6-2-26.4-3-4-7.3-5.4-12.2-4.4-4.9 1-8.8 3.4-12.7 5.8a45 45 0 0 0-14.2 14.7c-2 3.4-3.9 6.8-5.3 10.7-1 2-1.5 4-1.5 5.9 0 3 2 6.3 5.4 5.9 2.9 0 2.9-4.4.5-5 2-2.9 3.9-4.8 6.3-7.7 2-2.5 4-5.4 6.4-7.9 2.4-2 4.4-4.4 6.8-5.8 3.4-1.5 6.8-3.4 10.7-4.4 2.5 15.1-8.3 34.7-18 45.4-8.3 10.8 5.3 19 11.7 8.8Z" fill="#fff"/>
    <path d="M19.4 314.6c3-4.3 3.4-9.7 1.4-14.6-2-5.4-4.3-10.8-9.2-14.7a89.7 89.7 0 0 0-14.7-8.8c-4.4-2-9.3-5.3-14.7-4.4-3.4.5-10.7 2-9.2 6.9.5.5 1 1 1 1.5 1 2.4 4.3 1.9 4.8-.5 2 0 4 1 5.4 2.4 4.9 4 10.3 7.3 15.6 10.8 4 2.9 5.9 7.3 7.9 11.7 1 3.4-4 4.4-6.4 4.9-11.7 2.4-27.8 1.4-37.6-5.4-3-10.8-18.6-6.9-16.1 3.9 2 8.3 10.7 11.7 18 14.7 4.4 1.4 8.8 2 13.7 2.4 13.2 2.4 31.8 2 40-10.8Z" fill="#fff"/>
    <path d="M81 387.4c2.9 2 6.8 2.5 10.2 3 6.4 1 12.7-1 18-3.4a59.3 59.3 0 0 0 29.4-25.5c1.5-3.9 4.4-7.8 5.4-12.2.5-3.4 3-9.7-1.5-11.2-10.7-3-16.1-4.9-27.3-1-14.7 4-30.8 17.1-35.2 31.8-2 4.9-8.3 17 1 18.5Zm4.8-2.4c1-1 1-2.4.5-4 0-1.4.5-2.8.5-4.3 1.5-3.4 2.5-7.3 4-10.8a76 76 0 0 1 7.7-9.7 52.8 52.8 0 0 1 25-12.7c4.8-1.5 10.2 0 15.1.5-.5 3.9-2 7.3-4.4 10.7a54.8 54.8 0 0 1-20.5 23A101 101 0 0 1 97 385c-3 .5-7.3 0-11.3 0Z" fill="#fff"/>
    <path d="M84.9 386.5c4.8 2.9 9.7-1 14.6-1a57.2 57.2 0 0 0 22.5-12.7c4-4.4 8.8-8.8 12.2-14.2 2.5-1.5 3.4-4.4 4.9-6.3 1.5-2.5 3.4-5.4 2.4-8.3-1.4-2.5-4.8-3.5-7.3-1.5l-1.5-1.5a6.1 6.1 0 0 0-8.3 1c-14.1-.5-26.3 9.8-33.7 21-2 3-4.9 6.4-4.4 10.3-5.3 2.9-6.8 9.7-1.4 13.2Z" fill="#fff"/>
    <path d="M44.8 370.8c4.4 5 9.8 9.3 15.6 12.2 5.9 3 12.2 4 18.6 5.4 4 .5 6.8-4.4 4.4-7.8 2.4-3 1-6.8 0-10.3a41.4 41.4 0 0 0-8.8-28.3 54.2 54.2 0 0 0-23-21.5c-2.9-1.5-8.8-6.3-11.7-3.4-.5.5-1 1.5-1 2.4-1.4 4.4-3.9 8.8-4.4 13.7a47.6 47.6 0 0 0 10.3 37.6Zm5.4-7.8c-3.5-4.4-5-10.2-6.4-15.6 4 9.8 9.3 19.5 17.6 26.8-4.9-2.9-8.3-6.8-11.2-11.2Z" fill="#fff"/>
    <path d="M56 377.2c3 3.4 6.9 6.8 11.8 6.8 6.8.5 11.7-7.3 7.8-12.7 1 1.5 2 3 2.4 4.9 0 .5-.5 1 0 1 1.5 2 3-1 3.4-2.5 3-6.3 3-13.6-.4-20a63.8 63.8 0 0 0-10.3-17.6 62.5 62.5 0 0 0-19-16.6c-2-1.5-4.5-3-7-3.9A5 5 0 0 0 38 322c-.5 4.4-1 8.8 0 12.7 0 4.9 1.4 9.7 2.9 14.1A66 66 0 0 0 56 377.2Zm2.5-25c-3.4-6.8-7.4-12.6-9.3-20 3.9 4.4 8.8 8.3 13.2 12.7 3.9 4.4 6.8 9.3 8.3 14.2 1.5 4 1.5 8.3 3.9 11.7-1.5-2-4-2.4-5.4-4.4-4.4-3.9-7.8-9.3-10.7-14.1Z" fill="#fff"/>
    <path d="M2.8 399.2a46.9 46.9 0 0 0 17.6 9.2c6.3 2.5 13.6 3 21 2.5 9.3-1 18-4.4 26.4-8.8 6.3-3 11.2-7.3 15.6-12.7 3-3 3-8.3-1-10.8-3.4-2.4-7.8-.4-10.7 1.5-2.5-3.9-6.9-3.4-10.8-3a60.1 60.1 0 0 0-38 3c-6.4 3-11.8 6.8-16.7 11.2-3 2-6.8 4.4-3.4 7.9Z" fill="#fff"/>
    <path d="M37 401.6c.5 0 .5.5 1 1 .4.5 1 0 1-.5 1.4-1 0-3-1-2-1 0-1.5 1-1 1.5Z" fill="#fff"/>
    <path d="M64.8 456.3c5.4 2 9.3-3.4 13.2-5.8A46 46 0 0 0 97 421a29 29 0 0 0-.9-17 43.6 43.6 0 0 0-12.2-21c-3-2-7.3-1-7.3 2.9-6 2-11.3 5.3-15.7 9.7-2.4 3.5-5.4 6.4-6.8 10.3a40 40 0 0 0-2.5 20 122 122 0 0 0 9.3 25.4c1.5 2 2 4 4 5Z" fill="#fff"/>
    <path d="M88.8 411.4a34.2 34.2 0 0 0 23.4 12.7c9.8.5 20 0 28.9-5 2-.9 3.9-2.4 5.3-3.8 3-1 5-4.4 3.4-6.9-2-2.9-4.8-5.3-7.8-7.8-4.4-3.9-8.3-7.8-13.2-10.7-9.7-5.9-21.5-6.9-32.2-5.9-5.4 0-20 4.9-15.6 12.2 0 3 1.4 5.9 2.9 8.3 1.5 2 3 5 4.9 6.9Z" fill="#fff"/>
    <path d="M88.3 414.8a65.8 65.8 0 0 0 40 12.2c9.8-.5 22.5-4.9 21-16.6-1.4-10.3-9.2-17.6-17-23.5-5-3.9-11.3-6.3-17.6-5.8-1.5 0-3 .5-4.4.5-1.5.5-3 .5-4 1.4-.4.5-1 1.5-.4 2.5.5 1.4 2 1.4 3 2 .9.4 1.4 1.4 2.4 1 9.2 3.3 23.4 14 25.4 23.9-8.8 5.8-29.4-1.5-38.2-6.9-3.9-12.7-21.5-1.5-10.2 9.3Z" fill="#fff"/>
    <path d="M87.3 414.8c4.9 3 10.3 4.9 15.6 6.3 7.4 2 14.7 4.4 22 5 8.3 0 18.6 0 25-6.4 2.9-3.4 3.9-8.3 2.4-12.7-1.5-4.4-4.9-7.8-7.8-11.3a43.6 43.6 0 0 0-16.6-11.2c-3.5-1.5-7.4-3-11.3-3.4-2-.5-3.9-1-5.8-.5-3 .5-6 3-5 6.3.6 2.5 4.5 2.5 4.5-.4 2.9 1.4 5.8 2.9 8.3 4.4 3 1.4 5.8 2.9 8.3 4.8 2.4 2 4.9 3.5 6.8 6 2 2.8 4.4 6.3 5.9 9.7-14.2 4.9-34.7-2-47.4-9.8-10.3-5.9-16.1 8.8-4.9 13.2Z" fill="#fff"/>
    <path d="M62.9 458.3c4.4 2 10.2 2 14.1-1 5-2.4 9.8-6.4 12.7-11.2 3-5 4.4-10.3 6-15.7 1.4-4.9 3.3-9.7 1.9-14.6-1.5-3-4-10.3-8.3-7.8l-1.5 1.4c-2.4 1-1.5 5 1 5 0 1.9-.5 3.8-1.5 5.3-3 5.4-4.9 11.2-7.8 16.6-2.5 3.9-6.4 6.8-10.3 9.3-2.9 1.4-4.9-3-5.8-5.4-4-10.7-6.4-26.4-1.5-37.1 9.8-5 3.4-19-6.8-15.2-7.9 3.4-9.3 12.7-10.8 20a64 64 0 0 0 0 13.7c1 12.7 4.9 30.3 18.6 36.7Z" fill="#fff"/>
    <path d="M79 385.5c2 2 4.9 2.4 7.8 1.4 3.4-1 5.4-4.8 7.3-7.8 1.5-2.4 3-4.9 5-7.3a83.7 83.7 0 0 1 18.5-18.6c6.8-4.8 13.2-8.3 21.5-6.3-2 5.9-5.9 10.3-9.8 15.1l-7.8 7.9a71 71 0 0 1-15.6 8.7c-5-1-5 6-.5 6.4 8.3 2.4 17-.5 24-5.4 9.2-7.3 23.9-23 23.4-35.6-1.5-12.3-17.6-15.2-27.9-12.3a79.9 79.9 0 0 0-35.2 25.4c-5.3 6.9-19.5 20.6-10.7 28.4Z" fill="#fff"/>
    <path d="M55.5 384.5a17 17 0 0 0 7.9 4c5.8.9 11.2-5 9.7-10.3-.5-3-2.4-4.4-4.9-6-2-1.4-3.9-3.3-5.8-4.8-8.3-8.8-16.6-18.6-19-30.8 0-2.4-1.5-4.9 0-7.3 2.9 0 5.3 2.4 7.7 4.4a73.3 73.3 0 0 1 16.7 18c2 3 3.4 7 5.3 9.8l7.4 10.8c1.4 2 3.9 0 4.4-1.5 3.9-7.3-.5-20.5-4.4-27.8a63 63 0 0 0-17.1-20.5c-5.9-4.4-12.3-9.3-20-9.3-5 0-10.3 1.4-13.3 5.4-3.9 4.8-5.8 11.7-4.9 18 2.5 18.6 15.7 35.2 30.3 48Z" fill="#fff"/>
    <path d="M-2.1 411.4c10.3 3.4 21.5 3 32.2 1.4a80 80 0 0 0 27.4-9.7c4.9-3.4 8.8-10.3 4-15.2-3-2.9-7.4-2.9-10.8-.5l-4.4 4.4a65.5 65.5 0 0 1-18.6 6.9c-7.8 1.4-15.6 3-23.5 1.4 9.3-10.2 35.2-18 48.4-18.5h1c1 1 2.4 0 2.4-1-.5-4-6.3-5.4-9.7-6.4-15.2-4.3-31.8 2-44.5 10.3-4.9 3.4-10.3 7.8-11.7 13.7-2.5 4.9 2 11.2 7.8 13.2Z" fill="#fff"/>
    <path d="M49.7 393.8c3.9 1 8.3.5 12.2.5-4.9 5.3-1.5 14.1 6.3 12.7 6.9-2 10.8-8.8 16.2-12.7 4.4 1 16.6 9.3 19.5 3.9.5-1.5.5-3-.5-4.4-1-1-3.4-2-4.4-2.5-2-1-3.9-2.4-5.8-3.4 5.8-2.4 12.7-4.9 17-10.2 3-4.4-1.9-8.8-6.8-6.9-6.8 2-13.2 5.4-20 8.3-2-5.3-4.4-10.2-8.3-14.6-2-2-2.5-5-4.4-6.9-3-3.4-9.8-1.4-9.8 3.5 1 7.8 5.9 14.6 9.8 21-6.9-1-13.2-.5-20-.5-6.4 1-6.9 10.7-1 12.2Z" fill="#FEBC3F"/>
    <path d="M-81.3 557c1.5 2.4 4.4 3.4 6.9 3.4 3.9 0 6.3-3 8.8-5a78.5 78.5 0 0 1 29.3-17.1c7.8-2.4 14.6-3.8 22.5.6-3.5 4.9-8.3 7.8-13.7 11.2a91 91 0 0 1-9.8 4.9c-5.4 2-11.2 3.4-17.6 4-4.4-2.5-6.3 3.8-2.4 5.8a30.5 30.5 0 0 0 24.4 2c10.8-4 29.3-14.7 32.3-26 2-11.7-12.8-19-23-19.5a81.7 81.7 0 0 0-41 13.2c-5.4 4.9-22.5 13.2-16.7 22.5Z" fill="#fff"/>
    <path d="M511 506.6c4.3-2 4.3-7.3 6.3-11.2 6.8-10.3 21-11.7 32.2-9.8a34 34 0 0 1 16.2 8.3c3.4 3 5.8 7.4 10.2 8.8 3 1 5.4-2.9 3.4-5.3-2.4-5-4.9-9.8-8.8-13.7a32.7 32.7 0 0 0-23.9-11.3c-8.8-.4-18 1-25.4 5.4a56.5 56.5 0 0 0-13.7 12.7c-2 4-6.3 7.8-4.4 12.7.5 3 4.4 4.4 7.8 3.4Z" fill="#fff"/>
    <path d="M548.5 519.3c6-.5 11.8-2.4 16.2-5.8 4.4-3 9.7-6.4 10.7-11.7.5 0 1-.5 1-1 0-1.5-1.5-1.5-3-1.5-3.4 1-6.8 2-10.2 2.5-4.4 1-8.3 3.4-12.7 4.3-12.2 3-25.4 0-35.7-7.3-3.9-4.9-11.7-2.4-11.7 4 0 6.8 9.3 9.2 14.7 11.7a67 67 0 0 0 30.7 4.8Z" fill="#fff"/>
    <path d="M541.2 510.5a80 80 0 0 0 10.8-1c2.4.6 5.3.6 7.8-.4 2.4-1 4.4-2 6.3-3.4 2.5-1.5 5-3.5 5.9-6.4 3-10.2-3-14.2-12.7-12.2-1.5-1-4-1-5.9-1 0-.5-.5-1-.5-1l-.4-.4a7.8 7.8 0 0 0-6.4-6.4c-3-.5-5.4 1-7.8 2.4-2 1-4 .5-5.9.5-3.9 0-7.8 1.5-9.3 5.4 0 0-.4 0-.4.5-1 .5-1.5 1.5-2.5 2-3.9.4-7.3 3.4-7.3 7.8 0 5.8 6.3 9.2 11.7 9.2 4.4 4.4 10.8 4 16.6 4.4Z" fill="#fff"/>
    <path d="M548 510.5c14.2-9.2 8.9-38.5-10.7-33.7-11.7 3.5-13.7 19.6-7.8 28.9 3.4 6.3 12.2 9.2 18.6 4.8Z" fill="#1E0E25"/>
    <path d="M163.7 531.8c-.3-.5 0-1.5.5-1.5.3 0 .5 0 .8.2 2.5.6 5 1.7 7.3 2.5 2.6.9 5.4 1.6 7.6 3.1 2.1 1.8 0 5.5-2.6 4.5-3.4-1.9-6.6-3.7-9.8-6.1l-2.9-2c0-.3-.8-.4-1-.7Z" fill="#1E0E25"/>
    <path d="M185.9 532.1c1.7-4 4.3-7.7 5.9-11.9.8-1.5 1.8-3.2 2.4-4.8.2-.8.3-1.6 1.1-2 1.3-.7 2.9.5 2.5 1.7a38 38 0 0 1-1.3 5.8c-.5 2-.9 4-1.8 6-1 2.4-1.7 4.7-2.4 7-1.3 4.3-7.4 2.5-6.4-1.8Z" fill="#1E0E25"/>
    <path d="M161.6 563.5c.5-1.5 2-1.7 3-2.5 2-1.5 3.8-3 5.5-4.6 2.6-2.5 5-5.2 7.7-7 3.8-2.3 7.7 3 4.3 5.9l-9.1 5.6-7.7 4.4c-1.4 2-4.5.5-3.7-1.8Z" fill="#1E0E25"/>
    <path d="M189.5 546.1c-1.6-2-.2-5.5 2.3-5.5l3 .3 15.4 2.8 3.5.3c.4 0 .6 0 1 .3.9.5 1 1.9-.3 2-5.2 2.2-11.3 1.9-16.9 1.8-2.2-.1-4.3-.4-6.4-.8-.2 0-1-.6-1.6-1.1Z" fill="#1E0E25"/>
    <path d="M193.7 571.8c-1.5-7.4-6.7-13.2-8.7-20.6-.8-3.6 4.2-5.5 6.2-2.4.4.8 1 1.7 1.3 2.7 1.4 5.4 3.6 10.6 3.9 16.1v2.9c.4.8.2 1.8-.6 2.2-.8.4-1.7-.1-2-1Z" fill="#1E0E25"/>
    <path d="M187.5 544.7c-.6-1.4-.6-2.9-.5-4.5 0-3 1.3-5.3 2.6-7.6a26 26 0 0 1 12.5-11c1.7-.5 3.6-1.4 5.5-1.8 1.4 0 4.3-.6 4.7 1.3.4 4.7 1.3 7.2-1 11.8-2.6 6-9.2 12.1-15.8 13.2-2.3.7-8 2.6-8-1.4Zm1.4-2c.5-.3 1.3-.2 1.8-.1h2l5-1.2a29 29 0 0 0 4.6-2.8c3.3-2.3 5.5-6.2 7-9.9 1-2 .6-4.5.7-6.7-1.7.2-3 .5-4.9 1.2-4.4 1.2-8.3 4.1-11 7.4-1.4 2-3 4.3-4 6.5-.9 2-1 4-1.2 5.6Z" fill="#fff"/>
    <path d="M188.2 543c-1-2.2.8-4 1.5-6.1 1.6-3.4 4-6.5 6.8-9 2.3-1.5 4.3-3.1 6.7-4.3.8-1 2-1.1 3-1.8 1.1-.4 2.6-1 3.6-.4 1 .8 1.2 2.4.2 3.2l.5.6c.7 1.2.2 2.6-.8 3.5-.6 5.9-5.8 10.6-11 13.3-1.5.6-3 1.7-4.6 1-1.7 2.2-4.7 2.5-6 0Z" fill="#fff"/>
    <path d="M192.4 561.1a22.8 22.8 0 0 1-4.2-7.5c-1-2.5-1-5.4-1.4-8.1.1-1.7 2.4-2.7 3.6-1.4 1.4-1 3.1 0 4.5.6 2.1.3 3.8.7 5.7 1.5 2.3 1 4 2.3 6 4 4 3.4 6.2 6 7.8 11.2.3 1.3 2 4.3.7 5.2l-1 .3c-2 .3-4 1-6 1.1a20.6 20.6 0 0 1-15.7-6.9Zm3.6-2c1.8 2 4 3 6.3 4-4-2.4-7.7-5.3-10.4-9.1a17 17 0 0 0 4.1 5.2Z" fill="#fff"/>
    <path d="M190.5 556c-1.2-1.5-2.4-3.3-2.3-5.5.2-2.8 3.7-4.4 6-2.6-.5-.5-1-1.1-1.8-1.3-.1.2-.4.1-.6 0-.7-.7.8-1.3 1.1-1.4 2.8-1 6-.2 8.5 1.5 2.6 1.4 5 3.3 7 5.3 2.5 2.6 4.6 5.8 5.9 9 .5 1.2.9 2 1 3.2.5 1.7-1.1 3-2.9 2.6-1.8-.2-3.6 0-5.5-.8-2-.4-4-1.3-6-2-4-2-7.9-4.5-10.4-8-.3 0 0 0 0 0Zm10.9.3c2.6 1.8 5 4 8.1 5.2-1.7-2.1-3-4.3-4.6-6.4a23 23 0 0 0-5.6-4.6c-1.6-.8-3.6-1.2-4.9-2.4.7.7.9 1.9 1.4 2.5 1.4 2.5 3.3 4.1 5.6 5.7Z" fill="#fff"/>
    <path d="M177.7 577.4a17.5 17.5 0 0 1-2.7-8c-.9-3-.5-6.3.2-9 1-3.9 3-7.3 5.3-10.9a21 21 0 0 1 6.5-6c1.5-1 3.8-.6 4.6 1 .8 1.6-.2 3.3-1.2 4.7 1.6 1.2 1 3.1.6 4.9.8 5.5-.7 11.2-3.5 16.1a32 32 0 0 1-5.9 6.3c-1.3 1-2.5 2.6-3.9 1Z" fill="#fff"/>
    <path d="M178.8 562.5c-.2-.1 0-.4-.3-.5-.2-.1 0-.5.3-.4.2-.4 1 0 .7.7 0 .6-.3.6-.7.2Z" fill="#fff"/>
    <path d="M157.1 547.3c-.6-2.3 2-3.6 3.4-5.4 3.5-3.7 8.6-6.2 13.8-6.4 2.4-.3 5 .3 7.2 1.3 3.2 1.5 6.4 3.3 8.3 6.4.7 1.2 0 3-1.7 3a14.6 14.6 0 0 1-5.2 6.1c-1.6.8-3 2-4.7 2.4-2.9 1-6 .6-8.8-.1a36.8 36.8 0 0 1-10.2-5.5c-1-.6-1.8-.8-2-1.8Z" fill="#fff"/>
    <path d="M177.8 539.8a14.7 14.7 0 0 1-4-10.8c.4-4.3 1.2-8.7 3.7-12l2-2.3c.5-1.2 2.2-1.7 3.2-1 1.2.9 2.1 2.3 3 3.6a21.4 21.4 0 0 1 4.2 20.5c-.2 2.5-3.5 8.3-6 6-1.4-.2-2.4-1-3.3-1.9a6 6 0 0 1-2.8-2.1Z" fill="#fff"/>
    <path d="M176.2 539.7c-3-5.1-3.6-12.2-2.8-18 .6-4.2 3.3-9.5 8.2-8.1 4.2 1.2 7 5.1 9.2 8.9 1.2 2.4 2.1 5.2 1.4 7.9l-.5 2c-.2.4-.4 1.1-.9 1.4-.3.1-.6.2-.8.1-.5-.2-.4-.8-.7-1.2-.1-.4-.4-.8-.2-1.3-1-4.2-4.6-10.8-8.8-12.4-3.1 3.4-1 12.8.7 16.7 5 2.8-.8 9.4-4.8 4Z" fill="#fff"/>
    <path d="M176.2 540.3c-1-2.3-1.3-4.8-1.8-7-.5-3.1-.9-6.4-.7-9.7.6-3.7 1-8 4.2-10.4 1.7-1 3.8-1.3 5.5-.3 1.8 1 3.1 2.6 4.6 4a25 25 0 0 1 4.6 12.8c0 1 .1 1.8-.3 2.7-.4 1.2-1.6 2.2-3 1.7-1.2-.4-.8-2.1.5-2-.3-1.3-1-2.6-1.4-3.9l-1.5-4a15 15 0 0 0-2.1-3.2c-1-1.1-2.4-2.2-3.8-3.2-3 5.9-1.3 15.1 1.4 21 1.7 4.9-5 6.4-6.2 1.5Z" fill="#fff"/>
    <path d="M156 548.1c-.5-2 0-4.3 1.3-6 1.4-2.1 3.3-3.9 5.5-4.9 2.3-1 4.7-1.3 7.2-1.6 2.1-.2 4.5-.8 6.4.2 1.3.8 4.2 2.1 2.9 4l-.6.5c-.5.8-2.1.2-1.8-.8-.8-.1-1.7 0-2.5.3-2.5.9-5.2 1.6-7.6 2.5-1.8.7-3.4 2.4-4.8 3.8-.7 1.3 1 2.3 1.9 2.8 4.3 2.4 11 4.2 16 2.8 2.5-4 8.4-.3 6 3.8-1.8 3.2-5.7 3.2-9 3.6-2 0-3.8-.5-5.9-.8-5.8-1.3-13-4-15-10.2Z" fill="#fff"/>
    <path d="M188.3 545.8c-.6-1-.6-2.4 0-3.5.7-1.3 2.3-2 3.8-2.6l3.4-1.5c3.4-1.5 6.4-4.3 9-6.8 2.5-2.6 4.3-5.2 3.8-8.9-2.5.5-4.7 1.9-7 3.4-1.4 1-2.7 1.8-3.9 2.9-1.8 1.8-3.4 4-4.8 6 .2 2.1-2.8 1.9-2.8-.1-.5-3.7 1.3-7.2 3.8-9.8 3.6-3.3 11.3-8.9 16.8-8 5.2 1.2 5.4 8.4 3.7 12.5-2.8 5.3-8 10.6-13 13.7-3.3 1.5-10 6.8-12.8 2.7Z" fill="#fff"/>
    <path d="M187.3 555.6a9.9 9.9 0 0 1-1.4-3.6c0-2.5 2.8-4.3 5-3.3 1.2.3 1.9 1.3 2.4 2.4l1.8 2.7c3.1 4 7 8.3 12 10 1 .2 2 .8 3.1.3.2-1.3-.8-2.4-1.3-3.6a28.1 28.1 0 0 0-6.8-8c-1.1-1-2.6-1.9-3.8-2.8-1.4-1-2.9-2.5-4.1-3.7-.7-.7 0-1.7 1-1.8 3.4-1.1 8.7 1.6 11.6 3.5 3.2 2.4 6 5 8 8.5 1.5 2.8 3.2 5.8 2.8 9-.3 2-1.2 4.1-3 5.4a10.7 10.7 0 0 1-8 1c-8.5-2.1-14.8-8.9-19.3-16Z" fill="#fff"/>
    <path d="M172.3 578.6c-.8-4.7-.1-9.4 1.4-14 1.4-4 3-7.9 6-11 1.6-2 4.9-3.2 6.8-.6 1.2 1.4 1 3.3-.3 4.6l-2.1 1.6c-1.8 2.1-3 4.8-4 7.7-1.1 3.3-2.4 6.6-2 9.9 5-3.4 9.9-14 10.9-19.6l-.1-.4c-.3-.4.2-1 .6-1 1.4.5 2 3 2.2 4.6 1 6.8-2.8 13.4-7.2 18.6a11.3 11.3 0 0 1-6.6 4.2c-2.8.4-5.2-1.8-5.6-4.6Z" fill="#fff"/>
    <path d="M182.8 557.6c-.2-1.8.2-3.5.7-5.3-2.6 2-6-.3-5.2-3.4 1.3-2.7 4.4-4.1 6.7-6.2-.3-2.1-3-7.7-.4-8.4.7-.2 1.5 0 1.8.4.5.6.4 1.7.8 2.2.4.8.6 1.8 1 2.8 1.5-2.3 2.8-5.2 5.1-6.7 2.2-.8 3.7 1.5 2.7 3.2-1.1 3-3 5.4-4.8 8 2.1 1.3 4.2 2.7 5.7 4.4.8 1 2 1.5 2.8 2.2 1.3 1.6 0 4.3-2 4-3.3-.8-5.8-3.3-8.5-5.5a45 45 0 0 1-1 8.6c-.6 2.7-5 2.5-5.4-.3Z" fill="#FEBC3F"/>
    <path d="M115.4 596.8c3.3.2 2.3-5.5 2.6-7.6a85.3 85.3 0 0 0-5-35.5c-11-32.6-35.9-54.9-67.8-66.5a27.2 27.2 0 0 0-13.2-1.8c-5.4.6-8.3 7.2-4.2 11a6 6 0 0 0 6 1.3l5.4 1.1a109.8 109.8 0 0 1 40.3 24.9c10.6 9.7 18 22.3 23.5 35.5a128 128 0 0 1 10.5 34c-1.2.7-1.1 2.5.2 3.2.7.1 1.2.4 1.7.4Z" fill="#41751C"/>
    <path d="M86.9 595c6.7 2.2 13.6 3.6 20.7 5 7 1.7 20.5.4 18.3-9.7-1.2-4.4-6-6-10-4.8-1.8.6-3.4.9-5.1.5a81 81 0 0 1-56.1-36 227 227 0 0 1-20.2-48.5c-.8-2.7-1.2-5.4-2-8.1-.3-2-1-5-3.8-4.2-3 1.4-2.5 6.5-3.3 9.4-.6 4.5-.6 9 .1 13.7a127 127 0 0 0 17 47 92.1 92.1 0 0 0 44.4 35.8Z" fill="#41751C"/>
    <path d="M95 586.3c1.2-.1 2.4-.3 3.5-.8 2.6 1.5 5.4 1 8.1 1.8.6 4 7.4 3.6 10.2 2.6 1.4-.6 2-2 2-3.4-.4-2.5-3-3.4-4.7-4.3 6.8-10-6.2-27.7-11.2-36.8-6.8-11.5-29.7-41.2-43.3-42.1a35 35 0 0 0-22.1-8.6c-5.8.7-9.6 8-6.2 13 1.5 2.2 3.9 3.6 6 4.8.5 14.2 8.7 26.2 16.8 37.3 6.6 9.4 12.9 19 20.7 27 2.7 2.8 6.4 5.4 10.3 6 2.6 2.3 6.3 3.8 9.9 3.5Z" fill="#41751C"/>
    <path d="M45.4 622.3c15 5.6 32 5 47-.5a89.7 89.7 0 0 0 18.2-9.6 96 96 0 0 0 12.5-12.4c3.3-.4 4.2-5 .9-6-5.7-1-10.8 3.4-16.2 5 0-6-6-11.7-10.4-14.8-13-9-29.2-11.4-44.7-12.6a92.5 92.5 0 0 0-33 5.1l-9.8 3.8c-4.2 1.3-9.6 2.5-10 7.7-.6 6.4 7.2 8.3 11 12.1 3.3 3 6.4 6.2 9.7 9.3a71.1 71.1 0 0 0 24.8 12.9Z" fill="#41751C"/>
    <path d="M72.7 529.2c.2 0 .4.2.7.1H73l-.2-.1Zm-28.6-4c0-.3.2-.5.3-.7l-.1.2-.2.4Zm3.2-15.3c-.8-1-2.7.2-2 1.5.7 1.2 1.2 2.4 2 3.4 2.4 3.9 4.9 7.5 7.2 11.4l-.6-.3c-2.9-1-8.8-5-11.8-3.9l-.3.1.1-.2c-.1.2-.3.1-.4.3v-.2c-1.9.9-.8 4 1.6 3.4 5 2.2 9.5 5.7 14.4 8l1.5.8a143 143 0 0 1 4.7 8.3l1.7 3L58 542c-3.4-1.6-6.5-3.7-9.8-5.3-1.3-.7-4.1-1.7-4.6.6-.1.7.5 1.6 1.5 2 4 1.3 7.4 4.4 10.9 6.7 4 2.5 7.9 5 11.5 8.2 2 2 4.1 3.8 6.3 5.3l4.4 7.3a3.7 3.7 0 0 0 4.3 1.9c8-2.6-3-16.5-5.5-20.7l-.4-.8.1-.2c-.1-5.8-.8-11.6-1.3-17.2.2-1.9 0-4.6-2.3-4.5-2.5 0-2 3.1-2.5 4.9-.2 2.4-.4 4.8-.8 7.4l-4.8-6c.3-1 0-2.4-.3-3.4-.3-3-.3-6-.9-9 0-.5-.1-1.2-.8-1.6-1-1.3-3 0-2.3 1.6-.1 2.2-.4 4.2-1 6.2-3.7-5.5-7.8-10.7-12.4-15.6Z" fill="#fff"/>
    <path d="M103.9 650.6c12.2 7 25.9 8.8 39.6 10 16.2 2.2 32.4-3.4 45.9-12.2 2.4-.3 4.7-.4 7-1.4 8.4-4.3 8.3-15.7 8.2-24 .1-15.2-3.6-30-8-44.2-6.8-21.7-17-42-29.9-61-10.8-15.4-38.6-60.7-60.5-43.6a123.6 123.6 0 0 0-28.5 43.6c-5.5 12.2-10 24.7-11.6 38A126.8 126.8 0 0 0 64 588c1.5 25.8 15.8 51.6 39.9 62.6Zm2-19c-22.4-14.6-26.6-42.6-23-67.1 1.3-7.2 2.3-14.4 4.2-21.2 2.9-9.1 6.6-17.8 10.8-26.5a99.5 99.5 0 0 1 18.6-27.4c8 4 13.2 11.7 18.6 18.2 4.6 5.4 8.6 11.4 12.6 17.3 11 16 20.5 33 27 51 5.9 17 10.8 34.9 9.8 53-3.2.2-6.2 1.6-9.4 2.6-2.2.5-4.5.6-6.6 1.1-2 .6-3.6 1.4-5.8 1.3-5.7.1-10.5 5.6-9.3 11.4-9.5-1.2-19.3-2.4-28.7-5-6.8-1.8-13-5-18.9-8.7Z" fill="#FEBC3F"/>
    <path d="M114.7 649.1c9 3.7 19 3.8 28.2.7.6 3.5 3 6.3 6.1 7.8 3.7 1.5 7.6.6 11.4.8 5.2-.2 10.2-2 15.4-2.6 3.4-1 6.6-2.6 10-3.5 3-1 6-2.8 9-4.1 8.5-4.4 4.5-18.3-5-16.9a4 4 0 0 0-1.1-1.7l-.2-.1c6.2-7.5-.1-17.4-3.8-24.8 3-1.4 5.4-4.6 6-8 .4-3.8-2-7-4-10.2-1-1.7-2.1-3.2-3.2-4.7-4.7-9.2-9.4-18.4-14.7-27-2.7-4.4-6.1-8.3-7.9-13.2-4.7-11.2-11.5-21.6-18-31.8a45.6 45.6 0 0 0-17.3-19 10 10 0 0 0-13.7.8c-12-4-15.8 9.8-18.2 18.6-.2.2-.2.7-.3 1-2.3 4-3.9 8.8-4.8 13.4-.7 3.8-1.3 7.8-1.8 11.7-3.1 8.5-5.8 17.2-7 26.2-.8 5.4-1.7 11.1-.8 16.5-1.6 8.7-5.4 19.6 1.8 26.8a19.6 19.6 0 0 0 14.8 23.4c2 10 10.2 16.6 19 20Z" fill="#FEBC3F"/>
    <path d="M153.2 653.7c4 0 7.6-3.4 7.2-7.3 0-4.8-5.1-6.8-9.3-7.5-5.5-.9-9.5 6.2-5.8 10.6 2 2.6 4.7 4.4 7.9 4.2Z" fill="#fff"/>
    <path d="M143.7 629.9c3.1-4-2-9.4-6-6.8-2.5 1.4-2 5-.8 6.9 1.6 2 5 2 6.8-.1Z" fill="#fff"/>
    <path d="M129 627.5a6.7 6.7 0 0 0-4-8.8 6.7 6.7 0 0 0-8.6 3.9 6.7 6.7 0 0 0 3.8 8.7 6.7 6.7 0 0 0 8.7-3.8Z" fill="#fff"/>
    <path d="M174.3 634c1.1 0 2.6 0 3.6-.3l-.7-1.8-.2-.7-.2-.1-2-5.4-2.4-6.5v-.3s.2.1 0 .4l-.1-.7s.2.1 0 .3c0-.3-.4-.8-.4-1.1l-.3-1-.3-1c0-.4-.2-.7-.3-1l.1.3c0-.3-.2-.7-.4-.8v-.3c-.8-1.8-1.2-3.5-2-5.1-1.8-5.3-4-10.5-6.2-15.7-1.8-4.7-3.9-9.6-5.8-14.7l-.5-1-.1-.4c-.2-.1 0-.4-.3-.5l-.8-2.1-1.5-4.3-1.8-4.4-1.7 7.5c-.4 1.2-.5 2.3-1 3.4-.2.8-.6 1.4-.7 2.2-.3.4-.3 1-.5 1.4a27 27 0 0 1-1.8 4c-.3 1-.8 2-1.4 3l-1.8 3.8a5910.2 5910.2 0 0 1-4.5 8.5c3.6 6 7.6 12 11.7 17.7 4 5.4 8.4 10.7 14.5 13.9 1 .8 2 1.4 3 2 2.2-.2 4.4.5 6.8.7Z" fill="#F92115"/>
    <path d="m137.4 589.5 4.3-7.5c.5-.9.8-1.9 1.3-2.7.3-.7.7-1.3.8-2 .4-1.3 1-2.1 1.3-3.3.5-.9.6-1.7.8-2.4.4-1.2 1-2.6 1-4 .5-1.1.8-2.7 1.2-3.9l.2-1c-.4-.2-.5-.5-.4-1-3.6.2-7 .2-10.6.5-5 .5-10 .8-15 1.4l-3.3.4 8 15.3 7.8 13.8c1.3-1.3 2-2.6 2.6-3.6Z" fill="#F92115"/>
    <path d="M182.9 631.4c.4-.3.7-.4 1.4-.6 10-4.2 10.6-15.6 9.6-25.4-1-1.5-2.3-3.4-3.5-4.9l-5-6.2c-3.7-4.4-7.4-8.8-11.3-13-3.6-3.7-7-7.6-10.3-11.2-1.4-1.6-3-3.2-4.8-4.7l-1.5-1.7c3.7 10.3 7.6 20.5 11.4 30.8v.4s.3.1.2.3v.4c.2.6.6 1 .5 1.6l.3 1 .2.2c3.3 8.6 6.3 17.4 9.2 26.2l2.8 8c0-.8.3-.9.8-1.2Z" fill="#F92115"/>
    <path d="M190.2 600.4s.2.1.1.4v-.4Z" fill="#F92115"/>
    <path d="m184.6 567.4-3.1-6.5H176h.3a47323.3 47323.3 0 0 1-17.3 0c.2.1.4.2.7.7 1.7 1.5 3.5 2.8 5.2 4.4l4.6 4.3c2 1.6 3.5 3.4 5.4 5a72 72 0 0 1 5 5.1l4.8 5 3.4 3.6 1.5 1.8c.9 1 1.5 2 2.4 2.8-1.7-9-4-18-7.5-26.2Z" fill="#F92115"/>
    <path d="M119.8 559.6c5.8-.7 11.8-1.3 18-1.7 0 0 .2.1.3-.1l6.6-.5 2.6-.2c.4-.1 1 0 1.2-.2-1-1.5-2.2-3-3.5-4.3l-4.9-5.3-5.2-5.2c-1.8-2-3.7-3.6-5.5-5.4l-6.1-5.7c-2.6-2-4.8-4.2-7.3-6.2-2-1.6-4-3-5.6-4.6l-3.2-2.4a11 11 0 0 0-2.3-1.5c-.9-.8-2-1.4-3-2.3 1.6 14.8 8.5 31.2 15.6 45.7.9 0 1.5-.3 2.3-.1Z" fill="#F92115"/>
    <path d="M141.3 537.8c-1.9-4.8-4-9.6-5.8-14.4l-3.1-7.4c-1.2-3-2.6-6-3.9-8.7l-1.7-3.6-1.7-3.5-3.4-7-3.8-7.3-.7-1.2c-7.3.4-13.2 6.4-15.5 17.8l-.3 3.6.9.4c.6.4 1.1 1 1.8 1.3l4.3 3.4 2.6 2c2.3 1.9 4.3 3.9 6.6 5.7l.2.2-.2-.2.2.2a59.5 59.5 0 0 0 .9.5h.2c1 .9 2 1.7 2.7 2.8l4.5 4.2 2.2 2 4.3 4.5c1.7 1.9 3.3 3.6 5 5.7 1.7 1.8 3.4 4 5 6 .8.7 1.2 1.5 2 2.2l.9 1.4-4.2-10.6Z" fill="#F92115"/>
    <path d="M155.4 552.9c.5-1.5 1.5-3.2 2.1-4.8l1.8-4.6c1.3-3.3 2.2-6.4 3.3-9.8l-.1.2c.2-1 .4-1.7.9-2.6-.9-1-1.9-2.2-2.9-3-7.6-12-15.4-24.4-25.2-34.5-3.4-3.6-7-6.2-10.4-7.6 2 4 4.2 8 6 12.2l7.4 16.1c2.4 5.3 4.4 10.7 6.6 16.3 2 5 4.2 10.2 6 15.3l3.5 9.6c.1-1.3.6-2.2 1-2.8Z" fill="#F92115"/>
    <path d="m163.5 556.6 10.3-.1c1.7-.2 3.6 0 5.4 0a312 312 0 0 0-8.8-15.6c-1-1.7-2.3-3.5-3.6-5.1l-.1.2c-1.7 4.4-3.5 9-5.7 13.5l-3.3 6.3-.5 1c2.3-.2 4.3-.2 6.3-.2Z" fill="#F92115"/>
    <path d="M178.6 635.8c0-.3-.3-.4-.1-.7h-.3c-.2-.2 0-.4-.3-.5-.4-.8-.4-1.7-.8-2.5l-.2-.7-.2-.1-2-5.4-2.4-6.4-.2-.2c0-.3 0-.3-.3-.4 0 0 .2.1 0 .3v-.7s.1.2 0 .4c0-.4-.4-.8-.5-1.1 0-.4-.2-.7-.3-1l-.2-1-.3-1v.3c0-.4-.1-.7-.3-.8l-.1-.4c-.7-1.8-1.2-3.4-2-5l-5.3-14.1c-3-.3-6 1-7.4 4-2.6 7 0 15 2.7 21.7 2 5.6 6 11 11.3 14 3.2.4 6.2 1.3 9.2 1.3Z" fill="#F92115"/>
    <path d="M183.1 635c12.5-4 10.4-19.4 9.7-29.7l-.2-1.6-2.3-3s.2.2.1.4c-1.9-2.2-3.4-4.5-5.3-6.7-3.7-4.4-7.5-8.8-11.3-13-3.2-3.4-6.4-6.7-9.3-10 4.6 12.2 7.8 25 9.4 38.2-.3-.4-.6-1-.5-1.5 2 5.5 3.7 11 5.7 16.4a210.6 210.6 0 0 0 4 10.4c-.3.1-.3.1 0 0Z" fill="#F92115"/>
    <path d="M180.6 561h-4.3.3-16.2l.8 1.7 4 3.4 4.6 4.3c2 1.7 3.5 3.4 5.4 5 1.7 1.6 3.5 3.4 5 5.2 1.6 1.7 3.3 3.2 4.8 5l3.4 3.6 1.5 1.7c.3.1.4.5.6.6a216.4 216.4 0 0 0-10-30.6Z" fill="#F92115"/>
    <path d="M169.8 598c1 2.7 2 5.3 2.8 8-.8-2.7-1.4-5.6-2.8-8Z" fill="#F92115"/>
    <path d="m163.5 556.6 10.3-.1 4.8-.1-3-6.6a217 217 0 0 0-8.3-15.4c-.3.4-.4 1.2-.6 1.6-1.7 4.4-3.5 9-5.7 13.5l-3.2 6.1c0 .4.2.7.5 1.2 1.7-.2 3.5-.3 5.2-.2Z" fill="#F92115"/>
    <path d="m157.3 548 1.8-4.7c1.3-3.2 2.2-6.4 3.3-9.7l-.2.2 1.5-5.1a155 155 0 0 0-28.5-34.7 39.5 39.5 0 0 0-9.4-5.9c1.6 3.2 3.4 6.5 4.9 9.9 2.3 5.3 5 10.7 7.3 16 2.4 5.4 4.4 10.8 6.6 16.3l1.4 3.6c3.6 5.7 7 11.6 9.8 17.8.7-1.3 1.1-2.5 1.5-3.7Z" fill="#F92115"/>
    <path d="M615.7 296.3v-.5c.3-.7.7-1.2 1.2-1.2 1.9-2.5 3.8-5.1 5.7-8 .7-1.6 1.6-3.5 3.5-4 5.2-1.6 9 5.2 5 8.5-3.1 2.1-6.7 3.5-10 5.4-1.6 1.2-5.6 3.6-5.4-.2Z" fill="#1E0E25"/>
    <path d="M630 267.1c-3.4-1.4-4-5.9-4-9.2-.1-4.4-.1-8.7.6-13.1 0-.7 0-1.4.4-2 1-1 3-.4 2.9 1 .4 2.1 1.8 3.8 2.5 5.7 1.5 2.6 2.2 5.6 3.1 8.4.5 1.5 1 2.9 1 4.3.4 3.3-3.1 6.1-6.4 5Z" fill="#1E0E25"/>
    <path d="M633.6 226.2c-4.2-.5-8.2-2.6-12.5-3.5-1.4-.5-2.5-1-4-1.2-.9-.2-2-.5-2.5-1.7-.5-1.4.9-2.8 2.3-2.5a41 41 0 0 1 17 .4c4.9.7 5.6 7.3.7 8.5h-1Zm-16.5-5.2c.3 0 .5-.2.8-.5l-.8.5Z" fill="#1E0E25"/>
    <path d="M637.4 211.1c-4.5-3-5.9-12-7.3-16.9-.3-1.9-1.2-3.8-1-5.6.5-1.2 2.2-1.5 2.9-.5 1.1 1.4 1.8 3 2.8 4.7 1.9 3.3 5 6.1 6.1 9.6.7 2 1.7 3.8 1.7 6 .4 2.5-2.9 4.4-5.2 2.7Z" fill="#1E0E25"/>
    <path d="M648.2 217.5c-4.5-2.8-.2-8.2 2.4-10.6 2.8-3 5.8-5.9 8.9-9 1.4-1.1 2.1-2.8 3.5-3.7 1.7-1 3.6 1 2.6 2.6-2.3 3.7-5.2 7.5-7.3 11.3-2.3 2.8-5.2 11.7-10.1 9.4Z" fill="#1E0E25"/>
    <path d="M690.6 208c-2.2-4.6-1.2-10.3-1.7-15.2 0-1.7-.2-3.3 0-5 .5-3.7 6.1-3.2 5.9.5.2 4.5 2.1 8.7 2.8 13.2.7 3 1.4 7.8-2.6 8.7-1.9.2-3.7-.7-4.4-2.1Z" fill="#1E0E25"/>
    <path d="M656.2 294.2c-1-.3-1.4-1-1.9-1.7l-2.3-3c-2.4-2.9-5.4-5-7.8-8-2.4-3.8 2.6-7.6 5.6-4.3 3.1 4.3 6.6 8.3 9 13 1.4 1.6-.5 4.7-2.6 4Z" fill="#1E0E25"/>
    <path d="m733.6 281.5-6.8-6.4c-2.4-1.6-3-5.4-.3-7 1.7-1 3.8-.3 4.8 1.4 2.5 3.3 4.9 7 6 11 1.5 1 .5 3-.9 3-1.1.3-1.9-1-2.8-2Z" fill="#1E0E25"/>
    <path d="M730.8 258.7c-1.9-4 2.1-6.4 5.4-7.3l6.3-2.9c2.2-.7 3.6-1.1 5.5-2 .9-.6 1.4-1.5 2.5-1.5 2-.2 3.3 2.1 2.4 3.5a8.8 8.8 0 0 1-3 2.9c-5 3-14.4 14.8-19.1 7.3Z" fill="#1E0E25"/>
    <path d="m751.3 227.4-1-.7c-1.6-3.8-5.2-6.6-6.1-10.9-1-4 4.7-6.3 7-2.8 1 1.7 1 3.3 1.7 5.2.5 1.6 1.2 3 1.6 4.7.8 1.9-.2 5.6-3.2 4.5Z" fill="#1E0E25"/>
    <path d="M719.7 225c-.7-1-.4-2.6.3-3.3.7-.7 1.6-1 2.3-1.6 2.4-1.7 4.3-3.8 6.1-6 1.7-1.6 2.9-3.7 5.4-4 2.9-.1 5 3 4 5.5-1.6 5-8.4 6.1-12.4 9-1.7 1.1-4 2.5-5.7.4Z" fill="#1E0E25"/>
    <path d="M725.4 198.4c-3.8-3.7-5.4-9.1-8.3-13.4-.4-.4-1.1-1-1.1-1.6-.3-1.2.4-2.1 1.6-2.4 2.1-.2 3.8 2 5.2 3 1.9 1.7 3.3 3.8 5.2 5.3 1.4.9 2.8 1.8 3.7 3.5 3 4-2.6 9-6.3 5.6Z" fill="#1E0E25"/>
    <path d="M742.5 185.7c-2.5-.2-4.7-2.6-4.2-5.1.2-2.4 1.7-4.8 2.6-6.9 1.2-2.8 1.9-5.6 2.8-8.4.7-1.4 3-.5 2.6 1 1 3.7.7 7.7 1.2 11.7.2 1.1.2 2 .2 3.3a4.9 4.9 0 0 1-5.2 4.4Z" fill="#1E0E25"/>
    <path d="M752 202.2c-5.5-.7-5.2-7.5-.5-9.2 4.2-1.6 9-1.2 13.6-1.4 2.4-1 4.3 2.1 2.4 3.8-2.8 1.2-5.2 2.8-7.8 4.4-2.6 1.2-5 2.6-7.7 2.4Z" fill="#1E0E25"/>
    <path d="M727.3 269.2v-2c.7.2 1.1.6 1.6 1.3 1.6 2.6.2 4.7-1.6 6.4.2-1.9.2-3.8 0-5.7Z" fill="#41751C"/>
    <path d="M648.4 280c-1.6-.4-3.5-.4-5.4-.6-2.8-.3-4.7-3.6-3.3-6 1.4-2.5 5-2.8 7.8-2.5 2.8.2 5.4 1.4 7.8 2.6.2 1.6.4 3 .9 4.7l1.4 6c-3-1.3-6.1-3-9.2-4.1Z" fill="#41751C"/>
    <path d="M680 427c-1-6.3-1-12.9-2-19.2-.9-6.6-1.3-13.2-1.6-19.8-1.1-30.8-3-61.8-3.5-92.7-.2-14.3 0-28.9-.5-43.2-.2-8.5 0-17.2-1.8-25.4-.5 0-1 0-1-.5-.2-.7-.5-1.4 0-2.1.2-.5 1.2-.7 1.7-.3l1.1 1.2c2 4.2 2.4 9 3 13.7.3 3 .8 6 1 9.4 2.4 33.4 5.2 66.5 7.6 100 3.3-19.6 8.9-38.6 13.6-58 2.8-10.7 5.2-21.8 8.7-32.6 2.6-7.3 5.9-14.4 9.2-21.4 4-8.7 14.1-1 7.5 4.2-3 6.1-6.3 12.2-8.7 18.8-2.8 7.8-4.5 15.8-6.3 23.5-4.3 18.2-9.2 35.8-13.2 54-4 18.7-5.7 37.8-5.9 57V410c0 5.7.5 11.3-.2 17-1.2 4.2-7.3 4.6-8.7.2Z" fill="#41751C"/>
    <path d="M678.3 362.4a706.6 706.6 0 0 0-19.7-88.5c-3.8-13.4-9.5-26-12.8-39.5.3-2 2.9-3 4.3-1.4 1.2 1.4 3.7 2.6 2.1 4.7a334.9 334.9 0 0 1 25.6 71.3 220 220 0 0 1 6.6 52.7c.3 3.7-5.4 4.5-6 .7Z" fill="#41751C"/>
    <path d="M675.5 317.7c0-1.2.7-2.1 1.9-2.1s2.1.7 2.1 1.9c0 1.1-.7 2-1.9 2-1 0-2.1-.6-2.1-1.8Z" fill="#41751C"/>
    <path d="M671.3 294c-1.7-1-1.2-3.1-1.2-4.5-.3-1.2-.3-2.1-.3-3.3 0-2.1 2.9-2.4 3.3-.3 2.9.5 2 3.1 2.4 5.2.5 2.4-2.4 4.2-4.2 2.8Z" fill="#41751C"/>
    <path d="M671.5 292c-2.6-1.4-2.4-8.4-1.2-10.8.3-5 8-4.7 7.5.5-.4 2.4.8 5.7-1.6 7.3-.2 2.3-2.4 4.5-4.7 3Z" fill="#41751C"/>
    <path d="M673.4 325.5c-1-.7-1.4-1.7-1.7-2.9l-.7-12c-.4-6.8-.2-13.4-.2-20.2 0-2.3 0-4.7.5-6.8.2-1 1.6-1.2 2-.2.3.2.3.4.3.9.2 1 1.4 2.1.2 3 1 8 1.7 16 3.1 23.8L679 322c1 3-3 5.4-5.6 3.6Z" fill="#41751C"/>
    <path d="M683.5 410c-3.3-3.9-.5-10.7-.2-15.4a96 96 0 0 1 15-38.6c2.8-3.3 4.5-8.4 8.5-10 9.4.4 1 9.6-1.4 13.3a99.2 99.2 0 0 0-19 46.6c1.1 1.9-.8 5.2-2.9 4Z" fill="#41751C"/>
    <path d="M645.9 217.3c-1.7-.5-3.1-2-4.3-3.3a15.1 15.1 0 0 1-4-8.3c-1.9-6-1.2-13 1.2-19 1.2-2 1.6-4 3-5.7 1.2-1.2 2.9-4 4.8-2.8 4.2 3.5 6.8 5 8.4 10.4 2.9 6.8 2.6 17.1-1.9 23-1.1 2.6-4 8.7-7.2 5.7Zm-.5-2.6c.2-.7.7-1.2 1.4-1.4.7-.5 1.2-1 1.6-1.7 1-1.6 2.2-3 2.9-4.7.7-1.9 1.1-4 1.6-5.9.7-4.7-.7-9.2-2.3-13.6-1-2.4-3.1-4-4.7-5.9-1.5 1.4-2.2 3-2.9 4.7a27 27 0 0 0-.7 23.3c.5 1.9 1.7 3.5 3 5.2Z" fill="#fff"/>
    <path d="M645.1 215.4c-2.5-1-2.5-4-3.7-6.1-1.4-4-2.1-8.3-1.7-12.5.5-3 1-6.1 2-9-.3-1.4.6-2.5 1-3.7.8-1.2 1.3-3 2.7-3.3 1.4-.2 2.8 1 2.8 2.3.2 0 .7 0 1 .3 1.4.4 2.3 2 2 3.5 4.3 5.4 4 13.2 2 19.5-.8 1.7-1 3.8-2.6 4.7-.5 2.6-2.6 5.4-5.5 4.3Z" fill="#fff"/>
    <path d="M663 226.4a25.5 25.5 0 0 1-17-8.2c-1.3-1.4-.2-4 1.7-4 .5-1.9 2.6-2.4 4.3-3 1.8-1.2 3.7-2.7 5.8-3.6 2.6-1 5.2-1.4 7.8-1.6 5.9-.5 9.9 0 15.3 2.5 1.4.8 5.2 1.7 5 3.6 0 .4-.3.7-.8 1-1.4 1.8-2.3 4.2-4 5.6a23.6 23.6 0 0 1-18 7.7Zm1.4-4.4c2.9 0 5.4-1 8-2.2a35.7 35.7 0 0 1-15.7 1.2c2.6 1 5.1 1 7.7 1Z" fill="#fff"/>
    <path d="M657.4 223.8c-2.1-.2-4.7-.7-6.1-2.6-2.4-2.3-.7-6.5 2.5-6.8-.9 0-1.8 0-2.5.5 0 .2-.3.2-.5.2-1.2 0-.5-1.4-.2-2a12 12 0 0 1 8-6c3.2-1 6.5-1.1 9.8-1.1 4.3 0 8.3.7 12 2.5l3.6 1.5c1.6.9 1.4 3.3 0 4.4-1.7 1.4-3 2.9-5 3.8a22.6 22.6 0 0 1-6.3 3 29.7 29.7 0 0 1-15.3 2.6c-.3 0 0 0 0 0Zm9-8.4c3.4-.7 7.2-1 10.5-2.4-3-.2-5.9-1-8.7-1.4-2.8-.2-5.4 0-8.2 1-2 .4-3.8 1.8-6 1.8 1.3 0 2.2.7 3.4 1 2.8.7 5.9.4 9 0Z" fill="#fff"/>
    <path d="M664.2 251.1c-3.3-.7-6.1-2-8.7-4-3-1.9-5.2-4.4-7-7.3-2.4-4-3.6-8.4-4.5-13-.7-3.2-.5-6.5.4-9.8.3-2.1 2.4-3.7 4.5-2.8 1.9.7 2.4 2.8 2.6 4.7 2.3-.2 3.3 1.6 4.5 3.3 5.1 3.8 8.4 9.6 10 15.8.8 3.2.8 6.5.6 9.8 0 1.4.2 3.8-2.4 3.3Z" fill="#fff"/>
    <path d="M653.1 238.4c-.2 0-.4 0-.4-.2-.3 0-.3-.5 0-.5 0-.7 1-1 1.1-.2 0 .7 0 1.2-.7 1Z" fill="#fff"/>
    <path d="M623.5 243.8c-2.4-1.4-1.4-4.7-1.6-7-.3-6 1.6-12 5.8-16.3a17 17 0 0 1 6.9-4.7c3.7-1.4 7.7-2.3 11.7-1.4 1.7.5 2.6 2.6 1.2 3.8a19 19 0 0 1 .7 9c-.5 1.8-1 4-1.9 5.8a17 17 0 0 1-7.3 6.8c-4 2-8.2 3-12.7 3.8-.7.2-1.6 1-2.8.2Z" fill="#fff"/>
    <path d="M634 221.3c-4.4-.3-8.9-2-12-5.5a22.2 22.2 0 0 1-6.5-12.7c-.2-1.1 0-2 0-3.3-.5-1.4.2-3 1.9-3.2 1.9 0 3.5.2 5.4.7 2.8.4 5.6.9 8.2 2a28 28 0 0 1 12 10.9c1.7 2.1 4 9.2 0 9.6a6.2 6.2 0 0 1-4 1.2c-1.9 0-3.5.5-5 .3Z" fill="#fff"/>
    <path d="M633 222.4a32.1 32.1 0 0 1-16.8-12.2c-2.8-3.8-5-10.1.2-13.2 4.5-2.3 9.7-1.6 14.4-.2 3 1 5.9 2.3 7.5 5.2l1.2 1.8c.2.5.7 1.2.5 2 0 .4-.3.6-.7.9-.7.2-1.2-.3-1.7-.5s-1-.2-1.2-.7c-4-2.6-12.4-5-16.9-2.8.2 5.1 9.4 11 13.9 12.7 6.1-2 7 8.2-.5 7Z" fill="#fff"/>
    <path d="M633.4 222.7c-2.6-1-5-2.6-7-4.3-3.1-2-6-4.4-8.5-7-2.6-3.3-5.7-7.3-5-11.8.5-2.1 2.1-4 4.2-4.5 2.2-.7 4.5-.4 6.9-.4 3.3.2 6.6 1.4 9.4 3 1.6 1 3.3 2.1 4.7 3.3.7.7 1.6 1.4 1.9 2.4.7 1.1.4 3-1 3.7-1.1.5-2-1.1-1.1-1.8-1.5-.8-2.9-1.2-4.3-2-1.4-.6-2.8-1.3-4.5-1.8-1.4-.5-2.8-.7-4.2-1-1.9 0-3.8 0-5.6.5 2.3 7 11 13 17.8 15.5 5.2 2.6 1 9.5-3.7 6.2Z" fill="#fff"/>
    <path d="M623.5 245.2a7.6 7.6 0 0 1-4-5.8 14 14 0 0 1 .7-8.3c1.2-2.6 2.8-4.7 4.5-7 1.4-2 2.8-4.3 5.2-5 1.6-.4 5.1-1.6 5.4 1 0 .2-.3.7 0 1 .2 1-1.4 1.8-2.2.9-.7.4-1.4 1.4-1.6 2-1.2 2.9-2.8 5.5-4.2 8-1 2.2-1 4.5-.7 6.9.4 1.6 2.5 1 3.7.7 5.4-1.6 12.3-5.4 15-10.6-.9-5.2 6.4-7 7.8-1.9 1 4-2 7.3-4.4 10.1-1.7 1.7-3.6 2.9-5.2 4-5.4 3.8-13.6 7.6-20 4Z" fill="#fff"/>
    <path d="M647.3 217.3c-1.4-.3-2.4-1.5-2.9-2.6-.7-1.7.3-3.6 1-5.2l1.4-4c1.4-4 1.6-8.7 1.9-12.7 0-4-.7-7.5-4-10.4-1.7 2.4-2.4 5.4-3 8.3l-.8 5.4c0 2.8.2 5.9 1.2 8.7 1.9 1.6-.7 3.5-2.4 2.1a14.6 14.6 0 0 1-5-10.8c.3-5.7 2-16.3 7-19.8 5-3 11.2 2.4 13 7.3a44 44 0 0 1 .8 21.4c-1.6 4-2.6 13.4-8.2 12.3Z" fill="#fff"/>
    <path d="M654.6 226.2a9 9 0 0 1-4-1.9c-2.2-1.9-1.5-5.6 1.1-6.8 1.2-.5 2.6-.2 3.8.2l3.8.7c5.8.7 12.2 1 17.6-1.6 1-.7 2.4-1 2.8-2.1-1-1.2-2.6-1.4-4-2-3.7-1-8-1.3-12-1-1.9.1-3.5.6-5.4.8-2.1.3-4.2.3-6.3.3-1.2 0-1.2-1.4-.7-2.4 1.6-3.7 8.2-5.9 12.2-6.6 4.2-.7 9-.7 13.2.5 3.5 1 7.3 2.1 9.6 5 1.4 1.8 2.6 4.2 1.9 6.8a11 11 0 0 1-5.6 7.3c-8.3 5.1-18.9 5-28 2.8Z" fill="#fff"/>
    <path d="M661.1 256.8a34 34 0 0 1-10-12.3c-2.2-4.2-4-8.9-4.3-13.6-.2-3 1.4-6.6 5-5.9 1.8.2 3.5 2.1 3.5 4 0 1-.3 1.9-.3 3a38 38 0 0 0 9.2 18.9c1.4-6.6-3.3-19-7-24.5l-.3-.2c-.7 0-.7-1-.2-1.2 1.6-.7 4 1 5.4 1.9 6.1 4.7 8.7 13 9.2 20.5.2 3 0 6.3-2 8.7a6.7 6.7 0 0 1-8.2.7Z" fill="#fff"/>
    <path d="M652.4 231.4c-1.4-1.4-2.5-3-3.7-4.7-.5 3.5-5.2 4.7-6.8 1.4-1.2-3.3 0-6.8.2-10.1-1.9-1.5-8.7-3.8-7-6.4.4-.7 1.1-1 1.8-1s1.7 1 2.4 1l3 1.4c-.7-3-1.6-6.3-1.2-9.6 1-2.4 4-1.7 4.8.4 1.4 3.3 1.8 6.9 2.5 10.4 2.6-.7 5.5-1.2 8.3-1.2 1.4.3 2.6-.5 4-.5 2.3.3 3.3 3.3 1.6 4.8-3.3 1.8-7.3 2-11 2.3 2.3 2.4 4.2 5.2 6 7.8 1.3 2.6-2.3 5.8-4.9 4Z" fill="#FEBC3F"/>
    <path d="M694.8 221.7c-1.2-1.2-1.7-3-2.1-4.7-1-3-.5-6.1.2-9.2a28 28 0 0 1 9.9-16.2c1.9-1.2 3.3-2.8 5.4-3.5 1.6-.5 4.5-2.4 5.6-.3 2.2 5.2 3.8 7.3 2.9 13.2-.5 7.3-5.7 16.5-12.3 19.8-2.6 1.2-8 5.2-9.6 1Zm1-2.6a1751.3 1751.3 0 0 0 4-1.4 82 82 0 0 0 4.6-2.8c1.7-1.4 2.9-2.8 4.3-4.5 2.8-3.7 3.7-8.4 4.2-13.1.2-2.6-1-5-1.6-7.3-2 .7-3.3 1.6-4.8 2.8-4.2 2.8-7.5 7-9.4 12-.9 2.8-1.6 5.6-2 8.5-.3 1.8.2 4 .6 5.8Z" fill="#fff"/>
    <path d="M695 219.8c-1.9-2-.4-4.7-.7-7 .5-4.3 2.1-8.3 4.3-12 1.8-2.4 3.5-5 5.8-7 .5-1.2 1.7-2 2.6-2.9 1.2-1 2.4-2.1 3.8-1.9 1.4.5 2.1 2.1 1.4 3.3.2.3.5.3.7.5 1 1.2 1.2 2.8.2 4.2 1.4 6.6-2.6 13.7-7.3 18.1-1.4 1.2-2.5 2.9-4.4 2.9-1 2.8-4.3 4.2-6.4 1.8Z" fill="#fff"/>
    <path d="M705.8 238c-2.8-1.7-5.1-4-7.3-6.6-1.8-2.6-2.8-5.7-4.2-8.5-.7-1.9 1.7-3.5 3.3-2.8 1.4-1.4 3.3-1 5-1 2-.2 4.4-.4 6.8-.4 2.6.2 5.1 1.1 7.7 2 5.4 2.4 9 4.5 12.5 9.3 1 1.1 3.8 3.7 2.6 5.4l-1 .7c-2 1.1-4 2.6-6 3.3a23 23 0 0 1-19.4-1.4Zm3.6-3.6a20 20 0 0 0 8.2 2 36.4 36.4 0 0 1-14.6-6.2c1.7 1.9 4 3.3 6.4 4.2Z" fill="#fff"/>
    <path d="M702 233a9.7 9.7 0 0 1-4.4-5.2c-1-3 2.4-6 5.4-4.9-.7-.5-1.6-.7-2.6-1-.2.3-.4.3-.4 0-1-.4.2-1.6.7-1.8 2.8-2.1 6.3-2.6 9.6-1.7 3.3.7 6.4 2 9.2 3.3 3.8 1.9 7 4.5 9.6 7.8 1 1 1.7 1.9 2.4 2.8 1 1.7-.2 3.5-2.1 3.8-2.1.4-4 1.1-6.1 1.1-2.4.3-4.7 0-7.1-.2-5 0-10.1-1.2-14.1-4Zm11.8-3.5c3.6 1.2 6.9 2.6 10.6 2.8-2.6-1.6-4.7-3.5-7-5.2a22 22 0 0 0-7.8-2.8c-2.1-.5-4.2 0-6.1-1 1.2.5 1.6 1.7 2.6 2.4 2.1 1.7 5 2.8 7.7 3.8Z" fill="#fff"/>
    <path d="M695.7 260.5a22.6 22.6 0 0 1-5.9-7.5c-1.8-3-2.5-6.3-2.8-9.9a43 43 0 0 1 1.9-13.4c1-3.3 2.6-6.1 5-8.7a3.6 3.6 0 0 1 5.4-.5c1.4 1.5.9 3.8.2 5.5 2.1.7 2.3 3 2.3 4.9a28 28 0 0 1-2 27.5c-1 1.4-2 3.5-4 2.1Z" fill="#fff"/>
    <path d="m691.7 244-.4-.4c-.3-.2 0-.5.2-.5.2-.7 1.2-.2 1.2.5 0 .5-.5 1-1 .5Z" fill="#fff"/>
    <path d="M663 235.4c-1.4-2.4 1-4.7 1.7-7 2.3-5.5 7-10 12.7-11.9 2.6-1.1 5.4-1.6 8.2-.9 4 .5 8 1.4 11 4 1.2 1.2 1.2 3.5-.6 3.8-.5 3-1.7 5.8-3.3 8.2-1.4 1.4-2.9 3-4.3 4.2a19.3 19.3 0 0 1-9.6 2.9c-4.5-.3-8.7-1-13-2.4-1.1 0-2.3 0-2.8-1Z" fill="#fff"/>
    <path d="M682.6 220c-3.8-2-7.1-5.8-8-10.3a23 23 0 0 1 0-14.3c.4-1.2.9-2.1 1.4-3 .2-1.5 1.6-2.7 3-2.2 1.7.7 3 1.9 4.5 3 2.3 1.7 4.5 3.6 6.3 5.7 3.8 4.2 5.2 9.6 5.7 15 .5 2.6-.7 10.2-4.5 8.5-1.4.3-2.8-.2-4.2-.7-1.4-.4-2.8-1-4.2-1.6Z" fill="#fff"/>
    <path d="M681 220.5c-5.3-4.4-8.3-12-9.3-18.3-.7-4.7.5-11.3 6.1-11.5 5-.3 9.5 3 13 6.3 2.3 2.1 4 5 4.2 8 .3.7 0 1.4 0 2.1 0 .7 0 1.4-.2 2-.2.2-.7.4-1.2.4-.7-.2-.7-.7-1.2-1.2-.2-.2-.7-.7-.7-1.2-2.3-4.2-8.7-10-13.9-10.3-2 4.7 3.3 14.1 6.6 17.6 6.6 1.2 2.9 10.6-3.5 6.1Z" fill="#fff"/>
    <path d="M681.1 221c-1.8-2.1-3-4.5-4.4-7-1.7-3.3-3.3-6.6-4.3-10.2-.7-4-1.6-8.9 1-12.7a5.6 5.6 0 0 1 5.9-2c2.3.4 4.2 1.6 6 2.7 2.9 2 5.3 4.3 6.9 7.1 1 1.7 1.9 3.3 2.6 5.2.5 1 .7 1.9.7 2.8 0 1.4-1 3-2.6 2.8-1.4 0-1.4-2-.2-2.3l-3-3.8-3.1-3.8c-1.2-.9-2.2-2-3.3-2.8-1.7-.7-3.3-1.6-5.2-2-1.2 7.2 4 16.6 8.7 21.8 4 5.2-2.6 9.2-5.7 4.2Z" fill="#fff"/>
    <path d="M662.3 236.5a7.5 7.5 0 0 1-.7-7c1-2.6 2.1-5.2 4.5-7a43 43 0 0 1 7-4.3c2.2-1 4.5-2.6 7.1-2.1 1.6.2 5.2 1 4.5 3.3-.3.2-.5.4-.5.7-.5 1.2-2.1 1-2.4-.3-.9 0-1.8.5-2.5 1.2-2.4 1.9-5 3.5-7.6 5.2a13.3 13.3 0 0 0-3.7 5.6c-.5 1.7 1.8 2.2 3 2.4 5.7 1.2 13.4.7 18.1-2.6 1.5-5.2 9-3.3 7.8 1.9-1 4-5.2 5.6-8.7 7-2.1.7-4.2 1-6.6 1.2-6.3 1.2-15.3 1-19.3-5.2Z" fill="#fff"/>
    <path d="M696.2 222.7c-1-1-1.4-2.4-1.2-3.6.3-1.8 1.9-3 3-4.2a37 37 0 0 0 10.4-13.4c2-3.8 2.9-7 1.2-11-2.6 1.3-4.5 3.7-6.3 5.8-1.2 1.7-2.2 3-3.1 4.5a34.7 34.7 0 0 0-3 8.2c.9 2.4-2.4 2.8-3.1.7-1.9-3.7-1.2-8.2.7-12 2.8-5 9.2-13.6 15-14.3 6.2-.5 9 7.3 8.3 12.4-1 6.6-4.7 14.2-9.2 19.3-3 2.9-8.5 11-12.7 7.6Z" fill="#fff"/>
    <path d="M698.6 233.7a7.7 7.7 0 0 1-2.6-3.5c-1-2.6 1.4-5.9 4.2-5.4 1.4 0 2.3 1 3.3 1.9l2.8 2.3c5 3.3 10.4 6.6 16.5 6.6 1.2 0 2.6.2 3.5-.7-.2-1.4-1.6-2.4-2.6-3.5a37.5 37.5 0 0 0-10-6.6c-1.7-.7-3.6-1.2-5.3-1.7-1.9-.7-4-1.6-5.9-2.8-.9-.5-.4-1.9.5-2.3 3.3-2.6 10.1-1.5 13.9-.3 4.2 1.4 8.2 3.3 11.3 6.4 2.6 2.3 5.4 5.1 6.1 9 .5 2.3.2 4.9-1.4 6.7-2.1 2.4-5.2 4-8.2 4-9.7 1-18.9-4-26.1-10Z" fill="#fff"/>
    <path d="M690.3 263.8a31.8 31.8 0 0 1-3.3-15.5c0-4.7.5-9.6 2.6-14.1 1.2-2.8 4.2-5.2 7-3a4 4 0 0 1 1.2 5.1c-.4 1-1.1 1.7-1.6 2.6-1.2 3-1.4 6.3-1.6 9.6 0 3.8 0 7.8 1.4 11.6 4.2-5.4 5.8-18.4 5-25v-.4c-.8-.3-.3-1.2.4-1.2 1.9 0 3 2.8 4 4.2 3.3 7 1.6 15.5-1.2 22.6-1.2 2.6-3 5.4-5.6 6.8-3.3 1-6.9-.5-8.3-3.3Z" fill="#fff"/>
    <path d="M694.3 237.2c-.7-1.8-1-3.7-1.2-5.8-2 2.8-6.5 1.8-6.5-2 .4-3.4 3.2-6 4.9-8.9-1-2-5.9-7.2-3.5-8.9.7-.5 1.4-.5 2 0 .8.5 1.3 1.7 1.7 1.9l2.1 2.6c.8-3 1.5-6.6 3.3-9 2-1.6 4.5.3 4 2.6-.2 3.6-1.6 6.8-2.3 10.4 2.6.4 5.4 1.4 7.8 2.8 1.1.7 2.5.7 3.7 1.4 2.1 1.2 1.4 4.5-.7 5-3.8.2-7.5-1.7-11-2.9.9 3 1.4 6.4 1.8 9.7 0 3-4.7 4-6 1.1Z" fill="#FEBC3F"/>
    <path d="M632.7 271.6c-1.4 1-3.3 1.2-5 1.4-3 .5-6-.5-8.7-1.6a28.6 28.6 0 0 1-14-12.3c-.8-1.9-2.2-3.7-2.7-5.9-.2-1.6-1.4-4.7.7-5.4 5.2-1.4 7.8-2.3 13.2-.4 7 1.8 14.8 8.2 17 15.3.9 2.3 4 8.2-.5 8.9Zm-2.4-1.2c-.4-.5-.4-1.2-.2-1.9 0-.7-.3-1.4-.3-2-.7-1.7-1.1-3.6-1.8-5.3a36.7 36.7 0 0 0-3.8-4.7c-3.3-3.3-7.5-4.9-12-6-2.3-.8-5 0-7.3.2a11 11 0 0 0 2.1 5.1c2.1 4.5 5.7 8.5 10 11 2.5 1.5 5 2.7 8 3.6 1.3.2 3.4 0 5.3 0Z" fill="#fff"/>
    <path d="M630.8 271.1c-2.4 1.4-4.7-.5-7-.5-4-1.1-7.8-3.2-10.9-6-1.9-2.2-4.2-4.3-5.9-6.9-1.1-.7-1.6-2.1-2.3-3-.7-1.2-1.7-2.6-1.2-4 .7-1.2 2.4-1.7 3.5-.8l.7-.7a3 3 0 0 1 4 .5c6.9-.2 12.7 4.7 16.3 10.1 1 1.4 2.3 3 2 5 2.7 1.4 3.4 4.7.8 6.3Z" fill="#fff"/>
    <path d="M650 263.6a26.1 26.1 0 0 1-7.4 5.9c-2.9 1.4-6 1.9-9 2.6-1.9.2-3.3-2.2-2.1-3.8-1.2-1.4-.5-3.3 0-5a20 20 0 0 1 4.2-13.6c3-4.7 6-7.7 11-10.3 1.5-.7 4.3-3 5.7-1.7.3.3.5.7.5 1.2.7 2.1 1.9 4.2 2.1 6.6a23 23 0 0 1-5 18Zm-2.5-3.8c1.6-2 2.3-5 3-7.5a33.5 33.5 0 0 1-8.4 13 17 17 0 0 0 5.4-5.5Z" fill="#fff"/>
    <path d="M644.7 266.6c-1.4 1.7-3.3 3.3-5.7 3.3-3.3.3-5.6-3.5-3.7-6-.5.6-1 1.3-1.2 2.3 0 .2.2.4 0 .4-.7 1-1.4-.4-1.7-1.1-1.4-3-1.4-6.6.3-9.7 1.2-3 2.8-5.9 5-8.4a30 30 0 0 1 9-8 15 15 0 0 1 3.4-2c1.9-.6 3.5 1 3.3 2.7.2 2 .4 4.2 0 6a22 22 0 0 1-1.4 7 31.8 31.8 0 0 1-7.3 13.5Zm-1.2-12c1.6-3.2 3.5-6 4.5-9.6-2 2.1-4.3 4-6.4 6.1a18.6 18.6 0 0 0-4 6.8c-.7 2-.7 4-1.9 5.7.7-1 2-1.2 2.6-2.1a29 29 0 0 0 5.2-6.8Z" fill="#fff"/>
    <path d="M670.3 277.2a22.6 22.6 0 0 1-8.5 4.5 24 24 0 0 1-10 1.2c-4.5-.5-8.8-2.1-12.8-4.3a21 21 0 0 1-7.5-6c-1.4-1.5-1.4-4 .5-5.2 1.6-1.2 3.7-.3 5.1.7 1.2-2 3.3-1.7 5.2-1.5a29 29 0 0 1 18.4 1.5c3 1.4 5.6 3.3 8 5.4 1.4 1 3.3 2 1.6 3.7Z" fill="#fff"/>
    <path d="M653.8 278.4c-.2 0-.2.2-.4.5-.3.2-.5 0-.5-.3-.7-.4 0-1.4.5-.9.4 0 .7.5.4.7Z" fill="#fff"/>
    <path d="M640.4 304.8c-2.5.9-4.4-1.7-6.3-2.9a22.1 22.1 0 0 1-9.2-14 14 14 0 0 1 .5-8.3 21 21 0 0 1 5.9-10.1c1.4-1 3.5-.5 3.5 1.4 2.8 1 5.4 2.6 7.5 4.7 1.2 1.6 2.6 3 3.3 5 1.4 3 1.4 6.3 1.2 9.6-1 4.2-2.6 8.2-4.5 12.2-.7 1-1 1.9-1.9 2.4Z" fill="#fff"/>
    <path d="M629 283.1a16.5 16.5 0 0 1-11.4 6.1c-4.7.3-9.6 0-13.9-2.3-1-.5-1.8-1.2-2.6-1.9-1.4-.5-2.3-2.1-1.6-3.3 1-1.4 2.4-2.6 3.8-3.8 2-1.8 4-3.7 6.3-5.1 4.7-2.9 10.4-3.3 15.5-2.9 2.6 0 9.7 2.4 7.6 6 0 1.3-.7 2.7-1.4 4-.7.9-1.5 2.3-2.4 3.2Z" fill="#fff"/>
    <path d="M629.1 284.8c-5.1 4.2-12.9 5.8-19.2 5.8-4.8-.2-10.9-2.3-10.2-8 .7-4.9 4.5-8.4 8.3-11.2 2.3-2 5.4-3.1 8.4-2.9l2.2.3c.7.2 1.4.2 1.8.7.3.2.5.7.3 1.1-.3.8-1 .8-1.4 1-.5.2-.7.7-1.2.5-4.5 1.6-11.3 6.8-12.2 11.5 4.2 2.8 14-.7 18.3-3.3 1.9-6.1 10.4-.7 5 4.5Z" fill="#fff"/>
    <path d="M629.6 284.8c-2.3 1.4-5 2.3-7.5 3-3.5 1-7 2.1-10.6 2.4-4 0-9 0-12-3a6.4 6.4 0 0 1-1.2-6.2c.7-2.1 2.4-3.8 3.8-5.4a21 21 0 0 1 8-5.4c1.6-.7 3.5-1.4 5.4-1.7 1-.2 1.9-.4 2.8-.2 1.4.2 2.8 1.4 2.4 3-.3 1.2-2.1 1.2-2.1-.2-1.5.7-2.9 1.4-4 2.1-1.5.7-2.9 1.4-4 2.4-1.2 1-2.4 1.6-3.3 2.8-1 1.4-2.2 3-2.9 4.7 6.9 2.4 16.7-1 22.9-4.7 4.9-2.8 7.7 4.2 2.3 6.4Z" fill="#fff"/>
    <path d="M641.4 305.7c-2.1 1-5 1-6.8-.5a15 15 0 0 1-6.2-5.4c-1.4-2.3-2-5-2.8-7.5-.7-2.4-1.6-4.7-1-7 .8-1.5 2-5 4-3.8l.8.7c1.2.4.7 2.3-.5 2.3 0 1 .2 2 .7 2.6 1.4 2.6 2.4 5.4 3.8 8a15 15 0 0 0 5 4.5c1.3.7 2.3-1.4 2.7-2.6 2-5.2 3.1-12.7.7-17.9-4.7-2.3-1.6-9.2 3.3-7.3 3.8 1.7 4.5 6.1 5.2 9.7.3 2 .3 4.2 0 6.6-.5 6-2.3 14.5-9 17.6Z" fill="#fff"/>
    <path d="M633.6 270.6c-1 1-2.3 1.2-3.8.8-1.6-.5-2.5-2.4-3.5-3.8A40.3 40.3 0 0 0 615 255c-3.3-2.3-6.3-4-10.3-3 1 2.8 2.8 5 4.7 7.3l3.7 3.7c2.4 1.7 5 3.3 7.6 4.3 2.3-.5 2.3 2.8.2 3-4 1.2-8.2-.2-11.5-2.6-4.5-3.5-11.5-11-11.3-17.1.7-6 8.5-7.3 13.4-6 6.4 2.2 13 7.1 17 12.3 2.5 3.3 9.3 9.9 5.1 13.6Z" fill="#fff"/>
    <path d="M645 270.2a8.2 8.2 0 0 1-3.9 1.9c-2.8.4-5.4-2.4-4.7-5 .3-1.4 1.2-2.1 2.4-2.8 1-.7 1.9-1.6 2.8-2.4 4-4.2 8-8.9 9.2-14.8 0-1.2.7-2.3 0-3.5-1.4 0-2.6 1.2-3.8 2.1a35.3 35.3 0 0 0-8 8.7c-1 1.4-1.6 3.3-2.6 4.7-1.1 1.7-2.3 3.6-3.5 5.2-.7 1-1.9 0-2.1-.7-1.9-3.5.2-9.9 2.1-13.4 2.1-3.8 4.7-7.3 8.2-9.9 2.9-2.1 6-4.5 9.7-4.5 2.3 0 5 .7 6.3 2.6 2 2.4 2.9 5.7 2.4 8.7-1.2 9-7.5 17-14.6 23Z" fill="#fff"/>
    <path d="M672.7 283.1a38.5 38.5 0 0 1-28.7-4c-2.4-1.6-4.3-5-2-7.3 1.5-1.4 3.6-1.4 5.3-.2l2 2.1c2.9 1.7 6 2.6 9 3.3 3.8.7 7.5 1.4 11.3.7-4.5-5-17-8.7-23.3-9h-.5c-.4.5-1.1 0-1.1-.4.2-1.9 3-2.6 4.7-3 7.3-2.2 15.3.9 21.4 4.9 2.3 1.6 5 3.7 5.6 6.6 1.2 2.3-1 5.4-3.7 6.3Z" fill="#fff"/>
    <path d="M647.7 274.6c-1.9.5-4 .3-5.9.3 2.4 2.6.8 6.8-3 6.1-3.3-1-5.2-4.2-7.8-6.1-2 .5-8 4.5-9.4 1.9-.2-.7-.2-1.4.3-2.2.4-.4 1.6-.9 2-1.1l2.9-1.7c-2.8-1.2-6.1-2.3-8.2-5-1.5-2 .9-4.2 3.3-3.2 3.2 1 6.3 2.6 9.6 4 1-2.6 2.1-5 4-7 1-1 1.2-2.4 2.1-3.4 1.4-1.6 4.7-.7 4.7 1.7-.4 3.8-2.8 7-4.7 10.1 3.3-.5 6.4-.2 9.7-.2 3 .4 3.3 5.1.4 5.8Z" fill="#FEBC3F"/>
    <path d="M710 354.6a8.7 8.7 0 0 1-4.4 2.6 16.5 16.5 0 0 1-9 1 27 27 0 0 1-16.9-7.3c-1.4-1.7-3-2.9-4-4.7-.7-1.5-2.6-3.8-1-5.2 4.8-2.8 7-4.5 12.6-4.3 7-.4 16.4 3.3 20.4 9.2 2 2.1 6.4 6.6 2.4 8.7Zm-2.5-.4c-.5-.5-.7-1-1-1.7-.2-.7-.4-1.4-.9-1.9l-3.3-4.2c-1.4-1.2-3-2.4-5-3.3a28 28 0 0 0-13.1-2.4c-2.6.3-4.7 1.5-7 2.4a25.9 25.9 0 0 0 15.8 11.5c2.7.5 5.6 1 8.4 1 2.3-.3 4.2-1 6-1.4Z" fill="#fff"/>
    <path d="M708.2 354.6c-1.9 2-4.7 1-6.8 1.4-4.3 0-8.3-.9-12-2.6-2.6-1.4-5.2-2.8-7.6-4.7-1.1-.2-2-1.4-3-2-1-1-2.4-2-2.1-3.4.2-1.4 1.9-2.3 3-1.6.3-.2.3-.5.5-.7 1-1.2 2.8-1.4 4-.7 6.4-2.1 13.4.7 18.4 4.4 1.1 1.2 3 2.2 3.2 4 2.6.8 4.3 3.6 2.4 6Z" fill="#fff"/>
    <path d="M724.7 342.2a29.8 29.8 0 0 1-5.7 7.7c-2.3 2.1-5.2 3.6-7.7 5-1.7.7-3.8-1-3.1-2.9-1.6-.9-1.2-3-1.4-4.7-.5-2-1-4.2-1.2-6.3 0-2.6.5-5.2 1.4-7.5 1.7-5.5 3.6-9 7.8-13 1.2-1.2 3.3-4 5-3 .4.2.4.4.6.9 1.4 1.9 3 3.3 3.8 5.4 2.6 5.9 3.3 12.5.5 18.4Zm-3.8-2.9c1-2.6 1-5.1 1-8-.5 5-1.7 10.2-4.5 14.4 1.6-1.7 2.8-4 3.5-6.4Z" fill="#fff"/>
    <path d="M720.2 346.4c-1 1.9-2.4 4-4.5 4.7-3 1.2-6.3-1.6-5.2-4.5-.2.7-.4 1.7-.4 2.4.2 0 .2.2.2.5-.5.9-1.4 0-1.9-.5-2.3-2.4-3-5.7-2.6-9a33 33 0 0 1 11.6-21.6c1.6-1.2 3.5-.2 4 1.4.7 1.9 1.6 3.8 1.6 5.7.5 2 .5 4.4.7 6.5a35.8 35.8 0 0 1-3.5 14.4c0 .2 0 0 0 0Zm-4.7-10.6c.7-3.5 1.6-6.8 1.6-10.3-1.4 2.5-3 4.9-4.2 7.3-1.2 2.3-1.9 4.9-2.1 7.5-.3 1.9.5 4-.3 5.9.3-1.2 1.5-1.7 2.2-2.6 1.4-2.4 2.3-5.2 2.8-7.8Z" fill="#fff"/>
    <path d="M747.5 349a26 26 0 0 1-6.8 6.6 21.5 21.5 0 0 1-9.2 4c-4.5 1-9 .4-13.2-.3a21 21 0 0 1-9-3.5c-1.8-1-2.5-3.3-.9-5 1.2-1.3 3.6-1.1 5.2-.9.5-2 2.6-2.6 4.5-2.8a28.4 28.4 0 0 1 17.9-4c3.3.5 6.3 1.4 9.1 2.8 1.4.3 3.6 1 2.4 3Z" fill="#fff"/>
    <path d="M732 354.6c0 .3-.3.3-.3.5-.2.2-.4 0-.4-.2-.8-.3-.5-1.2.2-1.2.5.2 1 .7.5 1Z" fill="#fff"/>
    <path d="M726.5 382.9c-2 1.6-4.7-.3-7-.8a20.8 20.8 0 0 1-12.7-10.3c-1.4-2.4-2.1-5-1.9-7.8 0-3.7.7-7.7 2.8-11 1-1.2 3.3-1.4 3.8.2 2.8 0 5.9.7 8.5 2.1 1.6 1.2 3.3 2.1 4.7 3.6a17 17 0 0 1 3.7 8.7 44 44 0 0 1-1 12.4c-.1 1.2 0 2.1-.9 2.9Z" fill="#fff"/>
    <path d="M709.6 366.4c-1.6 4-5 7.5-9.2 9a25.7 25.7 0 0 1-13.8 1.8c-1.2-.2-2.2-.7-3.1-1-1.4 0-2.8-1.1-2.4-2.5.5-1.7 1.5-3 2.4-4.7 1.4-2.4 2.8-4.7 4.7-6.6 3.8-4 9-6.1 14.1-7 2.4-.8 9.9-.5 8.7 3.2.3 1.4 0 2.8-.2 4-.2 1-.5 2.4-1.2 3.8Z" fill="#fff"/>
    <path d="M710.3 367.8a33 33 0 0 1-17 11c-4.4 1.2-11 1-12-4.4-.6-4.7 2.2-9.2 4.8-13 1.9-2.3 4.2-4.4 7.3-4.9.7-.2 1.4-.2 2-.2.8 0 1.5-.3 2 0 .4.2.7.4.4 1 0 .6-.7.9-.9 1-.2.3-.5.8-1 .8-3.7 2.8-8.9 9.4-8.4 14.3 5 1.5 13.4-4.9 16.5-8.4.4-6.1 9.8-3.6 6.3 2.8Z" fill="#fff"/>
    <path d="M710.8 367.6c-1.9 1.8-4 3.5-6.4 4.9-3 1.9-6 4-9.4 5.2-4 1.2-8.4 2.6-12.2.7-1.9-1.2-3-3-2.6-5.2a19 19 0 0 1 2.1-6.1c1.4-2.8 3.5-5.4 6.1-7.3 1.4-1.2 3.1-2.4 4.7-3 1-.5 1.7-1 2.9-1 1.4-.2 3 .5 3 2.1 0 1.2-1.9 1.7-2 .5-1.3 1-2.2 2.1-3.4 3.3-1.2 1.2-2.3 2.1-3.3 3.3l-2.3 3.5c-.5 1.7-1.2 3.3-1.4 5.2 7.2.2 15.7-5.7 20.4-11 3.6-4.3 8.3 1.3 3.8 4.9Z" fill="#fff"/>
    <path d="M728 383.3c-2 1.7-4.5 2.1-6.9 1.7-2.6-.5-5.4-1.4-7.3-3.3-1.8-1.9-3.3-4-4.7-6.4-1.1-1.9-2.8-4-2.8-6.3.3-1.7.5-5.2 2.8-4.7.3 0 .5.4 1 .4 1.2.3 1.2 2 0 2.4.2 1 .7 1.6 1.4 2.1 2.1 1.9 3.8 4.2 5.9 6.4 1.6 1.4 3.7 2 5.9 2.8 1.6.2 1.8-2.1 2-3 .5-5.5-.6-12.8-4.4-16.8-5.2-.7-4-8 1.2-7.5 4 .5 6.1 4.2 7.7 7.3 1 1.9 1.5 4 2 5.9.9 6 1.3 14.6-3.8 19Z" fill="#fff"/>
    <path d="M710.8 353.2c-.7 1.2-2.1 1.7-3.3 1.7-1.9 0-3-1.4-4.2-2.4-1-1-2.2-1.9-3.1-2.6-3-2.6-7.3-4.2-11-5.6-3.8-1.2-7.1-2-10.9.2 1.7 2.4 4 3.8 6.6 5.4 1.7 1 3 1.7 4.7 2.4 2.6 1 5.4 1.6 8.5 1.9 2.1-1.2 3 1.8 1.2 2.8-3.6 2.1-8 2.1-11.8 1-5.2-2-14.1-7.1-15.5-12.5-1-5.7 6-9.2 11-9.5 6.6 0 14.4 2.9 19.8 6.4 2.6 2.3 10.8 6.3 8 10.8Z" fill="#fff"/>
    <path d="M721.4 349.7a6 6 0 0 1-3 2.8c-2.7 1.2-5.7-.5-6-3.3 0-1.4.7-2.3 1.4-3.3l2.2-3a29 29 0 0 0 4.7-16.3c-.3-1.1 0-2.3-1-3.3-1.4.5-2 2-3 3.1-2.6 3-4 6.6-5.2 10.3-.5 1.7-.7 3.6-1.2 5.2-.7 2-1.2 3.8-2.1 5.9-.5 1-1.7.5-2.4 0-2.8-2.8-2.3-9.4-1.6-13 1-4 2.3-8.2 5.2-11.5 2-2.8 4.4-5.8 8-6.8 2-.7 5-1 6.8.5 2.3 1.6 4.2 4.2 4.7 7.3 1.4 8.4-2.6 17.6-7.5 25.4Z" fill="#fff"/>
    <path d="M751.5 353.4c-4.5 3.1-9.7 4.3-14.8 5.2-4.7.5-9.4.7-14-.7-2.7-.7-5.3-3.3-3.7-6.3 1-1.7 3-2.4 5-2 .9.3 1.6 1 2.5 1.3 3.1.7 6.4.7 9.5.4a36 36 0 0 0 11-2.6c-5.6-3.2-18.6-3.2-25-1.4 0 0-.2 0-.2.3-.2.7-1.1.2-1.1-.3-.3-1.6 2.3-3.3 3.5-4.2 6.6-4 14.8-3.5 21.9-1.6 2.8.9 5.6 2 7.3 4.4 1.6 2.6.4 5.9-2 7.6Z" fill="#fff"/>
    <path d="M725.1 353c-1.6 1-3.7 1.4-5.6 1.9 3 1.6 2.6 6-1.2 6.5-3.3 0-6.1-2.3-9.2-3.5-1.8 1.2-6.3 6.6-8.4 4.3-.5-.5-.5-1.5-.3-2 .3-.6 1.4-1.1 1.7-1.6l2.3-2.3c-3-.5-6.3-.5-9.1-2.1-2-1.7-.3-4.3 2-4 3.6-.3 6.9.7 10.4.9.3-2.6.7-5.2 2-7.8.6-1.1.4-2.6.9-3.7.9-2.1 4.2-2 4.9.2.7 3.5-.7 7.3-1.7 10.6 3.1-1.4 6.2-2.1 9.2-3 3.3-.3 4.7 4 2.1 5.6Z" fill="#FEBC3F"/>
    <path d="M741.6 198.7c-1-1.4-1.2-3.3-1.4-5-.5-3 .5-6 1.6-8.7a28.6 28.6 0 0 1 12.3-14c1.9-.8 3.7-2.2 5.9-2.7 1.6-.2 4.7-1.4 5.4.7 1.4 5.2 2.3 7.8.4 13.2-1.8 7-8.2 14.8-15.3 17-2.3.9-8.2 4-8.9-.5Zm1.2-2.4c.5-.5 1.2-.5 1.9-.2.7 0 1.4-.3 2-.3 1.7-.7 3.6-1.1 5.3-1.8 1.6-1.2 3.3-2.4 4.7-3.8 3.3-3.3 5-7.5 6-12 .8-2.3 0-5-.2-7.3a11 11 0 0 0-5.1 2.1 26.4 26.4 0 0 0-11 10 48.6 48.6 0 0 0-3.6 8v5.3Z" fill="#fff"/>
    <path d="M742 197c-1.3-2.3.5-4.7.5-7 1.2-4 3.3-7.8 6.2-10.9 2-1.8 4.2-4.2 6.8-5.8.7-1.2 2.1-1.7 3-2.4 1.2-.7 2.6-1.6 4-1.2 1.2.7 1.7 2.4.8 3.6l.7.7c.9 1.1.7 3-.5 4 .2 6.8-4.7 12.7-10.1 16.2-1.4 1-3 2.4-5 2.1-1.4 2.4-4.7 3-6.3.7Z" fill="#fff"/>
    <path d="M749.6 216a26.1 26.1 0 0 1-5.9-7.5c-1.4-2.8-1.9-5.8-2.6-8.9-.2-1.9 2.2-3.3 3.8-2.1 1.4-1.2 3.3-.5 5 0a20 20 0 0 1 13.6 4.2c4.7 3 7.8 6 10.3 11 .7 1.5 3.1 4.3 1.7 5.7-.2.3-.7.5-1.2.5-2.1.7-4.2 1.9-6.6 2.1a22 22 0 0 1-18-5Zm3.8-2.5c2 1.6 5 2.3 7.5 3a33.5 33.5 0 0 1-13-8.4 17 17 0 0 0 5.5 5.4Z" fill="#fff"/>
    <path d="M746.5 210.7c-1.6-1.4-3.2-3.3-3.2-5.7-.3-3.3 3.5-5.6 6-3.7-.6-.5-1.3-1-2.3-1.2-.2 0-.5.2-.5 0-.9-.7.5-1.4 1.2-1.7 3-1.4 6.6-1.4 9.7.3 3 1.1 5.9 2.8 8.4 5a30 30 0 0 1 8 9 15 15 0 0 1 2 3.4c.6 1.9-1 3.5-2.7 3.3-2 .2-4.2.4-6 0a22 22 0 0 1-7-1.4 33.2 33.2 0 0 1-13.6-7.3Zm12-1.2c3.3 1.6 6.2 3.5 9.7 4.5-2.1-2-4-4.3-6.1-6.4a18.6 18.6 0 0 0-6.8-4c-2-.7-4-.7-5.7-1.9 1 .7 1.2 2 2.1 2.6a29 29 0 0 0 6.8 5.2Z" fill="#fff"/>
    <path d="M736 236.3a22.6 22.6 0 0 1-4.5-8.5c-1.2-3-1.4-6.6-1.2-10 .5-4.5 2.1-8.8 4.2-12.8 1.5-3 3.6-5.4 6.2-7.5 1.4-1.4 4-1.4 5.1.5 1.2 1.6.3 3.7-.7 5.1 2 1.2 1.7 3.3 1.4 5.2a29 29 0 0 1-1.4 18.4c-1.4 3-3.3 5.6-5.4 8-1 1.4-2 3.3-3.7 1.6Z" fill="#fff"/>
    <path d="M734.8 219.8c0-.2-.3-.2-.5-.4-.2-.3 0-.5.2-.5.5-.7 1.5 0 1 .5 0 .4-.5 1-.7.4Z" fill="#fff"/>
    <path d="M708.4 206.4c-1-2.6 1.7-4.4 2.9-6.3 3.3-4.7 8.4-8.3 14-9.2a14 14 0 0 1 8.3.5 21 21 0 0 1 10.1 5.9c1 1.4.5 3.5-1.4 3.5-1 2.8-2.6 5.4-4.7 7.5-1.6 1.2-3 2.6-5 3.3-3 1.4-6.3 1.4-9.6 1.2-4.2-1-8.2-2.6-12.2-4.5-.7-.7-1.9-1-2.4-1.9Z" fill="#fff"/>
    <path d="M730 194.9a16.5 16.5 0 0 1-6-11.3c-.3-4.7 0-9.6 2.3-13.9.5-1 1.2-1.8 1.9-2.6.5-1.4 2.1-2.3 3.3-1.6 1.4 1 2.6 2.4 3.8 3.8 1.8 2 3.7 4 5.1 6.3 2.9 4.7 3.3 10.4 2.9 15.5 0 2.6-2.4 9.7-6 7.6-1.3 0-2.8-.7-4-1.4l-3.2-2.4Z" fill="#fff"/>
    <path d="M728.4 195.1c-4.2-5.1-5.8-12.9-5.8-19.3.2-4.7 2.3-10.8 8-10 4.9.6 8.4 4.4 11.2 8.2 2 2.3 3.1 5.4 2.9 8.4 0 .7-.3 1.4-.3 2.2-.2.7-.2 1.4-.7 1.8-.2.3-.7.5-1.2.3-.7-.3-.7-1-.9-1.4-.2-.5-.7-.7-.5-1.2-1.6-4.5-6.8-11.3-11.5-12.2-2.8 4.2.7 14 3.3 18.3 6.1 1.9.7 10.4-4.5 5Z" fill="#fff"/>
    <path d="M728.7 195.6c-1.4-2.3-2.4-5-3-7.5-1-3.5-2.2-7-2.4-10.6 0-4 0-9 3-12 1.7-1.4 4-1.9 6.1-1.2 2.1.7 3.8 2.4 5.4 3.8a21 21 0 0 1 5.5 8c.7 1.6 1.4 3.5 1.6 5.4.2 1 .5 1.9.2 2.8-.2 1.4-1.4 2.8-3 2.4-1.2-.3-1.2-2.1.2-2.1-.7-1.5-1.4-2.9-2.1-4-.7-1.5-1.4-2.9-2.4-4-.9-1.2-1.6-2.4-2.8-3.3-1.4-1-3-2.2-4.7-2.9-2.3 6.9 1 16.7 4.7 22.9 2.6 4.9-4.5 7.7-6.3 2.3Z" fill="#fff"/>
    <path d="M707.5 207.6c-1-2.1-1-5 .5-6.8a15 15 0 0 1 5.4-6.1c2.3-1.4 5-2.1 7.5-2.9 2.4-.7 4.7-1.6 7-.9 1.5.7 5 1.9 3.8 4l-.7.7c-.5 1.2-2.3.7-2.3-.5-1 0-2 .3-2.6.7-2.6 1.5-5.4 2.4-8 3.8a15 15 0 0 0-4.5 5c-.7 1.4 1.4 2.3 2.6 2.8 5.2 1.9 12.7 3 17.9.7 2.3-4.7 9.2-1.7 7.3 3.3-1.7 3.7-6.1 4.4-9.7 5.1-2 .3-4.2.3-6.3 0-6.4-.7-14.9-2.5-18-8.9Z" fill="#fff"/>
    <path d="M742.8 199.6c-1-1-1.2-2.3-.7-3.8.4-1.6 2.3-2.5 3.7-3.5a40.3 40.3 0 0 0 12.5-11.3c2.4-3.3 4-6.3 3-10.3-2.8 1-4.9 2.8-7.2 4.7l-3.8 3.7c-1.6 2.4-3.3 5-4.2 7.6.4 2.3-2.8 2.3-3 .2-1.3-4 .2-8.2 2.5-11.5 3.5-4.5 11-11.5 17.2-11.3 5.9.7 7.3 8.5 5.9 13.4-2.2 6.3-7.1 13-12.3 17-3.5 2.5-10 9.3-13.6 5.1Z" fill="#fff"/>
    <path d="M743 210.9a8.1 8.1 0 0 1-1.9-3.8c-.4-2.8 2.4-5.4 5-4.7 1.4.3 2.1 1.2 2.8 2.4.7 1 1.6 1.9 2.4 2.8 4.2 4 8.9 8 14.8 9.2 1.2 0 2.3.7 3.5 0 0-1.4-1.2-2.6-2.1-3.8a35.3 35.3 0 0 0-8.7-8c-1.4-1-3.3-1.6-4.7-2.6-1.7-1.1-3.6-2.3-5.2-3.5-1-.7 0-1.9.7-2.1 3.5-1.9 9.9.2 13.4 2.1 3.8 2.1 7.3 4.7 9.9 8.2 2.1 2.9 4.5 6 4.5 9.7 0 2.3-.7 5-2.6 6.3a11.5 11.5 0 0 1-8.7 2.4c-9-1-17-7.5-23-14.6Z" fill="#fff"/>
    <path d="M730 238.7a38.5 38.5 0 0 1 4-28.7c1.7-2.4 5-4.3 7.4-2 1.4 1.5 1.4 3.6.2 5.3l-2.1 2a31.6 31.6 0 0 0-3.3 9c-.7 3.8-1.4 7.5-.7 11.3 5-4.5 8.7-17 9-23.3v-.5c-.5-.4 0-1.1.4-1.1 1.9.2 2.6 3 3 4.7 2.2 7.3-.9 15.3-4.9 21.4-1.6 2.3-3.7 5-6.6 5.6-2.3 1.2-5.4-1-6.3-3.7Z" fill="#fff"/>
    <path d="M738.5 213.7c-.4-1.9-.2-4-.2-5.9-2.6 2.4-6.8.7-6.1-3 1-3.3 4.2-5.2 6.1-7.8-.5-2.1-4.5-8-1.9-9.4.7-.2 1.4-.2 2.1.2.5.5 1 1.7 1.2 2.2l1.7 2.8c1.1-2.8 2.3-6.1 5-8.2 2-1.5 4.1.9 3.2 3.2-1 3.3-2.6 6.4-4 9.7 2.6 1 5 2.1 7 4 1 1 2.4 1.2 3.4 2.1 1.6 1.4.7 4.7-1.7 4.7-3.8-.5-7-2.8-10.1-4.7.5 3.3.2 6.4.2 9.7-.4 3-5.1 3.2-5.9.4Z" fill="#FEBC3F"/>
    <path d="M721.1 261.7c.7-1.6 2.2-2.6 3.6-3.5 2.3-1.9 5.4-2.6 8.4-2.8 6.4-1 13 .4 18.4 3.5 1.6 1.2 3.8 2.1 5.2 3.8 1 1.4 3.5 3.2 2 4.9-4 3.8-5.6 5.9-11.2 7-7 2-17 .3-22.4-4.7-2-1.8-7.5-5.4-4-8.2Zm2.6-.2c.7.2 1 1 1.2 1.4l1.4 1.6 4.3 3.6c1.8.9 3.7 1.6 5.6 2.3 4.5 1.4 9.2.5 13.4-.5 2.4-.7 4.2-2.3 6.4-3.7a27.3 27.3 0 0 0-27-7.3c-2 .5-3.6 1.6-5.3 2.6Z" fill="#fff"/>
    <path d="M722.8 261.2c1.2-2.3 4.2-1.8 6.3-3 4-1 8.3-1 12.5 0 2.8 1 5.7 1.6 8.5 3 1.4 0 2.3 1 3.5 1.7 1.2.7 2.8 1.4 2.8 3 0 1.5-1.1 2.9-2.6 2.4l-.2 1a3.2 3.2 0 0 1-3.8 1.6c-5.6 3.5-13.4 2.1-19-.7-1.4-1-3.5-1.4-4.3-3.3-2.8-.5-5.1-3-3.7-5.7Z" fill="#fff"/>
    <path d="M709.8 277.2c.8-3.3 2-6 3.6-8.9 1.6-2.6 4.2-4.5 6.3-6.6 1.4-1.2 4 .2 3.8 2.1 1.9.7 1.9 2.8 2.3 4.5 1 1.9 2.2 4 2.6 6.1.7 2.6.7 5.2.5 7.8-.2 5.6-1.2 9.6-4.5 14.6-.7 1.4-2.3 4.7-4.2 4.2-.5-.2-.7-.5-1-.7-1.6-1.4-3.7-2.8-5.1-4.7-3.3-5.4-5.7-12-4.3-18.4Zm4.3 2c-.5 2.7.2 5.3 1 8.2-.8-5.2-.8-10.4.9-15.6a16 16 0 0 0-2 7.3Z" fill="#fff"/>
    <path d="M712.9 272c.5-2 1.4-4.4 3.3-5.6 2.6-1.9 6.6.3 6.3 3.5 0-.9.3-1.6 0-2.5-.2 0-.2-.3-.2-.5.2-1 1.4-.3 1.9 0 2.8 1.9 4.5 5.2 4.7 8.5a33.2 33.2 0 0 1-4 21.1c-.5 1.2-1.2 2.1-1.9 3.3-1.2 1.4-3.5 1-4.2-.7-1.2-1.6-2.4-3.3-3-5.4a21.6 21.6 0 0 1-2.2-6.6 30 30 0 0 1-.7-15Zm7.3 9.7c.2 3.5 0 7 1 10.6.6-2.8 1.8-5.4 2.3-8.5.5-2.6.7-5.4.2-8-.2-2-1.4-3.7-1.2-5.9 0 1.2-.9 2.2-1.4 3.1-.9 2.8-1.1 5.9-.9 8.7Z" fill="#fff"/>
    <path d="M685.6 275.4c1.2-3.1 2.8-5.7 5.2-8 2.1-2.6 5-4.5 8-6 4.2-1.8 8.7-2.3 13.2-2.5 3.3-.2 6.5.5 9.6 1.6 2.1.5 3.3 2.9 2.4 4.7-1 2-3.1 2.2-5 2.2 0 2.3-1.9 3-3.7 3.7-4.5 4.5-10.4 7-16.7 8-3.3.3-6.6 0-9.7-.7-1.6-.7-4-1-3.3-3Z" fill="#fff"/>
    <path d="M699.3 266.2c0-.3.2-.3.2-.5s.5-.2.5 0c.7 0 .7 1.2 0 1.2-.5 0-1-.3-.7-.7Z" fill="#fff"/>
    <path d="M697.8 236.5c1.7-2 4.8-.7 7.1-.7 5.7.5 11.3 3.3 15 7.8 2 2.1 3.4 4.5 3.8 7.3 1 3.8 1.4 8 0 11.8-.7 1.4-2.8 2-3.7.4a18.2 18.2 0 0 1-14.2-3c-2.8-2-4.4-5-5.6-8-1.4-4-1.9-8.5-2.1-12.7-.5-.7-1-2-.3-2.9Z" fill="#fff"/>
    <path d="M718.6 249.7c.7-4.2 3-8.5 6.8-10.8 4-2.6 8.4-5 13.1-5 1.2 0 2.2.3 3.3.5 1.5-.4 3.1.7 3.1 2.1-.2 2-.7 3.6-1.2 5.2a23.5 23.5 0 0 1-15.3 17.9c-2 1.4-9.4 2.6-9.4-1.4-.7-1.2-.7-2.8-.7-4.3 0-1.4 0-2.8.3-4.2Z" fill="#fff"/>
    <path d="M717.4 248.3a31 31 0 0 1 13.9-14.6c4-2.1 10.5-3.3 12.7 1.9 1.8 4.5.2 9.6-1.5 13.9-1.1 2.8-3 5.4-5.8 6.6-.7.4-1.4.4-2.2.7-.7.2-1.1.4-1.8.2-.5 0-.7-.5-.7-1 0-.6.4-.9.7-1.3.2-.5.2-1 1-1 3-3.8 6.3-11.5 4.8-16.2-5.1-.3-12 7.7-14 12 .9 6.6-9 6-7.1-1.2Z" fill="#fff"/>
    <path d="M717.1 248.8c1.4-2.4 3.1-4.5 5-6.4 2.3-2.6 5-5.2 8-7.3 3.5-2 7.7-4.4 12-3.3 2.1.7 3.7 2.6 4 4.7.4 2.2-.3 4.5-.5 6.6a25 25 0 0 1-4.2 8.7c-1.2 1.4-2.4 2.9-3.8 4.3-.7.7-1.4 1.4-2.3 1.6-1.5.5-3.1 0-3.6-1.4-.4-1.2 1.4-2.1 2.1-1 1-1.1 1.7-2.5 2.4-4 1-1.4 1.6-2.5 2.3-4 .5-1.4 1.2-2.5 1.5-4 .2-1.8.4-3.7.2-5.3-7.3 1.4-14.1 9.1-17.4 15.2-3.3 4.7-9.4-.2-5.7-4.4Z" fill="#fff"/>
    <path d="M696.4 236.5c1.4-1.8 3.8-3 6.1-3 2.9 0 5.7.2 8 1.6 2.4 1.4 4.3 3.3 6.2 5.2 1.6 1.6 3.7 3.3 4.2 5.6.2 1.7 1 5.2-1.6 5.2l-1-.2c-1.2 0-1.6-1.7-.7-2.4-.5-.9-1.2-1.4-1.9-1.8-2.6-1.5-5-3.6-7.3-5.2a12.3 12.3 0 0 0-6.6-1.4c-1.6.2-1.1 2.3-1.1 3.5 1 5.4 3.7 12.5 8.4 16 5.2-.2 6 7 .7 7.8-4 .4-6.8-3.1-9.1-5.7-1.4-1.6-2.4-3.8-3.3-5.6-2.4-5.7-5.2-14-1-19.6Z" fill="#fff"/>
    <path d="M720.7 263.1a4 4 0 0 1 2.8-2.3c1.6-.5 3.3.7 5 1.4a36.3 36.3 0 0 0 16 5.2c4 .4 7.5.2 10.5-2.6-2.1-2-5-3-7.7-4l-5.2-1.4a27 27 0 0 0-8.7 0c-2 1.6-3.6-1.2-2-2.6 3-2.9 7.4-3.8 11.4-3.3 5.6 1 15.5 4 18.3 9.1 2.4 5.7-3.7 10.6-8.7 11.8-6.6 1.4-14.6.2-20.7-2.1-3.7-1.9-13-4-11-9.2Z" fill="#fff"/>
    <path d="M711 269a7.2 7.2 0 0 1 2.4-3.5c2-2 5.9-.7 6.6 2 .4 1.3 0 2.7-.7 3.9-.5 1.1-1 2.3-1.2 3.5a31.3 31.3 0 0 0-.7 17.4c.4 1 .7 2.3 1.6 3 1.2-.7 1.7-2.3 2.4-3.5 1.6-3.5 2.3-7.5 2.6-11.5 0-1.9-.3-3.5-.3-5.4 0-2.1.3-4.3.7-6.1.3-1.2 1.7-1 2.4-.5 3.5 2.1 4.7 9 5 12.7 0 4.2-.5 8.7-2.2 12.7-1.4 3.3-3 6.8-6.1 8.7-2.1 1.2-4.5 1.9-6.8 1a10.6 10.6 0 0 1-6.4-6.4c-4-9.2-2.3-19.3.7-28Z" fill="#fff"/>
    <path d="M680.7 271.4c3.5-4 8.4-6.4 13.1-8.3 4.5-1.4 9.2-2.8 14-2.3 2.8.2 6 2.3 5.1 5.6-.5 1.9-2.4 3-4.2 2.8l-2.9-.7c-3.3 0-6.3.7-9.4 1.7a31.2 31.2 0 0 0-10 5c6.3 2 19-.8 24.6-3.8l.3-.3c0-.7.9-.5 1.1 0 .7 1.7-1.4 3.8-2.6 5-5.4 5.4-13.6 6.8-21.1 6.3-2.9-.2-6.1-1-8.3-3-2-2.2-1.8-5.7.3-8Z" fill="#fff"/>
    <path d="M706.6 266.4c1.4-1.2 3.2-2.1 4.9-3-3.3-1-4-5.7-.5-6.9 3.3-.7 6.6 1 9.9 1.4 1.6-1.6 4.7-8 7.3-6 .7.4 1 1.1.7 1.8-.2.7-1 1.7-1.2 2.1-.4 1-1.2 2-1.6 2.9 3-.3 6.3-1 9.4.2 2.1 1.2 1.2 4.2-1.2 4.5-3.3.9-6.8.9-10.3 1.1.4 2.6.4 5.4 0 8-.5 1.4 0 2.6 0 4-.5 2.4-3.6 2.9-5 1-1.4-3.6-1-7.6-1-11a58.8 58.8 0 0 1-8.2 4.9c-3 1.1-5.6-2.9-3.2-5Z" fill="#FEBC3F"/>
    <path d="M392.8 598.8c.5-4.4-.7-8.9-1.5-13.2 0-5.1-2.3-9.5-4.7-14.4-10.3-16.7-29.3-26.7-47.5-32a108.7 108.7 0 0 0-50 2.3c-9 2.4-27 4.1-14.7 16.4 2.2 3 3.7 6.7 6.3 9.9 2.1 3 3.6 6.7 5.8 9.7 2.8 5 6.2 9.9 10.3 14a65.5 65.5 0 0 0 19.5 15.2 62.2 62.2 0 0 0 36.4 9.6c4.6-.3 9-1 13.4-1.9a9 9 0 0 0 8.5-10.3 13 13 0 0 0 10.2-3.4c2.5 5 7.5 2 8-1.9Z" fill="#41751C"/>
    <path d="M388.5 606c-.5-2.4-3.1-2.9-4.9-4.4a79.5 79.5 0 0 1-9.5-5.5c-8-4.5-16.6-8.8-24.7-13.3l-12.7-7c-12.2-6.9-26-12-38.8-17.2-1.2-.4-2.4-.9-3.5-1.7-.9-.3-2-.7-3-.5-1.1.5-.9 2.4.8 1.6 11.1 7.4 23.5 13.9 35.5 20.2 11.6 6.2 23 12.8 34.8 18.6 5 2.6 10 5.6 15 8.2 2.3 1.3 4.2 2.4 6.4 4 1.6 2 5-.1 4.6-3Z" fill="#fff"/>
    <path d="M365.2 603.6c-.1-5-2.2-9.8-2.8-14.6-1.2-5.9-2.3-12.2-3.4-18.5-.1-2.3-.6-4.7-.8-7-.1-1 .2-1.8-.5-2.5-.8-1.7-3.3-1.1-3.8.5-.3 3.6.4 7 .6 10.3l1.4 20c.4 4.3.3 8.8 2 13 1.5 3.7 6.8 2.8 7.3-1.2Z" fill="#fff"/>
    <path d="M337.8 580.7c-2-11.6-4.3-23.8-9.7-34.7-.7-.7-1.9.2-1.2 1l.3.5c2.7 8.2 2 17 3.7 25.4 1 2.6 1.7 11 5.3 10a2 2 0 0 0 1.6-2.2Z" fill="#fff"/>
    <path d="M342.5 581.8c-.4-5.6-6.7-3.2-10.1-2.5-9.3 1.9-19 3.6-28 7.4-1.8-.1-3 1.8-1.8 2.6 1 .8 2.6.4 4 0 3.9-.5 7.3-1.2 10.7-1.8 5-1.1 10.1-1.6 15.3-2.2 3-.8 9.2 1.3 9.9-3.5Z" fill="#fff"/>
    <path d="M364.8 594c-.1-3.8-4.6-4-7.5-3.5a127 127 0 0 0-31.8 3.8c-2.2 1.1-4.7 1.6-7 1.8-.5.2-1 .1-1.6.8-.9 1 .4 2.8 1.5 2.3l6.5-.5c9.2-.1 17.9-.4 26.6-.6 4.7-.3 13.6 1.8 13.3-4.2Z" fill="#fff"/>
    <path d="m447 588-37.3 1c-.5.3-.6.7-1.2 1-16.7 4.8-33.3 9.7-50.3 14-1 .1-3.4-.7-4-1.8-1.3-4.1-2.5-8.6-3.4-12.6-6.3-.3-9.3 3.3-7.9 9.7 2.9 13.3 9 24.9 17.8 35.2 15.2 17 33 30.7 55.4 38.3 39.7 13.4 73 1.3 94.9-34 2.2-3.9 4.8-7.6 6.9-11l6.6-19.6c.1-1.8-.1-3.7-.1-5 .1-4.6.8-9.4 1-13.9l-5.7-1.9-9.5 1c-2.5 10-4.6 20.3-7.2 30.8-1.6-.6-2.6-.5-2.9-1-13.6-6.9-27.2-13.8-40.3-21-5-2.5-8.8-6.1-12.8-9.3Zm-3.6 6.5c-.2-.6-.5-1.1-.4-1.5.4.1.7.7 1.5 1l55.2 33.6c-4.1 6.8-8.8 13.9-14.1 21.7-8.5-10.2-16.5-18.8-23.4-28-6.7-8.6-12.6-18-18.8-26.8Zm-18.7-1.3c-1.9 1.6-3.7 2.8-5.6 4.5-11 7.2-21.6 15.5-30.5 25.7-3.2 4-6.7 7.7-10.6 12.4-6.4-8.1-12.9-15.8-19.3-23.9 7.3-2.5 13.2-5.1 19.2-6.7 15.5-4.3 31-8.2 46.6-12.6.4.2.5-.2 1 0-.2.3-.3.7-.8.6Zm8 72a92.8 92.8 0 0 1-49.2-25.3 193 193 0 0 1 45.7-43.8c1.3 23.2 2.7 46 3.6 69Zm3.6-67.2c14.6 19 28.4 37.4 42.3 55.7a51.2 51.2 0 0 1-32 12.5c-4.1 0-5.5-1.4-5.6-5-.5-8-2-15.8-2.5-23.7-1-13.1-1.3-26-2.2-39.5Z" fill="#FEBC3F"/>
    <path d="M447 588c4 3.1 8.2 6.8 12.4 9.1 13.5 7.3 26.7 14 40.3 21 .9.2 1.7.5 2.9 1 2.2-10.7 4.7-20.8 7.2-31-16.8-.1-33.7 0-51-.2H447Z" fill="#F92115"/>
    <path d="M350.6 590c1.4 4.1 2.2 8.5 3.5 12.6.2 1 2.6 1.8 4 1.8a2537 2537 0 0 0 50.3-14l1.2-1c-6.4.2-12.7-.1-18.7.1-13.5-.5-26.9 0-40.3.5Z" fill="#F92115"/>
    <path d="m432.8 665.2-3.6-69.1a193 193 0 0 0-45.7 43.8 93.8 93.8 0 0 0 49.3 25.3Z" fill="#F92115"/>
    <path d="M436.3 598c.5 13.4 1.2 26.4 1.8 39.3.5 8 1.6 15.6 2.5 23.7.5 3.8 1.9 5.2 5.6 5 12.4-.3 23-5 32-12.4a4298.7 4298.7 0 0 0-41.9-55.6Z" fill="#F92115"/>
    <path d="m424.5 592.6-46.6 12.6c-6 1.6-12 4.1-19.2 6.7 6.8 8.2 13 15.8 19.3 23.8 3.9-4.6 7.4-8.4 10.6-12.3 8.9-10.2 19-18.7 30.5-25.7 1.8-1.3 3.7-2.9 5.6-4.5l-.2-.6Z" fill="#F92115"/>
    <path d="M443.4 594.5c6.2 8.9 12.1 18.2 18.8 26.8 7 9.2 15 17.8 23.4 28 5-8.3 9.6-15 14.1-21.7-19-11.4-37-22.5-55.2-33.7-.5.3-1 .2-1 .6Z" fill="#F92115"/>
    <path d="M444.1 593.8c-.4-.1-.7-.7-1.5-1 .3.6.6 1.1.4 1.5.6-.2 1 0 1.1-.5Z" fill="#F92115"/>
    <path d="m424.7 593.2.3-.8c-.4-.2-.5.2-1 .1l.7.7Z" fill="#F92115"/>
    <path d="M281.9 484c-1-.9-2.3-1.3-3.6-1.8l-1.7-.4H271.7c-.4 0-.9 0-1.8.4-1.3.5-2.2 1-3.5 1.4-1.3.9-2.7 1.7-3.5 2.6-.5.5-1 1.3-1.8 1.8-.9 1.3-1.8 2.6-2.2 4-.5 1.3-.9 3-.9 4.8v1.8c0 .9.4 2.2.4 3v.5c2.3 5.8 8 9.7 14.2 9.7 6.2 0 11.9-4 14.1-10.1 0-.5.5-1.3.5-1.8 0-.4.4-1.3.4-1.8v-1.7c0-1.8-.4-3.6-.9-5.3a11 11 0 0 0-4.8-7Zm2.6 12.8v1c0 1.2-.4 2.1-.9 3.4a11 11 0 0 1-10.6 7.1c-4.4 0-8.4-2.6-10.1-6.6-.5-.9-1-2.2-1-3.1v-1.3c0-2.2 1-4.5 1.8-6.2.5-.9 1-1.3 1.8-1.8 1.8-1.3 3.5-2.6 6.2-2.6h3.5c.5 0 1 0 1.4.4 4.8 0 7.9 4.4 7.9 9.7Z" fill="#FA6C63"/>
    <path d="M310.6 478.7c.8 0 1.3.5 1.7.5.5-1 1-1.4 1-2.3.4-.8.8-1.3 1.7-1.7 1.7-1.3 3.5-2.7 6.2-2.7h3.1c.4 0 .8 0 1.3.5 3.5.9 6.2 3 7.5 6.6.9-.4 1.3-.4 2.2-.9.4 0 .9 0 1.3-.4-1.3-3.1-3-5.3-5.7-7a8.9 8.9 0 0 0-3.6-1.9l-1.7-.4h-5.3c-.5 0-.9 0-1.8.4-1.3.5-2.2 1-3.5 1.4-1.3.8-2.7 1.7-3.6 2.6-.4.5-.8 1.3-1.7 1.8-.5.4-.5.9-.9 1.3 0 .4-.4.4-.4.9-.5.4-.5.9-1 1.3 2.3-.4 2.7-.4 3.2 0Z" fill="#FA6C63"/>
    <path d="M277 478.7c.9 0 1.3.5 1.8.5.4-1 .8-1.4.8-2.3.5-.8 1-1.3 1.8-1.7 1.8-1.3 3.5-2.7 6.2-2.7h3.5c.5 0 1 0 1.4.5 3 .9 6.1 3.5 7.5 6.6.8-.4 1.3-.4 2.2-.9.4 0 .9 0 1.3-.4-1.3-3.1-3.1-5.3-5.7-7a8.9 8.9 0 0 0-3.6-1.9l-1.7-.4h-5.3c-.5 0-1 0-1.8.4-1.3.5-2.2 1-3.5 1.4-1.4.8-2.7 1.7-3.6 2.6-.4.5-.9 1.3-1.7 1.8-1 .9-1.4 2.2-1.8 3.5 1.3-.4 1.8-.4 2.2 0Z" fill="#FA6C63"/>
    <path d="M280.5 496.8v-.9c-.4-2.6-2.2-5.3-4.8-6.1-1-.5-1.4-.5-2.2-.5h-1a7.1 7.1 0 0 0-6.1 7c0 1 .4 2.3.9 3.2 1.3 2.6 4 4 6.6 4 3 0 5.7-1.8 6.6-5v-1.7c0 .5 0 .5 0 0Zm-3.5 0v1c-.4 1.7-1.8 2.6-3.5 2.6-1.4 0-2.7-1-3.6-2.3 0-.4-.4-.8-.4-1.3 0-.4 0-.9.4-1.3.5-.9 1-1.3 1.4-1.8.4-.4 1.3-.4 1.7-.4h.9c2.2 0 3 1.8 3 3.5Z" fill="#FA6C63"/>
    <path d="M327 483.6c.8-1 1.7-1.4 3-2.2a7.3 7.3 0 0 0-4.4-4.4c-.9-.5-1.3-.5-2.2-.5h-1a7.2 7.2 0 0 0-5.7 4.9c1 .4 1.8 1.3 2.7 2.2v-.5c0-.4 0-.9.4-1.3.5-.9 1-1.3 1.4-1.8.4-.4 1.3-.4 1.7-.4h1c2.1.9 3 2.2 3 4Z" fill="#FA6C63"/>
    <path d="M364.4 486.2c.5-.9.5-1.7.5-2.6v-1c-.5-2.6-2.2-5.2-4.9-6-.9-.5-1.3-.5-2.2-.5h-.9a7.2 7.2 0 0 0-5.7 4.8c.9 1 1.8 1.3 3 2.7v-.5c0-.4 0-.9.5-1.3.5-.9 1-1.3 1.4-1.8.4-.4 1.3-.4 1.7-.4h1c1.7.4 2.6 1.8 2.6 3.5v1c-.5 1.7-1.8 2.6-3.6 2.6H356.1v.4l1.3 2.7v.8c3.5 0 5.7-1.7 7-4.4Z" fill="#FA6C63"/>
    <path d="M372.8 485.3v-1.7c0-1.8-.4-3.6-.8-5.3-1.4-3.1-3.1-5.3-5.8-7a8.9 8.9 0 0 0-3.5-1.9c-.5 0-1.3-.4-1.8-.4h-5.3c-.4 0-.9 0-1.8.4-1.3.5-2.2 1-3.5 1.4-1.3.8-2.6 1.7-3.5 2.6-.5.5-.9 1.3-1.8 1.8-.4.4-.4.9-.9 1.3 0 .4-.4.4-.4.9-.5.4-.5.9-.9 1.3h.9c.9 0 1.3.5 2.2.5h.9c.4-1 .9-1.4.9-2.3.4-.8.8-1.3 1.7-1.7 1.8-1.3 3.6-2.7 6.2-2.7h3.1c.4 0 .9 0 1.3.5 4.9 1.3 8.4 5.7 8.4 11v.9c0 1.3-.4 2.2-.9 3.5a11 11 0 0 1-9.2 7.1v3.5c5.7-.4 11-4.4 12.8-10.1 0-.5.4-1.4.4-1.8.9-.9 1.3-1.3 1.3-1.8Z" fill="#FA6C63"/>
    <path d="M293.8 483.6c.9-1 1.7-1.4 3-2.2a7.3 7.3 0 0 0-4.3-4.4c-1-.5-1.4-.5-2.3-.5h-.8a7.2 7.2 0 0 0-5.8 4.9c.9.4 1.8 1.3 2.7 2.2v-.5c0-.4 0-.9.4-1.3.5-.9.9-1.3 1.3-1.8.5-.4 1.4-.4 1.8-.4h.9c1.8.9 3 2.2 3 4Z" fill="#FA6C63"/>
    <path d="M348.5 484c-.8-.9-2.2-1.3-3.5-1.8-.4 0-1.3-.4-1.8-.4h-4.8c-.5 0-.9 0-1.8.4-1.3.5-2.2 1-3.5 1.4-1.3.9-2.7 1.7-3.5 2.6-.5.5-1 1.3-1.8 1.8-.9 1.3-1.8 2.6-2.2 4-.5 1.3-.9 3-.9 4.8v1.8c0 .9.4 2.2.4 3v.5c2.2 5.8 8 9.7 14.2 9.7 6.2 0 11.9-4 14.1-10.1 0-.5.4-1.3.4-1.8 0-.4.5-1.3.5-1.8v-1.7c0-1.8-.5-3.6-.9-5.3a11 11 0 0 0-4.9-7Zm2.7 12.8v1c0 1.2-.4 2.1-.9 3.4a11 11 0 0 1-10.6 7.1c-4.4 0-8.4-2.6-10.1-6.6-.5-.9-1-2.2-1-3.1v-1.3c0-2.2 1-4.5 1.8-6.2.5-.9 1-1.3 1.8-1.8 1.8-1.3 4-2.6 6.2-2.6h3.5c.5 0 1 0 1.3.4 4.5 0 8 4.4 8 9.7Z" fill="#FA6C63"/>
    <path d="M314.1 496.8v-.9c-.4-2.6-2.2-5.3-4.9-6.1-.8-.5-1.3-.5-2.2-.5h-.9a7.1 7.1 0 0 0-6.1 7 7.3 7.3 0 0 0 7.5 7c3 .1 5.7-1.6 6.6-4.7v-1.8c0 .5-.4.5 0 0Zm-4 1c-.4 1.7-1.7 2.6-3.5 2.6-1.3 0-2.7-1-3.5-2.3 0-.4-.5-.8-.5-1.3 0-.4 0-.9.5-1.3a6 6 0 0 1 1.3-1.8c.4-.4 1.3-.4 1.7-.4h1c1.7.4 2.6 1.8 2.6 3.5.9 0 .9.5.4 1Z" fill="#FA6C63"/>
    <path d="M315 484c-.9-.9-2.2-1.3-3.6-1.8l-1.7-.4h-4.9c-.4 0-.9 0-1.7.4l-3.6 1.4c-1.3.9-2.6 1.7-3.5 2.6-.5.5-.9 1.3-1.8 1.8-.9 1.3-1.7 2.6-2.2 4-.4 1.3-.9 3-.9 4.8v1.8c0 .9.5 2.2.5 3v.5c2.2 5.8 8 9.7 14.1 9.7 6.2 0 12-4 14.1-10.1 0-.5.5-1.3.5-1.8 0-.4.4-1.3.4-1.8v-1.7c0-1.8-.4-3.6-.9-5.3 0-2.7-2.2-5.3-4.8-7Zm3 12.8v1c0 1.2-.4 2.1-.8 3.4a11 11 0 0 1-10.6 7.1c-4.4 0-8.4-2.6-10.2-6.6-.4-.9-.9-2.2-.9-3.1v-1.3c0-2.2 1-4.5 1.8-6.2.5-.9.9-1.3 1.8-1.8 1.7-1.3 3.5-2.6 6.2-2.6h3.5c.4 0 .9 0 1.3.4 4.4 0 8 4.4 8 9.7Z" fill="#FA6C63"/>
    <path d="M342.4 489.8c-1-.5-1.8-.5-2.2-.5h-1a7.1 7.1 0 0 0-6.1 7c0 1 .4 2.3.9 3.2 1.3 2.6 4 4 6.6 4 3 0 5.7-1.8 6.6-5 .5-.8.5-1.7.5-2.6v-.8c-1-1.8-2.7-4.5-5.3-5.3Zm1.3 8c-.5 1.7-1.8 2.6-3.5 2.6-1.4 0-2.7-1-3.6-2.3 0-.4-.4-.8-.4-1.3 0-.4 0-.9.4-1.3a6 6 0 0 1 1.3-1.8c.5-.4 1.4-.4 1.8-.4h.9c1.8.4 2.6 1.8 2.6 3.5.5 0 .5.5.5 1Z" fill="#FA6C63"/>
  </g>
</svg>