<svg viewBox="0 0 1440 664" fill="none" xmlns="http://www.w3.org/2000/svg">
  <mask id="a" style="mask-type:alpha" maskUnits="userSpaceOnUse" x="-27" y="0" width="1480" height="664">
    <path fill="#D9D9D9" d="M-27 0h1480v664H-27z"/>
  </mask>
  <g mask="url(#a)">
    <path d="M243.2 474.3v14.4l.5 1.4a97.5 97.5 0 0 0 9.5 32.8c5 9.6 12 18.1 20.4 25a167 167 0 0 0-8.7-34.6c-.3-.7-.8-1.4-1.4-2L252 497c-.9-1-1.5-2.3-.2-3.4 1.3-1.2 2.4-.3 3.4.6l7.3 7 3 2.4-1.6-15.6a8 8 0 0 0-.7-3.1c-3.8-7-7.7-13.8-11.6-20.6-.6-1-1-2.2 0-3 1-1 2.2 0 3 .8l7.2 10 .7 1v-12.7c0-5.5.7-11 1.2-16.4 0-.6 1-1.2 1.7-1.8l1.6 2v1c0 9.3-.5 18.7-.3 28a27 27 0 0 0 2 12.7l3.8-6.2 6-7.7a2.4 2.4 0 0 1 2.4 0c.4.2.5 1.4.5 2.2 0 .7-.4.8-.6 1.2l-5 9.7a48.9 48.9 0 0 0-3.5 36c.4 2 1.2 3.9 1.7 5.8.7-3 1.2-6.2 1.4-9.3a102 102 0 0 1 6.6-25.8c.4-1.2 1.2-2.2 2.6-1.7 1.4.5 1.5 1.8 1 3l-1.5 4.7c-2.6 11.1-4.2 22.4-4.6 33.8-.2 6.8-.3 13.7-.6 20.5.6.3 1 .7 1.6.7a5.3 5.3 0 0 0 4.2-4.8v-5.2c.6-11.6 2.5-23 5.9-34a82.3 82.3 0 0 0 .5-51 191 191 0 0 0-8.5-22.4A168.3 168.3 0 0 0 272 417a4.2 4.2 0 0 0-5.6.1 42 42 0 0 0-13 17.2c-4 9.8-7 20-8.7 30.5l-1.6 9.5Z" fill="#67C04D"/>
    <path d="m273.6 547.8 5.5 4.1.6-20.5c.4-11.4 2-22.7 4.6-33.8.4-1.5 1-3 1.6-4.6.5-1.6.4-2.6-1.1-3-1.5-.6-2.2.4-2.6 1.6a102 102 0 0 0-6.6 25.8c-.2 3.1-.7 6.2-1.4 9.3-.6-2-1.3-3.8-1.7-5.7a48.9 48.9 0 0 1 3.5-36.1l5-9.7c0-.4.6-.8.6-1.3 0-.4 0-1.9-.5-2a2.4 2.4 0 0 0-2.3 0c-2.2 2.4-4.2 5-6.2 7.6-1.3 1.9-2.5 4.1-3.8 6.2a27 27 0 0 1-2-12.8c0-9.2.3-18.6.4-27.9v-1l-1.6-2c-.6.6-1.7 1.1-1.7 1.8-.5 5.5-1 11-1.2 16.4V473c0-.2-.5-.6-.8-1l-7.2-10c-.7-1-1.6-1.8-3-.9-1.2 1-.6 2 0 3.1l11.7 20.5c.4 1 .7 2.1.7 3.2l1.6 15.6c-1.2-1-2.2-1.7-3-2.5l-7.3-7c-1-.8-2.1-1.7-3.4-.6-1.4 1.2-.7 2.5.2 3.5l11.6 14.3c.6.6 1 1.3 1.4 2a167 167 0 0 1 8.4 34.7Z" fill="#fff"/>
    <path d="M275 545.3v5c0 .3.4.7.5 1.2l3.7 16c3.6-4 7.3-8.2 10.8-12.4.4-.4.6-1 .7-1.5 0-7.4.3-14.8 0-22.2 0-6.6-1-13.2-1.3-19.7 0-1.7-.4-4.2 2-4.2 2.5 0 2.5 2.3 2.7 4.2a189.5 189.5 0 0 1 2.3 32.7 43 43 0 0 0 8.3-11.3 125 125 0 0 0 10-38c.4-4.1.6-8.3 1.2-12.5a3.7 3.7 0 0 1 2.3-2.3c1.4-.4 2.3.9 2.7 2.3l.2 1.4c.8 6.3.6 12.6-.5 18.9l-3 16.3c2.5-2.4 4.5-5.1 6.7-7.7 2.5-2.8 4.2-6.2 5-9.8 1.8-9.6 5.2-18.8 5.3-28.8 0-1.5.4-3 2.4-2.8 2 .2 2 1.6 2 3l-1.5 14-1 7c.5-.2 1-.6 1.3-1l16.9-23.2c2.5-3.4 5-6.7 7.7-9.9.6-.6 2.2-.5 3.3-.7 0 1 .3 2.2 0 3a483 483 0 0 1-8.3 16c-3 5.3-6.2 10-9.2 15l.2.1 11-6.4c1.8-1 3.8-1.9 5.8-2.4a3.6 3.6 0 0 1 3 1c.9 1 0 2.4-1 3.2l-7 4.6c-8.3 4.4-16 9.9-23 16.3l-4.7 5.7.3.4 2.7-1L355 508c1.3-.6 2.7-.9 4.1-1a3.4 3.4 0 0 1 2.7 1.3 3.6 3.6 0 0 1-.8 2.8c-.9.8-2 1.5-3 2l-18.5 8.3c-7.7 3-15 7.3-21.1 12.9-2 1.8-3.9 4.1-5.8 6 .6.2 1.2.2 1.7 0 5.2-1.3 10.4-2.8 15.7-3.9a35 35 0 0 1 8.4-.4 2.7 2.7 0 0 1 2 1.9c0 .6-.9 1.7-1.6 2.2-.9.5-1.8.8-2.7 1-8.8 2.3-17.5 4.5-26.2 7-2 .4-4 1.4-5.6 2.8-5.8 6.3-11.4 12.8-17 19.3l18.4-5c13-3.8 26-8 36.1-17.8 4.5-4.1 9.5-8 13.8-12.7 14.4-16 20-35.5 21.3-56.5.5-10.9-.6-21.8-3.5-32.4-.8-2.8-1.7-3.5-4.5-2.5l-16.6 6.3c-11 4.5-22.2 8.3-31.8 15.5-4.7 3.5-9.6 6.7-14.2 10.3a73 73 0 0 0-24.2 33 110 110 0 0 0-6.4 27.5c.2 3-.4 6.2-.7 9.4Z" fill="#67C04D"/>
    <path d="m282.9 571.2 4.7-1.3c5.7-6.5 11.2-13 17-19.3 1.6-1.4 3.5-2.4 5.6-2.8 8.7-2.5 17.4-4.7 26.2-7.1 1-.1 1.9-.4 2.7-1 .7-.5 1.7-1.5 1.6-2.2a2.8 2.8 0 0 0-2-1.9 35 35 0 0 0-8.4.5c-5.2 1-10.4 2.5-15.7 3.9-.5.2-1.1.2-1.7 0 2-2 3.7-4.2 5.8-6a68.8 68.8 0 0 1 21.1-13c6.2-2.5 12.3-5.4 18.4-8.3a9.6 9.6 0 0 0 3.1-2 3.6 3.6 0 0 0 .9-2.8 3.4 3.4 0 0 0-2.8-1.2c-1.4 0-2.8.4-4.1 1l-19.6 6.8-2.7 1h-.5v-.3c1.6-2 3.1-4 4.8-5.8 7-6.4 14.6-11.8 23-16.3l7-4.6c1.1-.7 1.8-2 1-3.1a3.6 3.6 0 0 0-3-1c-2 .5-4 1.3-5.9 2.4-3.7 2-7.3 4.1-11 6.4h-.3v-.3c3-5 6.3-9.8 9.2-14.9 2.9-5 5.8-10.6 8.3-16 .4-.8 0-2 0-3-1 .2-2.7 0-3.2.7-2.8 3.1-5.3 6.5-7.8 9.8l-16.9 23.2c-.3.5-.8.8-1.4 1a506.6 506.6 0 0 0 2.5-20.9c0-1.4 0-2.9-1.9-3-1.9-.1-2.4 1.3-2.4 2.8 0 10-3.5 19.2-5.3 28.7-.8 3.7-2.5 7-5 9.9-2.2 2.5-4.1 5.3-6.7 7.7l3-16.3c1.1-6.3 1.3-12.7.6-19l-.3-1.4c-.4-1.3-1.2-2.6-2.7-2.3a3.7 3.7 0 0 0-2.3 2.4c-.6 4.2-.8 8.3-1.3 12.5-1.3 13-4.6 25.9-9.9 38a43 43 0 0 1-8.3 11.3v-2.4c0-10.2-.7-20.3-2.3-30.4-.2-1.7-.3-4.1-2.6-4.1-2.4 0-2.2 2.6-2.1 4.1.3 6.6 1.1 13.2 1.3 19.7.2 7.4 0 14.8 0 22.3 0 .5-.3 1-.6 1.5L279 567.2l1.6 3.7 2.2.3Z" fill="#FFF384"/>
    <path d="M253.7 581.1H271c.8-.3 1.7-.4 2.5-.5h15.6c1.5 0 3 .2 4.4.4H307a3.7 3.7 0 0 0 .5-5.6c-2.1-3.1-4.4-6.2-6.8-9.2a214.3 214.3 0 0 0-38.4-34.1c-9.7-7-20.4-12.3-31.7-16a158.6 158.6 0 0 0-68.5-5.2c-13 1.7-26.2.8-38.8-2.7a11 11 0 0 0-4.7-.4c-5.2 1-10.2 3.2-14.4 6.5-2.9 2.2-2.8 6-3.7 9.2l-.6 3.2c.5 1 1.1 1.8 1.9 2.5l9.8 7.6c6.3 5 12.7 9.8 19 14.9a6 6 0 0 1 2.3 6.6 6 6 0 0 1-5.5 4.7c-4.7.4-9.4.2-14 .3-1.6 0-3.2 0-5.2-.3l2 15.5h3l137 1.8 3.4.8Zm-36-47.8c0-3.6 1.8-6.2 4.9-5.8a36 36 0 0 1 10.4 2.8 6.2 6.2 0 0 1 1.2 10.3 9.1 9.1 0 0 1-10 2.2 10.2 10.2 0 0 1-6.5-9.5Zm-65-4.1a7 7 0 0 1 7-7.2 7 7 0 0 1 7.1 7.2 7.2 7.2 0 0 1-9.9 7 7 7 0 0 1-4.2-7.3v.3Zm44.5 29.6a6.2 6.2 0 1 1 10.6 4.4 6.4 6.4 0 0 1-4.5 1.8 6.3 6.3 0 0 1-6.1-6.2Zm-3.5-29.7a5.3 5.3 0 0 1 5.1-5.3 5.3 5.3 0 0 1 5.4 5.3 5.4 5.4 0 0 1-5.2 5.7 5.5 5.5 0 0 1-5.2-5.7h-.1Zm64.3 30.3a5.1 5.1 0 0 1 5.3-5.3 5.4 5.4 0 1 1-3.8 9.2 5.1 5.1 0 0 1-1.4-3.9h-.1Z" fill="#FFF384"/>
    <path d="M217.7 533.3a10.2 10.2 0 0 0 6.4 9.5 9.1 9.1 0 0 0 10.1-2.2 6.2 6.2 0 0 0-1.2-10.3 36 36 0 0 0-10.4-2.8c-3-.4-5 2.2-5 5.8Z" fill="#fff"/>
    <path d="M152.7 529a7 7 0 0 0 12.2 5.2 7.1 7.1 0 0 0 2-5.2 7 7 0 0 0-13.7-2.8 7 7 0 0 0-.5 2.7Z" fill="#fff"/>
    <path d="M197.2 558.8a6.3 6.3 0 0 0 6 6.3 6.4 6.4 0 0 0 6.5-6.3 6.2 6.2 0 0 0-12.5 0Z" fill="#fff"/>
    <path d="M193.8 529.1a5.5 5.5 0 0 0 5.2 5.7 5.4 5.4 0 0 0 5.3-5.7 5.3 5.3 0 0 0-5.4-5.3 5.3 5.3 0 0 0-5.1 5.3Z" fill="#fff"/>
    <path d="M258 559.4a5.1 5.1 0 0 0 5.3 5.4 5.4 5.4 0 1 0 0-10.7 5.1 5.1 0 0 0-5.2 5.3Z" fill="#fff"/>
    <path d="M11.3 470.2a1300 1300 0 0 1-72.5-8.8l-10.1-1.6-5.4-1-2.5-.6c-2.4-.6-4.6-1.8-6.3-3.7a8.6 8.6 0 0 1 1.8-12.8 9.7 9.7 0 0 1 4.3-1.5h-.8c3-.4 6-.6 9-.4l6.7.5 12.5.6c8.4.6 16.9.7 25.2 1.9 5.3.4 10.6 1.3 16 2.1l.6.1a9.8 9.8 0 0 1 5.4-1.1c8.5.7 17 1.3 25.4 1.6 8.4.2 16.7.6 25 .9 17 .6 33.7 2.6 50.4 4.2l8.4 1 3.5.2 3.3.3c2.9.4 5.5 1.8 7.3 4 1 1.2 1.7 2.6 2.2 4 .7 2 .9 4.1.4 6.2a12.2 12.2 0 0 1-6.4 8.2c-2.8 1.1-6 1.6-9 1.3h-7.2c-3.9-.4-7.9-.2-11.8-.4-8.3-.2-16.6-.7-24.9-1.3l-24-1.8c-8-.6-18.1-1.2-26.5-2Z" fill="#00426B"/>
    <path d="m227.2 238.1 24.5 2 1.5.8c6.5 1.6 13 3.2 19.5 4.6 3.5.7 5 2.5 4.3 6l-9 21.7a276 276 0 0 1-36 63.3 120.5 120.5 0 0 1-86.8 46.2l-16.6 1.8-17.4-1.4-4-1.7-13-4.3 18-14.4c1.3-1 2.8-1.4 4.4-1.5 7.6-.1 15.3-.4 22.9.2 8.8.6 17.7 2.2 26.6 3.3 3.8.3 7.7.4 11.5.1 1.2.1 2.4-1.6 3.5-2.4-.9-1.2-1.5-2.7-2.7-3.4-1.4-.8-3-1.2-4.6-1.3l-42.7-4.5c-.8 0-1.6-.3-2.3-.6a61.3 61.3 0 0 1 19.3-12.6c16-6 32.9-9.7 50-11.2 5.9-.5 11.8-.6 17.7-1 2.5.2 5.4-.4 5.5-3.9 0-3.4-2.8-3.7-5.3-4-3-.6-6-.9-9-.8-12 1-23.9 2.3-35.7 3.4l-4.5.3a53.6 53.6 0 0 1 27.7-16.1c12.8-2.5 25.8-4 38.7-6a5.3 5.3 0 0 0 3.6-3c.2-2.6-1.9-3.3-4-3.3-4.7.2-9.5.4-14.2.8-4.7.4-10.8 1.3-16.2 2 1-1.4 2.4-2.6 3.9-3.5 14-9.9 28.3-19.6 42.4-29.5a25 25 0 0 0 4.7-4.8 3 3 0 0 0 .2-2.8 3.4 3.4 0 0 0-2.7-1c-1.2.3-2.3.7-3.3 1.3l-38.7 21-3.5 2.1-.8-.7 2.9-4.5c3.3-5.6 6.7-11.1 9.9-16.8 1.1-2.2 1.7-4.8-1-6.4-2.6-1.5-4.1.7-5.5 2.5-2.6 3.8-5.1 7.8-7.9 11.5a962.7 962.7 0 0 1-22.6 30.3c-2.3 2.4-4.9 4.6-7.7 6.5l-.8-.7 1.6-4.2c3.8-10.1 7.8-20.1 11.4-30.2 1-2.6 2.6-6.4-1-7.7-3.7-1.4-5 2-6.2 4.3-4.5 8.7-8.9 17.5-13 26.4a104.7 104.7 0 0 1-20.1 31.5c-2.9 2.7-6 5.3-9 7.9 0-1.5.1-2.9.6-4.3 2.3-9.5 4.7-19 6.7-28.6.6-2.6 1.3-6.5-2.4-6.8-3.6-.3-4 3-4.8 5.6-4.3 13.5-8.3 27.1-12.8 40.6-1 3-2.9 5.5-5.2 7.6-7.1 6-14.6 12-22 18-1 1-2.3 1.7-3.5 2.5 2-6.4 3.8-13.4 5.8-20.2a152.2 152.2 0 0 1 35.3-64.8c20.6-22.1 48.6-36 78.7-38.8 4.8-1 9.9-1.8 15.2-2.4Z" fill="#67C04D"/>
    <path d="M92 363.9c1.3-.9 2.6-1.6 3.6-2.5 7.1-6 14.8-12 22-18.1 2.3-2 4.1-4.6 5.2-7.5a1575 1575 0 0 0 12.8-40.7c.8-2.5 1-6.5 4.9-5.6 3.8 1 2.8 4.5 2.3 6.8-2 9.6-4.4 19.1-6.7 28.7-.5 1.3-.7 2.8-.6 4.2 3-2.6 6.1-5.1 9-7.9 8.5-9.2 15.3-19.8 20-31.4a658 658 0 0 1 13.2-26.4c1.2-2.5 2.7-5.8 6-4.4 3.4 1.4 2 5.1 1.2 7.7-3.7 10.1-7.7 20.1-11.5 30.2l-1.6 4.2.8.8c2.8-2 5.4-4.2 7.7-6.6 7.7-10 15.2-20 22.6-30.3 2.8-3.7 5.3-7.6 8-11.4 1.3-1.9 2.9-4 5.5-2.5 2.6 1.4 2 4.2.9 6.3-3.2 5.7-6.6 11.3-10 16.8l-2.8 4.6.8.7 3.5-2.1 38.7-21c1-.6 2.1-1 3.3-1.3a3.4 3.4 0 0 1 2.7 1 3 3 0 0 1-.2 2.8 25 25 0 0 1-4.7 4.8l-42.4 29.4c-1.5 1-2.8 2.1-3.9 3.5 5.4-.6 10.8-1.5 16.2-2 5.4-.5 9.5-.6 14.2-.7 2 .1 4.4.6 4 3.2a5.3 5.3 0 0 1-3.6 3c-13 2.1-25.9 3.5-38.7 6a55 55 0 0 0-27.7 16.2l4.5-.3c11.8-1.2 23.7-2.4 35.6-3.4 3-.1 6.1 0 9 .7 2.6.2 5.4.7 5.4 4 0 3.4-3 3.8-5.5 4-5.9.3-11.8.4-17.7 1-17.1 1.4-34 5.2-50 11.2-7.2 2.9-13.7 7.2-19.3 12.5l2.3.7 42.7 4.5c1.6 0 3.2.5 4.6 1.2 1.2.7 1.8 2.2 2.7 3.4-1.1.8-2.3 2.4-3.5 2.4-3.8.3-7.7.3-11.5-.1-8.9-1-17.7-2.6-26.6-3.3-7.6-.6-15.3-.3-23-.1-1.5 0-3 .5-4.3 1.4l-18 14.4-5.2-2.8.3-4.8 2.2-4.8.6-.7v.4Z" fill="#FFF384"/>
    <path d="m91.4 364.5.6-.7-.6.7Z" fill="#67C04D"/>
    <path d="m211.3 20.6 11.8.9c4.3.8 8.5 2 13 2.5a30.2 30.2 0 0 1 28.7 25.7c1.8 8.6 3.7 17 5 25.7 1.2 7.3 1.6 14.7 2.4 22l-.6 7.1-1 1.7c-1.3-.7-2.4-1.6-3.5-2.5-6.2-6.4-14-11-22.7-13.3-6.4-1.8-13.3-3-20-4.3-17.6-3.2-35.6-4-53.5-2.5-2.6.2-5.1.8-5.2 4.1 0 3.4 2.3 4 4.8 4.4l18.2 3.7c13.7 2.5 26.8 7.7 38.4 15.3a27.7 27.7 0 0 1 13.3 27.9l-1.2 15-.6 1a62.5 62.5 0 0 1-5.5 6.1l-36.4 32.7-1.4-5c-2.8-9.3-5.1-18.9-8.5-28a28.4 28.4 0 0 0-22.4-18.7c-8.3-1.6-16.6-2.4-25-2.4-7.4.3-14.7 1.2-21.9 3-4 .7-4.4 3.4-2 6.8 17.8 24.4 38 46.9 60.3 67.1-3.7 5.2-7.4 10.7-11.3 15.7a18.3 18.3 0 0 0-3.4 19.1c-2.6-.2-5.2-1-7.8-1.2A118 118 0 0 0 84.8 265a9.6 9.6 0 0 0-3 10.8c1.2 3.4 4 4.1 7.3 4 1.3 0 2.8 1 4.5 1.8 9-5.5 53.3-5.6 77.9 4.3a61.5 61.5 0 0 1-20.1 21.5c-10 7.1-20.4 13.8-30.5 20.7-1.9 1.4-3.5 3.1-5 5a106.9 106.9 0 0 1-23.1 25.9c-15 10-31.8 10.7-49 9.9a9 9 0 0 1-4.7-2.7 7.8 7.8 0 0 1-1.6-8.9 8.7 8.7 0 0 1 8.4-6l12-.3c-1.5-4.6-3.3-8.9-4.4-13.6-3-11.6-3.6-24-13-33.1 0 0 .1-.4-.3-.7a11.8 11.8 0 0 1-.4-12.8 10.4 10.4 0 0 1 11.3-4.1h.5v-.5a88.6 88.6 0 0 0-18-41.5 3 3 0 0 0-1.7-1 13.6 13.6 0 0 1-9.5-13.2l3.7-2.2c19.5-14 40-26.7 61.3-37.7 2.1-1 4-2 5.8-3.5 1.2-1 2.4-3 2-4.1a5.8 5.8 0 0 0-4-3 182.4 182.4 0 0 0-49.5 6.1A39.5 39.5 0 0 0 13.2 215l-3.6 13.4c-.8 1.4-1.5 3-1.9 4.5-2.2 17.4-9 34-19.7 48a6 6 0 0 1-5.3 1.6 7.3 7.3 0 0 1-2.3-5.5c.3-2.2 1-4.4 2.1-6.4 4.9-11.8 8-24.3 9.5-37 0-1.9-.4-3.8-1.1-5.5a36.5 36.5 0 0 1-2.2-9c.7-9.9.1-19.8-1.7-29.6-1.7-7.6-3.2-15.3-4.8-23 2.5-2.2 5-4.2 7.7-6 3.8-2.1 7.7-4 11.7-5.7 20-7.8 40.6-13.8 61.7-17.7a18.5 18.5 0 0 0 28.8 6.5c12.3-11 22-24.7 28.3-40 2.9-6.7 5.5-13.5 8.8-20 3.8-8.8 8.6-17.2 14.2-25C153.8 46.4 166.3 36 180 28a44 44 0 0 1 23.2-7c2.6.2 5.3-.2 8-.4Z" fill="#EC7725"/>
    <path d="M-25.7 120.1A63 63 0 0 1-7.4 96.2a37.7 37.7 0 0 1 58 9.3c2.4 4.7 4.5 9.6 6.2 14.6l-2.7-.2c-26.1-3.8-47.7 6-65.9 24.3-3.6 3.6-6.7 7.7-10 11.6l-4-22.1c0-.5-.6-1.1-.8-1.6l1-12Z" fill="#EC7725"/>
    <path d="m196.5 193.7-21 22.8a439.8 439.8 0 0 1-60.2-67.1c-2.4-3.4-2-6.1 2-6.9 7.2-1.6 14.5-2.6 21.8-3 8.4.1 16.8 1 25 2.5a28.4 28.4 0 0 1 22.5 18.7c3.4 9.1 5.7 18.7 8.5 28l1.4 5Z" fill="#FCD271"/>
    <path d="M270.4 106.2c-1 3-2.3 6-3.9 8.7-8.4 12.6-17.1 25.1-25.8 37.6-.5.6-1 1.2-1.7 1.6l1.2-15a27.7 27.7 0 0 0-13.3-27.9 105.4 105.4 0 0 0-38.4-15.4l-18.2-3.7c-2.6-.2-4.7-1.2-4.8-4.3 0-3.1 2.6-4 5.3-4.2 17.8-1.5 35.8-.6 53.4 2.6 6.6 1.2 13.5 2.5 20 4.3a49.4 49.4 0 0 1 22.7 13.2c1 1 2.3 1.8 3.5 2.5Z" fill="#FCD271"/>
    <path d="M160.8 251.5c3 4.5 6 9 8.7 13.8a20.4 20.4 0 0 1 1.8 21c-24.5-9.8-68.9-9.7-77.9-4.3-1.8-.8-3.2-2-4.5-1.9-3.4.2-6.1-.4-7.3-3.9a9.6 9.6 0 0 1 4.3-11.7 118 118 0 0 1 67.1-14c2.6-.2 5.2.8 7.8 1Z" fill="#FCD271"/>
    <path d="m22 231.3-1.3-2.6-11.4.4 3.6-13.4a39.5 39.5 0 0 1 28.7-29 182.4 182.4 0 0 1 49.5-6 5.8 5.8 0 0 1 4 3c.3 1-.9 3.2-2 4.2a27.8 27.8 0 0 1-5.8 3.4A488 488 0 0 0 25.9 229l-4 2.3Z" fill="#FCD271"/>
    <path d="M-21.8 155.8c3.3-4 6.4-8 10-11.6 18.3-18.5 39.7-28.1 66-24.3l2.6.2 5.9 18C41.7 142 21 148 1 155.8c-4 1.7-7.8 3.6-11.6 5.7a74.6 74.6 0 0 0-7.7 6l-3.5-11.7Z" fill="#FCD271"/>
    <path d="m239 154-.6.9.6-1Z" fill="#FCD271"/>
    <path d="m23.8 221.1 10.3.8c3.6 1 7.2 1.8 10.8 2.9a102 102 0 0 1 57.4 42.8 169.2 169.2 0 0 1 26.3 75.9c.8 6 1.2 12 1.8 18l-1.7 23.1c-.8 2.5-1.7 5-2.2 7.5a67.4 67.4 0 0 1-22 39.5c-3.2 2.7-6.9 4.8-10.1 7.5a114.5 114.5 0 0 1-77.2 27.7c-3.8-.3-7.7.3-11.5.5l-11.8-1-7.9-2c-44-9.5-77.8-32.7-98.4-74a89 89 0 0 1-8.8-28.7l-1.6-9.1 1.5-19.7 3-11.3c4.5-15.2 6.7-31 6.3-46.8-.3-6.8-.4-13.6 0-20.3.1-2.8 1.2-5.4 3-7.5 11.2-10.9 23.4-19.4 40.3-16.7 14.2 1.7 28.7 1.1 42.8-1.8 14.5-2.3 29-4.3 43.6-6.2 2-1 4-1.2 6.1-1Zm32.3 120.4a14 14 0 0 0 4.6-1.5c6.7-5 13.3-10 19.7-15.2 1.3-1.3 2.4-2.9 3-4.7a6.6 6.6 0 0 0-5-9 20.1 20.1 0 0 0-22.6 10c-2.2 4.4-4 9-5.5 13.6-1.4 3.7.5 6.2 5.7 6.6v.2ZM2.5 259.1c0-.7-.2-1.3-.4-2a16.8 16.8 0 0 0-14-6.3A33.4 33.4 0 0 0-30.7 265a6.6 6.6 0 0 0-.4 6.1 6.6 6.6 0 0 0 5.6 2.4c7.6-1.7 15.2-4 22.7-6.3 3.3-1.2 5-3.9 5.3-8.2ZM6 247.7c1 2 1.6 5 3.3 6a7.8 7.8 0 0 0 6.7-.4c3.6-2.7 7-5.8 10-9.3a4.3 4.3 0 0 0-.7-6.7 17.6 17.6 0 0 0-9.4-2.5c-6 .2-8.3 4-9.9 12.8Zm33 17.3a9.4 9.4 0 1 0 1.5-18.8 9.4 9.4 0 0 0-1.4 18.8Zm-21.6 24.3a9 9 0 0 0-9.9 8.2 9.4 9.4 0 0 0 8.4 10.2 9.3 9.3 0 0 0 9.8-8.7 9 9 0 0 0-8.5-9.8l.2.1ZM-44 244.4a9.2 9.2 0 0 0-9.8 8.4 9.4 9.4 0 0 0 8.4 9.8 8.9 8.9 0 0 0 9.6-8.4 8.8 8.8 0 0 0-8.2-9.8Zm124 41.1a7 7 0 0 0-6-7.7c-7.2-.6-11.2 1.6-11.5 6.5A10.5 10.5 0 0 0 72 294a8.2 8.2 0 0 0 8-8.4h.1Zm-87.6-47a7.8 7.8 0 0 0-13-6.5 8 8 0 0 0-2.7 5.5 8.2 8.2 0 0 0 7.2 8.5 8 8 0 0 0 8.5-7.5Zm77.8 18.3a6 6 0 1 0-11.8-.4 6.1 6.1 0 0 0 5.5 6.2 6.6 6.6 0 0 0 6.6-6l-.3.2Z" fill="#FFF384"/>
    <path d="M56 341.3c-5.2-.4-7.1-2.9-6-7.1 1.4-4.7 3.3-9.2 5.5-13.6a20.1 20.1 0 0 1 22.5-10 6.6 6.6 0 0 1 5 9c-.6 1.7-1.6 3.3-3 4.6-6.4 5.2-13 10.3-19.7 15.3a14 14 0 0 1-4.3 1.8Z" fill="#fff"/>
    <path d="M2.5 259.1c-.4 4.5-1.8 7.2-5 8.2-7.5 2.3-15.1 4.6-22.7 6.3a6.6 6.6 0 0 1-5.7-2.3 6.6 6.6 0 0 1 .5-6.1c4.3-7 11-12 18.7-14.4a16.8 16.8 0 0 1 14 6.4c.2.6.2 1.3.2 1.9Z" fill="#fff"/>
    <path d="M6.1 247.6c1.6-8.7 4-12.6 10-13.1 3.4-.1 6.7.8 9.5 2.5a4.3 4.3 0 0 1 .8 6.6c-3 3.5-6.4 6.6-10.1 9.4a7.8 7.8 0 0 1-6.7.4c-1.9-.5-2.4-3.8-3.5-5.8Z" fill="#fff"/>
    <path d="M39.2 264.9a9.4 9.4 0 1 1 1.5-18.8 9.4 9.4 0 0 1-1.5 18.8Z" fill="#fff"/>
    <path d="M17.3 289.2a9 9 0 0 1 8.3 9.6 9.3 9.3 0 0 1-9.8 8.7A9.4 9.4 0 0 1 8.5 294a9 9 0 0 1 8.8-4.7Z" fill="#fff"/>
    <path d="M79.9 285.5a8.2 8.2 0 0 1-8.3 8.4 10.5 10.5 0 0 1-9.4-9.6c.4-4.9 4.3-7.1 11.5-6.5a7 7 0 0 1 6.2 7.7Z" fill="#fff"/>
    <path d="M70.5 256.6a6.6 6.6 0 0 1-6.3 5.8 6.1 6.1 0 0 1-5.5-6.2 6 6 0 1 1 11.8.4Z" fill="#fff"/>
    <path d="M1247.7 666.8h28.3c.7 0 1.5 0 2.2-.2.3 0 .5-.2.8-.4l.5-.7c.2-.3.2-.6.2-1v-.7a2.4 2.4 0 0 0-.4-1.6 7.4 7.4 0 0 0-1.3-1.8 19.7 19.7 0 0 0-4.8-4.1l-1.4-1-1.2-.6-.8-.4-6.8-5.9c-3-2.4-5.7-5-8.6-7.4l-9-7.7-8.9-7-9.3-7.7-8.6-7-9.2-7c-6.1-4.4-12.3-8.7-18.4-13.2-2.8-2-5.6-4.2-8.3-6a61.3 61.3 0 0 0-17.2-7.6c-3.3-.7-6.7-1.2-10.2-1.3h-4.8l-5.5.2-11 .5-17 1c-5.7.5-12.3 1-18.4 1.7-6.1.6-12.5 1.7-18.6 2.5-6.1.8-11.5 1.5-17.2 1.9l-7 .3c-2.2 0-4.7 0-7-.2-1.7 0-3.4-.4-5-.6l-4.7-.8-3.5-.9-3.7-1-6.1-2.1c-7-2.5-13.9-5-20.8-7.7l-21.3-8-20.2-8a545.6 545.6 0 0 0-50.4-18 299.4 299.4 0 0 0-19-4.6l-10.4-2c-6.6-1.2-13.2-2.6-19.8-4h-.3c-5.7-1.1-11.5-2.3-17.2-3.7l-18.4-4.4-17.8-4.2-18-3.8h.4c-5.2-1-10.4-2.2-15.5-3.4a167.3 167.3 0 0 1-29.6-10.4l-5.3-2.6c-6.5-3.4-13-6.8-19.5-10-6.5-3.3-13.7-7-20.8-10.1-7-3.2-13.9-6-20.8-8.8a169 169 0 0 0-20.4-6.1 127.7 127.7 0 0 0-44.3-2l-12.2 1.1-10.5 1-23.3 2.9-14.9 1.9a3.2 3.2 0 0 0-2.3 1.6c-1.1 0-2.2.4-3.3.6a32 32 0 0 0-3.9 1.2l-3.6 1.4a62.9 62.9 0 0 0-14.8 8c-4.1 3.1-8.5 6.4-12.8 9.4l-4.2 2.5h-.4a106.9 106.9 0 0 1-20.7 6.5c-5.3 1-10.6 2-15.7 3.4a27.8 27.8 0 0 0-7.4 3.2 50 50 0 0 0-6.9 5c-2.2 1.9-4.1 3.9-6.4 6-2.3 2-4.2 3.7-6 5.6-2 1.8-4.2 3.7-6 5.6-1.8 1.9-3.7 3.9-5.7 5.7l-2.6 2.4a38.2 38.2 0 0 1-16 9.4 161.7 161.7 0 0 1-16.6 4.6 673.7 673.7 0 0 1-32.6 5.8l-16.6 3c-5.5 1.1-11 2.1-16.3 3.3l-16.3 3.1-16.3 2.9-7.6 1a3 3 0 0 0-1.5.5H290.6a52.2 52.2 0 0 1-21.1-5.8l-8.3-3.5-7.7-3.2-8-3.7h-.3.2l-9-4.8-9.3-5.3c-6.1-3.4-12.3-6.8-18.5-10-6.4-3.5-12.8-7-19.4-10.2l-9.3-4.1c-3.2-1.5-6.4-3-9.6-4.2l-9-3.5a129 129 0 0 0-5.3-1.9c-1.7-.6-3.1-.9-4.7-1.2l-5.1-1a100.8 100.8 0 0 0-26.5.5l-10.3 1.5c-7 1-13.8 2-20.8 2.8l-20.4 2.5-10.3 1.4-10.5 1.5-10.5 1.6-10 1.3c-7 1-13.9 2.1-20.9 3.3l-13 2.3-6.6 1.1c-2 .3-4 .6-5.9.7-2 .2-4.1 0-6.5 0h-7.4A3.5 3.5 0 0 0-37 527a3.5 3.5 0 0 0 3 4.2l2.4.3 3 .2h9.6c1.5 0 3-.3 4.5-.5 6.7-1 13.4-2.3 20-3.5l20.4-3.2 10.8-1.5 10-1.4 20.7-2.9 20.8-2.6 20-2.7 10.2-1.5 5.3-.8c1.6 0 3.2-.3 4.8-.4 4-.3 8-.3 12 0a72.6 72.6 0 0 1 14 3.1c2.9 1 5.7 2.3 8.6 3.5 3 1.1 6.1 2.5 9.1 3.8 6 2.8 12 5.6 18 8.6l4.2 2.1c-.3 1.4-.1 2.9.4 4.2l1.4 3.9a100 100 0 0 0 2.9 7l3 6.6 3 7c1.7 4.3 3.8 8.4 5.9 12.3 1 2.1 1.9 4.2 2.7 6.5l2.6 6.7 2.5 7 2.3 6.3c1.5 4.7 2.8 9.4 3.8 14.2l3.2 14.8a241.6 241.6 0 0 0 7.2 26.8l.8 2.7h-56l-1.7-.2a3.3 3.3 0 0 0-1.6 6.4c.5.1 1 .2 1.5.1l1.8-.2h21c10.7 0 21.3.3 32 .4l33.3.3h35c46.9 0 93.8.1 140.7.4l144.2.7 139.9.7 143.2.5c47.1.1 94.2.4 141 .6 45.6.2 91.3.4 136.9.4h100.3v-1Z" fill="#00426B"/>
    <path d="M-87.7 663.2h324.2c.5.3 1.2.5 1.9.5h1a3.9 3.9 0 0 0 2.7-4.7l-1.1-3.4-1-3c-1.2-4-2.2-8.2-3.2-12.4a411 411 0 0 0-4.4-16.7c-1.6-5.5-3.2-10.7-4.5-16l-3-12.8c-.8-4.3-2-9-3.2-13.3-1.3-4-2.8-8-4.7-11.9-2.2-4.5-4.6-8.8-6.8-13.2-2.8-5.3-5.3-10.7-7.7-16.2l-8-17-7.7-16.6-8-18.7-7.7-16.2-4.2-8.9a204.6 204.6 0 0 0-13.1-24.8 40.3 40.3 0 0 0-9.5-10.4l-4.1-2.8-7.4-4.2-8-4.5c-5.6-3.2-11.4-6-17-9.1l-8.3-4.6a227 227 0 0 1-8.1-4.8 235.4 235.4 0 0 0-16.8-9.3c-2.6-1.3-6.4-3.8-9.6-5.9l-5.5-3.8a337.4 337.4 0 0 1-8.7-7.4l-3.2-3.3-2.8-3.6c-1-1.2-1.3-2-1.9-3-.6-1-.4-1.1-.6-1.6-.6-1.6-1-3.3-1.4-5l-1.4-6.6c-1-4.3-1.8-8.7-2.7-13l-.4-2-1.8-8.6v.4l-1.9-9-2.6-12.4-.3-2v.5A308.7 308.7 0 0 0 14 248.4c-2.2-5.8-4.2-11.7-6.8-17.4A66.3 66.3 0 0 0-8 209.1c-2.2-2.3-4.2-4.6-6.6-6.8a366.1 366.1 0 0 0-21.6-18 301.2 301.2 0 0 1-16.3-12.2c-3-2.3-5.4-4-8-6.3a98.3 98.3 0 0 1-3.9-3.4l-3.5-3.5-5.3-5c-1-1.2-1.8-2.4-2.6-3.6-1.2-1.6-2.3-3.4-3.3-5.1l-4.2-7.1c-1.3-2.3-2.8-4.2-4.1-6-1.4-2-3.3-4.2-4.8-6.7l-10.3-14.9c-3.5-4.9-7.5-10-11-15-1.6-2.3-3.1-4.5-4.8-6.6A44.4 44.4 0 0 0-130 78.5c-2.3-1.4-4.8 35-7.3 34-2.5-1.1-54.6 16.6-54.7 29.1 0 12.5 5.3 117 5 141.6l-.4 74-.5 75-.7 74.2-.7 74.4c0 11.7-.3 23.4-.4 35V646l.3 3.7a30.1 30.1 0 0 1-.2 4.6v1.3a3 3 0 0 0 .5 2.1 3.7 3.7 0 0 0-1.5 2.8c0 .8.2 1.6.7 2.3.6.7 1.5 1.2 2.4 1.4h99.7v-1Zm99.9-403.1-.7-1.9.7 1.8v.1Zm-37.5-61.3-1.2-1.1 1.2 1v.1Z" fill="#00426B"/>
    <path d="M-35.2 664.1H-71c-2-4.2-4.2-49.4-6.1-53.7l-1.5-3.3c.4-1.1.8-2.2 1.4-3.2 5-7.5 11.8-13.7 19.6-18.2 9-6 19.8-9.2 30.6-8.9.9 0 1.9-1.2 2.7-1.8-.7-.9-1.3-2-2.2-2.5-1.7-.5-3.3-.8-5-1-8-2.1-16.3-2.8-24.5-2-9.2 1.6-17.6 4.5-21.9 13.7-1.9 4.2-3.2 8.4-4.7 12.6l-1.6 5-10.4-11.5c-9.4-10.6-19.8-20.3-26.6-33-5.1-9-9-18.7-11.7-28.7-1.3-5.2-1.8-10.5-2.6-15.7 8.4-4.8 16.8-10 25.4-14.3 18.4-9.3 37.6-17 57.3-23 2.2-.7 5-1.1 5-4.3 0-3-3-3.7-5.3-4.1a170.3 170.3 0 0 0-50.7-5.5c-17.7 1.3-26.6 8.4-31.3 25.5l-2.7 10.2c0-10.5-.5-21-.5-31.6a40.5 40.5 0 0 1 16-32.9 174.7 174.7 0 0 1 30.8-19.8c2.4-1 4.8-1.7 7.3-2.2h5.2c.2.3.5.4.8.6 9.6 1.4 18.6 5 26.4 10.5a31.3 31.3 0 0 1 15.5 28.1c0 10.7 1.5 21.3 4.5 31.5l8.6 26.8-5.3-1.1a79.3 79.3 0 0 0-50 10c-10 5.8-19.1 12.6-27.6 20.3a3.7 3.7 0 0 0-.9 3.2 3.5 3.5 0 0 0 3 1.3c5-1.2 10-2.7 15-4 15-3.4 29.8-7 44.8-10.2 8.8-2 17.9-3 26.8-4.6l1.6 2.6c2.2 5 4.2 10 6.6 14.7 3.3 5.7 7 11.3 11 16.5 2.2 3.1 4.6 2.8 6.1-.6 2-4.6 3.6-9.3 4.6-14.1 1-6 3.6-11.4 7.6-16A46.9 46.9 0 0 1 66.8 512c3.8 1.4 7.2 3.6 10 6.4a109.6 109.6 0 0 1 29.6 53l.8 4.2v5.3l-1.5 8.3a845 845 0 0 0-6 75h-113C-8.8 662-28 638.8 0 616.7c11.3-8.9 27.1-9.6 41-13.2 12.2-3.2 24.8-4.8 37.2-7.1 1.9-.4 4.2-.7 4.2-3.3 0-2.6-2-2.7-3.8-3l-9.1-1.6c-8.4-1.8-17.2-1-25.2 2.3-5.1 2.3-10.4 4.2-15.6 6.5a7.3 7.3 0 0 1-7.5-1c-5.1-3.5-10.5-6.6-16.1-9.2a18 18 0 0 0-22.8 5.7A189 189 0 0 0-31 613.1c-2.1 3-2.9 47.6-4.2 51Z" fill="#FFF384"/>
    <path d="M-35.2 664.1c1.3-3.4 2.2-48 4.2-51.2 4-7 8.4-13.9 13.3-20.3a18 18 0 0 1 22.8-5.7c5.6 2.5 11 5.6 16.1 9.2a7.3 7.3 0 0 0 7.5 1c5.2-2.3 10.5-4.2 15.6-6.6 8-3.3 16.8-4 25.2-2.3l9 1.5c1.9.4 3.9.8 3.9 3.2 0 2.3-2.1 2.8-4.2 3.2-12.6 2.3-25.2 4-37.2 7.1a510.8 510.8 0 0 0-41 13.2c-4.7 1.7-16.5 18.4-13.4 47.7h-21.8Z" fill="#fff"/>
    <path d="M73.7 541.5c2 1.4 3.5 3.2 4.5 5.4a6.1 6.1 0 0 1-.5 7.7c-3.3 4.6-8.1 8-13.6 9.5-4 1-8 1.1-12 .5a35.7 35.7 0 0 1-6.5-1.2 30.6 30.6 0 0 1-13.3-12 5.6 5.6 0 0 1 .3-6.3 32.2 32.2 0 0 1 17.5-11c-.8 1.2-1.5 2.4-2 3.6a10.2 10.2 0 0 0 2.6 12.3 30 30 0 0 0 6.8 4.2 12.3 12.3 0 0 0 16-8.8l.2-4Z" fill="#fff"/>
    <path d="M73.7 541.5c0 1.2 0 2.5-.3 3.7a12.3 12.3 0 0 1-15.9 8.8 30 30 0 0 1-6.8-4.2 10.2 10.2 0 0 1-2.7-12.2l2-3.7a34 34 0 0 1 13.8 1c4 1 7.5 3.3 10 6.6Z" fill="#00426B"/>
    <path d="M510.1 541a15.5 15.5 0 0 1-4.9-5.9 6.8 6.8 0 0 1 .6-8.6 27.9 27.9 0 0 1 28.3-11.2c1.6 0 3.1.5 4.7.8.8 0 1.7.3 2.5.6A34 34 0 0 1 556 530a6.1 6.1 0 0 1-.4 6.9 19.2 19.2 0 0 1-4.5 4.8 36 36 0 0 1-14.7 7.4l2.3-4a11.4 11.4 0 0 0-3-13.6 31.3 31.3 0 0 0-7.6-4.4 13.6 13.6 0 0 0-17.6 9.7l-.4 4.3Z" fill="#fff"/>
    <path d="M510.1 541c0-1.3.2-2.7.4-4a13.6 13.6 0 0 1 17.6-9.8c2.7 1.1 5.2 2.6 7.5 4.4a11.4 11.4 0 0 1 3 13.6c-.6 1.4-1.4 2.7-2.2 4a38 38 0 0 1-15.3-1c-4.4-1-8.2-3.6-11-7.1Z" fill="#00426B"/>
    <path d="m677.1 105.8 1-.2 1.6 2c5.2 8.8 9.6 18 13 27.7l2.3 7.3 1.7 12.2a60.5 60.5 0 0 1-17 39.8c-2.5 2.2-5.1 4.2-8 5.9 0-2.8-.1-5.6.1-8.3 0-1.6.6-3.1 1.5-4.4l12.2-13.3 4.5-5c.3-.3 0-1 .1-1.7h-2c-.5.3-1 .6-1.3 1l-12.2 12-1.4 1.4-.4-2.2c0-4.7 1.2-9.4 3.3-13.6a85.5 85.5 0 0 1 10.8-18.3c.9-1 2.4-2.5.9-3.8-1.6-1.3-2.7.4-3.6 1.5a54 54 0 0 0-9.5 13.5l-1.6 2.3c-.7-4.2-.2-8.4 1.4-12.2 2.8-5 5.8-9.9 8.6-15 .2-.7.3-1.5.3-2.2-.8 0-2 .2-2.3.7-1.7 2-3 4.1-4.3 6.2l-2.5 3.8c0-6.3.6-12.4 1-18.5.3-2.1.3-4.3.3-6.5-.1-.7-.7-1.4-1.2-2-.5.6-1.2 1-1.4 1.8-.8 3.3-1.5 6.7-2.1 10-.7 3.4-1.2 6.9-1.8 11l-1.1-3.4c-1-2.5-1.8-5-2.9-7.4 0-.6-1.3-.8-2-1.2-.4.7-.6 1.5-.8 2.2 0 .8.1 1.5.3 2.2l5 19.2c.2 1.4.2 2.7 0 4.1h-.6l-1.7-3.2c-2-3.2-3.7-6.6-5.8-9.5-.5-.8-1.8-1.2-2.7-1.8-.2 1-.3 2.2-.2 3.2.4 1.6 1 3 1.8 4.5 2.3 5.3 4.8 10.4 6.9 15.8a23 23 0 0 1 1.4 10.6c-2.7-3.6-5.4-7.1-8.3-10.5-.7-1-1.8-2.3-3.2-1.2-.4 0 .3 2.2.7 3.2 3.1 4.7 6.5 9.7 9.6 14.6.6.7 1 1.6 1.1 2.5l.1 15.4-7.9-12a52.8 52.8 0 0 1-8.2-18l-1.7-11.7c.3-2.9.4-5.8.8-8.6 2.3-14.7 10-28 21.6-37.4 2-1.7 4-3 5.8-4.5Z" fill="#67C04D"/>
    <path d="M667 197.9c0-5.2 0-10.3-.2-15.4a5 5 0 0 0-1-2.6c-3.3-4.7-6.6-9.6-9.7-14.6-.6-.9-1-2.8-.7-3.1 1.3-1.2 2.5.2 3.2 1.2 2.9 3.3 5.6 6.9 8.3 10.5a23 23 0 0 0-1.4-10.6c-2-5.4-4.6-10.6-7-15.9-.7-1.4-1.3-2.9-1.7-4.4-.1-1 0-2.2.2-3.2 1 .6 2.2 1 2.7 1.8 2.1 3.2 3.9 6.5 5.7 9.5l1.8 3.3.6-.1c.2-1.4.2-2.7 0-4.1l-5-19.2c-.2-.7-.3-1.4-.3-2.2.2-.8.4-1.5.8-2.2.7.4 1.7.6 2 1.2 1 2.4 2 4.9 2.8 7.3.2 1 .7 1.9 1.2 3.5.6-4.1 1.1-7.6 1.8-11a197 197 0 0 1 2.1-10c.2-.8.9-1.3 1.4-2 .4.8 1.2 1.5 1.2 2.2 0 2.2 0 4.3-.2 6.5-.5 6.1-1 12.2-1.1 18.5l2.5-3.8c1.4-2.1 2.7-4.3 4.3-6.2.3-.5 1.5-.5 2.3-.8 0 .8 0 1.6-.3 2.3l-8.6 15c-1.6 3.8-2.1 8-1.4 12.1l1.6-2.2a54 54 0 0 1 9.4-13.6c1-.9 2-2.6 3.6-1.4 1.6 1.2 0 2.7-.8 3.8-4.3 5.6-8 11.7-10.8 18.3a31.2 31.2 0 0 0-3.3 13.6l.3 2.2 1.5-1.4 12.2-12c.3-.4.8-.8 1.4-1h2c0 .6.1 1.4-.2 1.8a52.6 52.6 0 0 1-4.5 5c-4 4.3-8.2 8.7-12.2 13.2a8 8 0 0 0-1.5 4.3c-.2 2.8 0 5.6 0 8.3l-1 .9-1.7.2-2.4-3.5Z" fill="#FFF384"/>
    <path d="m665.5 172.9 1.2 8.6v9.2A51 51 0 0 1 662 215c-2.6-3.6-5.3-7-7.7-10.7a9.2 9.2 0 0 1-1.4-4.4c-.2-3-.1-6.1.2-9.2l3-21c.3-2.2.4-4.5.4-6.7-.1-.8-.9-1.5-1.3-2.3l-2.3 1.6c-.2.4-.4.8-.4 1.2l-3.8 23c-.3 1.9-.3 3.9-.5 6.5a36.3 36.3 0 0 1-7.2-12c-4-11.8-6-24-5.9-36.4 0-2.5 0-5-.4-7.6a3 3 0 0 0-2-1.9c-.5.1-1.6.8-2 1.4a64.7 64.7 0 0 0-.5 24.3l1 8-.8.2-5.9-9c-1.4-2.4-2.3-5-2.8-7.8a133 133 0 0 1-2.7-25c0-1.3-.4-2.6-2-2.5-1.5 0-1.9 1.3-1.9 2.6l.1 8.1.8 10.2c-.9-.8-1.7-1.7-2.3-2.7l-16.3-26.1c-.8-1.2-1.8-2.3-2.9-3.2a2 2 0 0 0-2-.1c-.3.3-.5 1.2-.4 1.9.1.7.4 1.4.8 2l12.1 25 1 2c-3-1.8-5.6-3.9-8.4-5.7a34.6 34.6 0 0 0-5.9-3.2c-.8-.3-2 .2-3 .7.2 1 .3 2.3 1 2.9 1.5 1.4 3.2 2.7 5 3.9 7.1 4.8 13.8 10.3 20 16.4 1.4 1.5 2.6 3.4 4 5.1l-.6.4-2-.8-15-6.8c-1.7-.8-3.5-1.4-5.4-1.8-1-.2-2 .6-3 .9.2 1 .6 2 1 2.8.8.8 1.7 1.4 2.7 2l17.8 9.5a53 53 0 0 1 19.8 17.7l-2.5-1-15.7-4.7c-1.4-.3-2.8-.4-4.1-.2-.7 0-1.8.9-1.8 1.4a3 3 0 0 0 1.2 2.2 21 21 0 0 0 4 1.6l23 8.3a6 6 0 0 1 2.6 1.6l13.6 18.2c-5.4-2.1-11.4-4.2-17-6.2a82.1 82.1 0 0 1-50.3-47c-1.3-3.3-2.4-6.6-3.5-9.8l-2-14.8.2-1.1c-.8-11.8.7-23.6 4.5-34.8 1.3-4 1.8-4.4 5.5-2.7 7 3.2 13.8 6.7 20.7 10a125 125 0 0 1 29.5 20.3 69 69 0 0 1 22 37l1.7 6.2Z" fill="#67C04D"/>
    <path d="M661.9 215c-1.4 3-1.7 3.2-4.8 2.3l-2.8-1c-4.6-6-9-12.1-13.7-18.1a6 6 0 0 0-2.5-1.6c-7.6-2.9-15.4-5.5-23-8.3a21 21 0 0 1-4-1.7 3 3 0 0 1-1.3-2.2c0-.5 1.1-1.2 1.8-1.3 1.4-.2 2.8-.2 4.1.2 5.4 1.4 10.7 3 15.7 4.7l2.6 1-1.3-2a53 53 0 0 0-18.6-15.7l-17.8-9.6c-1-.5-1.9-1.1-2.6-2-.5-.8-.9-1.8-1.1-2.8 1 0 2-1 3-.8 1.9.4 3.7 1 5.4 1.7l15 6.8 2 .9.6-.4c-1.4-1.7-2.6-3.6-4-5.2a129.4 129.4 0 0 0-20-16.3 40.5 40.5 0 0 1-5-4c-.6-.6-.7-1.8-1-2.8 1.1-.1 2.3-1 3-.8 2.1 1 4 2 6 3.3l8.4 5.6-1-2-12.2-25c-.4-.6-.7-1.2-.8-2 0-.6 0-1.6.5-1.9a2 2 0 0 1 2 .1c1 1 2 2 2.8 3.2l16.4 26.1c.5 1 1.3 2 2.3 2.8-.5-3.5-.7-7-.9-10.2-.3-2.7-.1-5.4 0-8-.2-1.4.3-2.8 1.9-2.8 1.6 0 2 1.3 1.9 2.6.1 8.4 1 16.8 2.7 25 .5 2.7 1.5 5.3 2.9 7.7 1.8 3.1 3.7 6.1 5.9 9h.8l-1.1-8.1a64.7 64.7 0 0 1 .5-24.3c.4-.7 1.5-1.5 2.1-1.4a2.9 2.9 0 0 1 2 1.9c.2 2.5.4 5 .4 7.6-.1 12.3 1.9 24.6 5.8 36.3 1.6 4.5 4 8.5 7.2 12 .2-2.6.2-4.6.5-6.5l3.8-22.9c0-.4.2-.8.4-1.2l2.3-1.6c.4.7 1.3 1.5 1.3 2.2 0 2.3-.1 4.6-.4 6.8l-3 21c-.3 3-.4 6.1-.2 9.2.1 1.5.6 3 1.5 4.4l7.6 10Z" fill="#FFF384"/>
    <path d="m655.5 191.1 7.2-7.2c.2.8-.2 1.8-.3 2.7l-9.6 47-.4 2.6c11.9 4 24.3 6.2 36.9 6.4-.1-.8-.5-1.2-.7-1.7a315.6 315.6 0 0 1-16.6-44.7l-4.9-16.5 4.5-4.6c3 10.4 5.7 20.8 9.5 31 4 11.4 8.9 22.5 13.3 34.1a2.4 2.4 0 0 0 3.3 1.8c2.7-.7 5.4-1 8.1-1.6a56 56 0 0 0 28.5-15.2c1.2-1.1 2.2-2.5 3.3-3.7L716.7 201 681 166.5l3.1-2 1.5 1.5c11.4 10.5 23 21 34.3 31.6 6.9 6.4 13.6 13 20.4 19.5l1.1-1.6a85 85 0 0 0 9.6-36.9 2.6 2.6 0 0 0-1.4-1.9c-4.9-2.1-9.9-3.7-14.6-6.2-12.5-6.2-24.9-12.8-37.2-19.2l3.4-2.7.9.6c15 8 30.4 15 46.2 21.4l3.5 1.3-4.8-34c-12.8.4-25.6 1.6-38.2 3.5l8.8-7 28.6-2.4-4.4-17.8 7.6-6.2.7-1h.9c.8.6 1.5 1.4 2 2.3 4.7 10.4 8.4 21.2 11.2 32.3.3 2 1 3.8 1.6 5.7l1.3 9.5-.1 1.6c1.5 15 .7 30.3-2.5 45.1a54 54 0 0 1-12.2 26.2 80.4 80.4 0 0 1-31.7 20.3l-8.3 3-13.3 1.8-6.1-.2c-13-.1-25.8-2-38.2-5.8-13-4-26.5-7.3-36-18.3l-.3-1.8 4.4-5.8c.5-.4 1.1-.7 1.7-.9 7 5 14.6 9 22.7 12l3.4-18.3c1.4-8.1 3.2-16.4 4.9-24.6Z" fill="#EC7725"/>
    <path d="m680.8 166.2 35.8 34.7 20.8 20.4c-1 1.1-2 2.5-3.3 3.7a56 56 0 0 1-28.4 15.2c-2.7.4-5.5.7-8.1 1.5a2.4 2.4 0 0 1-3.3-1.7c-4.4-11.3-9.3-22.5-13.4-34.2-3.5-10.1-6.2-20.6-9.4-31l9.3-8.6Z" fill="#fff"/>
    <path d="M697.6 151c12.3 6.5 24.7 13 37.2 19.3 4.7 2.3 9.7 4 14.6 6.2a2.7 2.7 0 0 1 1.4 2 85 85 0 0 1-9.6 36.8l-1 1.6c-7-6.6-13.6-13.2-20.5-19.5l-34.3-31.6-1.5-1.6c.1-.6.4-1.2.7-1.7l12.3-11.2c.2-.2.7-.2.7-.2Z" fill="#fff"/>
    <path d="m666.9 179.7 5 16.5c4.3 15.3 9.9 30.3 16.5 44.8 0 .4.4.9.7 1.6-12.6-.2-25-2.3-37-6.3l.5-2.7 9.5-47 .4-2.7.4-.5 4-3.7Z" fill="#fff"/>
    <path d="M708.6 141.2c12.7-2 25.4-3.1 38.2-3.6l4.8 34-3.5-1.2A497 497 0 0 1 702 149l-.9-.6c0-.4.3-1 .6-1.3l7-6Z" fill="#fff"/>
    <path d="m655.5 191.1-5.2 24.8L647 234c-8-3-15.7-7-22.6-12 1.3-1.5 2.5-3 4-4.5l13.8-13.7c4.8-4.6 8.1-8 12.1-12l1.3-.8Z" fill="#fff"/>
    <path d="m741.6 114 4.4 17.8-28.5 2.4 3-3.2c6.4-5.4 13-10.7 19.5-16l1.6-1Z" fill="#fff"/>
    <path d="m663 183.4-.3.5.4-.5Z" fill="#EC7725"/>
    <path d="m174.3 595.4 2-2.5 10.2 3.6 11 3.8 11.6 3.4c2.7.8 5.6 1.4 8.7 2.2-.5-2.8-.7-5.2-1.3-7.5-1.3-5.5-2.8-10.8-4.2-16.3-.6-1.7-1.4-1.9-2.7-1.7l-12.2 2.5c-4.8 1.1-9.5 2.5-14.3 3.7l-1.2-.1 3.8-3.8c1.2-1.2 1.8-1.4 2.7-2.1l21.7-4.7-5-13.5 4.3-4.4c.7-.6 1.4-1 2.2-1.4a1.9 1.9 0 0 1 1.6.7c1.2 2 2.4 3.9 3.4 5.9 1.6 3 3.4 6.1 4.7 9.3 2.1 5.2 4.2 10.3 5.8 15.8a109.9 109.9 0 0 1 4.2 35.6c-.4 5.1-1.1 10.2-2.2 15.2-1 4.2-3 8.2-5.6 11.7a69.5 69.5 0 0 1-27.3 21c-5.8 2.3-12 3.7-18.2 4.2-7.5.7-15 .6-22.5-.2-5.9-.7-11.7-1.7-17.5-3-4.2-1-8.3-2.3-12.3-4a24.8 24.8 0 0 1-6-4.4 2.4 2.4 0 0 1-.2-2.2c1-1.7 2.2-3.2 3.4-4.7 6 3 12.5 5.4 19 7l1-12.4 1-11.2.8-9.7c.5-2.4 2.7-3.8 3.8-5.6l1.2-1.7c0 .2.5.4.5.6l-.6 6-.8 7.1-1.4 14.9-1 13a99.7 99.7 0 0 0 29.4 1.4 270.5 270.5 0 0 1-23-46.5l3.1-3.9 7.3 17.1c1.8 4.1 3.6 8.3 5.7 12.3 3.3 6.2 6.8 12.3 10.2 18.3.7 1.2 1.5 2.2 3.1 1.2l2-.6a46 46 0 0 0 26.3-17.6c.7-1.1.7-1.7-.5-2.5-3.8-2.7-7.5-5.4-11.2-8.3l-6.5-5.1-12.6-9.1-6.7-5-10.4-8.4 1.6-2.1 49 34.8c.1 0 .3 0 .3-.3 1-3.3 2.3-6.7 3.2-10 1.5-6.5 2-13.2 1.5-19.8a1.7 1.7 0 0 0-1.5-1.7l-2.8-.7c-4.8-1.3-9.7-2.4-14.3-4.1-8.5-2.9-17-6.2-25.3-9.5Z" fill="#F7E26A"/>
    <path d="m162.6 608.7 10.4 8.4 6.6 5 12.7 9.1 6.5 5.1c3.6 2.7 7.4 5.7 11.2 8.4 1.2.8 1.2 1.4.4 2.5a46 46 0 0 1-28.2 18.2c-1.7 1-2.4 0-3.1-1.2-3.4-6-7-12.1-10.2-18.3-2.1-4-4-8.2-5.8-12.3l-7.2-17.1 6.7-7.8Z" fill="#fff"/>
    <path d="M174.3 595.4c8.4 3.3 16.8 6.6 25.3 9.6 4.7 1.7 9.5 2.8 14.3 4.1l2.9.7a1.7 1.7 0 0 1 1.4 1.7c.5 6.6 0 13.3-1.5 19.7-.8 3.4-2.1 6.8-3.2 10.1l-.3.3-49-34.8 6.4-7.4 3.7-4Z" fill="#fff"/>
    <path d="M153 620.4a270.6 270.6 0 0 0 23 46.4c-10 1-19.8.6-29.5-1.3.3-4.5.5-8.8 1-13.1.3-5 .9-9.9 1.4-14.9l.7-7 .6-6a1 1 0 0 0-.5-.7l3.2-3.4Z" fill="#fff"/>
    <path d="M181.9 586.5h1.2c4.8-1.1 9.5-2.4 14.3-3.6 4-1 8.1-1.7 12.2-2.5 1.3-.4 2.3 0 2.7 1.7l4.2 16.3c.8 2.2.8 4.7 1.3 7.5-3.1-.8-6-1.4-8.7-2.2-3.9-1-7.7-2.2-11.5-3.4l-11.1-3.8-10.2-3.6 5.6-6.4Z" fill="#fff"/>
    <path d="m144.8 631.1-.8 9.7-1.1 11.3-.9 12.3c-6.6-1.6-13-4-19-7l5-5.9 12.3-15.5c1-1.4 2-2.8 3.2-4.1l1.3-.8Z" fill="#fff"/>
    <path d="m205.3 562.4 5 13.4-21.8 4.7c.5-1 1.1-2 1.9-2.8l11.7-11.9 3.2-3.4Z" fill="#fff"/>
    <path d="M622.2 663.3c1.2-.3 2.2-1 3-2 .6-1 1-2.1 1-3.3v-2.7c0-1 .3-1.8.5-2.7.4-1.8.8-3.7 1.4-5.5l.7-1.8 1.5-2.6c1.2.3 2.5.5 3.8.5h6.8l9.7-.6h2l3.1-.2h-1c10.6-.7 21.1-1.6 31.7-2.4l15-1.2 15.8-1.7c5.2-.7 11.1-1.4 16.7-1.8h2c5-.2 10.3-.5 15.5-.6l15.3-.2c10.3 0 20.5-.3 30.8 0 5.1 0 10.3.4 15.5.8l19.6 1.5h-1c3.7.3 7.4.6 11 .6a30.3 30.3 0 0 0 9.6-1.5 9 9 0 0 0 3-2.6l4 5.8a35.4 35.4 0 0 1 2.6 4.7v.5a2 2 0 0 0 1.8 1.6 2.3 2.3 0 0 0 2.3-1.1c.6-1.4.6-3 0-4.4-.5-1.5-1.1-3-1.8-4.4l-4-7a152.3 152.3 0 0 0-10.3-13.2 123.7 123.7 0 0 0-33.8-26.9h-.7l-.5-.2h.3l-.4-1.2a89.6 89.6 0 0 0-40-9.5h-8c-5.4.3-10.6 1-16 1.3h-1.5c-1.7 0-3.5.3-5.3.3h-7.2a58 58 0 0 1-16-3.5l-1-.4c-4.8-1.7-9.4-3.6-14-5.3-2.3-1-4.5-2-6.8-2.7l-1.3-.4a8 8 0 0 0-3.6 0 17 17 0 0 0-3.6 1.3c-2.4 1-4.6 2-6.9 3.2a38.3 38.3 0 0 0-6.6 4c-2.2 1.8-4 4-5.2 6.5-1.3 2.4-2.4 4.8-3.6 7.3l-1.4 2.9a78.3 78.3 0 0 1-8 12 44 44 0 0 1-2.7 2.8c-4 3.3-8 6.3-12.3 9-4.2 3-8.3 6.2-12.2 9.5a54.2 54.2 0 0 0-13.3 16.8l-1.5 4a32 32 0 0 0-1.7 8 10 10 0 0 0 1.8 6.6 5.7 5.7 0 0 0 4.4 2.2h1Z" fill="#F7E26A"/>
    <path d="m866.2 644.4-3.4 20.6H616.4l1.4-22.4 31.7-11.5 201.2-4.4 15.5 17.7Z" fill="#F7E26A"/>
    <path d="M746.2 616.6a8 8 0 0 0 2.3-.7c1-.4 2-1 2.7-1.7a16 16 0 0 0 3.1-4.7c1.3-2.7 1.9-5.7 1.7-8.6 0-2-.5-3.8-1.4-5.5-.9-1.6-2.3-2.9-4-3.7a8 8 0 0 0-5-.2h-1.4c-.8 0-1.6.3-2.4.4-1 .3-2 .5-3 1a8.9 8.9 0 0 0-6 8.3 20.8 20.8 0 0 0 5.2 12.3c.4.5 1 1 1.5 1.3l1 .7c.6.3 1.2.6 2 .8.6.2 1.4.3 2 .3h1.7Z" fill="#fff"/>
    <path d="M713.2 617.6a6.5 6.5 0 0 0 2.4-12.1 6.5 6.5 0 0 0-9.7 6.5 6.6 6.6 0 0 0 6.4 5.7h1Z" fill="#fff"/>
    <path d="M733.7 633.3a6.5 6.5 0 0 0-1.8-9.5 6.5 6.5 0 0 0-6.9 0c-1.1.7-2 1.8-2.6 3-.4 1-.6 2.1-.4 3.2a7.1 7.1 0 0 0 1.4 3.2l.6.6.2.3a6.1 6.1 0 0 0 9.5-.8Z" fill="#fff"/>
    <path d="M683.9 621.7a5 5 0 1 0-10 0 5 5 0 0 0 10 0Z" fill="#fff"/>
    <path d="M798.9 643.8c.4-.3 24.2-11 24.7-11.3 6.7-4 12.5-9.2 17.3-15.4l6-8a64.4 64.4 0 0 0 10.8-21.4 95.6 95.6 0 0 0-7.6-71c-.2-.3-.5-.5-.8-.6h-1c-.3 0-.7 0-1 .2l-2.5 1.3c-9.2 6.4-18.4 12.6-27.5 19.2-7.9 5.9-15 12.7-21 20.4a71.6 71.6 0 0 0-16.5 36.5l-1.1 7.7v14.1l.4 1.3 2.7 17c6.2 6.4 12.5 10.2 17 10.2 0-.7-3.1-11.7-3.1-12.4-.9-8-2.5-15.9-5-23.5-1.3-4-2.3-8-3.4-12-.4-1.4-.6-3-.6-4.4a2 2 0 0 1 1-1.8 2.6 2.6 0 0 1 2.2.7 8 8 0 0 1 1.4 2.7 210 210 0 0 1 3.4 10.7l3.6 13 1.1 5.6c3-4.1 5-8.9 6-13.9a136 136 0 0 0 1.3-37.2c-.5-3.1-.8-6.2-.8-9.3a2.7 2.7 0 0 1 1.6-2.2c.7-.2 1.7.5 2.5 1a97 97 0 0 1 3.4 13.8c.6 6.3.5 12.5.7 18.8v1.7c1.8-2.8 3.2-5.6 4.6-8.4 1.9-3.5 2.8-7.5 2.7-11.6V568c.5-6 .3-11.9-.7-17.7-.3-1.4 0-2.7 1.5-3 1.4-.4 2.4.8 2.5 2.3l1.2 11.2.5 8.9.6-1 10.3-22.6 6-12.5c.6-1.1 1.6-2.1 3-1.5 1.4.6 1 1.9.6 3l-9.5 29.3-.8 1.9c1.9-1.4 3.7-2.8 5.4-4.4a114.2 114.2 0 0 1 8.8-7 2.4 2.4 0 0 1 2.8.8c1 1.3.2 2.5-.8 3.5-2.2 2.2-4.3 4.5-6.7 6.5a114.6 114.6 0 0 0-16.7 18.3 45.2 45.2 0 0 0-3.2 5.6l.5.3 2.4-1.5c5-3.2 9.9-6.1 14.8-9a29 29 0 0 1 5.6-2.6 2.7 2.7 0 0 1 2.4.6 3.2 3.2 0 0 1-.2 2.7c-.9 1.1-1.9 2.1-3 2.9l-16.3 11.7a57 57 0 0 0-17.8 18.6l-1.2 2.9.3.3c1-1 2.2-1.8 3.5-2.4 5-2.3 10-4.4 15.2-6.4 1.2-.5 2.6-.7 3.9-.6a2.3 2.3 0 0 1 1.7 1.2c0 .8-.2 1.6-.7 2.2-.3.4-.8.8-1.3 1l-15 7.8-11.5 6c-.8.4-1.4 1-1.8 1.7-1.3 2-15 17-8.8 17Z" fill="#67C04D"/>
    <path d="M807.8 626.5c.5-.7 1.1-1.3 1.8-1.6 3.9-2.1 7.7-4.2 11.5-6l15-8c.5-.1 1-.5 1.4-.9.5-.6.7-1.4.7-2.2a2.3 2.3 0 0 0-1.7-1.2c-1.4 0-2.7.1-4 .6l-15.2 6.4c-1.2.7-2.4 1.5-3.4 2.4l-.4-.3 1.3-2.9a57 57 0 0 1 17.7-18.6l16.3-11.7c1.2-.8 2.2-1.8 3-3a3.2 3.2 0 0 0 .3-2.6 2.7 2.7 0 0 0-2.5-.6 29 29 0 0 0-5.5 2.5l-14.8 9-2.4 1.6-.5-.3c.9-2 2-3.8 3.2-5.6 4.9-6.7 10.5-12.8 16.7-18.3 2.3-2 4.5-4.3 6.7-6.5 1-1 1.8-2.2.7-3.5a2.4 2.4 0 0 0-3.6-.2c-2.7 2-5.3 4.3-8 6.4-1.6 1.6-3.4 3-5.3 4.4l.7-1.9c3.3-9.7 6.5-19.5 9.6-29.3.3-1 .8-2.4-.7-3-1.4-.6-2.3.4-2.9 1.5-2.1 4.1-4.1 8.3-6 12.5l-10.3 22.6-.7 1c-.2-3.2-.2-6-.5-8.9l-1.1-11.2c-.2-1.5-.9-2.7-2.6-2.3-1.7.3-1.7 1.6-1.4 3 1 5.9 1.2 11.8.7 17.7v7.5c0 4-.8 8-2.7 11.5-1.5 2.8-2.8 5.6-4.7 8.4v-1.7c-.2-6.2 0-12.5-.7-18.7-.6-4.2-1.5-8.3-2.6-12.3 0-.6-.4-1.1-.8-1.5-.7-.5-1.8-1.3-2.5-1a2.7 2.7 0 0 0-1.6 2c0 3.2.4 6.3.8 9.4a136 136 0 0 1-1.3 37.2c-1 5-3 9.8-6 14l-1-5.6c-1.2-4.3-2.3-8.7-3.6-13-1-3.7-2.2-7.2-3.4-10.8a8 8 0 0 0-1.4-2.6 2.6 2.6 0 0 0-2.1-.8 2 2 0 0 0-1.1 1.8c0 1.5.2 3 .6 4.5 1 4 2 8 3.4 12 2.4 7.5 4.1 15.4 5 23.4 0 .8 0 1.5-.2 2.3 4.6-1.2 8.8-3.6 12.1-7Z" fill="#F7E26A"/>
  </g>
</svg>