<svg version="1.1" id="Layer_1" xmlns="http://www.w3.org/2000/svg" xmlns:xlink="http://www.w3.org/1999/xlink" x="0" y="0" viewBox="0 0 1440 642" xml:space="preserve">
  <style>
    .st1{fill:#6b013c}.st2{fill:#f88ec5}.st3{fill:#febc3f}.st4{fill:#fff}.st5{fill:#e23481}.st6{fill:#85ca67}
  </style>
  <g>
    <defs>
      <path id="SVGID_1_" d="M0 0h1440v642H0z"/>
    </defs>
    <clipPath id="SVGID_00000129194761238435699540000005392436497741345664_">
      <use xlink:href="#SVGID_1_" overflow="visible"/>
    </clipPath>
    <g clip-path="url(#SVGID_00000129194761238435699540000005392436497741345664_)">
      <path class="st1" d="M953 613c-1-8-1-17-5-25-9-7-8-8-13-18l-17-20c-2-1-5-1-5 1-4 15-13 20-20 30-5 9-4 21-12 28-2 3 2 7 5 4-1 6-2 38 7 37 19-1 39-2 57-7 4-9 3-20 3-30zm-29-45v-2l1 2h-1zm-23 12 1-1-1 1z"/>
      <path class="st2" d="M951 594c-2-5-5-9-10-12-2-8-17-31-26-33-3 2-3 7-3 11 1 6 6 9 9 15l-1 3c-1 3 1 5 4 6l4 5c4 9 13-1 20 7 1 2 5 0 3-2z"/>
      <path class="st1" d="M652 546c1-1 23-12 31-33 8-22 20-26 21-34s20-53 23-61 21-7 31 7c10 13 14 3 25 15 10 13 29 17 32 41 2 25 13 42 23 50 9 9 11 23 32 43 22 20 30 93 43 101H652V546z"/>
      <path class="st2" d="M867 571c-3-4-5-11-10-12-5-13-14-24-22-34l-16-27c-1-2 0-6-2-8-1-2-2-4-4-3-19-37-19-44-56-66l-11-7c-1-1-3 1-2 1 5 4 6 9 9 14 8 20-15 38-6 57 4 9 17 7 21 16 3 8 1 19 11 23 7 4 17 1 23 8 5 13 11 15 25 17 11 2 21 8 29 16l11 5z"/>
      <path class="st1" d="M255 606c18-45 49-106 114-126 19-8 15-18 37 0 54 54 109 168 157 219H255v-93z"/>
      <path class="st3" d="M64 127c2 8 7 16 12 23 5 5 12-1 11-6 0-8-21-36-23-17z"/>
      <path class="st1" d="M72 128c-1 4 4 10 6 13 3 4 6-2 3-4-1-3-4-11-9-9z"/>
      <path class="st3" d="M122 273c11-3 17-21 15-32-1-7-11-7-15-2-3 7-16 35 0 34z"/>
      <path class="st1" d="M126 264c5-2 10-13 7-16-1-2-3-2-4-1h1-2l-2 6v-1l-4 8v1s0-1 0 0c0 2 2 4 4 3z"/>
      <path class="st3" d="M157 35c9-4 18-34 12-42-5-5-14-3-16 3 0 8-11 41 4 39z"/>
      <path class="st1" d="M161 19c2-4 6-19-1-20-5 1-2 11-3 15-1 3 0 10 4 5z"/>
      <path class="st4" d="M116 140v2s-1-2 0 0c0 2 2 2 3 2 2 0 3-2 2-3 1-4-6-4-5 0-1-2 1-3 2-3l-2 1h1v-1l-2 2 1-1-1 1h1z"/>
      <path class="st5" d="M117 146c-4 3-15 12-8 16 6 3 16 2 14-7v-4l-6-3c-8 23 9 22 9 0l-6 1c5 4 9 11 15 12 14-7 4-18-6-22l-1 7c15-2 25-14 8-22-6-1-8 7-13 9l3 4c1-4 6-21-1-22-16-1-14 12-10 23l4-4c-12-6-27-3-20 13 7 5 17 1 25 1 4-1 3-6 1-8-3-3-7-2-11-2-5-5-15-1-10 7 3 4 11 1 11-4h4c7-2 4-10 6-15l-6-2c-2 14 11 21 21 11l1-4c-6-7-18 4-17 12 0 6 7 17 14 11 3-3-2-7-5-5h2c-7-3-4-13 3-13l-3-6c-5 7-12 4-10-5 0-1 0-3-2-3-8-2-4 9-6 13-3-1-9 1-9 5h1c3 2-2 2-1 4 3 3 7 2 11 1h1l2-3-17 1s1 2 0 0v-2c0-7 11 1 15 0 8-4-10-20 5-19l-3-3-2 17v3c6 5 12-5 16-8v-1c-2 0 5 4 1 5-4 3-16 2-12 9l10 7v1l-3 3h4c-4-2-14-18-17-8l-1 11c0 1-1 0 0 0l3 4 2-12c2-6-9-7-7 7 0 0 1 0 0 0l-5-1 2 5c1-3 10-16 4-15z"/>
      <path class="st2" d="m119 142 11 12c2 3 3 7 7 7 12-2-20-34-18-19z"/>
      <path class="st4" d="M123 137c3 1 3-6 0-5-3 0-3 5 0 5zM130 138c-7 1 1 10 3 3 0-4-6-4-6 0 2 7 10-1 3-3z"/>
      <path class="st5" d="m179 155-4-12v1c7-3 4 9 3 12h6c-2-5-2-12-5-16-8-3-6 8-6 12v2-1h2c1-1 0-1-1-1-3-2-7-4-11-3-11 0-11 15-2 18 5 2 23 0 16-8-3-3-22-5-15 4 5 2 12 1 14-3 2-7-13-8-13-1 1 5 17 6 16 1-1-6-10-3-15-6l-1 6 9 4v-3c-2 6-9 12-6 18 2 4 7 6 11 3 6-4 6-13 7-19 1-3-4-6-6-4-16 18-1 29 7 5l-6 1c3 5 5 11 9 14 7 3 17-7 10-13-4-4-7-10-12-12-5 0-6 7-3 10 2 3 4 12 10 10 6-3-2-11-4-15l-2 6c6-2 19-5 16-14-4-9-14-5-20-2-10 6 9 12 13 6 3-2-1-8-4-6s-6 4-6 7c2 8 13 1 12-5-1-5-6-3-8 0-4 4 2 9 5 5l2-1-6-5-2 2 4 6 2-2-4-6c-2 1-4 0-6-1v7c3-1 7-4 11-3-3 5-14 3-13 10l5 9 7-3-6-9-1 1h-5c4 4 8 7 11 12l-1-2c1-1 1-1 0 0l-3 3c3 1 0-1 0-2l-6-10c-6-7-6 8-12 10l5 4c1-4 3-8 6-11l-6-3-3 14c-2 4-3-1-1-4 5-6 9-12-2-16-3-2-12-4-10 3 3 4 10 4 15 4v-7h-8v6h3v-5h-5l-1 6c3 0 6 0 9 2l1-6c-12 7-19-4-10-3 5 0 10 7 14 3 3-4 1-12 1-16l-7 1c9 44 22-10 3-7-4 0-9 3-8 8 1 4 9 20 11 10z"/>
      <path class="st2" d="M179 165c4-8 8-16 14-23v-1h-1c2 2 5-1 3-3-5-7-23 29-16 27z"/>
      <path class="st4" d="M175 161c4-1 4-6 0-7-4 1-4 6 0 7zM183 168v-4c-2 0-2 3 0 4zM175 168c2-1 2-5 0-5-3 0-3 4 0 5zM190 157l-1-2h-4v5c2 2 5 0 5-2v-1z"/>
      <path class="st5" d="m163 233-3-12s0-1 0 0l-1 10h7l-1-9c0-1 1 0 0 0l-1 1h-2c-1-1-1-2-1 0v6c0 3 2 6 5 5 5-1 5-9 8-3l1-2v-1l-3 1h-5c-3 0-5 4-3 7 3 3 10 7 8 12 1-2 1 3 0 0l-4-11-6 5 6 6 7-4c-2-5-11-15-14-6l-2 11 1-1-4-2s-1 0 0 0v3l8-10-7-4-4 11c2 13 15-3 11-10-3-5-10 2-14-1v-1 1c-1 1-1 0 0 0h1c2 1 6 4 9 4 4 0 6-5 3-7-5-2-12-7-18-3-11 11 9 18 18 12l-6-3-2 6 6 4 4-11c1-4-4-7-7-4l-7 10c-7 7 4 13 10 12s7-9 8-15l-1 1h-4l4 7c2 4 9 0 7-4s-5-7-9-10c-2-1-5 1-5 3-1 2 2 7 3 9 6 19 28 4 6-16l-2 6c28 3 7-29-5-7l2-2-1 1h4c0 1 0 1 0 0 3-12-8-19-9-6 0 4 0 16 7 11 2-4 0-9 1-14-1-3-5-5-8-4-10 2 1 30 4 18z"/>
      <path class="st2" d="M164 239c2-5 3-10 7-13l3-4c-4-8-19 19-10 17z"/>
      <path class="st4" d="M164 238c-5-1-7 5-3 7 4 1 7-5 2-7h1zM159 234c2-1 2-4 0-4s-2 3 0 4z"/>
      <path class="st4" d="M164 234v5c1 2 4 2 5 0 2-4-2-9-5-5z"/>
      <path class="st5" d="M136 340c0-4-4-8-2-12 1 0 0 0 0 0 1 4-3 17 6 14 4-4 2-13-3-16-7-1-6 8-5 13 0-1 0-1 0 0l1-2h2c-7-3-21-5-18 6 3 8 13 4 19 2l-5-4c-19 24 13 30 9 1l-7 2c2 7 11 20 19 10 4-7-5-13-10-17l-2 7c5-1 11-2 13-6s0-10-5-10-17 8-9 12c3 2 5-2 8-3 2-1 1 0 0-1l-1-2-2 1c-16 3-5 9 1 16 1 1 0 1 0 0l1-1c-5-3-6-15-12-9-3 3 1 9-3 13 1 0 0 1 0 0l2 2c-1-7 9-12 4-17-4-3-9 2-13 2v1c3-2 13 6 15-2 1-3-1-6 1-9l-6 1c1 1 2 4 1 6l7 1c5-25-20-21-12-2 1 2 5 7 6 3z"/>
      <path class="st2" d="m138 342 1-4c1-6 9-9 8-12-3-2-8 3-10 6-2 1-5 14 0 10h1z"/>
      <path class="st4" d="M134 341c2-1 0-4-1-2h-1v1l1 1h1zM144 344c-3-2-7 0-7 3s5 5 7 3v-6zM134 350c3 0 3-4 0-4-2 0-2 4 0 4z"/>
      <path class="st5" d="m92 325-3-12v1l1 10h7c-1-6 0-24-10-14l6 2v-1c0 1-3 2-2 0l-2 12 1-1c-4-4-16-7-20 0-5 8 4 16 11 13 8-2 14-13 2-13-16 1-10 17 2 9v-1h-2c0 5-6 10-3 16 6 10 16 3 14-8 3-27-14-9-10 6 9 10 10-11 10-16h-6c9 38 38 6 7-6-11 1 0 14 2 18 2 3 6 2 7-1 0-4-4-9-5-13v-1l4-5 3 4v-1l-7 1 4 4c0 1-1 1 0 0 5-2 6-11 0-11-6-1-10 9-3 10 6 0 7-10 1-10-5 0-7 7-2 10 4 2 7-5 3-7l1 2-1 3h-2l-3-4 1-2h3l4 6h-1l-4-3v-1c-3 2-4 4-4 7 0 2 1 4 4 4 5 0 15-1 14-8 0-6-5-12-11-12-5 0-7 6-10 9-3 6 3 14 5 19l6-3-6-12-5 5c4 0 13 7 8 10 1 0 0 0 0 0-3-4-5-8-6-13-1-3-6-3-7 0l-3 15h8c-1-4-1-8 2-12l-7-2v16c0-1 0 0 0 0-2-5 8-12 3-18-3-4-8-3-11 0l2 1-1 4 4-1s1 0 0 0l-2-2v-2c-9 8-9-4 1-1 3 1 6 5 9 3 3-1 3-6 4-9 1-4 3-12-3-13-10-1-9 17 1 7l-6-3c1 6 0 12 3 17 8 5 6-10 5-15-2-6-11-8-13-1-3 4 2 21 8 18 1 0 2-2 0-4z"/>
      <path class="st2" d="M94 330c0-6-12-17-18-16-4 3 7 6 8 9 3 1 8 11 10 7z"/>
      <path class="st4" d="M88 331h-1c-2 0-3 4-1 5s5-1 4-3h1v1c0-2-1-3-3-3zM97 323c1-3-5-6-6-2s4 6 5 2h1zM99 336v-3c-2 0-2 3 0 3z"/>
      <path class="st5" d="M126 316c2 1 4-1 4-3v-4 1c-1-1-3-2-4-1l-2 2 1-1-1 2v-1 1-1l-1 2 1-1c-2 2-1 5 2 5v-1z"/>
      <path class="st5" d="M129 298c-1-4-3-8-2-13v2l-1 8h6c-1-4 1-10-3-11-7 0-5 9-5 13l5-3c-27-14-29 25-2 8l-5-1c0 1 0 0 0 0v1c-6 5-9 15 1 18 12 2 10-14 10-21l-7 1c1 8 14 26 20 11 1-6-7-11-10-16l-3 7c16 3 20-20 4-15-3 1-6 5-9 7-2 3 0 8 3 7 4 0 8-5 10-7 1-1 1 0 0 0h-1v-1c0 2-5 1-6 1-11 4 5 13 5 16h1v-1l-3-4c-3-3-2-10-8-9-7 2-1 12-4 17v-1 1c0-1 0 0 0 0 1-4 5-6 5-10 1-3 0-7-3-7-4-1-7 4-11 3v1h1c14 0 14 7 15-11l-7-1c0 19 12 13 9-2 0-4-4-7-8-7-10 1-2 29 3 19z"/>
      <path class="st2" d="M130 304c1-3 1-7 3-9 1-4 4-6 5-9-3-8-16 20-8 18z"/>
      <path class="st4" d="M125 295c-4-1-5 5-1 6s5-6 1-6zM128 309c2-1 2-3 0-4-2 1-2 4 0 4zM131 299c-4 2 3 7 4 3l-1-3-3-1c-3 1 0 8 3 4 2-2-1-6-3-4v1z"/>
      <path class="st5" d="M94 217c-3 4-12 10-9 15 8 3 20 2 17-9 0-4-4-8-8-4-9 12 4 21 7-1l-5 2c5 3 9 12 16 11 14-8 5-16-5-22l-2 6c8 1 21-4 16-14-5-12-13-3-20 1l4 4c0-5 3-19-3-21-17 0-15 11-11 23l4-4c-12-1-22-13-20 8 0 9 16 6 22 7l-3-5c-2 2-8 5-6 9 11 8 21-20 0-15-8-1-4 8 2 6 3 0 3-5 0-6-9-3-14 5-4 9 10 2 9-15-1-11-6 6 3 12 8 8 6-7-6-7-10-9l-1 7c6 0 13 2 17-2 3-4 6-20-2-19-9 3-1 15-2 21-1 5 6 4 8 9 2 3 5 4 8 5s6-2 4-5c-3-3-5-11 0-14l-4-6-12 11 5 4c17-25-9-14-11 2l4-2c-2-2-5-4-7-1-2 4-10 13-4 16 3 1 9 5 11 0 1-4-7-5-9-6l2 4c1-4 3-7 6-10l-5-1c10 12 8-7 18-11l-4-4-6 9c-2 4 2 7 5 4l12-10c2-2 1-5-2-6-11 2-11 17-5 25l4-6c-5-1-7-9-13-10l2 4c2-5-2-10-2-15 0-1 0-1 0 0l-5-3v10c0 1 0 1 0 0H82c-4 0-4 6-1 7l10 2-1-7c-1 1-2 1 0 1l1 2-2 2h1l-2 1-1-1v-2l-1-1-1 5h3v-6l-2 6h8c2 2-2 4-3 4l2 6c18-13-1-12-13-12h1v-9l-4 3c5 1 19 8 21 2 0-5-3-9-3-14 2-2 5-3 7-3l-3-2c2 6 0 11 0 17 4 10 18-14 16 0l1-1c-3 3-9 2-13 4-2 1-2 4 0 5l10 7c0 1 0 1 0 0l-4 5 1-1h2c-5-1-12-14-16-10l-4 12h6l1-4h-2 1-2l1 4h-9l1 4 8-12c2-2-1-4-3-2z"/>
      <path class="st2" d="m84 195 1 2c6 4 11 9 13 16 11 3-11-22-14-18z"/>
      <path class="st4" d="M97 219c3 0 3-5 0-5s-3 5 0 5zM106 208c-2-2-6 0-5 4 2 5 9 0 6-4v2c1 2 0 3-1 3 2-1 2-3 0-5zM100 203c2 0 2-3 0-3v3z"/>
      <path class="st5" d="M142 89c1-5-1-10-2-14h6c-1-4-3 10-3 12h6l-4-14c-1-3-7-2-7 2s2 9 1 11c-6-1-13-6-18 1-10 20 25 16 26 9-2-7-14-6-19-6-3 1-5 4-3 6 5 4 11 3 16 1l-3-1c-4 5-17 17-4 20 10 4 16 3 16-9 0-4 1-15-6-11l-9 12c-4 11 12 5 15-8l-7-1c0 7 5 3 7 9 4 10 12 8 16 0 4-5-3-10-6-13-2-5-15-13-15-3 6 23 28 18 7-4l-4 5c15 8 27-2 17-16-5-6-15 4-18 7-5 8 11 11 14 5 2-3 2-9-3-8-6 2-5 10 1 9 12-3 0-20-7-1-5 5-5 14 3 17v-1l1-2v1l2-2 3 3-1 5-6-2c3 3 8 0 7-4-1-2-5-2-7 0-2 5 5 9 8 4 2-4-2-9-6-11l6-11-5 1-1-2 1-1h2l1 4-1 1-4-4c0 2-4 0-4 0l1 5c2-3 6-6 10-7l-4-2 2 5 1 3c-3 2-7 1-10 0-3-2-7 2-4 5 4 3 6 7 8 12l3-4c-4-2-6-7-7-12l-3 4c5 1 8 7 11 10l1 1c1 1 0 1 0 0l-3 4c-1 0-1 0 0 0h1c-4-3-4-11-12-11l3 4c1-4-1-7-5-5-2 3-2 10-7 10l2 6 10-12-6-2-1 13h2l-10-3 1 2c2-6 15-14 6-20-3 0-8 3-11 1l-2 5c5 0 10 0 14 2v-7c-3 2-21 7-16-1h5c15 9 18-3 15-16l-7 2 4 12c1 3 6 3 7 0l2-15c-1-6-6-6-11-5-3-1-6 1-7 4s6 20 8 16z"/>
      <path class="st2" d="M146 97c4-6 5-14 10-19v-3c-4-2-7 8-9 10-1 4-3 10-1 12z"/>
      <path class="st4" d="M140 89c-2 4 6 7 6 2v-2c-1-2-4-2-5 0h-1zM148 100v-3c-2 0-2 3 0 3zM153 95l2-1v-2h-3c-1 1 0 3 1 3z"/>
      <path class="st5" d="M75 79c1-5-4-11 0-15 4-1 0 11 1 13h6c-2-4-3-15-9-12-3 4-2 10-1 14s7 4 7 0l-1-14h-7c1 4 3 8 1 11-6 0-16-6-20 2-2 4 0 12 5 12 25 0 33-12 2-11v7l13-1h-1v-2c-3 6-8 13-10 19-1 5 17 8 18 3 1-4 4-28-6-20l-5 12c-1 3 2 8 6 6 6-5 5-13 7-20h-6c2 12 12 31 23 14 2-9-9-14-14-19-3-2-6 1-5 4 1 7 4 16 11 18 11-4 0-15-4-19l-3 6c10 1 24-4 14-15-4-13-15-4-21 3-3 4 3 7 7 7 6 2 16-6 8-11-4-2-8 3-7 7 2 4 8 5 10 1 2-5-7-11-10-6-1 2-1 5 1 7 3 3 8-2 5-6l1 1-1 2v-1l-3 2c2 0 0 1 0-1 1-3 3-4 4-1 0 2-2 1-3 1h1l-1-2v1-2c-1 2-5 2-7 1v4c3-3 6-7 10-7l-2-1 4 7h1c-3 2-7 2-10 1-9 2 3 12 4 15h5c-4-3-7-8-8-14l-4 4 11 11c0-1 0-1 0 0-7 8-8-12-12-15-10-3-4 14-10 18l3-1 2 1c0 3 2-3 2-4l3-6-7-1 1 15 1-1-9-2 2 5c2-6 8-14 10-21-1-8-12-3-18-4-4 1-4 7 0 7l16 1v-6l-16 3h-1c2 1 1 0 0 0v-4 1c6-1 15 5 20-2 3-4 1-23-7-17-2 5 1 11 0 16l7-1v-8l-7 1 4 9c2 3 7 1 7-2-1-6 4-15-3-19-6-3-13 3-13 9 0 3 5 16 8 12z"/>
      <path class="st2" d="M77 86c6-7 8-17 16-21 2-1 0-4-2-3-4 2-7 5-10 9-1 2-8 16-4 15z"/>
      <path class="st4" d="M74 82c-1-2-5-2-7 0-4 7 12 7 7 0zM78 97c3 0 3-4 0-4-2 0-2 4 0 4zM80 84l2-1h-1 3-1l1 1v-1l1 2v-1 2l-1 3h-1 1l-1 1h-2 1l-2-1c3 3 7-1 5-4v-2l-1-1h-2l-3 1-1 2 1 4 2 1c2 0 3 0 5-2 2-4-4-8-7-4h1z"/>
      <path class="st5" d="M116 51c3-4-6-13 1-12l-1-1-1 11h6c1-5-5-21-9-10v9c0 1 0-1 0 0h-1c-4-2-15-4-16 3 0 18 12 8 22 6 7-9-23-8-17 0 3 3 9 0 13 1v-1l-3 2c-3 4-9 12-4 16 13 8 15-5 15-16 0-3-5-4-6-1l-6 11c-1 4 4 7 6 3l5-12h-6l8 11c8 6 18-8 9-13-3-4-17-13-15-2 9 17 24 11 8-3l-1 6c5-2 11-3 14-8-1-13-11-14-18-4-4 8 9 7 12 3 4-5-4-9-6-3-3 5 4 8 6 3 4-5-5-9-6-3l1-1 5 1v2l-1 1-1 1-3-6c-1 1-2 2-4 1l2 6 5-4c2-2-1-1-1-1l2 4v-2s1 0 0 0c-3 3-13 2-11 8 2 3 5 4 5 7l6-3c-3-2-6-5-8-9l-4 6c4 1 7 3 10 6l-1 1-1 1c-2-2-5-9-8-10-6-2-5 9-9 13l6 3 5-11-6-2c-1 4 2 16-6 11l2 2c0-6 8-8 9-15 0-8-13-6-18-5l2 6h11l1-6c-5-1-9 4-14 4l1 1-1-6-1 2c5-2 11 3 16 0 4-2 3-10 3-14l-7 2c3 3 1 7 4 10 7 5 5-10 5-14-3-8-16-2-12 5 1 3 2 10 6 9h1z"/>
      <path class="st2" d="M117 55c-5-2-17 5-18 12 2 2 5-2 6-3 2-4 12-6 13-9h-1z"/>
      <path class="st4" d="M114 64c3 3 7-1 5-4l1 2-1 2c2-2 1-5-2-6-3 0-6 4-3 6zM122 47c-1-3-6-3-6 0-2 6 7 6 6 0z"/>
      <path class="st5" d="m179 47-2-11h2l-1 13c4 10 12-7 3-15-8-3-5 8-3 12 0 2 4 3 5 0 2-5-4-11-6-4v6h-1 2c-5-2-15-7-19-1 0 4-1 11 5 12 16 2 26-9 3-10l1 6 7-1c-1 0-1 0 0 0-6 5-14 16-2 19 10 2 10-10 9-17 0-3-5-4-6-1l-3 11c-1 3 3 5 4 3 4-3 3-8 6-12l-5-1c3 4 6 12 11 13 15-6 2-16-6-20-2-2-6 1-4 4l5 6c1 3 7 9 9 2 0-3-3-5-4-7-1-1-1-2-1 0 11-1 13-7 6-16-1-1-3-2-4-1-16 6-8 18 4 10l-5-4c-6 7 4 12 5 3-1-6-9-2-5 2l-1-1v-2h2-1 2l2 3 1-2c2-3-2-6-5-4l-2 1h-1l1 2v2l6-5-4-1c1 0 4 8 4 5-6 3-14 3-7 12 1 1 2 6 3 1h2l-7-10-4 4c3 2 15 8 7 10l4 1c-10-14-10-19-17 0l4 3 4-11h-5l-1 11-3-1c1-5 5-7 7-11 4-11-21-10-15-1l11 2v-6c-3 1-8 3-11 2l1 1v-5l-3 2c10-2 20 10 19-8h-4v2h5l-1-8-5 2c3 2 3 6 2 9l5 1c0-6 3-14-2-18-13-4-13 11-6 18 1 1 3 0 3-2v1z"/>
      <path class="st2" d="m181 55 2-2c3-4 7-8 13-9 2-2 5 0 7-3 2-7-14 0-16 2-3 2-9 9-6 12z"/>
      <path class="st4" d="M175 46c-1 0-2 1-2 3-1 3 2 5 5 3 3-1 1-7-3-6zM181 61c4 0 4-6 0-6-3 0-3 6 0 6z"/>
      <path class="st5" d="M86 7c-1-3-4-7-3-10 8-5 5 4 4 9l5 1c1-23-19-13-7 2 0 2 3 2 4 1 4-4 0-18-7-14-4 4 1 9 2 13l3-3c-7-1-17-9-20 1-3 14 6 15 16 10 6-1 11-8 3-9-4 0-9-2-13 0-5 6 7 9 10 5 6-11-21-4-11 3 4 1 10 0 8-5-9-7-14 13 5 3l-2-3c-3 5-13 16-3 20 12 6 11-10 11-18-1-2-4-4-6-1-2 4-11 15-2 18 6-1 3-12 5-17l-1 1h-1l4 5c2 4 4 11 9 9 8-4 9-10 2-16-3-2-14-12-14-3 4 18 22 21 8 0l-3 4c5 0 18-1 14-9-2-3-3-9-7-8-4 3-9 5-12 9-2 7 9 3 13 2l-5-4c-2 5 8 8 7 1-2-4-10-2-10 3 0 3 6 4 6 1h-1l3-6 1 1v2c1-8-7-2-11-2l1 5 11-7-5-1c0 3 3 6 3 7V6c-2 2-12 0-11 5l5 11 5-3-7-11-3 3c4 2 9 6 11 10v-1l-3 2c0 1-1 1 0 0l1 1-5-8c-1-2-3-6-6-6-6 0-5 12-7 17l3-3 2 1v1-1l5-9-6-2a43 43 0 0 1 0 14l1-1-5-1 1 1c1-4 3-9 6-12v-4c-4-3-8 1-11 1l2 4v-1l-1 2h-1l1-6h-3l2 5c1-1 3-2 4-1l-1-6h-2l-3 5 11 1-1-2v-2 1l1-1c-5 1-16 10-12-1h2l11 3c7 0 1-9 0-11h-3c1 2 2 4 1 6h6c-1-2-5-6-2-8l-4-1 3 9c0 3 5 3 5 0l1-11c-2-8-15-5-15 2 0 2 8 17 8 10V7z"/>
      <path class="st2" d="M87 12c6-1 12-22 6-19-2 5-2 10-5 14-1 1-4 6-1 5z"/>
      <path class="st4" d="M81 12c3 0 3-4 0-4s-3 4 0 4zM91 16c4 0 4-6 0-6s-4 6 0 6z"/>
      <path class="st5" d="m19 36-3-15v2l-2 1 6-2c0 1 1-1 0 0s0-1 0 0v1l1 12h6l-2-14c-2-4-8-6-10-2-3 5-1 11 1 16 1 2 5 2 7 0 7-16-13-20-6 4l2-4c-6-3-13-7-20-5-5 3-6 16 1 17 5 1 20 2 21-3 1-4-3-7-6-8-21-8-15 18 1 7 2-1 2-5-1-6-5-2-18-1-11 6 2 2 6 2 8 3-4 5-12 15-2 18 18 7 13-8 14-19 0-4-5-5-7-2l-7 12c-3 5 5 6 8 2 3-3 3-9 5-13h-6c6 9 11 24 22 12 2-1 3-3 2-5-1-4-20-22-21-12 9 21 24 21 8-2l-2 5c6 0 14-2 17-8 1-6-5-12-11-11-4 1-8 6-11 9-6 11 24 5 13-4-3-1-6 1-7 4 0 12 14 4 12-4-2-6-10 0-8 5 1 7 11 3 7-3v2l-6-4-1 3h2-1l2 1v3-1l-5-1v-2s2 0 0 0h-6l3 6 6-7c3-3 4 1 5 3v-1c-3 2-7 4-11 4-8 2 4 12 4 17l5-2c-5-4-8-8-10-13l-3 2 14 14 2-5-7 4c-6-7-11-25-17-5 0 2 0 4-2 5l4 5 7-12-6-1c0 1-2 20 1 14l-8-3 1 3c4-12 13-16-3-22l-1 6h7l-2-6-4 2v2-1l-1 2c2-1 5 0 7 1 1 1 1 1 0 0l1-2c5-2-13 1-13 0v-5c8-2 16 10 21 4 1-5-2-10-1-15l-4 2v3l2 1c2 0 1 0 1-2l-1-6h-1l1 3 2 10c0 4 6 3 6-1-1-7 0-25-13-17-10 0-2 14 0 20 1 3 5 1 4-2z"/>
      <path class="st2" d="m23 40-12-7c-3-2-4-8-7-9-6 1 3 10 5 12 1 1 16 10 14 4z"/>
      <path class="st4" d="M23 37c5 1 5-7 0-7-4 0-5 7 0 7zM23 45c1-4-5-4-6 0 0 4 6 4 6 0zM12 42c0-2-3-3-4-1l1 3c2 0 3 0 3-2z"/>
      <path class="st1" d="M-29 587c-3-3-70-102-72-118s-56-46-54-57c1-11-26-45-55-30-28 15-39 63-52 69s-51 66-57 88c-6 23-45 57-49 71l-26 38 326 12 71-49-32-24z"/>
      <path class="st4" d="M74 165c-12-33-32-63-57-88-2-2-5 2-3 3 25 25 44 54 57 87 1 2 4 1 3-2z"/>
      <path class="st1" d="M-159 644S-23 520-17 489s38-50 44-73c5-23 30-61 32-68 1-7 39 13 61 8s43-26 59 0c17 27 39 77 44 75 5-1 45 37 84 107 38 71 59 109 73 111l-539-5z"/>
      <path class="st2" d="M245 491c-3-4-8-8-10-13-2-11-8-20-13-29-2-7-2-17-10-20l-3-8c4-12-7-27-12-37-19-33-22-53-66-36-50 16-73-23-81 13-2 11-19 25-13 35l4 2c1 4 5 7 9 7 10 24 22 9 37 22 16 11 34 28 54 15 18 10 14 13 23 29 4 5 10 6 15 10 14 15 32 25 51 34 6 2 12 5 17 10l4 1c8-7-1-28-6-35z"/>
      <path class="st1" d="M62 367c17-3 28-7 38 13 9 13 27 20 43 16 10-2 22-7 25-17 1-1 0-3-2-3-11 0-20 7-31 5-20-3-32-21-52-23-6-1-20-1-23 6l2 3z"/>
      <path class="st4" d="M32 447c0 10 4 20 11 27 8 8 18 12 29 13 9 1 30 1 24-14-5-17-21-28-38-31-7-2-13-2-20 0-7 3 0 16 2 21 3 4 8 9 13 6 7-6 2-16-2-21-19-12-7 16-1 22 3 3 5 6 9 5 10-6 2-23-5-28-19-7-13 23-1 28 22 13 22-20 3-21-18 5 3 33 16 28 12-4 4-24-7-22-11 7 3 25 13 23 6-1 9-7 7-12-1-7-15-15-17-4-2 10 14 21 20 9 6-9-20-33-25-20-2 7 12 26 19 24 17-10-9-33-21-34-18 0 5 35 16 25 10-11-12-28-21-22-8 8 16 25 15 10-1-3-6-4-6-8l-7 7c4 1 9 2 11 6 1 1-1 0 1-1l2-1v-1c-4-2-7-7-7-12l-7 7c8 2 16 7 19 14 1 2-2 2 1 0l3-1 2 1-5-6-4-6-8 3c5 3 9 6 12 11l1-1c4 0-1-1 0-5l-7 5c2 0 3 2 4 3l1-2c0-1 1 1 0 0-2-1-5-3-4-6l-8 3 3 3h1c-4-2-8-6-9-10 0-1-1-1-2 1h-2l5 5 1-1c-13-3-9-16-12-13 7 5 4 18 6 12l3-1h-1l2 1c-6-4-10-12-12-18l-4 5c3 1 4 6 5 8 0 1 0 1 0 0h1c-4-5-6-10-6-16l-3 4c19-4 44 8 48 28-1 0 3-1 0-1-7 3-14 3-21 2-16-3-27-17-29-32 0-5-7-5-7 0v1z"/>
      <path class="st1" d="M54 440c-6-7-14 4-13 10-1 16 21 29 31 14 7-12-8-29-20-23-22 15 18 43 21 13 0-11-19-21-24-7-5 11 10 24 18 13 3-5 3-13-2-16-7-4-17 3-13 11 5 9 19 8 17-4 0-10-16-11-16 0 0 9 14 12 16 3 3-8-10-15-13-6-2 7 8 12 11 5 3-4-2-10-7-8h5l2 2 1 4-3 4-3 1-3-1v-1c-2-3 1-7 4-6l1 1c-1-1 1 1 0 0 1 3-1 6-5 6h1l-2-1v-1c0 1 0 1 0 0v1-2c0 1 0 0 0 0 1-2 4-2 5-2h-1v2l-2 2h-1 2c1 0-1 0 0 0l-2-1v-1 1c0 1 0 0 0 0l-1 2 1-1-1 1s1-1 0 0l1-1c-1 1 0 1 0 0-1 0 0 0 0 0h-1 1-1s1 1 0 0c0-1 0 0 0 0v-2s0 1 0 0v-1s0-2 0 0v-2c0-1-1 1 0 0 0 0 0-1 0 0h-1c0 1 0 0 0 0l5 2 1 1c1 1-1-1 0 0v1c0-1 0 0 0 0s0 1 0 0v3s1-1 0 0l-1 2c0-1 0 0 0 0 1 0 0 0 0 0-1 0 0 0 0 0h-2l-2-2c1 1 0 0 0 0l-1-1s-1-1 0 0l-1-2c-1 0 0 0 0 0l-1-1v-2c0 1 0 0 0 0 0 1 0 0 0 0v-1h1-1l2-1-1 1 1-1c1 0-1 0 0 0h2c1 1-1 0 0 0l2 1 3 5c1 1 0-1 0 0l1 2c0-1 0 0 0 0v2l-1 1-1 1c1-1 0 0 0 0l-1 1s1-1 0 0h-1s-1 0 0 0h-4l-5-4h1l-2-2v-1l-1-2s0-1 0 0v-4c0-1 0-1 0 0l1-2v-1c0 1 0 0 0 0h1c-1 0-1 0 0 0-1 0-1 0 0 0l2-3-1 1c1-1 2-2 1-4v1z"/>
      <path class="st2" d="M165 525c-2-8-3-16-6-23 0-3 0-6-3-8-1-1-3 0-3 2 1 10-2 20-1 30-2 24 19 22 13-1zM178 302c-2-6-12-6-14-1-4 4-13 29-2 25 2-1 2-3 2-5 3-8 16-10 14-19zM94 276c-1-9-1-23-10-29-10 0-4 12 0 16 3 4 5 9 5 14 0 2 2 3 3 1l2-2zM53 156c-3-12-8-26-17-35-5-3-12 1-12 7 0 7 7 11 12 15 3 2 14 23 17 15v-2z"/>
      <path class="st4" d="M12 153c-6-5-13 4-6 8 5 3 10-3 6-8zM143 179c0-3-3-5-6-5-2 0-2 2-2 3-2 6 8 8 8 2zM118 360l-2-1c-1-4-6-4-5 1 0 3 3 6 6 5 1-1 2-4 1-5zM174 334c-3-8-12-1-6 4 2 1 6-1 6-4zM95 116c-2-5-10-2-6 3 3 6 10 3 6-3zM175 197c-6-5-9 1-5 6l4 1c2-1 3-5 1-7zM105 245c-8-13-2 39-3 42 0 2 4 2 4 0l-1-42zM174 263c-1 2-31 43-18 36l22-34c1-2-2-4-4-2zM174 344c-12 7-22 23-16 37 1 1 2 1 4-1 3-3-3-11 1-18 2-5 7-10 12-14 3-2 2-7-1-4zM115 169c-1-2-5-1-4 1 2 3 1 14 4 14 5-1 0-12 0-15zM135-6c-1-2-5 0-3 2 4 8 4 16 6 24 9 4-1-23-3-26zM69 37c-2-3-17-24-17-14 5 5 10 10 13 16 2 2 5 0 4-2z"/>
      <path class="st1" d="M709 613c-2-4-67-98-69-113-1-16-53-45-51-55 1-10-25-43-52-29-28 15-38 61-50 66-13 6-50 63-56 85-5 21-42 54-46 68l-25 36 313 12 67-48-31-22z"/>
      <path class="st2" d="M642 502c-3-12-14-20-24-28l-22-23c-12-16-21-38-44-40-4 0-11-1-11 4 4 17 12 13 3 33-4 12 8 22 10 34 4 23-13 31 8 52 5 7 22 23 17 4 0-3 5-6 8-7 14-6 27-13 42-16 1 0 3 0 4-2 3-1 7-2 6-6 2-1 3-3 3-5z"/>
      <path class="st2" d="m683 577-44-76c-4-1-9 1-12 5l-3 1c-2-4-8-4-10 0-2-1-5 0-6 1-5 0-9 3-7 8-5-1-9 3-8 7-4-1-8 0-9 4-5-1-9 5-6 10-5-5-5-19-14-15-3-6-4-12 1-18 5-5-3-13-8-8-10 11-7 26 0 38 11 17 25 32 39 45 10 12 25 14 40 16 14 0 33 9 45-3 2-2 2-6 0-8 3-1 4-5 2-7zm-27-22-3-5 1-1 3 6h-1z"/>
      <path class="st4" d="M544 490c13-12 30-25 48-18v-1c-6 13-22 21-34 16-5-2-10-6-15-2-7 13 38 11 44 7 8-4 11-13 15-20l-7-3c-3 14-18 23-32 21-5 0-9-2-10-7 0-2-3-3-5-2-2 0-6 1-7 4-2 4 6 10 10 10 4-1 4-6 1-8l-3-2c-3-2-7 2-5 6l4 5c9 6 16-5 6-8 1 2 1-4 8-3 15-1 6-21-5-11-6 6 0 16 7 16 5 0 10-4 11-8 5-13-19-16-18-3 3 21 35 8 20-9-4-4-12-2-12 5 2 15 29 11 21-5-2-3-6-4-9-3-12 5-1 23 9 17 9-4 7-18-3-17-7 1-7 11-1 13 7 3 14-5 10-11l-9 5c6 11 20 1 9-5-2-4-12-2-9 5l5-1-2 3h1c-2 2-6 2-6-1 0 0 1-2 1 0-1 0 1 0 0 0-1 2-4 3-4 0-1-3 0 0-1 0s-3-3-3-1v3-1l-2 2h-1c0 4-6 2-6-1v3c0-1 0 0 0 0h3l-1-1c-1 1-2 3-3 2-1 0-2-1-1-2l-1-2c-10-3-24 13-11 18v-1l4-4c-2 0-4-2-5-3l-5 5 3 2 4-7c-2 0-3-2-4-3l-3 6 5-1-5-3c6 21 37 14 48 1 4-5 7-10 9-16 2-5-4-7-7-3l-8 13c-7 7-30 8-39 3v7c-1 1-3 0-1 1l5 2c12 5 25 4 35-5 7-4 15-11 13-20-1-4-7-6-11-7-19-3-40 8-49 26-1 2 2 4 4 3v-1z"/>
      <path class="st1" d="M563 469c-8 14 9 30 23 22 26-14 0-34-20-24-16 14 20 31 18 9-1-8-14-12-16-3-4 17 25 18 18 0-3-4-11-7-14-1-6 10 11 19 16 9 5-8-8-16-12-7-4 7 6 14 10 7 7-11-12-15-9-3 3 7 14 2 8-4 0 0-1-1 0 0s1 1 0 0l1 3-2 2c-5 0-7-2-5-4l-1 1h1v-1h3l2 1 1 2c0-1-1 0 0 0 0 0 0-1 0 0-1 1-4 2-5-1v-1h1s-1 1 0 0h-1s1 0 0 0-1 0 0 0c0 0-1 0 0 0h-1 1-1s0-1 0 0v-1c0 1 0 0 0 0l-2 2s1 0 0 0h1v1s0-1 0 0c1 0 1 0 0 0 0 0 0 1 0 0 0 0 1 0 0 0 0 0 0 1 0 0 0 0-1 0 0 0h-1c1 0 1 0 0 0 0 0-1 0 0 0h-1v-1h-1v-2c0 1 0 0 0 0l-1 1h1c-1 0-1 0 0 0s-1 0 0 0h1v1l1 2c-3 3-7-1-8-4v-1 1s1-1 0 0l1-1s-1 1 0 0h3l13 1 1 1c1 0 0 0 0 0s1 1 0 0l1 1c-1-1 0 0 0 0v1s0-1 0 0v1l-1 1c1-1 0 0 0 0v1l-2 2c-4 3-10 4-14 1-6-3-2-20-8-14v-1z"/>
      <path class="st6" d="M516 546c-2 13 2 27 7 38 11 35 43 61 80 61 8 0 8-12 0-12-39 0-67-32-77-68-2-5-2-12-2-18-1-4-7-5-8-1z"/>
      <path class="st6" d="M516 551c23 11 47 18 65 36l8-10c-20-11-22 37-12 44 15 6 14-17 6-23-19-9-9 26-3 33l1-8-1 1 3-2c2-1 1 0 0-1-13-11-26-23-34-38-2-4-9-4-11 0 0 15 11 31 23 40 5 3 11-3 8-8-4-6-10-27-19-22-9 6 6 23 10 29 2 2 6 2 9 0 9-6 9-40-4-41-13 0-9 33 1 34 18 1 15-39-2-39-13 0-9 23 1 23 6 1 9-5 10-10 1-21-25-29-24-5 0 5 2 13 7 14 19 6 21-41 0-27-5 6-2 23 8 20 12-6 0-31-13-24-6 3-7 10-6 16-1 6 8 12 13 6 9-8 4-26-9-26-24 5-1 37 4 17 1-10-7-23-18-21-7 2-7 13-4 18 3 6 12 3 12-3 0-7-3-17-12-19s-14 14-4 16c13 0 5-19-4-18-12 3-2 17 0 24 3 6 11 2 11-3 0-8 0-20-8-25-4-1-8 3-7 7 2 10 8 43 18 45 11 1 7-13 4-18l-10 4c5 11 14 20 24 27 7 4 12-6 6-10-8-6-15-14-20-23-3-5-13-1-11 5l3 9 7-5-1-3c-4-11-8-22-9-34l-11 5c3 5 4 11 3 16l11-3-4-14-9 7 2 2 10-5-1 6-3-1c2 2 3 6 3 8l11-3v-4l-1 3v-1c-9 4 1 0 0 11l8-6 1 1-1 1v4l5-1h-1l3 2v-1l1 3v-3c0-2 0-2-2-2l1 2c0 1 0 2 1 1l10 1c-1-1-2-3-1-5l-2 3 1-1-3 2h1-3l-1-1-1 2c0 1-3 6-1 4h3-1l3 2c-3-2 1-11-4-6l2 3v3l3-1 4 2c-2-5 2-5-5-1h1-4c9 3 0 21 5 15h3-1c7 4-1-2 1-12l-2 2h1l-5 1h1l-3-2c1 6 4 16-1 21h9c-5-5-9-11-11-18l-11 6c5 6 9 13 12 20l8-8c-9-7-14-18-17-29l-12 5c9 16 22 29 36 40 5 5 15 8 17-1l-1-4c-4-6-6-14-6-22l-10 4c2 2 3 5 2 8l1-3 4-1h-1 4-1l2 2c-3-7 0-17 0-24 1-2 0-2-3-1 6 4 13-4 8-9-20-18-44-30-71-35-4 0-7 5-3 8zM570 678c11-10 19-25 34-29 10-5 2-18-15-4-7 6-13 12-17 21-1 2-6 10-2 12z"/>
      <path class="st6" d="M569 681c22 6 44-7 59-23l-6-8-8 4-2 1 2 1c1 1 0 1 0 0-1-5-3-12-9-13-14 3 2 32 12 19 5-9-3-21-13-18-13 4-6 23 7 17 7-2 9-13 1-17-10-5-25 10-19 20 5 5 14-2 12-8-3-13-21-6-19 5 2 16 24 6 14-5-9-6-21 6-17 15 3 5 12 3 12-3-2-11-17-4-20 3-2 3 2 8 6 7 11-3 25-8 32-18 1-7-10-7-15-6-4 1-9 4-10 9-1 3 3 6 6 5 7-1 23-15 9-19-5 1-16 7-11 14 5 9 22-5 15-12-5-4-14 0-16 6-2 5 4 8 8 6s7-6 8-11c1-4-4-8-8-6-5 4-21 12-16 20 8 6 13-8 16-14 1-4-4-8-8-6-17 10-12 29 0 18l-2 1h-2l-2-1-1-4c-1 7 9 7 10 1 0-7-9-7-12-3l2-1h2l3 6c2-3 4-6 8-8l-8-6c-1 4-3 7-6 10l8 7c3-5 8-8 14-11l-8-6-4 5 8 6h1l-3-8c-1 4-5 3 0 4l2 2-1-1 1 3v-1l-1 3 3-3-4-7c-2 3-5 5-8 6l5 9c2-3 7-5 10-3l-2-9c-7 6-16 11-26 13l6 7c1-2 3-3 6-3l-6-5v1l1-3 2-2h3l2 2v2l2-3 1 1-3-3v-2l3-1h1c0 1 0 0 0 0v-1l-1-2 1-1 5 6c1-4 3-7 6-8 1 0 0 0 0 0s0-3-1-1v2s0-1 0 0c2 0 2 1 1 3l2-2h3c-2 0-3-5-3-7l-7 5 2 5c2 14 19 4 25-1 4-4-2-12-6-9-9 7-15 15-25 20-9 4-19 6-29 6-3 0-4 6 0 7zM698 606c11-1 18-10 29-12 10-3 22-4 33-4 6 2 6-8 0-7-12-1-24 0-36 3-6 2-27 14-26 20z"/>
      <path class="st6" d="M757 586c-6 27-26 62-58 58l3 4c0-14 2-28 5-43v-4c-4-6-17 11-9 13 9 3 17-9 20-16 2-4-3-8-6-4-5 5-8 13-6 20 4 8 13-2 16-7 7-18-18-15-21 7 1 16 24-7 19-16-6-7-13 5-12 11 5 20 31-11 16-16-11-1-13 19-1 17 8-1 18-18 7-21-9-2-14 19-4 20 20-4 7-32-5-12-5 13 10 18 17 7 3-4 7-11 2-15-9-5-17 10-11 17 7 7 19-8 17-15-6-8-14 3-13 10 3 13 15 0 16-7l-1 2 3-3-9-4c-2 5-2 13 5 12 3 0 7-5 8-7l-9-6c0 3-2 8-1 10 4 7 10 3 13-2l-9-7-16 31 10 5 10-19-10-4-9 19 10 4 5-11-9-5-10 19 10 5 6-11-10-5-8 13 10 6 3-7c4-5-4-11-8-6l-7 8 8 7c4-5 11-16 0-17-6 2-10 10-15 14l8 7c3-5 10-10 10-16-5-12-15 3-19 8l10 6 4-7c4-5-5-12-9-7l-11 12c-5 5 2 12 8 8l6-6c3-5-1-12-7-9l-17 8 6 7 5-30-11-1c0 3 0 17 2 19 12 9 13-15 16-21l-11-3c-1 7-3 27 9 23 6-6 9-15 10-23l-11-1v16c5 16 18-6 21-14l-12-1c0 6-5 14 2 18 9 3 11-12 15-18h-13c-4 9 9 15 12 6 1-4 2-10-2-12-10-6-11 9-15 15l12 5c1-7 4-25-8-19-5 4-6 11-11 15l11 5-1-16c0-5-6-8-10-5-3 7-3 15-7 22h9c-1-5-2-9 0-14 1-7-9-10-11-3-1 7-3 14-6 20l11 2c-1-6 2-26-10-21-3 0-5 31-6 33 0 15 20 0 26-3l-6-8-6 6 8 7 11-11-9-7-4 7c-4 6 5 11 9 5l8-9-9-6-8 11c-4 5 4 11 8 7l12-12-8-6-6 8c-3 5 5 12 9 7l7-9-8-6c-5 4-8 15 2 14 6-3 8-11 12-16 3-6-6-11-10-6-3 6-12 20 1 20 6-4 8-16 12-22 3-6-6-12-9-6l-7 14c-2 6 8 10 11 4 3-8 9-16 9-25-8-15-18 14-21 21-2 6 8 10 11 4l16-32c3-5-5-12-9-7l-4 5 10 5c1-5 3-14-5-13-3 0-7 5-9 7l10 6c2-7 0-18-9-12-4 3-5 8-8 11l9 4 2-4-11-4c0 2-2 4-5 5l8 3 2-3-8-6-4 8c-1 0-1 0 0 0l2 1 1 1v-1h-3l-2-2v-1c0 1-2 1 0 1l5 4 2-5-5 1-3-2c-1-1 0-2-1-1l-4 5h2l2 2 2-1-4 1h1l-4-1c0-2-1-3-1-1l-3 6h2l1-2-7-4c0 5-3 9-7 10l5 6c1-5 3-9 7-12-2-5-2-2-3 0l-3 4 4 2c-1-4 1-9 4-12l-7-4c-3 4-6 13-12 13l3 5 4-4-6-5c-3 9-12 45-3 49 26 5 49-16 58-39 4-8 7-17 8-26 1-4-6-6-6-1z"/>
      <path class="st4" d="M745 593a86 86 0 0 1-39 28c-5 2-13 3-17 7 1 10 31-7 36-10 9-6 18-14 21-25l-1-1v1z"/>
      <path class="st4" d="M731 594c-2 10-10 17-15 25 2 9 16-13 17-16s3-13-2-9zM713 601c-4 7-8 16-14 22-1 1 0 4 2 4 5-1 8-7 11-11l4-14c1-2-2-3-3-1z"/>
      <path class="st4" d="m723 633-10-4c-3-1-11-10-12-4 0 5 24 15 22 8zM741 615h-1l-11-3-2-1c-8-3-6 4-1 7 4 4 24 0 15-3zM532 560c19 21 38 41 54 64 19 4-32-48-36-52-5-6-12-9-18-12-1-1-1 0 0 0z"/>
      <path class="st4" d="M555 602c7-1 12 8 20 7 7-3-12-9-15-9-1 0-7 1-5 2zM538 587c5-2 11 1 15 2 3 1 6 3 9 2 5-6-12-9-16-9-3 0-10 0-10 4l2 1z"/>
      <path class="st4" d="M552 566c-2 6 1 13 4 19 7 3 3-8 1-11-1-2-2-11-6-8h1zM571 576c-8 21 8 39 4 12 0-2-2-14-4-12z"/>
      <path class="st5" d="M592 554c-22 17-18 51-6 72 16 27 44 32 73 29l-3-9c-10 4-22 5-32 1l-1 10c7 1 14 1 21-1 6-1 4-10-2-10-5 0-10-1-14-4-12-8-24-18-32-30-23-39 7-61-9-61-30 36 11 101 54 105v-10h-19c-6 0-6 9-1 11 7 2 13 3 20 3 7-1 14-3 20-6 5-2 2-9-3-9-12-1-24 1-36-2a57 57 0 0 1-34-70c0-3 11-21 4-19z"/>
      <path class="st4" d="m593 551-2 9 8 3 1-9c1-3-4-7-7-4s-5 7-5 11 8 6 9 1l2-6c1-5-6-8-8-4l-3 6 8 3c0-3 3-6 2-9-3-8-9 0-10 5-3 4 4 9 7 4 9-14-4-21-9-4l9 1v-1l-7-4c-5 15-5 31 0 46 2 5 11 5 10-2l-3-12c-3-6-11-2-10 4 6 36 41 66 79 63 14 1 25-8 32-19 5-9-6-15-11-7-5 6 3 14 9 8 49-55-65-146-103-78l13 2c0-2 1-5 3-6 5-4 0-12-6-10-7 2-15 13-9 19 6 3 12-1 19-2l-6-10c-6 6-12 14-11 22 1 10 12 11 19 5 16-19-16-31-20-7-2 8 1 16 8 21 8 6 17 2 18-8 5-22-26-28-27-4 4 34 53 15 36-13-15-20-34 0-29 19 4 15 25 14 30 1 7-12-1-31-15-32-24 3-7 39 12 35 23-6 15-37-7-38-20 3 6 42 19 28 17-13-14-51-26-26-6 14 10 31 25 24 11-6 10-21 1-28-13-11-23 5-15 17 5 12 25 14 29 0 3-10-8-30-20-21-14 9 4 30 16 31 12 0 16-14 10-23l-7-8c-6-4-14 3-12 9 3 10 11 24 22 27 16 1 14-21 4-27-6-5-16-1-14 8 2 11 26 41 32 19 1-10-11-33-22-21-5 11 4 25 14 30 13 6 16-15 6-20-23-13-14 23-2 30 16 11 18-23 3-23-14 1-11 31 5 27 13-3 10-22-3-20-13 1-8 19 1 23 14 7 18-20 5-22-16 1-17 30-4 36 15 2 16-22 1-22-16 1-14 26 1 27 8 1 13-9 8-16-10-13-31 3-24 17 4 11 22 7 20-5-7-20-35 2-21 16 8 7 21-4 15-13-7-11-24-6-25 6-2 8 7 16 15 13 18-11-7-32-18-17-7 8-1 20 10 17 8-1 12-11 6-17s-20-3-23 5c-3 7 4 18 13 15s9-16 2-21c-7-4-21-3-23 6-3 10 10 18 17 10 12-19-36-29-30-6 3 10 17 10 20 1 7-18-26-27-31-10-1 29 43 15 22-10-5-5-18-9-25-3-8 8 1 21 12 18 10-4 11-16 7-24-5-10-17-15-27-9-20 15 9 40 19 17 4-14-11-24-22-28-6-3-10 3-11 8-4 16 15 30 26 14 7-12-9-32-23-25-16 15 23 36 36 32 8-2 14-11 11-19-3-10-18-17-26-12-16 19 22 51 37 28 13-18-9-42-29-37-24 12 17 59 36 41 22-16-23-68-32-34 1 15 15 36 32 35 19-4 14-33 1-41-23-10-31 15-18 31 23 33 54-9 27-30-14-9-33 3-34 18-3 22 29 40 41 19 7-13-3-28-16-32-24-7-29 29-10 37 14 6 27-11 17-22-14-16-45 1-33 21 16 21 41-11 17-20-14-5-27 11-21 23 6 14 26 14 33 2 6-8 3-20-7-23-23-7-29 32-5 31 17-3 12-31-4-29-9 3-7 15-3 22 7 12 23-1 15-12l-16 6c1 1 1 1 0 0l1-5 6-2 4 4c1 1-2 3-3 3-2-1-5-4-3-6v1c0 2-3 3-4 2l-2-5c1-6 11-3 8 0h4c-2 1 1-8 2-8 1-1 2 1 3 1l-1-6-4 3c3 0 5 2 5 4l1 1c1 1 0 0 0 0 3 0-1-1-1-1-14-7 5-21 1-3 0 0 2 0 1-1l-2-2-5-8-3 2 2 8c1 1-1 2 3 0 5-2-5-3-10-16-1-2 0-3-1-1l-2 4-5 1 2 2c10 9 4 15 8 12-7-4-14-11-15-20v5l1-1-3 4 1-1-4 2h1l7 4c2 1 4 5 2 7-2 3-11-7-10-10l-8 7 5 1c0-1 3-2 0-2-6-2-15-4-18-10l-4 9h1c-7 2-5 0-2 4 1-2-4 2 5-2 1 1 1-5 1-6l-11 8c5 2 9 5 12 9 3-8 7 0 5 0l3 3c3 5-1 0 3 0l4 2v-1l2 4v-1 4-1l-2 4 1-1-4 2c2 0 2 0 0 0l6 2 2-1c1-3 4 0 3 3l-3 3h4c-1-2-1-4 1-6l4-1 2 1 2 3v1l-1 4 1-1-3 3 6 2-3-3 1 1v-5l-1 1 4-4 4-1h-1l4 1h-1l3 3v4l-3 3h2c3 1-3-3-2-5l3-3h5c-2 5-1 8 2 8l-1-1-3-2h1l-2-4v1l2-4h-1l4-2 6 8-4 1-1-4v1l1-4 3-2 4 1c2 3 2 5 1 6-2 0-2 0-1 1l-3-3v-5 1l2-3h-1l6-2h-1l6 2c1 2 1 5-2 4l-5-4 1 1-1-4v1l1-4 3-2h4l3 3c-2-2 0 0 0 0v1c1-1 0-1-4-2l-1-4v1l1-4v1l3-3-1 1 3-1h-1l4 1c0 2-1 3-4 4l-3-2-1-5 3-3 8 2c-2-3-2-7 1-9l-12-2 10-2-1-3-8 8-3-2-1-5v1l3-4h4-1l3 2v-4h-13c1 2 2 4 1 6l13-4c-5-3-8-9-8-15l-9 7h-1l12-5c-5-2-8-7-8-13l-14 6c4 3 6 7 6 11l12-7c-6-3-11-9-13-16l-11 9c1 1 2 3 1 5l1-4v1l3-3h-1c10-2-1 0-5-16l-12 9 2 3v1l4-2-1-1-4-4c-1-1 0-2-1 0l-3 3v-1h-4l2 3s0 4 1 0l-2-3c-1-1-1-5-2-1l-2 3-3 1h1l-4-1c1 0 4 2 3 4-1 1-5-3-4-5l-4 1c2 1 7 7 5 9l3-1c2-1 2 1 0-2-2-2-3-5-4-9l-7 10c13 2 3 16-3 2-1-3 1-1 0 0l-4 1c6 0 7 11 2 13-3-1 0-9 0-11-1 0-1 0 0 0 10 10-9 20-8 5-2 0 0 1 0 2 0 2-2 7 0 2h4c-5-1-5-7-4-11-1 1-2 0-3-3v1c4 6 3 3 4 0 1-5 6-7 8-12 0-12-15-4-22-3l7 7c0-3 2-5 4-5l-5-11c-5 3-8 9-9 15 0 8 11 8 13 2 6-12 21-15 34-15 34 3 76 50 47 81l9 9 2-2-10-8c-5 11-13 17-26 16-31 2-59-24-64-55l-10 4 2 7 10-1c-5-13-6-27-1-41l-2-4c-5-3-9 3-8 7 0 3 4 5 6 3 3-1 3-5 5-7l-8-4-2 7 7 4 3-6-7-4-3 8c-1 4 6 7 8 3l3-5-8-4-2 7 8 2c1-2 1-4 3-5l-8-5-1 8c-1 6 7 8 8 3l3-9c1-6-7-8-8-3z"/>
      <path class="st3" d="M598 569c-8 11 5 45 18 25 2-9 0-18-4-26-4-6-16-4-15 4 2 10 3 23 13 27l-5-8c-2 14 20 11 14-1-2-5-9-6-12-2l13 6c1-5-1-9-6-10l3 2-4-14-14 4 2 6c0 1 0 5 1 4l14 4c-4-7-1-16-6-22-4-3-9-2-12 2v-1zM616 606c-9 8 11 28 19 28 17-4-7-22-10-29-4-3-10 0-10 5 3 8 11 13 15 21l8-8c-8-3-14-23-22-17z"/>
      <path class="st3" d="M627 580c-10 7-3 45 12 31 4-11 4-26-5-35-3-3-8-2-10 2-4 12 13 15 12 3l-12 3c5 5 5 14 3 20l11-1c-7-5 3-29-11-23z"/>
      <path class="st3" d="M617 566c-5 7 6 27 11 12 0-5-4-20-11-12z"/>
      <path class="st3" d="M625 550c-2 5-5 17 3 19 8 0 6-29-3-19z"/>
      <path class="st3" d="M636 557c-11 5-13 31 3 24 4-4 6-12 3-17-6-7-10 3-12 8l4-3h-1 4-1l3 2h-1l2 2c0-2 6-20-5-16h1z"/>
      <path class="st3" d="M644 549c-1-5-7-6-10-2-4 10 4 22 11 30 3 3 9 2 10-3 4-11-2-22-10-30-5-6-13 2-8 8 4 4 10 11 7 17l10-1c-6-4-11-24-11-16 1 0 2-2 1-3z"/>
      <path class="st3" d="M655 557c5 18 25 8 10-2-3-3-11-5-10 2z"/>
      <path class="st3" d="M672 571c-9-10-16 7-11 15 4 9 19 20 25 8 0-9-8-18-13-24-5-5-12 2-7 7 4 5 8 10 9 17l7-7-3-1c-1-2-7-6-6-10l-1-2h1l-1-3zM650 580c-5-6-14-4-13 5 4 8 13 17 22 19 10-1 5-12 1-17-3-4-7-8-12-11s-11 4-7 9c5 4 12 8 13 14l1-4-1 1 5-3c2 0 0-1 0-1-5-3-10-7-13-11v1l2 1c2 0 3-2 2-3z"/>
      <path class="st3" d="M651 600c-6-7-12 4-13 9-1 7-1 18 2 24 4 6 15 7 17-1 1-5 2-10 1-15 0-6 0-14-3-19-4-3-10-2-11 3 0 9 2 18 0 27l3-3c4 3 6 3 5 0l-1-9c0-2 2-15 0-10 1-1 2-4 0-6zM669 608c2-3-1-7-4-5-10 7-3 27 7 29s8-11 6-16c-1-6-4-11-8-16-5-6-14 3-8 8 4 4 9 11 8 17l2-3-1 1h6c-6-4-6-12-7-18l-4 5c1 0 3 0 3-2z"/>
      <path class="st3" d="M674 596c-6 6 3 27 12 21 4-1 4-6 2-9-1-4-4-14-9-13-3 0-4 2-4 4 0 4 4 6 4 9 1 0 1 3 1 1l2-2h-1 3-1 3c-5-3-4-17-12-12v1z"/>
      <path class="st3" d="M687 615c-6 7 2 23 10 14 2-4-2-13-6-15-2-1-6 1-5 5l4 7 3-5h-1l6 3-3-5c-2-2-5-8-8-4z"/>
      <path class="st3" d="M680 632c-2 6 10 25 16 25 8 2 11-7 8-13l-10-14c-5-6-17 2-12 9a332 332 0 0 1 8 8l3-4 6-1 3 2c-5-4-16-21-23-12h1zM660 638c0 7 7 15 13 19 18 4 6-18-2-24-3-3-9 0-9 5s8 8 8 14l11-5c-6-4-8-12-15-14-3-1-6 2-6 5z"/>
      <path class="st3" d="M654 639c-5 2-6 15-3 22 3 5 13 4 14-2 3-17-12-31-14-6l14 2c-2-5-3-20-11-15v-1z"/>
      <path class="st1" d="M641 555c-2 4 3 9 6 11 6 2 3-5 1-8-1-2-7-8-7-2 0 3 9 16 8 7-2-4-6 2-1 2-2 0-3-1-1-2h2l-3-5-1-4-4 2 3 3 2 5 1-1v-1h2c-1 0-1 0 0 0l-2-1v-1s1 1 0 0l-3-5s-1-1 0 0c0-1-2-2-3-1v1zM647 587c-3 4 5 8 8 9 6-3-6-11-9-12-6 2 5 13 8 9 1-3-7-12-9-6l4 5h1v1l3-3-3-1-2-2-1-2-2 3 2 1 2 1s1 0 0 0l4 3c-1 0 0 0 0 0v1l2-3h-2s-1 0 0 0l-4-3v2c1-2-1-4-2-3zM627 590c-6 14 15 20 5-2-4-3-6 2-5 5 0 3 0 5 2 6 1 2 4 0 4-2-1-4-7-1-4 2l-1-2 1-1v-1 1l2-1 1 1v-6l-4 1v1l1 3v4c4 1 4 0 4-1-2-1-2-2-2-4 0-1 0 0 0 0 0-2-1-6-3-4h-1zM602 578c0 17 17 16 4-2-1-2-4-1-4 1 0 3 2 11 6 10 3-2-1-5-1-7l-1-2-4 1c3 3 4 6 5 9v-1h2s-1 0 0 0v-1c0 1 0 1 0 0l-2-3s-1 0 0 0l-2-4c0-1 0-1 0 0 0-2-2-2-2-1h-1zM667 579c2 10 15 9 6-1-2-2-8-7-8-1 3 10 13 8 6 1v1l-2-3h1l-4 2 4 3s-1 0 0 0l1 3 1-2h1-1 1v-1 1l-4-4c-1-2-3 0-3 1h1zM634 569c-8 11 10 13 2-1-5-3-4 10 1 6v-5c0-3-5-2-4 1s5 2 4-1h-4v4h4v-2 1-2 1-1h-4l1 5v-1 1-1 1-1 1c0-1 1-2 2-1h1v1-1 1-1 1-2 1-3 1c0-3-1-3-3-3zM619 570c-3 3 4 7 3 2v1c1-2-3-6-4-2l2 5c1 2 4 1 3-1-1-1-1-5-3-4-2 0 0 4 0 5l3-1-2-5-2 2c0-1 0-1 0 0v1-1h2v1-2 1-1 1l-1-2h1c0-1-3-2-3 0h1zM625 554c-4 10 7 11 3 1-2-2-3 1-3 3 0 1 0 0 0 0v2h3v-1c0-1 0-8-3-5zM659 558l5 4c2 0 4-3 2-4l-3-2 1 1-2-2c-2-1-4 1-3 3zM675 603c1 3 7 11 8 5 0-2-8-9-8-5zM667 614c-2 2 5 16 8 11 1-2-6-14-8-11zM647 612c0 5 1 12 3 17 5 2 2-7 2-10-1-2-2-10-5-7zM621 618c1 3 4 4 6 7 2 2 7 0 4-3-2-1-11-11-10-4zM666 641c1 3 4 7 8 8h-1c1 0 4 0 3-3v1-1c-1-2-8-11-10-5zM686 640c1 2 12 12 10 5-1-3-9-12-10-5zM687 621v1-1l2 2h-1c1 0 1 2 3 2 1 1 3-1 2-3-1-1-3-3-5-3-1-1-2 1-1 2z"/>
      <path class="st6" d="M1284 598c-5-1-10-6-16-2-6 0-14 6-20 3-2-2-5-2-8-1-5-6-15-9-21-3-5-3-12-1-14 4-5-3-12-4-17 1l-4 1c-7-5-17-2-21 6-33 10 6 38 23 43 12 4 25 5 39 4 25-4 56-17 64-44 1-4-1-9-5-12z"/>
      <path class="st5" d="M952 455c-18-1-34 10-50 18-29 18-56 46-59 81-1 20 5 39 4 59l15-2-7-51c-1-9-15-9-15 1l3 36c1 9 4 23 16 21 20-3 9-50 11-65-1-8-13-10-15-2-2 16 0 33 3 49 2 9 16 5 14-4-7-37 11-73 36-99 8-9 18-16 29-20 5-2 5-10-1-10-56 13-90 78-78 133l14-4c-4-13-5-27-3-41l-14-2 2 51c-1 1 0 1 2 1-4-14-4-30-4-44h-15c2 17 5 35 6 53 1 10 16 10 16 0 1-19-4-37-4-56 3-41 44-65 76-85 3-2 26-14 18-17v-1z"/>
      <path class="st5" d="M907 648c-17-15-30-34-35-56-1-4-6-6-9-4-5 5-5 11-6 17l-3 4c-2-14-2-29-1-43 0-5 4-11 1-15 2-8-10-13-12-5-2 18-4 36-2 53 3 15 3 52 20 56l20 1 23 2c5 0 8-7 4-10z"/>
      <path class="st6" d="M1118 521c31-11 62-23 95-26-1-2-2-2-1 0 1 12-6 23-11 34l-11 28c-12 32-8 20-31 37l15 4c-5-15-11-30-19-43-7-12-15-24-17-38l-16 7 19 29c3 6 13 4 15-2 4-12 0-26-9-34-6-6-17 0-14 8 7 25 33 40 32 2-1-11-12-30-24-20-11 13 0 46 20 39 14-7 7-32-3-40-14-12-29-1-22 17 9 36 47 39 43-3-2-14-19-30-28-12-6 24 28 52 37 18 5-15-10-41-22-21-7 14 5 41 22 31 13-8 14-39-4-42-11-2-17 8-14 18 2 16 24 34 33 12 3-8 3-17 1-25-3-12-21-9-21 3-1 11 6 26 20 21 12-3 14-18 8-28l-11 15c19 4 22-27 2-25-15 11-24 32-34 48-8 16-16 44 12 39 20-6 16-40-6-39-24-3-26 65 0 53 13-8 17-28 9-41-11-19-35-7-35 12 5 51 51 30 46-18h-21c4 40 35 32 29-4l-19 5c5 22 24 14 26-5 0-8-11-13-17-7-3 3-2 7-4 10l16 4c-3-20-22-18-21-2 1 3 0 7-2 10h17c-4-5-2-13-7-18-4-4-10-4-14 0-2 1-3 4-3 7 0 9-1 21-7 27h4c-2-2-2-7-1-10 0 1-5 0-4-1v1c-1 3 1 10-3 12l16 6c-2-7-2-14 0-21-1 0-7 2-6 0v1c2-1 0-6 5 0l3 4c0 3 0 0 1-1 5-21 19-39 31-57l-13 4h1l-4-3v-6l4-4h5c-8-2-18 7-12 16 1 2 0 1 2 0 3-6 10 8 8-4l-20 3v12-1l5-2h-1 5c2 0 2 2 0-1-1-2-3-5-3-9v6-1l-3 4 1-1-5 3h-2l-4-3c1 2-1 8-3 11l4-4-1 1 8-1c1 0 1 2 0 0v-8l-18 3 2 8v2l5-2v-1l-4-6c-1-2 0-2-1 0l-3 3-4 1h1l-5-1c9 13-4 17 5 15-5-5-9-11-10-18v-1l-3 4 1-1-4 3c-2 0-1-1 0 1 4 3 1 19 6 9h5c-4-1-4-10-3-14l-2 4h1l-5 2h1-4l-4-2c5 5 6 13 3 19l15-4c-5-4-9-9-11-15l-14 9c5 4 7 11 5 17l15-2c-6-9-15-30-25-33-6-1-11 5-9 11 6 29 30 50 36 80 2 6 10 8 15 4 5-5 12-7 18-12s9-14 12-22c5-18 48-94 9-92-18 2-36 6-53 11-13 5-29 9-38 19-1 2-4 11-2 10z"/>
      <path class="st6" d="M1165 610c9-2 18-5 26-10 30-11 60 1 88 11l-2-16c-19 6-38 2-56-1-19 0-38-3-56 2-8 2-9 13-2 17 2 1 5 2 7 1 17-5 36-2 54-1l28 3c10 0 20-3 29-5 8 0 13-13 5-16-22-10-45-18-68-18-12 0-23 2-33 6-7 1-34 26-19 27h-1z"/>
      <path class="st4" d="M1196 505c-11 9-18 21-26 33-1 3-29 48-15 40 8-19 19-37 31-55 1-1 15-20 10-18z"/>
      <path class="st4" d="M1173 508c-3 2-1 11-2 14 0 5-3 12 1 17 5-1 2-13 3-17 0-3 2-12-1-14h-1zM1155 518l2 33c0 4 0 9 2 12 6 0 1-19 2-23 0-2-2-28-6-22zM1167 622c-2-6 1-15-2-20-4-4-11-1-11 5l-2 1c-3-6-14-9-15 0l-3 1c-5-2-11-1-15 2-3-1-8-1-11 1-4-9-15-4-15 5-3-7-16-11-19-2-3-4-9-4-13 0-3-4-10-5-14-1-1-6-10-7-12-1-4-3-11-2-14 3-4-2-9-1-11 3-4-6-13-9-18-1-4-6-13-5-16 0-3-4-10-6-14-2-3-4-9-5-12-1-3-4-10-5-13-1-3-2-7 0-9 2-3-7-14-10-14 0-7-6-19-7-24 1-4-8-7-17-8-25 4-4 2-11 2-16 2-6-6-15-11-10-3 1-5 3-5 6-1 29 10 60 33 78 8 7 19 6 29 6 25 1 83 5 107 3l46-5c-1 15 79 12 74-5 7-7 10-17 10-27z"/>
      <path class="st4" d="M1188 561c-10 0-20-4-30-3-3 1-2 6 0 5l15 1c2 1 20 1 15-3z"/>
      <path class="st4" d="M1170 602c-9-28-16-57-33-81-19-24-40-49-69-60-29-12-61-14-92-11-33 2-55 28-74 51-22 23-37 55-33 87 0 8-1 20 8 24 24 16 84 6 115 7 56 1 113-8 169-5 6 1 11-6 9-12zm-263-73h-1l1-1v1zm9 67h-1 1zm173-4 1 1h-2l1-1zm31 1h7-8 1z"/>
      <path class="st3" d="M988 513c-10-7-31-10-33 6 5 19 27 30 44 36 11 4 27 8 36-2 10-11 4-26-7-33-54-45-103-2-43 28 14 7 33 12 49 6 9-3 17-10 17-20 1-17-48-39-64-39-58 0-31 44 6 54 16 3 35 9 51 2 17-12 6-35-10-42-16-10-41-22-60-12-11 7-12 24-4 34 9 14 25 23 41 24 16 2 38-10 33-29-3-10-12-12-21-15-18-5-34-11-52-11-13-1-19 14-11 24 9 14 25 22 41 26 17 6 29-18 11-25-10-3-19 9-12 17l-2-7 3-5v1l5-3h1c-8-2-17-6-24-11v-1l-4-4v-1c1 2 1 4-1 6l-4 4-2 1c17 1 39 9 52 13 3 1 0-1 0-1v-4l-1 1-1 1h-1l-3 1h-6c-9-1-19-7-24-13l-2-3v-3c0 2 0 1 0 0-1 2 0 0 0 0 0 1 1-1 0 0-1 2 0 0 0 0 16 1 34 7 46 19v1-1 1l1-1c0-1-1 1 0 0h-1c-21-1-48-3-60-23 2 3 1 6-2 8 2-2 0 0 1 0l18-3c15 3 29 13 42 22l-1-4c-10 7-42-2-53-15v3c1-1-1 0 0 0h1l2-1c11 0 29 9 39 18l2 2-1-1 1-1-2 1c-16-2-38-11-45-23v5-1l-2 5c-2 0-2 0 0 0 3-1 7-4 11-1 7 2 11-8 5-12v1z"/>
      <path class="st3" d="M946 539c-29-2-37 40-25 60 6 12 21 18 34 12 12-6 14-21 12-34s-7-30-22-32c-6-1-12 2-13 7-8 16-10 66 12 70 30-1 25-63 11-80-21-18-34 11-30 30 0 34 39 38 49 7 5-19-9-52-33-47-3 1-6 2-8 5-16 17-11 53 8 65 35 13 43-53 11-60-35-6-42 40-19 59 27 26 50 5 45-27-2-12-4-25-15-32-6-4-16-3-21 2-6 8 4 19 12 14 3-1 0 0 0 0-1 0-1 0 0 0s1 0 0 0 1 1 0 0c5 11 9 27 2 36l-1 1 5-2a17 17 0 0 1-7-2l-4-2c-1-1 0 0 0 0-6-5-11-13-10-21v-1l1-1v-3l2-2h2c-1 0 0 0 0 0l2-1s-1 0 0 0h1c-1 0 0 0 0 0h1c-1 0 1 1 0 0 4 4 5 12 4 16l-2 7-2 1h1l2 1-1-2c-6-7-7-26-3-31l1-1-2 1h1c-1 0 0 0 0 0 3 4 8 13 8 20v3s-1 1 0 0l-1 1c-1 1 0 0 0 0l-1 2h-2l-1 1h-3l1 1c1 0 0 0 0 0-2-3-4-17-1-24-1 1-1 1 0 0v-1 1c-4 2-4 2-7 0 1 1 0 1 0 0l1 2c-1-1 0 0 0 0l3 17 1 16c0-1 0 0 0 0l-4 12 2-2c3 0 8-1 9 3v-1c-5-14-5-31 0-45l-13 8h3c-2-1 1 1 1 2l1 2c0-1 0-1 0 0l2 5 1 11v3l-1 3c0-1 0-1 0 0 1-1 1-1 0 0l1-1-2 1h-1c3 0-1 0-2-1 2 1 0 0 0 0l-1-1-2-3-1-3v-2c-1-10-1-21 6-28l6-5c4-4 0-10-4-11v1z"/>
      <path class="st3" d="M1008 572c-1-15-39-9-19 30 5 14 17 22 31 20 15 1 25-13 23-27-2-13-9-24-19-32-12-13-28-13-33 6-4 18 7 34 18 48 18 14 37-12 28-29-10-26-63-44-54 0 4 12 11 26 24 31 13 6 31-1 33-16 2-18-24-46-40-30-6 7 0 21 10 18 8-1 11-11 5-16l-5 14h-1c1 0 2 0 0 0l4 2c-1-2 0 0 0 0l2 1v1l1 1 2 2v4c0-3 0 2 1-2l-1 2s2-2 0-1v1-1l-1 1h1-2 1-2 1-3s2 1 0 0l-1-1c-2-1 1 1 0 0l-3-3a53 53 0 0 1-5-10v1l-2-7v-2l-1 1-2 2h-1 2l3 1h-1c4 1 7 4 11 6-2-1 0 0 0 1l5 4c-2-2 0 0 0 1l1 1c0 1-1-1 0 0v3-1 2-1 2c0 2-1 0 0 0l-1 2c0-1 2-2 0-1h1c-1 0-2 1 0 0-1 0-2 0 0 0 1-1 4 3 3 1l-12-20c-1-1 0 0 0 0l-1-4s0-3 0 0v-5c0 2 0 0 0 0s1-2 0 0l1-2c1-2 0 0 0 0h-5l5 4 7 7 2 1 4 7s0 2 0 0l1 6s0 2 0 0v6c0-2 0-1 0 0v1c0-1 0 0 0 0h1c1-1 1-1 0 0l-12-1h-1c-2 0 0 0 0 0-2 0 1 1 0 0a50 50 0 0 1-10-21v-5 1l2-5-1 4 1-2-2 3 1-1c1-1 1-1 0 0h1l3-3-1 1h1l1-2zM1090 554c1-17-17-18-24-4-6 10-9 23-7 35 1 20 6 48 32 35 38-16 20-80-13-74-36 12-8 72 23 68 30-7 13-53-3-68-5-6-12-13-20-8-9 9-11 23-12 35-3 26 27 61 49 34 22-30-29-86-48-48-8 16 10 58 30 55 15-2 19-20 18-33-1-9-4-18-11-24-7-8-23-2-19 10 7 39 39 22 26 1-8-9-24-4-25 8-2 24 33 16 19-3 3 2 3 7 0 9l-9 1c-4-2-4-6-1-11l10-2h-1l5 2c1 1 1 1 0 0-3-4-3-6-4-11l-5 12-5 1h1l-5-2c-1 1-2-2-1 0l3 4v1l1 4c1 2 0 1 0 0v7l-1 4c-1 3 1-1-1 1v1h5c-2-1-8-11-10-15l-1-5s-1-3-1-1v-6l1-2c-1 1-1 1 0 0-1 1-1 1 0 0l-2 1h-1 1l6 3h-1l5 5c1 1-1-2 1 0l3 6-1-1 2 6v6c0 1 0 2 0 0v3l-1 1c-1 1-1 1 0 0 0 0-2 1 0 0h-2c1 0 1 0 0 0 1 1 0 0 0 0l-1-1-2-1-1-1a30 30 0 0 1-3-7l-2-7v-12l3-13c0 1 0 1 0 0 1-2 1-2 0 0l-4 2h1-5l-2-2c13 12 20 27 17 41h1-1c2 0-1-1-1-1h-1l-2-1c-6-6-12-15-13-25 0 3 1 0 1 0v-1l1-1c0-1 2-2 0-1h1c-1 0-1 0 0 0h1c-2-1 1 0 0 0l2 1c5 5 9 18 7 27l-1 2-1 1c-3 3-7 8-11 9h2c1 0 0 1 0 0v1c-4-15-7-31-1-45l1-1 1-3 1-1 3-3-3 3c1 1 6 3 6-1z"/>
      <path class="st3" d="M1047 558c-4-5-11-2-13 3v1c1-2 0-1 0 0v18c1 12 19 19 21 4v-1l-1 4c1-3 2-6 1-8 0-5-3-18-7-25-8-9-14 2-13 10 0 10 5 32 19 26 11-7 6-27-1-35-11-13-21 0-16 18 1 11 14 27 24 13 7-13-3-29-12-38-7-4-16 3-14 11v-2c3 34 32 31 26 8-2-11-16-22-23-8-7 19 25 20 17 1l1 2v2-1 3-1l-1 2-1 2h-14l1 1-1-2 2 4-1-2 2 5-1-3v2-3 1l1-3c4-4 6-4 11-4l4 2 1 2-4-8 1 3-2-9-16 9v1l-1-2 8 13-1-2 1 5v-2 4-3 2l1-2h-1l2-2-1 1 2-2 2-1h5-1l2 1 2 2-1-1 2 2-4-6 1 2-2-9v2-7l-14 8 2 1-1-1c1 1 1 2 0 0l2 3-1-2 2 7-1-3 1 8v-2 1-2s0 1 0 0c1-2 1-1 0 0l2-2h2-1l10 4-6-11 1 2-3-12v1l-11 4 3 6c1 1 1 1 0 0l1 5v6c0 1 0 1 0 0v1-1l4-2h-1c4 0 8 0 9 5 0-2-2-3-3-5l2 2-1-1 1 2-4-15 1 2-2-8c-2-1-2-2-1 0l-4 9c5 0 7-7 4-10zM1066 504c-3-13-23-12-23 2 2 11 20 29 32 27 8 0 12-9 10-16-3-11-13-18-23-22-8-6-22-5-22 6 1 10 9 18 15 24 21 19 50 1 22-18-8-4-17-12-27-10-13 5-2 20 5 25 5 4 11 9 18 7 20-6 1-30-13-27-8 3-8 15 0 18 9 4 17-8 10-15l3 7v-1l-2 5-7 5-3-1h1l-2-1 6 5-2-1 1 1-1-2v1l-1-3v1-3 1-3 1l1-2 2-2h-1l2-1 2-1h-1 3-1 2-1l2 1-6-4 2 1-7-6 2 2-3-4-10 13 6 2h-2l15 8-2-1 4 4-1-2v1-2l-1-2v-2l1-2v1l1-2 2-1h-1l2-1-1 1 2-1h-2l3 1-6-2 2 1-6-4 2 2-8-8 2 2-5-8v2-1 2-1 3l-1 2v-1l-1 2-2 1-2 1h1-3 1-2l4 2-2-1 13 7s1 2 0 0l4 4c-2-3 0 1 0 1l-1-2 1 2v-2 2-2 1l1-3-1 1 4-3h-1l2-1-1 1 2-1h-2l2 1-2-1 2 1-4-2c2 1 1 0 0 0l-9-9-2-3c-1-1 1 1 0 0v1-1l1 3c0-3-1 1 0 0l-1 1c-2 2-1 1 0 0l-1 1h1-1 2s1 0 0 0c3 1 7 0 6-4v1z"/>
      <path class="st1" d="M989 515c-28 13 34 46 38 20 2-12-26-25-36-23-11 4-5 19 5 20 11 3 15-15 3-18l3 1-2-1 2 2-1-1 1 1-10 13 8 3-2-1 14 8-2-1 1 1-2-2v1l-1-3 1 1-1-2 1-2 1-2 3-3h-1l3-1h-1 2-1 2c-4 0-7-1-11-3l3 1-10-5 2 1-5-4 1 2c-1-2-4-4 1 0l1 4c0-5-6-9-10-7zM942 562c-9 6-8 26-2 33 5 6 16 5 16-4l-1 2c3-10-1-47-17-30-3 8 9 14 13 6v1l-4 3h-4 1l-4-2-1-2 2 9v-2 12-2l-1 3 14-3v-1l1 2-1-1 1 2-2-4 1 2-1-4 1 2-1-7v2l-2-11 1 2v-3c0-4-6-7-9-5h-1zM1007 581c-9 5 6 35 15 33 10-3 5-17 2-24-10-23-29-10-17 1l-1-1 4 4-1-2 3 6-1-2 2 6v-2 6l13-5-3-3 2 2c-6-5-9-23-18-19zM1042 562c-2 4-2 14 1 17 2 5 8 4 9-1 2-5-2-24-10-16zM1094 571c-4-4-10 0-11 4l-2 10c-1 8 0 17 7 21 4 2 8 1 10-3 4-7 2-16 0-23-2-8-3-25-15-20-7 6-4 19-4 28 0 6 7 11 13 8s5-14-2-15l4 2 1 3-1-8c0 1 0 1 0 0l-1-13-8 7c-1 0-3-3-2-1-1-2-1-1 0 0 1 5 4 14 3 18v5c0-3 0 2 0 0 0 1 0 0 0 0h11l-1-1 1 1c-1-2 1 1 0 0v-1l-1-2c0-2 0 2 0 0l-1-17v1c1-2 0-4-1-5v1zM1055 512c0 4 13 13 17 13s5-4 4-7l-5-4c-4-3-16-11-17-2z"/>
      <path class="st3" d="M934 512c-4 2-10 3-11 8-3 5 2 12 8 12 21-3 28-33 7-24l1-1c-11 2-23 17-12 26 11 8 23-6 23-17-5-22-29-1-31 12-3 15 17 15 22 4 5-8-4-18-12-13l2-1c-3 0-5 2-6 5l1-2-1 1 2-1-2 1 2-1h-2l12 12 1-4-1 2 5-8-1 2 3-4-1 2v-1l-2 1h1-4l-5-4-1-4 1-2v1l1-2-3 6 1-2-2 3 2-2-2 2 1-2-1 1 2-1-1 1 2-1 2 1 2 1-1-1 2 2-1-1 2 2v2-1l1 3v-2l-1 3 1-3-1 2 2-3-1 1 3-3-1 2 3-2-2 1 2-1h-2l-7-9v2l1-2-2 3 1-1-2 2 1-1-7 4 2-1h-1 4-1c2 1 4 2 4 4v-1l1 2v-1 4-1l-1 2c2-4 5-7 5-11 0-3-4-5-7-3zM900 583c-10 4-10 20-3 27 6 7 18 1 18-8v2c4-12-9-32-20-19-5 9-1 22 7 28 14 7 22-9 14-20-5-13-22-13-20 3 3 12 20 7 16-5l1 3v-1l-1 2v-1l-14 4 1 1-1-2 3 7v-2l1 4v-3 1-2l1-2-1 1 4-3h-1l2-1h2-1 3-1l2 1v-1l1 2v-1l1 2-3-6 1 2-2-6v2-3 2-1 2l-1 2v-1l-3 3h1l-2 1h-2 1-3 1l-2-1h1l-2-1 1 1-1-2v1l-1-2 2 6v-3 3-2 2-2l2-1h-1l2-1-2 1 3-1h-1 4-1l3 1-1-1 2 2-1-1 2 2-1-1 1 3-1-4 1 2c0-6-2-19-11-16zM1019 494c3 8 17 7 17-2 0-7-8-10-13-6h7c-3-3-7-5-11-5-6 0-9 7-6 11 4 7 15 10 21 5 4-4 0-11-5-11l2 1c-9-9-23 0-14 11 10 10 30 0 16-10l1 1c-7-9-22-6-16 6 7 9 19-4 9-10 3 2 4 5 4 8l-1 2c-3 1-4 3-8 2l-1-1 4 3-1-1 1 2 3-12h2-3 2l-2-1 2 1-2-1 1 1-2-2 1 1-1-1 2 3v4l-1 1-2 2-1 1h1-2 1-2l5 1-3-1 1 1 4-11h-2 2-4 2l-3-1 1 1-3-2 1 1-1-1 1 1 1 1v5l-4 2h-2l5 2-2-1 3 2-2-7v5l8-9h-4 2-1 2-3 2-1 1c-6-4-14 4-10 10l1-2zM1123 594c-15 30 25 28 12-1l1 2-14 3c1 4 3 8 7 9 2 1 5 0 7-3 2-4 0-11-4-14-4-2-11 1-10 6v-1 10-2l-1 2 1-2v1l1-2 1-1 2-1h-1l10 6v-2 2c0-6-5-20-12-12zM1095 529v1-1c-5 6 4 17 12 17 6 0 7-10 0-11l3 2c-3-4-5-10-9-13-4-2-9 0-9 4 1 8 9 19 15 22 10 1 9-12 6-17v1c-5-18-24-10-14 7l8 8c10 1 12-9 7-15l1 2-3-7 1 4c0-12-17-10-15 2 2 13 21 6 14-6l1 2-1-1-9 9h1l-3-2v1l-1-1 3 4-1-2v2-2 2l13-5-2-2 1 1-4-7v2-1l-10 8v1l-1-1 2 2-1-1 2 2-1-2 1 4v-2 3l11-5-6-7 1 2-5-8 1 1-2-1-7 9 2 1h-1l5 4-1-1 2 4v-4l-1 2 10-4v1l-3-3 2 1-5-5 1 2c-1-2-3-5-5-5h1c-3-1-6 0-7 2z"/>
      <path class="st1" d="m1018 489 4 4 2 1h-1l2 2c2 2 7 0 6-3 0-4-13-11-13-4zM931 531l7-4h-1l6-6v1c5-3-1-11-5-6-3 2-13 12-6 15h-1zM903 592c-6 4 0 23 8 20h-3c2 1 5-1 5-3l-1 3c3-3-1-8-2-11v1l-1-4 1 2c-2-3-3-9-7-7v-1zM1125 599v2-1l-1 5v-1c-2 7 4 13 7 5 2-4-1-17-6-10zM1099 533l2 3v-1l2 3 1 2c1 4 7 3 6-2-1-3-4-6-7-8-2-1-5 1-4 3z"/>
      <path class="st3" d="M911 542c-10 2-13 14-13 23 1 7 7 17 15 11 6-8 6-19 5-29-3-10-13-3-16 3-7 7-8 36 8 29 5-4 9-10 9-17 1-33-24-19-21 5 2 15 19 11 19-3 3-9-1-30-14-20-6 8-8 22-1 30 12 9 18-13 16-22-2-17-20-13-20 3-3 22 21 25 21 2-2-21-20-10-12 5 3 6 13-1 8-6v-1c0 1 0 0 0 0 0-1 0 0 0 0v-1c0-1-1 0 0 0v-1l-8-1 1 2v7l-1 2c0-1 0 0 0 0l2-1v-10c0 1 0 0 0 0v-1s0-1 0 0c0-1 0-1 0 0 0 0-1 0 0 0h-1l-2-1s0-1 0 0v1l1 4v5l-2 6c-1 2 0 0 0 0h3c-1-1 0 1 0 0l-1-1 1 1-1-2c0-3 0-11 2-13 0-1 0 0 0 0s1 0 0 0h-2s0-1 0 0c0 0 0 1 0 0 2 5 1 12 0 16l-1 1s1-1 0 0c0 0 1-1 0 0 0 0 1 0 0 0h1c1 0 0 0 0 0l-1-4 1-8c1 1 1-2 2-2l2-3h-3c0-1 0 0 0 0 2 6 2 15-1 19l-2 2h2l1 2c-4-7-3-18 4-23h-1l-2-2v1c1 7 0 16-3 21l2-1c-6-5 0-21 5-25 2-1 0-4-2-3zM1126 558c-4-5-10-2-9 2-4 18 18 29 13 5-1-7-11-22-15-7 3 8 4 18 10 25 11 5 12-7 7-14-9-28-21-9-12 9 5 12 16 7 14-4 0-8-9-28-18-18-4 26 30 40 17 7-3-11-18-14-15 0 5 28 22 15 12 6-3-2-7 1-6 5v-2 1l8-1v-1c-2-1-3-4-4-6 0 1 0 0 0 0l-1-5c0-1 0 0 0 0 0 2-3 3-5 3-1-1 0 0 0 0v-1l5 13v1c0 1 0-1 0 0l1-2h4l-4-3v-1c0 1-1-3-1-1l-2-11c1 2-1 4-3 4-5-2-3 0-1 1v1l3 4v1l1 4v5-1c0 1 0 1 0 0h5c-3-3-3-6-4-10 0 1 0 1 0 0v-5c0-1 0-1 0 0l-2 1-2 1-2-1a92 92 0 0 1 6 15c0-1 0-1 0 0v-1l1-1h3c-1 0 0 0 0 0 1 1 0 0 0 0l-6-18-2 3-5-1 4 5 1 4v1c0 1 0-1 0 0v2-1h5v-1c-1 0 0 1 0 0l-1-2c-1-1 0 1 0 0-1-2-2-3-1-4v-1l-1-2s0-1 0 0v-1l-1 2h3c2 0 3-3 1-4h-1z"/>
      <path class="st1" d="M907 568c2-5 0-11 2-17l-5-1 1 13c-1 2-1 5 1 6 8 4 3-15 4-19 0-3-5-4-5-1-1 3-4 22 2 19zM1121 561c-1 3 0 6 1 8 0 3 0 7 3 8l-1-1c0 2 4 3 5 0l-2-8c0-4-6-5-5 0 1 2 2 5 1 7h6l-1 1c2-2 0-6-1-8 0-3-2-10-6-6v-1z"/>
      <path class="st3" d="M948 629c-3-6-24-26-31-20-8 6-7 17-2 25 4 8 14 25 26 19 13 3 13-16 7-24zM998 622l-5-9c-3-20-36 2-27 29 19 40 38 11 32-20zM1063 616c-3-3-7-4-11-4-15-7-26 30-24 41 4 9 15 6 23 4 11-8 21-29 12-41z"/>
      <path class="st3" d="M1026 636c-3-12-16-15-22-3-1 7-1 26 10 23 12 4 16-11 12-20zM1103 632c-2-5-7-8-12-7-12 0-16 17-15 26 2 9 15 10 20 4 8-5 8-15 7-23zM1140 642c-1-11-8-25-20-27-4 0-8 2-11 4-4 6-3 15-3 23 2 8 9 21 20 18 10 1 15-9 14-18z"/>
      <path class="st1" d="M941 637c0-2-9-11-10-13-4-5-12 0-11 6l11 13c4 5 12 0 10-6zM984 614c-3-1-6 1-7 4-1 8-5 18-1 26 3 2 7 2 9 0 4-5 1-12 3-17 1-4 3-11-4-13zM1052 617c-10-1-8 12-12 18-2 4-4 9 1 12 2 2 6 1 8-2 2-7 13-23 3-28zM1127 637c-1-4-2-10-7-12-3-1-7 1-8 5 0 6 5 11 5 17 2 11 17 7 10-10zM1095 631c-6-4-8 2-7 7l-3 7s-1 1 0 0c-4 3 0 8 4 7 5-4 10-15 6-21zM1021 646c-4-3-3-8-5-12-3-2-8 0-8 3 3 21 18 19 13 9z"/>
      <path class="st4" d="M1257 604c-14 0-29 5-44 4-15 0-30-2-45-6-1-1-3 1-4 2-1 10 42 11 49 11 8-1 45-3 44-11z"/>
      <path class="st4" d="m1234 631-6-5c-8-4-14-9-20-16-2-2-5 1-3 4 3 4 24 22 29 17zM1199 637c-6-8-13-16-18-25-1-2-2-7-5-5-8 2 20 37 23 30z"/>
      <path class="st4" d="M1227 589c-10 2-18 13-20 23 0 2 2 3 3 3 4-1 3-6 5-8 3-7 8-12 12-18v-1 1zM1191 588c-6 2-17 25-9 27 5 0 3-10 5-14 0-3 11-14 4-13zM1245 593c-6 2-15 15-11 21 5 1 4-4 5-7-1-4 10-15 6-14z"/>
      <path class="st4" d="m1262 627-1-1 1 1c-13-4-15-5-22-18-9-1 2 15 6 16 4 3 11 6 16 3v-1z"/>
      <path class="st2" d="M382 637c27 10 57 7 85 2 12-3 23-10 30-20 10-12 0-24-12-29-5-6-56-15-43 1 7 4 9 12 11 19 8 6 13-9 10-15-1-5-11-11-14-4-3 11 4 25 16 26 13 1 19-17 7-23-5-2-11-1-13 5-1 7 6 17 13 18 10 2 15-10 11-17-2-5-7-12-12-9s-6 10-4 15c5 10 22 9 22-4 0-5-4-9-9-9-9 0-10 13-5 18s14 3 16-4c0-16-21-12-18 10 0 6 8 10 12 4 5-5 4-19-2-22-13 0-10 21 3 18 11-1 9-18-2-18-9 0-10 14-16 19-7 7-18 7-26 3l-2 8c7 1 20-5 16-13-8-5-20-7-29-3-6 11 26 17 30 8 8-7 0-18-9-19-13-1-12 13-3 18 23 17 34-21 8-22-11 1-13 13-4 18 19 12 41-15 15-23-33-4-40 36-13 33 5-1 4-10-2-9-7-1-28 10-15 17l3-1c9-5 18-9 28-11l7-1c2 0 2-1-1-3l5-4c-6-1-11-3-16-6v8c6-3 12-8 15-15 2-7-3-16-11-12-6 3-9 13-9 20 2 7 10 10 15 4 3-5-5-10-8-5 5 1 2-4 4-7l2-3c-1-5-3 0-3 1-2 5-8 7-12 11-4 9 17 12 23 13 3 0 5-2 5-5-1-18-42 3-49 7l6 8c2-4 7-6 11-6l-1-10c-6 2-5-6-3-9 4-4 18-9 21-2 1 6-10 3-12 2h-2c9-2 10 16-5 1l3 4c5 7-15 2-17-1l-1 9c6-2 12-1 18 2l-2-7c-1 3-5 5-8 4-5-1-6 6-2 9 14 9 36 3 43-13l4-8c0 1-2 0-1-1l-6-2c2 3 2 7 1 10-1 2 0 2 3 1l1-9c-1-3-3-2-2-6-2 0-1 0-1 1 1 1 0 2-2 2-2 1-3-4-3-5h-3c7 6 3 16-3 5 1 0-2-5-2-2 3 1 5 4 2 6-8 3-13-8-11-14l-5 3c5 0 2 7 0 8l9 2c-1-9-7-18-15-23l-1 8c16-2 36 1 46 15-1 10-11 17-19 21-29 8-60 10-89 4-4-1-5 4-2 5z"/>
      <path class="st2" d="M473 629c3-2 6-4 7-7 3-3-2-7-5-4-2 3-7 4-9 8-1 11 19 0 16-7-7-6-16 5-24 6-5-1-11 2-16 1-4-2-10-1-10 4 0 8 25 7 23-2-3-7-11 0-17-3v9c-1 0-1 0 0 0 7 4 15-1 22-1s12-6 19-8l-4-7-7 5 5 7 8-8-7-3-4 6c-1 2 1 5 3 4z"/>
      <path class="st6" d="m349 587-2-1c-13-7-49 36-17 31l6-1h6c1 0-1 0 0 0 26 9 17-43-8-13-8 5-6 17 4 17 11-1 19-14 19-25-3-15-25-8-18 6 3 7 12 7 16 1 6-12-13-17-12-3-1-5 5-8 7-4v1c0-1 0-1 0 0v1c1-1 0-1 0 0l-2 2h-3v-1h-1v-1c1 1 0-1 0 0v1l-4 7v-1l-2 3 1-1-2 1s2 0 0 1h2c2 1 4 4 2 6l9-8c1-1-1 1 0 0l-4-1-1-1c1 1 0 0 0 0 0 1 0-1 0 0v3c0-1 0 0 0 0-1 3 3-4 5-2-8-3-16-2-24 1-2 0 1 0 0 0h1c-1-1-1 0 0 0l2 8 5-8s-1 1 0 0l6-6c1-1-1 1 0 0l10-8 1-3-1 2v-5l-1 1z"/>
      <path class="st4" d="M325 612c8-6 14-15 23-17 4 0 4-5 0-5-4-2-29 20-23 22z"/>
      <path class="st4" d="M326 603h5c2 1 4-2 2-3-2-2-12 0-8 3h1zM333 593l4 2 3 1c2 1 3-1 3-2-2-3-9-4-10-3v2z"/>
      <path class="st4" d="M332 615c2-2 1-5 2-7s2-6-1-5c-2 1-4 12-1 12zM340 613l5-15c5-3-2-7-4 0-2 2-5 17-1 15z"/>
      <path class="st6" d="M386 612c-13 20 21 43 33 37 16-7 22-32 15-46-9-10-26-3-31 7-11 16 7 43 23 24 2-7 4-17 0-24-4-6-14-5-18 1-9 12 0 32 15 23 18-12 3-38-16-29-14 7-13 33 4 34 16 1 24-22 10-30-14-9-32 8-22 22 8 16 35 3 26-13-12-18-41-1-27 17 7 8 23 4 25-6 3-12-9-22-20-19-11 2-15 17-7 24 20 17 32-22 15-32-12-8-23 8-23 19 0 10 11 17 19 12 10-7 15-27 1-31-9-2-15 4-18 11l1-1 1-1-1 1 3-1h-1l8 1 3 3 1 2v-1l1 3c0-14-21-15-22-1 1 18 21 17 27 2l-1 1h-1l-2 1-3 1h1l-3-1h1l-3-1-3-3-1-2v1-3 1-3 1l1-2-3 5 2-2 3-1h-1 6-1c3 1 5 3 6 6v-1 3-1 3l1-4-1 3 2-4-1 1c1-2-2 1 0 0l-3 1h1l-3 1-3-1h1l-3-1c2 1-1-1-1-2-1-1-1 0 0 0l-1-2v2-2 6-3l-1 4 1-1 2-3 3-1h-1 6-1l3 1 1 1 1 1 1 3v-1 3-1 3-1l-1 2-1 1-1 1h1l-3 1 1-1-3 1h2l-3-1 1 1-2-1 1 1s-2-2 0-1l-2-2 1 1-1-2v1l-1-3v1l1-3v1l1-3h-1l2-2v1l2-2 2-1-2 1 3-1h-2l3 1-1-1 3 2-1-1 2 2v-1l1 3v-1l1 3v-1 3-1 3-1l-1 2 1-1-2 2-2 1h1l-3 1h2-3 2-3 4l-3-1 1 1-2-2-2-2-1-2v-3 1-3 1l1-2 1-2v1l2-2-1 1 3-2-1 1 3-1h-2l3 1-1-1 3 1h-1l2 2-1-1 2 2-1-1 1 2v-1 3-2 3-1l-1 3 1-1-2 2 1-1-2 1h1l-2 1 1-1-3 1h1l-2-1 1 1-3-1h2l-3-1 1 1-1-3v1l-1-2v1-3 1-3 1l1-2-1 1 2-2-2 2 2-2-1 1 2-1h-1 3-1 3-1l3 1h-1c1 0 4 4 3 2l1 2-1-2 1 3v-2l-1 3 1-3-1 3v-2c1 0 2-1 0 1l-1 1 1-1-2 1h1-3 2-3 2l-3-1-1-1c-1-2 0 0 0 0l-1-2v1-3 2-3 1l1-2-1 1 1-1c-1 1-2 2 0 0l3-1h-1l3-1c6 2 6 2 9 7v4l1-3-1 2 2-3-20-5-1 10 1-3-1 2c1-3 3-6 6-6l3-1h-1l3 1-1-1 3 2 1 1c1 1 1 0 0 0l1 2v-2 3-4 2l1-3-1 2 1-3s-2 2 0 1l1-1-1 1 2-1-3 1 3-1h-2 2-3 1c-6-3-5-3-7-9v15-2l-2 8c0-2 0-1 0 0l-3 4 1-1 1-1h1-2 1l-2-1-8-4c-1-1 1 1 0 0l-1-2-1-1c-1-1 1 2 0 0l-2-3 1 1-2-7c0-6-8-8-11-3z"/>
      <path class="st4" d="M421 640c-4-9-12-17-13-27v1c0-3-4-5-5-1 2 9 8 18 14 25 1 1 4 4 4 2z"/>
      <path class="st4" d="M410 640c-1-4 5-14 1-15-4-2-5 21-1 15zM401 635c1-6 2-11 5-16 1-1 0-3-2-3-4 3-5 12-4 16l1 3z"/>
      <path class="st4" d="M427 630c-5-2-11-3-15-7-2-1-4 1-3 3l8 5c1 1 13 1 10-1zM422 621c-4-2-9-3-12-6l-3-2c-7 1 2 7 5 8 2 1 13 3 10 0z"/>
      <path class="st6" d="M448 597c5 5 12 6 18 6 8-1 26 3 29-6 2-12-26-34-35-20l-1 1c-2 1-6 2-8 5-3 3-3 8-1 12 7 12 28 0 24-13-2-9-15-12-20-4-9 16 13 25 25 16l-7-11c-13 10 7 24 14 11 2-6-5-11-10-8-10 7 5 19 9 7l-3 4-3 1h1l-4-1h1l-2-10c2-2 5 1 6 3l-2 4c4-2 3-10-2-11-3-1-9 3-11 2h-1l-1-1v1-1 2h-2c0-1 0-1 0 0v-2 1h-1c1 0 1 0 0 0 1 0 0 0 0 0l-2 1c-1 0-1 0 0 0l-2 1c3-1 5 2 4 3h1-1l5-4 4-6-2 1c-2 0-2 0-1 1 3 0 9 3 11 5l4 4 3 4s0 1 0 0l2-4-19 3c-6 1-12 0-17-2-3 0-4 3-3 4v1z"/>
      <path class="st4" d="M484 594c-9-9-21-12-33-14-4 0-4 5 0 5 8 1 16 3 24 7 1 0 11 6 9 2z"/>
      <path class="st4" d="m476 600-8-13c-7-2-1 7 1 9 1 2 7 9 7 4zM462 599c0-5-4-8-5-12v-1c1-3-4-4-4-1-2 2 9 18 9 14zM481 583c-3-1-15 1-10 5 1 2 14-5 10-5z"/>
      <path class="st4" d="M472 578c-6-1-12 2-17 4-3-1-4 4 0 4 1-1 20-6 17-8z"/>
      <path class="st5" d="M396 567c-6-17-26-29-44-23-16 3-35 25-22 40 11 9 26-5 40 0l-4-10c-46 19-17 75 25 59 15-7 9-18 15-25h-4c34 22 70 2 43-37l-2 10c13-2 24 0 28-16 4-27-28-32-47-24l8 6c7-45-59-37-59 0 2 19 30 17 38 3 4-7 2-18-8-20-18-3-27 26-16 38 15 13 34-9 31-24-2-9-13-15-21-10-17 8-13 37 5 40 9 2 18-5 20-14 2-8-1-18-9-21-22-9-27 36-3 35 11 0 19-9 20-19 3-12-11-32-24-23-8 9 8 24 18 17 15-10-5-30-19-25-18 7-2 48 18 45 26 0 15-44 0-23-9 29 31 40 24 4-1-6-12-7-14 0-2 14 14 12 21 17l7-12c-17-10-47-9-48 16-2 12 13 23 21 12 7-13-14-21-17-6-2 10 3 25 16 22s9-21-3-21-15 15-10 24c11 15 31-8 15-18-20-12-28 22-5 21 16-2 23-27 1-23-7 2-9 11-4 17 5 7 19 3 17-7-3-14-29-30-32-7-1 20 30 19 28-1-4-21-36-9-23 9 6 6 17 3 19-5 3-17-28-30-34-10-3 9 10 27 20 23 11-7 5-32-10-31-24-1-14 39 6 28 14-10 1-25-13-21-6 2-11 6-14 11h14c-8-15-33-10-33 8 0 15 19 15 21 1 2-15-16-19-22-6-6 11 2 35 18 27 9-6 12-23 2-30-11-9-24 5-23 17 0 16 23 14 21-2-7-27-42 2-22 17 8 5 18-2 18-11 0-11-13-28-24-19-9 9-9 28 5 32 9 2 18-5 19-14 1-10-9-25-20-25-16 4-5 29 9 27 24-1 25-42 3-45-9 2-11 14-7 22 6 11 24 9 28-3 4-9-3-24-14-24-12 0-17 15-7 21h8c14-12-1-25-15-25-10-4-25 3-19 15 4 7 15 7 19 0 11-26-38-23-26 1 8 12 22-5 11-13s-25 13-11 18c17 3 17-20 0-15l9 9-2 2-4-1h1l-3-3v1c-1-5-1-4 1-8v1l3-2h-1l9 3v3h1c-4-3 0-5 2-6h2l3 3v2l-2 4h1l11 3c2 0 2-1 0-4l3-2h-1 8-1c9 8 1 6-1 8l1 3c0 1 0 0 0 0l-10 1c4 4 5 11 0 14-3 2 1-3-1 1l-13 1c4 3 9 6 8 11 0 0 3 0 2 1l1-5c1-2 1-2 0 0l-4 1h1l-4-1 4 3c2 3 0 2 5 2l4 1v-1c-3 0-5-3-3-5l3-2h-1 4-1l4 2-1-1 2 4 1-5h-1l-2-1-2 7 3-2h3v-7l-4 1c-4 0-5-5-2-7h4-1l4 2 1 3v-1l4 1c2 3 7 5 11 3 3-2 4-8 8-6l-2-3c0-1 6-6 5-7l-2 2c-1 1 0-1 0 0l-1 6 11-4c-3-2-4-10-6-4l3 3c1 1 1-1 1 1v-4l3-3 6 1 1 4c0 3-4 3-6 3-2-2 1-7 4-4 0 0-1 3 0 0l-2 4 1-1-4 2h1-4c4 1 6 4 8 7l7-10h-1l4 1 2 4-2 5-4 1h-1l-3-11-2 3c3 0 4 2 2 7l-4 1c-2-2-1-4 4-6l3 2v-2c-1-3-3 7-7 1v-6l2-2h4v-6l-4 5 1-1-4 1h1l-4-1 1 1-2-3v1l-1-4v1l1-4 3-2 3 1c-1-5 4-9 8-9 10-4 22 11 30 2 10-13-26-21-19-16l1 3v-1l-14 2-1 6 3-2h-1 4c-2-1-3-5-2-7h-13c2 3-3 3-5 1-4-3-4-8-5-13v-1l-4 2h2l1 1v-4h1l3-3c3-3 5 3 3-1l-9 13c5 2 4 7 1 10 0 1-2 1 0 2v-6c2 2-3 1-3 1-3 0-1-1-2 1l-1 4c1-1 0 0-1-1-3-2-2-7 0-9 0-1 0 0 0 0l-2-1c0 3-3 9-5 9 1 0 0 1 0 0 0-4 1-11 4-13-1-1-1-2-1 0-8 11-22 4-7-8 5-5 12-7 19-6 10 3 6 13 7 21 4 8 19-2 28 0 6 1 14 6 11 13-5 6-15 1-22 5-10 7 6 17 5 29 0 2-1 4-3 5-23 9-40-27-49 14-7 17-41 0-32-18 4-9 16-9 21-18 6-17-26-10-35-7-1 0-4 0-3 1 2-24 37-22 47-4 3 4 11 2 9-3z"/>
      <path class="st2" d="M346 569c26-11 47 9 52 3 0-6-9-7-14-9-12-4-28-5-39 4-1 1 0 3 1 2z"/>
      <path class="st2" d="M375 607c2-10 8-20 15-28 2-3 8-3 9-6-12-11-29 24-26 34h2z"/>
      <path class="st2" d="M427 602c-3-11-8-21-17-27-3-1-13-4-11 2 9 4 16 7 21 17 1 1 6 12 7 8z"/>
      <path class="st2" d="M442 558c-14-4-31 3-41 13-1 10 9 1 12-1 9-5 19-9 29-9 2 0 2-3 0-3z"/>
      <path class="st2" d="M404 533c-4 7-11 32-4 37 2 1 3 0 3-1 1-9 1-17 3-25 0-3 3-15-2-11z"/>
      <path class="st2" d="M371 535c-4 3 1 10 5 7 6-7-11-12-5 0 3 6 11 0 7-5-6-7-12 2-6 7 4 3 9-1 8-5-4-8-13-6-10 2 2 4 8 4 10 0 3-5-4-10-8-6-5 3-2 11 3 11 13-2 1-19-4-7-3 9 20 10 25 32 14 8-15-33-18-34l-3 3 5 4c6 2 3-6 0-7-3-4-12-2-7 3 4 2 4-5 0-3l2-1c-3 5 3 3 4 7l3-3-5-4c-2-1-4 2-2 4 9 8 16 19 21 30h4c-3-12-12-22-23-27-1-1-3-2-2-3h2c0 3-4 2-3-1 1-1 2-2 3 0 0 2-3 1-3-1h-1c5 3 2 6 2 1h-1l2 2-2-3-1 1 2 1-2-3c0-1-1-3-2-2z"/>
      <path class="st4" d="M386 563c-4 0-4 6-1 6 6 2 6-7 1-6zM393 578c5 0 4-9-1-7-4 1-3 7 1 7zM403 576c5 0 5-8 0-7-4-1-4 7 0 7zM400 590c6 0 4-9-1-6l2-1c-5-1-6 7-1 7zM389 586v1-1l-1 1 1-1-1 1 1-1h-1 1-1 1-1 1-1v-1 1-1l3-2-5 2h1v-1 1-1 1l2-1h-1 1-1 1v1-1l1 1c-2-3-6-2-6 1-1 2 2 5 4 5h-1c5 1 9-5 4-7l2 1c-1-3-5-4-7-2-4 4 2 9 3 3zM379 580c3-1 3-7 0-7-4 0-4 6 0 7zM400 564c6 0 6-9 0-9-5 0-5 9 0 9zM399 547c-3 3 1 7 4 4 3-2-2-7-4-4zM413 565c6 0 6-9 0-9-5 0-5 9 1 9h-1z"/>
      <path class="st5" d="M372 624c3 2 10 1 13 1 2 0 4-2 4-4 0-6-11-5-14-2-4 8 10 7 15 6h-4l-2-3v-3l4-2 4 4c-1-8-13-1-6 4 9 3 8-12 0-7l1-1h-8l1 8h2-1 4-1 1v-8c-3 1-18 0-12 7h-1z"/>
      <path class="st2" d="m1447 574-27-14c2-17-10-41-30-39-24 6-33 43-18 62-39 3-18 50 12 47l5 3c1 2 3 4 6 5 8 4 17 11 17 20 0 5-7 10-2 15 20 12 30-19 19-34 35-4 64-49 18-65z"/>
      <path class="st6" d="M1386 628c21-10 43-11 65-17 30-15-12-35-28-41-11-4-21 1-32 5-54 0-37 58 0 36 30-26-1-40-26-22-16 21 36 24 46 11 7-5 9-16 4-23-8-10-30-5-32 7 3 18 30 26 46 19 12-7 1-24-10-24-10-1-13 11-7 17 7 11 31 8 26-7-7-9-18-14-27-20-9-7-21-7-30-1-6 5-5 15 3 18l17 6c13 4 20-15 8-20l-18-6 3 18c-1 1-1 0 0 0h1c2 0-1 0 0 0h1c6 2 22 13 28 16l1-16h-1 1l1 1-1-1h1l-9 12c-1 0-3-2-2 0v-1l8-11-8 2-2-1h-3l-5-2-3-3-2-2-1 14 3-1c-1 0-4-4-3-6v-1l-1 2c2-2 0 0 0 0-4 4-17 6-24 1l2 15c4-3 10-5 15-5 3-1-3 4-3-7v1c-4 4-9 12-15 7 1 1-1-1 0 0 0-1 0-1 0 0v-1c0-1 0-1 0 0v-1l4-2c11-2 23-3 34-8h2c13 0 25 7 33 17l1-12-1 1c-11 2-22 3-32 6-12 2-34 8-39 20-1 6 6 12 11 9v1z"/>
      <path class="st4" d="M1420 593c-18-2-37 1-55 3-5 0-14 5-6 9 5 1 11-2 16-2 3-2 55-5 45-9v-1z"/>
      <path class="st4" d="M1414 609c-5-5-10-13-17-16-1 0-3 1-3 3-1 4 6 6 8 9 2 1 13 10 12 4zM1396 616c-6-7-15-15-24-17-8 6 8 10 11 13 2 1 14 9 13 5v-1z"/>
      <path class="st4" d="m1417 581-4 1c-5 4-14 3-17 10-1 3 3 4 5 2 4-2 26-7 16-13zM1397 577l-6 4c-6 6-17 4-21 9-2 15 26-2 28-8 1-1 3-6 0-5h-1z"/>
      <path class="st5" d="M1257 608c-35-23-76 1-99 29-9 10-17 20-17 34-1 28 30 37 51 26 23-10 48-27 66-42h-3l-5-4-1-1-1-6c0 3-4 8-6 11-9 17-15 34-18 53-3 24 4 53 31 59 40 7 55-47 63-78 2-9 3-21 12-26l-21-6c10 30 27 65 61 70 21 4 36-12 43-30 5-11 7-22 5-34-7-38-50-56-83-70l1 25c33-17 93-56 61-98-26-29-97 28-122 45l22 5c-9-19-16-64-37-70-37-9-61 38-57 70 1 25 20 68 51 51 28-20 14-65-12-80-33-13-22 36-12 52 22 39 58 15 45-24-4-17-20-56-42-41-11 11-11 29-5 43 3 10 9 26 20 31 21 9 43-16 40-37-1-21-24-36-43-28-39 20-18 83 18 93 15 4 36 0 37-18-1-36-54-28-64-1-15 32 29 55 43 20 4-15-8-30-22-32-15-3-29 6-38 17-11 12-2 33 14 33 54-7 23-67-25-31-44 31 5 77 28 30 5-12-9-24-20-19l-47 22 16 25c25-23 57-35 91-35l-10-21c-6 11-13 22-12 35 0 15 16 32 31 26 8-3 10-13 9-21-1-12-15-23-26-15-17 13-21 39-18 59 6 31 46 21 47-8 5-33-26-42-45-17-18 19-21 70 15 68 22-4 26-30 17-47-14-25-49 12-32 31 26 25 47-22 44-44-1-13-5-26-13-37-9-13-32 1-25 16 13 24 47 17 55-6 7-18-3-62-30-49-9 5-14 15-12 25 4 14 18 25 33 27 33-3 30-41 7-56-12-12-31 9-20 21 9 11 22 25 38 26 15 1 29-20 16-32-4-6-13-7-19-2-12 7-8 22-2 32 9 18 43 46 57 18 7-17-10-33-26-30-29 11 4 41 15 55 27 22 40-29 12-38-25-6-38 26-24 44 7 12 23 20 33 7 12-20 2-46-10-63-27-30-56 14-24 33 5 4 13 3 18-1 20-18-25-68-39-81-12-11-30 6-24 19 8 18 27 32 47 33 15 1 21-14 14-26a71 71 0 0 0-44-32c-12 0-11-5-9-15l-24 10c80 54 84-86 15-20-10 16 8 29 23 25 5-1 10-3 14-6 13-9 34-16 39-32 4-11-3-25-15-27-18-5-32 17-17 30 28 20 47-28 12-30l8 30 1-1-7 4-5-1-7-5-2-6 3-8c-7 9-20 14-29 20-4 2-4 0 1 2l7 24c2-3 5-5 8-6l-16-9v-2c-1-2 1 1 0 0l-1 1c-10-2-19-13-29-8-19 10-9 53 12 57 14 3 28 9 35 22l16-22c-9-1-17-7-21-15l-23 20c15 13 26 30 34 49l23-19c-4-3-5-1-2 8l-7 6-8-1 2 1-6-5c7 8 11 18 12 28 0 2-2 4 1 1l6-5-2 1 8-2h-2l8 3c2 1-3-6-2-5-2 14-14-8-16 2l27-8-21-27-20 20c4 2 4 1 0-4v-7l7-6-1 1 7-1c-11-3-21-24-19-15l-5 6 2-1h-17l1 2-5-6 1 1-2-7c10-1 13-4 8-8-6-4-11-8-16-14l-20 22 5 6v-1c7-1 10-2 7-3-8-4-9-13-12 6l-7-1-2-2c0 5 2 9 1 13-2 5-2 0 0 5l-25 15c7 11 7 27 1 39-1 4-3 1 1 0l8 1h-2l7 5 1 7c0-2 2-2 0-1l-20-8 2 7c-2-2 12 0 11 1-5-24 22-31 5-26l-6-4c-2-2-1-1-1 2l-1 4c3-4 7-4 12 2 0-11-2-24 7-31l-20-2v-1l15-9h1c-2-2-1-5-1-6 2-8 9-12 10-20 1-7-4-14-12-15-41-2-81 12-112 38-13 11 0 33 15 26l47-22-21-19c-3 7 6-6 12 4l1 7c2-5 11-10 17-11h2l-6-5 1 2-3-7v1-7c2-3 4-6 7-3l5 6v-1l1 7v-1l-2 7c1-4 6-6 9-8 0-1 0 0 0 0-3-2-3-9 1-10 8 8 11 9 11 5l4-4 4-2c4-2 3 5 0-2l-2-8 5-7h-1c-4-1-8-4-11-7-6-8-10-19-6-28h1c2 1 0 5-1 6-1 3-3 1 0 2l7 2c-5-6-12-22-7-31l-26 5c10 10 20 26 16 41 6-8 3-7 12-6-7-8-11-19-11-31l-22 10c11 7 20 22 14 34 0-2 3 3 0-3-6-10-10-21-10-33s9-35 22-36l1 2 8 22c6 13 7 44 27 40 24-14 46-33 73-44 3-2 13-8 16-6 13 14-39 49-51 54-10 4-10 21 1 25 18 6 35 15 50 27 11 9 20 20 14 35-6 18-11 27-29 13-15-11-21-31-27-47-3-10-14-10-21-5-26 18-18 59-38 85-5 11-14 23-22 7-8-21 3-46 12-65 6-10 15-23 6-34-8-11-25-7-33 1-15 11-30 22-46 31-29 17-34 4-12-17 17-18 42-37 67-25 10 5 18-11 9-17z"/>
      <path class="st2" d="M1263 709c6-21 14-41 27-58 3-5-5-11-9-7s-7 9-9 15c-3 2-17 59-9 50zM1169 666c24-12 47-27 73-33 7-3 19-3 25-8 6-8-9-9-14-7-31 6-66 19-86 45-1 1 0 4 2 3zM1234 546c10 20 30 34 40 56 4 6 5 15 11 20 11 5 10-10 5-15-8-19-20-36-36-50-2-3-19-17-20-11z"/>
      <path class="st2" d="M1353 554c-15 5-26 15-36 27-5 7-32 36-21 43 9 4 14-13 18-18l13-17 29-29c3-3 0-8-3-6z"/>
      <path class="st2" d="M1367 656c-9-10-19-18-31-24-7-5-49-22-45-3l5 4c13 0 24 3 36 8l33 18c1 1 3-1 2-3z"/>
      <path class="st2" d="M1290 619c-4-22-11-46-2-68 1-2 5-11 9-10 10 8-18 42-8 68l1 9 4 1c-8-10-10-25-10-38 0-12-1-28 12-35l-6-2c1 16-3 34-4 50l3-1h-1l3 3-4-48c0-4-7-4-7 0 0 5 4 23 12 17 7-6-3-25-8-14 2 23 21 8 9-7-3-3-7 0-6 4 1 3 7 7 10 3 5-4-1-16-6-9 0 4 3 7 5 10 6 5 8-4 6-8l-6 4c5 4 11-4 6-7-6-4-9 7-3 8 5 0 6-8 1-8l2 2v-1l1 3h-1l-1 2 1-1-3 1h1l-3-1 1-4h3c-3-2-8 1-6 4l1 3 6-1-4-6-6 3v2l3-1-1-1-6 4c2 2 2 4 2 7-1 2 0 2 2 0l-1-4-5 2c2 2 2 5 0 7h6c-3-4-4-8-4-12h-7c1 6 1 52 7 51 9 1 6-20 8-26 0-5 7-36-2-34-7 3-13 10-15 18-3 15-2 30 1 45 2 7 5 16 11 21 8 0 5-13 4-18-5-19 6-37 12-55 4-9-6-23-16-16a54 54 0 0 0-15 38c0 8 1 16 3 23 1 3 8 30 11 22v1z"/>
      <path class="st4" d="m1248 599 1-1-1 4v-1c-1 6 8 11 12 6 5-5-1-15-7-15-3-1-6 1-7 4-3 13 24 11 13-2l1 1c-12-10-21 12-5 12 12-4 1-23-8-12-8 13 16 17 14 3-3-15-24-3-14 8 8 9 23-4 12-12-5-5-13 1-9 7 4 7 14 1 7-5l1 1v-1l1 2-1-1 1 1h-1l1 1v-1l-1 1h1l-1 1-3 2h1-2 1-1 1-1l-1-1 1 1-1-1 1 1-1-1h1v-1l-1 1 1-1h-1l1-1-1 1 1-1-1 1 1-1-1 1 1-1h-1 1-1l1 1-1-1 1 1-1-1 1 1-1-1 1 1v-1 1-1 1-1 1-1l-1 1h1-1 1-1 1-1 1-2 1-1l1 1-1-1 1 1-1-1 1 1-1-2v1-1 1-1h1-1l1-1v1l1-1-1 1 1-1h-1 1-1l1 1-1-1 2 1-1-1 1 1v2-1 1-1 2l1-1-1 1 1-1-1 1v-1 1h-1 1-2 1-1l-1-1 1 1-1-1-1-1 1 1v-1 1-2 1-1l1-1-1 1 2-1-1 1 1-1h-1l1 1-1-1 1 1v-1 1-1 1-1 2-1 1-1 2-1l-1 1h1-1 1l-1 1 1-1h-1 1-2 1-1v-1 1-2 1-2l1-2v1l1-1h-1 2-1 1-2 1l-1-1 1 1h-1l1 1v-1 4-1l-1 1-1 1 1-1h-2 1-2 1-1l1 1-1-1 1 1v-1l1 2-1-1v1-1 1l1-2-1 1 1-2v1l1-1h-1l1-1v1l1-1v1l1-1 1 1-1-1 1 1 1 1-1-1 1 1-2-2 1 1-2-2h1c-1-3-6-2-7 2zM1261 617c-4-2-7 0-10 2-5 5 2 14 8 12 4 0 7-3 7-7 0-5-5-10-11-8-2 2-5 5-4 9 2 12 24 6 15-5-2-3-7-3-10-1-7 3 0 14 5 8h-1l2-1-1 1 1-1-1 1v-1l-1 1h1-2l-1-1 1 1-1-1-1-1 1 1-1-1v-1 1l1-1h-1l1-1h1-1l1-1v1l1-1-1 1h1l-2-1 2 1-2-1 1 1-1-1 1 1v-1l1 1h-1l1 1v1-1 1-1l-1 1h1l-1 1 1-1-1 1v-1l-1 1h1-2 1l-1-1v1l-1-1 1 1-1-1v-1 1-1 1-2 1-1h1-1l1-1v1h1-1 1-1 2l-1-1 1 1-1-1 1 1-1-1v1-1l1 1h-1l1 1-1-1v1l1-1-1 1 1-1-1 1h1-1 1-1l2-1-1 1v-1 1c3 0 4-5 2-6v-1zM1279 635c-4-1-9 0-11 4v-1c-15 20 29 28 21 4-3-10-17-14-23-4-11 18 23 27 22 5v2c0-7-5-13-11-12h1c-16 0-5 25 7 16 6-5 1-16-7-15-17 6 1 25 4 9v2-3 1-1 2-1l-1 1h1l-1 1v-1l-1 1h1-2 1-2 1l-2-1h1-1v-1 1l-1-1h1l-1-1v-1 1l1-2-1 1 1-1h-1l2-1-1 1 1-1h-1 2-1 2-1l2 1-1-1 1 1-1-1v1-2 2-1 2-1l-1 1h1l-2 1 1-1-1 1h-1 1-1 1-1 1-1l-1-1 1 2v-1 1-1 2-1 1-1 2-1l-1 1 1-1-1 1 1-1-2 1h2-2 2-2 1l-2-1 2 1-2-1 1 1-1-2v2l-1-2 1 1-1-1 1 1v-2 2-2l-1 2 1-2-1 1 2-2-1 1 1-1-1 1 2-1h-1 2-2 2-1 1-1l2 1-1-1 3 3-1-1 1 3-1-2 1 2v-1 1-1l-1 1 1-1-1 1 1-1-1 1 1-1-2 1h1-2 1-2 1l-3-1h1l-2-1 1 1-1-1 1 1-1-2 1 1-1-1v1-1 1-2s0 1 0 0h1v-1 1l2-2h-1 1c2 1 6-4 2-6l1 1zM1315 609c-2-1-4 0-6 2l1-1c-10 11 16 22 17 8 1-8-9-17-17-12-6 2-7 12 1 13l-2-1h1-2l1 1-1-2c7 12 23 0 12-9-10-7-20 9-7 10l-2-1h3-1 1l-1-1 1 1-1-1v1l-1-1h1l-1-1v1-2 1-3 1l1-2 2-2v1l1-1h1-1l2 1-1-1 1 1v-1l1 2c-2-3-4-5-7-5l4 9 1-1-2 1 1-1-1 1h1-1 1-1 1-1 1l-2-1 2 2-1-2 1 2v-1l1 2-1-1v1l1-1h-1l1-2 1-1 1-1h1-1 2-4 2l-3-1 1 1-1-1 1 1 1 1-2-3 1 1v1-1 2-1l-1 1h1-1c2-1 2-4 0-5l-1 1zM1307 589l-3 1h1l-1 2v3l4 3h5l1-2 2-1 1-2c2-5-3-10-8-9-3 0-5 2-6 5-1 2-1 5 1 7l3 2c2 1 5 0 7-2 7-5-3-16-9-9h1c-6 4 1 14 7 9 2-1 3-5 1-7l1 1-3-2h1v1l1 1v3l-2 2 2-1-2 1h1l-1 1v-1l-1 1h-1l-1-1 1 1-1-1-1-1 1 1-1-1v-4 1l1-1h-1l1-1h1-1 2-1 2v1l1 1-1-1 1 1v1-1 1-1l-1 1h1l-1 1v-1 1h-1 1-2 1-1 1l-1-1v1-1 1-1 1-2 1-2 1-1 1l1-1-2 1 1-1v1-1 1l1-1h-1 1-1 1l1 1-1-1 1 1-1-2v1l-2-2 2 1h-1 1-1 1c-1-1-3-2-4 0z"/>
      <path class="st4" d="M1279 621s0-1 0 0c2-5-8-7-9-2-4 14 24 13 18-1-3-8-23-11-17 2 2 6 14 10 16 2 2-10-18-15-16-3s20 4 9-4l1 1v1l-1-1 1 1v-1 3-1l-3 5 1-1-2 1h1-1 1-2 1l-1-1 1 1-1-1 1 1-1-1h1l-1-1v1-1l5-5-1 1h1l-2-1 2 1-2-1 1 1-1-1 1 1-1-2 1 1-1-1v1-1 1-1l-4 5h1-1 2-1l3 1h-1l2 1v-1 1-1 1-3 1-1l1-1-1 1 1-1-1 1 2-1-2 1h1-4 2l-1-1 1 1-1-1 1 1-1-1 1 1v1l-1-2c1 2 1 4-1 5l1-1-1 1h-1 2-1l3-1-1-1zM1292 641c2 5 11 5 12-2 0-9-15-9-12 1v1zM1257 643l1-1-1 2c6-6-2-15-8-10l1-1c-10 4 0 18 7 9v1zM1313 579c6-5-2-15-8-9-6 5 2 14 8 9zM1304 627c8-8-6-20-12-10-4 7 5 15 11 10h1z"/>
      <path class="st5" d="M271 565c-1-6-4-13-3-19 11-1 11 6 9 15-3 10 6 8 12 6 3 0 9-2 9 3 1 3 1 9-1 12l2-2c-6 3-26-7-26 2 4 6 10 12 11 19l-13 2 5 3-4-22c0-3-4-3-5 0-2 6-5 12-10 16-5 2-8-5-10-8-1-2-2-3 0-5 4-3 21-7 13-13l-19-7c1 1 1-2 1-3l6-9c-2 0-2 0 0 1l19 14 4-5c-7-4-14-9-22-10-8 5-3 20 7 13 7-8-11-15-14-5-2 8 11 11 11 2 0-8-11-8-12-1-1 12 14 10 17 1l-7-2c-2 7 5 17 13 12 8-4-1-17-7-10-6 6 2 15 9 13 8-2 8-12 1-16-4-2-8 5-7 9 3 10 19 5 17-5 0-11-10-10-10 0 1 21 22 1 6-13-7-5-9 10-4 13 7 3 10-8 8-12-3-8-12-5-10 3 1 4 6 8 9 3 3-4 2-10-1-14-12-6-8 21 2 14 5-5 1-14-6-15-4 0-5 5-2 7l4 2 3-6-2-1-5 5c11 3 13-8-2-8-3-1-4 5-1 6 6 4 4 14 0 18-3 5-12 9-7 16 8 7 9-9-1-6-10 8-2 23 6 12 3-6-5-11-10-7-5 3-5 13 1 15 8 2 11-9 7-13-5-5-13-2-13 5 0 6 10 10 11 2 2-6-8-12-13-9-7 5 2 22 10 14 4-6-3-14-9-13-6 5 1 17 8 16 8-1 8-12 0-12-6 1-5 12 1 13 9 2 6-11-2-11-5-1-7 9-1 8 8-3 12-11 10-18 0-3-4-5-6-3-7 18 23 14 12-3-9-9-11 17 0 16 10-1 4-23-5-18-7 12 15 16 11 3-9-9-9 15-6 18 8 5 7-8 4-12s-10-10-13-4c-9 20 7 22 14 4l-6-1 4 17c1 2 4 3 5 2 3-2 2-6 2-9l-6 1c1 4 1 9 4 12 5 4 7-5 6-8 1-4-4-13-8-8-2 4-4 12 1 15 2 1 5-2 5-4 0-11-16-5-10 4 6 6 12-7 11-12 0-7-4-13-5-19 0-4-6-3-6 1-1 6 4 13 10 10 8-3 0-22-7-15-3 6 4 16 11 11 4-3 2-10-2-11-6-2-7 6-5 9 8 11 20-7 8-11-9 1-3 19 4 13 9-9-3-23-6-7 0 14 22 9 12-3-9-7-12 10-4 13 7 0 10-10 6-14-5-7-12 5-7 10 5 4 8-5 7-9-1-5-8-3-8 1l-1 4c0 6 8 5 8 0l1-4-8 1v2l8 1v-1l-6-1c1 1 1 2-1 3l6 1-1-3-3 3c-2 0 0-4 0-5l-7-1-1 5 5-2v-1l-6 2c-1-1 1 0 1-1l-6 1h3l-1-1v-3l-5 2 2 5v-4l-6 1c1 7 8 19 1 24l5 1-3-2 6 2v-7h-6c2 2 3 5 1 8l7 1-4-11c-1-3-7-3-6 1l-1 5h7l-4-16c-1-2-4-4-5-3-3 3-4 7-8 10h1l1 3 1-2 2-8-4 3c3 1 5 5 5 9h7v-14l-6 1 1-2-6 1c4 3 1 9 5 6-1-1-2-4 0-6h-6c3 4-1 7-1 5h-7c2 3 0 8-4 9l3 6v1c1-2 4-4 4-6l-3 3-1-1c2-2-4-1-3-6l-5 2c2 1 4 3 5 2l-1-3c-1 0-1 0 0 0 1 1 3 2 4 0h1v2-1c0-3 2-1 1-4l2 1c1-2 1-4 3-5l-4 1 6-3c-1-2 2-3 3-4 9-7 13-25 1-33l-3 7 7 2-1-7h1c-3-1-7 2-5 5 2 5 12 7 11-1-1-2-5-3-6-4l-2 7v2h6c-2-1-3-4-2-5l-6 1v5h6v-2l-7 2c2 1 2 3 0 4l6 1v-4l-6 1c1 2 5 8 1 10l6 1v-5h-7c1 2 2 5-1 5 0 0 0-1 0 0h-4c1 1 1 3-1 2v-1c-3-3-1 0-3-1-1-1-2-2-1-4 1-4-6-6-7-2-1 1-4 5-5 2h4c2 0 2-3 3-5l-4 2 19 9c3 2 7-2 4-5l-18-13c-5-5-11-6-14 2-2 4-5 8-5 13-1 7 18 10 23 13l-1-6c-15 9-25 12-9 28 10 14 21-8 24-17l-5-1c2 5 0 27 6 25 28-1 16-15 6-30l-3 5c7 1 25 7 27-1 6-21-2-27-22-21 2 5 2-3 3-5 6-19-26-25-23-8l5 17c1 3 6 2 5-1h1z"/>
      <path class="st2" d="M277 580c-1-6-3-12-7-17-3-5-13-17-19-11-2 5 6 8 8 12l8 14c1 1 2 5 4 6 3 1 6-1 6-4z"/>
      <path class="st4" d="M262 579h-1c-5 1-2 8 3 6 2-2 1-6-2-6zM277 596c7-1 5-11-1-9-4 2-3 9 1 9zM276 573c3 5 11-1 6-5-3-4-9 1-6 5zM273 556c-1-2-4-3-5-2-5 5 6 9 5 2z"/>
      <path class="st5" d="M68 574c-5-7-19-28 1-23-1-5-4 22-5 24l11 1c1-10-2-23-10-30-12-4-9 19-6 25 1 4 8 6 10 2 10-30-22-37-8 7l5-7c-10 0-20-3-31-4-19-1-14 33 5 27 10-2 19-5 28-10 12-14-26-13-33-10-7 1-4 11 3 10 6-1 12-2 19-1 6 0 6-10 0-11-5 0-9 0-14 2l3 10 16-4c0-8-2-1-4 1-6 9-15 24-8 35 11 13 27-2 25-15-2-7-2-14-2-21-1-4-8-4-9 0-6 9-10 21-6 31 3 3 8 2 9-2l4-30-9 1c8 8 15 28 26 30 6 1 11-4 14-8 7-13-19-25-27-31-5-3-9 2-7 7 3 7 17 27 26 23 7-9-7-23-15-26v10c22-5 36-13 18-35-7-4-23 13-27 19-7 16 20 5 24-2l-8-7c-11 19 17 15 10 1-5-5-9 0-10 5-2 8 10 10 11 0l-10-2v-1l7 6 1-3c2-5-5-12-8-7s-9 8-14 8l4 9c5-7 12-13 20-18l-7-1a68 68 0 0 1 5 10c-5 5-12 7-19 8-6 1-4 8 0 10 5 2 9 7 10 13l8-6c-8-5-14-11-17-20l-7 7 22 17h1c-6 7-8-1-11-5l-12-17c-2-3-8-3-9 2l-4 30 10 1c-2-8 0-16 5-23l-9-4c-3 10 3 19 0 28-13 10-1-20 3-23 8-8 4-18-8-15l-15 3c-6 2-4 12 3 10l10-1v-10c-7 0-14 0-22 2l3 10c9-2 18-2 26 0l-1-9c-4 1-29 14-29 6v-3c0-2 0-1 1-1 10 0 20 2 30 4 3 1 6-1 7-4 0-8-3-17-2-25l-10 2c1 3 2 8 0 11l10 1c-2-5-2-11-1-16l-10 1c5 7 7 15 5 23 0 6 10 7 11 1 1-9 4-19 4-29-2-11-22-10-28-2-6 11 3 25 11 33 3 4 10-1 7-5z"/>
      <path class="st2" d="M64 587c2-3 7-1 8-5 3-6 21-25 8-27-6 2-8 10-12 15-2 5-7 10-4 15l-1 2h1z"/>
      <path class="st4" d="m55 574 1 6c1 3 7 4 8 0l1-4-1-3c-2-3-8-3-9 1zM61 584c-3 1-3 6 0 8 9 4 9-12 0-8zM75 585c2-2 2-5 0-6-1-2-4-2-5 0-3 3 1 8 5 5v1z"/>
    </g>
  </g>
</svg>