<svg viewBox="0 0 1270 650" fill="none" xmlns="http://www.w3.org/2000/svg">
	<g>
    <path d="M711.9 204c.5 4.2.7 8.4.8 12.6 0 .3.1.6.3.8l.8.2 1.3-.2c1.7 0 3.3.4 4.5 1.5 1.3 1 2.1 2.4 2.3 4 .2 1.2.3 2.4.2 3.6v9l-.6 5-.3 5.4.4.7c2-1.4 4.2-2.3 6.7-2.7a7.2 7.2 0 0 1 5.3 3.7c.4.7.5 1.4.5 2.2.1 2.7-.1 5.4-.7 8-1.5 6-2.9 12.1-4.8 18l-.7 2.6c2.6 1.3 4.9 3.2 6.6 5.5a13 13 0 0 1 .8 8.8 44 44 0 0 1-11 20.4c-.2 2-.2 4 0 6a6.7 6.7 0 0 0-5.8 2 6.5 6.5 0 0 0-1.8 5.6l-.5 3.6c-.2.7-.3 1.5-.3 2.2v11.3c0 .9.3 1.7.4 2.7v1l-.5.5-4.5.2c-.5-.4-1-.6-1.6-.8-3.6-.7-7.3-1-11-1-1.8 0-3.6-.5-5.2-1.5a5.3 5.3 0 0 1-2.3-6.7 5.6 5.6 0 0 1 4.5-2.6h12.5l3.2.6 1.3-.3c-.4-.9-1-1.7-1.5-2.5l-6-8.1c-2.5-1.4-5.4-2-8.2-1.8l-20.7.1a31 31 0 0 1-7.3-.9 20 20 0 0 1-4.6-1.8c-1.3-.7-2.4-1.7-3.2-2.8l-.5-1.2a8 8 0 0 1 1.8-9.1c1-1.5 2.5-2.7 4.2-3.5l4.2-1.8c.8-.4 1.8-.5 2.3-1.5l-.7-1-9.6-8.3c-1-1-2.2-2-3.2-3.2a8.3 8.3 0 0 1-2.6-7.3l.2-1.5a7 7 0 0 1 5-3.7c.3 0 .7-.1 1-.3.4-.2.6-.6.8-1l-1.1-1.2-6.1-6.2a24.3 24.3 0 0 1-3.4-4.2c-1.4-2.4-3.2-4.6-4.6-6.8-1-2.8-1.3-5.8-.9-8.8a6.5 6.5 0 0 1 4.4-3.7c2-.4 4 0 5.9-.5a3.1 3.1 0 0 0-1-2.6c-2.7-3-5.2-6.1-7.6-9.4-1.1-1.7-2-3.4-2.8-5.2a6.2 6.2 0 0 1 3.1-8.6l1.2-.7v-1l-3.2-4.3-.6-.7-3.8-6.7c-.8-1.7-1.4-3.4-2-5-.8-1.9-1.1-3.9-1-5.8v-2.5a9.8 9.8 0 0 1 5.5-6.6c2-1 4-2.3 5.8-3.4a2.5 2.5 0 0 0 .5-2.6 41 41 0 0 1-2.1-7c-.8-2.9-1.2-5.9-1.4-8.9-.1-2.5.4-5 1.4-7.4 1-1.3 2.3-2.5 3.7-3.5a24 24 0 0 1 5.4-.3h4.7c4.4 1.5 6.5 5 9.3 7.7a1.1 1.1 0 0 0 1.2-.4l2-2.3c1-.3 2-.6 2.8-1a4.9 4.9 0 0 1 4.4.5c1.6.9 2.9 2.2 3.8 3.8 1.6 3 2.7 6 3.5 9.3.9 3.2 1.4 6.5 2 9.7.5 1.9.9 3.8 1 5.8.1 1.5.4 3 .8 4.4 0 1.5 0 3 .3 4.5.4 0 .8 0 1-.3 1-1.8 2.4-3.3 4.2-4.3 1.9-.3 3.8-.3 5.6 0a9.3 9.3 0 0 1 4.7 6l1.3 4.3-.1 5.2Zm-15 59.8-1 .7-1.8.3-1.5-.6a9.6 9.6 0 0 1-1.8-3.7l.2-.5 2-2a45.2 45.2 0 0 0 13.5-28.5c.5-2.7.7-5.4.3-8.2a4.3 4.3 0 0 0-2.4-3.6 4.5 4.5 0 0 0-4.4.1c-3 1.2-5.6 3.2-7.4 5.9a51 51 0 0 0-4.3 6.3c-.5.7-1 1.5-1.7 2.2l-.5-.9c-.7-4.2-2-8.2-4-12a3.1 3.1 0 0 1-.3-2.5c1.4-1.8 2.6-3.8 3.4-6 1.8-3.7 2.7-7.7 2.8-11.8v-10c0-.9 0-1.8-.2-2.7l-2-6.6c-.5-1-1.4-1.7-2.4-2.2a7 7 0 0 0-4.8.5l-1.3 2.3c-.5.8-.6 1.7-1.8 1.8-.7-1-.3-2-.5-3.2a57 57 0 0 0-4.7-13.7 6.8 6.8 0 0 0-5.6-3.4 6 6 0 0 0-3.2.4 7 7 0 0 0-3 4.4c-.2 9-.4 6.3 1.8 12.9.8 2.4 1.8 4.8 2.9 7.1 3 6.3 5.3 12.9 6.8 19.6v.5c-.6.7-1.7.4-2.5.8l-2.8 1.4-1.4 2.9v6.3l1.5 3.4c.5 1.8 1.3 3.4 2.4 4.9l1 1.5c3 5.5 6.2 10.7 9.8 15.8a8.6 8.6 0 0 0 3.6 3.4c.6.2 1.2.3 1.6 1 .3 1.1.3 2.3 0 3.5 0 .4-.6.7-1.3.7a13.8 13.8 0 0 0-5.6-3.2c-1.5-.2-3-.1-4.6.3l-.8.6a6.3 6.3 0 0 0-1.3 8.2c.9 2 2 3.8 3.2 5.5 1.9 2.6 3.5 5.3 5.5 7.8 1 1.7 2.6 3 4.4 3.9 0 1.9-.4 3.8-.9 5.7a3.3 3.3 0 0 0 .3 3.1c1.2 1 2.7 1.4 4.2 1.3h10c0 .8.3 1.5.9 2 1.2 1.2 2.1 2.6 2.8 4.2l1.6 3.1a7 7 0 0 0 2.3 2.8l1.4 1.1v1.4c0 .5-.4 1.2-1.4 1.2l-1.6-1.3a16 16 0 0 0-5.1-3.8l-1.6-1a23 23 0 0 0-5-2.6 6.8 6.8 0 0 0-7.2 3.4v3.8a20 20 0 0 0 1.8 3.2c1.1 1.2 2.4 2.3 3.8 3.1 2.2 1.4 4.4 2.8 6.4 4.3a113 113 0 0 0 16.7 9.4l2 .8c2.2-1 2.2-1 2.1-3.2a12 12 0 0 1-3.2-5.9l.5-1.2c3.1-5.7 5.5-11.7 8-17.8 2.1-4.2 2.9-9 2-13.6a9 9 0 0 0-4.3-4.7h-3.5c.2-1.5 0-3-.4-4.4l-2.7-2.6c.2-1.2.2-2.4 0-3.6-.5-2.5-1.2-5-2-7.4a6.3 6.3 0 0 0-3.3-3.7 6.2 6.2 0 0 0-5.4-.6 12.3 12.3 0 0 0-4 4.5 18 18 0 0 0-1.7 7l.6.4Z" fill="#988FC1"/>
    <path d="m711 348 4.5-.1.5-.4v-1.1c0-1-.4-1.8-.4-2.7v-11.3l.2-2.2c.3-1.1.5-2.3.6-3.5a6.5 6.5 0 0 1 1.8-5.7 6.7 6.7 0 0 1 5.7-2l2 1.9c.7.6.8 1.7 1.7 2 1 .4.8-.3 1-.7 4.1-10 9.5-19.6 16-28.4 1-1.2 2-2.3 3.2-3.3.7-.8 1.6-1.4 2.4-2.2h2.8a5.4 5.4 0 0 1 4.8 5.3 5 5 0 0 1-1 3l-1.1 1.4c-4.5 5.3-8.4 11.1-11.6 17.3-2.2 4.1-4.2 8.3-6.4 12.6a9 9 0 0 0-1.2 4.8l-.3.5.5-.3c.5 0 .9-.2 1.3-.4l5.1-3.9c3.2-2.5 6.4-5.2 9.6-7.5 3.2-2.7 7-4.5 11-5.4a7 7 0 0 1 5.8 3.6v4.4c-.8 1.6-2 2.9-3.4 3.9-2.2 1.6-4.5 3.1-6.6 4.9-.7.6-1.3 1.2-1.9 2-.9.1-1.7.6-2.4 1.2-2.2 2-4.7 3.7-7.1 5.5-1 .7-2 1.5-2.7 2.4a237.5 237.5 0 0 0-13.7 17.3 11.4 11.4 0 0 1-8.8.5c-3.8-1.2-7.7-1.9-11.4-3.1l-1-.2a5.8 5.8 0 0 1-3.4-1.6c-.9-.9-1.5-2-1.6-3.3.1-1.4.8-2.6 1.8-3.5 1-1 2.3-1.5 3.6-1.6Z" fill="#CCDC97"/>
    <path d="M732 360.8a131.9 131.9 0 0 1 16.4-19.7c2.4-1.8 5-3.5 7.1-5.5.7-.6 1.5-1 2.4-1.3h5c1.3 0 2.5.4 3.6 1a6 6 0 0 1 3.2 5 5.9 5.9 0 0 1-2.6 5.3l-.8.4c-3.5 2.1-7.2 4-11 5.7-4.9 2-9.5 4.3-14.5 6.5l-5.1 2c-1.2.5-2.4.7-3.6.6Z" fill="#988FC1"/>
    <path d="M682.7 275.4a10 10 0 0 1-4.4-3.8c-2-2.5-3.7-5.2-5.6-7.8a44.9 44.9 0 0 1-3.2-5.5 6.2 6.2 0 0 1 1.4-8.2l.8-.6c1.5-.4 3-.5 4.6-.3 2 .6 4 1.7 5.5 3.2.8 0 1.2-.3 1.3-.7.3-1.2.3-2.4 0-3.5-.3-.7-1-.8-1.5-1-1.5-.8-2.8-2-3.6-3.4a161.4 161.4 0 0 1-14.8-25.6v-6.3l1.5-3 2.7-1.3c1-.5 2 0 2.6-.9 0-.1.2-.2 0-.4a99.2 99.2 0 0 0-6.8-19.6 66 66 0 0 1-3-7.1c-2.2-6.6-1.9-3.9-1.7-13a7.1 7.1 0 0 1 3-4.3 6 6 0 0 1 3.2-.4 6.9 6.9 0 0 1 5.6 3.4A63.4 63.4 0 0 1 675 179c.2 1.2-.3 2.1.4 3.2 1.3 0 1.4-1.1 1.8-1.8l1.4-2.3a7 7 0 0 1 4.7-.5c1 .5 2 1.2 2.5 2.2l2 6.6c.1 1 .2 1.8.1 2.7v10c0 4.1-1 8.1-2.7 11.8-.9 2.2-2 4.2-3.5 6a3.1 3.1 0 0 0 .3 2.6c2 3.7 3.4 7.7 4.1 12 0 .2.3.3.5.8l1.7-2.2a51 51 0 0 1 4.3-6.4c1.8-2.6 4.4-4.7 7.4-5.9a4.5 4.5 0 0 1 5.5 1.7c.4.5.6 1.2.7 1.9.4 2.7.3 5.4-.4 8l-.3 1.9a45.2 45.2 0 0 1-15 28.7 2 2 0 0 0-.2.5c.3 1.4.9 2.6 1.7 3.7l1.6.6-2.8 1.4c-1 .6-1.9 1.4-2.8 2.1l-.7-2.1a31.8 31.8 0 0 0-12.4-12.4l-1.3.5a7 7 0 0 0 1 4c1.5 2.6 3.2 5.1 5 7.6 1.6 2 3.5 3.8 5.7 5.2l-2.6 4.3ZM701 223h-.7a28.5 28.5 0 0 0-11.5 21.2c0 .5 0 1-.2 1.4-.8 3.2-.9 6.5-.4 9.8 1.3-.2 1.3-.2 1.6-.6l2.7-3.6a40.7 40.7 0 0 0 8.7-22c.6-1.7.7-3.6.4-5.4l-.6-.8Zm-20.4 15.8.7-.6c.3-2.2.2-4.5-.4-6.6a56 56 0 0 0-2.9-8.6c-1.5-3-3.4-6-5.7-8.6-.4-.5-1-1-1.5-1.3-1.2-.2-2.1-.3-2.8.6a7 7 0 0 0 .6 5.6l4.6 8.3c2.2 3.7 4.9 7.2 7.4 11.1v.1Zm.5-55.6-1 1.5a30.4 30.4 0 0 0-2.3 11.4v6.8c0 2.4.6 4.8 1.7 6.9 0 .2.5.3.6.5.2.2.6-.4.7-.6 1.6-3.7 2.5-7.8 2.5-11.8v-7.2c0-2.5-.4-4.8-1.3-7 0-.3-.5-.4-.9-.6v.1Zm-9.8 8a20 20 0 0 0-.3-5.3c-.3-.9-.5-1.8-.5-2.7 0-2-.4-3.9-1-5.7-.7-2.5-1.5-5-2.4-7.3a4.7 4.7 0 0 0-3-3.3c-.3.2-.8.5-.9.8-.5 3.3 0 6.7 1.3 9.7 1.6 4.1 3.4 8.1 5.2 12.1.2.6.6 1.4 1.6 1.6v.1Z" fill="#DCDCFF"/>
    <path d="M715.6 274.6h3.5a9 9 0 0 1 4.4 4.8c.8 4.6 0 9.4-2.1 13.6-2.5 6-5 12-8 17.8l-.5 1.2a12 12 0 0 0 3.2 5.9c0 2 0 2-2.1 3.2l-2-.8a113 113 0 0 1-16.7-9.5l-6.4-4.2c-1.4-.8-2.7-1.9-3.8-3.1-.7-1-1.3-2-1.8-3.2v-3.8a6.7 6.7 0 0 1 7.1-3.4 23 23 0 0 1 5.1 2.6l1.6 1a16 16 0 0 1 5.1 3.7l1.6 1.4c1 0 1.3-.5 1.4-1.2v-1.4l-1.4-1.1a7 7 0 0 1-2.3-2.8l-1.6-3.1c-.7-1.6-1.6-3-2.8-4.2-.6-.5-.9-1.3-1-2l5.8-1.6c2.2-.5 4.3-1.6 6-3.1 2-.7 3.7-2 5-3.6l2.7-3Zm-2 6c-.4.8-1 1.6-1.5 2.3a14.9 14.9 0 0 0-3.2 9.7v4.5a22 22 0 0 0 1.3 8.4h.3a88.6 88.6 0 0 0 8.4-22.8l-1-2.3a1.8 1.8 0 0 0-2.1-1l-2.1 1.2Zm-26 17.1c-.2.5-.4.7-.4 1 0 .4.2.9.4 1.3.8 1 1.8 2 3 2.7l10.4 6.5 4.4 2.5c.5.3 1 0 1.6-1.1l-1.3-1.7-4.9-4.8a18 18 0 0 0-5.8-4.2 40.4 40.4 0 0 1-4.5-2.5c-1-.2-2-.1-3 .3Z" fill="#DCDCFF"/>
    <path d="m715.6 274.6-2.6 3a12 12 0 0 1-5 3.5 144 144 0 0 0-.8-3.4 10.5 10.5 0 0 0-7.4-4.6 6.5 6.5 0 0 0-5.3 4c-.8 1.5-1.2 3.2-1.2 4.8v3.6h-7.2c-1.5 0-3-.4-4.2-1.3a3.3 3.3 0 0 1-.3-3.1c.5-2 .9-3.8 1-5.7l2.5-4.5 2.7-2.8c1-.7 1.9-1.5 2.9-2.1l2.7-1.4 1.7-.3a1 1 0 0 0 1-.7c3.7-.1 7.4.4 10.8 1.6 1.9.6 3.6 1.6 5.5 2.2l2.7 2.7c.5 1.5.7 3 .5 4.5Z" fill="#EBF4EF"/>
    <path d="M712.5 267.6c-1.8-.7-3.5-1.7-5.4-2.3a27.7 27.7 0 0 0-10.8-1.5c.1-2.4.6-4.8 1.6-7 1-1.8 2.4-3.4 4.1-4.5a6.2 6.2 0 0 1 5.4.6 6.4 6.4 0 0 1 3.2 3.7 72 72 0 0 1 2.1 7.4c.1 1.2 0 2.4-.2 3.6Z" fill="#DCDCFF"/>
    <path d="M693.4 285.4V282c0-1.7.5-3.3 1.2-4.8a6.3 6.3 0 0 1 5.3-4.1 10.7 10.7 0 0 1 7.4 4.7l.8 3.3a13.9 13.9 0 0 1-6 3.2c-2 .4-3.8 1-5.7 1.5l-3-.3Z" fill="#234E32"/>
    <path d="M696.3 263.7c0 .2-.2.4-.4.6a1 1 0 0 1-.6.1l1-.7Z" fill="#DCDCFF"/>
    <path d="m736.8 332.8-.5.3.3-.5.2.2Z" fill="#EBF4EF"/>
    <path d="M701 223c.3.5.6.7.6 1 .3 1.8.2 3.6-.4 5.4a40.7 40.7 0 0 1-8.7 22l-2.7 3.6c-.3.3-.3.3-1.6.6-.5-3.3-.3-6.6.4-9.9l.2-1.3a28.5 28.5 0 0 1 11.5-21.2l.7-.1Z" fill="#988FC1"/>
    <path d="M680.6 238.7c-2.5-4-5.2-7.4-7.4-11.2-1.6-2.7-3.2-5.5-4.6-8.3a7 7 0 0 1-.6-5.6c.7-.9 1.6-.8 2.8-.6l1.5 1.3c2.3 2.6 4.2 5.5 5.7 8.7a56 56 0 0 1 3 8.5c.5 2.2.6 4.4.3 6.6l-.7.6Z" fill="#988FC1"/>
    <path d="m681.1 183.1.9.4c.9 2.3 1.3 4.7 1.3 7v7.3c0 4-.9 8-2.5 11.8 0 .2-.4.4-.7.6-.2.3-.5-.3-.6-.5a14.1 14.1 0 0 1-1.7-6.9V196c0-3.9.8-7.8 2.3-11.4l1-1.5Z" fill="#988FC1"/>
    <path d="m688.2 268.8-2.7 2.8a21.2 21.2 0 0 1-5.6-5.2c-1.9-2.4-3.5-5-5-7.6a7 7 0 0 1-1-4l1.3-.5c5.2 3 9.5 7.2 12.3 12.4.3.7.6 1.4.7 2.1Z" fill="#988FC1"/>
    <path d="M671.3 191.1c-1.2-.2-1.4-1-1.6-1.7-1.8-4-3.6-8-5.2-12-1.3-3.1-1.8-6.5-1.3-9.8 0-.3.6-.6.9-.8a4.8 4.8 0 0 1 3 3.3c1 2.4 1.7 4.8 2.4 7.3.6 1.8 1 3.8 1 5.7 0 1 .2 1.8.5 2.7.3 1.7.4 3.5.3 5.3Z" fill="#988FC1"/>
    <path d="m713.7 280.6 2.2-1.2a1.9 1.9 0 0 1 2 1c.5.7.9 1.5 1.2 2.2-1.7 8-4.6 15.6-8.4 22.8h-.4a22 22 0 0 1-1.2-8.3v-4.6c-.1-3.5 1-6.9 3.2-9.6l1.4-2.3Z" fill="#988FC1"/>
    <path d="M687.6 297.7c1-.4 2-.5 3-.3l.8.3c1.2.8 2.3 1.5 3.6 2.1a18 18 0 0 1 5.8 4.2l4.9 4.8 1.4 1.7c-.6 1.1-1.2 1.4-1.7 1.1l-4.4-2.5-10.5-6.4c-1.1-.8-2.1-1.7-3-2.8-.1-.4-.3-.8-.3-1.3l.4-1Z" fill="#988FC1"/>
  </g>
  <path d="M279.5 111.7c-1.2-1.9-2-4-2.4-6.1a8.6 8.6 0 0 1 4.5-7.1c3.3-2.3 7.1-3.8 11-4.7a8.8 8.8 0 0 1 9.5 2.9l.7.8c1.4 3 0 5.3-1.5 7.8-1.5 1.1-2.8 2.4-4.4 3.4a23.1 23.1 0 0 1-14.1 4l-3.3-1Z" fill="#EBF4EF"/>
  <path d="M180 186.3a66 66 0 0 1-4.5-5.5c-2-3.2-3.2-6.8-3.3-10.5-.2-3 0-5.9.7-8.8 1.4-5.7 3.1-11.4 5.2-17l10.7-32.6 2.7-7.3 9.6-25.4 6-14.4a38.9 38.9 0 0 1 11.4-14c4.8-3.9 10.8-6 17-6 3-.2 5.9-.1 8.8.2 3.1.3 6.3.4 9.4.2 8-.6 15.9-.4 23.8.6l25.8 2.9c5.6.6 11 2 16 4.3 2 .9 4 2 5.8 3.2 1.6 1 2.9 2.4 3.8 4A66.4 66.4 0 0 1 340.3 87a262 262 0 0 1 6.8 36c1.3 7.8.6 16-2 23.5l-1 3.7a57.6 57.6 0 0 1-13.4 19.6l-7.2 5.2c-5 3.5-9.8 7.2-15.2 10.2l-10.3 6.2-12.2 7.5c-11 6.4-22.2 12.6-33.5 18.5l-5.6 2.8c-3.1.8-6.5.3-9.3-1.3l-9.8-5.2c-5.8-3-11.2-6.4-17.2-9-1.5-.6-3-1.4-4.4-2.4a47.8 47.8 0 0 0-7.3-3.8 68.2 68.2 0 0 1-10.6-6c-2.8-2-5.4-4.2-8-6.2Zm62.4 8.1c7.5-2 14.7-4.9 21.5-8.5l18.6-10a191 191 0 0 0 20.2-12.8c5.2-3.6 10.1-7.5 15.1-11.3 3.5-2.5 6.6-5.4 9.5-8.5a16.3 16.3 0 0 0 3.8-15c-1.8-8.3-4.2-16.5-7-24.5l-7.7-20.1c-1.6-4-3.5-7.8-5.7-11.4-1-2-2.5-3.7-4-5.3a10 10 0 0 0-6-2.8c-2.4-.2-4.7-.6-7.1-.9-1.5-.2-3-.2-4.4-.2-6.1.4-12.2.3-18.3-.2l-11.1-.5c-5.9-.2-11.8-.4-17.8-.4l-10 .3a10 10 0 0 0-4.6 1.2 18 18 0 0 0-7.4 7.3l-2 3.5c-4.2 8.4-7.4 17.3-9.3 26.6-1.8 9.3-4.6 18.5-7.5 27.7-2.5 8.3-4.5 16.7-6.1 25.3-.7 3.8-1 7.7-.8 11.6 0 2.6.9 5.2 2.3 7.4 3.3 5 8 8.8 13.6 11 6.1 2.1 12.2 4.3 18.2 6.6 3.7 1.3 7.4 2.4 11.1 3.5 1 .2 2 .4 3 .4Z" fill="#234E32"/>
  <path d="m180 186.3 8 6c3.3 2.3 6.9 4.3 10.6 6 2.5 1.1 5 2.4 7.3 3.9a23 23 0 0 0 4.4 2.4c6 2.6 11.4 6 17.1 9 3.3 1.7 6.6 3.3 9.8 5.2 2.9 1.6 6.2 2 9.4 1.2l5.6-2.7c11.3-6 22.4-12.1 33.5-18.5 4.1-2.4 8.2-5 12.2-7.6l10.3-6.2c5.3-3 10.2-6.7 15.2-10.2l7.2-5.1a10.5 10.5 0 0 1-.1 8.5c-1.3 3.7-4 6.8-7.3 8.7-3.6 2-6.8 5-10.6 7-3.7 2.2-6.6 4.4-10.2 6.4-7.2 3.8-14 8-21.5 11.6-4.7 2.2-9.1 4.8-13.6 7.4-5.2 2.9-10.5 5.6-15.7 8.2-1.7.8-3.4 1.4-4.8 1.9a39 39 0 0 1-16.8-1.3 27 27 0 0 1-8.3-2.4c-4.7-1.8-9.4-3.4-13.9-5.6-7-3.2-14.3-6-21.6-8.4-2.5-.8-4.9-1.7-7.3-2.7-2.5-.9-4.7-2.3-6.6-4.2l-2.8-2.6a11.6 11.6 0 0 1-1.9-8.7c1.6-2.3 3.5-4.5 5.6-6.4l6.8-.8Z" fill="#988FC1"/>
  <path d="M242.4 194.4c-1 0-1.9-.2-2.8-.5a289 289 0 0 1-11.1-3.5c-6.1-2.1-12.2-4.4-18.2-6.6-5.6-2.2-10.3-6-13.6-11a13.8 13.8 0 0 1-2.3-7.4c-.2-3.9 0-7.8.8-11.6 1.5-8.5 3.5-17 6-25.2 3-9.2 5.7-18.4 7.6-27.9 2-9.2 5.1-18.2 9.4-26.6l1.9-3.5a18 18 0 0 1 7.3-7 10 10 0 0 1 4.8-1.4c3.3 0 6.6-.3 10-.2 5.8.1 11.7.3 17.7.3l11.1.6c6.1.5 12.3.5 18.4.1 1.4 0 2.9 0 4.4.2l7.1 1a10 10 0 0 1 6 2.7c1.5 1.6 2.8 3.4 3.8 5.4 2 3.7 3.9 7.5 5.4 11.5l7.6 20.1c2.9 8 5.2 16.2 7 24.5a15.4 15.4 0 0 1-3.8 15c-2.8 3.1-6 6-9.4 8.5-5 3.8-10 7.7-15.1 11.3-6.5 4.7-13.3 9-20.3 12.8a2558 2558 0 0 0-18.5 10c-6.7 3.6-13.8 6.4-21.2 8.4Zm18.8-72.6c-3.8 4-3.8 4-4.8 7.3 1 5.5 3.5 10.6 7.2 14.9l3 3.9 4 2a7.2 7.2 0 0 0 8.1-1.9 8.3 8.3 0 0 0 2.6-6.8 37.8 37.8 0 0 0-15-20h-3c-.7.1-1.4.3-2 .6Zm-15.8-8.7c3.8-2.7 7.5-5.4 11.1-8.2 1.1-.9 2.1-2 3-3.2 1-1.3 1.7-2.7 2.6-4.1l.4-1c.4-1.6.3-3.3-.3-4.8l-.6-1a7.2 7.2 0 0 0-10.4-.8l-9.5 7.4a22.2 22.2 0 0 0-5.9 6.3 9.6 9.6 0 0 0 2 8.5 9.8 9.8 0 0 0 7.6 1Zm34.1-1.4c1 .4 2.2.8 3.4 1 5 .2 10-1.1 14-4 1.6-1 3-2.2 4.5-3.3 1.3-2.4 2.8-4.8 1.4-7.8l-.6-.8a8.8 8.8 0 0 0-9.5-3c-4 1-7.7 2.5-11 4.7a8.6 8.6 0 0 0-4.5 7.1c.4 2.2 1.2 4.2 2.3 6Zm-36 26-.3 1.5c.2 5.5.2 10.7.5 16 0 2 .8 3.9 2.1 5.3a7.4 7.4 0 0 0 7.3.7c1.5-1.2 2.7-2.6 3.6-4.2l.3-1.3c-.2-3.7 0-7.3.4-11a8.5 8.5 0 0 0-1.8-6.5l-2.7-1.4-3-2.1a6.7 6.7 0 0 0-6.4 3Zm45.3-19.7a8.6 8.6 0 0 0-1.5 4.4 4.6 4.6 0 0 0 3 4.8c.9.3 1.8.6 2.7.7l4.7.5c5.2-1.8 5.6-2.5 5.1-7.7a4 4 0 0 0-.4-1c-.8-1.2-2-2.2-3.3-2.7-1.6-.6-3.2-.8-4.9-.8-2 0-3.8.7-5.4 1.8Z" fill="#CCDC97"/>
  <path d="m261.2 121.8 2.3-.5h3a37.8 37.8 0 0 1 15 20 8.3 8.3 0 0 1-2.6 6.9 7.2 7.2 0 0 1-8.2 1.8l-4-2-3-3.9a32.2 32.2 0 0 1-7.2-15c.8-3.4.8-3.4 4.7-7.3Z" fill="#EBF4EF"/>
  <path d="M245.4 113.1a9.8 9.8 0 0 1-7.8-1 9.6 9.6 0 0 1-1.9-8.5c1.5-2.5 3.5-4.6 5.9-6.3l9.5-7.4a7.2 7.2 0 0 1 10.4.8l.6 1c.6 1.5.7 3.1.3 4.7 0 .4-.2.7-.4 1-.9 1.5-1.7 3-2.6 4.2-.9 1.2-1.9 2.3-3 3.2-3.5 3-7.2 5.6-11 8.3Z" fill="#EBF4EF"/>
  <path d="M243.5 137.7a6.8 6.8 0 0 1 6.4-3c.9.8 2 1.4 3 2.1 1.1.7 2 1 2.7 1.4a8.5 8.5 0 0 1 1.8 6.5c-.4 3.7-.6 7.3-.4 11l-.3 1.3c-.9 1.6-2.1 3-3.6 4.2a7.4 7.4 0 0 1-7.3-.6 8.5 8.5 0 0 1-2-5.4l-.6-16 .3-1.5Z" fill="#EBF4EF"/>
  <path d="M288.8 118a9.8 9.8 0 0 1 5.3-1.8c1.7-.1 3.4.1 4.9.7 1.4.5 2.5 1.5 3.4 2.7l.4 1c.5 5.2 0 5.8-5.1 7.8l-4.8-.6c-.9 0-1.8-.3-2.6-.6a4.6 4.6 0 0 1-3-4.8c0-1.6.6-3 1.5-4.4Z" fill="#EBF4EF"/>
  <g>
    <path d="m57.6 736.4-29.6-4c-2.2-.3-4.4-.3-6.6-.4C9.8 730-48 728.4-48 728.4h-17.6c-1.2-.2-2.5 0-3.6.5H-78c-8.8 0-17.6.3-26.4.5-6.9.2-13.8.4-20.7.9-11 .7-22 1.2-33 2.6l-3.1.3c-6 .4-12 .8-18 1.4l-11.3 1.4c-3.8.5-7.2 1-10.8 1.2-8.7.4-17.2 2-25.8 2.6-1.5 0-3 .3-4.6.3l-41 .3h-19.1c-1.7 0-3.6 0-5.2.2V366.2l1.5.3 3-.8c16.8-5.5 33.7-11 50.5-16.3 8-2.6 16.2-4.7 24.3-7l13-3.6 1.5.7a92.2 92.2 0 0 0 14.2 20.2c1.4 4.3 2.6 8.3 4 12.2 1.2 3.5 2.9 6.7 5 9.6 1.7 2.7 4.2 4.8 7.2 5.8.5.3 1 .6 1.3 1l1 4c.6 2.3 1 4.7 1.7 7.1 2 7 4.4 13.8 7.2 20.5.4 1 .9 1.9 1.5 2.7.4.7 1 1.4 1 2l-2.4 7.7c-.4 1.3-.7 2.7-.7 4-.4 5.9 0 11.8 1.2 17.5l.7 3c0 .6 0 1.2-.2 1.7l-2.3 1c-1.2.3-2.2 1-3 1.9-2.3 2.2-3.8 5-4.5 8a34 34 0 0 0-.8 11.4c.5 5 1.6 9.8 3.1 14.6 1.8 5.4 4 10.7 6.7 15.7 3 5.7 5.5 11.6 8 17.4l3.3 8.2c.2.5 0 1-.7 1.4-2-.8-4.2-1.3-6.5-1.5l-1.8.3a7.5 7.5 0 0 0-6 4.5c-1 1.8-1.5 3.8-1.6 6-.3 4.5 0 9.2.9 13.7l-.5.5c-.2.2-.6.3-.9.4a10.5 10.5 0 0 0-8 6 14.8 14.8 0 0 0 .6 16.3c2.3 3.2 5 6 8.2 8.5l6.2 4.7a31 31 0 0 0 8.2 4.5c3 1.2 6.1 2.2 9.4 3l10.8 1.8a6.6 6.6 0 0 0 5.4-1.3c3.3-2.5 6.1-5.6 8.3-9.1l5-9a60.8 60.8 0 0 0 7.8-29.8c-.1-2.6-.9-5.2-2.1-7.4a6.6 6.6 0 0 0-6-3.6c-1.8-.2-3.8.1-5.5 1-.6.5-1.5.8-2.3.8-.5-1.5-.5-1.5-.2-2 2.6-6.8 4.8-14 6.4-21.2 2-7.6 3.7-15.4 5-23.2.4-4 .5-8 .2-12-.1-1.5-.4-3-1-4.5a7.6 7.6 0 0 0-8.3-5.6c-1.7 0-3.4.7-4.7 1.9a30.4 30.4 0 0 0-3.9 4.1l-4 6c-.2.5-.5 1-1.1 1A48.4 48.4 0 0 1-134 478c2.6-3.4 5-7 7.2-10.6a336 336 0 0 0 11.7-21.9c1.7-3.2 3-6.6 4-10 1-3.2 1.5-6.5 1.6-9.8a8.5 8.5 0 0 0-5-8.7c-.7-.3-1.4-.6-1.6-1.6-.2-1 .3-1.4.4-2.3a139.7 139.7 0 0 0 3.9-34.8c-.1-2-.4-3.8-.9-5.7-.3-1.3-.9-2.6-1.6-3.7a7.6 7.6 0 0 0-6.5-3.6h-2c-.9 0-1.7 0-2.8.2l.6-1.5 3.8-6.2c6.3-10.9 11.8-22.3 16.5-34 1.8-4.3 3.3-8.7 4.5-13.2 1.5-6.4 2.5-12.9 3-19.4.1-2 0-3.8-.5-5.6a7.2 7.2 0 0 0-6.3-5.5c-.8-.2-1.7 0-2.5-.2l-1.2-.6v-1.7c.9-6.7 1.4-13.4 1.5-20-.1-3-.5-6-1.2-8.8-.5-2.6-1.5-5-3-7.2a7.2 7.2 0 0 0-4.5-3 9.4 9.4 0 0 0-5.6.6l-2.3 1-1-.5.3-2 2.3-5.7.4-1.7c-.4-1.2-1-1.8-2-2-.6 0-1.3.3-1.9.7-1 1-1.8 2-2.5 3.3-1.4 2.5-2.8 5.1-4.4 7.6-3.8 5.9-7.2 12.1-10.8 18.2l-3 6-3.1 6.5c-3 5.7-5.5 11.6-7.6 17.6l-4.5 12-1.2 2.3-5.5-7.8.9-1.9c1.6-4 3-8 4.7-12 3.6-8.5 6.6-17 10.8-25.2.5-1.1 1-2.3 1.3-3.4 1.2-3.6 2.5-7.2 4.1-10.6 3.8-7.6 7.6-15 11.8-22.4 1.6-2.7 3-5.4 4.5-8.2a37 37 0 0 0 1.7-4.3c.5-1.3.5-2.8 0-4a1.8 1.8 0 0 0-1.8-.7c-.5.4-.9.9-1.2 1.4a53.8 53.8 0 0 1-4.6 7.5l-6.5 9.9c-4.7 7.7-8.6 15.8-12.8 23.7-.9 1.7-1.8 3.3-2.9 4.9-2 2.7-3.9 5.7-5.4 8.8a7 7 0 0 1-2.3 2.7c2.4-8.7 3.7-17.5 3.8-26.5 0-2.9.7-5.8 1.9-8.4l3-5.3c4.2-7.5 8.6-14.7 13.4-21.6 5.5-8 10.8-16 17-23.6l.3-.8a202 202 0 0 1-1.6-36.3c.8-9 2.3-18.1 4.5-27 2.8-11 8.3-21 16.2-29.1A47 47 0 0 1-94.2 73c2.3-1.3 4.7-2.4 7-3.6a38.7 38.7 0 0 1 17.4-4.3h5.7c5.4 0 10.7 1.4 15.3 4.2A62 62 0 0 1-31.6 84l3.6 4.4.3 1.6c-2 3.2-3.2 6.7-3.8 10.4-.5 2.8-.6 5.7-1 8.6l-.2 2.4a7.7 7.7 0 0 1-4 1.2l-.8-2a61.9 61.9 0 0 0-7.4-14.6c-2.1-3.1-4-6.5-5.9-9.7L-58 75c-.6-1-1.4-1.8-2.3-2.6a2 2 0 0 0-2.4 0 2.1 2.1 0 0 0-1 2.2c0 .5.4 1 .5 1.4 3.6 8.5 7.5 16.7 10.6 25.2l.8 2a94 94 0 0 1 5.3 14l-2 4.8c-.8 2.3-1 4.8-.3 7.2.4 2.2 1.3 4.3 2.5 6.2l4 5.3 3.6 4.9v1a3521 3521 0 0 0 8 26.8 30 30 0 0 0-4.5 12.9 10 10 0 0 1-.8 2.4l-1-2.4c-.8-2.4-1.4-5-2.3-7.4-4.3-12.6-8.3-25.3-12.1-38-1.6-5.7-3.8-11.2-6.7-16.3a51.2 51.2 0 0 1-3.6-8.5c-2.3-6.9-5-13.6-8.3-20a82.2 82.2 0 0 1-7.2-19.5 2 2 0 0 0-2.5-1.3 2.9 2.9 0 0 0-1.5 3l.6 3c1.4 5.4 3.1 10.6 5 15.8 2.4 6.7 4.4 13.4 6 20.3a60 60 0 0 0 3.6 11.3c2.6 6.4 4.8 13 6.5 19.7 2 7.2 4.1 14.4 6.3 21.3 1.7 5.5 3.6 10.8 5.2 16.3 2.8 9.2 5.3 18.5 7.9 27.8l11.9 43.4.7 1.4 1.7 12.7c.8 4.4 2 8.8 3.3 13-1.6 1.3-3 2.8-4.2 4.5-1.3 2-2.2 4.3-2.9 6.6l-1 2.3c-.8-2-1.5-4.2-2.4-6.2a42.9 42.9 0 0 1-2.7-9.9 62 62 0 0 0-6-18.6c-1.5-3-2.6-6-3.2-9.3l-5-20c-1.1-4-2.4-8-4-11.8-3-7.2-5.5-14.4-7.8-22a210 210 0 0 0-7-21c-1-2.3-1.6-4.6-2.3-7l-4.8-14.6-10.8-32.4a75 75 0 0 1-3.1-11.5c-.5-3-1.3-6.1-1.9-9.2l-3.3-16.7c-.3-1.2-.7-2.3-1.2-3.4-.2-.4-.9-.5-1.2-.7a2.4 2.4 0 0 0-1.6 1.3c-1 2-1.3 4.3-1 6.6.4 4.3.9 8.6 1.5 12.8 1 6.1 2.3 12.2 3 18.4.3 3 .8 5.8 1.5 8.7l2.2 8.5c1.7 7.9 4 15.7 6.7 23.3a220 220 0 0 0 9.5 29l3.3 11.4c2.3 7.6 4.9 15 8 22.4 1.4 3.7 2.6 7.5 3.5 11.3l4.4 17c.4 1.9 1 3.6 1.6 5.5.8 2.8 2 5.5 3.8 7.9 2.2 3 3.7 6.6 4.5 10.4.4 1.7.8 3.3 1 5 .7 3.7 1.9 7.4 3.4 10.8 1 2 1.8 4 2.6 6.2l4.5 15.9a64.8 64.8 0 0 0 5.6 14.9l1.6.7c.5 3.6 1.8 7.2 3.6 10.4-.3.8-.3 1.3-.6 1.7-2.1 5-3.7 10.4-4.5 15.9-.5 3.6-.7 6.9-1 10.3-.8 6.2-.5 12.4-.6 18.6 0 1.8.4 3.5 1.2 5a8.7 8.7 0 0 0 6.2 5c4.3 1 8.7.8 12.7-.7A72 72 0 0 0 20 376.9c2-2.4 4.1-4.7 6-7.2 2.6-3 4.6-6.6 5.9-10.3a11.3 11.3 0 0 0-3-12l-2.3-1.8c0-1.1.5-1.4 1.3-1.3A108.5 108.5 0 0 1 68.5 360c.3 3.6.8 7.2 1 10.8a78 78 0 0 0 1.8 13.9 158 158 0 0 1 2.6 27.8l2 20 .2 2.6a189.1 189.1 0 0 1 .6 26.4c-.5 10.3-.8 20.6-.6 31v29c0 1.7.2 3.4.4 5.1 0 1.2.4 2.4.4 3.6.1 3.8.5 7.6 1.2 11.4a457 457 0 0 0 2.4 13.7c.8 4.6 1.8 8.1 2.7 12.1 1 4 1.6 7 2.8 10.5l1.5 14.4c0 1 .4 2 .5 3 1.2 6 2 12 2.3 18 .2 6.7 1.2 13.4 1.7 20 0 2 .4 3.7.7 5.6v3.6l1 19.2c.1 4.6.2 9.3.8 14 0 1.1 12.2 65.4 12.3 66.6l-49.2-5.8Zm-73.6-310h-1a28.2 28.2 0 0 0-13.8 9.6l-7.6 10.4-.5 1a4.5 4.5 0 0 0 1.8 5.8 37 37 0 0 0 8.2 3c8 1.8 16 2.2 24.2 1.4 1.7-.2 3.4-.6 5-1.1 4.7-1.8 9-4.4 12.8-7.6 1.6-1.4 3-3 4.1-4.6a4.4 4.4 0 0 0 0-5.3c-.6-.9-1.3-1.7-2-2.4l-3.6-3-.7-.8-7.5-4.4c-5.7-3-12.3-4-18.6-2.5-.3 0-.6.2-.8.4Zm9.4 86.8v-18c0-1.9-.1-3.7-.3-5.6a15.7 15.7 0 0 0-7.2-12.4c-1.4-.8-2.9-1.3-4.4-1.6-6.1-1.3-12.1-3-18-5.1a106.8 106.8 0 0 0-21.8-4.5c-4-.5-7.9-.5-11.9 0a11.4 11.4 0 0 0-9.1 6l-.8 1.3a37 37 0 0 0-4.2 10.4c-2.3 8.5-4.4 17-6 25.7a132 132 0 0 0-2.7 18.4c-.2 4.1-.7 8.3-1 12.4l-2.5 23.2-.2 5.7a22.8 22.8 0 0 0 6.4 16.5L-79 597c2.3 2.4 5 4.4 7.8 5.9l9.7 5a12.4 12.4 0 0 0 16-2.5 104 104 0 0 0 12.2-14.6c5.7-8.6 11-17.6 15.5-27 1.2-2.4 2.5-4.8 3.9-7.1l5-8.5c2.1-3.6 3.2-7.7 3-11.9 0-3.3 0-6.5-.2-9.8 0-4-.3-8-.6-13.3Zm-62.7 177.3c.3-1.2.3-2.4 0-3.6-2-8.8-3.6-17.6-5.7-26.3-2.7-11.6-6.6-22.8-9.7-34.4-1-3-2.5-5.7-4.6-8a12.2 12.2 0 0 0-10.8-4.9c-4 .3-8 .3-11.9.5-4.6.1-9.3.5-14 1.2-2 .3-4 .8-5.8 1.7l-4.2 2c-12.3 6.8-23.6 15-35.2 22.9-1.4 1-2.7 2-3.9 3.4a51.2 51.2 0 0 1-9.4 8.6 9.3 9.3 0 0 0-2.8 6.5c-.1 3.4.4 6.9 1.6 10.1l3.9 10.2c1.8 5 3.6 10 5.6 15a106 106 0 0 0 7.3 15.4 8.4 8.4 0 0 0 6.1 4.2c1.5.3 3 .4 4.6.5l7.2.6c5.5.3 11 1 16.6 1.2 7.4.2 14.8 0 22.2.3a13 13 0 0 0 8-2.3l6.5-4.3c3.3-2.2 6.7-4.3 9.9-6.7 4.7-3.6 9.3-7.2 14.4-10.2 1.6-1 3-2.1 4-3.6Zm-29.1-346.2c0 2 .2 3.6.3 4.8.4 8.5 1 16.9 1.2 25.2 0 6 .7 12.1 1.3 18a300 300 0 0 1 2 32c.2 3.4.6 6.8 1 10.2.1.7.3 1.4.6 2a9.6 9.6 0 0 0 6.4 6.7c2.1.7 4.4.9 6.6.5 1.4-.2 2.8-.5 4.1-.9 2-.6 4-.9 6-1 2-.1 3.8-.4 5.7-1a7.9 7.9 0 0 0 5.6-6.2l2-9.1 2.1-17c.8-5.6 1.5-12 2.5-18 1.5-10 3.2-20 4.5-30.1.5-4.6.8-9.3 1.1-14a11.9 11.9 0 0 0-4.3-10c-1.8-1.7-4-3-6.2-3.9-4.4-1.6-8.6-3.4-13.1-4.5-4-1-8-2.2-12-3.6-2.3-1-4.9-1.5-7.5-1.5a9.5 9.5 0 0 0-7.4 3.2 8.2 8.2 0 0 0-2.3 5.5l-.2 12.7Zm-141 107.3c-.7 1.1-1.8 1-2.8 1.2a9.2 9.2 0 0 0-7 5.6l-1.1 2.9a49.8 49.8 0 0 0 .5 23c1.3 3.3 2.5 6.7 4 10 2.5 5.9 5.4 11.6 7.9 17.5a159 159 0 0 0 11.8 21.2 7.2 7.2 0 0 0 5.8 3.8 6.3 6.3 0 0 0 5.8-5.1c.7-2.4 1.2-4.8 1.4-7.2.4-5.3.8-10.8.9-16 .2-8.3.2-16.6.2-24.9.1-1.5 0-3-.1-4.4-.6-3.6-1.4-7.2-2.2-10.6a6 6 0 0 1-.3-3.4c2.2-3.4 4-7 5.6-10.8 2.5-6 5-12 6.8-18.4a91 91 0 0 0 5-31v-5.6a11 11 0 0 0-4.2-7.6c-1.5-1.1-3.2-2-5-2.4a9.9 9.9 0 0 0-10 2.7c-1.2 1-2.1 2.3-3.2 3.6l-1 .7a2.2 2.2 0 0 1-1.5-1.5 49.4 49.4 0 0 0-9-13.8 7.9 7.9 0 0 0-11.1.8c-.8.9-1.5 1.9-2 3a20 20 0 0 0-1.4 5c-.7 3.8-1.1 7.8-1.3 11.8v6.2a123.7 123.7 0 0 0 7 41.1c0 .7.3 1.7.6 2.6Zm291-16.3a15 15 0 0 0 3.8-6.5l3.8-11.8c.7-2.3 1.2-4.7 1.3-7.2 0-1.9.2-3.7.5-5.6.7-5.7 1-11.4 1-17v-1.6a9 9 0 0 0-3.2-6.3 7.2 7.2 0 0 0-6.5-1.9l-3.7 2.3c-5.4 3.2-10.6 6.5-16 9.5-5.4 3.1-10.8 7.6-15.8 10.8a38 38 0 0 0-5.5 20.2 8 8 0 0 0 2.3 5.6c1 1 2 1.9 3.1 2.6a46 46 0 0 0 12.7 5.8c7 1.8 14.4 2.2 21.6 1.2l.5-.1Zm-162.3-326.9a2.4 2.4 0 0 0-2.2 2 5 5 0 0 0 0 2c.4 3.7.6 7.3.5 10.9v8.3c.1 4.3.8 8.6 2 12.8l5 16.9a38 38 0 0 1 1.8 10.1c.4 6.4 1.3 12.8 2.8 19 .7 3.7 1.9 7.4 3.6 10.8 3 5.5 5.1 11.3 6.4 17.4l.9 3.6c.6 2.6 1.5 5.1 2.7 7.5a54 54 0 0 1 3.6 8.7l6.9 21.6c1 3.8 2.3 7.6 4.2 11.1 1.7 2.8 2.9 5.9 3.6 9.1l1.6 5.5 3.6 11.8 4.4 14.7c3.2 3.3 6.8 6.2 10.8 8.5h.8c.5-.8 0-1.4-.2-2a163 163 0 0 1-6.7-19.5c-2.3-7.6-4.6-15.2-6.2-23-.5-2.7-1.5-5.3-3-7.7a28.3 28.3 0 0 1-3.1-7.2l-8.2-25.2c-.8-2.8-1.9-5.5-3-8.2-1.8-3.6-3.2-7.3-4-11.2-1.5-6.9-4-13.5-7.4-19.7-.8-1.3-1.4-2.7-1.8-4.2A107 107 0 0 1-95 175a80 80 0 0 0-2.7-14.4 178 178 0 0 0-6.1-17 43.6 43.6 0 0 1-2.8-10.5c-.5-4-.8-7.9-.8-11.9 0-3.8-.5-7.7-1.3-11.5a2.7 2.7 0 0 0-2.1-1.3Z" fill="#234E32"/>
    <path d="M202.3 645.4c-.3-.8 0-2-.4-2.8-2-10.5-3.1-21.1-4.3-31.7l-2.5-22.1c-.8-6.4-1.7-12.7-2-19 0-.6-.3-1-.5-1.5-.5-11.5-2-22.9-3.3-34.3 0-.3 0-.6-.2-1-.3-.3 0-1.7 0-2.5l-1.5-14-1.6-16.4-.7-7.2a1946 1946 0 0 0-2.8-28.8c-.5-4.8-1-9.2-1.7-13.8-.7-6.2-1.6-12.4-2.4-18.5l-.7-1.4c0-1.5 0-3-.3-4.6a486 486 0 0 0-2.4-14.2c-1.7-8.7-2.8-17.6-3.3-26.5 0-3.6-.6-7.3-1.7-10.8a48.2 48.2 0 0 1 12.8.3c5.5.8 11 .9 16.6 1.2 2 0 4.1.3 6.2.5a5.3 5.3 0 0 1 5 4.4c.4 1.7.8 3.4 1 5.1l3.4 21.6c.4 2.8.8 5.5 1.4 8.2 1.3 6.4 2 13 2.7 19.5l2.7 19.5 2.3 18.4 2.6 19.6 2.6 19.5 1.4 10.8 3 22.6c1.4 10.4 2.5 20.9 4.6 31.2l1 5.2c2.1 1.7 4.2 3.6 6.5 5a15.7 15.7 0 0 1 7.5 12.3c.7 4.8 1.7 9.5 2.5 14.4l1.5 8.2.5 1.3a4.5 4.5 0 0 0 3.6 0l15.2-3.2 11.1-2.5c1.4-.3 2.7-.4 4.1-.5 5.4 0 10.7.7 16 1.8 7.2 1.7 14.1 3.1 21.2 4.6 9.8 2.1 19.6 4.4 29.1 7.3 1 .1 1.7.5 2.3 1.2.5.9.6 2 .3 3-.7 5.3-.6 10.7-.7 16 0 .6 0 1.2.3 1.8.5.2.8.5 1 .4 1.7.1 3.4-.2 4.9-1 1.8-3.2 3.2-6.9 4.9-10.5.8-1.8 1.8-3.6 2.8-5.5l1.1-1.3h7.2c1.4-.7 1.7-2 2.4-3l3-4.8a6 6 0 0 1 5-2.4h4.6a1.8 1.8 0 0 0 1-1.7v-6.7c0-1.4.6-2.7 1.5-3.8a6 6 0 0 1 2.8-2.2l1.5-.4c3.8-.9 7.7-2 11.6-2.7 2.7-.6 5.4-.8 8.2-1.1 1.5-.3 3-.5 4.6-.6h3a4 4 0 0 1 3.7 4.2c0 1.4-.3 2.8-.4 4.1l-.7 6.7c0 .7.2 1.3.3 2 4.8 3.2 4.8 3.2 6 9l.3 1c.7.4 1.6.6 2.5.5h7.2l4.1.2a7.6 7.6 0 0 1 6.5 3.6c.4 1.7.5 3.4.2 5.1l-.7 11.4c-.3 1.4-.1 2.9.5 4.2.7 0 1.3-.1 2-.3 2.9-.6 5.8-.6 8.7 0 7.1 1.2 14 3 20.8 5.4 1 0 1.5-.6 1.6-1.3.9-4.4 2.5-8.6 3.6-13a16.7 16.7 0 0 1 10.7-11.1h.5c6.6-3.2 13.5-6 20.5-8.4a6 6 0 0 0 2-3.6 42 42 0 0 1 9.4-17.7l1.8-1.2a36 36 0 0 0 8.1-2l.4-1.8v-4.1c.1-2.8.6-5.6 1.4-8.2a9.4 9.4 0 0 1 4.4-6.1l3-2c.5-1.7.7-3.5.5-5.2a43.6 43.6 0 0 1 2.3-14.4 6.4 6.4 0 0 1 4.8-4.3l2.6-.5a2.4 2.4 0 0 0 1-2.2c0-2.6.3-5.2 1.3-7.6a12 12 0 0 1 5.7-3.3l1.5-.4c5.8-1 11.7-1.5 17.5-1.5a6.7 6.7 0 0 1 6.7 6v6.3a2.6 2.6 0 0 0 1.8 1.3l3.6 1a6 6 0 0 1 4.1 5.6v6.1c-.2 1.4-.2 2.7 0 4 .5.8 1.2 1.4 2 1.7l3 2.2a6.5 6.5 0 0 1 2.3 5v9.8c0 1 0 2.1.2 3.1l.4 1 .9.5c4 .5 7.8 1.3 11.6 2.5 3.5 1 7.2 1.7 10.8 2.1 1.2 0 2.4.4 3.6.6a8.5 8.5 0 0 1 6.6 4.4s14.2 52.7 19.7 54c5.5 1.4 14.2 1.4 15.6 6.5 1.3 5 18.3 71.2 14.6 71.3-2.7 1-175.2 1.9-178 2.9l-152.6-.2H218.4l-1.7-9-2.8-16.6-11.6-69.2Zm397.2-79.2c.3-1.2.3-2.4 0-3.6a26 26 0 0 0-11.2-.4c-3 .1-5.7 1-8.1 2.6a19.2 19.2 0 0 0-2.4 8c.5.3 1 .4 1.5.5l13.5.3c1.5 0 3-.2 4.6-.5a3 3 0 0 0 2.3-1.6c.1-1.4 0-2.8-.2-4.2v-1.1Zm-173 89c6 .7 12 1 18 .8 1.8-2.9 3.3-6 4.5-9.1l-2.4-5.7a8.6 8.6 0 0 0-5.1-.9c-12-.4-23.8.4-35.7 1h-1.5l-15.9 1.8-1 .5c-.9 1.3-1.3 3-1.2 4.6 2.8 2.7 5.7 5.2 8.8 7.5 1.6.1 3.1 0 4.7-.5 2.3 0 4.8.5 7.2.4 6.5 0 13 0 19.5-.4Zm-78-12.6a2.5 2.5 0 0 0-1.9-.9l-16-.7-20.7-1.4-19-1.6-22.3-1.4-2-.2a160.4 160.4 0 0 0-20-.7c-.4.2-.8.4-1.1.8a46.5 46.5 0 0 0-3.4 8.7 3.2 3.2 0 0 0 2.7 1.7l9.2 1.1a290 290 0 0 1 23 3.9c6.7 1.4 13.3 3.3 20.2 4 4.6.8 9.3 1 14 .6 3-.4 6-1.2 9-2.2 8.2-3 16.6-5.5 25.1-7.5 1-.1 2-.5 2.8-1.3a3.2 3.2 0 0 0 .3-3ZM200.3 437l-6 15.6c-.6 1.4-1 3-1.5 4.4-.5 1.7-.8 3.4-.8 5.1-.1 3.3.2 6.6 1 9.8a62 62 0 0 0 3.5 10.8l3.6 8c1.5 3.6 2.8 7.2 4.3 10.5 1.5 3.4 3.1 6.6 4.7 9.8l1.2 1.3 2.7.8a5 5 0 0 0 3-1.8c1-2.8 1.4-5.9 1.2-8.9-.2-5.5-.3-11-1-16.5-.6-6.7-.9-13.5-1.3-20.2a48 48 0 0 0-2.2-12.2c-1.2-3.6-2.5-7.5-4-11.2a55.9 55.9 0 0 0-2.7-5.8 3.2 3.2 0 0 0-3.6-.7c-.8.4-1.5.7-2.1 1.2ZM197.2 543c0 4.6.8 9.3 1 13.9a9.1 9.1 0 0 0 2.8 6 44 44 0 0 0 13.6 10c1.9.8 4 1 6 .4a5.3 5.3 0 0 0 3.6-3.3c.5-1.2.8-2.4 1-3.6l1.4-12.9c.2-1.8-.2-3.8-1.3-5.3l-4.2-6.6c-1.3-2-3-4-4.9-5.5l-7.2-5.8c-.5-.5-1-.9-1.7-1.2a6 6 0 0 0-7.5 1 6.2 6.2 0 0 0-2.1 4.6c-.4 2.8-.4 5.7-.5 8.3Zm371.2 52.8.5 1c9.8 2.8 19.9 4.2 29.8 6.5 1.5.5 3.3.7 5 .4.1-3-.1-6-.8-8.9a5 5 0 0 0-3-1.3l-11.7-2.2c-4.9-1-9.9-1.4-14.9-1.4-.7 0-1.4.2-2 .3-1.2 1.8-2.1 3.7-3 5.6ZM230.6 616a8 8 0 0 0-7.6 4c-.5.9-1 1.8-1.2 2.8a6.3 6.3 0 0 0 7.7 7.6 9.4 9.4 0 0 0 7-7.5 5.9 5.9 0 0 0-4.3-6.9h-1.6Zm165.6 17.3a3 3 0 0 0 2.5.4c7.9-.7 15.7-2 23.5-3.2 1 0 2-.6 2.7-1.4a2.1 2.1 0 0 0 .5-2.7 5 5 0 0 0-3.6-.3l-20.6 1.6c-1.4 0-2.7.4-4 1l-.8 1c-.6 1-.8 2.2-.5 3.4l.3.1ZM210 600.9a4.6 4.6 0 0 0 2.7 4 5.7 5.7 0 0 0 7.1-3.3 4 4 0 0 0-.8-4.3c-.5-.5-1-1-1.6-1.3a5.1 5.1 0 0 0-7.2 2c-.4.7-.6 1.6-.5 2.5l.3.4Zm173.1 133.9 1-5.4c.3-1.8.2-3.7-.4-5.5a1.8 1.8 0 0 0-1.5-1.4 2.8 2.8 0 0 0-2.4 2.3c-.9 2.6-1.4 5.4-1.5 8.1a3 3 0 0 0 2.5 3.3 2.8 2.8 0 0 0 2-1.8l.3.4Zm132.6-79.2c.2-.4.7-.8.7-1.3.3-2.9.4-5.8.5-8.7 0-.9-.8-1.5-1.6-2a2.1 2.1 0 0 0-2.6 1.1 14 14 0 0 0-1.4 9 3 3 0 0 0 1.4 2 2.6 2.6 0 0 0 2.6-.6l.4.5Zm30.8-29c.5-2 .9-4.1 1-6.2a3.6 3.6 0 0 0-1.1-2.7 1.7 1.7 0 0 0-2.3 0c-.4.3-.7.7-1 1.2a19 19 0 0 0-1.2 6.4 2.7 2.7 0 0 0 2.3 3 3 3 0 0 0 2.4-1.7Zm7.4 3.4-.6-2.5a2.2 2.2 0 0 0-2-1.3 2 2 0 0 0-1.6 1l-.4 1-1 6a2.4 2.4 0 0 0 2.2 2.4 2.3 2.3 0 0 0 2.3-1.6c.5-1.7.8-3.4 1.1-5ZM425 613.2l-.7-.4c-3.1 0-6.2 0-9.3.4a3 3 0 0 0-2.2 1 1 1 0 0 0 0 1.5l11.2 1c.3 0 .6-.3.9-.4.7-1 .4-2 .1-3.1Z" fill="#234E32"/>
    <path d="M290.6 716.8c1.3-1.4 2.2-10.2 5.3-12.3 1.8-1.3 7.5-.7 13.8-.5h3.1c2 0 4.1-.6 6.2-.8a2624.3 2624.3 0 0 1 43-5h4.7c.8.3 1 1 1.3 1.5a74 74 0 0 1 6.9 15.6 2.8 2.8 0 0 1-2 1.3l-21.1 5.3c-15.5 3.6-31 6.9-46.4 10.4l-16.7 3.6-3 .3c-.3 0-.6-.2-1-.5 0-.6.1-1.3.3-1.9l4.4-13.2 1.2-3.8Zm26.2-1.8c.3 1.8 1.2 2.7 2.7 2.8a3 3 0 0 0 3-1.6c1-2 1.9-4 2.4-6.2a2.7 2.7 0 0 0-1.4-3c-.3-.2-.7-.3-1-.3a13.5 13.5 0 0 0-5.7 8.2v.1Zm20.8 1.4.5-.9a6.3 6.3 0 0 0-1.6-6.1 3.2 3.2 0 0 0-4.3 0 3 3 0 0 0-.6 3.6c.6 1 1.4 2 2.2 2.8a3 3 0 0 0 3.8.4v.2Z" fill="#234E32"/>
    <path d="M316.8 714.9c.7-3.4 2.7-6.4 5.6-8.4a2.3 2.3 0 0 1 2 1 2.7 2.7 0 0 1 .5 2.3c-.5 2.2-1.3 4.3-2.4 6.2a3.1 3.1 0 0 1-3 1.6c-1.5 0-2.5-.8-2.7-2.7Z" fill="#EBF4EF"/>
    <path d="M337.6 716.2a3 3 0 0 1-3.6-.6c-.9-.8-1.6-1.8-2.3-2.8a3 3 0 0 1 .7-3.6 3.2 3.2 0 0 1 4.2 0 6.3 6.3 0 0 1 1.7 6.2l-.7.8Z" fill="#EBF4EF"/>
    <path d="m-38.6 145.4-3.6-4.8c-1.4-1.8-2.8-3.6-4-5.4-1.3-1.8-2.2-4-2.6-6.1-.6-2.4-.5-5 .4-7.2l1.9-4.8c2.7-2.5 6.2-4 9.9-4.3 1.4 0 2.8-.4 4-1.2l.3-2.4c.3-3 .4-5.8 1-8.6.5-3.6 1.7-7 3.6-10.2l-.3-1.6c1.2-.2 2.3-.7 3.2-1.5 1.3-1.4 3-2.3 4.8-3h7.8a21.6 21.6 0 0 1 13.8 14c1.4 3.5 2.1 7.2 2.1 11 0 1.2.3 2.5.7 3.6.4 1.2.4 2.4 0 3.6-.7 2.3-1 4.8-.8 7.2a43.2 43.2 0 0 1-4.2 18c.5 2 1.2 4 2.1 5.8 1.3 2.7 2.4 5.4 3.2 8.2.3 1 .5 2 1.6 2.5l1-2.3c1-3.9 2.6-7.6 4.4-11l1.2-3c.8-2.2 2-4.4 3.3-6.3.5-.7 1-1.5 1.3-2.3 1.3-2.7 3.3-5 5.7-6.9.8-.7 1.7-1.2 2.7-1.5l4.2-1.3c3.4.4 6.7 1.9 9.2 4.2l1.8 3.6c1.3 2.7 2 5.6 2 8.5v13.5c.1 2.2-.2 4.5-.8 6.6-.3.8-.3 1.7 0 2.6 0 .4.4.8.7 1.4l5.3.3c2 .7 3.9 1.7 5.6 2.9l2.4 4.7c.7 5.1-.6 10.3-3.6 14.4-3.4 5.7-8 10.8-13.2 14.8a1.8 1.8 0 0 0 .9 2c2.3 1.4 4 3.5 4.7 6.1v5.3a31 31 0 0 1-1.7 11.2l-4.6 13.7c-1.8 5-4.5 9.5-8 13.4 0 1.7-2 3.2-.7 5.2h.6a2 2 0 0 0 1-.3 23 23 0 0 1 13-6.7c.4 0 .6-.4 1-.6 0-1.5-.5-3-.6-4.5 0-1.6-.6-2.7-.8-4-.3-2.3 0-4.6-.3-6.8a20.7 20.7 0 0 1 5.7-15 11 11 0 0 1 3.8-2.1c2-.8 4-1.3 6-1.2h2.3a2.1 2.1 0 0 0 1-2l-.5-3.1L60 201v-8.7c0-2.3.4-4.5 1.3-6.6 1.2-3.3 3.6-6 6.8-7.5l2.7-1.1a2.6 2.6 0 0 0 .5-2.6l-1.7-7.5c-.2-.9-.2-1.7-.2-2.6v-3c-.8-3.4-1.1-6.9-.9-10.3V145l1.5-4.4c1.7-2.6 4.3-4.5 7.2-5.4h4.4c3.9 1.4 7 4.3 8.9 8 1.7 3.4 3 7 3.8 10.8.9 3.6 1.7 7.2 2.2 11 0 .4.4.6.6.8 1.2.3 1.8-.7 2.7-1.2l2.9-1.3h6.8a15.3 15.3 0 0 1 9.5 10.4c.3 4.4 0 9 0 13.7 0 .9-.2 1.7-.4 2.5l-3.9 15.6a21 21 0 0 1-1.5 3.7c-2.3 4.7-3.2 9.8-5.5 14.4a3.6 3.6 0 0 0 1.3 4.6c.5.5 1 .8 1.7 1.2 1.7 1 3 2.8 3.6 4.8.8 2.3 1.3 4.7 1.3 7.2.1 5.5-1.1 11-3.6 16a66.3 66.3 0 0 1-5.4 10 2.6 2.6 0 0 0 1 2.2c2 1.6 3.2 3.7 3.9 6.1v10.8c-.2 2.5-.7 4.9-1.6 7.2-1 3.7-2.4 7.2-4.2 10.6-.5 1-1.3 2-1 3.3 7.8 1.9 8.8 3.6 10.8 5.4 2.2 2.4 3.6 5.3 4.2 8.5v5.4c0 5.4-1.1 10.7-3.6 15.4-1.6 3.6-3.3 6.8-5 10.2l-2.8 4.6v2H104c-1.7-.7-3.6-1.6-5.3-2.1-3-1-5.7-2.2-8.6-3.4-2.8-1.2-5.8-2-8.7-3 .8-.8 1.8-1.5 2.8-2.2 4.4-2.7 8.4-6 12-9.8 2.5-2.6 4.5-5.6 6-8.9a7 7 0 0 0 .5-5.6 7.6 7.6 0 0 0-5.3-3.3c-3 .7-6 2-8.7 3.6-6.4 4-12.5 8.6-18 13.7-.3.3-.9.3-1.5.5a49.3 49.3 0 0 1-.2-10c.8-3 1-6 1-9.2 0-.4.2-.9.4-1.3l8.6-5c3.1-1.8 6-4 8.7-6.5l4.7-4.8a22.6 22.6 0 0 0 6.5-11.9v-6.3a9.2 9.2 0 0 0-2.3-4l-2.9-1.5h-5.1l-3.4 1.7-2.6 1.7c-.8.6-1.4 2-2.8 2 0-.3-.5-.6-.5-.9v-10.8l.5-2 4.1-2.3c4.7-2.5 9-5.8 12.8-9.5l4-4.9a20.7 20.7 0 0 0 4.2-17 7.2 7.2 0 0 0-7.2-2.3l-5 2.3h-1.4a3.6 3.6 0 0 1-.4-3.6c.7-2.3 1-4.8.8-7.2v-13.4a58.7 58.7 0 0 0 8.4-10 69.1 69.1 0 0 0 9.5-18.8c.7-2.2.6-4.5-.3-6.5l-.5-1.7c-1.2-1.8-3-3-5-3.6h-5l-3.4 2c-1.2.8-1.6 2.3-3.6 2.3V173c.1-3.4-.3-6.9-1.3-10.2l-.9-3.6c-.8-3-2.4-5.6-4.7-7.6l-1.4-.9a6.8 6.8 0 0 0-4 .4 9 9 0 0 0-3.2 5.1 35.5 35.5 0 0 0-.5 17.4c.7 3.3 1.7 6.6 3 9.8a2.7 2.7 0 0 1-.5 3.1 9.7 9.7 0 0 0-7.2 3.9l-1.1 4.4v6c0 1.1 0 2.1.3 3.2.8 3 1.4 6.3 2.3 9.5 1 3 2.3 6.8 3.2 10.3 1.1 4.2 2.6 8.2 4.6 12a16 16 0 0 0 3.1 4.8 1.9 1.9 0 0 1 .6 2c-1 1-1.8 2.3-2.7 3.5-.9 1.5-2.1 2.6-3.6 3.3l-3.4-7a10.1 10.1 0 0 0-7-5.6c-1.6.3-3.1 1-4.2 2.3l-1.9 5.7c-.3.8-.5 1.6-.6 2.5-.5 5.7.2 11.4 2 16.8 1.6 5 3.6 9.7 5.9 14.4l3.6 6.9v8.5c-.8 1.9-1.8 3.6-3 5.2h-.6a5 5 0 0 1-1.5-3.1c-1-4.5-2.6-9-4.8-13-.8-1.6-2-3-3.3-4a8.4 8.4 0 0 0-12.8 2.5c-2.6 4.6-4 9.9-4 15.3v7.7c0 1.4.2 2.8.6 4 2 7.2 4.9 14.1 8.3 20.7 2.2 4.5 4.7 8.8 7.5 13l2.8 3.8a6 6 0 0 1-.5 4.2 1.7 1.7 0 0 0 .7 2 26 26 0 0 0 7.2 1.5v6.3a108.6 108.6 0 0 0-32.6-14c-2.6-.6-5.4-1-8-1.4-.8 0-1.4 0-1.4 1.2l2.3 2a11.3 11.3 0 0 1 3 11.8 30.3 30.3 0 0 1-5.8 10.3l-6 7.2a72 72 0 0 1-30.5 20.7c-4.2 1.5-8.6 1.7-12.8.7a8.7 8.7 0 0 1-6.2-5c-.8-1.5-1.3-3.2-1.3-5 0-6.1 0-12.4.6-18.6.4-3.4.5-6.8 1.1-10.2.8-5.5 2.3-10.9 4.5-16l.5-1.6c-1.8-3.3-3-6.8-3.6-10.5-.3-1.7-.7-3.3-.9-5v-6.3c.2-2.2-.2-4.4-1-6.5-.7-2-1-4-1-6v-9.9l1-2.3c.7-2.3 1.6-4.5 2.8-6.6 1.3-1.7 2.7-3.2 4.3-4.5-1.4-4.2-2.5-8.6-3.4-13l-1.6-12.7 1-4.6c.4-3.5 1.5-7 3.1-10.3 1-1.5 1.6-3.3 1.8-5.2l-1.3-2a36.5 36.5 0 0 1-6-10.8 90.3 90.3 0 0 1-5-12v-.4c-.6-2.3-.8-4.8-1.3-7.2-.5-2.4-.7-4.8-.7-7.2v-10.8c.4-.8.7-1.6.8-2.4a30 30 0 0 1 4.2-12.7 3.9 3.9 0 0 0 2-2.1 18 18 0 0 1 3.7-5l.3-1c0-2-1.7-3.3-1.8-5.3 1.3.2 2.7 0 3.9-.7l1.5-2.8c.4-1 1-1.9 1.6-2.7 1.5-1.9 2.8-3.9 4-6a64 64 0 0 0 11-30.6c.9-2.6 1.1-5.3.7-8l-1.3-3-1-1.6a5.2 5.2 0 0 0-5.6-1.1 32 32 0 0 0-10.8 15l-.8 2c-1.7 3.9-2.8 8-3.2 12.3 0 .9-.4 1.7-.5 2.6-.2.8-.4 1.6-.4 2.5 0 5-.2 10 0 14.9l1.6 2.6-.7 4.7a20 20 0 0 1-3-4.2 47.6 47.6 0 0 0-9.2-10.3ZM1.5 305c0-.8.4-1.7 1-2.3l6.2-7.5c.5-.5.8-1.2 1.2-1.7 2.5-3.6 4.3-7.5 5.4-11.7.8-3.2 1-6.5.6-9.7 0-.3-.1-.7-.3-1a4.5 4.5 0 0 0-6.5-2.9 14 14 0 0 0-3 1.9c-1 .8-1.9 1.6-2.7 2.5l-6.2 6.2c-.4.4-.8.8-1.4.5-.6-.2-.3-.2-.3-.3-.4-2.9-.2-5.8.5-8.6.4-1.3.4-2.7 0-4a2.2 2.2 0 0 1 0-2.4c2.2-1.5 4.2-3 6.2-4.8 3.3-3 6.9-5.7 10.4-8.4 2.3-1.8 4.6-3.6 6.8-5.6a60 60 0 0 0 12-16.9c1.2-2.7 1.5-5.7.8-8.6a5.4 5.4 0 0 0-2.8-2.6c-2.4-.3-4.8-.3-7.2 0a29 29 0 0 0-8.5 5.8c-1.7 1.8-3.4 3.6-5.2 5.1a4 4 0 0 1-1.2.6 1.8 1.8 0 0 1-.2-2c.8-2.6 1-5.4 1.6-8a58 58 0 0 1 1.5-10.7c.5-.3.8-.9 1.2-1 5-1.9 9.6-4.8 13.4-8.5 3-2.7 6-5.7 8.8-8.7 2.8-2.9 4.8-6.4 5.9-10.2.5-1.5.5-3 0-4.5l-.7-1a7.7 7.7 0 0 0-9-3l-.9-.4v-1c2.2-5 4-10 5.3-15.1 1.6-4.8 2-9.9 1.1-14.8-1.3-1.3-2.2-3.1-4.3-3.4a9.3 9.3 0 0 0-6 4 34.7 34.7 0 0 0-4.4 7.6c-1.8 4.6-3.6 9.3-5 14-1.2 4.7-2 9.5-2.6 14.2-.4 1.7-.2 3.5.5 5.1l.3 1.7a50 50 0 0 1-3.6 6.5 1 1 0 0 1-1-.2l-.2-.4-.3-1.6a20 20 0 0 0-2.4-9.3 8.7 8.7 0 0 0-6.5-5.4 9.5 9.5 0 0 0-6.9 5.7 31.7 31.7 0 0 0-2.8 12c.1 1.8-.1 3.7-.6 5.5a5.5 5.5 0 0 0 0 4.1c.5 1.7.7 3.4.6 5.1 0 1.6 0 3.1.2 4.7 1 4.5 1.9 9 3.1 13.5 1.1 4.6 3.2 8.8 6.3 12.4.3.4.5 1 .6 1.5a25.9 25.9 0 0 0-3.6 5.7l-3 6c-1 2-.6 4.4-2.4 6.2l-3-.6a3.2 3.2 0 0 0-2.8 1c-.5.5-1 1-1.3 1.6a18 18 0 0 0-2.4 8.4v8.3c-.4 4.3.4 8.6 2.2 12.6l1.7 3.8 2.3 4.9v1.8c0 .7-.2 1.3-.4 2a60.3 60.3 0 0 0-2.6 16.2l-.7 3c-1 3.3-1.5 6.8-1.4 10.2 0 3.3 1.7 4.2 4.8 3.6.5 0 1-.2 1.4-.5L-8 330A43.2 43.2 0 0 0 10 317.5c1.7-2 3-4.3 3.6-6.8.4-1.3.4-2.8 0-4A4.9 4.9 0 0 0 11 304a9.8 9.8 0 0 0-5.4.4c-1.2.4-2.6.7-4 .6Zm1.1 26.6c-4 5.2-7.1 10.9-9.5 17-3 7.1-5.4 14.8-8 22.3-.5 1.4-.9 3-1 4.4-.2 1.8-.2 3.5 0 5.2a2.6 2.6 0 0 0 2 2c1.1.4 2.4.4 3.6 0l3.2-1c2-1.7 4-3 5.8-4.6a104.7 104.7 0 0 0 10.1-11.7 115 115 0 0 0 9.5-17.3c1-2.3 1.8-4.7 2.5-7.2.2-.6.3-1.3.3-2v-9.3a4 4 0 0 0-.3-1c-1-1.2-2.4-2-3.9-2.4h-5.5c-4.2.8-5.9 4.4-8.8 5.6Z" fill="#988FC1"/>
    <path d="M119.8 361c3.2-.3 6.5 0 9.6.9h1.5c2.2 0 4.4.3 6.5.7 2 .4 4.1.4 6.2.3 0 1 0 2.1.2 3.1.7 2.2 1 4.4.8 6.7V396.9a76.6 76.6 0 0 0-2.2 15c-.6 2-.9 4-.8 6 0 1-.1 1.8-.3 2.6-1.3 5.6-1.6 11.3-2.7 16.8-.5 1.8-.8 3.7-1 5.6a54 54 0 0 1-1.1 8.7c-.6 2.7-1 5.4-1.2 8.2l-.5 2c-.6 2.8-1 5.7-1.3 8.6 0 4-1.4 7.8-1.4 11.8a22 22 0 0 0-.8 7.2c0 1 0 2-.2 3-.7 2.8-1 5.5-.8 8.3.2 4.1-.1 8.3-.9 12.3v31.6a109.2 109.2 0 0 0 3.4 23.5c.7 2.3.7 4.7 1.2 7.2 3.2 12.8 6.6 25.6 10.4 38.4l2.5 8.9 5.8 21.4c1 3.8 1.8 7.7 2.3 11.6l-2 2.3c-1.8 1.6-3.1 3.7-3.8 6-.9 2.4-1.3 5-1.4 7.5v6.7l-.3 1.2a1 1 0 0 1-.8.2 1 1 0 0 1-.7-.6c-2.7-3.6-5.4-7.5-8.2-11.1-2.7-3.7-4.8-6.3-7.2-9.4a90 90 0 0 0-2.8-3.6 22.3 22.3 0 0 0-5.2-4.6c-2.4-1.7-4.7-3.6-7.2-5.1 0-1-.3-2-.6-3l-7-16.2a63.5 63.5 0 0 1-3.3-8.7c-.9-2.7-1.8-5.5-2.4-8.4a51.4 51.4 0 0 1-2.5-14.2c0-.8-.2-1.7-.4-2.5-.2-1.2-.4-2.4-.4-3.6 0-3.1-.2-6.2-1-9.3a10 10 0 0 1 0-2.5v-26.4a12 12 0 0 1 .3-3.6c.6-2.6.9-5.1.8-7.7 0-1.2.2-2.5.4-3.6.4-1.7.6-3.4.6-5.2 0-1.7.1-3.4.4-5 .4-1.6.6-3.2.6-4.7s.3-3 .7-4.6c.5-2 1-4 1.2-6l1.3-9.2 2.2-11.2 2.8-11.5c.9-3.8 1.5-7.7 2-11.6a212.7 212.7 0 0 1 5.3-25.3c1.4-6.7 2.5-13.5 3.3-20.3l.5-2c1.5-5.7 1.4-11.6 2.4-17.4V383c0-3-.5-5.9-1.1-8.7-.4-3.1-1-6.1-1.3-9.2-.2-1.3-.4-2.7-.4-4Z" fill="#CCDC97"/>
    <path d="M92.2 633.2s.6 33.6 2.8 46.3l11.8 62.5h65.8l-12-82.2-6.9-7.8-14.4-3.6-47.1-15.2Z" fill="#CCDC97"/>
    <path d="M427.7 589.2c-2.8 1-6.1 1.4-8 4.3-.5 3.6-3.2 12.8-7.1 6.6-1-5.9-6.2-7.8-11-10H279.8c-3.6-1-5-5-2-7.2 9.6-3.8 21.1 1.5 30.5-3.4 6.5-2.8 12-7.7 19-9.2 5-.6 10.4.7 15.2-.7 5.6-11.2 19.3-15.2 30.9-11.9 3.6-2.6 4.6-8 8-11.2 9.4-10.2 25.2-6.3 34.5 1.5a1.1 1.1 0 0 0 1-1 32.7 32.7 0 0 1 16.2-27.2 26 26 0 0 1 26.2 3c4.2 4.1 5.7 10.3 7.6 15.6a50.6 50.6 0 0 0-1.7 14.4 29 29 0 0 1 10.3 7.8c5.6 26.1 12 15.6 32.4 20.4 8.8 10.1-72.6 5.4-80.3 8.2Z" fill="#988FC1"/>
    <path d="m192.6 568.3.5 1.4c.3 6.4 1.2 12.7 2 19l2.5 22.2a399 399 0 0 0 4.3 31.7c0 .9 12 72 12.3 72.8-1.6 2.8-6.5 7.2-7.8 10.2-1-3.6-15.4-69.2-16.6-73-.7-1.8-1.6-3.5-2.5-5.2l-5.5-12.8c-3.2-6.9-6.7-13.6-9.8-20.5a115 115 0 0 0-10.8-18.3 46.8 46.8 0 0 1-3-4.7 153.7 153.7 0 0 1-17-46.4c-.6-4.3-1.8-8.4-2-12.8-.8-2.5-1-5-.8-7.7v-18.6c-.2-3 0-6.2.7-9.2.2-1 .2-2 0-3.1v-7.8c0-1.2 0-2.4.4-3.6.5-2 .7-4 .7-6 0-1.4.3-2.8.5-4.2.2-1 .4-2 .4-3 0-3.6 1-6.8 1.4-10.3.6-4 1.8-8 2-12.1.7-2.2.5-4.5 1.1-6.7.6-2 .4-4.5 1-6.6.7-2.7.5-5.5 1.2-8.1.4-1.7.6-3.4.7-5.1l.5-3 .4-3.1c0-3.8 1.3-7.5 1.3-11.3.8-2.5 1-5 1-7.6-.2-2 0-3.8.6-5.7.2-.6.3-1.3.3-2 0-1.7.3-3.4.6-5.1a18 18 0 0 0 0-8.2c-.4-1.7-.5-3.4-.5-5.1V364c4.4 1 8.7 2.8 12.5 5.3l1 1v2.7c.5 6.9.1 13.8-1 20.6-.1 3-.4 6.1-1 9.2-.4 4-1.1 7.8-1.8 11.7-.6 2.9-1 5.7-1.3 8.7 0 2-.4 4-.8 6-.3 1-.3 2.1-.3 3.1v7.2c0 1.2 0 2.5-.2 3.6-.6 2-.8 4.1-.7 6.2v25.9c-.2 3 0 6.2.8 9.2v2c0 3.8.4 7.6 1 11.3.7 4 1.4 7.8 2.3 11.7 2 9.4 5.6 18.5 10.4 26.8 3.3 5.5 6.3 11.2 9.4 16.7l8.3 14.4c.3.5.9.7 1.3 1Z" fill="#CCDC97"/>
    <path d="M119.8 361c0 1.3.3 2.7.6 4 .3 3.1 1 6.1 1.3 9.2.7 2.9 1 5.8 1.1 8.7v18.6c-1 5.7-1 11.6-2.4 17.3l-.5 2a193.1 193.1 0 0 1-4.3 24.4c-1.8 7-3.2 14-4.3 21.2-.5 4-1.1 7.8-2 11.7-1 3.8-2 7.6-2.8 11.5l-2.1 11.1c-.6 3-.9 6.2-1.4 9.2l-1.2 6a18 18 0 0 0-.7 4.6c0 1.6-.2 3.1-.6 4.6-.2 1.7-.4 3.4-.4 5.2 0 1.7-.2 3.4-.6 5.1-.2 1.2-.4 2.4-.4 3.6a31 31 0 0 1-.8 7.7 12 12 0 0 0-.2 3.6v26.4a10 10 0 0 0 0 2.6c.7 3 1 6 .9 9.2 0 1.2.2 2.4.4 3.6l.5 2.6c0 4.8.9 9.6 2.4 14.1.6 2.9 1.6 5.7 2.4 8.5.9 3 2 5.9 3.3 8.7l7 16.1 46.8 100c-6.9-.2-18.5 0-22.7-.2-3.6.9-25.2-79.2-41.2-97.6a30.3 30.3 0 0 1-5-5.5c-.2-1.9-.5-3.6-.6-5.6-.5-6.7-1.5-13.3-1.7-20-.3-6-1-12-2.3-18 0-1-.3-2-.5-3l-1.5-14.5c0-.8.3-1.7.4-2.5 0-4-.6-8-1.5-11.8-.4-2-.6-4-.6-6v-20.8c-.2-3 0-6.2.8-9.2l.2-3.1c0-.9 0-1.7.2-2.6.7-3.6 1.4-7.4 2.3-11.1a605 605 0 0 1 14.1-50.1c.4-1.2.8-2.3 1-3.6 1.3-5.2 2.6-10.3 3.6-15.6 1-5.3 1.5-10.8 2.7-16.2.3-1.5 0-3.2.4-4.6.6-2.2.8-4.5.7-6.7v-16a12 12 0 0 0-.2-3.7c-1.2-3.8-.3-7.9-1.7-11.7-.7-6-2-12-3.6-18-.5-1.8-.8-3.7-.9-5.6h4.3a39 39 0 0 0 9.3 1.2 2.8 2.8 0 0 1 2 1Z" fill="#EBF4EF"/>
    <path d="M192.6 568.3c-.4-.3-1-.5-1.2-1-2.8-4.7-5.6-9.4-8.3-14.3-3-5.6-6.1-11.2-9.3-16.7a93.3 93.3 0 0 1-10.5-26.9l-2.3-11.6a66.3 66.3 0 0 1-1-13.3c-.7-3-1-6.2-.7-9.3v-25.8c-.1-2.1 0-4.2.6-6.2l.3-3.6v-7.2c0-1 0-2 .2-3 .5-2 .8-4.1.8-6.2.3-2.9.8-5.8 1.3-8.6.7-4 1.5-7.8 1.9-11.7.5-3.1.8-6.2 1-9.3a91.8 91.8 0 0 0 1-20.6v-2.5c1.9.7 2.5 2.5 3.6 4 1 3.5 1.6 7 1.7 10.7.4 9 1.5 17.8 3.3 26.5l2.4 14.2.3 4.6c-.3.5-.8.9-.8 1.3a78 78 0 0 1-1 5c-.6 2.5-1 5-1.3 7.6 0 3.3-.2 6.6-.9 9.8v29.4c0 1.9.3 3.7.7 5.6.5 2.9 1.3 5.7 1.6 8.6a100.8 100.8 0 0 0 13.1 35.4c0 .3 0 .7.2 1 1.4 11.2 2.8 22.6 3.3 34.1Z" fill="#EBF4EF"/>
    <path d="M599.5 529.2c-3.1 1.7-3.6 4.7-4.5 6.9l-1.3 1c-.5.1-1 .2-1.6.1a3.2 3.2 0 0 1-2.5-1.8c-3.6-12.2-36-4.3-47.7-6.4-2.4-1-6.2-3.2-3.1-5.8 3.8-2.7 9.5-1.1 13.8-1.6 1.2-.6 1.3-1.5 1.7-2.2 2.4-4.7 7.8-5.2 12.4-6.3a17 17 0 0 1 23-9.3c5 2 6.7 7.2 9.8 11 7.4-4 12.4 1.7 17.4 6.7 4.9 1 16.1-2.6 13.5 5.7-7.5 4.5-22 0-30.9 2Z" fill="#988FC1"/>
    <path d="M602.5 633c-3.6 0-26.5-1.4-29.9-1.5-4.8-2.6-9.4-5-14-8V622c1.3-3.4 2.8-6.7 4.6-9.8h2.2c5.6.8 11.2 1.5 16.8 2.5 7.8 1.3 15.6 3 23.4 4.2 4.4 1 8.9 1.5 13.4 1.6-.4.3-.9.7-1.3.8-2-.1-13.6 11.8-15.2 11.7ZM593 625c-.3-.4-.5-1-.9-1.2-2.3-1.5-5-2.4-7.8-2.5h-14.4l-1.5.3a2.4 2.4 0 0 0 0 4.6c.8.2 1.6.4 2.5.4H590c.7 0 1.4-.1 2-.3l1-1.3Z" fill="#CCDC97"/>
    <path d="M523.2 657.5c-.2-4.5.1-9 1-13.3a3.3 3.3 0 0 1 2.2-3l3.8.7 3.6.9 14 3.6c-1.3 1-2.8 2-4.4 2.4-2.6 1.3-.9 10.2-3.6 11.3-4 1.7-13-1.2-16.6-2.6Z" fill="#CCDC97"/>
    <path d="m402.7 729 .7-3c.9-2.8 2-5.4 3.3-8l1.5-.8c6.6-2 13.2-3.8 20-5.3 2.1-.7 4.4-.8 6.6-.4a24 24 0 0 1-5.6 3.6c-7.2 3.8-14.4 7.6-21.3 11.6-1.6 1.2-3.3 2-5.2 2.3Z" fill="#CCDC97"/>
    <path d="m209.8 740.2-39.3 1.8c-.8-18.6-17.2-94.1-18-98-1.8-7.1-3.8-14.3-5.8-21.5l-2.5-9a867.7 867.7 0 0 1-10.4-38.3c-.6-2.4-.5-4.8-1.2-7.2a110.6 110.6 0 0 1-3.4-23.5v-28a15 15 0 0 1 0-3.6c.7-4 1-8.2.9-12.3-.2-2.8.1-5.5.7-8.2.2-1 .3-2 .3-3.1-.2-2.4.1-4.9.8-7.2 0-4 1.3-7.8 1.4-11.8a71.3 71.3 0 0 1 1.8-10.7c.1-2.7.5-5.4 1.2-8.1.6-2.9 1-5.8 1.1-8.7.2-2 .5-3.8 1-5.6 1-5.6 1.4-11.3 2.7-16.8.2-.9.3-1.7.3-2.6 0-2 .2-4.1.8-6v-1.1c.3-4.6 1-9.1 2-13.6V373c.1-2.3-.1-4.5-.8-6.7-.2-1-.3-2-.2-3h7.2a3 3 0 0 1 2.2 1v4.6c0 1.7.1 3.4.5 5.1a18 18 0 0 1 0 8.2c-.3 1.7-.6 3.4-.7 5.1 0 .7 0 1.4-.2 2-.6 1.9-.8 3.8-.7 5.7a21 21 0 0 1-.9 7.6c0 3.9-1.3 7.5-1.3 11.3 0 1-.2 2-.4 3l-.5 3.1a27 27 0 0 1-.7 5.1c-.7 2.7-.5 5.5-1.3 8.2-.5 2.1-.3 4.4-.9 6.6-.6 2.2-.4 4.5-1.1 6.6 0 4.2-1.5 8.1-2 12.2-.4 3.6-1.2 6.8-1.4 10.2 0 1-.3 2-.4 3l-.5 4.1c0 2.1-.3 4.2-.8 6.2a13 13 0 0 0-.3 3.6v7.8c.1 1 0 2-.2 3-.6 3.1-.9 6.2-.7 9.3v18.6c-.2 2.6 0 5.2.8 7.7.2 4.3 1.5 8.5 2 12.7a156.1 156.1 0 0 0 17 46.4l3 4.8c4.2 5.7 7.9 11.8 10.9 18.2 3 7 6.5 13.7 9.7 20.5 2 4.2 3.6 8.6 5.6 12.9l2.2 4.2c1.7 3.2 17 65.3 18 68.8v2l2.5 17.5Z" fill="#EBF4EF"/>
    <path d="m209.8 740.2-2-17.8a41.6 41.6 0 0 1 1.2 9.8c.8 2.6 1 5.3.8 8Z" fill="#EBF4EF"/>
    <path d="M209.8 740.2c.3-2.7 0-5.4-.7-8v-1a56 56 0 0 0-1.3-10.2c2-1.3 3.6-3 4.8-5 .4-.6 1-1 1.5-1.4 1 5.5 1.8 11 2.7 16.6l1.8 9h-8.8Z" fill="#CCDC97"/>
    <path d="M104 359c.1 1.9.4 3.8.9 5.6 1.6 6 2.8 12 3.6 18 1.4 3.6.5 7.9 1.7 11.7.3 1.2.3 2.4.2 3.6v16c.1 2.3-.1 4.6-.7 6.7-.4 1.5 0 3.1-.5 4.6-1.1 5.4-1.7 10.8-2.6 16.3-.9 5.4-2.2 10.4-3.6 15.6l-1 3.6-5.6 18.2c-3.2 10.6-6 21.2-8.6 31.9-.9 3.6-1.5 7.4-2.2 11.1l-.3 2.6c0 1 0 2-.2 3-.6 3-.8 6.2-.6 9.3v20.7c0 2 .3 4.1.6 6.1 1 3.9 1.5 7.8 1.5 11.8 0 .8-.3 1.7-.4 2.5a331.9 331.9 0 0 1-5.5-22.6c-.9-4-1.7-9.1-2.4-13.7-.7-3.7-1-7.5-1.2-11.3 0-1.2-.3-2.4-.4-3.6-.2-1.7-.4-3.5-.4-5.2v-20.7c0-2.7.2-5.5 0-8.3 0-10.3 0-20.7.7-31 .3-6.6.3-13.1 0-19.7 0-2.2-.4-4.5-.7-6.7l-.2-2.5-2-20.1v-3.1a158 158 0 0 0-2.5-24.7 78 78 0 0 1-2-13.8c-.1-3.6-.6-7.2-1-10.8v-6.4l3.6.8 5.7-2.8c1-.6 2-1 3.2-1.1 3 1 6 1.7 8.8 3 2.9 1.1 5.7 2.4 8.6 3.3 2 .6 3.8 1.4 5.5 2.1Z" fill="#CCDC97"/>
    <path d="m51.5 435.3-.6.2c-7.2 1-14.6.6-21.6-1.1a46 46 0 0 1-12.7-5.8c-1.1-.8-2.2-1.7-3.1-2.7a8 8 0 0 1-2.3-5.6c0-2 0-4.1.4-6.1a38 38 0 0 1 5.1-14c5.1-3.3 10-7.6 15.8-10.8 5.7-3.2 10.8-6.4 16-9.6l3.7-2.2a7.2 7.2 0 0 1 6.5 1.9 9 9 0 0 1 3.1 6.3v1.5c0 5.7-.2 11.4-.9 17a50 50 0 0 0-.5 5.7c-.1 2.4-.6 4.8-1.3 7.2L55.3 429a15 15 0 0 1-3.8 6.3Zm-.8-21.6-4.8-2.9c-1-.4-1.9-.8-2.9-1a4.3 4.3 0 0 0-5.1 3.6c-.2 1.1 0 2.3.7 3.3 2.5 2.2 5.3 4 8.5 5.3 1.3 0 2.5-.5 3.5-1.3a3.3 3.3 0 0 0 1.4-3.6c-.2-1-.8-2.1-1.4-3.3v-.1Zm-20.3-1.2c-1.6-2-2.9-4-4.3-5.6a3 3 0 0 0-4.8 0 3.3 3.3 0 0 0-1 2.6l2.5 5.9a4.5 4.5 0 0 0 5.5 2.4 2.7 2.7 0 0 0 2-2.1c.1-1 .2-2.1 0-3.1v-.1Zm7-15.9c-1.1-1.2-2-1.6-3-1a2.9 2.9 0 0 0-1.7 2.4v.5c0 2 .6 4 1.7 5.8a1.7 1.7 0 0 0 1.8.8 3.8 3.8 0 0 0 2.4-3.1l-1.2-5.4Z" fill="#CCDC97"/>
    <path d="m55.7 462.2 3.6 3 2 2.3a4.4 4.4 0 0 1 0 5.4 26.3 26.3 0 0 1-4 4.6 43.6 43.6 0 0 1-12.9 7.5c-1.6.6-3.3 1-5 1.1-8 .9-16.2.4-24.1-1.3-2.9-.7-5.7-1.7-8.3-3a4.5 4.5 0 0 1-1.8-5.9l.5-.9c2.5-3.6 5-7 7.6-10.4 3.5-4.5 8.3-7.9 13.8-9.6h1l-.2 9.2a8.4 8.4 0 0 0 2.4 6 13.6 13.6 0 0 0 9.5 4.6h4.6a9.9 9.9 0 0 0 9-6.6c.6-1.5 1-3 1.4-4.4a3 3 0 0 1 1-1.6Z" fill="#EBF4EF"/>
    <path d="M55.7 462.2a3 3 0 0 0-1 1.7c-.3 1.5-.7 3-1.3 4.4a9.9 9.9 0 0 1-9.1 6.4h-4.6a13.6 13.6 0 0 1-9.5-4.5 8.4 8.4 0 0 1-2.4-6l.2-9.3 1-.5c6.2-1.4 12.8-.5 18.5 2.5 2.6 1.4 5 3 7.6 4.5.2.1.4.5.6.8Z" fill="#988FC1"/>
    <path d="M348.4 642.6a3.2 3.2 0 0 1-.2 3c-.8.7-1.8 1.1-2.8 1.2-8.5 2-17 4.5-25.2 7.5-3 1-6 1.8-9 2.2a58 58 0 0 1-14-.6c-6.8-.7-13.4-2.6-20.2-4-7.6-1.5-15.2-3-22.9-3.9l-9.3-1.1a3.2 3.2 0 0 1-2.7-1.7c.9-3 2-6 3.4-8.7a3.1 3.1 0 0 1 2.6-1c6.2 0 12.4.3 18.6 1l2 .1L291 638l19.1 1.6 20.7 1.4 16 .7a2.4 2.4 0 0 1 1.7.9Zm-34 3.6a3 3 0 0 0-.3 3.8 3 3 0 0 0 2.8 1.1c.8 0 1.7 0 2.5-.3l7.6-3.1 2.2-1.3a2.3 2.3 0 0 0 .8-2.3 2.4 2.4 0 0 0-2-2c-.9-.1-1.7 0-2.6.2a24 24 0 0 0-3.2 1.5c-2.3 1.4-5 2.3-7.7 2.4Zm-19 1.7c1.7-1.5 3.5-2.7 4.4-4.9-1.5-2.4-1.5-2.4-5.5-1.8-.8.7-1.7 1.4-2.5 2.3a3.2 3.2 0 0 0-.8 3.6c1.6 1.3 1.6 1.3 4.4.8Z" fill="#CCDC97"/>
    <path d="m200.4 437 2.2-1.1a3.2 3.2 0 0 1 4.3 1.7l2 4.7c1.4 3.6 2.8 7.5 4 11.3 1.3 4 2 8 2.2 12.1.4 6.8.6 13.5 1.3 20.2.6 5.5.8 11 1 16.5.2 3-.2 6.1-1.3 9a5 5 0 0 1-2.9 1.8l-2.7-1c-.5-.3-.8-.7-1.2-1.1-1.6-3.3-3.3-6.5-4.7-9.8-1.5-3.3-2.8-7-4.3-10.5l-3.6-8.1a61.9 61.9 0 0 1-3.6-10.8c-.8-3.2-1-6.5-1-9.8 0-1.7.3-3.4.9-5l1.4-4.5c2-5 3.8-10.2 6-15.5Zm12.6 42.2v-2.4a16 16 0 0 0-2.6-7.6 3.2 3.2 0 0 0-5 0 7.2 7.2 0 0 0-1.7 4.1v5.7c0 .3.2.7.4 1l.8 1.2 1.5 1a5.1 5.1 0 0 0 6.6-3Zm-6.3-18a7.5 7.5 0 0 0 4.6-3 4 4 0 0 0-.8-5c-1.8-2-3.6-2.6-5.4-1.6a5.5 5.5 0 0 0-2.5 3v2.6a3.6 3.6 0 0 0 2.1 3.2l2 .8Z" fill="#CCDC97"/>
    <path d="m283.7 665.3-.6-2.9V661a1.9 1.9 0 0 1 1.9-.8c4.3.8 8.6.3 12.9.9 8.2.7 16.5 1 24.8.7 4.8.1 9.6-.8 14.2-2.5 1.4-.6 2.9-1 4.4-1.5l11.8-3.6 1.8-.4.7.3.4.3 8.5 9 .3.7-12 14c-4-.4-7.9-1.5-11.7-2.3l-11.2-2.2-11.7-2.3-11.1-2-11.7-2.1c-3.7-.8-7.5-1.3-11.7-2Z" fill="#CCDC97"/>
    <path d="M396.4 669a9 9 0 0 1 4.8-1l9.4-.4 23-.9c7-.3 14-1 21-1.3 2.8-.2 5.4-.4 7.8-.4a2.3 2.3 0 0 1 1.4 2 1.8 1.8 0 0 1-1 1.4c-4.4 1.9-8.6 3.8-13 5.5-6 2.3-12 4.4-18.1 6.6L419 685c-1 0-1.9 0-2.9-.2a487 487 0 0 0-21.3-3.4l-1.4-.5c.9-4 2.2-7.9 3-11.9Zm7 3.5c1.4 2 1.8 2.2 3.2 2.4 3.4.6 6.8 1 10.2 1a78 78 0 0 0 9.8-1.1c1.5-.2 2.8-1 3.8-2a2.1 2.1 0 0 0 .5-2.6 4.2 4.2 0 0 0-3.1-1.4 14 14 0 0 0-4 .2c-1.9.5-3.8.7-5.8.5-4.3.1-8.6.5-12.8 1.2-.7.2-1.3.6-1.6 1.8h-.1Z" fill="#CCDC97"/>
    <path d="M197.2 543c0-2.8 0-5.5.3-8.3a6.2 6.2 0 0 1 2.1-4.6 6 6 0 0 1 7.6-1c.6.3 1.1.7 1.7 1.2 2.4 2 4.7 4 7.2 5.8 2 1.6 3.7 3.6 5.1 5.7l4.2 6.6c1 1.6 1.6 3.5 1.3 5.4l-1.4 12.8c-.2 1.3-.5 2.5-1 3.6a5.3 5.3 0 0 1-3.6 3.3c-2 .6-4.1.4-6-.5a44 44 0 0 1-13.6-10 9.1 9.1 0 0 1-2.7-6c-.4-4.7-1.2-9.4-1.2-14Zm13.8 12.6a8.6 8.6 0 0 0 6-5.6 4.1 4.1 0 0 0-2-4.8 3.6 3.6 0 0 0-4.3.2c-1.5 1-2.8 2.5-3.6 4-.4 4.4-.3 4.5 3.9 6.2Zm10 9 1.3-3a18 18 0 0 0-1-2.4 4.6 4.6 0 0 0-5-2 4.5 4.5 0 0 0-3 5.7 4.3 4.3 0 0 0 5.6 3l2-1.2Z" fill="#CCDC97"/>
    <path d="M189 533.2a9 9 0 0 1-1.1-1.6c-1.1-2.1-2.3-4.3-3.3-6.5a100.8 100.8 0 0 1-8.7-27.3c-.2-2.9-1-5.7-1.6-8.6-.4-1.8-.6-3.7-.6-5.6v-29.3c.6-3.3 1-6.6.9-9.8.2-2.6.6-5.1 1.2-7.6a78 78 0 0 0 1-5c0-.5.6-.9.8-1.3.3.4.6.9.7 1.3l2.5 18.5 1.6 13.9c.6 4.6 1 9.6 1.5 14.4l1.4 14.4.7 7.2 1.5 16.4 1.5 14c.2.6 0 1.5 0 2.5Z" fill="#CCDC97"/>
    <path d="M399.8 655.2c-1.5.5-3 .6-4.7.6a90 90 0 0 1-8.8-7.6c0-1.6.4-3.2 1.3-4.6l1-.4 15.8-2h1.6c11.8-.5 23.7-1.3 35.6-.8 1.7-.2 3.5 0 5 .8l2.4 5.8a46.8 46.8 0 0 1-4.5 9.1c-6 .2-12 0-18-.7.6-.3 1.2-.8 1.8-.8a18 18 0 0 0 6.3-1.7l.5-.5a2.4 2.4 0 0 0-1.8-4h-2c-3.3.7-6.5 1-9.8.8h-9.7c-2.6.1-5.2.6-7.6 1.4a8 8 0 0 0-4.4 2.7v2Z" fill="#CCDC97"/>
    <path d="M568.4 595.8c.8-1.9 1.7-3.8 2.8-5.6a17 17 0 0 1 2.1-.3c5 0 10 .5 15 1.4l11.6 2.2a5 5 0 0 1 3 1.3c.7 3 1 6 .7 8.9a10 10 0 0 1-5-.4c-9.8-2.3-20-3.6-29.7-6.6l-.5-.9Zm18 2.1 3.6 1.2c1.8.5 3.8.5 5.6 0a2.2 2.2 0 0 0 1.7-1.8 2 2 0 0 0-1.2-2c-2.3-1.1-4.8-1.7-7.4-1.9a2.6 2.6 0 0 0-2.5 1.5l-.2 1c0 .8.2 1.4.5 2.1l-.1-.1Z" fill="#CCDC97"/>
    <path d="M399.8 655.2v-1.9a8 8 0 0 1 4.4-2.7c2.5-.8 5-1.2 7.6-1.4h9.8c3.2.2 6.5 0 9.7-.8h2a2.4 2.4 0 0 1 1.8 4l-.5.5c-2 1-4 1.6-6.2 1.7-.7 0-1.3.5-1.9.8-6.5 0-13 .4-19.5.4-2.5-.2-4.9-.2-7.2-.6Z" fill="#EBF4EF"/>
    <path d="M230.6 616c.4 0 1 0 1.8.3a6 6 0 0 1 4.3 6.6 9.4 9.4 0 0 1-7.2 7.5 6.3 6.3 0 0 1-7.8-7.6c.2-1 .6-2 1.1-2.9a8 8 0 0 1 7.8-3.9Z" fill="#DCDCFF"/>
    <path d="M599.5 567.3c.3 1.4.3 2.9.2 4.3a3 3 0 0 1-2.3 1.6c-1.6.3-3.1.4-4.6.5-4.5 0-9 0-13.5-.3a8 8 0 0 1-1.5-.4c.2-2.9 1-5.6 2.3-8.1 2.4-1.6 5.2-2.5 8.1-2.6a26 26 0 0 1 11.2.4c.4 1.1.4 2.4 0 3.6-.8-.6-1.1-1.8-2.6-2.1-2.6 0-5.8-.6-8.2 1.7 0 .3-.2.5-.3.6-.3 2.5.6 3.8 2.8 3.9 2 .3 4.2.1 6.3-.4l2-2.7Z" fill="#CCDC97"/>
    <path d="M395.9 633a4.6 4.6 0 0 1 .3-3.5l.8-1c1.3-.6 2.6-1 4-1l20.5-1.6a5 5 0 0 1 3.6.3 2.1 2.1 0 0 1-.5 2.8c-.7.7-1.6 1.2-2.7 1.4-7.8 1.1-15.6 2.5-23.4 3.1a3 3 0 0 1-2.6-.4Z" fill="#CCDC97"/>
    <path d="M209.7 600.5a4.8 4.8 0 0 1 2.5-4.7 5.1 5.1 0 0 1 5.3 0c.6.3 1.1.8 1.6 1.3a4 4 0 0 1 .7 4.5 5.7 5.7 0 0 1-7.6 3.1 4.6 4.6 0 0 1-2.5-4.2Z" fill="#DCDCFF"/>
    <path d="M382.8 734.4a2.9 2.9 0 0 1-2.3 1.5 3 3 0 0 1-2.6-3.3c.2-2.8.7-5.5 1.6-8a2.8 2.8 0 0 1 2.4-2.4 1.8 1.8 0 0 1 1.4 1.3c.6 1.8.7 3.8.4 5.6l-1 5.3Z" fill="#CCDC97"/>
    <path d="M515.3 655.1a2.6 2.6 0 0 1-3 .3 3 3 0 0 1-1.4-2.1c-.5-3 0-6.2 1.4-9a2.1 2.1 0 0 1 2.7-1c.8.4 1.5 1 1.5 1.9 0 2.9-.2 5.8-.5 8.7 0 .4-.5.9-.7 1.2Z" fill="#CCDC97"/>
    <path d="M399.8 700.6c.5-1.5 1.1-2.3 2.3-2.5a2.5 2.5 0 0 1 2.4 1.6c1 2.4 1.2 5 .9 7.6l-.4 1a2.7 2.7 0 0 1-1.7 1.7c-1 .3-1.6-.2-2.3-.9-.3-.4-.4-.9-.5-1.3l-.7-7.2Z" fill="#234E32"/>
    <path d="m599.5 567.3-2.1 2.6c-2 .6-4.2.7-6.3.5-2.1 0-3-1.4-2.7-4l.2-.5c2.5-2.4 5.6-1.7 8.3-1.7 1.4.3 1.8 1.4 2.6 2v1.1Z" fill="#EBF4EF"/>
    <path d="M546.6 626.6a3 3 0 0 1-2.3 1.5 2.7 2.7 0 0 1-2.4-2.9c0-2.2.5-4.4 1.4-6.4.2-.5.5-.9.9-1.2a1.7 1.7 0 0 1 2.3 0 3.6 3.6 0 0 1 1 2.7c0 2.1-.4 4.2-.9 6.3Z" fill="#CCDC97"/>
    <path d="m374.7 668.6 1.7.8c2 2.6.6 5.3.4 7.7a2.8 2.8 0 0 1-1.7 1.5 2.5 2.5 0 0 1-3.1-1.8c-.4-2-.3-4.1.2-6.1 0-.7.9-1.3 2.5-2Z" fill="#CCDC97"/>
    <path d="M392.8 700.2a2.6 2.6 0 0 1 1.6 1.8l.2 1c0 2.4.3 4.8.4 7.3a2.4 2.4 0 0 1-1 2.2 2.2 2.2 0 0 1-2.9-.5 4 4 0 0 1-.6-1c-.4-2.8-.4-5.7 0-8.5.2-1.3.9-2.3 2.3-2.3Z" fill="#234E32"/>
    <path d="m554 630-1.1 5a2.3 2.3 0 0 1-2.3 1.6 2.4 2.4 0 0 1-2.2-2.4l1-6c0-.4.2-.7.4-1a2 2 0 0 1 1.6-1 2.2 2.2 0 0 1 2 1.3l.5 2.5Z" fill="#CCDC97"/>
    <path d="M425 613.2c.3 1.2.6 2.2 0 3.1-.3 0-.6.4-1 .4l-11-1a1 1 0 0 1 0-1.4 3 3 0 0 1 2.1-1.1l9.3-.4s.1.2.6.4Z" fill="#CCDC97"/>
    <path d="M240 660.5c-.5.4-1 .8-1.7 1.1l-2.3 1-.2-7.2c0-.6.2-1.2.4-1.8l1.2-.3.9.3c.2.2.5.5.6.8l1.1 6Z" fill="#CCDC97"/>
    <path d="m454.1 658.8-.7 1.2a2 2 0 0 1-2.3.7 2.2 2.2 0 0 1-1.5-1.9c-.3-1.7 0-3.4 1-4.9l1.2-.6a1.8 1.8 0 0 1 1.5 1.4l.8 4.1Z" fill="#CCDC97"/>
    <path d="m248.3 657.2-2.3.8-1.8.4c0-1.4 0-2.7.2-4 0-.7.7-1.2 1-1.8l1.6.7 1.3 4Z" fill="#CCDC97"/>
    <path d="M81.4 350.6c-1.2.2-2.3.6-3.3 1.2l-5.6 2.7-3.6-.7a26 26 0 0 1-7.2-1.4 1.7 1.7 0 0 1-.7-2 6 6 0 0 0 .4-4.4l-2.9-4c-2.8-4-5.3-8.4-7.5-13-3.4-6.5-6.2-13.4-8.3-20.5a14 14 0 0 1-.7-4v-7.8c0-5.4 1.5-10.7 4.1-15.3a8.4 8.4 0 0 1 12.8-2.5c1.4 1 2.5 2.4 3.3 4 2.2 4 3.8 8.5 4.8 13a5 5 0 0 0 1.5 3.1h.5c1.3-1.6 2.3-3.3 3-5.2v-8.6a128 128 0 0 1-9.5-21.3 42.3 42.3 0 0 1-1.9-16.7c.1-.9.3-1.7.6-2.5l1.9-5.7c1.1-1.3 2.6-2 4.3-2.3a10.1 10.1 0 0 1 6.9 5.6c1.2 2.3 2.2 4.6 3.3 7a7.6 7.6 0 0 0 3.6-3.3l2.8-3.6a1.9 1.9 0 0 0-.6-2 16 16 0 0 1-3.1-4.7c-2-3.9-3.4-8-4.5-12-.9-3.7-2-7-3.1-10.5-1-3.4-1.5-6.3-2.4-9.5l-.3-3v-6.1l1.5-4.3a9.7 9.7 0 0 1 7.2-3.8 2.7 2.7 0 0 0 .5-3.2 49.2 49.2 0 0 1-3.4-9.7 35.5 35.5 0 0 1 .3-17.4 9 9 0 0 1 3.3-5.1c1.3-.6 2.7-.7 4-.4l1.3.9c2.4 2 4 4.8 4.8 7.9l.9 3.6a32.8 32.8 0 0 1 1.4 12.7c1.8 0 2.3-1.6 3.6-2.3l3.3-2h5.2c2 .5 3.8 1.8 5 3.5l.6 1.7c.8 2.1 1 4.4.3 6.6a69.2 69.2 0 0 1-11.6 21.6c-2 2.6-4 5-6.3 7.2v13.4c.1 2.4-.1 4.9-.8 7.2a3.6 3.6 0 0 0 .4 3.6h1.3c1.8-.7 3.6-1.6 5-2.3a7.2 7.2 0 0 1 7.2 2.4 20.7 20.7 0 0 1-4.2 17A46.4 46.4 0 0 1 80 269.8l-.5 2.1v10.8c0 .3.3.6.5.9 1.4 0 1.9-1.3 2.8-2l2.6-1.7 3.4-1.6h5l3 1.4c1 1.1 1.8 2.5 2.2 4v6.2a22.6 22.6 0 0 1-6.5 12l-4.7 4.7a45 45 0 0 1-8.7 6.5l-8.6 5a6 6 0 0 0-.4 1.3c.1 3.2-.2 6.3-1 9.3v3c0 2.4 0 4.7.2 7 .6-.3 1.2-.3 1.5-.6 5.5-5.1 11.6-9.7 18-13.7 2.6-1.7 5.6-3 8.6-3.7a7.6 7.6 0 0 1 5.3 3.4 7 7 0 0 1-.5 5.6 29.3 29.3 0 0 1-6 8.9c-3.6 3.7-7.6 7-12 9.8-1 .6-2 1.3-2.8 2.1Zm-18.7-14.4v-18.5c.2-2.5 0-5.1-.8-7.6-.2-1-.3-2-.2-3v-2.7a466 466 0 0 0-2.6-11 34.4 34.4 0 0 0-4.8-9.3 2.4 2.4 0 0 0-2.9 0l-1 1.1a33 33 0 0 0-3.2 11.4c-.4 3.8 0 7.6 1 11.2 0 .7.5 1.3.7 2 1 3.6 2.8 7.2 4 10.5a96 96 0 0 0 8.5 15.3c.4.4.8.6 1.3.8v-.2Zm29.7-51.4c-.6 0-1.2-.5-1.6-.4-1.1.3-2.2.8-3.2 1.5a73.1 73.1 0 0 0-7.9 8.2c-2.3 3.2-4.3 6.5-6.2 10-1 2-1.8 4-2.3 6.3 0 .4.2.9.4 1.5.5 0 1-.2 1.5-.5l2.3-2c3-3.1 6-6 9.5-8.7a14 14 0 0 0 3.8-4.1c1.6-2.3 3-4.7 4-7.2.2-1.5.1-3.1-.3-4.6Zm-7-55.4v-15.6a37.6 37.6 0 0 0-5.8-19.5 2.1 2.1 0 0 0-2.2-1c-.4 0-.8.5-1.3 1v8.7c0 .7 0 1.3.3 2 .6 2.3 1.2 4.7 2 7 1.5 4.9 3.2 9.8 4.9 14.6l1 2.4 1.1.4ZM80 263.2a5.6 5.6 0 0 0 4.2-1.8c1.8-1.8 3.8-3.5 5.8-5 1.6-1 3-2.4 4-4 .4-.7.9-1.4 1.5-2a21 21 0 0 0 4.3-9.3c0-.2-.3-.5-.7-1-2.4.8-4.6 2-6.5 3.7-2.3 2.3-4.5 4.7-7 7a22 22 0 0 0-6 10.9c0 .4.2 1 .4 1.5Zm12-59.6a1.2 1.2 0 0 0 1.5-.5c1.6-2.7 3-5.5 4.7-8a40.2 40.2 0 0 0 6-14.2c0-.7-.2-1.4-.5-2-.3-.6-.9-1-2.1-1a20.5 20.5 0 0 0-4 4l-2.8 7.2c-1 2.3-.6 4.8-1.7 7 .2 2.6-1.6 4.9-1 7.5ZM95.7 328l-2.5 1a63 63 0 0 0-5.7 3.6 69.6 69.6 0 0 0-7.4 5.5c-3 2.6-5.7 5.5-8.4 8.3a1 1 0 0 0-.2.5c-.2.5 0 1 .7 1.3a62 62 0 0 0 14.5-8.5c2.4-2.1 4.6-4.6 7-6.9 1.1-1.3 1.8-3 2-4.8Zm-28.4-83.5a16 16 0 0 0-1.2 10.8 85.7 85.7 0 0 0 6 17.4h.5c.2 0 .3 0 .3-.3.5-4.3.3-8.8-.7-13l-.2-2.6c-.2-4.2-1.4-8.1-3.6-11.7-.1-.2-.5-.3-1-.6Zm18-62.8v-11.5a55 55 0 0 0-2.7-11.4 6 6 0 0 0-.9-1.4c-1 1-1.5 2.4-1.5 3.8-.5 5 .2 10 2 14.6l1.7 4.9a1.5 1.5 0 0 0 1.6 1h-.2Z" fill="#DCDCFF"/>
    <path d="M1.5 305c1.4.1 2.8 0 4.1-.5 1.7-.6 3.6-.7 5.3-.4a4.9 4.9 0 0 1 2.8 2.7c.4 1.3.4 2.7 0 4A25.5 25.5 0 0 1 5 322.8a43.2 43.2 0 0 1-13 7.5c-1 .3-1.9.7-2.8 1.2-.5.3-1 .4-1.5.5-3 .4-4.7-.5-4.7-3.6-.2-3.5.3-6.9 1.3-10.2.4-1 .6-2 .7-3a60.3 60.3 0 0 1 3.1-18.2V295l-2.2-5c-.6-1.3-1.3-2.5-1.7-3.8-1.9-4-2.6-8.3-2.2-12.6v-8.3c0-3 .9-5.8 2.3-8.4l1.3-1.6a3.2 3.2 0 0 1 2.8-1l3 .6c1.7-1.8 1.7-4.2 2.7-6.2l3-6c1-2 2.1-4 3.6-5.7a6 6 0 0 0-.7-1.5c-3-3.6-5.1-7.8-6.2-12.4-1.3-4.5-2.2-9-3.1-13.5a25 25 0 0 1-.2-4.7c0-1.7-.4-3.5-1-5a5.5 5.5 0 0 1 0-4.2c.5-1.8.8-3.7.6-5.6.2-4.1 1.2-8.2 3-12a9.5 9.5 0 0 1 6.8-5.7 8.7 8.7 0 0 1 6.5 5.4 20 20 0 0 1 2.4 9.4l.2 1.6.3.4a1 1 0 0 0 1 .2l.3-.2a50 50 0 0 0 3.3-6.3c0-.6-.1-1.2-.3-1.7-.7-1.6-1-3.4-.6-5.1.6-4.8 1.5-9.5 2.6-14.2a274 274 0 0 1 5-14c1.2-2.8 2.7-5.3 4.5-7.6a9.3 9.3 0 0 1 6-4c2 .2 3 2 4.3 3.3.8 5 .4 10-1 14.9-1.5 5-3.2 10-5.3 14.9v1c.2 0 .6.5.7.5a7.7 7.7 0 0 1 9.1 3l.7.9c.5 1.4.5 3 0 4.5-1 3.8-3 7.3-5.9 10.2-2.8 3.1-5.8 6.1-9 9a38.8 38.8 0 0 1-13.3 8.6c-.4 0-.7.6-1.2 1a58 58 0 0 0-1.5 10.6c-.6 2.7-.8 5.5-1.6 8.1a1.8 1.8 0 0 0 .2 2 4 4 0 0 0 1.2-.6l5.2-5.1a29 29 0 0 1 8.5-5.9c2.4-.2 4.8-.2 7.2 0 1.2.5 2.2 1.5 2.8 2.7.7 2.9.4 6-.9 8.6a60.1 60.1 0 0 1-11.8 16.7c-2.2 2-4.5 3.6-6.8 5.6-3.6 2.7-7.2 5.4-10.4 8.4a75 75 0 0 1-6.2 4.8 2.2 2.2 0 0 0 0 2.3c.4 1.4.4 2.8 0 4.1-.7 2.8-1 5.8-.5 8.7l.3.4c.1.1 1 0 1.4-.6l6.2-6.2 2.6-2.5c1-.7 2-1.4 3-1.8a4.5 4.5 0 0 1 6.6 2.8l.3 1c.4 3.3.2 6.6-.6 9.8-1 4.1-3 8-5.4 11.6L9 295.3l-6.5 7.5c-.5.7-.8 1.5-.9 2.3h-.3v.3l.3-.4Zm-.3-80.6c1-3 1.4-6 1.4-9-.1-1 0-2 .4-3 .5-1.9.7-3.8.6-5.7v-12.4c0-1.2 0-2.4-.3-3.6-.3-1.5-.6-3-.7-4.6-.2-2.6-1-5-2.6-7.2a1.8 1.8 0 0 0-2.2 1c-1.4 2.4-2.2 5-2.5 7.9 0 1-.2 2-.4 3a34.6 34.6 0 0 0 .3 12.8c.6 2.4.6 5 1 7.6.9 4.2 2.3 8.3 3.4 12.4l.6.9 1-.1Zm-11.7 85h.6c2.3-2 4.5-4.3 6.6-6.6 1.2-1.6 2.6-3.1 3.8-4.8 1.2-1.7 2.5-3.3 3.9-4.8.5-.5.8-1.1 1.2-1.7 2.8-4 4.8-8.4 6-13a7 7 0 0 0 0-5 2 2 0 0 0-3 .3c-2.5 2.3-5 4.7-7.2 7.2-3.2 3.1-5.6 7-7 11.3l-2 5.9-2.9 9.8v1.5Zm9.6-55.8 1.2-.8c2.4-2.5 5-4.7 8-6.5 3.8-2.7 7.4-5.7 10.7-9 3.9-3.8 6.6-8.5 8-13.7l-.1-1a1.5 1.5 0 0 0-2-.3 30.3 30.3 0 0 0-7.8 5c-2 1.3-3.7 3-5.1 5L9.8 235a88 88 0 0 0-9.5 12.8c-1 1.5-1.5 3.2-1.7 4.9 0 .2.3.5.5.8Zm-11.8 72a1.5 1.5 0 0 0 2.2.8c3.8-1.7 7.4-3.8 10.8-6.1 3.8-2.5 6.8-5.9 8.8-9.9.2-.4.3-.8.3-1.3-.7-1.4-1.8-1.1-2.7-.8-1.8.5-3.6 1.2-5.3 2-4.3 1.7-8.3 4-12 7a40 40 0 0 0-2 8.4v-.1Zm26-127.6c.3 1 .8 1 1.3.8 2-1.1 4-2.6 5.7-4.2 2.9-3 5.8-6 8.8-8.8 1.9-2 3.4-4.3 4.3-7a1.8 1.8 0 0 0-1.8-2.3c-1 0-2 .4-3 1a19.3 19.3 0 0 0-8.2 7.4c-3.1 4-5.5 8.4-7.2 13.1Zm17-54.8a1 1 0 0 0-1.4.5c-4.5 7.9-7.5 16.6-8.8 25.6 0 .9-.4 1.7-.6 2.5a8 8 0 0 0-.2 2c0 .6.3 1 1 .7.4-.3.7-.7.9-1.1 4.2-8.3 7.3-17 9.2-26.1.4-1.4.3-2.8-.2-4Zm-41.7 141.6h1c.2-.2.4-.6.4-.9 0-2.2.3-4.5 1-6.6V265c0-1.7-.7-3.4-1.8-4.7 0-.3-.6-.3-1-.4-.2 0-.6.4-.8.6a15 15 0 0 0-1.5 7v5.7c-.2 4 .8 8 2.7 11.5Z" fill="#DCDCFF"/>
    <path d="M2.6 331.6c3-1.2 4.6-4.7 8.8-5.7h5.5c1.5.3 2.9 1.2 3.9 2.4l.3 1v9.3c0 .7 0 1.4-.3 2-.7 2.5-1.6 4.9-2.6 7.2a115 115 0 0 1-10 18c-3 3.9-6.2 7.5-9.6 10.8-1.8 1.6-3.6 3-5.8 4.6l-3.2 1.1c-1.2.4-2.5.4-3.6 0a2.6 2.6 0 0 1-2-2c-.2-1.8-.2-3.5 0-5.2.1-1.5.5-3 1-4.5 2.6-7.5 5-15 8-22.3 2.4-6 5.7-11.6 9.6-16.7ZM-10 378.4l1.4-.7a52 52 0 0 0 9-9.4c.3-.5.8-1 1.4-1.5 1.7-1.7 3.2-3.6 4.5-5.6a88.5 88.5 0 0 0 10.3-21.3c.9-2.8 1-5.7.4-8.5-1.6-1.4-1.7-1.4-4-1.3l-2.5 1.7a16 16 0 0 0-6.5 6.6c-.5 1-1.2 1.8-1.6 2.7-1 1.4-1.7 3-2.4 4.5-1.6 4-3.1 8.1-4.5 12.2l-4.9 14.7c-.5 1.4-1 3-1.3 4.4 0 .4.3.9.7 1.5Z" fill="#DCDCFF"/>
    <path d="m593 624.9-1.1 1.2-2 .3h-19.2c-.8 0-1.7-.2-2.5-.4a2.4 2.4 0 0 1 0-4.6l1.5-.3h14.4c2.8.1 5.5 1 7.8 2.5.6.3.8.9 1.1 1.3Z" fill="#EBF4EF"/>
    <path d="M50.7 413.8 52 417a3.3 3.3 0 0 1-1.3 3.6c-1 .8-2.3 1.3-3.6 1.3-3.1-1.2-6-3-8.6-5.1a4.8 4.8 0 0 1-.1-5 4.3 4.3 0 0 1 4.6-1.9c1 .2 2 .6 2.8 1 1.5.7 3 1.6 4.8 2.8Z" fill="#EBF4EF"/>
    <path d="M30.4 412.6v3.2a2.7 2.7 0 0 1-2 2 4.5 4.5 0 0 1-5.6-2.3c-1-2-1.7-4.1-2.4-6a3.3 3.3 0 0 1 1-2.5 3 3 0 0 1 4.8 0l4.2 5.6Z" fill="#EBF4EF"/>
    <path d="m37.4 396.7 1.2 5.4a3.8 3.8 0 0 1-2.4 3 1.7 1.7 0 0 1-1.8-.7c-1-1.8-1.6-3.8-1.7-5.8v-.5a2.9 2.9 0 0 1 1.6-2.5c1-.5 2 0 3 1.1Z" fill="#EBF4EF"/>
    <path d="M314.5 646.2c2.7-.1 5.4-1 7.7-2.4 1-.6 2.1-1 3.2-1.5.9-.2 1.7-.3 2.6-.2a2.4 2.4 0 0 1 2 2 2.3 2.3 0 0 1-.8 2.3c-.7.5-1.4 1-2.2 1.3l-7.6 3.1c-.8.3-1.7.4-2.5.4a3 3 0 0 1-2.8-1.1 3 3 0 0 1 .4-3.9Z" fill="#EBF4EF"/>
    <path d="M295.4 648c-2.7.2-2.7.3-4.3-.7a3.2 3.2 0 0 1 .8-3.6l2.5-2.3c4-.6 4-.6 5.5 1.8-.9 2-2.8 3.2-4.5 4.7Z" fill="#EBF4EF"/>
    <path d="M213 479.2a5.1 5.1 0 0 1-6.6 3l-1.4-1.1-.9-1.1c-.1-.4-.3-.7-.3-1.1v-5.6c0-1.6.7-3 1.7-4.2a3.2 3.2 0 0 1 5 0 16 16 0 0 1 2.6 7.6v2.5Z" fill="#EBF4EF"/>
    <path d="m206.7 461.2-2-.8a3.6 3.6 0 0 1-2.1-3.2v-2.6a5.5 5.5 0 0 1 2.5-3c1.8-1 3.6-.4 5.4 1.5a4 4 0 0 1 .8 5.2 7.5 7.5 0 0 1-4.6 3Z" fill="#EBF4EF"/>
    <path d="M403.6 672.5c.3-1.2.9-1.7 1.6-1.8 4.3-.7 8.6-1 13-1.2 1.9.2 3.8 0 5.7-.5a14 14 0 0 1 4-.2 4.2 4.2 0 0 1 3.1 1.4 2.1 2.1 0 0 1-.5 2.5 6.3 6.3 0 0 1-3.9 2c-3.2.7-6.5 1-9.7 1.2-3.4 0-6.9-.4-10.2-1-1.4-.2-1.7-.5-3.1-2.4Z" fill="#EBF4EF"/>
    <path d="M211 555.6c-4.2-1.7-4.3-1.8-4-6.1.9-1.6 2-3 3.6-4.1a3.6 3.6 0 0 1 4.3-.2 4.1 4.1 0 0 1 2 4.8 8.6 8.6 0 0 1-6 5.6Z" fill="#EBF4EF"/>
    <path d="m221 564.7-2.1 1.1a4.3 4.3 0 0 1-5.7-2.9 4.5 4.5 0 0 1 3-5.7 4.6 4.6 0 0 1 5 2c.4.8.8 1.6 1 2.4l-1.2 3Z" fill="#EBF4EF"/>
    <path d="m586.5 598-.4-2a2.6 2.6 0 0 1 .8-1.8 2.6 2.6 0 0 1 2-.7c2.5.1 5 .8 7.4 1.8a2 2 0 0 1 1.1 2.1 2.2 2.2 0 0 1-1.6 1.8c-1.9.5-3.8.5-5.7 0l-3.6-1.2Z" fill="#EBF4EF"/>
    <path d="M62.7 336.4a3.8 3.8 0 0 1-2.2-2 96 96 0 0 1-7.5-14.2c-1.3-3.6-3.1-7-4.1-10.6 0-.6-.4-1.3-.6-2a27.7 27.7 0 0 1-1-11.2 33 33 0 0 1 3.1-11.3c.3-.5.6-.9 1-1.2a2.4 2.4 0 0 1 3.6.8c1.7 2.7 3 5.7 4 8.9 1 3.6 1.8 7.2 2.6 11v2.6c-.1 1 0 2 .2 3 .7 2.6 1 5.1.8 7.7l.1 18.5Z" fill="#988FC1"/>
    <path d="M92.4 284.8c.4 1.5.5 3 .2 4.5-1 2.6-2.3 5-3.9 7.2a14 14 0 0 1-3.8 4.2 80.5 80.5 0 0 0-9.5 8.7l-2.3 2c-.5.2-1 .4-1.5.4 0-.5-.5-1-.4-1.5.5-2.2 1.2-4.3 2.3-6.2 1.9-3.5 4-6.9 6.2-10 2.4-3 5-5.7 7.9-8.2 1-.7 2-1.2 3.2-1.5.4 0 1 .4 1.6.4Z" fill="#988FC1"/>
    <path d="M85.4 229.4c-.4 0-.8-.2-1-.4l-1-2.4-5-14.6-1.9-7c-.2-.7-.3-1.3-.3-2v-8.8l1.3-1a2.1 2.1 0 0 1 2.3 1.1 37.6 37.6 0 0 1 5.8 19.5v13l-.2 2.6Z" fill="#988FC1"/>
    <path d="M79.9 263.2c0-.5-.5-1-.4-1.4a22 22 0 0 1 6-11.2c2.4-2.2 4.7-4.6 7-6.9 1.9-1.6 4-3 6.5-3.8.3.6.7.9.6 1a21 21 0 0 1-4.3 9.3c-.6.7-1 1.4-1.5 2.2-1 1.6-2.2 3-3.8 4.1-2 1.5-4 3.2-5.9 5a5.6 5.6 0 0 1-4.2 1.7Z" fill="#988FC1"/>
    <path d="M92 203.6c-.6-2.6 1.2-5 1-7.5 1-2.2.6-4.7 1.6-7 1-2.2 1.9-4.8 2.8-7.2 1.2-1.5 2.5-2.9 4-4 1.3 0 2 .4 2.2 1 .3.6.5 1.3.4 2 0 .7-.2 1.3-.4 2-1.2 4.3-3 8.4-5.5 12.1-1.8 2.5-3.1 5.4-4.7 8a1.2 1.2 0 0 1-1.5.6Z" fill="#988FC1"/>
    <path d="M95.7 328c-.2 1.8-1 3.4-2.2 4.7-2.3 2.3-4.5 4.7-7 6.9a62.1 62.1 0 0 1-14.3 8.6c-.7-.4-1-.8-.7-1.4 0-.1 0-.3.2-.4 2.7-2.8 5.4-5.8 8.4-8.4 2.3-2 4.8-3.8 7.4-5.5 1.9-1.2 3.6-2.4 5.7-3.6l2.5-.9Z" fill="#988FC1"/>
    <path d="M67.3 244.5c.6.3 1 .4 1 .6 2.2 3.6 3.5 7.5 3.7 11.7 0 .8 0 1.7.2 2.5 1 4.4 1.2 8.9.7 13.3 0 0 0 .3-.3.3h-.5l-1.4-2.7c-2-4.8-3.6-9.7-4.6-14.7a16 16 0 0 1 1.2-11Z" fill="#988FC1"/>
    <path d="M85.5 181.7a1.5 1.5 0 0 1-1.5-1c-.5-1.7-1-3.3-1.7-4.9a31.2 31.2 0 0 1-2-14.6c0-1.4.6-2.7 1.6-3.8l.9 1.4a55 55 0 0 1 2.7 11.4v11.5Z" fill="#988FC1"/>
    <path d="M1.2 224.4h-1c-.3-.2-.5-.5-.6-.8-1.1-4.2-2.5-8.2-3.4-12.4-.5-2.6-.5-5.2-1.1-7.7a34.6 34.6 0 0 1 .2-15.8c.2-2.8 1-5.5 2.4-7.9a1.8 1.8 0 0 1 2.3-1c1.5 2.2 2.3 4.7 2.5 7.3.2 1.5.4 3 .8 4.5.3 1.2.4 2.4.3 3.6v12.5c0 1.8-.1 3.8-.7 5.6-.3 1-.4 2-.3 3 0 3.1-.4 6.2-1.4 9.1Z" fill="#988FC1"/>
    <path d="m-10.5 309.5-.3-1.4 3-9.9 2-5.8c1.4-4.2 3.8-8 7-11.2l7.2-7.2a2 2 0 0 1 3-.2 7 7 0 0 1 0 4.9 38.2 38.2 0 0 1-6 13l-1.2 1.7a42.2 42.2 0 0 0-4 4.9c-1.1 1.6-2.5 3.2-3.8 4.8-2 2.3-4.2 4.5-6.5 6.5l-.4-.1Z" fill="#988FC1"/>
    <path d="M-.9 253.6c-.2-.3-.5-.6-.5-.8.2-1.8.7-3.4 1.7-4.9 2.7-4.5 6-8.8 9.5-12.8.8-.9 1.6-1.8 2.2-2.8 1.4-2 3.2-3.7 5.1-5 2.4-2.1 5-3.7 7.9-5a1.5 1.5 0 0 1 1.9.4c0 .3.2.7.1 1a30.1 30.1 0 0 1-8 13.6c-3.3 3.3-7 6.3-10.8 9a47.9 47.9 0 0 0-9 7.3Z" fill="#988FC1"/>
    <path d="M-12.6 325.7a40 40 0 0 1 2-8.5c3.7-2.8 7.7-5 12-6.7 1.6-.8 3.4-1.4 5.2-2 1-.3 2-.5 2.8.8 0 .5-.2 1-.4 1.4-2 4-5 7.3-8.7 9.7a70.3 70.3 0 0 1-11.4 6.2 1.5 1.5 0 0 1-1.5-1Z" fill="#988FC1"/>
    <path d="M13.2 198c1.6-4.7 4-9.1 7.2-13 2-3.3 4.8-6 8.3-7.5.8-.6 1.8-1 2.9-1a1.8 1.8 0 0 1 1.8 2.4 19 19 0 0 1-4.3 7 376 376 0 0 0-8.8 8.7c-1.7 1.6-3.6 3-5.6 4.2-.6.3-1.1.1-1.5-.8Z" fill="#988FC1"/>
    <path d="M30.2 143.2c.5 1.3.5 2.7 0 4a105.4 105.4 0 0 1-10 27.3c-.8.3-1-.1-1-.6 0-.7 0-1.4.2-2.1 0-.8.5-1.6.6-2.5a72.3 72.3 0 0 1 9.6-26c.2-.1.4-.2.6 0Z" fill="#988FC1"/>
    <path d="m1.5 305-.4.4v-.2h.4v-.2Z" fill="#988FC1"/>
    <path d="M-10 378.4c-.4-.7-.8-1.2-.7-1.6.3-1.5.8-3 1.3-4.4l4.9-14.7c1.4-4.1 2.9-8.2 4.5-12.2l2.4-4.5c.4-1 1-1.8 1.6-2.7a16 16 0 0 1 6.2-6.7c1-.5 1.8-1.1 2.5-1.7 2.3 0 2.4 0 4 1.3a17 17 0 0 1-.4 8.5c-2.4 7.5-6 14.7-10.3 21.3-1.3 2.1-2.8 4-4.5 5.7-.6.4-1 1-1.4 1.5a52 52 0 0 1-8.8 9.4c-.4.4-.9.6-1.4.8Z" fill="#988FC1"/>
    <path d="m163.2 724.8.5.3s-.3.2-.5-.3Z" fill="#988FC1"/>
    <path d="m142.5 709.3 1 1-1-1Z" fill="#988FC1"/>
    <path d="M143.6 710.4s.4 0 .4.2-.3.2-.4-.3Z" fill="#988FC1"/>
    <path d="m36.8 609.8-.4.4v-.2h.3v-.2Z" fill="#988FC1"/>
    <path d="m2.6 696.9-.5.4v-.3h.3l.2-.1Z" fill="#988FC1"/>
  </g>
</svg>