<svg viewBox="0 0 1440 801" fill="none" xmlns="http://www.w3.org/2000/svg">
  <path d="M936.5-75c5 4.5-16.7 142.2-16.7 148.1 0 6-2.7 11.7-7.7 16.1a41.8 41.8 0 0 1-7.7 6.2c-10.2 5.8-20 12-29.1 18.8a311.8 311.8 0 0 0-51.9 45.8 264.4 264.4 0 0 0-37.7 59A142.8 142.8 0 0 0 774 251c-1.2 6.2-1.6 12.3-2.7 18.5-.8 5-2.5 11.3-.4 16.3 4.5.7 9.4 3.1 14 4.1 6 1.2 12.3 2 18.6 2.3 15.1 1 30.4.4 45.3-1.9 3-.4 12.9-3.8 14.8-1.2 2 2.6-5.8 8-7.8 9.8-5.2 4.5-9.2 9.6-14 14.3a728.5 728.5 0 0 1-23.3 21.2 165.8 165.8 0 0 0-20.6 23.5 184.1 184.1 0 0 0-17 26.8c-2.1 4.1-4.5 8.2-6.2 12.5-1.4 3.3-5.3 9.2-2 12.3 4.2 4 17.4 3.6 23.3 4.4a62 62 0 0 0 23.9-2.7c-.8 5.7-8.1 10.1-13.5 13.3A126 126 0 0 0 790 436a199 199 0 0 0-18 15.7 67.9 67.9 0 0 0-6.7 8c-4.7 6.7-7.4 10-.7 16.2 13.4 12.4 33.6 21.2 52 28.2 10.1 3.9 20.5 7.4 31 10.3 7.5 2.1 19.1 4.2 25.3 7.8-1.5 1-3.2 1.8-5 2.4l-5 2.3a157 157 0 0 0-20.8 10.8c-5.1 3-10 6.1-14.5 9.6-3.3 2.8-7.2 4.5-10.7 7.1-1.8 1.3-2.2 1.9-1.5 3.6.6 1.9 1.5 3.7 2.6 5.5 2 3.6 4.5 6.9 6.4 10.4 2.5 4.2 4.5 8.5 7 12.7 2.6 4.1 5.6 8 9 11.7 2.6 2.7 4.5 5.8 7 8.6.9 1.3 7 6.5 6.6 7.2-5.1-2.3-9-6.3-14-9-7-4.1-15-7.2-22.3-10.8-3.9-1.9-5 .5-7 3.6a29.6 29.6 0 0 0-5 12c-.4 1.8-.6 3.8-.6 5.7 0 .8 1.3 4.2.6 4.7-.6.5-2.3-1-2.7-1.7-1.8-2.7-2.9-5.6-4.8-8.3-6-8.4-10.3-17.4-16.7-25.7a71 71 0 0 0-20-17.6c-3.3-2-8.4-5.9-12.4-4.3-4 1.6-4.9 6.5-7.2 9a29 29 0 0 0-6.5 12.5c-3.5-2.3-7.2-4.5-11.1-6.5-3.5-2-9-7.1-14-6.8-7.9.2-12 8.3-15 12.9-2.5 3.8-2.4 2.7-7.2 2.8-3.4 0-4.4 1.2-7.7-1-6.4-5-13.4-9.6-21-13.5-4.2-2.2-15-8.2-19.4-5.5-3.3 2-5.3 8.1-7 11.1a56.7 56.7 0 0 0-5.8 14.1 85.9 85.9 0 0 0-3.1 19V611.9c-7.1-4.3-18.5-10.8-25.9-14.5a163 163 0 0 0-23.3-9.5c-2.4-.7-8.3-3.6-10.8-2.5-1.3.6-2 2.7-2.7 3.8l-2.9 4.5a96.7 96.7 0 0 0-10.2 24.2 75 75 0 0 0-4.2 33.7c.7 4 0 7.9 1 11.8.7 2.6 1 5.3 2 7.9 2 5.7 5 11 7.3 16.5a88 88 0 0 0 12.5 18c1 1.1 2.1 2.4 3.3 3.5 1.2 1.2 2.1 1.5 2.4 2.4-6-4-14.5-5.3-21.7-7.7-4.6-1.7-9.5-3-14.4-3.8-5.4-.8-11.8-.2-16.9-1.4.8 4 2.3 8 4.5 11.7 1.8 4.6 4 9 6.8 13.3a164 164 0 0 0 33.6 29c-1.6-.9-9.2.1-11.1.1h-71.7c-4 0-23.4 1.9-20-3.6 1.9-3 5.6-5.4 7.6-8.5 2-2.7 3.4-5.6 4.1-8.6.6-3.1.6-6.3 0-9.4a62 62 0 0 0-1.2-9.5c-2-5.7-4.4-11.3-7.2-16.8-1.2-3-2.9-5.8-5-8.3-2.5-2.4-4-2-7.4-1-5.2 1.3-10.5 2.6-15.4 4.3-3.2 1-8 3.2-10.2-.2-2.8-4.3 3.1-12.2-1.5-16.1-2.2-1.9-11.9-1.6-15.2-1.8l-12-.8c-2.4 0-7 .5-9-.7-4-2.5-1.4-9.4-1.8-12.8-.4-4.4-.8-8.8-1-13.2-.6-9.4-1.4-18.7-2.4-28-1-8.9.7-18.4-11.6-22.5-9.4-3.1-22-.2-31.4.6-11.9 1.1-23.5 3.6-34.4 7.5l-11.4 4A94.2 94.2 0 0 0 283 613l-1.5 1s-1.7 1.2-1.8.8a29 29 0 0 0-.8-4.3c-.6-3.1-1.7-6.2-3.3-9l-2.6-5c-.3-.7-.8-1.4-1.2-2a28.1 28.1 0 0 0-4.7-6.7c-1.7-1.8-2.7-.9-4.8 0a53.3 53.3 0 0 0-7.7 4.6c-4.3 2.8-8.1 6-11.4 9.6-.7.8-3.4 5.4-4.5 5.5-1.1 0-2-3.4-2.4-4.3-1-2.1-2-4-2.8-6.3a86.9 86.9 0 0 0-4.5-10.1 22.1 22.1 0 0 0-6-6.4c-2.6-2-4-2-7.5-2.1-3.6-.2-8.5-.7-12.9-.7-4.3 0-9.5 0-14.2.2-2 0-8 1.2-9.6 0-1.5-1.3-.4-4-.4-5.2V563c0-3.9-.6-7.7-1.1-11.7-.3-2.2-1.1-4.5-1.7-6.8 0-.5 0-2.6-.8-2.9-.8-.3-5.1 1.5-6.3 2a61.4 61.4 0 0 0-18 11.9c-1 .6-2 2.1-3.1 2.5-1.2.4-2.2-2.2-2.4-3.2-.5-2-.8-4.2-1-6.3 0-2-.5-3.8-.7-5.8-.2-1.9 0-4-.5-6-.6-4.4-1.6-8.7-3.2-12.9-1.2-2.4-2.2-4.7-6-3.3l-6.7 2.6a69.9 69.9 0 0 0-9.6 4.5c-2.3 1.4-4.2 3-6.5 4.3-1.2.7-2.6 1.3-3.7 2.1l-3 2.6c-1 .8-3.7 2.2-5.2 3.6-.7.7-1 1.4-1.7 2.1l-2.6 2.6c.5-8.2-.6-16.3-3.4-24.2-6.9 1-13.4 5.7-18.8 9-2.4 1.5-5 2.8-7.5 4.3l-3.8 2.8c-1.2 1.1-1.6 2.6-2.9 3.6.6-1.5 1-3 1-4.5.5-1.8.8-3.6.9-5.4 0-5-.2-10-.9-15-1-7.6-2.5-15-4.5-22.4-12.3-.2-24.7.4-37 1.7-5.4.4-10.9.8-16.4 1.4-3.3.4-6.6.4-10 .5-2.9.6-5.9 1-8.9 1.2-2.6-.3-2.8-2.7-3.4-4.7a15 15 0 0 0-5.7-8.3c-2.5-1-7.7.6-10.2 1.3-6.9 2.3-13.6 5-20.1 8-7.6 3-14.9 6.6-21.8 10.5V453c2-4 4-8 6.2-12a161.3 161.3 0 0 1 44.5-51.3c14.3-10.7 27-22.5 40.9-33.3 12.4-9.6 24.6-19.6 36.7-29.4 12.1-9.9 23.4-21.7 35.9-31.5l-1 1.6c4.2-2 7.7-4.8 9.8-8.4 3.5-4.1 8.2-7.6 11.5-11.9 6-7 11.5-14.4 16.2-22.1 4.5-8.3 9.4-16.5 13.5-24.9 2.1-4.5 3.8-9 5-13.8.7-2.4 2.2-5.4 2.9-7.9a79.1 79.1 0 0 0-23 1.5c-7.1 1.5-13.5 4.4-20.6 5.8-2 .2-3.9.6-5.7 1.2 8.7-3 13-9.4 18.8-15a90.5 90.5 0 0 0 16.3-17.9c.8-1.2 1.5-2.5 2-3.9.3-1.7-2-2.6-3.5-3.6a47.8 47.8 0 0 0-17.3-6.1c-3.5-1-7-1.7-10.7-2.2a18 18 0 0 0-3.7 0h-3c-.6 0-.4-.9-.5-1.3-.3-1.1-.9-2.3-1-3.5-.4-2.9-.6-5.8-.5-8.7 0-2.1.2-4.3 1-6.4 1-3.3 1-6.6 2.6-9.8l5-11.3a29 29 0 0 1 8-12 38 38 0 0 0 12.6 4.4c4 .5 8.1.8 12.2.7a171.6 171.6 0 0 0 37-6 142 142 0 0 0 22.4-6.5 123 123 0 0 0 13.5-7.5c3-1.7 6-3.4 9-5.3a42 42 0 0 0 6.7-5.4l.8-1.3c4-7.3 5.2-15.4 3.2-23.2L300-100-8.7-72.5-230 57.1v1357.5l2306 .4V57l-594-176-545.5 44Z" fill="#6FB86F"/>
  <path d="M634.3 345.7v-4.1a34 34 0 0 1 0-8 12 12 0 0 1 3.4-5.2c.4-1.4.7-2.8 1.2-4.1 0-3.3.4-6.6 1.4-9.8l3-7.8c1.5-2.7 3.5-5 6-6.9a13 13 0 0 0 3.5-4 74 74 0 0 1 3.5-7 21 21 0 0 1 10.1-8.4c7-3.1 10-12.7 16.5-16.9 5.2-3.3 10.7-1.6 16-5.1 4.5-3.1 8.7-7.4 13.9-8.1 4.6-.9 9-2.5 13-5 4.6-2.3 10.4-.8 15.4-.5 2 0 4-.1 6-.6 3.8-1 7.5-3 11.3-3.1l6.8-.1c1.6-.4 3.3-.1 4.7.8 2.4 2 1.8 6.7 1.6 9.6l-.6 3.7c0 1.6 0 3.3.3 4.9 0 1.7-.2 3.4-.8 5l-.8 2.4c-.3 1-.4 2.1-.5 3.2-.3 1.6-.4 3.2-.3 4.8 0 2.3-.3 4.6-1.2 6.8-.8 2.8 0 5.7-.7 8.6-.7 3.3-.7 6.8-2.5 9.7-.6 1-1.6 1.6-2.2 2.5-.7 1.2-1.2 2.5-1.5 3.8-.9 2.7-1.2 5.5-2 8-.9 2.9-2.4 5.4-4.5 7.5-1.2 1.1-2.6 2-3.9 3.2L749 328l-1 1.5c-.2.6-.1.7-.3 1-.8 2.2-1.6 4.5-2.2 6.7a11 11 0 0 1-3 5.2c-1.4 1.5-3 2.7-4.8 3.6a76 76 0 0 1-5.2 6.3l-1.3 3c-1 1.6-2.1 3.1-3.4 4.5-1.3 1.4-2.6 2.6-4 3.8-1.4 1.2-3 2.1-4.8 2.6-4.4 1.8-8 5-10.5 9.2-3 4.7-8.2 9-12.8 9.6-1.8.2-3.5.3-5.2.6l-2.8 1-.6.3c-2.5 1.3-4.7 3.7-7.2 4.8-5.5 2.7-10.1-2.2-15-2.8-2.5 0-5 .4-7.3 1-2.8.3-5.7-.1-8.3-1.2-2.2-.7-4-2.2-6.2-2.9-2.3-.7-4-1-6-1.7-1-.3-3-1-3.4-2v-.2a7.5 7.5 0 0 0-2.5-1.5l-.2-.8-.5-.4c.3-1-.7-5.1-.4-6.8l1.4-7.5a16 16 0 0 1-1.2-5.1c0-2.9.8-5.7 2.2-8.1.8-1.4 1.4-3 1.7-4.5v-.2l.1-1.3Z" fill="#004F2D"/>
  <path d="M631.9 377.1c1.9-1 3.7-2.1 5.5-3.4l7.3-7c-.2-1-.2-2.2 0-3.3l.3-3.8.5-7.2c.2-2.3.4-4.5.9-6.8.2-2 1.2-3.9 2.8-5.2h.2a.4.4 0 0 1 .2 0l.1.2c.3.8.3 1.7.2 2.5l.1 3.3v6.8a729 729 0 0 1 .2 8.5l1-1 .8-.9 14.8-15.6-.1-.8a68.2 68.2 0 0 1 0-21.4c.2-1.3.2-3.6 1.7-4.2h.1l.2.1c.5.2.5 1.3.6 1.7.3 1.3.5 2.6.6 4l.7 6.4.4 6.5.3 2.5.9-.9c3.3-3.7 6.2-7.6 9.3-11.4a153.4 153.4 0 0 1 10.3-11.1 68.1 68.1 0 0 1-.4-10.5c0-2.1.4-4.2 1-6.3.2-1.1.7-2.2 1.4-3.1a1.2 1.2 0 0 1 1.1-.4.6.6 0 0 1 .4.3c.1.3.2.6.1.9l.2 1.6v1.8a127.5 127.5 0 0 0 1 10.8l15.7-15.8-.3-.5c-.3-1.3-.4-2.5-.3-3.8l.2-.4v-4.4c0-1 .2-2 .4-3 .2-.5.3-1.6.9-1.9.6-.2.7.1.8.5v1c0 .7.1 1.4.3 2l.5 2.9.7 3.2.2 1a77.3 77.3 0 0 1 14.1-11.3c1-.6 2.2-1.1 3.3-1.5l3.5-1.5c.1 0 .7-.5.9-.2.1.3-.2.6-.4.7l-2.9 2.5-2.9 2.6-5.7 5.3c-1.9 1.8-3.8 3.5-5.4 5.3l-1 1c2.4.6 4.8 1 7.3 1l5 .4c.3 0 3.1 0 2.8 1-.2.9-.7.6-1.2.8a31.3 31.3 0 0 1-7.2 1.4c-3.4.3-6.8 0-10.1-.7l-6.8 7c-2.8 3-5.5 6.2-8.3 9.4 2.6.2 5 .2 7.5.2a265 265 0 0 0 11.2.2h2.6c.3.2 1 0 1.1.4.1.5-.6.7-1 1l-.8.5a46.1 46.1 0 0 1-11.5 2.7 93.4 93.4 0 0 1-12.1.3H696a563 563 0 0 1-20.8 23l4 .2a138.2 138.2 0 0 0 19.7-.3 45.6 45.6 0 0 1 8 0 .6.6 0 0 1 .4.5c0 .6-.8 1.3-1.2 1.6a31 31 0 0 1-6.4 1.9 124.2 124.2 0 0 1-29.4 1.3L657 362.4l-2.8 3.1a179.7 179.7 0 0 0 24.3 1.2c1.9 0 3.9 0 5.8.2.4.2 1.6.2 1.6.7v.3l-1 1a20 20 0 0 1-6.6 1.8 87.3 87.3 0 0 1-29 0h-.1a60.3 60.3 0 0 1-15 11.4c-3 1.8-5.5-3.3-2.3-5Z" fill="#6FB86F"/>
  <path d="m-15.7 396.9.3.7c2.8 4.7 6.5 10 12.2 11.2a4.7 4.7 0 0 0 4-.5c1.2-.9 2.2-2 3-3.2a9.3 9.3 0 0 0-.2-7.6 28.3 28.3 0 0 0-8.3-10.4c-1.2-1-2.5-2-3.9-2.6l1.2 1.1c-1-.8-2.1-1.3-3.3-1.7a5.6 5.6 0 0 0-4.9 1.6l-.3.4c-.8 1-1.4 2-1.6 3.3v1.5c.3 2.1.8 4.2 1.8 6.2Z" fill="#D8E47E"/>
  <path d="M-110.4 347.5c.5-.2 1-.4 1.5-.4h1.1c28.3.4 91.8 10.4 153.4 82.8.3 0 .6.2.8.4a35 35 0 0 1 9.6 19.5 1.5 1.5 0 0 1-2.5 1.3c-10.1-11.4-19.6-23.4-29.9-34.7l-.7-.4a141.6 141.6 0 0 0-8-8c-31.7-26.4-78.5-57.8-123-60.4h-.6l-1.2.2c-.2.2-.8 0-.5-.3Z" fill="#004F2D"/>
  <path d="M25.8 332.8v.6c1.4 4.3 2.5 9.3.1 13.6a4 4 0 0 1-2.6 2.2c-1.1.3-2.4.3-3.6 0-2-.2-3.7-2.6-4.5-4.2a23.2 23.2 0 0 1-1-14.8v1.3c.2-1 .5-2 1-3a4.6 4.6 0 0 1 3.7-2l.4-.1c1 0 2 .3 3 .9l.5.5.3.3c1.2 1.4 2 3 2.7 4.7Z" fill="#D8E47E"/>
  <path d="M25.8 332.8v.6a4 4 0 0 1-3 0 7.2 7.2 0 0 1-3.7-6.1v-.8c1 0 2 .3 3 .9l.6.8h.2c1.2 1.3 2.2 2.9 2.9 4.6Z" fill="#004F2D"/>
  <path d="m30.3 313.7.9 3.4c.6 2.7.6 5.5.2 8.3A6.5 6.5 0 0 1 27 331c-2.2.6-4.5-1.5-5.8-3.1a20.6 20.6 0 0 1-3.4-6.1c-1.7-4.6-1.5-9.6.3-14.1l-.3 1.3c.1-.4.4-.7.6-1 .1-.4.3-.7.6-1 .2-.2.6-.2.9-.5.2-.2.5-.7 1-.9l1.5-.1c.5-.2 1-.2 1.4-.1l1.2.5a9 9 0 0 1 2.4 2l.6.8a17 17 0 0 1 2.3 4.9Z" fill="#D8E47E"/>
  <path d="M30.3 313.7a2.4 2.4 0 0 1-2.6-.3l-.5-.5-.3-.2a8.8 8.8 0 0 1-1.9-3 12 12 0 0 1-.6-2l-.6-2.4 1.2.6a9 9 0 0 1 2.4 2l.3.4.3.2a17 17 0 0 1 2.3 5.2Z" fill="#004F2D"/>
  <path d="M37.7 297c.7 4 .6 9.5-2.5 12.5a4.9 4.9 0 0 1-6.3 1 14 14 0 0 1-4.7-5.7 17.3 17.3 0 0 1 .1-14l-.6 1c.1-.6.4-1.3.8-1.9l1.4-1.5c.3-.4.4-.7.9-1a9 9 0 0 1 1.7-.9h2.1l.7.3c.7.2 1.3.6 1.8 1 1 .8 1.7 1.8 2.2 2.9a28.4 28.4 0 0 1 2.4 6.3Z" fill="#D8E47E"/>
  <path d="M37.7 297c-.5.2-1.1.2-1.7.1a5 5 0 0 1-3.4-2 11.8 11.8 0 0 1-2-6.1c-.2-.8-.3-1.7-.2-2.5l.8.3c.6.2 1.3.5 1.8 1v.2c.2.2.3.4.3.7l.2 1.4.4.6a7 7 0 0 0 2.4 2.5c.6 1.2 1.1 2.5 1.4 3.8Z" fill="#004F2D"/>
  <path d="m46.4 270.2.5 2.1.5 3.2.2 2.3c.2 2.8 0 5.6-.7 8.3-.7 3-2.4 5.7-4.7 7.6a4.7 4.7 0 0 1-3.7 1.1 6.7 6.7 0 0 1-3.3-1.4 11.6 11.6 0 0 1-3.9-7.2 36 36 0 0 1 1.2-15.2c.3-1.1.8-2.2 1.3-3.2.5-1.6 1.5-3 2.9-4 1-.7 2.1-1 3.3-1l1.4.1.6.2c.4 0 .7.2 1 .5.6.3 1 .8 1.4 1.4a15 15 0 0 1 2 5.2Z" fill="#D8E47E"/>
  <path d="m48.4 247.6-1 .7-.4.5-.2.2c-15.6 17.5-44.9 61.8-35.1 139.7a1 1 0 0 0-.2.7 29 29 0 0 0 6.5 16.8 1.2 1.2 0 0 0 2.1-.8c-1.2-12.7-3.2-25-4.4-37.6l.2-.6a83 83 0 0 1-.3-9.4c1.6-34 8.5-80 31.8-108.6l.3-.3.8-.7c.1-.2.3-.7-.1-.6Z" fill="#004F2D"/>
  <path d="M44.7 269.4a5.6 5.6 0 0 0 2.2 3l.5 3.1a3.2 3.2 0 0 1-2.7-.3c-1-.6-1.8-1.6-2.3-2.8a12 12 0 0 1-.7-5c-.2-1.5-.2-3 .3-4.3.4 0 .7.2 1 .5.6.3 1 .8 1.4 1.4l-.3 2.2.6 2.2Z" fill="#004F2D"/>
  <path d="M48.2 247.9a10.4 10.4 0 0 0-2.8 4.1c-1.6 3-2.5 6.3-2.8 9.6 0 3 .4 5.8 1.4 8.5.8 2.2 2.3 5 5 4.7a11 11 0 0 0 8.5-4.7c1-1.3 1.6-2.8 2-4.3.3-1.6.4-3.3.3-4.9-.1-2.6-.9-5.3-2.2-7.6-1.1-1.5-2.5-2.9-4-4-1-1-2.4-1.5-3.7-1.7-.5 0-1.7 0-2 .4-.3.5 0 0 .3-.1Z" fill="#D8E47E"/>
  <path d="m33 279.6-.7 2.2a11.3 11.3 0 0 0 1.2 6.8 7.3 7.3 0 0 0 9 3.3 2.3 2.3 0 0 0 1.3-2.9 2.3 2.3 0 0 0-3-1.3H39.7l-.8.2h-.5l-.4-.1c-.4 0 .3.1 0 0l-.9-.3-.3-.2h-.2l-.8-.6a6.4 6.4 0 0 1-1.8-3l-.4-1.8a7 7 0 0 1-.2-2.2l-.3-.1Z" fill="#fff"/>
  <path d="M43.7 262.4a8 8 0 0 0 0 2.1c0 .7.2 1.3.4 2l.6 1.6c.2.6.6 1.2 1 1.6a6.1 6.1 0 0 0 6 2.3c1.2-.1 2.3-.6 3.2-1.3a2 2 0 0 0-1.7-3 9 9 0 0 0-2.2.6h-.8.2l-.9.1H49c.5 0 0 0 0 0h-.6l-.4-.2-.7-.4-.3-.2-.5-.5c-.5-.2-1-.6-1.3-1l-.6-1.6a13.8 13.8 0 0 1-.5-2.1.3.3 0 0 0-.4.2v-.2Z" fill="#fff"/>
  <path d="M24.8 300.5v2.1l.7 1.8c.5 1.2 1.1 2.3 1.9 3.3a5 5 0 0 0 4 2.3 3.9 3.9 0 0 0 3.6-3 1.6 1.6 0 0 0-.9-1.7 1.6 1.6 0 0 0-1.8.4c-.2.3-.4.5-.4.8 0 .6 0 .6 0 0l-.2.2-.3.2H30.7l-.2.1-.8-.3-.5-.4-.6-.5A8.4 8.4 0 0 1 26 302l-.7-1.6c0-.2-.3 0-.3 0l-.2.2Z" fill="#fff"/>
  <path d="m20.4 323.4.1.9v.6l.8 1.4a7 7 0 0 0 2.3 2.3 5 5 0 0 0 3.9.4c1.2-.4 3-2 2.3-3.4a1.4 1.4 0 0 0-1.5-.8c-.2 0-.4 0-.5.2-.3.2-.6.5-.7.9v.2c.2-.3 0 0 0 0l-.2.2h-2.1a5.3 5.3 0 0 1-2.6-2.2 3.7 3.7 0 0 1-.9-1.2.2.2 0 0 0-.3.2l-.6.3Z" fill="#fff"/>
  <path d="m17.6 344 .1 1 .5 1a4 4 0 0 0 2.3 1.5c.9.2 1.8 0 2.6-.2a3.6 3.6 0 0 0 2.3-2.3 1.5 1.5 0 0 0-2.3-1.4l-.4.4c-.3.6.1-.2 0 0l-.3.4s.3-.3 0 0l-.4.2h-1l-1.1.2H19l-.7-.3c-.2-.2-.5-.4-.6-.7-.2-.3-.4-.1-.4 0l.2.2Z" fill="#fff"/>
  <path d="m-5 88.4-1.5.1a6 6 0 0 1-.7.3h-.4c-27.7 8.9-87.2 37.5-126 125.6-.3.1-.5.4-.6.7a34.7 34.7 0 0 0-3.7 21.7c0 .3.2.6.4.8a1.5 1.5 0 0 0 1.8.3l.6-.6c6.6-14 12.3-28.4 19-42.4l.7-.5a103.6 103.6 0 0 1 5.4-10.2c23.3-34.9 59.8-79 103-94.9h.4l1.2-.1c.5 0 .9-.6.4-.8Z" fill="#004F2D"/>
  <path d="m176.9 626.6 1.2-.7 2.3-1.3c.6-.6.7-1.3 1-1.9l1-1c1-.6 1.8-1.3 2.6-2.1l1.7-2.2c.6-1 .9-1.9 1-2.9 0-.6.3-1.2.6-1.7l1.5-2.2a7 7 0 0 0 .7-4.3c-.3-2.6 2-5 2-7.6.1-2-1.3-3.3-1.2-5.4.4-1.8.4-3.7 0-5.4-.6-1.5-.8-3-.8-4.6a10 10 0 0 0-2.5-4.5c-.4-.6-.7-1.2-.9-1.9-.2-1.2-.6-2.5-1-3.7l-1.2-2c-.3-.6-.5-1-1-1.2-1-.3-2.3.7-3.2 1.2l-1 .8-1.4.8c-.5.2-1 .6-1.4 1-.2 0-.4.5-.6.7l-.8.7-1.4.9c-.7.3-1.3.9-1.8 1.5-.7.7-1.6 1-2.4 1.6-1 .7-1.8 1.5-2.4 2.4l-.3 1.1-1 1c-.6.8-1.3 1.3-2 2-.6.8-1 1.6-1.3 2.5 0 .6-.1 1.1-.3 1.7l-.5.8-.3.6-.2.3-1.6 1.7c-.4.5-.8 1.2-1 1.8-.1.6-.2 1.3-.1 2a29 29 0 0 0-1 2.5 9.7 9.7 0 0 0-1.8 4.4c0 .6 0 1.2.2 1.8.2 1.6-.1 3.2-1 4.6a6.8 6.8 0 0 0-.5 5.3l.7 1.6v1.2c.2 1-.2 2-.1 3 .2 2 2.4 2.4 3.4 3.7.4.7.8 1.5 1 2.3.4.8 1 1.6 1.8 2.2.6.4 1.3.7 1.9 1.3.6.5 1 1 1.5 1.3.6.5.8.8 1.2.7.4.2.8.3.8.5h.5c.2-.3 1.6-.8 2-1.1l2-1.6c.6-.1 1.2-.3 1.7-.6.9-.5 1.6-1.2 2-2 .3-.5.6-.9 1-1.2l.7-.4Z" fill="#004F2D"/>
  <path d="M119.7 414.1a41 41 0 0 1-2.6-13c-.5-8.3 1.4-17.4-.8-25.3-1.2-4.8-3-9.3-4.2-14.2-.7-3.2-1.6-7.5-4.6-9.2-6-3.5-15.4.7-21.4 3-2.7 1-5 2.3-7.5 3.5a45 45 0 0 1-10.6 2.6 32 32 0 0 0-10.2 5c-1.6.9-3 2-4.5 3a49.3 49.3 0 0 1-6.7 3.1 44.6 44.6 0 0 1-9.8 3.6c-5 1.4-9.7 3.8-13.8 7-5.4 3.4-12 3.6-17.8 6.8-6.5 3.8-14 5.9-19 11.7-1.8 1.9-2.3 4.2-3.9 6.1-2 2.2-4.5 4-7.1 5.5-5.2 3.4-10.8 6-15.8 9.5a39.9 39.9 0 0 0-12.8 13.9c-1.6 3.3-2.4 6.7-4.3 10.2l-4.3 4.5-2.7 3-1.9 1.4c-4 3.1-8.3 6.2-12.5 9-4 2.3-7 5.7-9.2 9.7a37 37 0 0 0-4 11.8c-2 2.6-3.8 5.2-5.5 7.8l-4.6 7c-2 1.5-3.7 3-5.4 4.7-2.8 3-5.4 6.3-7.6 9.8l-1.2 2.1L-98 727.2c1 .8 1.8 1.5 1.8 2l1.7-.2 1.3.7c1.7-1.2 11.3-2 14.7-3.6l1.2-.6c4.5-2.3 9-4.7 13.7-6.8 4 .3 7.8 0 11.6-.9 6-2 11.4-5.3 15.7-9.9 2.5-2.5 5.3-4.6 8.5-6.3l.4-.2 2.7-1.1c2.8-1.2 5.7-2 8.6-2.6 5.8-1 11.3-2.7 16.7-5 5-2.5 6.3-7 8.9-10.3l7.9-5.2c7-2 13.7-5.2 19.7-9.3 5-3.6 10.1-7.3 14.6-11.2A50.3 50.3 0 0 0 62.5 640c1.2-3.8 3.2-7.2 6-10.1 4.4-3.7 8.7-7.6 12.8-11.7a45.8 45.8 0 0 0 11.1-26.5c2-16.5 20.3-28.8 25.2-45 3.7-12.9-3.7-23.2.5-36.3 3.7-11.5 10-22.9 8-34.1-1.6-10.2.3-19.2 2.2-30 1.9-10.9-4.7-22.1-8.6-32.3Z" fill="#004F2D"/>
  <path d="m202.3 784.6-11.5-51.4c-1.7-7.7-4-15.2-6.8-22.6C72 420.6-38.6 338.6-61 324.5l-.3-.2a6 6 0 0 0-.8-.3v.2l1.6 2c158.7 153 223.5 413 223.5 413a208 208 0 0 1 8.5 47.8l30.7-2.4Z" fill="#004F2D"/>
  <path d="m-5.6 376.6-1.8-1.7a10.8 10.8 0 0 0-4-2.3h-.5l1.6 2.4 1.7 2a35.9 35.9 0 0 1 4 5.5l2 3 .3.3v.2l.3.3v.2c0 .2.2.2.3.3v.6c30.7 37 109.2 144.2 184.7 346l3.5-1.3C104.4 511.5 18 403.5-5.5 376.6Z" fill="#6FB86F"/>
  <path d="m343 599.5.5-.3-.2-.2-.5-.4c-32.3-1.9-256.6 12.7-464.3 188.8l4.7 53.8L-2.3 831S116.2 631.7 343 599.5Z" fill="#004F2D"/>
  <path d="M110.2 902.6c2.6 1.2 5 2.7 7.4 4.5 4.4 3.4 9.1 6.3 14.1 8.7 5 2 9.1 0 13.5-.3 3 .8 5.8 1.7 8.8 2.4 6 3.7 12.5 6.5 19.3 8.2 5.8 1 11.8 2.4 17.6 3.2 6.5.3 13-.7 19-2.9 3.6-1.4 7.4-2.2 11.3-2.1 5.7.6 11 1.7 16.7 1.7 9.6-.1 19-3.3 26.7-9 13.5-9 34.3-3.8 49.2-10.7 11.9-5.5 14.8-17.2 27.3-22.7 10.9-4.7 23.3-7.4 30.5-16 6.4-7.6 14.3-12 23.5-17.5s13.4-17.6 18.5-26.9c2.1-3.7 4.8-7.1 8-10 5.8-5.7 13.7-10.1 18.3-16.7 2.7-4 5-8.2 7.9-12 1.9-2.6 4.4-6 3.9-9.3-1.2-6.5-10.3-10.5-15.7-13.3-2.4-1.2-4.9-2-7.4-3-3-1.6-6-3.6-8.5-5.9-3.1-2-6.6-3.3-10.2-4.1-1.7-.6-3.3-.8-5.1-1.3-2.2-.8-4.4-1.6-6.5-2.7a43.2 43.2 0 0 1-8.9-4.7c-4.2-2.6-9-4.5-13.8-5.4-6-1.6-10.4-6.2-16.3-8.1-6.8-2.3-13.2-6.2-20.7-6.2-2.5 0-4.6 1.1-7 1.2-2.9 0-5.8-.6-8.5-1.5-5.9-1.6-11.3-4-17-5.2-6-1.6-12.4-1.7-18.5-.3-3.4 1-6.4 2.6-10.2 3.4l-6-.2h-4l-2.2-.4c-4.9-.9-10-2-14.6-3.2a24.2 24.2 0 0 0-13-.3c-4 1-7.9 2.5-11.3 4.6-5.9.5-11.7 1.2-17.4 2.3-2.3-.5-4.5-.8-6.8-.9-4.1 0-8.2.4-12.2 1.1-3.9.7-7.5 1.9-11.3 2.9a27.4 27.4 0 0 0-10.1 6 47.2 47.2 0 0 1-28.4 8.4c-12 0-25.6 4.7-32 12.4-2.3 3-4.4 5.9-7 8.5l-4.9 3.9-1.1.8c-5.4 2.9-11.9 4.2-17 7.5-11 6.8-7.4 20.3-11.8 29.8-2 4.5-6.8 7.8-10 11.7a34.7 34.7 0 0 0-7.2 16c-1 4.8-.6 9.7-2 14.4-1 4.2-2.7 8.1-3.5 12.4-.4 2-1.8 6.5-.4 8.2l.5.4c.4 2 .3 4-.1 6 .3.5.8.8 1.2 1.2.3.4 0 1 .2 1.4 2 .4 8.6 6.7 12 8 5 2 10 3.8 14.9 6 2.2 3 4.9 5.6 8 7.7 5.1 3 11 4.7 17.1 4.9 3.4.2 6.8.9 10 2l.4.2c1.1 0 2 .4 2.8.8Z" fill="#004F2D"/>
  <path d="M52.6-185.3v-.3l.1-.5v-.4l-.2-.1h-1C-96.8-96.5-150.2 132-150.2 132l15 168.7C-128.5 6 21.6-155 52.5-185l.1-.3Z" fill="#004F2D"/>
  <path d="M852.6 786.3c.1-1.3.3-2.5.6-3.8.7-2.4 1-4.8 1.1-7.3-.3-2-1.1-3.9-2.4-5.4l-.5-4a30 30 0 0 0 0-9.4c-.5-2.4-1-5.2-1.7-7.7a22 22 0 0 0-4.5-7.2 12.2 12.2 0 0 1-2.9-4.2c-.8-2.4-1.2-4.9-2.2-7.1a19.9 19.9 0 0 0-8.3-9.3c-6.2-3.8-7.6-13.2-13.1-18-4.4-3.9-9.8-3-14.2-7-3.8-3.6-7.1-8.1-11.9-9.5-4.1-1.5-8-3.6-11.4-6.4-4-3-9.6-2.3-14.4-2.7-1.9-.2-3.8-.7-5.5-1.5-3.4-1.3-6.6-3.7-10.1-4.4l-6.4-1a6 6 0 0 0-4.5 0c-2.5 1.7-2.5 6-2.8 8.8v3.5c0 1.6-.4 3-.9 4.6a13 13 0 0 0 0 4.8l.4 2.3v3.2c0 1.5-.1 3-.4 4.4a17 17 0 0 0 .1 6.6c.4 2.7-.7 5.3-.5 8.1a28 28 0 0 0 1 9.6c.5 1 1.3 1.6 1.7 2.6.5 1.2.8 2.4.9 3.7.3 2.7.3 5.3.8 7.9.4 2.7 1.5 5.3 3 7.5 1.1 1.2 2.3 2.2 3.3 3.6l1 2.4.6 1.6.3 1c.5 2 .9 4.3 1.2 6.5.2 1.9 1 3.7 2.1 5.3 1.1 1.4 2.4 2.7 4 3.7 1.2 2.4 2.5 4.6 3.9 6.7.2 1 .4 2 .8 3 .7 1.6 1.5 3.2 2.5 4.7l3.2 4c1.2 1.3 2.6 2.4 4.2 3 3.9 2.4 6.8 6 8.5 10.1 2 4.8 6.4 9.6 10.7 10.8 1.6.4 3.2.7 4.8 1.3.7.5 1.6.9 2.4 1.3l.5.3c2.2 1.7 3.9 4 6.1 5.6 4.8 3.2 9.7-.7 14.5-.6 2.2.4 4.5 1.1 6.6 2 2.6.7 5.3.7 7.9 0 2.1-.4 4-1.4 6.3-1.8 2.1-.3 3.8-.3 5.7-.7 1-.1 3-.4 3.5-1.3v-.3c.7-.5 1.6-.9 2.5-1l.3-.7.5-.4c-.1-.9 1.3-4.7 1.3-6.3l-.2-7.1a15 15 0 0 0 1.8-4.6c.4-2.7 0-5.4-1-7.9a15.9 15.9 0 0 1-1-4.6c.2-.5.2-.9.2-1.3Z" fill="#004F2D"/>
  <path d="M850.5 816a43.7 43.7 0 0 1-4.6-4l-6-7.4c.3-1 .5-2 .5-3.1l.3-3.7.4-6.8c.2-2.1.3-4.3.2-6.4 0-2-.6-3.8-2-5.3a.3.3 0 0 0-.2 0 .3.3 0 0 0-.2 0c-.4.8-.6 1.6-.6 2.4l-.5 3-1 6.4-1.1 6.8-.2 1.1-.8-1a24 24 0 0 0-.7-1c-3.9-5.5-7.8-11-11.6-16.7l.2-.7a58.7 58.7 0 0 0 2.8-20c0-1.2.4-3.4-.9-4l-.2-.1h-.1c-.5.1-.7 1.3-.8 1.6-.5 1.1-.9 2.3-1.2 3.6l-1.5 6-1.4 6-.6 2.2-.7-1c-2.5-3.8-4.8-7.9-7.2-11.9-2.4-4-5-7.6-7.6-11.3l-.4-.5.8-3.2c.4-2.1.8-4.3 1-6.5.3-2 .3-4 0-6 0-1.1-.4-2.2-.9-3.2a1.2 1.2 0 0 0-1-.5c-.2 0-.3.1-.4.3-.2.2-.2.5-.3.8 0 .5-.3 1-.4 1.5l-.2 1.6a192 192 0 0 1-2.5 10c-4-5.7-8.2-11.3-12.4-17 .1 0 .3-.2.3-.4.5-1.1.8-2.3.8-3.5v-.4l.4-2.6.2-1.5v-2.9c0-.5 0-1.6-.5-1.8-.5-.3-.7 0-.8.3l-.2 1a8 8 0 0 1-.6 1.8l-.9 2.6-1 3-.4 1a71.4 71.4 0 0 0-11.4-12.6l-2.8-2-3-1.8c-.2 0-.7-.6-.8-.3-.2.2 0 .6.2.7l2.3 2.8 2.4 2.8 4.6 5.8c1.5 1.8 3 3.7 4.3 5.7l.7.8c-2.3.3-4.6.3-6.9 0l-4.6-.4c-.4 0-3-.4-2.9.4 0 .8.6.7 1 1l2 .9a32.7 32.7 0 0 0 14.2 2.1l5.3 7.6a379 379 0 0 1 6.3 10 211 211 0 0 1-7-.8l-7.4-1a11.2 11.2 0 0 0-3-.3c-.9 0-1.7-.2-2.4-.3-.4 0-1-.2-1.2.1-.1.4.6.7.8 1l.7.6 3.4 1.6a45.8 45.8 0 0 0 14.6 4c1.2.3 2.5.4 3.7.5l1.4.2c5.3 8.3 10.6 16.5 16.2 24.4l-3.7-.3a150 150 0 0 1-18.4-3 43.4 43.4 0 0 0-7.5-1.1.5.5 0 0 0-.4.4c0 .5.6 1.3 1 1.6.7.6 1.5 1.1 2.4 1.4l3.3 1.3a108.5 108.5 0 0 0 19.2 4.5c2.6.7 5.4 1 8 .8l10.5 15.1 2.3 3.3a163.1 163.1 0 0 1-23-2.2c-1.7-.3-3.6-.5-5.4-.6-.4 0-1.5-.1-1.6.4a.4.4 0 0 0 0 .2c.2.5.5.8.8 1a20 20 0 0 0 5.9 2.7 79.7 79.7 0 0 0 27 4h.2a57 57 0 0 0 12.4 12.8c2.8 2 5.8-2.2 3-4.4Z" fill="#6FB86F"/>
  <path d="M740.1 852.4a43 43 0 0 1-3.6-5.4l-4-9.2c.6-1 1-2 1.4-3l1.3-3.7 2.3-6.8c.8-2.1 1.5-4.3 2-6.6.5-2 .4-4-.6-5.9h-.4a7 7 0 0 0-1.3 2.3l-1.4 3-2.8 6.2-3 6.6-.5 1-.5-1-.4-1.3-7.3-20.3.5-.7a64.6 64.6 0 0 0 8.4-19.6c.3-1.2 1.3-3.4.1-4.5a.4.4 0 0 0-.3-.1c-.5 0-1 1-1.2 1.3-.8 1-1.5 2.2-2.1 3.3-1.1 1.9-2 3.8-3.2 5.7-1 2-2 3.9-3.1 5.7l-1.3 2.2c0-.4-.3-.7-.4-1.1-1.5-4.7-2.7-9.5-4-14.2-1.4-4.8-3-9.2-4.7-13.7l-.3-.6a55.4 55.4 0 0 0 6.3-15.6c.2-1.2.2-2.3 0-3.5a1.2 1.2 0 0 0-1-.8.6.6 0 0 0-.4 0l-.5.8a16 16 0 0 0-1.5 3c-.9 2-1.9 3.8-3 5.5l-2.3 4-8-20.7.5-.4c.7-1 1.3-2.2 1.7-3.3l.1-.5 1.2-2.5.6-1.5c.4-1 .7-2 .8-3 .1-.5.4-1.6 0-2-.5-.5-.7-.2-1 .1l-.4 1-1 1.7c-.7.7-1.2 1.5-1.7 2.4l-1.9 2.8-.6.8a78.3 78.3 0 0 0-8.2-16l-2.4-2.8c-.9-.9-1.8-1.7-2.6-2.7 0-.1-.5-.7-.8-.5-.2.2 0 .6.1.8l1.7 3.5 1.6 3.5 3 7.2 3 7 .4 1.3c-2.5-.4-5-1-7.3-2l-4.7-1.6c-.4-.1-2.9-1.3-3-.4-.2.9.4 1 .7 1.3l1.8 1.5a37.6 37.6 0 0 0 13.8 6.1l3.3 9 3.8 12a194 194 0 0 1-7-2.8l-7.3-3-1.6-.8c-.4 0-1-.2-1.4-.4l-2.3-1c-.4-.1-1-.5-1.3 0-.2.5.4.9.6 1.2l.6.8a48 48 0 0 0 16.6 10.7l3.7 1.6 1.4.6c3.1 9.9 6.3 19.7 9.8 29.4l-3.7-1.3a134 134 0 0 1-18-8.2 43.5 43.5 0 0 0-7.3-3.3l-.3.1-.2.2c-.3.6.2 1.5.4 2 .6.9 1.3 1.6 2.2 2.2l3 2.2a108.7 108.7 0 0 0 18.4 10 32 32 0 0 0 8 3c2 6.1 4.3 12.3 6.4 18.4l1.4 4a165.8 165.8 0 0 1-22.8-8.7c-1.7-.8-3.5-1.5-5.3-2.1-.4-.2-1.5-.5-1.8 0v.2c.1.5.3 1 .6 1.3 1.5 1.7 3.3 3.2 5.2 4.4a86 86 0 0 0 26.6 11.6h.3c2.2 6 5.2 11.5 9.1 16.5 2.3 2.6 6.6-1.1 4.3-4Z" fill="#6FB86F"/>
  <path d="M710.4 796.8s87.7-6.7 56.7-108c-4.3-14-11.8-23.4-24.8-38l-12 120.7-20 25.3Z" fill="#6FB86F"/>
  <path d="m644.1 737 7.8-8.2c-2.4 11.8-4.9 23.5-7.2 35.4-3.6 18.6-3.6 19 11.7 22.1 7.6 1.3 15.3 2.2 21.8 3l-22.4-63.9 4.8-4.8 24 65.6c.4.6 1.3 1.8 1.8 1.7 16-1 31-8.4 41.7-20.5l.2-1.5-58.1-54 2.6-2.8 59.4 53c6.4-12 9.8-25.2 10.1-38.6a3 3 0 0 0-1.3-2.3c-18-8.6-36-17-54.1-25.4l3.3-2.8 52.3 22.8-4.1-32.1a3 3 0 0 0-2.2-1.7c-12.5 1.2-25 2.8-37.5 3.8l8.2-7 29.8-3-4.8-17.6 9.4-7.5 1 .1a141.5 141.5 0 0 1 17 62.5c.1 11.3-1.3 22.6-2 33.8l-1 3.5-1.6 6.2-.5 2.9a71.5 71.5 0 0 1-4.1 8c-16.8 23.7-40.7 33.5-69.2 33.2-9.5-.1-19-2-28.4-3l-3.8-1-2.3-1-6.4-1.7-2-.3-3.5-.6c-2.3-.8-4.7-1.8-7-3l-21.3-14 .2-.8 5.7-6.5 23.5 12.7 8.5-44.6Z" fill="#D8E47E"/>
  <path d="m670.1 711.9 58.2 54s.2 1.2-.2 1.5a60.8 60.8 0 0 1-41.6 20.7c-.5-.1-1.4-1.1-1.7-1.8l-24-65.5 9.3-9Z" fill="#fff"/>
  <path d="m686.9 695.8 54.1 25.4a3 3 0 0 1 1.3 2.3 85.3 85.3 0 0 1-10.1 38.5l-59.4-52.9 14-13.3Z" fill="#fff"/>
  <path d="m655.8 725.4 22.4 64c-6.8-1.2-14.3-1.5-21.8-3-15.3-3.3-15.3-3.6-11.7-22.2 2-11.9 4.8-23.6 7.2-35.3l4-3.5Z" fill="#fff"/>
  <path d="M742.2 715.7 690 692.9l7.8-7.1h.5c12.5-1.2 25-2.7 37.4-3.7a3 3 0 0 1 2.3 1.7l4 32 .2-.1Z" fill="#fff"/>
  <path d="m644.1 737-8.6 44.4-23.5-12.7 24-24c2.6-2.6 5.4-5 8.1-7.6Z" fill="#fff"/>
  <path d="m731.9 658 4.8 17.7-29.8 3 17.7-15.2 7.3-5.4Z" fill="#fff"/>
  <path d="M747.4 762.3a5.9 5.9 0 1 0-11.2 3.1 5.9 5.9 0 1 0 11.2-3.1Z" fill="#fff"/>
  <path d="M752.7 750.1a3.7 3.7 0 0 0-4.6-2.5 3.8 3.8 0 0 0-2.4 4.4 3.8 3.8 0 0 0 7.3-1.8h-.3Z" fill="#fff"/>
  <path d="M754.4 723a3.7 3.7 0 1 0-7 2 3.7 3.7 0 1 0 7-2Z" fill="#fff"/>
  <path d="M146.9 704.7c2.1 10.5-3.8 21.4-9 30.1A174.5 174.5 0 0 1 94.5 784a108.4 108.4 0 0 1-45.3 20.7c-4.2.6-8.4 1-12.6 1-17 0-33.8-9-38.3-25.6a47.3 47.3 0 0 1-4.2-23.3v-.7c0-9 1.8-18 5-26.6a84.3 84.3 0 0 1 16.2-24.7c7.2-7 15.3-13 24-18a100.5 100.5 0 0 1 47-14.1 98 98 0 0 1 27.8 4.8l6.7 2.1a48 48 0 0 1 12.8 6.4l1 .7 1-.5 1-.6 2-1.4a11.1 11.1 0 0 1 10-.6 6.5 6.5 0 0 1 5.3 6c0 1-.1 2-.5 3 0 .8-.2 1.5-.5 2.1a31.8 31.8 0 0 1-6.5 9v.3l.4.8Z" fill="#D8E47E"/>
  <path d="M134.9 686.6c-2 2-4.3 3.4-6.6 5.3-1.3 1.3-3.3 1.8-4.9 3.2a28 28 0 0 0-4 7.3l-1.1 1.8a74 74 0 0 1-16.6 17c-3.2 2.5-5.6 5.9-7 9.7l-2.3 5.2c-1.7 3.1-3.8 6-6.4 8.3a41.1 41.1 0 0 1-3.8 3.9c-3 2.7-6 5.2-8.7 8a34.5 34.5 0 0 0-9.3 15l-2 5.3c-1.3 3.1-3.2 6-5.6 8.4l-.6.8a26.6 26.6 0 0 0-6 14.7c-.1 2-.1 3-1 3.4a6 6 0 0 1-2.4.8c-3.3.7-6.6 1-10 .8-16.8 0-33.2-7.2-38.8-25.9a37.4 37.4 0 0 1-2.7-10.8c.5-4 1.3-8 2.4-11.8 1-6.3 4.6-9.8 7.5-15 2.4-5.2 5.5-10 9.2-14.3 2-1.6 3.9-3.5 5.4-5.7 1.6-2.6 2-5.6 3.4-8.4 3.6-6.7 11.6-11 17.5-15.2 3.6-2.6 7.5-4.9 11.6-6.7 3-1.5 6.6-1.9 9.6-3.4a70.8 70.8 0 0 1 20.9-7.2c5-.7 9.9-.2 15-.8 5.4-1 10.8-1 16.2 0 2.4.6 4.7 1.5 7.2 2.1 2.5.7 5.3 0 7.8.7 2.3.6 4.4 1.8 6 3.5Z" fill="#6FB86F"/>
  <path d="M72.7 698c-9.4-3.8-15 20.3-1.7 22 8.8 1 13.8-10.2 11-17a8.2 8.2 0 0 0-9.3-5Z" fill="#004F2D"/>
  <path d="M22.6 778.8s-.3 0-.7.3a11.6 11.6 0 0 0-2.7 19.9c2.2 1.8 3 .8 5.6.3 1.8.2 3.7.2 5.6 0 5-1.6 3.2-8.7 1.5-12.5-1.7-3.7-5.7-9-9.3-8Z" fill="#004F2D"/>
  <path d="M20.6 769.3c1 3.8 5.5 6.2 9 7.6 10 4 14.9-14.8 7.8-19.6-4.4-3-8.7-1.6-13.2 0-2.4 1-4.6 7.7-3.6 12Z" fill="#004F2D"/>
  <path d="M45.4 778.3c-5.3 1.2-13.6 12.5-6 15.3 6.7 2.5 11.8-4.1 10.9-10.1 0-1.7-.5-3.3-1.2-4.7a2.2 2.2 0 0 0-3.7-.5Z" fill="#004F2D"/>
  <path d="M50.2 723.9c-4.6-3.9-9.3 1.7-9.8 7a14.5 14.5 0 0 0 4.5 12c4 3.5 9.2 6 13.9 1.4a13.2 13.2 0 0 0 1.8-14.3c-2.7-5.9-5.5-7.2-10.4-6.1Z" fill="#004F2D"/>
  <path d="M58.2 750.3c-8.2-.8-9.4 14.2-1.5 16 6.3 1.5 16-8.6 13.1-13.7-2.9-5-8.7-1.5-11.6-2.3Z" fill="#004F2D"/>
  <path d="M73.6 721.8c-6.2-1.8-8.3 8.8-4.6 12.3 4.7 4.6 12.8-1.5 11.4-7.3-1-3.9-5.8-5-6.8-5Z" fill="#004F2D"/>
  <path d="M87.8 705.3c-7.4 5.2 1 17.4 8.8 16 7.7-1.6 3.8-15 0-18.5-4-3.7-7 .2-8.8 2.5Z" fill="#004F2D"/>
  <path d="M118.3 704.2a51 51 0 0 1-10.7 12c-2.7-4.4.7-13.5 6.3-13.5 1.6 0 3.1.5 4.4 1.5Z" fill="#004F2D"/>
  <path d="m94.7 731-2.3 5.1c-1.6 3.1-3.8 6-6.4 8.3a6.4 6.4 0 0 1-2.8-5.6 9.3 9.3 0 0 1 11.5-7.9Z" fill="#004F2D"/>
  <path d="M82.2 748.3c-3 2.7-6 5.2-8.7 8l-.2-.8a7 7 0 0 1 9-7.2Z" fill="#004F2D"/>
  <path d="m64.2 771.4-2 5.2c-1.3 3.2-3.2 6-5.6 8.4l-.7.8a4.6 4.6 0 0 1-2.2-3.8c0-.8.5-1.6.4-2.4 0-.7-1-1.7-1-2-.4-7.3 6-7.4 11.1-6.2Z" fill="#004F2D"/>
  <path d="m49.2 753.7.1-1.3V751c0-.3-.2-.7-.4-1v-.2a7 7 0 0 0-.6-1.3l-.4-.5-.4-.6-.5-.4-.5-.4c-.4-.3-1-.5-1.4-.6h-2.8a6 6 0 0 0-2.4 1.5l-.8 1-.6 1.3V751.7l.2 1.4v.2l.6 1.3v.2l.8 1.1.2.2 1 .8 1.3.5h1.8l1.3-.2 1.2-.5 1-.8.7-1 .3-.7.2-.7v.2Z" fill="#004F2D"/>
  <path d="M62.4 717.9a4.4 4.4 0 0 0-4.6 3.4c-.2 1.6 1.3 3.3 2.2 4.5 1 1.1 2.5 2.6 4.3 1a6.8 6.8 0 0 0 1.9-4.9 6.3 6.3 0 0 0-3.8-4Z" fill="#004F2D"/>
  <path d="M134.1 728c-1.8 3-3.9 5.9-6.1 8.7a170.6 170.6 0 0 1-24.4 25.8 138.1 138.1 0 0 1-29.8 19.7c-1.8.9-3.6 1.8-5.4 2.5-2.1.6-4 1.6-5.7 3a3 3 0 0 0 1.4 5c3.5.2 7-.8 9.9-2.7a151 151 0 0 0 24.9-15.6c10.1-8.1 19-17.9 26-28.9 1.8-2.8 3.3-5.6 5.2-8.5 1.8-2.8 2.7-6 4.1-9Z" fill="#fff"/>
  <path d="M293.8 632.2a28 28 0 0 1 10.4-10.1c3.4-3.5 7-6.8 10.9-9.8a89 89 0 0 1 26.6-11c14-4.4 28.7-6 43.3-5-4 12.5-4.6 26.2-13.3 37-8.7 10.8-19.2 23-29.3 33.2-4.6 4.6-16.5 18.5-23.3 15.5-10-4.4-17.3-21-22.1-29.7-1.8-3.3-2.2-22-3.2-20.1Z" fill="#004F2D"/>
  <path d="M336 644c5.6.8 11.2 1.2 16.8 1.8 5.5.6 11.6.2 16.9 1.1 5.3 1 18.3 4.3 21 9.7a26.8 26.8 0 0 0-5.2 7.5 76.1 76.1 0 0 1-42.8 35.6 96.9 96.9 0 0 1-19 5.8c-4.2 0-8.4.3-12.5.9-3.5.8-11.8 2.7-14.3-.9" fill="#004F2D"/>
  <path d="m338 756.3.7-2.6c2-6.4 3.2-13 3.7-19.7.2-3.2.1-6.3 0-9.4 0-3.2-.3-5.9-.5-8.9.4-8.7-.5-17.4-2.8-25.8-3.5-8.5-7.8-16.7-13-24.4-7-10.7-12.3-22.4-15.8-34.8-3.5-15-14.8-22.3-27.6-28-2.4-.8-5-.8-7.3 0-5.8 2-11.4 4.3-17 6.8-2.5 1.2-5 2.1-7.5 3a4 4 0 0 0-1.3-.2c-10.2.5-20.4 1.8-30.5 3.8-9.8 1.6-19.4 4.3-28.6 8-9 4.2-17 10-23.8 17.2a97.3 97.3 0 0 0-19.8 23.6c-1.6 3-2.8 6.2-3.7 9.5-5.2 10.2-8.7 21-10.6 32.3-4.4 15-5.7 30.8-3.9 46.4a89.4 89.4 0 0 0 6.3 35.5c4.2 8.9 10.5 16.6 18.5 22.3a117 117 0 0 0 55.4 37l5.5 1.4a67.7 67.7 0 0 0 26-.2l6.8-.7 5.6-1.7 5.2-1.7c2.9-.9 5.9-1 8.6-2.2a142.2 142.2 0 0 0 27-17.9 88.9 88.9 0 0 0 22.6-20.4 60 60 0 0 0 7.7-14.3 90 90 0 0 0 14.2-34Z" fill="#D8E47E"/>
  <path d="M220.8 694.7c5 3.2 9.1 3.7 12.6 1 8.3-6 16.7-12.8 24.4-19.7a8.7 8.7 0 0 0 1.8-7.6 8.7 8.7 0 0 0-7-4.6 44.4 44.4 0 0 0-29.8 9 22.2 22.2 0 0 0-4 20.1c.5.8 1.2 1.4 2 1.8Z" fill="#fff"/>
  <path d="M189.4 692.7c-10.6-5-16.6-5.4-22 .8a24.1 24.1 0 0 0-4.5 12.2 5.6 5.6 0 0 0 6.6 6c6.1-.6 12.1-2 18-3.8a10.4 10.4 0 0 0 5.6-7.1c.6-2.4-2.2-5.4-3.7-8.1Z" fill="#fff"/>
  <path d="M166 748a12.5 12.5 0 1 0-23-9.7 12.5 12.5 0 0 0 23 9.7Z" fill="#fff"/>
  <path d="M234.3 629.4a11.7 11.7 0 0 0 4.2 16.5 12 12 0 0 0 17-4 12.4 12.4 0 0 0-8.7-18.7 12.2 12.2 0 0 0-12.5 6.2Z" fill="#fff"/>
  <path d="M289.3 696.7a11 11 0 0 0 15.4-2.6 14 14 0 0 0-3-17.5c-5.5-3.5-11-1-16 7.4a9.2 9.2 0 0 0 3.6 12.7Z" fill="#fff"/>
  <path d="M275.1 813.8a11 11 0 0 0 15.4-2.5 14 14 0 0 0-3-17.6c-5.6-3.5-11-1-16 7.3a9.3 9.3 0 0 0 3.6 12.8Z" fill="#fff"/>
  <path d="M192 656.4a10.5 10.5 0 0 0 14.6-3.4 11 11 0 0 0-3.7-14.3 10.6 10.6 0 0 0-16 7.4 10.2 10.2 0 0 0 5 10.3Z" fill="#fff"/>
  <path d="M163.4 678.2A7.9 7.9 0 1 0 172 665a7.9 7.9 0 0 0-8.6 13.2Z" fill="#fff"/>
  <path d="M318 760.6a34.4 34.4 0 0 0-10.3-10.9 35.6 35.6 0 0 0-31.3-3.5 27.6 27.6 0 0 0-9.2 6.2 38 38 0 0 0-8.6 12 2.7 2.7 0 0 0 3.2 3 20 20 0 0 0 8 9c3.7 3 8.2 5 13 5.7 8.5 1.4 17.2.4 25.2-2.8 3.3-1.5 8.7-3 11-6 1-.6 1.6-1.3 2-2.2 2-3.8-1.5-7.2-3-10.5Z" fill="#fff"/>
  <path d="M277 775.5c-11.2-8-5.2-31.4 10.4-26.6 9.3 3.4 10.4 16.2 5.2 23.4a11.3 11.3 0 0 1-15.6 3.2Z" fill="#004F2D"/>
  <path d="M1045-98.1v-1.7l-.2-.2h-1.9c-42 55-174.7 254-153.3 548.2C914.9 797 777.2 871.5 777.2 871.5L665 965.4l143.5-.4 185.2.4s-181-658 51.3-1063.5Z" fill="#004F2D"/>
  <path d="M980.7 17.2c-.7.3-1.2.7-1.7 1.2-.6.5-1 1.1-1.5 1.7-.6.5 0 0-.3 0-2.3 1.7-4 8-5.4 10.6-12.1 24.5-21.6 50-31.9 75.2a49.7 49.7 0 0 0-3.4 8.6c-.2 3.7-.9 7.3-2 10.8a868.9 868.9 0 0 0-12.4 43c-1.5 5.8-3.2 11.6-4.9 17.3-1.6 5.8-.6 11.5-2.2 16.9a144 144 0 0 0-3.7 15.5 853 853 0 0 0-9.1 62.4c-.4 3.2-3.7 26.8 0 25.7 3.6-1.2 1.6-9.8 1.6-12.3a57 57 0 0 1 3-17c4-11.7 7.3-23.6 9.8-35.6 1.5-10.6 3.7-21.2 6.5-31.6 3.5-11.3 5.3-22.8 8-34 2.8-11.4 8.6-22.1 11-33.7 2.4-10.5 2.7-21.5 5.2-32.1 2.5-9.6 5.7-18.9 9.8-27.9 3-7.3 5.5-15.4 8.2-23 1.5-4 3.7-7.6 5.2-11.4 1.6-4.9 3.6-9.4 5-14.2a97 97 0 0 1 2.3-10l2.9-6Z" fill="#6FB86F"/>
  <path d="M909.1 325.7a37.8 37.8 0 0 0-14.7-9.4c-.2-.2-7-5.2-8.7-6.1-1.7-.9-2.5-1.1-3.7-1.6a62.5 62.5 0 0 0-30-6c-9.1.6-18 2.5-27.2 2.5-4.4-.2-8.8.1-13.1 1-3.9 1.2-7.5 3-10.6 5.6-8.1 6-15.6 12.9-23.4 19.4a1.9 1.9 0 0 0-.3 2.5v.5a3.1 3.1 0 0 0 2.3 2c1.1.1 2.2-.2 3.1-.8 1.5-1 3-2 4.5-2.7a23 23 0 0 1 5.3-1.7c.3 0 .5-.2.7-.3 16.5-4 33.5-5.7 50.5-5 9.8 2.7 19 6.8 27.6 12.2a55.1 55.1 0 0 1 14.8 14.7l1.7 3 2.2 3.7.6 1.4c.6 1 4-6 3.7-6.8l14.7-28.1Z" fill="#004F2D"/>
  <path d="m809.8 313.9-1 .4-2 1c-.6.4-1.3.8-2 1l-.8.3-.4.2c-1 1-1.8 2-2.6 3a12 12 0 0 1-1.6 1.5c0-.3 1.5-.7 1.8-.8a66.2 66.2 0 0 1 12-3.8 103.3 103.3 0 0 1 33.1-2.6 82 82 0 0 1 41.2 15.8c5 3.7 9.5 7.7 13.7 12.2l1 1.1c.2.3.6.4.9.7l.1.3 1.3 1.1.6 1.2h.7s.3 0 .4-.5v-2.5c.1-.7 0-1.3-.4-1.8a15 15 0 0 0-1-1.2l-2.2-2.5a17 17 0 0 0-2.2-2.3c-.3-.4-.4-.8-.8-1.2l-1.3-1.4-1.8-1.6-.9-1.2c-.3-.5-.7-.9-1.1-1.2a8.7 8.7 0 0 0-3.6-2.2l-2-.7-1.9-1.3-4.3-2.8-4-2.1c-1.2-.8-2.1-1.7-3.2-2.5a28 28 0 0 0-2.6-1.7l-3.1-1.4c-1.4-.7-2.9-1.2-4.4-1.6l-4.6-1.2-3-.5c-.7 0-1.3-.3-2-.4a34 34 0 0 0-4.3-.4H847c-1 0-2.1 0-3.1-.2h-1.3c-3.6-.2-7.2-.2-10.9 0-1.7 0-3.6.3-5.3.5-.6 0-1.2.4-1.9.4H819c-.9 0-1.7.3-2.5.6l-1.7.5c-.6 0-1 .4-1.5.6-1.2.6-2.4.7-3.5 1.2Z" fill="#6FB86F"/>
  <path d="m841.4 685.4-.3.8c-2 6.5-3.6 14.3 0 20.5a5.8 5.8 0 0 0 3.9 3.3c1.8.3 3.6.3 5.4 0 3-.5 5.5-4 6.8-6.6a34.2 34.2 0 0 0 2.4-16.5c0-1.9-.2-3.8-.9-5.6v2c0-1.6-.5-3.1-1.3-4.5a6.9 6.9 0 0 0-5.5-3.1h-.6c-1.6 0-3.1.5-4.5 1.3l-.9.9-.4.5c-1.8 2-3.1 4.4-4 7Z" fill="#D8E47E"/>
  <path d="m841.4 685.4-.3.8c1.5.6 3 .6 4.5 0a11 11 0 0 0 5.4-9.1v-.4l.2-.8c-1.6 0-3.1.5-4.4 1.3-.3.5-.6.9-1 1.2h-.4c-1.7 2.1-3 4.4-4 7Z" fill="#004F2D"/>
  <path d="m834.7 656.8-1.4 5.2c-.8 4-.8 8.2 0 12.3a9.8 9.8 0 0 0 6.5 8.5c3.4 1 6.7-2.2 8.8-4.6a30.7 30.7 0 0 0 4.5-30.3l.5 1.9-1-1.4c-.1-.6-.4-1-.8-1.4-.4-.4-1-.4-1.4-.8-.3-.4-.8-1-1.4-1.4l-2.4-.4h-2c-.7.2-1.3.5-1.9.9a12.7 12.7 0 0 0-4.6 4.2 25.7 25.7 0 0 0-3.4 7.3Z" fill="#D8E47E"/>
  <path d="M834.7 656.8a3.7 3.7 0 0 0 4-.5l.7-.8.3-.2c1.2-1.3 2.2-2.8 2.8-4.5l1-3.1c.4-1.1.7-2.3.9-3.5-.7.2-1.3.5-1.9.9-1.4.7-2.6 1.8-3.6 3v.2l-.5.6-.5.4a25.7 25.7 0 0 0-3.2 7.5Z" fill="#004F2D"/>
  <path d="M823.4 631.8c-1 6-.9 14.3 3.9 18.7a7.3 7.3 0 0 0 9.2 1.4c3.1-2.2 5.5-5 7-8.5a25.7 25.7 0 0 0-.2-21l.8 1.6c-.1-1-.5-2-1.2-2.9-.5-.9-1.2-1.6-2-2.3-.5-.6-.6-1-1.3-1.5a15 15 0 0 0-2.6-1.3 7 7 0 0 0-3.2 0l-1 .4c-1 .4-2 .9-2.8 1.6a13.3 13.3 0 0 0-3.2 4.2c-.7 1.2-1.2 2.5-1.8 3.7-.8 1.9-1.3 3.9-1.6 5.9Z" fill="#D8E47E"/>
  <path d="M823.4 631.8c.8.3 1.7.4 2.6.3a7.4 7.4 0 0 0 4.8-3.3c1.8-2.6 2.8-5.8 2.9-9 .3-1.2.3-2.5 0-3.7l-1.1.4c-1 .4-2 1-2.7 1.6v.3a2 2 0 0 0-.6 1c0 .7 0 1.4-.2 2 0 .4-.5.8-.6 1-.9 1.6-2.2 2.8-3.7 3.7-.7 1.8-1.2 3.7-1.4 5.7Z" fill="#004F2D"/>
  <path d="m810.1 591.6-.6 3.2a37.5 37.5 0 0 0-1 8.7c-.3 4.1 0 8.3 1.1 12.3a21 21 0 0 0 7.1 11.4 7.3 7.3 0 0 0 5.6 1.6c1.8-.2 3.4-1 4.8-2.2 3.2-2.7 5.3-6.6 5.8-10.8A54.4 54.4 0 0 0 831 593c-.5-1.6-1.2-3.2-2-4.7-.7-2.4-2.2-4.5-4.3-6a8.2 8.2 0 0 0-5-1.5 7 7 0 0 0-2 0l-.9.3c-.6.1-1.2.4-1.7.7-.8.6-1.4 1.4-2 2.2-1.4 2.3-2.4 5-3 7.6Z" fill="#D8E47E"/>
  <path d="M807.1 557.8c.6.2 1.1.6 1.5 1l.7.8.2.4C833 586 877.1 652.3 863 769l.3 1.2c-.6 9.2-4 18-9.7 25.2a1.8 1.8 0 0 1-3.3-1.2c1.9-18.8 4.8-37.6 6.5-56.4-.2-.3-.3-.6-.2-1a161 161 0 0 0 .6-14c-2.7-51-13.2-119.9-48.4-162.7l-.4-.4-1.1-1c-.4-.3-.7-1 0-.9Z" fill="#004F2D"/>
  <path d="M812.8 590.4a8.5 8.5 0 0 1-3.3 4.4c-.3 1.7-.6 3.3-.7 5a4.6 4.6 0 0 0 4-.5c1.5-1 2.7-2.4 3.3-4.1 1-2.5 1.3-5 1-7.7.5-2.1.4-4.3-.3-6.4-.6.1-1.2.4-1.7.7-.7.6-1.4 1.4-2 2.2.2 1 .4 2.2.4 3.3-.1 1-.4 2.1-.7 3.1Z" fill="#004F2D"/>
  <path d="M807.4 558.2c2 1.8 3.3 4 4.2 6.3 2.3 4.5 3.7 9.4 4.2 14.5.2 4.3-.6 8.6-2.1 12.7-1.1 3.3-3.4 7.3-7.4 7-2.8 0-5.6-1-8-2.4a18 18 0 0 1-7.7-11c-.5-2.5-.6-5-.5-7.4.2-4 1.3-8 3.3-11.4 1.6-2.4 3.7-4.4 6-6.1 1.5-1.4 3.5-2.2 5.5-2.5.8 0 2.5 0 3 .6-.2 0-.3-.1-.5-.3Z" fill="#D8E47E"/>
  <path d="M830 605.8c.2 1 .2 2.2 0 3.2-.1 1-.3 1.9-.6 2.8a9.4 9.4 0 0 1-2.7 4.4l-.6.4-.2.2-1.2.7c-.5.3.4 0-.3 0l-.6.2-1.4.4h-.2c-.3 0-.3 0 0 0H819.6h.3-.2c-.5 0-1-.3-1.5-.4a3.4 3.4 0 0 0-4.1 4.3c.2.8.8 1.5 1.5 1.9a9.9 9.9 0 0 0 8 .2 11 11 0 0 0 6-5.1c1-2.1 1.7-4.3 1.9-6.6a13 13 0 0 0 0-3.4c-.3-1.2-.6-2.3-1.1-3.3 0-.2-.3 0-.3 0Z" fill="#fff"/>
  <path d="M813.4 580a20 20 0 0 1-1.5 5.3 8.8 8.8 0 0 1-3 2.9l-1 .5h-1.2c-.3 0-.4 0 0 0h-2.2l-1.3-.4-1.4-.5c-.6 0 .4.3-.2 0a4 4 0 0 0-1.8-.4 3 3 0 0 0-2 5c1.2 1 2.6 1.5 4.1 1.7 1.4.3 2.8.3 4.2 0 2-.4 3.8-1.6 5.1-3.2.6-.7 1.2-1.5 1.6-2.4l.8-2.6.7-3c.2-1 .2-2.1 0-3.3 0-.4-.7-.2-.8 0l-.1.4Z" fill="#fff"/>
  <path d="m842.2 636.9-.6 1.2-.4 1.1-1 2.4a13.5 13.5 0 0 1-4.9 5l-.6.2h-.8l-.6-.2s-.7-.3-.2 0l-.4-.2c-.3 0-.4-.3 0 0l-.4-.4c0-.1.2.3 0 0 0-.2 0-.2 0 0s0 .4 0 0c-.1-.5-.4-1-.8-1.5a2.4 2.4 0 0 0-4 1.8 5.3 5.3 0 0 0 2.3 3.6c1 .7 2.1 1 3.3 1.1a7.1 7.1 0 0 0 5.7-3.1 22.3 22.3 0 0 0 4-8c0-.5 0-1 .3-1.5.1-.4 0-1 0-1.6l-.1-.1a.3.3 0 0 0-.4.1h-.4Z" fill="#fff"/>
  <path d="M848.9 671c0 .7-.8 1.2-1.1 1.7l-1.2 1.4a7.4 7.4 0 0 1-4.5 2.2h-1.4c-.5 0 0 0 0 0l-.8-.5-.3-.3c.3.3 0 0 0 0a2 2 0 0 0-.1-.3c.4.7-.5-.8-.2-.5-.2-.3-.5-.6-1-.8a2 2 0 0 0-2.9 1.2c-.5 1.2.5 2.5 1.2 3.4a6.1 6.1 0 0 0 5.4 1.8c1-.2 2-.5 2.8-1a10.1 10.1 0 0 0 4.5-5.4c.2-.3.2-.7.3-1v-1.3a.3.3 0 0 0-.5-.2v.2l-.2-.5Z" fill="#fff"/>
  <path d="m853.3 702-.9.9-1 .6-1 .3h-1.7c-.4 0 .2 0 0 0H847.8c-.5 0 .2 0 0 0l-.6-.3-.6-.3-.2-.2-.5-.5c-.1 0 .3.4 0 0a2.2 2.2 0 0 0-4.1-.2 2.3 2.3 0 0 0-.1 1.7 5.8 5.8 0 0 0 3.7 3.1c1.2.4 2.6.4 3.9 0a5.7 5.7 0 0 0 4-3.5c.2-.5.3-1 .3-1.6 0-.3-.3-.4-.4-.2v.2Z" fill="#fff"/>
</svg>