<svg viewBox="0 0 1440 664" fill="none" xmlns="http://www.w3.org/2000/svg">
  <mask id="mask0_1330_51897" style="mask-type:alpha" maskUnits="userSpaceOnUse" x="-27" y="0" width="1598" height="664">
    <path fill="#D9D9D9" d="M-27 0h1598v664H-27z"/>
  </mask>
  <g mask="url(#mask0_1330_51897)">
    <path d="M400.1 651.1s53-2.2 84.6-12.6c31.7-10.4 212-78.4 281-73.2 69 5.2 152.7 63.9 174 100.7H398l2.1-14.9Z" fill="#F1EBDF"/>
    <path d="M2278.6 660c-10-.7-19.8-2.4-29.5-5-17-3.8-33.9-8.9-50.3-15l-7.9-3.4a39.4 39.4 0 0 0-33.6 1.2 160 160 0 0 0-15.4 8.4 16.6 16.6 0 0 1-14.3 1.3c-.4-.1-.8-.4-1.1-.7a8.5 8.5 0 0 1-4.7-2.4c-1.2-.3-2.4-.7-3.5-1.3l-21.7-14.3-1.1-1.3a6 6 0 0 1-3.4-2c-2.8-2-5.4-4.2-7.7-6.8l-4.3-3a37 37 0 0 1-8.1-6.4l-4-3.2-.7-.6a12 12 0 0 1-6.7-4.9c-2.3-.6-4.4-1.6-6.4-3-5.2-1.8-10.5-3.3-15.9-4.5l-5.1-.3c-5 .6-9.8 1.8-14.4 3.6h-.9c-1.5.6-3 1-4.7.8a4.4 4.4 0 0 1-3.6.3 10.2 10.2 0 0 1-7.3-4.4 9.4 9.4 0 0 1-4.2-4c-2.2-2.8-4-5.8-5.3-9-1.4-1.4-2.3-3-2.8-5a64.5 64.5 0 0 1-6.5-22 44.5 44.5 0 0 1-1.5-13.2v-1.7c-.3-5.9 0-11.7 1-17.5a26 26 0 0 1 5.4-13.3c1.9-2.1 3.9-4.2 6-6 .8-.8 1.9-1.4 3-1.7a17.4 17.4 0 0 1 14.4 1 9.3 9.3 0 0 1 5.3 8.3v3a7.2 7.2 0 0 1-4.8 6.4l-3 .8-2.7-1.5c-1.9-1-1.5-3.7-3.3-5.1-.7 0-1.3.2-1.8.5a8.9 8.9 0 0 0-2.8 10.7 13 13 0 0 0 11.1 8.3c1.3.2 2.6 0 3.8.2l3.2 3.6c2.5 2.6 5.9 4.2 9.5 4.7a23.4 23.4 0 0 0 20-6.5c.9-1 1.9-1.8 2.8-2.6.7 0 1.2.3 1.8.3a20.8 20.8 0 0 0 16.5-4.1 43 43 0 0 0 14.9-21.8c1.2-3.7 2-7.5 2.2-11.3a54 54 0 0 0-5.5-29c-1-2.1-2.4-4.1-3.4-6.3a71.1 71.1 0 0 0-6.7-10.5c-3.4-4.7-7.7-8.7-11.3-13.3a13 13 0 0 0-1.9-1.7c-6.6-5.2-13.2-10.4-20-15.4-3-2.3-6.3-4.4-9.5-6.5-2.2-1-4.6-2-6.8-3.3-5-2.7-10.1-5-15.5-6.6l-1-.7-6.4-1.6-13.9-2.6-7.9-.7-14.3-1.2a207.5 207.5 0 0 0-31.8.6l-5 .4-6 .7c-1.5.7-3.3 1-5 .8l-12.3 2.5-11.5 3.3-10.9 3-3 .4-1.8 1c-3.7 1.6-7.4 3.1-11 4.9-3.5 1.7-7.5 4-11.2 6a132 132 0 0 0-18 12.2l-7.4 6c-3.6 2.2-7 4.7-10.3 7.4-2.2 1.9-4.3 3.8-6.5 5.5l-16.6 12.9-8.9 7.5-11 10-6.8 6c-3.4 3-6.8 5.6-10 8.6-5.3 5-10.2 10.3-15.7 15l-1 1-4.1 3.4-4.2 3.3-1.1.8c-27.4 19.7-68.6 32.7-99.3 25.9a445.5 445.5 0 0 0-81.7-11v.4c-6.4-.3-13.3-.4-20.4-.2-2.4 0-4.7.2-6.8.3-2.2.2-5.1.7-7.7.9-4.6.4-9.2 1.5-13.9 2.2l-5.2.8a276.6 276.6 0 0 0-33.5 7.8c-7.2 2.2-14.3 4.6-21.4 7.1-4.8 1.8-9.5 3.9-14.2 6-8 3.4-16 6.7-23.8 10.6-10.3 5-20.3 10.4-30.5 15.4-5.7 3-11.6 5.5-17.5 8-8.6 3.5-17.1 7.1-26 10-5.8 1.9-11.9 2.9-18 3h-6.4c-1.2 0-2.3-.2-3.4-.4-4-.7-7.7-2-11.3-3.8-.7-.4-1.5-.8-2.3-1-5.6-2.3-11.2-4.4-16.6-7-8-3.6-16.5-5.5-25.2-5.7-6.7-.2-13.4 0-20 .5-5.7.6-11.4 1-17 2.2-13.3 2-43.4 19.1-56.6 27-13.2 8-34.7 7.3-34.7 7.3l-1.5-.9a88.2 88.2 0 0 1-21.6-7.7l-6.5-3.2c-7.6-3.3-15.2-6.4-22.7-9.8-7.6-3.4-14.5-6.7-21.6-10.3-7.3-3.6-15-6.4-22.8-8.4a50.3 50.3 0 0 0-12.6-1.8H986c-1.1-.1-2.3 0-3.4.1a113 113 0 0 0-26.5 8.1c-3 1.4-6 3-8.9 4-7.2 2.7-14.4 5.7-21.8 8-2.8.8-5.6 1.5-8.5 2-21.7 6.3-48 14-71.4 22.2-23.4 8-54.3 35.3-54.3 35.3h298.4l.7.4h147.8l5.5.1h273.8l5-.1h135.7v2.2h44.6c1.7 0 3.4 0 5.1-.2 4-2.7 8.3-5 12.7-7 4.7-2.2 9.2-5 13.4-8.2 3-2.1 5.6-4.3 8.6-6.2 4.2-2.7 8-6 11.9-9l2.6-2c1.3-.9 2.3-2 3-3.4 0 0 19.7-16.1 45-38.2l3-2.7c29.7-26 87.8-85.2 88.3-85.8v-.2a217.8 217.8 0 0 1 25.5-19.2c10.8-6.9 22.4-12.6 34.4-16.9 4.4-1.2 8.9-2.2 13.4-3a66.5 66.5 0 0 1 31.6 2c4 1.4 8 2.8 11.9 4.5a55.3 55.3 0 0 1 20 16.3 31.9 31.9 0 0 1 3.8 28.9 19.2 19.2 0 0 1-12.6 11.9c-3 .8-6 .9-9 .3a2 2 0 0 1-1.3-1.4 2 2 0 0 1 .4-1.8l4.8-2.4a14.5 14.5 0 0 0 7.5-13.5c.3-2.7-.1-5.4-1-8-.6-1.3-1.3-2.5-2.2-3.6-1.4-1.6-3-3.1-4.5-4.5a9.3 9.3 0 0 0-2.5-1.7 39 39 0 0 0-15.6-4l-3-.5c-1-.2-2-.2-3-.2-8 .7-15.6 3.2-22.5 7.4a98.2 98.2 0 0 0-22.3 19 42.8 42.8 0 0 0-5.6 8.6 184.1 184.1 0 0 0-12.9 30.4l-2.3 7.6v.2c-.8 3.5-1.4 7-1.9 10.7-2.3 18.9-1.5 51.6 17.9 95h120l.8.2c2 0 3.8-.2 5.6-.3h63.3c1.8.3 3.7 0 5.4-.5l3-3.2c3.2-3.8 7-7.2 11-10 3.6-2.6 7.8-4.4 12-5.3 5.6-1 11.2-1.2 16.7-.5l.8.2a56.6 56.6 0 0 1 26 12.6 110 110 0 0 0 9.6 6.6h54.5c1 0 2 0 3-.3.9-.3 1.7-.8 2.4-1.3l-1-2.3ZM2078 497.5c1.5 0 2.1.8 2.8 2.3l-.8 4.2a2.5 2.5 0 0 1-2 .6 2.4 2.4 0 0 1-1.6-1c-.6-2.3-1-4.6 1.6-6.1ZM994 614.7l-21.6 3.7c-2.4.5-4.8 1-7 1.8-3.2.9-6.3 1.8-9.4 3-2.2.7-4.2 1.7-6.3 2.5-2 .9-4 1.6-6 2.1-2.2.5-3-.6-3.2-3.1l.5-.8a99.8 99.8 0 0 1 33.7-12.7c5.2-1 10.3-2 15.5-2.8a6 6 0 0 1 6.6 3.5l-2.8 2.8Zm4.2-15.2c-2.7 0-5.3.6-8 .8-3.4.4-6.8 1-10.2 1.2-3.4.3-6.7 1.1-10 2.3-7.6 2.6-15.5 4.5-23.2 7-3.4 1-6.6 2.5-10 3.8l-3 1.2c-1.5-.7-2-1.4-1.7-3 1.6-1.7 3.5-3.1 5.5-4.2 2.7-1.4 5.4-2.6 8.2-3.6 4.3-1.5 8.7-2.8 13-4.2l4-1.4a67.1 67.1 0 0 1 17-4.3c3.3-.4 6.6-1.1 10-1.5h7.7c2 0 2.3.4 4.2 2.4-.6 2.6-1.3 3.4-3.5 3.5Zm28 12.8h-.8a2.7 2.7 0 0 1-2.5-1.1c-.2-.4-.4-.8-.4-1.2a2.4 2.4 0 0 1 1-2.2l1-.5h1.7c.6 0 1.2.4 1.6.8a2.4 2.4 0 0 1 0 3.3c-.4.5-1 .8-1.6.8v.1Zm735-102.5c-.5.3-1-.1-2-1.4 1.3-2 2.7-3.9 4.3-5.6 1.6-1.8 3.4-3.4 5.2-5 1.7-1.8 1.3-1.4 4-2.1 2.3.7 2 2.4 1.8 4.3a96 96 0 0 1-11.3 9l-2 .8Zm35.8 14.7c-2.2 2.8-5 5-8.3 6.5-1.3.5-1.7.4-3.7-.7a6 6 0 0 1 2.2-4.3l6.1-5.2c1-.7 1.1-.6 3.8-.2a3 3 0 0 1 0 3.9h-.1Zm11.8-33.8a34 34 0 0 1-3.7 3.5c-6.4 5-12.5 10.3-18.3 16l-18.5 17.8-2.2 1.5-2-1a3.8 3.8 0 0 1 .7-4.6c3-3.2 5.4-6.6 8.5-9.5 4.2-4 8.3-8.3 12.4-12.5 3.4-3.4 7-6.6 11-9.4 2.2-1.6 4.1-3.5 6.2-5.2a8 8 0 0 1 4.2-2l1.5 1a3 3 0 0 1 1 2.1 3 3 0 0 1-.8 2.3Zm71-62a7.4 7.4 0 0 1-3.9 4.5c-4.3 2.5-8.6 5-12.7 7.7-4.2 2.8-9 6.5-13.4 9.8l-1.3 1.2-24.6 23.8-2.6 2c-.2-.8-.3-1.8-.3-2.7a51.9 51.9 0 0 1 8.1-11.4c4.7-4.6 9.3-9.2 13.9-14 5-5 10.5-9.5 16.4-13.5a110.6 110.6 0 0 1 17.1-9.9c.8-.1 1.7 0 2.5.2a2 2 0 0 1 .7 2.4Zm1.5-11.8c-2 1-4 1.8-6 2.6l-11 4.6a39.4 39.4 0 0 0-9 6c-4.4 3.5-9.2 6.7-14 9.8-5.4 3.8-10.7 8-15.6 12.5-5.3 4.8-10.4 9.7-15.5 14.7-.6.5-1.2 1-1.8 1.3l-1.9-1.5c0-.5 0-.8.2-1 1-1.3 1.8-2.7 2.8-3.9l6.5-7.3 5.6-5.3 1-.8c5.6-6 12-11.3 19-15.7 4-2.7 7.8-5.7 11.6-8.6 1.2-1 2.5-2 3.8-2.8 4.9-2.7 9.9-5.1 15.1-7l6-2.3a3.4 3.4 0 0 1 2.7-.2 3.4 3.4 0 0 1 2 1.8 3 3 0 0 1-1.5 3Zm12.2 5.6-2.2-1.2v-2.6a4.1 4.1 0 0 1 3.7-2 2.5 2.5 0 0 1 2 .6 2.5 2.5 0 0 1 .9 1.8 5.1 5.1 0 0 1-4.4 3.2v.2Zm167 97.5c2.2-2 3.7-4.4 4.7-7.1.3-1 .5-2.2.6-3.3a5 5 0 0 1 1.5-3.4c.5-.3 1.1-.4 1.7-.3.6.2 1.2.5 1.5 1 .8 3.3.4 6.8-1.3 9.7a27.7 27.7 0 0 1-7.7 9 6.2 6.2 0 0 1-4.7 1.4c-1 0-1.2-.4-1.8-2l5.6-5Zm-33.7 11.5c3-.3 5.8-1.1 8.5-2.3 4.9-2.1 9-5.8 11.5-10.4a23.2 23.2 0 0 1 2-3 1.7 1.7 0 0 1 1.3-.3l.6.3a7.3 7.3 0 0 1-.8 6.7c-2.8 5-7.2 8.9-12.6 11-2.2.9-4.5 1.5-7 2a6.4 6.4 0 0 1-5.2-1 6 6 0 0 1-1-1.3c.2-.5.5-1 1-1.3a3 3 0 0 1 1.7-.6v.2Zm53 127a5 5 0 0 1-5.6-1.1c-2.4-2.2-4.8-4.5-7-7a4 4 0 0 1-1.3-4.5 2.2 2.2 0 0 1 3.1-.1l2 1.7 7.8 7.2c.6.6 1 1.3 1.3 2l-.2 1.7v.1Zm12.4-2.2a9.2 9.2 0 0 1-5-2 132.2 132.2 0 0 1-16.3-13.6 63.4 63.4 0 0 1-6.5-8.6c-.5-.9-1-1.9-1.3-3l1.3-1.4a4.4 4.4 0 0 1 3.7 2c5 5.9 10.6 11.2 16.7 15.8l5.6 4.5c1.4 1 2.6 2.3 3.3 3.9a3 3 0 0 1-1.5 2.2v.2Zm22.9-2.5c-2.4 0-4.8-.6-7-1.8a91 91 0 0 1-16.7-10.1 179.7 179.7 0 0 1-24-21.1 61 61 0 0 1-4.8-6c-.4-.7-.8-1.6-1-2.4l2-1.4c.9.5 1.7 1 2.5 1.7 3.9 3.5 7.5 7.3 11.6 10.7 4 3.3 8.3 8.2 13.4 11.2a95.6 95.6 0 0 0 16.6 11.2 91.6 91.6 0 0 1 8.3 5.7c.3.6.6 1.2.6 1.9l-1.5.3v.1Z" fill="#FA8F6B"/>
    <path d="M383.7 663.9h-84.5l15.6-18.7 21.3-8.2 38 10.9 9.6 16Z" fill="#F1EBDF"/>
    <path d="M-42 664h190.3L95.5 514.6l-39.1-51.1-96 95-81.4 64-7.4 42.1 86.4-.6Z" fill="#FFDACE"/>
    <path d="m109.5 664 17.3.2.3-.2h-17.6Zm-17.8-95a106 106 0 0 1 1.3-8.7c-1 2.8-1.5 5.8-1.4 8.8Z" fill="#FA8F6B"/>
    <path d="M442.3 660c-10-.7-19.8-2.4-29.5-5a371 371 0 0 1-50.3-15l-7.9-3.4a39.4 39.4 0 0 0-33.6 1.2c-5.2 2.5-10.4 5.3-15.4 8.4a16.6 16.6 0 0 1-14.4 1.3l-1-.7a8.5 8.5 0 0 1-4.7-2.4c-1.2-.3-2.4-.7-3.5-1.3l-21.7-14.3a9 9 0 0 1-1.1-1.3c-1.3-.3-2.5-1-3.4-2-2.8-2-5.4-4.2-7.7-6.8l-4.3-3a37 37 0 0 1-8.1-6.4l-4-3.2-.7-.6c-2.7-.8-5.1-2.5-6.7-4.9-2.3-.6-4.4-1.6-6.4-3-5.2-1.8-10.5-3.3-15.9-4.5l-5.1-.3c-5 .6-9.8 1.8-14.4 3.6h-.9c-1.5.6-3 1-4.7.8a4.4 4.4 0 0 1-3.6.3 10.2 10.2 0 0 1-7.3-4.4 9.3 9.3 0 0 1-4.2-4c-2.2-2.8-4-5.8-5.3-9-1.4-1.4-2.4-3-2.8-5a64.7 64.7 0 0 1-6.6-22 44.6 44.6 0 0 1-1.5-13.2v-1.7a90 90 0 0 1 1-17.5 26 26 0 0 1 5.5-13.3c1.8-2.1 3.8-4.2 6-6 .8-.8 1.8-1.4 3-1.7a17.4 17.4 0 0 1 14.4 1 9.4 9.4 0 0 1 5.2 8.3v3a7.3 7.3 0 0 1-4.8 6.4l-3 .8-2.6-1.5c-2-1-1.5-3.7-3.4-5.1-.6 0-1.2.2-1.8.5a9 9 0 0 0-2.7 10.8 13 13 0 0 0 11.1 8.2c1.3.2 2.5 0 3.8.2 1 1.3 2.1 2.5 3.2 3.6 2.5 2.6 5.8 4.3 9.4 4.7a23.3 23.3 0 0 0 20-6.5l3-2.5c.8 0 1.3.2 1.9.3a20.8 20.8 0 0 0 16.5-4.2 42.7 42.7 0 0 0 14.9-21.8c1.2-3.6 2-7.4 2.2-11.3a54 54 0 0 0-5.4-29c-1.1-2-2.5-4-3.6-6.2a70.8 70.8 0 0 0-6.6-10.5c-3.4-4.8-7.7-8.7-11.4-13.3a13 13 0 0 0-1.8-1.8l-20-15.3c-3-2.3-6.3-4.4-9.5-6.6-2.3-1-4.6-2-6.8-3.2-5-2.7-10.1-5-15.5-6.7a8 8 0 0 1-1-.6l-6.4-1.6-14-2.6-7.8-.7-14.4-1.2a207.6 207.6 0 0 0-31.9.5l-5 .4-5.9.7c-1.6.7-3.4 1-5.1.8L64 400.2l-11.6 3.3-10.8 3-3 .4-1.9 1c-3.6 1.6-7.3 3.1-10.9 4.9-3.6 1.7-7.6 4-11.3 6-6.3 3.5-12.2 7.6-17.8 12.2l-7.4 6c-3.6 2.2-7 4.7-10.3 7.4-2.2 1.9-4.3 3.8-6.5 5.5L-44 462.8c-3 2.4-5.9 5-8.7 7.5l-11 10-6.9 6c-3.3 3-6.8 5.6-10 8.6-5.2 5-10.2 10.3-15.6 15l-1 1a117.6 117.6 0 0 1-8.4 6.7l-1 .8c-27.4 19.7-68.7 32.7-99.3 25.9a445.6 445.6 0 0 0-81.7-11v.4c-6.5-.3-13.3-.4-20.4-.2-2.4 0-4.7.2-6.9.3-2.1.2-5 .7-7.6.9-4.7.4-9.3 1.5-13.9 2.2l-5.3.8a276.7 276.7 0 0 0-33.4 7.8c-7.2 2.2-14.4 4.6-21.5 7.1-4.8 1.8-9.5 3.9-14.2 6-8 3.4-16 6.7-23.8 10.6-10.2 5-20.3 10.4-30.5 15.4-5.7 3-11.5 5.5-17.5 8-8.6 3.5-17 7.1-25.9 10-5.8 1.9-11.9 2.9-18 3h-6.5a38.7 38.7 0 0 1-14.7-4.2c-.7-.4-1.5-.8-2.3-1-5.5-2.3-11.1-4.4-16.6-7-7.9-3.6-16.5-5.5-25.2-5.7-6.7-.2-13.3 0-20 .5-5.7.6-11.3 1-16.9 2.2-13.3 2-43.4 19.1-56.6 27-13.3 8-35.1 7.3-35.1 7.3l-1.5-.9a88.4 88.4 0 0 1-21.6-7.7l-6.5-3.2c-7.6-3.3-15.2-6.4-22.7-9.8-7.6-3.4-14.5-6.7-21.6-10.3-7.3-3.6-15-6.4-22.8-8.4a50.3 50.3 0 0 0-12.6-1.8h-20.5c-1.1-.1-2.3 0-3.4.1a113 113 0 0 0-26.5 8.1c-3 1.4-6 3-8.9 4-7.2 2.7-14.4 5.7-21.8 8-2.8.8-5.6 1.5-8.5 2-21.7 6.3-48 14-71.4 22.2-23.4 8-54.3 35.3-54.3 35.3h298.4l.7.4h147.8l5.5.1h273.7l5.2-.1h135.6v2.2h44.6c1.7 0 3.4 0 5.1-.2 4-2.7 8.2-5 12.7-7a71 71 0 0 0 13.4-8.2c3-2.1 5.6-4.3 8.6-6.2 4.2-2.7 8-6 11.9-9l2.6-2c1.4-.8 2.4-2 3.1-3.4 0 0 19.8-16 45-38l3-2.7c29.7-26 87.7-85.2 88.3-85.8l.1-.2A217.9 217.9 0 0 1 85.8 483a169 169 0 0 1 34.5-16.9c4.4-1.2 8.8-2.2 13.3-3a66.5 66.5 0 0 1 31.6 2c4.1 1.3 8.1 2.7 12 4.3a56 56 0 0 1 20 16.3 31.9 31.9 0 0 1 3.9 29 19.3 19.3 0 0 1-12.6 11.9c-3 .8-6.1.9-9.1.3a2 2 0 0 1-.9-3.2l4.8-2.4a14.5 14.5 0 0 0 7.5-13.5c.3-2.7 0-5.4-1-8-.6-1.3-1.3-2.5-2.2-3.6a50.3 50.3 0 0 0-4.4-4.6 9.2 9.2 0 0 0-2.4-1.7 39 39 0 0 0-15.6-4l-3-.5c-1-.2-2-.2-3-.2-8 .7-15.6 3.2-22.5 7.4a98.1 98.1 0 0 0-22.3 19.1 43.1 43.1 0 0 0-5.7 8.5A186.1 186.1 0 0 0 96 550.7l-2.3 7.5v.2a106 106 0 0 0-1.9 10.7c-2.3 18.9-1.5 51.6 17.9 95h119.8l1 .2 5.5-.2h63.3c1.8.2 3.6 0 5.3-.5 1-1 2-2 3-3.3a57 57 0 0 1 11-10c3.7-2.6 7.8-4.4 12.1-5.3 5.5-1 11.1-1.2 16.6-.5l.9.2a56.5 56.5 0 0 1 25.9 12.6c3 2.4 6.3 4.6 9.6 6.6h54.6c1 0 2 0 3-.2l2.3-1.3-1.2-2.4ZM241.8 497.5c1.5 0 2.1.8 2.8 2.3l-.8 4.2a2.4 2.4 0 0 1-3.6-.4c-.5-2.3-1-4.6 1.6-6.1ZM-842.3 614.7l-21.6 3.7c-2.4.5-4.8 1-7 1.8-3.2.9-6.4 1.8-9.4 3-2.2.7-4.2 1.7-6.3 2.5-2 .9-4 1.6-6 2.1-2.2.5-3-.6-3.2-3.1l.5-.8a99.7 99.7 0 0 1 33.7-12.7c5.2-1 10.3-2 15.5-2.8a6 6 0 0 1 6.6 3.5l-2.8 2.8Zm4.2-15.2c-2.7 0-5.3.6-8 .8-3.4.4-6.8 1-10.2 1.2-3.4.3-6.8 1.1-10 2.4-7.7 2.6-15.6 4.5-23.3 7-3.4 1-6.6 2.4-10 3.7l-3 1.3c-1.5-.7-2-1.5-1.7-3 1.6-1.7 3.5-3.1 5.6-4.2 2.6-1.4 5.3-2.6 8.1-3.7 4.3-1.5 8.7-2.7 13-4.1 1.4-.4 2.7-1 4-1.5a67.2 67.2 0 0 1 17-4.3c3.3-.3 6.6-1 10-1.4 2.6-.2 5.1-.2 7.7 0 2 0 2.4.4 4.2 2.4-.5 2.5-1.2 3.3-3.4 3.4Zm28 12.8h-.8a2.7 2.7 0 0 1-2.5-1.1 2.5 2.5 0 0 1 1.6-3.9h1.7a2.4 2.4 0 0 1 2.2 2.6 2.4 2.4 0 0 1-2.1 2.4Zm735-102.5c-.5.3-1-.1-2-1.4 1.3-2 2.7-3.9 4.3-5.6 1.6-1.8 3.4-3.4 5.1-5 1.8-1.8 1.4-1.4 4.2-2.1 2.2.7 1.9 2.4 1.6 4.3a96.5 96.5 0 0 1-11.2 9l-2 .8Zm35.8 14.7c-2.2 2.8-5 5-8.3 6.5-1.3.5-1.7.4-3.7-.7A6 6 0 0 1-49 526l6.1-5.2c1-.7 1.1-.6 3.7-.2a3 3 0 0 1 0 3.9Zm11.8-33.8a34.6 34.6 0 0 1-3.7 3.5 240 240 0 0 0-18.3 16L-68 528l-2.2 1.5-2-1a3.8 3.8 0 0 1 .7-4.6c3-3.2 5.4-6.6 8.5-9.5 4.2-4 8.3-8.3 12.4-12.5a93 93 0 0 1 11-9.4c2.2-1.6 4.1-3.5 6.2-5.2a8 8 0 0 1 4.2-2l1.5 1a3 3 0 0 1 .2 4.4Zm71-62a7.5 7.5 0 0 1-3.8 4.5c-4.3 2.5-8.6 5-12.8 7.7-4.6 3-8.9 6.5-13.4 9.8l-1.3 1.2-24.5 23.8-2.7 2c-.2-.8-.3-1.8-.2-2.7.3-1 .7-1.9 1.2-2.7 2-3.1 4.3-6 7-8.7l13.8-14A115.8 115.8 0 0 1 38 427.1a5.3 5.3 0 0 1 4.8-.8 2 2 0 0 1 .7 2.5ZM45 417c-1.9 1-3.9 1.8-6 2.6L28 424a39.3 39.3 0 0 0-8.9 6c-4.5 3.5-9.2 6.7-14 9.8-5.5 3.7-10.7 7.9-15.5 12.4-5.3 4.7-10.5 9.6-15.6 14.6-.5.5-1.1 1-1.8 1.4l-1.9-1.5c0-.6 0-1 .3-1.1.8-1.3 1.7-2.7 2.7-3.8l6.5-7.4 5.6-5.2 1-.9c5.6-6 12-11.2 19-15.6 4-2.8 7.8-5.8 11.7-8.7 1.1-1 2.4-2 3.8-2.7 4.8-2.8 9.8-5.2 15-7.1l6-2.3a3.4 3.4 0 0 1 4.7 1.7 3 3 0 0 1-1.7 3l.1.2Zm12.3 5.6-2.2-1.2v-2.6a4.2 4.2 0 0 1 3.7-2 2.5 2.5 0 0 1 2.8 2.4 5.1 5.1 0 0 1-4.4 3.2v.2Zm167 97.5c2.1-2 3.7-4.4 4.6-7.1.4-1 .6-2.2.6-3.3a4.7 4.7 0 0 1 1.5-3.4 2.5 2.5 0 0 1 3.2.8c1 3.2.4 6.7-1.2 9.6a27.7 27.7 0 0 1-7.7 9 6.1 6.1 0 0 1-4.7 1.4c-1 0-1.2-.4-1.8-2l5.5-5Zm-33.8 11.3c3-.3 5.8-1 8.5-2.3 4.9-2 9-5.7 11.5-10.4a24 24 0 0 1 2-3 1.6 1.6 0 0 1 2 0 7.2 7.2 0 0 1-.9 6.8c-2.8 5-7.2 8.9-12.6 11-2.2.8-4.6 1.5-7 2a6.5 6.5 0 0 1-5.2-1c-.4-.4-.8-.8-1-1.3a3 3 0 0 1 2.7-1.8Zm53 127a5 5 0 0 1-5.5-1c-2.4-2.2-4.8-4.5-7-6.9a4 4 0 0 1-1.2-4.5 2.1 2.1 0 0 1 3-.2l2 1.7 7.8 7.2c.6.6 1 1.3 1.3 2.1 0 .5-.3 1-.3 1.7Zm12.4-2.2a9.2 9.2 0 0 1-5-2 134.3 134.3 0 0 1-16.4-13.6 63.3 63.3 0 0 1-6.4-8.5c-.5-1-1-2-1.3-3l1.3-1.4a4.4 4.4 0 0 1 3.7 2c5 5.9 10.7 11.2 16.8 15.9l5.7 4.5c1.3 1 2.5 2.2 3.3 3.7a3 3 0 0 1-1.7 2.4Zm22.9-2.4c-2.4 0-4.8-.7-7-1.9-5.9-2.7-11.5-6.1-16.7-10a179.7 179.7 0 0 1-24-21.2 62 62 0 0 1-4.8-6c-.4-.7-.8-1.5-1-2.4l2-1.3c.9.5 1.7 1 2.5 1.7 3.9 3.5 7.5 7.3 11.6 10.6 4 3.4 8.2 8.3 13.4 11.2l3.6 3c4 3.1 8.4 5.9 13 8.3a91.8 91.8 0 0 1 8.3 5.7c.3.5.6 1.2.6 1.8l-1.5.5Z" fill="#FA8F6B"/>
    <path d="M147.2 553.3a42.5 42.5 0 0 1-1.5-13.2l4.6 2.6a24.3 24.3 0 0 1 2.2-3.4 3.7 3.7 0 0 1 4.5-.2c3.5 2 6.7 4.4 9.5 7.2a56 56 0 0 1 8.3 11.4c3.9 6.8 7.2 14 10 21.3 0 .4.3.8.6 1.5.4-.6.8-1.2 1-1.8.6-1.6.9-3.3 1.5-5a10 10 0 0 1 4-5.2 5.7 5.7 0 0 1 6-.5l2 1c1-1 1-2.3 1.4-3.5 1.6-5.1 4.4-9.7 8-13.5 1.5-1.4 3.1-2.6 5-3.5a5 5 0 0 1 6.1 1.2l1.4 1.6c1.8-1.9 3.3-3.6 5-5.1 1.9-1.6 3.9-3 6-4.2a10 10 0 0 1 3.6-1.2 4.6 4.6 0 0 1 5 2.4l1 1.5 2.5-1.7 6.6-4.9c.8-.5 1.7-1 2.6-1.2a3.4 3.4 0 0 1 4.4 2.3l.4 2.3 2.7-1.5c1.6-.9 3.3-1.6 5-2.3 4-1.2 6.6 1.2 5.8 5.2-.2.9-.4 1.7-.8 2.5l-1 2.6c.7 1.3 1.6.5 2.4.6a3.4 3.4 0 0 1 3.6 3.8c0 1.2-.3 2.3-.6 3.4l-2.8 8-1 2.6h2.8a5.6 5.6 0 0 1 5.2 6.2 22 22 0 0 1-1.1 5 40 40 0 0 1-2 4l2.4 1a5.7 5.7 0 0 1 3.6 7c-.5 1.9-1.1 3.8-1.9 5.6l-1.8 4.8v1l3.2.5a4.3 4.3 0 0 1 4.2 5.4c-.3 1.4-.8 2.7-1.5 4l-7 11.1-1 1.6c.6 1.6 2 1.4 3 2.1l1-1 5.7-7.5a49.4 49.4 0 0 1 16.1-13.1 5 5 0 0 1 6 .9l1.3 1.2c1.9-.7 3.7-1.5 5.3-2.6 3-1.5 6-2.7 9.2-3.5 2-.5 4.2-.6 6.4-.3a6.8 6.8 0 0 1 6 4.1c.1.5.4 1 .6 1.3l3.7-.5a26 26 0 0 1 11.5.2c4.3 1 5.4 4 3 7.6l-1.2 1.5 4 .9c1.3.4 2.6 1 3.7 1.8a4.3 4.3 0 0 1 1.8 5.3l-.3 1.4 2.7 1 4.8 1.7a4.7 4.7 0 0 1 3.3 4.4l-1.4 3.4 9.3 3.9a9 9 0 0 1 6.7-4.3c-.2-1.5-.7-3-1.5-4.4a23 23 0 0 1-2-7.8c0-1 0-2 .2-3a4.5 4.5 0 0 1 4.4-4c1.4.1 2.7.2 4 .5.2-1.3.2-2.7.6-4.1a64 64 0 0 1 2-6.6c1.3-3.7 2.7-4.5 6.8-4.1h1.4l.8-3.3a12.3 12.3 0 0 1 5.1-8.6l.7-4.3c.5-1.9 1.1-3.8 2-5.6a5.8 5.8 0 0 1 10.1-.9c.6.8 1.2 1.7 1.6 2.6l1.9 3.2c4.3 1.5 4.3 1.5 7.5 7 1 0 1.4-.8 2-1.2a5.5 5.5 0 0 1 7.7 1c1 1.3 1.7 2.7 2.3 4.2 1 2.3 1.7 4.8 2.5 7 1.2.7 1.7-.2 2.5-.5a5.7 5.7 0 0 1 7 1.7c1 1.3 2 2.7 2.7 4.3.6 1 1 2.3 1.6 3.4.5 1.2.7 2.1 1.2 3 1.3 0 1.6-.9 2.2-1.5a10.6 10.6 0 0 1 6.2-3.1 5.1 5.1 0 0 1 4.9 3c.7 1.8 1.3 3.6 1.6 5.4.6 2.7 1 5.6 1.4 8.5l1.8.2a6.7 6.7 0 0 1 7 4c1.5 2.8 2.5 5.8 2.9 9 .6 4.3 1 8.8 1.7 13l.5 3-1.9 1-11.4 1.8c-.3-.4-.8-.9-.8-1.3-.1-1.6 0-3.1.1-4.7a43.8 43.8 0 0 0-2.3-17.6c-.1-.4-.7-.7-1-1-1.3.8-1.2 1.9-1.2 2.8 0 3.8.2 7.4 0 11.1.2 3.9-.2 7.7-1.1 11.5l-1.5.1h-6.8c-.8 0-1.7-.1-2.5-.3 0-1.3.3-2.2.4-3.2.9-6.5.9-13 0-19.5l-.7-4.7c-.5-3.2-1.4-6.4-2.8-9.4-.5-1-1.3-1-3 0v2c.8 4.5 1.3 8.9 1.8 13.5 1 7.5.5 15.1-1.1 22.5l-2-.4a48.5 48.5 0 0 1-6.2-8v-1.1a95.2 95.2 0 0 0-1.3-35.2c-.2-.8-.6-1.6-1.1-2.3-.5-.6-1.2-.8-2 0-.4 1.6-.4 3.2 0 4.8a130.3 130.3 0 0 1 .5 26c0 .3-.2.5-.5.8-.3-.2-.7-.3-1-.6l-2.5-4a7 7 0 0 1-1.3-5.2c.3-2.8.2-5.7-.3-8.5-.2-.8-.2-1.7-.2-2.6a48.9 48.9 0 0 0-4.6-17.5c-.4-.3-1-.6-1.5-.6-.2.3-.7.7-.7 1.1 0 1.7.1 3.4.4 5.1 1.3 4.9 2 9.9 2 14.9l-.5 1.5-1.8-2.8-9.5-19c-.5-1.1-1-2.1-1.6-3-.6-.6-1.2-1.1-1.9-1.5-.3 1-.9 1.6-.8 2.1l1.2 6c.2.9 1 1.7.5 3.2-4.2-1-8.1-3.2-12.7-3.5l-1 1.6c.4.6.6 1 1 1.2 5.2 2.7 10.6 5 16.1 6.9 1 2 2 4.1 2.8 6.2l.3 1.4c-.6.2-1.3.3-2 .3l-18.3-2.2a5.3 5.3 0 0 0-4.2.4v1.7l2.4 1.2c8.1 2.3 16.5 3.6 25 3.8 1.8 1.9 2.9 4.2 3.1 6.8a10 10 0 0 1-5.4.3c-6.8-.3-13.6-1-20.4-2.1-.9-.1-1.8 0-2.6.1a1.7 1.7 0 0 0 .2 2.5 8 8 0 0 0 3.9 1.7 87.3 87.3 0 0 0 22.9 2.5c1.8-.2 3.7-.2 5.6.2l3.3 5c.2.6.4 1.3.4 2-3.2.7-6.6 1.1-10 1.2h-8.9c-1 0-2.2 0-3.3.2-.3 0-.5.3-.8.5v1.7l2.7 1.1a54 54 0 0 0 19.6.4c1.6-.4 3.2-.5 4.8-.4.8 1.1 1.8 2.2 2.5 3.4.2.5.3 1 .2 1.6l-7 .4c-10-.8-19.8-2.4-29.5-5-17.1-3.8-34-8.9-50.3-15.1-2.7-1-5.3-2.2-8-3.3a39.3 39.3 0 0 0-33.5 1.2c-5.3 2.5-10.4 5.3-15.4 8.3a16.5 16.5 0 0 1-14.4 1.4 5 5 0 0 1-1-.7 67 67 0 0 1 14-8.9 90.8 90.8 0 0 1 22.4-7.1 75.4 75.4 0 0 1 28-1.2c1.4.3 2.8.4 4.3.5a2 2 0 0 0 2.1-1 1.7 1.7 0 0 0-.1-1.2 1.7 1.7 0 0 0-1-.8l-4.8-1.6-3.7-1 .2-3-1.7-1.1c-2.7.6-4 3-6 3.8l-11.8.9c-.1 0-.3 0-.4-.2a3 3 0 0 1-.3-.6c1.3-3 4-5.7 5-9l-.8-1c-.4-.4-1-.7-1.5-.8-4.1 3.6-6.5 8.9-10 13l-15.5 3.7c1-2.8 2.1-5.5 3.5-8.1 1-2.8 2.3-5.6 3.4-8.2-1-1.4-1-1.4-2.5-1.6l-1.2 1c-3.8 6.4-7 13-9.8 20l-8.3 4.5c-.2 0-.5 0-1-.3l.4-2 2.6-8a2.7 2.7 0 0 0-.5-3c-.6 0-1.2.2-1.7.5-.6.6-1.1 1.3-1.4 2-2.2 4.6-4 9.2-5.5 14a24 24 0 0 1-1.3 3.1c-1.2-.3-2.4-.7-3.5-1.3-7.3-4.7-14.5-9.5-21.6-14.3-.5-.3-.9-.8-1.2-1.2 1.2-1.2 2.5-2.4 1.8-4.3a1.7 1.7 0 0 0-2.3-.2l-3 2.3c-2.8-1.9-5.3-4.2-7.6-6.8l4.3-3c3.8-2.5 7.4-5.5 10.7-8.9l3-4v-1l-1.1-.5c-2.6 1.3-4.9 3-7 4.8l-7 5-7 4.7c-3-1.7-5.8-4-8.2-6.4 6.4-3.8 12.5-8 18.3-12.6 3-2.5 5.7-5 8.5-7.7a4.1 4.1 0 0 0 1.8-3.4l-1.1-.9-1.3.5a254 254 0 0 1-30.2 20.9l-.7-.7c1.9-4.4 3-9.2 5.2-13.6l6.4-4.2c4.7-2.7 9-6 12.8-9.9 1-1 1.9-2.1 2.7-3.3.3-.4.3-1-.5-1.6l-1.8.7c-1.7 1.3-3.3 2.6-5.1 3.8l-9.7 6.4-1.4.4a2.7 2.7 0 0 1 .5-2.6l7-13.6 5.5-9.7c.6-1.1 1-2.3 1.4-3.5 0-.8 0-1.5-.2-2.1a5 5 0 0 0-1.9.2c-.7.5-1.4 1-2 1.7a42.4 42.4 0 0 0-6.1 8.1c-.8 1.6-2 3-3.3 4.2l-.8-2.6-1.2-6.3c-.3-1-.6-2.3-2.2-2.7l-1.1 1.5c-.6 2.2-.7 4.5-.3 6.8l2 11.1-4 8.7s-.4 0-.7.3c-.9-1.7-1.6-3.5-2.1-5.4l-4.2-12.6c-.5-2.1-1.4-4.2-2.7-6h-1.4l-.3 2.1c0 1.7.2 3.4.6 5a391 391 0 0 0 4.5 15.7c1 3 2.2 6 3.3 8.7l-3.4 9.3h-2.3c.6-1.1-.1-2-.6-2.8-3.6-7-6.7-14-9.7-21.3l-2.5-5.4c-.3-.6-.7-1-1.1-1.5-1.4-.2-2 .4-2 1.3 0 1 .1 2 .4 3 1.3 5 3 10 5.3 14.9l3.8 8.9A140 140 0 0 0 202 593c-1-2.5-1.9-5-3-7.4a2.7 2.7 0 0 0-2.5-2c-1.3.7-1.4 1.8-1.1 3 .4 2.1 1 4.1 1.5 6.2-4.9.6-9.7 1.9-14.4 3.6a4 4 0 0 1-.8 0c-1-2.5-2.2-4.9-3.6-7.2-2.3-3.2-3.7-7-3.9-11a542.8 542.8 0 0 0-2.6-15.5 10 10 0 0 0-1-2.9c-.4-.5-1-1-1.6-1.4a6.6 6.6 0 0 0-.8 5.5c0 1.7.4 3.4.5 5 .4 1.8.5 3.6.4 5.4-.5 0-.9 0-1-.3l-3.6-4.4-5.7-16.7a6.2 6.2 0 0 0-2.5-3.4l-1.4-.3a4 4 0 0 0-.4 3.5l.9 5.5-.7.6-4.1-3.3-3.4-2.2Z" fill="#2B3D2D"/>
    <path d="M58.7 504.1a39 39 0 0 1 9-8A223 223 0 0 1 86 482.8a170 170 0 0 1 34.5-16.9c4.4-1.2 8.8-2.2 13.3-3a66.9 66.9 0 0 1 31.7 2c4 1.4 8 2.8 11.8 4.5a53.8 53.8 0 0 1 20 16.3 31.9 31.9 0 0 1 3.8 29 19.3 19.3 0 0 1-12.6 11.8c-3 .8-6 1-9.1.3a2 2 0 0 1-.8-3.2l4.7-2.4a14.5 14.5 0 0 0 7.6-13.4 15.1 15.1 0 0 0-3.2-11.6 54.4 54.4 0 0 0-4.5-4.6 9 9 0 0 0-2.5-1.7 38.8 38.8 0 0 0-15.6-4l-3-.5c-1-.2-1.9-.2-2.9-.2-8 .7-15.7 3.2-22.5 7.4a98.8 98.8 0 0 0-22.3 19.1 43.8 43.8 0 0 0-5.7 8.5A185.5 185.5 0 0 0 93 560.3c-1 2.9-1.5 6-1.3 9l-.3.7-1 1.6a9.4 9.4 0 0 0-7.8 5c-1.2 2-2.6 3.7-4 5.6-1.1-.9-.4-1.7-.4-2.4l.5-2.5c.1-.9 0-1.7.2-2.6.3-.8.4-2 .6-3v-10.3l-2.5-2.7v-2.3c.4-3.8.7-7.6 1.3-11.4.2-3.3 0-6.5-.9-9.7-.2-.7-.5-1.3-.9-2l-1-1.2-3-.2c-.3-.3-.5-.5-.5-.8-.7-3.6-1.2-7.3-2-11a9.5 9.5 0 0 0-1.2-3 3.5 3.5 0 0 0-4.9-1.3l-2.2 1.4c-1.4-2-.9-4.5-1.6-6.6-.7-2.2-.9-4.4-1.4-6.5Z" fill="#FFDACE"/>
    <path d="m91.4 569.8.3-.8c0 .3 0 .5-.3.8Z" fill="#FA8F6B"/>
    <path d="M449.4 659.6c0-.5 0-1-.3-1.6-.7-1.2-1.6-2.3-2.4-3.3-1.7-.2-3.3 0-4.9.3a54 54 0 0 1-19.5-.4l-2.8-1.1v-1.7c.3-.2.5-.5.8-.5l3.4-.2h8.9c3.3 0 6.7-.4 10-1.2l-.5-2c-1-1.7-2.2-3.4-3.3-5a19 19 0 0 0-5.6-.2c-7.7.2-15.4-.7-23-2.5a8 8 0 0 1-3.8-1.7 1.7 1.7 0 0 1-.2-2.5c.9-.2 1.8-.2 2.7-.1 6.7 1 13.5 1.8 20.4 2.1 1.8.4 3.6.3 5.3-.3-.2-2.5-1.3-5-3-6.7-8.6-.3-17-1.6-25.1-4l-2.3-1v-1.8a5.3 5.3 0 0 1 4.1-.4l18.3 2.2 2-.2c0-.5 0-1-.2-1.5l-2.8-6.2c-5.6-2-11-4.2-16.3-6.9-.3-.1-.5-.6-.8-1.2l1-1.6c4.5.4 8.4 2.6 12.6 3.5.6-1.5-.3-2.3-.5-3.2-.4-2-.9-3.9-1.1-6 0-.5.4-1.2.7-2 .7.3 1.3.8 1.9 1.4l1.6 3 9.5 19 1.8 2.8c.3-.5.4-1 .5-1.5 0-5-.6-10-2-14.9-.2-1.6-.4-3.3-.4-5 0-.5.5-1 .7-1.2a2.7 2.7 0 0 1 2.3 2 48.9 48.9 0 0 1 4 18.7c.6 2.8.7 5.7.3 8.5a7 7 0 0 0 1.3 5.3c1 1.2 1.7 2.6 2.6 3.9.2.3.6.4 1 .6l.4-.7a130.3 130.3 0 0 0-.6-26c-.3-1.7-.3-3.3 0-4.9 1-.9 1.7-.6 2.1 0 .5.7.9 1.5 1.1 2.3a95.2 95.2 0 0 1 1.2 36.2c1.8 3 3.9 5.6 6.2 8.1l2 .4c-.4.3-.9.5-1.4.6-2.6.3-5.2.3-8 .3Z" fill="#89C5AC"/>
    <path d="M359 663.8c-9.8.5-19.5.5-29.3 0a10.2 10.2 0 0 1 3.3-7.6 14.5 14.5 0 0 1 20.5-1c2 1.5 3.7 3.5 4.8 5.9.3.8.6 1.7.7 2.7Z" fill="#2B3D2D"/>
    <path d="M459 659c1.6-7.4 2-15 1.1-22.5-.5-4.5-1-9-1.8-13.5v-2c1.7-1 2.4-1 3 0 1.3 3 2.3 6.2 2.7 9.4l.7 4.6c1 6.5 1 13 0 19.6l-.3 3.1c.8.2 1.6.4 2.5.4h6.7a26 26 0 0 1-8.7 1l-6-.2ZM475 658c1-3.8 1.3-7.6 1.2-11.5v-11c0-1-.2-2.1 1.1-2.9.3.3 1 .6 1 1 .8 1.7 1.3 3.5 1.7 5.3.8 4 1 8.2.7 12.3-.2 1.5-.3 3.1-.2 4.7 0 .4.5.9.8 1.3-2 .7-4.1 1-6.3.8ZM224.3 600.6h2.3l3.4-9.3c-1.1-3-2.4-5.7-3.3-8.7l-4.5-15.6c-.4-1.7-.6-3.4-.6-5 0-.8.1-1.5.3-2.1h1.4c1.3 1.8 2.2 3.8 2.7 6l4.2 12.5c.5 1.9 1.2 3.7 2.1 5.4l.6-.3 4.1-8.7-2-11.1c-.4-2.3-.3-4.6.3-6.8l1-1.5c1.7.5 2 1.7 2.3 2.8.5 2 .8 4.1 1.2 6.2l.8 2.6c1.4-1.2 2.5-2.6 3.3-4.2a42.3 42.3 0 0 1 8.1-9.8 5 5 0 0 1 1.9-.2c.2.7.3 1.4.2 2-.3 1.3-.8 2.5-1.5 3.6l-5.3 9.7a683 683 0 0 0-7.7 14.9l.1 1.3c.5 0 1-.2 1.4-.4l9.7-6.4 5.1-3.7 1.8-.8c.8.6.8 1.2.5 1.7a31 31 0 0 1-2.7 3.3c-3.8 3.7-8.1 7-12.8 9.7l-6.5 4.1c-2.3 4.4-3.3 9.2-5.2 13.6a12 12 0 0 1-6.7-4.8ZM285.5 644.4c.5-1 1-2 1.3-3.1 1.5-4.8 3.3-9.4 5.5-14 .3-.7.8-1.4 1.4-2 .5-.3 1.1-.5 1.7-.6a2.7 2.7 0 0 1 .5 3l-2.6 8.1-.4 2c.5 0 .8.4 1 .3l8.3-4.5c2.7-6.8 6-13.5 9.8-19.8.4-.4.7-.8 1.2-1 1.6.1 1.6.1 2.5 1.6l-3.4 8a52.8 52.8 0 0 0-3.5 8.3l15.3-4.2c3.6-4.3 6-9.5 10-13 .6.1 1 .4 1.6.7l.7 1.1c-1 3.4-3.7 6-5 9l.3.6.4.1 12-.9c1.9-.7 3.2-3.1 5.9-3.8l1.7 1-.3 3.2 3.7 1a74.2 74.2 0 0 1 5.4 1.8 1.6 1.6 0 0 1 .6 1.8 2 2 0 0 1-2.2 1c-1.4 0-3-.3-4.3-.5-9.3-1.4-18.8-1-28 1.1a90.8 90.8 0 0 0-22.4 7.2c-5 2.3-9.7 5.3-14 8.9-1.8-.3-3.4-1.1-4.7-2.4ZM147.2 553.3l3.3 2.4 4.2 3.4.7.4v-1l-1-5.5a4 4 0 0 1 .4-3.5c.5 0 1 0 1.5.3 1.1.8 2 2 2.4 3.3l5.8 16.8 3.6 4.2c0 .2.5.2 1 .3a17 17 0 0 0-.4-5.3c0-1.7-.5-3.4-.5-5.1a6.6 6.6 0 0 1 .8-5.5l1.6 1.4c.5.9.8 1.8 1 2.8a547.5 547.5 0 0 1 2.6 15.5c.2 4 1.5 7.9 3.9 11.1a51 51 0 0 1 3.5 7.2c-1.5.7-3 1-4.7.9l-1.7-3.4-9.2-.8a9.5 9.5 0 0 1-4.2-4.2l8.4.2c.5 0 1.2 0 1.5-.9-1.4-2.5-3-4.8-4.6-7.1-3.4-1-7-1.3-10.6-1.1a9.7 9.7 0 0 1-2.8-5l7.6.3c.2 0 .4 0 .5-.2l.1-.3c0-.3 0-.5-.2-.8a59.1 59.1 0 0 0-11.6-12.5l-1.5-.5c-.8-2.5-1.3-5.1-1.4-7.8Z" fill="#89C5AC"/>
    <path d="m-27.9 468.1-1.9-1.5c0-.5 0-.8.3-1 .8-1.4 1.7-2.6 2.7-3.9l6.5-7.3 5.6-5.3 1-.8c5.6-6 12-11.2 19-15.7 4-2.7 7.8-5.7 11.7-8.6 1.2-1 2.4-2 3.8-2.8 4.8-2.8 9.8-5.1 15-7l6-2.3a3.5 3.5 0 0 1 4.7 1.6 3 3 0 0 1-1.7 3.2 64 64 0 0 1-6 2.6c-3.6 1.6-7.3 3-11 4.7a39.5 39.5 0 0 0-8.9 6c-4.5 3.5-9.2 6.6-14 9.8-5.4 3.8-10.5 8-15.3 12.5-5.3 4.7-10.5 9.6-15.6 14.6-.6.5-1.2.9-1.9 1.2ZM-15 477.7l-.3-2.7c.3-1 .7-2 1.3-2.7 2-3.2 4.3-6 7-8.7l13.8-14A115.8 115.8 0 0 1 38 427.1a5.3 5.3 0 0 1 4.7-.8 2.1 2.1 0 0 1 .7 2.5c-.6 1.9-2 3.5-3.8 4.4-4.3 2.5-8.7 5-12.8 7.7-4.6 3-9 6.5-13.4 9.8l-1.2 1.2-24.6 23.8-2.6 2ZM225.4 612.2l1.9-1.3c.9.5 1.7 1 2.5 1.7 3.9 3.5 7.5 7.3 11.6 10.6 4 3.3 8.3 8.3 13.4 11.2l3.6 3c4 3.1 8.4 5.9 13 8.3a86.2 86.2 0 0 1 8.3 5.6c.3.6.6 1.3.6 2a6 6 0 0 1-1.5.4c-2.4 0-4.8-.6-7-1.9-5.9-2.7-11.5-6-16.7-10a186 186 0 0 1-24-21.1 71.7 71.7 0 0 1-4.8-6l-1-2.5ZM226.8 629l1.3-1.4a4.3 4.3 0 0 1 3.7 2c5 5.9 10.7 11.2 16.8 15.9l5.7 4.5c1.3 1 2.5 2.2 3.3 3.7a3 3 0 0 1-1.6 2.4 9.1 9.1 0 0 1-5-2 128.2 128.2 0 0 1-16.4-13.6 63.6 63.6 0 0 1-6.4-8.5l-1.4-3Z" fill="#FFDACE"/>
    <path d="M231.7 606.1a254 254 0 0 0 27.7-19.2l2.4-1.7 1.3-.4 1.2.8a4.1 4.1 0 0 1-1.8 3.4l-8.5 7.7c-5.8 4.6-12 8.8-18.3 12.6l-4-3.2Z" fill="#89C5AC"/>
    <path d="M187.7 533a3 3 0 0 1 2.8-1.7c3-.3 5.8-1 8.6-2.3 4.8-2 8.8-5.7 11.4-10.4a27.6 27.6 0 0 1 2-3 1.7 1.7 0 0 1 2 0 7.1 7.1 0 0 1-.9 6.8c-2.8 5-7.2 8.9-12.6 11-2.2.8-4.5 1.5-6.9 2a6.3 6.3 0 0 1-5.3-1c-.4-.4-.8-.8-1-1.3Z" fill="#FFDACE"/>
    <path d="m217.9 597.8-3.8-9a87.3 87.3 0 0 1-5.7-17.8c0-1 .6-1.5 2-1.3l1.1 1.4 2.5 5.5c3 7.2 6.1 14.3 9.7 21.3.5.9 1.2 1.7.6 2.8-2.2-.7-4.4-1.7-6.4-3Z" fill="#89C5AC"/>
    <path d="M218.7 525c2-2 3.8-3.6 5.6-5.2 2-2 3.6-4.4 4.6-7 .3-1.1.5-2.3.6-3.4a4.5 4.5 0 0 1 1.5-3.4 2.4 2.4 0 0 1 3.2.8 12.5 12.5 0 0 1-1.3 9.6 27.3 27.3 0 0 1-7.6 9 6.1 6.1 0 0 1-4.8 1.5c-1 0-1.2-.3-1.8-2Z" fill="#FFDACE"/>
    <path d="m243.9 615.8 7-4.8 7-4.9c2-1.9 4.4-3.5 7-4.8l1 .5c0 .4.3.7 0 1-.8 1.4-1.8 2.7-3 4a68.4 68.4 0 0 1-10.5 9l-4.3 3-4.2-3Z" fill="#89C5AC"/>
    <path d="M156.5 580c3.5-.1 7.1.2 10.6 1.1 1.6 2.3 3.2 4.7 4.6 7.1-.4 1-1 1-1.5 1l-8.4-.2c-2.2-2.7-4-5.7-5.3-9ZM148.6 561.1c.6.1 1.1.3 1.6.6 4.4 3.6 8.3 7.8 11.6 12.5l.2.8-.2.3-.4.2-7.6-.3c-2.3-4.5-4-9.2-5.2-14Z" fill="#2B3D2D"/>
    <path d="M243.6 658.4a5 5 0 0 1-5.6-1l-7-7a4 4 0 0 1-1.2-4.5 2 2 0 0 1 3-.2l2 1.7 7.8 7.2c.6.6 1 1.3 1.3 2.1l-.3 1.7Z" fill="#FFDACE"/>
    <path d="m196.9 592.8-1.5-6c-.3-1.2-.2-2.4 1.1-3a2.7 2.7 0 0 1 2.5 1.9c1.1 2.4 2 4.9 3 7.3l-5.1-.2Z" fill="#89C5AC"/>
    <path d="m166 593.3 9.2.7 1.7 3.4a4.4 4.4 0 0 1-3.6.3 10.3 10.3 0 0 1-7.3-4.4Z" fill="#2B3D2D"/>
    <path d="M61.5 419a5.1 5.1 0 0 1-4.3 3.3l-2.2-1.1v-2.6a4.2 4.2 0 0 1 3.6-2 2.6 2.6 0 0 1 2.9 2.3ZM243.8 504a2.4 2.4 0 0 1-3.6-.4c-.6-2.3-1-4.6 1.6-6 1.5 0 2.2.9 3 2.3l-1 4Z" fill="#FFDACE"/>
    <path d="m255.8 625.4 3-2.3a1.7 1.7 0 0 1 2.3.2c.7 2-.6 3-1.8 4.2-1.4-.2-2.6-1-3.5-2Z" fill="#89C5AC"/>
    <path d="M155.4 558.3v1.1l-.7-.4.7-.7Z" fill="#2B3D2D"/>
    <path d="M95.9 550.6Z" fill="#FA8F6B"/>
    <path d="M134.1 640.8c0 1 .3 2 .7 3a6.9 6.9 0 0 0 13.2-3v-.7a7 7 0 0 0-4.7-5.9h-.1l-2.1-.3h-1a6.9 6.9 0 0 0-6 6.9Zm3.6-1.5c.3-.7.8-1.3 1.4-1.6a4 4 0 0 1 1.9-.6l1 .1a3.7 3.7 0 0 1 2.7 3.6v1a3.7 3.7 0 1 1-7-2.5Zm-10.5-3c-.4 1.5-.7 3-.7 4.5v1.7l.6 3 .3.6a14.5 14.5 0 0 0 28-3.7V641a14.5 14.5 0 0 0-11.4-14.2l-1.1-.2H139.3l-1.6.3a14.2 14.2 0 0 0-8.3 5.5c-1 1.2-1.6 2.5-2 3.9l-.2.1Zm3.8 9c-.4-1-.7-2.2-.8-3.3V641a10.7 10.7 0 0 1 3.5-8.1 11 11 0 0 1 6-2.8h1.5c.6 0 1.2 0 1.7.2l1.3.3a11 11 0 0 1 8 10.5v.8c-.1 1.1-.4 2.2-.8 3.3a11 11 0 0 1-20.2.3l-.2-.2Zm35.2-4.4a7 7 0 1 0 13.8 0v-.7a7 7 0 0 0-4.6-6h-.2l-2-.3h-1a6.9 6.9 0 0 0-6 6.9Zm3.5-1.6a4 4 0 0 1 3.3-2.2l1 .2a3.7 3.7 0 0 1 2.8 3.6l-.2.9a3.7 3.7 0 0 1-3.6 2.8 3.7 3.7 0 0 1-3.4-5.3h.1Zm-10.4-3c-.5 1.5-.7 3-.7 4.6v1.6c0 1 .2 2 .6 3l.2.6a14.5 14.5 0 0 0 28-5.1 14.7 14.7 0 0 0-11.3-14l-1.2-.3h-3.7l-1.6.3a14 14 0 0 0-8.4 5.5c-.8 1.2-1.5 2.5-2 3.9h.1Zm3.8 9c-.5-1-.8-2-.9-3.2V641a11 11 0 0 1 9.5-10.8h1.6l1.8.1 1.2.3a11 11 0 0 1 3.3 19.6 11 11 0 0 1-16.3-4.7l-.2-.1Zm-2.3-17.1a3.7 3.7 0 0 0-2.8-3.5h-1a3.8 3.8 0 0 0-3.6 3.6c-.7-.7-1.5-1.4-2.4-2l-.3-.3a7 7 0 0 1 5.5-4.4h1c.7 0 1.3.1 2 .3h.2a7 7 0 0 1 4.2 4.2c-1 .6-1.8 1.3-2.7 2.1h-.1Zm30.4 11a11 11 0 0 0 1.7-21.4l-1.3-.3-1.7-.1h-1.6a11 11 0 0 0-8.7 6.7l-.6-.2c-.7-.3-1.3-.5-2-.6l-.8-.2a15 15 0 0 1 7-7.8c1-.6 2-1 3.2-1.3l1.7-.3h3.5l1.2.3c.5 0 1 .2 1.6.4a14.1 14.1 0 0 1 8.8 8.5c.6 1.7 1 3.5 1 5.2v1.6a14.5 14.5 0 0 1-12.9 12.9v-2l-.1-1.5v.1Zm-2.3-7.3 1.1.2a3.8 3.8 0 0 0 3.6-2.8v-1a3.7 3.7 0 0 0-2.7-3.6h-1a3.8 3.8 0 0 0-3.3 2.2c-.2.5-.3 1-.3 1.6v.2c-.9-1-1.8-1.7-2.8-2.5a7 7 0 0 1 5.7-4.8h.9c.7 0 1.4 0 2 .3h.2a7 7 0 0 1 2.8 11.3c-1.3 1.3-3 2-4.7 2.1l-.2-.7-1.3-2.7v.2ZM167 624a11.1 11.1 0 0 0-7-6.3l-1.3-.3-1.7-.1h-1.6a10.8 10.8 0 0 0-8.5 6.6l-.4-.1c-.6-.3-1.2-.5-1.9-.6l-1.2-.2a13.6 13.6 0 0 1 3.4-5.3 14.2 14.2 0 0 1 6.8-3.8l1.7-.3h3.5l1.2.3c.5 0 1 .2 1.6.4a14.1 14.1 0 0 1 8.8 8.5l-1.4.3-2 .8Zm-65 16.8c0 1 .3 2 .7 3a6.9 6.9 0 0 0 13.2-3v-.6a7 7 0 0 0-4.7-6h-.1l-2-.3h-1a6.9 6.9 0 0 0-6 6.8v.1Zm3.6-1.5c.3-.7.8-1.2 1.4-1.6.6-.4 1.2-.6 1.9-.6.3 0 .7 0 1 .2a3.7 3.7 0 0 1 2.7 3.5l-.1 1a3.7 3.7 0 0 1-5.4 2.3 3.7 3.7 0 0 1-1.6-4.8Zm-10.4-3c-.5 1.5-.8 3-.8 4.6v1.6c.1 1 .3 2 .7 3l.2.6A14.5 14.5 0 1 0 117 629a15.4 15.4 0 0 0-5-2.1l-1.2-.3h-3.7l-1.7.3a14.2 14.2 0 0 0-8.3 5.5c-.9 1.2-1.5 2.5-2 4Zm3.7 9c-.4-1-.7-2.1-.8-3.2V641a10.7 10.7 0 0 1 3.5-8c1.7-1.6 3.8-2.6 6-2.8h1.6l1.7.1 1.2.3a11 11 0 1 1-8.8 19.7 11 11 0 0 1-4.1-4.8l-.3-.1Zm29.8-17.2a3.7 3.7 0 0 0-2.7-3.4h-1a3.8 3.8 0 0 0-3.7 3.6 18.3 18.3 0 0 0-2.7-2.3 7 7 0 0 1 5.5-4.4h1c.7 0 1.4 0 2 .3a6.9 6.9 0 0 1 4.3 4.2c-1 .6-1.9 1.3-2.7 2Zm6.4-4a11 11 0 0 0-7.2-6.4l-1.2-.2-1.7-.2h-1.6a11 11 0 0 0-8.6 6.7l-.4-.2-1.9-.5-1.2-.3a14.6 14.6 0 0 1 10.2-9l1.7-.3h3.5l1.2.2 1.6.5c1.2.4 2.3 1 3.4 1.7 2.5 1.6 4.5 4 5.6 6.8l-1.3.2-2.1.8v.2Z" fill="#F6C168"/>
    <path d="M1867 662H-4v718h1871V662Z" fill="#89C5AC"/>
    <path d="m160.2 399.6-14-2.6c-2.8-3.7-5.6-7.4-8.3-11.3l-7.7-11.3c-1.5-2.2-3-4.4-4.7-6.6a1.1 1.1 0 0 0-1.4-.6c0 .2-.4.5-.3.7 3 10.5 9.5 19 15.4 27.9l-.9.6-14.3-1.2a207.5 207.5 0 0 0-31.7.6l.5-9.8a306.3 306.3 0 0 0 0-13 5 5 0 0 0-1-1.9l-1.8.3c-1.2 3.5-2 10.3-2.6 24.8l-6 .7-2.5-5 1.1-6.7a81.4 81.4 0 0 0 1.2-19.2c0-1.8-.4-3.6-1.3-5.1l-1.2-.3-.9 2.1L77 373c-.2 4-1 7.8-2 11.6-1.7-1.8-3-3.8-4.1-6v-19.4a20.5 20.5 0 0 0-1-5.2 1.6 1.6 0 0 0-1.8-.5c-1.2.6-1.2 1.7-1.3 3 0 4.2 0 8.5-.2 12.8 0 .5 0 1.1-.8 1.2l-.7-.5c-3.3-4.5-6.5-9-9.9-13.4-3.3-4.5-6.6-8.6-10-12.9a7.5 7.5 0 0 0-4.7-3l-1.4 1.8c6 8.4 12.1 16.3 18 25.3-3.2-.6-5.7-1.8-8.3-2.2-2.6-.5-5.4-2-8.5-1v2.2c3.3 1.8 6.8 3.2 10.4 4 3.6 1.2 7.4 2.2 11 3.2 2.7 3.3 5 7 6.6 11-3.6-.7-7-.9-10.2-1.7l-10.4-2.5c-3.3-1-6.5-2-9.9-2.6l-.8 1.7c.5.7 1.2 1.3 1.9 1.8 1.6.9 3.3 1.6 5 2.3 6.5 2.3 13.1 4 19.9 5l8 1.4c1.7 2.3 3.2 4.8 4.4 7.4L64 400.3c-1.1-.3-2.2-.6-3.3-.7-4.2-.7-8.4-1.1-12.6-1.9-3-.5-5.8-1.5-8.7-2.2h-2.2a2 2 0 0 0 .8 3c2.1 1 4.2 1.8 6.4 2.5 2.6 1 5.4 1.7 8 2.5l-10.8 3-3 .4-3.4-2.6A25.8 25.8 0 0 1 29 398c-.8-1.2-1.9-2.1-2.7-3.3a5 5 0 0 1-.9-2.3 3 3 0 0 1 4-3.2l3 1.5c.7-.7 0-1-.4-1.4-3.3-4.9-7.6-9-10.7-14.2-.8-1.2-1.5-2.4-2.1-3.7-.5-1-.8-2-1-3a3.3 3.3 0 0 1 3.5-3.8c1.8 0 3.6.7 5.1 1.9l5 3.3c.5.6 1 1.3 2.2 1a2.7 2.7 0 0 0-1.3-2l-5.6-8.1c-1.2-1.4-2-3.1-2.3-5 1.3-3.7 1.4-3.7 6.5-4 .1-1.2-.8-2-1.2-3l-1.5-3.2a3.2 3.2 0 0 1 2.6-4.2h1.7l1.3-.3c0-1.8-.3-3.4-.3-5.1v-7.3c0-.5 0-1.1.2-1.7a4 4 0 0 1 6.1-3c1.9 1.1 3.6 2.4 5.3 3.6 2.3 1.6 4.5 3 6.8 4.8l1.8-2.4a10 10 0 0 1 2-1.1 6.8 6.8 0 0 1 5.7 3.7c1.7 2.6 3.2 5.4 4.8 8 .4.7.7 1.3 1.6 1.3l.3-2 .5-2a4.2 4.2 0 0 1 7.5-1.5c1 1.1 1.6 2.4 2.2 3.7l5.2 12.6 1.9 5.2c.2.7.3 1.4 1.3 1.8l.5-1.4c.2-1.5.2-3 .5-4.6.3-1.3.8-2.5 1.4-3.6.3-.8 1-1 3.3-1.7a6.2 6.2 0 0 1 5.2 3.9 32 32 0 0 1 2 5.3c.7 2.1 1.2 4.4 1.8 6.6l1.1 3.8c.7-1.5 1.2-3.1 1.4-4.8a49.4 49.4 0 0 1 5.4-14.8 5.1 5.1 0 0 1 7.5-1.3c1.7 1.3 3.2 3 4.2 4.8l1.5 3.2c.4-.2.9-.2 1.1-.5a7.7 7.7 0 0 1 6.4-3.7c.7-.6.4-1.5.6-2.3 0-2 .3-4 .7-6 .5-2.7 1.8-3.5 5-3.5h1l.8-5.9c.3-2 .5-3.4 1-5 .7-3 1.7-3.4 5-3.4l1-.2.8-2.8c.5-1.4.9-3 1.5-4.4 1-2.5 2.4-3 5.1-2.3l1.4.5c.4-1.1.7-2.2 1.2-3a24 24 0 0 1 1.8-3.8 3 3 0 0 1 5-.3l1 1.2c1.2 0 1-1.2 1.4-1.9 1.1-2 2-4.1 3.2-6a4.2 4.2 0 0 1 4.5-2.2l2.3 1.5a4 4 0 0 0 1-.6 54.4 54.4 0 0 1 12.7-10.8 4.3 4.3 0 0 1 6.3 3c.2 1 .3 2 .2 3 0 1 0 2.2-.2 3.2 1 1 1.8.3 2.6.3a3.5 3.5 0 0 1 4 3.4 29 29 0 0 1 0 4.3l-.1 3.2c.8 1.1 1.6.4 2.4.4 2.4 0 4 1 4.1 3.4a49 49 0 0 1 0 7.2c-.2 2.4-.6 4.8-1 7.2l1.4.5a6.2 6.2 0 0 1 5.6 5.6c.6 3.4.6 6.9 0 10.2-.7 3.4-1.7 6.7-2.6 10-.3 1-.8 2-1 3 .3 1 1.1.7 1.8.8a4.9 4.9 0 0 1 4.4 6 52.7 52.7 0 0 1-7.7 15.6l-2.7 3.8 2 1.8a4.8 4.8 0 0 1 1.4 5c-.4 1.5-1 3-1.8 4.4-2.1 3.7-5 7-8.5 9.5l-8.9 7.2c-2.3-1-4.6-2-6.8-3.2a88 88 0 0 0-16.8-7.3l2.1-16.5c1-6.6 2.3-13.2 3.4-19.6 4.8-4.4 9.2-9.3 13-14.5 1.4-1.8 3-3.5 4.5-5.2 1-.9 1.9-2 2.4-3.4 0-.9-.4-1.4-1.6-1.4-2.2 1.8-4.7 3.8-7 6a28 28 0 0 1-7.5 5.6 6 6 0 0 1 1-5.4l5.1-7.4 9.8-13.5c.4-.7 1-1.4.3-2.4-1-.2-1.5.6-2 1.1l-7.8 6.8c-.4.3-.9.6-1.4.7-.5-3.2-.5-3.2.2-5.2l4-12.2c.4-1 .8-1.8 1-3 .3-1.1-.1-1-1.1-1l-2.3 4.5c-.7 1.4-1.3 3.1-2.1 4.6-.5 1.8-1.3 3.4-2.3 4.8a71.2 71.2 0 0 1-5.1-10.3c-.5-.7-1.1-.8-2 0-.2.6-.2 1.3-.3 1.9.2 2.8.8 5.7 1.9 8.3 1.3 3.1 2.3 6.4 3 9.8l-1 3-1.2 3.2c-.5 1-.3 2-1.5 2.5a37 37 0 0 1-4-5.6c-1-2.2-2.1-4.4-3.3-6.5a40 40 0 0 0-3.4-6.4c-.5.6-1 1-1.1 1.4a7 7 0 0 0 .3 4.2c.8 2.3 1.5 4.6 2.4 6.8l6.7 16.2a29 29 0 0 1-3 9.5c-1-1.2-2-2-2.7-3a144.9 144.9 0 0 0-14-17.2h-1l-.8 1.3c6.1 9 12 18.3 17.2 28l-3 17.8c0 .2-.4.4-.6.7l-1.1-.5a93.6 93.6 0 0 1-10.3-10.2c-5.7-6.5-11.7-12.1-16-19.3 0-.2-.7-.3-1.3-.5v2.2c.5 1.6 1.1 3.2 2 4.7a107.7 107.7 0 0 0 25.4 31l-.2 2Z" fill="#2B3D2D"/>
    <path d="M160.2 399.6v-2.2a107.5 107.5 0 0 1-25.5-30.9c-.8-1.5-1.4-3-2-4.7v-2.2c.7.2 1.3.2 1.4.5 4.5 7.2 10.5 12.8 16 19 1.7 2 3.4 4 5.2 5.8 1.8 1.8 3.3 3 5 4.5l1.2.5c.2-.3.6-.5.6-.7l3-17.9c-5.3-9.6-11.1-18.9-17.2-28l.8-1.1h1a144.7 144.7 0 0 1 14.2 17l2.7 3a29 29 0 0 0 3-9.6l-6.7-16.1c-.9-2.3-1.6-4.6-2.4-7a7 7 0 0 1-.3-4.1c0-.4.6-.8 1-1.4 1.4 2 2.6 4 3.6 6.2l3.4 6.4a37 37 0 0 0 3.8 5.7c1.2-.6 1.2-1.7 1.6-2.5l1.2-3.3.9-3c-.6-3.3-1.6-6.6-3-9.7a24.3 24.3 0 0 1-1.8-8.3c0-.7 0-1.3.2-2 1-.6 1.6-.5 2 0 .5 1 1 1.8 1.3 2.8a71 71 0 0 0 3.9 7.8c1-1.4 1.8-3 2.3-4.7l2.1-4.7 2.2-4.4c1 0 1.4.3 1.3 1l-1 3-4.1 12c-.7 2.1-.7 2.2-.2 5.3.5-.1 1-.3 1.4-.6l7.7-6.9c.6-.5 1.1-1.3 2-1 .9.9 0 1.6-.2 2.3l-9.9 13.9-5.2 7.3a6 6 0 0 0-.9 5.4 28 28 0 0 0 7.4-5.5l7-6c1.2 0 1.6.5 1.6 1.4a8.1 8.1 0 0 1-2.4 3.4l-4.5 5.3c-3.8 5.2-8.2 10-13 14.4l-3.4 19.6c-.8 5.5-1.4 11-2.1 16.6l-6.2-1.6ZM76.2 397.8c-1.2-2.6-2.7-5-4.4-7.4l-8-1.3a114 114 0 0 1-19.9-5.2c-1.7-.7-3.4-1.4-5-2.3-.7-.5-1.4-1.1-2-1.8l1-1.7c3.3.7 6.5 1.6 9.8 2.7 3.5.7 6.9 1.6 10.4 2.4 3.5.9 6.6 1 10.2 1.7-1.6-4-3.9-7.7-6.7-11-3.5-1-7.3-2-10.9-3.3-3.6-.7-7.1-2-10.4-4v-2c3-1 5.8.4 8.5.9s5.1 1.6 8.3 2.2c-6-9-12.2-16.9-18-25.3l1.4-1.9c2 .4 3.6 1.6 4.7 3.2l10 12.8L65 370l.7.5c.8 0 .7-.6.8-1.2 0-4.3 0-8.5.2-12.8 0-1.2 0-2.3 1.2-3a1.6 1.6 0 0 1 2 1.2c.5 1.5.7 3 .8 4.6v19.4c1 2.2 2.4 4.2 4 6 1.2-3.8 2-7.7 2.1-11.7l.9-10.2c.1-.8.4-1.5.8-2.2l1.3.3c1 1.6 1.4 3.4 1.3 5.2.3 6.5 0 12.9-1.2 19.2-.5 2.2-.8 4.5-1.2 6.8l2.6 5c-1.7.6-3.4 1-5.2.8ZM138.3 396.3l.9-.7c-6-8.9-12.5-17.2-15.4-27.7l.3-.7a1.1 1.1 0 0 1 1.4.6l4.7 6.6c2.6 3.7 5 7.6 7.7 11.3l8.3 11.3-7.9-.7ZM87.2 396.2c.7-14.4 1.5-21.2 2.6-24.7l1.8-.3a5 5 0 0 1 1.3 4.1c0 3.6 0 7.2-.2 10.7l-.5 9.9-5 .3ZM52.4 403.6l-8.1-2.5a60.7 60.7 0 0 1-7-3 2 2 0 0 1-.2-2.5h2.3c3 .7 5.7 1.7 8.6 2.2 4.2.8 8.4 1.2 12.6 1.9 1.1 0 2.2.4 3.3.7l-11.5 3.2Z" fill="#89C5AC"/>
    <path d="M32.9 369a2.7 2.7 0 0 1 1.3 2c-1.3.4-1.7-.4-2.3-1l1-1Z" fill="#FFDACE"/>
    <path d="M1253 1223.9c60.8-43.3 141-99 139.8-228-1.1-110-78.8-228.4-106.8-264.3-16.8-21.5-43.2-50-61.8-69.6H-4.1v13.5c54.3 37.2 149.4 70.5 209.4 74 28.7 1.8 88.5 1.8 127.1 8.8 38.7 7 55.7 24.2 58 73.8 2.3 51.4 37 37.1 115.4 38.7 101.5 1.9 135 42 163.7 73.7 28.7 31.6 52.9 58.1 125.8 59 64.4.9 116.5 19 144 42.9 30.5 26.6 104 149.5 31.4 243.8-38.5 50-77.3 76.1-105 89.8H1086c22.4-47 106.2-112.8 167-156.1Z" fill="#F1EBDF"/>
    <path d="M220.2 481h-1.6a2.4 2.4 0 0 1-1.8-.6 9 9 0 0 1-2-2.6c-1-2-2.3-3.7-3.7-5.3l-3.8-4c-.6-.6-1-1.3-1.7-1.9-1.4-1.3-3-2.6-4.6-3.8l-2.2-1.8-4.7-3.3-3.3-2.5-1.7-1.2-2.5-1.9a37.3 37.3 0 0 0-6-3.4c-1.4-.8-3-1.6-4.3-2.5l-4.5-2.6-3.4-1.4-4.2-1.8-.4-.3c-1-1-.6-1.6.4-2.1a2.7 2.7 0 0 1 2.1.1l4 1.4 4.1 1.3c1.5.4 2.9 1 4.3 1.6l6 2.7 4 2 1.7.8c2.7 1.2 5.3 2.6 7.8 4.2l6.1 4.4 3 2.5 2.7 2.3 1 1 .7.9 2.4 2.4a39.3 39.3 0 0 1 7.5 10.7 3.7 3.7 0 0 1-1.2 4.4l-.2.3Z" fill="#FFDACE"/>
    <path d="M65.8 712c.4-.7.6-1.3 1-1.6l12.5-9c1.2-1 2.7-1.6 4.3-1.8 5-.4 10.2-.3 15.3.3a32 32 0 0 1 14.5 6.2c3 2 5.9 4 8.7 6.1 3.2 2.5 6.6 4.5 10.3 6.1 6.6 3 13 6.4 20 8.7 6.3 2.5 13 4.3 19.7 5.5 3.8.4 7.7.5 11.5.4 1 0 2-.4 2.8-.9a3.6 3.6 0 0 0 2.3-4.1v-1.4l6.8.8c1.9.2 3.7.3 5.6.3 2.7 0 5.4-.4 8-.7a6.2 6.2 0 0 0 5.2-3v-2.7l.9-.4 8-.7c1.8-.1 3.4-.8 4.7-2a3 3 0 0 0-.4-5 22 22 0 0 0-4.4-1.6 9.4 9.4 0 0 1-3.2-1.4h4.4c1.4 0 2.9 0 4.3-.3 3.7-.6 7.3-1.2 11-2 .9-.2 1.8-.6 2.6-1.2a4 4 0 0 0 1.2-6.2l-.5-.6-.6-1 1.7-1 9.2-3.6 2.4-1.2a3.6 3.6 0 0 0 .9-3.8 6 6 0 0 0-2.6-3.3l-10.6-6.3-4-2.4c0-1.1.9-1.2 1.3-1.7a3.5 3.5 0 0 0-.3-5.6c-.6-.4-1.1-.9-1.7-1.2l-8.6-4.9-16-4.1 2.9-1.3a3.6 3.6 0 0 0 .7-6 9 9 0 0 0-3.4-1.6c-2-.4-4-.6-6-.8h-4l.5-3a4.2 4.2 0 0 0-3.3-2.9c-3.5-.8-7-1-10.6-.6l-3.8.4a8 8 0 0 1-.6-1.3c-.3-3-2.3-4.1-5-4.4a13 13 0 0 0-3.3 0c-5.1.6-10.1 1.9-15 3.8a103.5 103.5 0 0 0-33 19.2c-1.1 1-2.3 1.8-3.4 2.6-3.6 4-7.1 8.2-10.6 12.3l-.8 1a17 17 0 0 1-12.7 7.8c-1.4.5-3 .6-4.5.4-.2-1.4.8-1.9 1.4-2.6 2-2.7 4-5.2 5.7-8 1.8-2.7 3-5.9 3.5-9.1.1-.7.4-1.4.7-2v-4.1l2.3-2.8c3.6-4.4 6.4-9.5 8.3-14.9a3.7 3.7 0 0 0-.6-4.4 3.2 3.2 0 0 0-3.9.4c-1.3 1-2.5 2-3.6 3.2-1 1-1.9 2-2.8 3.2-.8-.9-.3-1.5 0-2 2.7-5.4 4.9-11 6.3-16.9 1-3.2 1.5-6.6 1.4-10 0-2.4-.9-3.2-3.2-4l-.9-.1-.8-.7 1.1-6c.6-3.6.6-7.2 0-10.7a7.5 7.5 0 0 0-4.6-6.8l-.3-3-.8-13.2c-.2-2.7-1-5.3-2.2-7.7a3.4 3.4 0 0 0-6-.8l-3 4.8c-.8 0-1.7.2-2.6.4-.8.3-1.5.7-2.2 1.2 0 .3-.1.5-.3.8l-.9 1.5a9.4 9.4 0 0 0-7.9 5c-1.2 2-2.6 3.7-4 5.6-1.1-.8-.4-1.6-.3-2.4 0-.7.3-1.6.4-2.5 0-.8 0-1.7.2-2.5.3-.9.5-2 .6-3V563.5c0-.8 0-1.7-.2-2.6l-2.4-2.7v-2.3c.4-3.8.7-7.7 1.2-11.5.3-3.2 0-6.5-.8-9.7-.2-.7-.5-1.3-1-2l-.9-1.2-3-.2c-.1-.3-.4-.5-.4-.8-.7-3.6-1.2-7.3-2-10.9-.2-1-.7-2-1.3-3a3.5 3.5 0 0 0-4.8-1.2l-2.2 1.4c-1.4-2-.8-4.5-1.5-6.7-.8-2.1-1-4-1.6-6.2l-1.6-2c-1.8-2-3-2-5.6-.6l-1.1.5c-1-1.2-1.9-2.6-2.5-4l-3.1-5.6a5.5 5.5 0 0 0-4-3c-2.5.8-2.5.8-3.7 3.2l.7 4.4a8.6 8.6 0 0 0 0 7.9c.6 1.4 1 3 1.3 4.5v1.6l-2.4-1a2.8 2.8 0 0 0-3.6 1.6c-.5 1.4-.9 2.7-1.2 4.1l-.5 3a7 7 0 0 0-3.3 6.4l-.4 12.3c-.6-1-1-2.2-1.5-3.3-.8-2-1-2-3.7-3a3.6 3.6 0 0 0-3 3.2l-.9 7.2v5.8c-.5 0-1 .3-1.5.4a5.5 5.5 0 0 0-5 4.6c-.3 1.9-.3 3.7 0 5.5l.8 6c0 .3 0 .7-.3 1.4-1-1.3-1.6-2.8-2-4.4L8.8 556l-1.3-4.5c-.5-1.5-.2-3.2-1.9-4.4l-1.6.4v3c.4 3 1 6.2 1.8 9.2 1.2 3.4 1.9 6.9 2.1 10.4l.5 14.2c-.8 1.3-1.7 1-2.6 1-1.4-2.9-2.7-6-3.7-9l-3.8-8.5h-1.4c-1 1-.6 2.2-.3 3.3L2 589.7c.6 2.3 1.5 4.5 2.2 6.6-.5 1.4-1 2.9-1.3 4.3-.2 1.1-.3 2.2-.1 3.3.5 5.5 1.5 11 2.8 16.4l-.2.4c-.6.5-1.3.2-2.1 0a76.1 76.1 0 0 1-6-11.6l-7.3-17.3c-.4-.8-.6-1.7-1.7-1.6-1 .7-.7 1.5-.5 2.3.7 2.8 1.3 5.6 2.1 8.3 2.6 9 6 17.5 10.4 25.7 1.4 2.6 2.3 5.5 2.6 8.4-1.3 4-2 8.6-4 13a35 35 0 0 1-6.4-7.5c-1.8-2.6-3.2-5.5-4.8-8.2-1.6-2.6-2.7-6-4.4-8.4-1.5-.3-2 .3-2.1 1.3a55.1 55.1 0 0 0 9.5 20.8c2 3 4.3 5.6 6.6 8.6 0 .7-.2 1.5-.4 2.3l-4.2 14.9-1.7 7.5a4.5 4.5 0 0 0 .6 4l1.9.2c5.5-12.6 8-26 12-39 .5.4 1 .6 1.1 1 1.2 2.4 2.4 4.8 3.4 7.3 2.1 5.2 4.9 10 8.2 14.5.7 1 1.7 2 1.6 3.4.4.1 1 .2 1.2.5l4.4 5.2c-1 5-.5 10-2 14.9 0 0-4.6 30.7 3.9 37 8.5 6.2 29-7.6 38.6-16.3Zm40.8-22.8c6.7-.7 13.3-1.7 20-2.6 1-.2 2-.4 3-.8l1.7-3.8c4-9.5 9.3-18.3 15.9-26.3 1.5-1.7 3.3-3.1 5.4-4l1.1.8c-.7 1.8-1.7 3.6-3 5-4.8 7.1-9.2 14.5-13 22.1-.8 1.5-1.4 3-1.6 4.7.4.3.6.6.8.6h7l1.7-3a118 118 0 0 1 9.5-16.2 72 72 0 0 1 10.9-12.6c1.4-1.2 2.9-2.3 4.4-3.3l1.4-.4c.8.6.8 1.2.5 1.7-1.3 1.7-2.5 3.4-4 5a126.7 126.7 0 0 0-17.1 25.5c-.5 1-.5 1-.4 3 2.1 0 4.3-.2 6.4-.7l1.1-1.7a74.8 74.8 0 0 1 24.9-27.2 4 4 0 0 1 3.4-.6l.7 1a9 9 0 0 1-3.7 4c-5.7 4.7-11 10-15.4 16-1.5 2-2.8 4-4 6-.3.5-.6 1.1-.7 1.7l.8.7 1.7.1h11a8 8 0 0 0 3.3-3.4 65.2 65.2 0 0 1 19.4-19c.4 0 1-.2 1.4-.1a1.6 1.6 0 0 1 .7 1.8l-.3.6-3 3c-4.8 4.1-9 8.8-12.6 14l-1.8 2.9c4.2.4 8.4.5 12.6.3l11.9-8c1-.8 2.1-1.5 3.3-2 .4-.2 1 0 1.6.2 0 2.7-1.8 4-3.1 5.5-1.4 1.5-3.6 2.3-4.7 4.1.5 1.2 1.5.9 2.3 1 7.3.3 14.5 1.2 21.6 2.6 1.4.3 3 .6 3.4 2.2-.2 1.5-1.2 1.9-2.4 1.7l-9.4-1-5-.4c-6-.2-11.7-1-17.6-.9h-2.8c0 1.2.8 1.4 1.4 1.7 6 2.7 11.6 5.5 17.5 8 1.4.6 3 1 4.5 1.4 2.3.6 4.7 1.1 7 1.8.5.1 1 .4 1.4.7.3 1-.2 1.5-1 1.6h-1.3c-4.8.1-9.7-.7-14.2-2.4-4.7-1.7-9.3-3.6-13.8-5.7-3.5-1.7-6.7-3.8-10-6l-2.4-1.6c-5.3-.2-10.8 0-16.2 0-.5 1 0 1.2.3 1.6 4.7 4 9.8 7.5 15.2 10.4 3.3 1.8 6.8 3.5 10.3 5.1 2.8 1.2 5.6 2.1 8.4 3.2 1.8.4 3.5 1 5 1.9a1.4 1.4 0 0 1-.2 1.3 1.4 1.4 0 0 1-1.2.5c-2 0-4 0-6-.3-4.4-1-8.8-2.5-12.8-4.6-8.4-4-16.3-9-23.4-14.8l-4.7-3.8a25 25 0 0 0-7.6.3c-2.7.1-5.5 0-8.2.2-2.4 0-4.9 0-7.3.3-.5 1.3.3 1.6.8 2 8.3 6.7 17.4 12.5 27.1 17 5.7 2.7 11.5 5.2 17.2 7.8 1 .5 2.2.6 2.5 2.3l-1.4.5c-1.4 0-2.8-.2-4.2-.4a127 127 0 0 1-35.8-17c-4.2-3.1-8.3-6.5-12.5-9.7l-1.6-1.2c-1.4 0-3 0-4.5.3l-16.5 2.1c-1.4.2-2.8.3-4.3.3H91l-2-.1c.4-1.1 1.1-1.2 1.8-1.4 5.2-1.5 10.6-2.5 16-3.1Zm-37.4-91.7a2.5 2.5 0 0 1 1.4 2.6 89.2 89.2 0 0 0 6.6 36.8c.3.6.7 1.3 1.2 1.8.5-.5.9-.8 1-1.1l2.5-8.2c.4-1.6.3-3.4-.3-5-.9-3.2-1.6-6.4-2.6-9.5a88 88 0 0 1-2-17.8c0-.5.4-.8 1.7-1.6 1.7.6 1.8 2.2 2 3.5l1.2 7.2c.4 2.3 1.1 5.6 1.8 8.3l.7 1.9c1 0 .9-.7 1-1 1.6-5.4 2.7-10.9 3.4-16.4.1-1.6.6-3 1.5-4.4h1.2a7.5 7.5 0 0 1 1.3 6.2 120 120 0 0 1-4 21.6 1 1 0 0 0 1.3 0l.3-.3c3.4-3.9 6.4-8.1 9-12.6a24 24 0 0 1 2.3-3.6l1.5-1c.4.7.9 1.1.9 1.6 0 1.1-.3 2.2-.6 3.3-1.6 5-4.3 9.7-7.9 13.6-2.8 3.8-6 7.3-9.7 10.2l-3.6 11.5-.6 3 .6.5c1.8-1 3.5-2.3 5.2-3.7 3.7-3.5 7.4-7 10.9-10.8 1.7-2.2 3.2-4.4 4.6-6.8.7-1 1.2-2.3 3-3l1.4 1.1c-.4 2.7-1.4 5.3-3 7.6-3 5-6.8 9.5-11.3 13.3l-8.9 7.4c-1.8 1.3-3.8 2.4-6.3 4-2.4 4.5-4.7 9.9-7 15 .5.9 1 1 1.6.7 4.2-2.1 8.2-4.6 11.9-7.5 6-4.6 11.7-9.6 17.2-14.9.9-.9 1.6-2 3-2.1.8.2 1.2.8 1 1.6l-1.5 3a50 50 0 0 1-4.1 5.1c-7.7 8.1-16.7 14.9-26.5 20-1.4.8-2.9 1.4-4.4 2l-3 1c-4 5.3-7.7 11-11 16.8a3 3 0 0 0 3-.1c5.6-2.4 11-5.1 16.4-8.2 1.8-1.2 3.5-2.4 5-3.9a6 6 0 0 1 3.3-1.7 1.7 1.7 0 0 1 .8 2c-.1.3-.3.5-.5.6a24 24 0 0 1-8.1 8 129 129 0 0 1-13 6.9 43.8 43.8 0 0 1-9.7 3l-3.6.9-9.4 9.6a30.2 30.2 0 0 1-4.4 3.4c-.9.5-1.8.9-2.8 1.2l-1.3-1.4a5 5 0 0 1 2-3.5l4.8-4.8c6.8-7 13.1-14.7 18.7-22.7a6.2 6.2 0 0 0 1.8-4.3A52.8 52.8 0 0 1 48 661c0-.8 0-1.7.2-2.6 1-.6 1.7-.3 2 .4 1 1.8 1.8 3.6 2.6 5.4 1.8 4.5 4.1 8.8 6.8 12.8l1.7 2c.5-.4.9-.6 1-.9a63 63 0 0 0 6-12.5c-2.8-3.3-5.1-7-6.8-11a82.1 82.1 0 0 1-7.7-31 5 5 0 0 1 1.3-3.8 1.3 1.3 0 0 1 1 .2 1.3 1.3 0 0 1 .6.9 68 68 0 0 1 1.1 5.4 78.2 78.2 0 0 0 11.9 33c.2.3.7.4 1.2.8a7 7 0 0 0 1-1.3c2.1-4 3.6-8.2 4.4-12.6l-.8-1.8a69.8 69.8 0 0 1-7.5-21.7c-1-4.5-1.4-9-1.3-13.6.2-3.3.7-6.5 1.2-9.7a2.2 2.2 0 0 1 1.4-1.9Zm-39.6 61.7c-1-.9-2-1.9-2.8-3a2.3 2.3 0 0 1 .2-2.7 2.3 2.3 0 0 1 3-.4 7.8 7.8 0 0 1 3.7 4.7c-1.2 2.3-2.4 2.8-4.1 1.4ZM40 602.7a66.2 66.2 0 0 1-16.4-17.2 6 6 0 0 1-.5-1.4l1.2-1c1.5.9 2.8 2 4 3.4 4.3 4.5 9.2 8.5 14.4 11.9l2.8 1.4c1-4 1.8-8.1 2.1-12.3-2.6-1.9-5-3.5-7.4-5.4a49 49 0 0 1-11.5-11.8l-1.5-3c-.2-.6.2-1.3.4-2.2l2.2.8 2.7 2.7c3.8 4.3 8.3 8 13.2 10.8l1.5.6c1-6.1.7-12.4-.6-18.5-1.2-.4-2.5-1-3.9-1.3-7.7-1.7-12.2-10.4-12.1-16.8 0-.8 0-1.7 1.3-2 1.4.4 1.8 1.7 2.3 2.8 1.3 2.6 3 5 5 7a8.6 8.6 0 0 0 4.2 2.7 9 9 0 0 0 2.2 0 6 6 0 0 0 .3-1.8c-.8-6.5-2-12.9-3.8-19.2-.6-2.4-1-4.7-1.3-7.2l.3-1.8c1-.9 1.8-.6 2.3.2a77.7 77.7 0 0 1 5.1 14.9c.2.7.3 1.4 1.5 1.5 1.5-5 1.6-10.3 3.7-15.1l1.5-.4c.3.4.7.8.8 1.3.2 1 .2 2 .2 3-.2 7.5-1.7 15-4.3 22.1a8.4 8.4 0 0 0-.7 4.2l.9 7.6c0 1 .4 1.9.7 3.2 1-1 1.8-2.4 2.2-3.8l1.4-4 1.4-4 1.4-4.1c.4-1.4.8-2.8 1.3-4 .5-1.4.5-3 1.6-4a1.2 1.2 0 0 1 1.5 1.3v5c-.8 3.8-1.6 7.6-2.7 11.3-2.1 6.4-4.8 12.6-8 18.6l-.1 3.2-.7 9.4v5.5l2-2.1 8.3-16c.5-1 .8-2 1.1-3.2l1.7-4.8 1.1-2.2h1.5a9 9 0 0 1 0 5.6A71.4 71.4 0 0 1 53.7 603l-4.6 5.8a104 104 0 0 1-9.8 23.4c-.6.7-1.4 1.3-2.3 1.8a1.6 1.6 0 0 1-1.8-1.6c-.2-1.4.1-2.9.8-4.1l3-6.6-1-1.5a71 71 0 0 1-12.6-15 32 32 0 0 1-2.6-5.6 1.5 1.5 0 0 1 1-1.4l1.2.7c.4.2.7.5 1 .9 3.1 4.5 6.7 8.8 10.6 12.7a8 8 0 0 0 4 3c.9 0 1.2-.7 1.4-1.4a97 97 0 0 0 1.8-5.2l.5-2.6a15.7 15.7 0 0 0-4.2-3.5Zm-15.8 42a38.8 38.8 0 0 1-7-9.2l1.2-2.3a2.6 2.6 0 0 1 3 .3 34 34 0 0 1 6.2 8.6 2.6 2.6 0 0 1-.5 3.2 2.8 2.8 0 0 1-3-.6Z" fill="#89C5AC"/>
    <path d="m-76.4 628.3-3.4-2.4-9.8-6.9c-.7-.5-1.4-1-2-1.7a4 4 0 0 1-.8-4.7 4 4 0 0 1 4.8-1.8l2.8 1 2.6.7-3-2.5c-3.9-3-7.8-6-11.6-9.4-2.1-2-4.1-4.2-6-6.6a4.6 4.6 0 0 1-.6-5.4l2.1-.7 15.2 9.5.3-.3-2.7-2.5-12.4-11-4-3.3c-.7-.5-1.3-1-1.8-1.8a3.5 3.5 0 0 1 2.2-5.5h3.8a1.4 1.4 0 0 0 2.1.2l-1.2-1-6.1-6c-3.8-3.8-3.5-6 1.5-8.1.2-1-.6-1.2-1.1-1.5l-3.5-2.5a9 9 0 0 1-2-2.2 3.6 3.6 0 0 1 3-5.5c1 0 2 .2 2.9.5 3 1 5.8 2.3 8.5 4l10.2 6.2a1 1 0 0 0 .2-1.5c-.6-.8-1-1.7-1.5-2.6a16 16 0 0 1-.8-2.5 2.7 2.7 0 0 1 3.8-1.6c2.3.7 4.4 1.9 6.3 3.4l11.6 10 3.1 3c1-.8 0-1.5.2-2.2a4.2 4.2 0 0 1 2.2-3.9 4 4 0 0 1 4.8.9 20 20 0 0 1 1.9 2.2l5 6.8 2.5 2.7c1-1.5 1.6-3 3.5-3a4.5 4.5 0 0 1 3.8 2.4c.7 1 1.4 2.2 1.9 3.4 2 5 4.2 10 6.3 14.8l1.7 3.6c1-1 .8-2 1.1-3 .3-.9.3-1.6.5-2.5l1.9-6.5a5.7 5.7 0 0 1 2.6-3.3 5.1 5.1 0 0 1 4.2 0h1l1.1-3 3.8-12.2c.6-1.8 1.4-3.5 2.3-5 1.7-3 2.7-3.5 6.3-3H-4l1-2.6c1.2-4.5 2.5-9 3.6-13.6a9.7 9.7 0 0 1 6.6-8.2l2-9.3 1.5-5.4a4.5 4.5 0 0 1 5.1-3.5l1 .1.7-2.7 1-7.6c.2-1.1.6-2.2 1.2-3.2a4.3 4.3 0 0 1 7.4.7c.5 1.3.8 2.7.8 4.1l1.4 11c.8 1.3 1.8.8 2.6 1.1l-.6 3a7 7 0 0 0-3.2 6.4l-.4 12.2c-.6-1-1.1-2.1-1.5-3.3-.8-1.9-1-2-3.8-3a3.6 3.6 0 0 0-3 3.3l-.8 7.2v5.8c-.6 0-1 .3-1.6.3a5.5 5.5 0 0 0-4.8 4.7c-.4 1.8-.4 3.7 0 5.5l.7 6c0 .3 0 .7-.3 1.4-1-1.3-1.6-2.9-2-4.5L9.3 556l-1.4-4.5c-.4-1.6-.2-3.2-1.8-4.4l-1.6.4v3c.4 3 1 6.1 1.8 9.2 1 3.4 1.5 7 1.6 10.5l.5 14.2c-.8 1.3-1.7 1-2.6 1-1.4-2.9-2.7-6-3.7-9l-3.8-8.5h-1.4c-1 1-.6 2.2-.3 3.3L2 589.7c.6 2.3 1.5 4.5 2.2 6.6-.5 1.4-1 2.9-1.3 4.3-.2 1.1-.3 2.2-.1 3.3.5 5.5 1.5 11 2.8 16.4l-.2.4c-.6.5-1.3.2-2.1 0a76 76 0 0 1-6-11.6l-7.3-17.3c-.4-.8-.6-1.7-1.7-1.6-1 .7-.7 1.5-.5 2.3.7 2.8 1.3 5.6 2.1 8.3 2.6 9 6 17.5 10.4 25.7 1.4 2.6 2.3 5.5 2.6 8.4-1.3 4-2 8.6-4 13a35 35 0 0 1-6.4-7.5c-1.8-2.6-3.2-5.5-4.8-8.2-1.6-2.6-2.7-6-4.4-8.4-1.5-.3-2 .3-2.1 1.3a55.1 55.1 0 0 0 9.5 20.8c2 3 4.3 5.6 6.6 8.6 0 .7-.2 1.5-.4 2.3l-4.2 14.9-1.7 7.5a4.5 4.5 0 0 0 .6 4l1.9.2c5.5-12.6 8-26 12-39 .5.4 1 .6 1.1 1 1.2 2.4 2.4 4.8 3.4 7.3 2.1 5.2 4.9 10 8.2 14.5.7 1 1.7 2 1.6 3.4a56.3 56.3 0 0 1-9.1 7.6c-1.9 1-3.5 2.4-4.8 4.1a47.3 47.3 0 0 0-6 5.5c-2.9 3.3-5.6 6.8-8 10.5-.6.7-1.3 1.3-2 1.8a5.8 5.8 0 0 1-6-5c0-.6-.3-1.3-.5-2-.9-4.3-2.7-8.4-5.2-12a78.7 78.7 0 0 1-5.1-8.8 5 5 0 0 0-2.5-2.7c-3-1.4-5.7-3-8.6-4.4-1.4-.6-2.8-1.1-4.3-1.5-2-1-4.1-1.9-6.2-2.7l-13.8-5.7a6.4 6.4 0 0 1-4.1-5.3c1-2.4 3.5-2.5 5-4l-10-5.6a13 13 0 0 1-5.3-6c-.2-.4-.2-.9-.3-1.3l1.1-1.3h2.6c.7 0 1.6.6 2.2-.8a17.5 17.5 0 0 0-5.2-2.7Zm18.1-53.5c-1.3 2-1.8 4.4-1.6 6.8.3 2.7.4 5.4.5 8 0 .5-.1 1-.3 1.3-.4-.2-.7-.5-1-.9a259.2 259.2 0 0 0-19.7-24.3 4 4 0 0 0-1.8-.6l-.8 1a6.3 6.3 0 0 0 1.7 4.4l5.4 6.7c3 3.8 5.8 7.7 8.6 11.7.4.5 1 1 .3 2-1.5.1-3 0-4.5-.4-1.1-.3-2.2-.4-3.4-.4-.7.2-1.4.6-2 1a2.6 2.6 0 0 0 1.8 2.5 51 51 0 0 0 12.5 3.5c5.2 7.7 6.4 9.9 7 12.8-2 .5-4.1.7-6.3.7-2.2.3-4.4-1.5-7-.5l-.7 1.8a4.3 4.3 0 0 0 3 2.2c3.8 1.3 7.9 1.8 12 1.5h3.1c2.5 3.6 4.3 7.5 5.6 11.7-3.7 1.5-7.7.5-11.5 1.5l-.7 2.4c.6.5 1 1 1.5 1.1 4.5.9 9 1 13.6.7.5.6 1 1.2 1.2 1.8l9 17a46 46 0 0 0 2.3 4.1 2.3 2.3 0 0 0 2.5 1.2 2.1 2.1 0 0 0 1.2-2.5c-.3-1.3-.7-2.5-1.2-3.7l-4.9-10c-1.9-3.8-4-7.4-5.6-11.4.5-11.2-.5-22.4-2.7-33.4h-2.2c0 1.2-.3 2.2-.3 3.2v6.4c0 1 0 2.3.2 3.4l.2 3v3.4c0 1.2.3 1.9-.4 2.7-.3 0-.5 0-.5-.2l-9.6-16.7c-.4-5.7-.8-11.3-1.4-17-.3-2.4-.7-4.8-1.4-7-.1-.7-.8-1.3-1.7-2.5Z" fill="#2B3D2D"/>
    <path d="M184 684c4.2.3 8.4.4 12.6.2l12-8c1-.8 2-1.4 3.2-2 .4-.2 1 0 1.7.2 0 2.7-1.8 4-3.2 5.5-1.3 1.5-3.5 2.3-4.6 4.2.5 1.1 1.5.8 2.3.8 7.2.4 14.5 1.3 21.6 2.8 1.4.3 3 .5 3.4 2.1-.2 1.5-1.2 1.9-2.5 1.8l-9.3-1-5.1-.5c-6-.2-11.7-1-17.5-.9h-2.8c0 1.2.8 1.4 1.4 1.7 6 2.7 11.6 5.5 17.5 8 1.4.7 3 1.1 4.4 1.4l7 1.8 1.4.7c.3 1-.2 1.5-1 1.7h-1.2c-4.9 0-9.7-.8-14.2-2.5-4.7-1.7-9.4-3.6-13.9-5.7-3.4-1.7-6.6-3.8-10-6l-2.3-1.6c-5.3-.2-10.9 0-16.3 0-.5 1 0 1.2.4 1.6 4.7 4 9.7 7.5 15.1 10.4 3.4 1.8 6.9 3.5 10.4 5.1 2.7 1.2 5.6 2.1 8.4 3.2 1.7.4 3.4 1 5 1.9a1.4 1.4 0 0 1-1.5 1.8c-2 0-4 0-5.9-.3-4.5-1-8.8-2.5-12.9-4.6-8.4-4-16.2-9-23.3-14.8l-4.8-3.8a25 25 0 0 0-7.6.3c-2.7.1-5.4 0-8.1.2-2.5 0-5 0-7.4.3-.4 1.3.4 1.6.9 2 8.3 6.8 17.4 12.5 27.1 17l17.1 7.8c1 .5 2.3.6 2.6 2.3l-1.4.5c-1.5 0-2.9-.2-4.3-.4a127 127 0 0 1-35.8-17c-4.2-3.1-8.3-6.5-12.4-9.7l-1.6-1.2c-1.4 0-3 0-4.5.3l-16.5 2.1-4.3.3H91l-2-.1c.4-1.1 1.1-1.2 1.8-1.4 5.1-1.6 10.4-2.8 15.8-3.6l20-2.6 2.9-.8 1.8-3.8c4-9.5 9.3-18.4 15.8-26.3 1.5-1.8 3.3-3.2 5.4-4.1l1.2.8c-.7 1.9-1.7 3.6-3 5.1-4.9 7-9.2 14.5-13 22.1-.9 1.4-1.4 3-1.6 4.7.3.3.5.6.8.6h7l1.7-3a118 118 0 0 1 9.5-16.2c3-4.6 6.7-8.8 10.8-12.6 1.4-1.2 2.9-2.3 4.5-3.3.4-.2.9-.4 1.4-.4.7.5.8 1.2.4 1.6-1.2 1.8-2.5 3.5-3.9 5a126.7 126.7 0 0 0-17.2 25.5c-.5 1-.4 1-.3 3 2.1 0 4.2-.2 6.3-.6l1.2-1.8a74.8 74.8 0 0 1 24.8-27 4.1 4.1 0 0 1 3.4-.7l.7 1a9 9 0 0 1-3.6 4c-5.8 4.7-11 10-15.5 16-1.5 1.9-2.7 4-4 5.9l-.7 1.8c.5.3.6.6.9.7l1.7.1h11a8 8 0 0 0 3.4-3 65.2 65.2 0 0 1 19.4-19c.4-.2 1-.3 1.4-.2a1.6 1.6 0 0 1 .4 2.4l-3 3c-4.8 4.1-9 8.8-12.6 14-.6.8-1 1.7-1.8 3.1ZM82.3 648.5l5.2-3.7c3.7-3.6 7.4-7.1 10.9-11 1.7-2 3.2-4.2 4.6-6.5.7-1 1.2-2.3 3-3l1.4 1.1c-.4 2.7-1.4 5.3-3 7.6-3 5-6.8 9.5-11.3 13.3l-8.9 7.4c-1.8 1.3-3.8 2.4-6.3 4-2.4 4.5-4.7 9.9-7 15 .5.9 1 1 1.6.7 4.2-2.1 8.2-4.6 11.9-7.5a185 185 0 0 0 17.2-14.9c.9-.9 1.6-2 3-2.1.8.2 1.2.8 1 1.6l-1.5 3a50.2 50.2 0 0 1-4.1 5.1c-7.7 8.1-16.7 14.9-26.5 20-1.4.8-2.9 1.4-4.4 2l-3 1c-4 5.3-7.7 11-11 16.8a3 3 0 0 0 3-.1c5.6-2.4 11-5.1 16.4-8.2 1.8-1.2 3.5-2.4 5-3.9a6 6 0 0 1 3.3-1.7 1.7 1.7 0 0 1 .8 2c-.1.3-.3.5-.5.6a24 24 0 0 1-8.1 8c-4.2 2.6-8.5 4.9-13 6.9a43.9 43.9 0 0 1-9.7 3l-3.6.9-9.4 9.6a30.3 30.3 0 0 1-4.4 3.4c-.9.5-1.8.9-2.8 1.2l-1.3-1.4a5 5 0 0 1 2-3.5l4.8-4.8c6.8-7 13.1-14.7 18.7-22.7a6.2 6.2 0 0 0 1.8-4.3A52.8 52.8 0 0 1 48 661c0-.8 0-1.7.2-2.6 1-.6 1.7-.3 2 .4 1 1.8 1.8 3.6 2.6 5.4 1.8 4.5 4.1 8.8 6.8 12.8l1.7 2c.5-.4.9-.6 1-.9a63 63 0 0 0 6-12.5c-2.8-3.3-5.1-7-6.8-11a82.1 82.1 0 0 1-7.7-31 5 5 0 0 1 1.3-3.8 1.3 1.3 0 0 1 1 .2 1.3 1.3 0 0 1 .6.9l1.1 5.4a78.2 78.2 0 0 0 11.9 33c.2.3.7.4 1.2.8a7 7 0 0 0 1-1.3c2.1-4 3.6-8.2 4.4-12.6l-.8-1.8a69.8 69.8 0 0 1-7.5-21.7c-1-4.5-1.4-9-1.3-13.6.2-3.3.7-6.5 1.2-9.7a2.2 2.2 0 0 1 1.4-1.9 2.5 2.5 0 0 1 1.4 2.6 89.2 89.2 0 0 0 6.6 36.8l1.2 1.8c.5-.5.9-.8 1-1.1l2.5-8.2c.4-1.6.3-3.4-.2-5-1-3.2-1.7-6.4-2.7-9.5a88 88 0 0 1-2-17.8c0-.5.4-.8 1.7-1.6 1.7.6 1.8 2.2 2 3.5l1.2 7.2 1.8 8.3.7 1.9c1.1 0 1-.7 1-1C87 610 88.2 604.4 89 599c0-1.6.5-3 1.4-4.4h1.3a7.5 7.5 0 0 1 1.2 6.2 120 120 0 0 1-4 21.6 1 1 0 0 0 1.6-.3c3.4-3.9 6.4-8.1 9-12.6a24 24 0 0 1 2.3-3.6l1.6-1c.3.7.8 1.1.8 1.6 0 1.1-.3 2.2-.6 3.3-1.6 5-4.3 9.7-7.8 13.6-2.8 3.8-6.1 7.3-9.8 10.2l-3.6 11.5-.6 3c-.3.4-.7.8-.2 1.3l.6-.4.2-.5ZM52 596.8a11 11 0 0 0 2-2.1l8.3-16c.5-1 .8-2 1-3.2l1.8-4.8 1.1-2.2h1.5a9 9 0 0 1 .2 5.6A71.4 71.4 0 0 1 53.7 603l-4.7 5.8a104 104 0 0 1-9.8 23.4c-.6.7-1.4 1.3-2.3 1.8a1.6 1.6 0 0 1-1.8-1.6c-.2-1.4.1-2.9.8-4.1l3-6.6-1-1.5a70 70 0 0 1-12.6-15 31.9 31.9 0 0 1-2.6-5.6 1.5 1.5 0 0 1 1-1.4l1.2.7c.4.2.7.5 1 .9 3.1 4.5 6.7 8.8 10.6 12.7a8 8 0 0 0 4 3c.9 0 1.2-.7 1.4-1.4.7-1.7 1.3-3.5 1.8-5.2l.5-2.6a15.7 15.7 0 0 0-4.3-3.5 66.2 66.2 0 0 1-16.4-17.3 6 6 0 0 1-.6-1.3l1.2-1c1.5.8 2.9 2 4 3.3 4.4 4.5 9.2 8.5 14.5 12l2.8 1.4c1-4 1.7-8.2 2-12.3-2.5-2-5-3.6-7.4-5.4a49 49 0 0 1-11.5-11.9l-1.5-3c-.1-.5.3-1.2.5-2.2.7.2 1.5.5 2.1.9l2.7 2.7c3.9 4.3 8.3 7.9 13.3 10.7.4.3 1 .5 1.5.7.9-6.2.7-12.5-.7-18.6-1.2-.4-2.5-1-3.8-1.2-7.7-1.8-12.2-10.4-12.2-16.8 0-.9 0-1.8 1.3-2 1.5.4 1.8 1.7 2.4 2.8 1.2 2.6 2.9 5 4.9 7a8.6 8.6 0 0 0 4.3 2.7h2.2a6 6 0 0 0 .2-1.8c-.8-6.5-2-13-3.7-19.3-.6-2.3-1-4.7-1.3-7 0-.7 0-1.4.2-2 1.1-.8 1.8-.5 2.4.3l1.1 2.3c1.7 4 3 8.3 4 12.6.2.6.3 1.4 1.4 1.5 1.6-5 1.6-10.3 3.7-15.2l1.5-.4c.3.5.8.9.9 1.4.1 1 .2 2 .1 3-.2 7.5-1.6 15-4.3 22a8.4 8.4 0 0 0-.6 4.2l.8 7.7c0 1 .4 1.8.7 3.1 1.1-1 1.9-2.3 2.2-3.8.6-1.2 1-2.6 1.5-4l1.3-4 1.4-4 1.4-4.1c.5-1.4.5-2.9 1.6-3.9a1.2 1.2 0 0 1 1.4 1.2c.2 1.7.2 3.4 0 5.1-.7 3.8-1.6 7.5-2.7 11.2-2 6.5-4.7 12.7-7.9 18.7 0 1 0 2-.2 3.2-.2 3-.5 6.2-.6 9.4v5.5l-.2.3.2-.4ZM27.2 645.3a2.8 2.8 0 0 1-3-.6 38.8 38.8 0 0 1-7-9.2l1.3-2.3a2.6 2.6 0 0 1 3 .3 34 34 0 0 1 6.2 8.6 2.6 2.6 0 0 1-.5 3.2ZM33.8 657.7c-1.3 2.4-2.5 3-4.2 1.5-1-.9-2-1.9-2.8-3a2.3 2.3 0 0 1 .2-2.7 2.3 2.3 0 0 1 3-.4c1.8 1 3.2 2.6 3.8 4.6Z" fill="#F1EBDF"/>
    <path d="m82.3 648.5-.2.3-.6.4c-.5-.5-.1-.9.2-1.3l.6.6ZM52 596.8l-.2.3.2-.3Z" fill="#89C5AC"/>
    <path d="M704 517s3-2.8 13.7-5.5c2.3-3.7 3.7-7.9 4-12.3l6.2 2.6 2.5 5.5 29 5-1 12s2.8 3.8 4.9 7c2 3.3 16.4 53.6 16.4 53.6l-10.9 39.5-16.2-7.7-42.8-33.3-25-19.7 8.8-27.6L704 517ZM845 626.4l-19.6 3-5.3-16.4-6-62.8a31.6 31.6 0 0 1 16 12.7 63.3 63.3 0 0 1 6.3 24.3l8.5 39.2Z" fill="#F1EBDF"/>
    <path d="m674.2 582.9-3.5 33.2s44.4 7.9 62.5 4.3c18.1-3.6-16.3-39-16.3-39l-28.3-9-14.4 10.5Z" fill="#89C5AC"/>
    <path d="M725.7 589.9c.1-6-.5-12-.5-18 0-3.7-.3-7.4-.5-11.2-.2-5-.1-10.1-.2-15.2V541c-.5-4.9-.4-9.8-.6-14.7a155 155 0 0 0-.6-8c-.1-1.2-.4-2.5-.7-3.7a5 5 0 0 0-.5-1 1 1 0 0 0-1.1 1c-1 2.8-2.1 5.5-3 8.4l-2.8 12.6a2844.3 2844.3 0 0 0-3.7 23.6l-.3 2-.7 10.1c0 1.6-.3 3.3-.6 4.9-.4 2.6-.3 5.4-.5 8-.5 6.8-.5 13.7-.7 20.5 0 1.6-.3 3.3-.7 4.9-.2 1.1-.7 1.3-2.2 1.2-.4-.5-.6-1-.8-1.7-.4-1.7-.6-3.4-.6-5.1v-42c.2-3.4.5-6.8 1.1-10.2 0-.4.4-.7.6-1a5.5 5.5 0 0 1-1.8-5.2 14 14 0 0 1 2-6c.9-2.4 1.6-4.9 2.2-7.3a105.3 105.3 0 0 1 5.3-19.8c-.2-.4-.6-.3-1-.2l-2.4 1-1.6 1.4a2.3 2.3 0 0 1-.8 1.8c-2 2.3-3.7 4.9-5 7.7-2.4 5-5 9.8-7 14.8-2.6 5.9-4.6 12-6 18.1-.7 2.7-1 5.5-1.5 8.3a31 31 0 0 1-1.3 4.4c-.2.4-.8.8-1.2 1.3-.5-.4-1-.6-1.2-1-.6-1-1-2.1-.9-3.3l.4-7c.7-6 2.1-11.9 4.2-17.6.6-1 .8-2.3.6-3.6-.6-.8-1-2-.9-3l-.6-7.5a48.6 48.6 0 0 0 6.5-14.4c.3-1 0-1.5-1.3-2-.8.2-.9 1-1 1.6a40.9 40.9 0 0 1-3.7 7.8l-.7.4c-.4-2.6-.2-5-.4-7.5 0-2.5 0-5-.4-7.4-.2-.1-.5-.3-.6-.2 0 0-.7.4-.7.7-.2.7-.2 1.3-.2 2v20l.3 4.3.2 3.1c-.7.3-.9-.2-1.1-.6a116 116 0 0 1-7.5-13.3c-.4-.7-.5-1.7-1.6-1.9a1.1 1.1 0 0 0-.7 1.4 71.3 71.3 0 0 0 8 16.9c1 1.5 2.3 2.8 3.6 4.4-.9 2.4-2 4.7-3.4 6.9-1-.5-1.9-1.2-2.6-2a63.2 63.2 0 0 1-9-11.3 17 17 0 0 0-3.1-4.2c-.4-.2-.8-.6-1.3-.3.6 2.9 1.7 5.5 3.3 7.9a46.8 46.8 0 0 0 11.1 13c0 .4.2.6.2.7l-3.8 11-1.4.3 1.1 1-3.4 16.3 6.8-.8c.7 0 1.3-.3 2-.4a47.4 47.4 0 0 1 9.5-3.4 2.4 2.4 0 0 1 2 2.5 9 9 0 0 1 0 2.3l-1.3 6.8c-.6 2.5-1.2 5-2 7.5l-3 8.7c1.5.3 3 .9 4.5 1.7l.2-.4c.6-1 1.2-1.8 2-2.5a1.7 1.7 0 0 1 2.2-.3 2.3 2.3 0 0 1 .2 2.5 53 53 0 0 1-1.3 3.5c2.3 2.7 3.7 6 4 9.6l4.2.3c1 0 2 0 2.9.2 4 .6 8 .3 12 .6l1.8-.3c.9-7 1.7-13.8 5-20v-11Z" fill="#89C5AC"/>
    <path d="M711.6 552a7.2 7.2 0 0 1-5.4-1 5.4 5.4 0 0 1-1.8-5.3 14 14 0 0 1 2-6 65 65 0 0 1 4.3-5.7s2.2-1 2.9 3a197.4 197.4 0 0 1 1.6 8.6 6.2 6.2 0 0 1-3.6 6.3ZM676.5 565.5l-6.3-.7c-2.5-.3-4.9-1.2-7-2.4-1.1-.5-2-1.4-2.4-2.5a3 3 0 0 1 2.5-4.2c.7 0 1.5 0 2.2.2l1.6.4c.4-.9-.3-1.1-.7-1.4a49.5 49.5 0 0 1-8.3-10.4 3 3 0 0 1 2-4.1c.4-.2.8-.3 1.3-.3.4-.5.1-1 0-1.4l-2-7c-.1-.5-.2-1-.1-1.6a2.6 2.6 0 0 1 2.3-2.3h2.4l-.7-2.3-1.5-5c-.1-.7-.2-1.5-.1-2.3a3.7 3.7 0 0 1 4.7-3.4c.7.2 1.3.6 1.8 1.2l1.1 1.7c.4.5.3.7.8.7.5-.4.2-1 .2-1.5l-.1-6 .1-1.8a3 3 0 0 1 3.7-2.2c.5 0 1 .3 1.4.7l1.5 2c.7 0 .6-.6.6-.9l.3-5.4a16.9 16.9 0 0 1 1.7-6.4 2.7 2.7 0 0 1 4.4-.2l.6 1c.2.3.2.8.8.8l1.1-6.6c.4-1.7 1.1-3.2 2.2-4.6a2 2 0 0 1 3-.7 14.9 14.9 0 0 1 2.6 5.4c.3 2 .5 4.1.5 6.2 0 .6 0 1.2.6 1.7l1.1-1.2a2.7 2.7 0 0 1 4.3.3c1 1.4 1.8 3 2 4.7a201 201 0 0 0 .7 4.3l1.5-1a3 3 0 0 1 3.6 0l.8 1c1 1.8 1.4 3.7 1.3 5.6L709 515l-5.6 4-1.7-1.3c-.4.4-1 .7-1.2 1.1a30 30 0 0 0-1 3.3c-.4 1-1 2-1.7 3a57.2 57.2 0 0 0-7.8 12.6 1 1 0 0 0-.7 1.3c-.6-.9-.9-2-.8-3l-.7-7.6a48.6 48.6 0 0 0 6.5-14.3c.4-1.1 0-1.5-1.3-2-.7.2-.8 1-1 1.6a40.9 40.9 0 0 1-3.6 7.7l-.7.4c-.4-2.5-.3-5-.4-7.4 0-2.5-.1-5-.4-7.4l-.6-.3c-.1 0-.7.5-.8.8l-.2 2v20l.3 4.3.2 3.1c-.7.3-.9-.3-1-.6a116 116 0 0 1-7.6-13.3c-.3-.8-.5-1.7-1.5-2a1.1 1.1 0 0 0-.8 1.5l1 3.3c1.9 4.8 4.2 9.3 7 13.6 1 1.5 2.3 2.8 3.6 4.4-.9 2.4-2 4.7-3.3 6.8-1-.4-2-1.1-2.6-2a63.2 63.2 0 0 1-9-11.2 17 17 0 0 0-3.2-4.2c-.3-.3-.7-.6-1.3-.3a46.8 46.8 0 0 0 14.4 21c0 .2.3.5.2.6l-3.8 11h-1.4ZM690.3 624.4l4.2.4c2 .2 4.2.7 6.3.8l14.4.7 2.3.2c4.7.4 9.4.3 14.1-.2 2-.3 4.2-.5 6.3-.6l8.7-.8c3.6-.4 7.2-1.2 10.7-2.1a6.4 6.4 0 0 0 3.8-2.4l-2-.7c-2.4.3-4.9.3-7.3 0-2.4.7-4.9 1-7.3.8l-.4-1.7v-5.5a36.8 36.8 0 0 0-2.4-13 6.6 6.6 0 0 0-7.2-4.7h-1.1l-1 .5c-2.2.7-4.1 2-5.7 3.7l-1 1c-3.2 6.3-4 13.2-4.9 20l-1.7.3c-4-.3-8 0-12.1-.6-1-.1-2-.2-2.9-.1-3.6 0-31.5-4-35-4.8 0 0-3.7.6 1.4 3.4 5 2.9 16.2 4.7 19.8 5.4Z" fill="#2B3D2D"/>
    <path d="m703.3 518.8 5.6-4a2.3 2.3 0 0 1-.8 1.8c-2 2.3-3.8 5-5 7.7-2.4 5-5 9.8-7 14.9-2.6 5.8-4.6 11.9-6 18-.7 2.8-1 5.6-1.5 8.3l-1.3 4.4c-.2.5-.8.8-1.2 1.3-.5-.4-1-.6-1.2-1-.6-1-1-2-.9-3.2l.4-7c.7-6 2-11.9 4.2-17.6.6-1.1.8-2.4.6-3.6.6-.2.7-.7.6-1.3 2-4.5 4.7-8.8 7.8-12.7.7-.9 1.3-1.8 1.8-2.9 1.5-.8 2.8-1.8 4-3Z" fill="#F1EBDF"/>
    <path d="M756.4 462.6c.5-1.7 1.3-3.3 2.4-4.7l1.8-.1 1 1.1c-.1 2.8-.6 5.6-1.6 8.2a7.5 7.5 0 0 0-1.3 4c1-1.2 1.8-2.5 2.3-3.8a2.6 2.6 0 0 1 2.3-1.7l1 .6c.7 1.6-.3 3-.5 4.3l-.9 4c1.2.7 2.7 1 2.6 2.8-.4 2.4-1.3 4.7-2.4 6.9a.7.7 0 0 0 .8.3l.2-.2a2 2 0 0 1 2.7-.3 2.6 2.6 0 0 1 .8 3c-.3 1-.7 2-1.2 2.9l-3 5.1c.5.7 1.4 1 1.5 2.4-1 3-2.4 6-4.2 8.8l.7.7a2.1 2.1 0 0 1 .8 2.8c-1.3 3.2-3.3 6-5.8 8.3l-2.6-2.4-2.6-2.2 1.6-2.7a.9.9 0 0 0-.4-1.3 8 8 0 0 0-3 2.7l-6.5-3.2 5-6a35.3 35.3 0 0 0 6.6-10.2l-1-.7-1.5 1.9c-1.3 1.6-2.4 3.4-3.8 5-2.2 2.5-4.5 4.8-6.8 7.1l-1.2.7c.2-3 .7-5.8 1.4-8.7.6-.3 1.2-.7 1.7-1.2a35.5 35.5 0 0 0 10-16.6c.2-.6.2-1.3 0-2h-1.2c-.7 1.8-1.3 3.7-2.1 5.4l-3.1 5.2a9.6 9.6 0 0 1-4 4l.6-3 3.8-11.7 1.4-5v-2h-1l-.7 1.2-2.9 6.4-.5.2-1.4-1.6-1 .2c-.4 1.2-.4 1.2 1 6-.4 2.5-1.2 5-2.5 7.2-2-2.4-2.8-5.6-5-8a1 1 0 0 0-.6 1.2c.1.9.4 1.7.7 2.5 1 3.2 2.5 6.2 4.1 9l-1.3 7.6c0 .3-.1.6-.3.8l-.1.3a3 3 0 0 1-.5 0l-1.6-1.8c-2.2-2.6-4-5.4-5.6-8.4a19 19 0 0 0-1.3-2.2 1 1 0 0 0-1.3-.5c-.6.9 0 1.7.3 2.4a52.8 52.8 0 0 0 8.3 14.2c-1.2 0-2.5.2-3.7.1-1.3.2-2.6.1-3.8-.3l-2-3.3c-.1-.3-.4-.5-.7-.7a3 3 0 0 0 .4 2.3c.2.8.9 1.5.6 2.4-1 0-2 .1-2.9.6h-.5a2.3 2.3 0 0 0-2 .6h-.2l-.2.1h-1.7l-2.7-8.8a7.6 7.6 0 0 1-.2-3.7 2.1 2.1 0 0 1 2.7-1.2l.6.3v-.7c-.4-3-.8-6-1-8.7 1.3-1.9 1.3-1.9 4.3-1.5l.4-4.9c0-1.1 0-2.3.3-3.4a2.3 2.3 0 0 1 3.8-1.7l1 .7.7-1.3 2-5.7.5-1.3a2.5 2.5 0 0 1 2-2c1 0 1.7.5 2.3 1.4l.1 1.3.2 1.3c1.7-3 1.7-6.4 4.8-8.2l1.4 1.1.8 2.3.9-1.4 2.8-5.7c.5-1 .5-1 2.2-1.8l2 1 .4-.4 1.8-4.2.9-1.9a2 2 0 0 1 2.3-.2 2 2 0 0 1 .9 1.7c0 2.5-.2 4.9-.8 7.2l-.8 3a3.5 3.5 0 0 0-.5 3 5 5 0 0 0 1.5-2.6Z" fill="#2B3D2D"/>
    <path d="m735.5 508.1-1-1.4c-3-3.9-5.5-8.2-7.3-12.7-.3-.8-.9-1.6-.3-2.4a1 1 0 0 1 1.3.4l1.3 2.2c1.5 3 3.4 5.9 5.6 8.5l1.6 1.7h.5l.1-.2.3-.8 1.3-7.6a55.2 55.2 0 0 1-4.8-11.5 1 1 0 0 1 .7-1.3c2 2.4 3 5.6 5 8 1.2-2.2 2-4.6 2.3-7.2-1.3-4.8-1.3-4.8-.9-6l1-.2 1.4 1.7.5-.3 3-6.3.5-1.3h1.1v2l-1.4 5-3.8 11.8-.6 3a9.6 9.6 0 0 0 4-4c1.1-1.8 2.1-3.5 3-5.3 1-1.7 1.5-3.5 2.2-5.4a1.4 1.4 0 0 1 1.7-1c0 1-.2 2-.4 3.1a35.5 35.5 0 0 1-10 16.6l-1.8 1.2c-.7 2.8-1.2 5.7-1.4 8.7l1.2-.7 6.8-7.1c1.4-1.6 2.6-3.4 3.8-5l1.5-2 1 .8a35.2 35.2 0 0 1-6.5 10.2l-5.1 6-2.6-.3-.6-.2-3-.1-1.2-.6Z" fill="#89C5AC"/>
    <path d="m769.1 534 3.9-1V526a4.2 4.2 0 0 1 8.3-.5l.5 2.8.2 1c.6.2.8-.1.8-.5l.7-9.2c0-.7 0-1.4.2-2a4.2 4.2 0 0 1 4.2-3 4.2 4.2 0 0 1 3.8 3.3l.5 3.8c.8-.2.7-.7.8-1.1l.8-3.7a32 32 0 0 1 2.4-7.3c.3-.5.6-.9 1-1.2a3 3 0 0 1 4.8.4l.3.8a23 23 0 0 1 1.2 7.7l-.6 9c.7.1.7-.5 1-.8.2-.4.5-1 1-1.5a4.6 4.6 0 0 1 5-1.3 4.5 4.5 0 0 1 2.8 4.3c0 .8-.2 1.5-.4 2.3l-1.6 4.6a2.5 2.5 0 0 0-.3 2c.7.3 1.2-.3 1.8-.5a4.2 4.2 0 0 1 6 4.2c0 1.7-.4 3.5-1.2 5l-2.9 5.7-1 .3h-1.4l-.5 2a4.6 4.6 0 0 1-3.8 1.8l-2-.5c-1.5-.8-1.6-2.2-1.7-3.6 0-.2-.1-.4-.3-.4-1-.4-2.2-.2-3.2.3h-1l1.7-2.4c1.2-1.7 2.2-3.6 2.8-5.7.3-.7.5-1.5-.2-2-1-.2-1.4.6-1.8 1.2-1.7 2.6-3.8 5-6 7-.3.3-.7.5-1 .6l1.3-10.8a13 13 0 0 0-.6-7c-.3.4-.7.6-.7 1-.5 1.5-1 3.1-1.2 4.7l-.8 5.4c0 .4 0 .8-.7 1l-1.3-1-3.6-4a1.3 1.3 0 0 0-1.3-.5c-.4 1-.4 1.2-.3 1.6a13 13 0 0 0 2.4 3.9l4 4.2c0 2-.3 4-.9 5.9l-4.2 3.2a8 8 0 0 0-2.3 2.9c-1.2 2.4-2.5 4.8-3.5 7.3-2.1 5-3.9 10-5.3 15.3-1 4.5-2.3 9-3.2 13.5-.5 3-1.5 6-2.2 9 0 .4-.4.5-.8.4-.4-3-.4-6.2 0-9.2.3-2.2.4-4.4.3-6.6l.6-4 2.7-12.1 5.1-13.1c0-.2 0-.7-.2-1.2l-3-10.5A60.5 60.5 0 0 0 769 534Z" fill="#2B3D2D"/>
    <path d="M747.8 551.5v4.3l.6 5.4.9 8.9a95.2 95.2 0 0 1 .9 16.6c.3 3.7.7 7.3.9 11 .3 4.5.4 9.1.6 13.7v8.4c-2.4.6-4.8.9-7.3.7l-.3-1.6v-5.5a36.8 36.8 0 0 0-2.5-13 6.6 6.6 0 0 0-7.1-4.7h-1.2l-.2-2.6V588c0-3.6 0-7.3-.3-11-.3-3.3-.2-6.7-.3-10l-.3-5.4-.1-4.4V554l-2.4-1h3.4a4.8 4.8 0 0 0 2.8-4c.2-1.5.1-2.9-.2-4.3l-2.3-8.9c0-.4-.3-.9-.5-1.4l-1.4-.8a.7.7 0 0 1-.4-.3c.2-.4.4-.8.4-1.3l-.2-7.1c0-.7-.3-1.4-.2-2 0-4.2-.7-8.4-2-12.4v-.6h1.8l2.5.3.5.4.8.8a31 31 0 0 1 8.5 16.7c.5 2.4 1.2 4.6 1.8 7v2M769.7 589.2c.1 2.2 0 4.4-.4 6.6-.3 3-.3 6.1 0 9.2.5.1.8 0 1-.5.6-3 1.5-5.9 2.1-9 .9-4.5 2-9 3.2-13.4 1.4-5.3 3.1-10.4 5.3-15.3 1-2.5 2.3-4.9 3.5-7.3a8 8 0 0 1 2.3-3l4.2-3.1c.6-2 1-4 1-5.9l-4.1-4.2a13 13 0 0 1-2.4-4c-.2-.3-.1-.4.3-1.5a1.3 1.3 0 0 1 1.3.5l3.8 4 1.3.9c.6-.2.6-.6.7-1l.8-5.4c.3-1.8.7-3.2 1.2-4.7 0-.4.4-.6.7-1 .8 2.2 1 4.7.6 7l-1.3 10.8c.3 0 .7-.3 1-.5 2.2-2.1 4.3-4.5 6-7 .4-.7.8-1.5 1.8-1.3.7.7.5 1.5.2 2-.6 2-1.6 4-2.8 5.7l-1.6 2.4-3.3 1a6.3 6.3 0 0 0-3.2 2.5 56.7 56.7 0 0 0-4.5 7.3c-2 3.8-3.6 7.7-5.3 11.6a78.6 78.6 0 0 0-5.4 17.6l-1.5 7.6a100.4 100.4 0 0 0-1.6 11.4 107 107 0 0 0-1.7 14.6c-.8 0-1.6-.2-2.4-.5a3.5 3.5 0 0 0-3.7.5c-.3-.7-.5-1.5-.4-2.2l-.1-2.7c-1.8.3-3.5.7-5.1 1.4l-2-.7-.3-6.9c-.4-4.8-.5-9.6-.7-14.4 0-3 0-6-.2-9-.3-2.8-.4-6-.4-9.1 0-1.9 0-3.7-.2-5.5l-1.5-14.6-1.3-14.4a11 11 0 0 0-1-4.7 10 10 0 0 0-.9-5.3l-.3-1.6-.7-3.8-1.4-5.9-.2-2a.7.7 0 0 1 .8.2l.2.2c1.2 3 2.6 5.8 3.8 8.7a146 146 0 0 1 6 20.1l4.8 19.4 2.8 12.6.5 1.3c0 1.5.1 3 .7 4.3ZM813 550.5l1-.3a17 17 0 0 1 6 9.3c2.7 8 4.8 16.3 6.3 24.6.9 5 1.4 10.1 1.5 15.2 0 4 .5 8 .9 12.1v1.1l.5 15.3c-4.5-.5-9-.7-13.5-.5-.5 0-1-.1-1.4-.3l3-.4c.4-1 .5-2.1.4-3.2 0-13.6.1-27.2-.5-40.7-.3-6.3-.4-12.5-1.3-18.7-.6-4.6-1.6-9-3-13.5Z" fill="#89C5AC"/>
    <path d="m814.3 627.1 1.4.3a84.3 84.3 0 0 1 15.8.8c.3 0 .6.4 1 .7-.4.5-.6 1-1 1-1 .5-2 .8-3 1a259.2 259.2 0 0 1-26 1.1c-1.7 0-3.3-.3-5-.4l-2.8-.2-12.7-.5h-.6c-3.9-1-8-1.3-11.8-2.8l-2.3-1.2a2.7 2.7 0 0 1-.5-3 3.5 3.5 0 0 1 3.7-.4c.8.3 1.6.4 2.4.5 2.2.6 4.4 1 6.7 1.1 1.6.8 3.3 1 5 .8.5-1.2.7-2.3.7-3.5.3-2.6 1-5.2 2-7.5a6.3 6.3 0 0 1 6-4.3l.8-.2a7.1 7.1 0 0 1 4.6 4l1 2c.9 2.8 1.5 5.6 1.8 8.5 0 .7.1 1.4.5 2 3 .2 5.8.2 8.7 0l3.6.2Z" fill="#2B3D2D"/>
    <path d="M827.7 560.6c.4 0 .8 0 .9.2a10 10 0 0 1 1.5 2l5 10.8c1.8 4.8 3.2 9.7 4 14.8 1.4 6.4 2.4 12.9 3.6 19.3l2 10.5c.4 2.7.5 5.4.3 8-2.8.8-5.6 1.3-8.4 1.5-.2-.6-.3-1.3-.3-2l-.5-13c-.2-3.6-.6-7-.9-10.6l-.2-3c-.2-10.1-1.8-20.3-4.7-30l-2-7.3-.3-1.2ZM769.1 534l.3 1c2.3 4.2 4.2 8.7 5.4 13.4 1.2 3.4 2 7 3 10.5l.3 1.1-5 13.1-2.8-13.2c-1.5-7.5-3-15-5.2-22.1-1.3-4.5-3-9-4.9-13.3-.5-.9-.8-2-.9-3l1.8 1.9 5.5 7.6 2.5 3Z" fill="#89C5AC"/>
    <path d="M819.7 541.5c1-1 1.7-1 2.6-.2l2.1 7c.2.8.3 1.6.2 2.5a3.2 3.2 0 0 1-3 3 3.8 3.8 0 0 1-3.6-3c-.1-.8 0-1.6.1-2.3l1.6-7Z" fill="#2B3D2D"/>
    <path d="M747.8 551.5h2a3.1 3.1 0 0 0 3.1-2.5c.4-1.7.6-3.5.4-5.2l-.3-2.3.5-.4c.6 1.5 1 3.1 1 4.7l1.4 14.4 1.5 14.6.1 5.5c0 3 0 6.1.4 9.2.4 3 .2 6 .3 9l.6 14.3c.2 2.3.4 4.6.3 7-2.4.2-4.9.2-7.3 0v-8.4a527 527 0 0 0-.7-13.8l-.8-11a95.2 95.2 0 0 0-1-16.7l-.9-8.8-.5-5.4v-4.2ZM779.6 625.1c-2.3-.1-4.5-.5-6.7-1l.2-1.8a359.1 359.1 0 0 1 3.1-24.3l1.5-7.6c1.1-6.1 3-12 5.4-17.7 1.7-3.9 3.3-7.7 5.2-11.5 1.4-2.6 2.9-5 4.6-7.4.8-1 1.9-2 3.2-2.3l3.3-1.1h4.4c0 1.5.2 3 1.7 3.7l-.2 1.7-.9 4.2-1.9 12.6c-.5 4.2-1.1 8.4-1.4 12.6-.4 6.4-.5 13-.7 19.3v8c0 1.3-.1 2.6-.6 3.8l-1-2a7.1 7.1 0 0 0-4.6-4l.4-4 .5-16.8c.2-5 .3-10 .9-15 .6-5.4 1-10.8 2-16.2V557l-.8.7c-.8 1.2-1.7 2.5-2.4 3.9a52.9 52.9 0 0 0-4.7 9.9l-1.4.7-1.8 4.3a20 20 0 0 0-2 10.1 8.8 8.8 0 0 0-1.2 4l-1.4 8.2-.9 6a247 247 0 0 0-1.8 20.2Z" fill="#F1EBDF"/>
    <path d="M799.8 616.2c.4-1.1.6-2.4.5-3.7v-8l.7-19.3c.3-4.3.9-8.5 1.5-12.7.5-4.2 1.2-8.3 1.8-12.5l1-4.3.1-1.6 2 .5.1 2c1.6 7.3 2.4 14.8 2.6 22.3.4 6.7.3 13.4.6 20 .3 9.3 0 18.6 0 27.8-3 .2-5.8.2-8.7 0a3 3 0 0 1-.6-2c-.3-2.9-.8-5.7-1.6-8.5Z" fill="#89C5AC"/>
    <path d="M810.7 626.8c0-9.3.3-18.5 0-27.8-.2-6.7-.1-13.4-.5-20-.2-7.6-1-15-2.5-22.4-.1-.7-.2-1.3-.1-2a4.6 4.6 0 0 0 3.6-1.9l.4-2.2h1.3c1.3 4.4 2.3 9 3 13.5.9 6.2 1 12.4 1.3 18.7.6 13.6.4 27.1.5 40.7.1 1 0 2.2-.4 3.2l-3 .5-3.6-.3Z" fill="#F1EBDF"/>
    <path d="M751 533.3c2.4 6.2 6.8 20.8-4 17.7-6.3-1.5-2.1-24.6 4-17.7ZM733.4 534.3c2.8 5.9 7.2 22.4-4.3 19-7-1.6-2.3-26.5 4.3-19Z" fill="#2B3D2D"/>
    <path d="M790 571.7a53 53 0 0 1 4.6-10c.7-1.3 1.6-2.6 2.5-3.8l.8-.7v1.2c-1.1 5.4-1.5 10.8-2 16.3-.6 4.9-.7 10-.9 15l-.6 16.6c0 1.4-.2 2.7-.3 4l-.9.2a6.2 6.2 0 0 0-6 4.3c-1 2.4-1.6 4.9-2 7.5 0 1.2-.2 2.4-.6 3.5-1.7.3-3.5 0-5-.8a244.8 244.8 0 0 1 2.6-26l1.4-8.2c0-1.5.5-2.8 1.2-4l1.2 1.1a6.2 6.2 0 0 0 6.2 1 3.6 3.6 0 0 0 2.3-2.8c.3-1.7.2-3.5-.2-5.2l-1.2-4.5-1-3a2.8 2.8 0 0 0-2-1.7Z" fill="#89C5AC"/>
    <path d="M790 571.7a2.8 2.8 0 0 1 2.1 1.8l1.1 3c.5 1.4.8 3 1.2 4.4.4 1.7.4 3.5.1 5.2a3.6 3.6 0 0 1-2.2 2.8 6.2 6.2 0 0 1-6.2-1l-1.3-1.2c-.2-3.4.5-6.9 2-10l2-4.3 1.2-.7Z" fill="#2B3D2D"/>
    <path d="M647.7 185.2 634 201.8l14.3 18.3 36.5 10 36-11.2 22.8-37 9.7-28.7 3.4-36.5-7.2-5.6-5 2.6-7.1 5.2" fill="#F1EBDF"/>
    <path d="M758 158.6c-1.5 7.2-3.9 14.1-6 21.1l-.8 1.3v-4.5c0-.7-.2-1.2-1.2-1a23 23 0 0 0-2.6 5.7c-2.4 7-5.5 13.9-9.2 20.3-1.3 2.1-2.4 4.4-3.9 6.4a71 71 0 0 1-16.5 15.9c-1.6 1.1-3.2 2-5 2.6-2 .6-3.8 1.7-5.8 2.6a34.6 34.6 0 0 1-10.5 2.7c-2.3.2-4.7.5-7 1-2.5.5-5.1.6-7.7.3l-6.3-.7c-4.4-.2-8.7-1-12.9-2.3l-7.6-3a90.7 90.7 0 0 1-21-13.2l-3.4-2.3c-.5-2.2-.2-4.5.7-6.5a5.2 5.2 0 0 1 2.7-3.3l1.4.9c.8.6 1.5 1.4 2.1 2.1 2 2.2 4 4 6.4 5.7 2 1.6 4.2 3.1 6.5 4.5l4 2c1.4.5 2.1.7 3 1.2 3.7 1.9 7.6 3.2 11.7 3.9l4.4.6 2.2.1a33.5 33.5 0 0 0 19-2c5.2-2.1 10.3-4.5 15.2-7.2 2.7-1.6 5.2-3.5 7.3-5.7 3.5-3.3 6.7-6.7 10-10.1 1-1 1.8-2.1 2.3-3.4 2.8-5.4 6-10.6 9.5-15.5a172.4 172.4 0 0 0 11-25.7c1.1-3.8 2.2-7.7 3.1-11.5.6-2.3.9-4.7 1-7 .2-4.2.2-8.5 0-12.7-.2-1.9-.6-3.7-1.2-5.5a4.6 4.6 0 0 0-5.5-3.3c-1 .1-1.9.4-3 .7 0 0 2.4-3.9 5.2-4.6 2.8-.7 10.2.5 11.7 5.4 1.4 5 .8 26.7-3.3 44Z" fill="#89C5AC"/>
    <path d="M737.4 118.9a8.8 8.8 0 0 1 5.8 9c0 2.8-.5 5.6-.9 8.4-.7 4.6-1.2 9.2-2.2 13.6a97.7 97.7 0 0 1-9 23.7 67.4 67.4 0 0 1-14.6 24 40.3 40.3 0 0 1-29 12.4c-5.4.3-10.8-.4-16-2l-3.5-.8c-6.8-1.7-13-5.3-17.9-10.4-1.9-1.8-3.1-4.3-3.4-6.9a6.8 6.8 0 0 1 3-6.7l14.2-10.9c9.4-7.1 18.8-14.4 28.3-21.4 7.6-5.6 15.3-11 23-16.5l19.2-13.6 3-2Zm-39.8 64.4c-2 0-3 .7-3.3 2.2-.5 2-.5 4-.2 5.9a2.9 2.9 0 0 0 2.6 2.6 2.8 2.8 0 0 0 2.6-2.4c.6-2.3.4-4.7-.5-6.9l-1.2-1.4Zm-10-2c1.8-.9 2.2-1.2 2.3-1.9.3-2 .4-4.1.5-6.2a2.6 2.6 0 0 0-2.3-2.6 3 3 0 0 0-2.8 2l-.2.6v5.2a3.2 3.2 0 0 0 2.6 3Zm29.2-13.3c-.5.9-1 1.7-1.3 2.6a9.2 9.2 0 0 0-.6 4.7 2.6 2.6 0 0 0 3.7 1.8 2.6 2.6 0 0 0 1.3-2 147.8 147.8 0 0 0 .5-6l-.7-1.1c-1-.7-1.7-.6-3 0Zm-14.8-7.3c-.6.5-1.1 1.1-1.6 1.8a2.6 2.6 0 0 0 0 2.6c1 1.7 2.6 3 4.4 3.7a2.6 2.6 0 0 0 2.6-.8 2.3 2.3 0 0 0 .3-2.8 7 7 0 0 0-1.8-1.8c-1-1-2.3-1.7-4-2.7Zm11.7-11.5c0 1.6.5 3.3 1.5 4.6a2.4 2.4 0 0 0 4.5-1.4c-.1-1.9-.9-3.7-2.2-5a2.3 2.3 0 0 0-2.6-.6 2.6 2.6 0 0 0-1.2 2.4Zm18.5 5.6 2-.3a2.8 2.8 0 0 0 0-5.4 5.6 5.6 0 0 0-5 1.1 2.6 2.6 0 0 0-.7 2.3 2.6 2.6 0 0 0 1.5 2l2.2.3Zm-65.4 36 .8 1.5a8.9 8.9 0 0 0 6.5 2.3c.6-.1 1.3-.4 1.8-.7a2.6 2.6 0 0 0-1.5-3.2c-1.5-.7-3-1.2-4.5-1.6-1.1-.3-2.2 0-3 1.7Z" fill="#FA8F6B"/>
    <path d="M709.7 233.9c-1.8.7-3.7 1.3-5.5 2.1-3.5 1.2-7.1 2-10.8 2.3a53.6 53.6 0 0 1-11.8.8c-4.7-.3-9.4-.8-14-1.4-2.7-.5-5.3-1.1-7.8-2.1-4.3-1.6-8.5-3.5-12.7-5.3l-.7-.2-1.5-1a68.8 68.8 0 0 1-16-12.2c-1-1.3-1.1-1.8-.4-4.3l2.2-1c1.1.7 2.3 1.4 3.3 2.3a90.8 90.8 0 0 0 28.8 16.2c4.1 1.3 8.4 2 12.8 2.3l6.3.6c2.6.3 5.2.2 7.8-.3a42 42 0 0 1 7-.9c3.6-.4 7.3-1.4 10.6-3 2-.8 3.8-1.9 5.8-2.6 1.8-.6 3.5-1.4 5-2.6a71 71 0 0 0 16.6-15.9c1.4-2 2.6-4.2 3.8-6.3a108 108 0 0 0 9.2-20.4 23 23 0 0 1 2.6-5.7c1-.1 1.2.4 1.2 1v4.5c-2.2 8.3-5.3 16.3-9.2 23.9a50 50 0 0 1-10.7 14.2l-7.8 6.9c-3.6 3-7.7 5.4-12.2 7a7 7 0 0 0-1.9 1Z" fill="#2B3D2D"/>
    <path d="m697.6 183.3 1.2 1.5c.9 2.1 1.1 4.5.5 6.8a2.8 2.8 0 0 1-2.6 2.4 2.9 2.9 0 0 1-2.6-2.6c-.3-2-.3-4 .2-5.8.3-1.6 1.3-2.3 3.3-2.3ZM687.7 181.4a3.2 3.2 0 0 1-2.6-3 42.3 42.3 0 0 1 .2-6 3 3 0 0 1 2.9-1.8 2.6 2.6 0 0 1 2.2 2.6c0 2-.2 4.1-.5 6.2-.1.7-.5 1-2.2 2ZM716.8 168c1.2-.6 2-.7 2.8 0a2.4 2.4 0 0 1 .8 2.3 147.8 147.8 0 0 1-1 6c-.3.4-.6.7-1 .9a2.6 2.6 0 0 1-3.1-.8c-.3-.3-.4-.6-.5-1-.2-.9-.2-1.7 0-2.6 0-.7.3-1.4.6-2.1l1.4-2.7ZM702 160.7l4 2.6a7 7 0 0 1 1.8 1.9 2.3 2.3 0 0 1-.2 2.7 2.6 2.6 0 0 1-2.6.9c-1.9-.7-3.4-2-4.4-3.8a2.6 2.6 0 0 1 0-2.6l1.4-1.7ZM713.7 149.2a2.6 2.6 0 0 1 1.2-2.4 2.3 2.3 0 0 1 2.6.6c1.3 1.3 2 3.1 2.1 5a2.4 2.4 0 0 1-4.5 1.4c-.9-1.3-1.4-3-1.4-4.6ZM732.2 154.8c-.7 0-1.4-.2-2-.4a2.6 2.6 0 0 1-.8-4.2 5.6 5.6 0 0 1 4.9-1.1 2.8 2.8 0 0 1 0 5.4l-2 .3ZM666.9 190.8c.8-1.7 1.9-2 3-1.7 1.6.4 3 1 4.6 1.6a2.6 2.6 0 0 1 1.5 3.2c-.6.3-1.2.6-1.9.7a8.9 8.9 0 0 1-6.4-2.3 5 5 0 0 1-.8-1.5Z" fill="#2B3D2D"/>
    <path d="M535.8 593.5s-12.8 3.7-13.8 6.3c-.9 2.6 16 31 34.6 38.6 18.5 7.5 47.2 11.2 47.2 11.2l24.8-3.1 28.2-15.3 20.5-25 12.2-26.8s9-28.2 2.8-30.8c-4-1.8-9.3 1-9.3 1" fill="#89C5AC"/>
    <path d="m649.2 558.2 14.4-3.6 7.7-1 2.3-.3 1.6.4a5.9 5.9 0 0 1 4.8 7.4c-.3 3-1 5.8-2.3 8.5-.9 2-1.8 3.8-2.5 5.8-2.6 6.4-5.7 12.6-9.2 18.6-3 5.7-6.7 11.1-11 16-4.9 5-10.3 9.5-16.2 13.4l-.3.1a91 91 0 0 1-17.7 7.2 112.3 112.3 0 0 1-18.7 3.7 61 61 0 0 1-30.2-7.8 99 99 0 0 1-16.7-11.6 58.6 58.6 0 0 1-13.5-17.3c-1-1.8-1.5-4-1.4-6a5.9 5.9 0 0 1 4-2.7c4.4-1.2 8.8-2.3 13.2-3.8 7.4-2.3 14.7-5 22.2-7.3L605 570c2.3-.7 4.3-1.5 6.5-2.3 6-2 12.1-3 18.2-4.6l5.7-1.4 10.9-2.6c1-.2 1.9-.5 2.8-.9Zm6.2 14.7a2.5 2.5 0 0 0-3.4-2.3 78 78 0 0 0-6.6 3 2.5 2.5 0 0 0-1.4 3 2.6 2.6 0 0 0 3.2 1.7c2.7-.6 5.1-1.9 7.2-3.7.4-.5.8-1 1-1.7ZM569 606.7a2.4 2.4 0 0 0-2.3 4.2l.5.5c1.7 1.2 3.8 2 6 2.4a2.7 2.7 0 0 0 3-1.8 2.6 2.6 0 0 0-1.2-3c-1.9-1.1-4-1.8-6-2.3Zm44-10.4c1.2 1.7 1.5 2 2.8 2 2 0 3.9-.4 5.7-1.2a2.8 2.8 0 0 0 1.8-3.4 2.8 2.8 0 0 0-3.3-2c-1.8.5-3.5 1.1-5.2 1.8a3 3 0 0 0-1.8 2.8Zm-5.1 17.8a2.5 2.5 0 0 0 2.4 2.3c2.1.2 4.3.2 6.5 0a3 3 0 0 0 1.7-.9 2.5 2.5 0 0 0 0-3.3c-.2-.3-.6-.6-1-.7l-1.2-.2a81 81 0 0 0-6.5 1 2.3 2.3 0 0 0-2 1.8Zm30.9-3.4c-.2-.6-.5-1.2-.9-1.7-1-1.1-2.4-1.9-3.9-2.3a3.8 3.8 0 0 0-3.6.8 2.4 2.4 0 0 0 0 3.8c1.6 1.3 3.5 2.1 5.5 2.5 1.6.3 3-1 2.9-3v-.1ZM621 580.4h.3c2.6-.7 5-2.3 6.4-4.7a2 2 0 0 0-1.4-2.8c-.6-.2-1.3-.2-1.9 0-2 .8-3.8 2-5.3 3.6a2.3 2.3 0 0 0-.4 2.8 2.4 2.4 0 0 0 2.3 1.2Zm-51.2 15.4c1-.1 2-.4 3-.7a2 2 0 0 0 .1-3.5 4 4 0 0 0-1.4-.7 47.8 47.8 0 0 0-6.5-.8 2.3 2.3 0 0 0-.8 4.1c.3.3.7.4 1.2.5 1.4.5 2.8.8 4.4 1.1Zm83.7-10.1a2.7 2.7 0 0 0-2.3 1.5 52.6 52.6 0 0 0-2.1 6.1 2.5 2.5 0 0 0 1.7 2.3 2.6 2.6 0 0 0 3.3-1.4c1-1.9 1.4-4 1.3-6a2.4 2.4 0 0 0-1.9-2.5Zm-61.2 19.8a2.8 2.8 0 0 0 1.4 3 2.4 2.4 0 0 0 3-.4c1-1.3 2-2.6 2.8-4 .2-.4.3-.9.3-1.3a2.6 2.6 0 0 0-4-2.3c-1.7 1.2-3 3-3.5 5Zm76.9-47h-2.8l-2.3.7a2.3 2.3 0 0 0-1.4 2.7 2.3 2.3 0 0 0 2.3 2c.9 0 1.8 0 2.6-.2a3.3 3.3 0 0 0 3-3.3l-1.4-1.8Zm-73.7 25.2c-.3-1.2-.9-2-2-2a2.3 2.3 0 0 0-2.3 1.9l-1 3.8a2.3 2.3 0 0 0 3.3 2 2.4 2.4 0 0 0 1.3-1.7l.7-4Z" fill="#FA8F6B"/>
    <path d="m685 595.4.3-1.2 2.5-6.5 2-5.5a2.6 2.6 0 0 0-.3-2.8 1.9 1.9 0 0 0-2.4.4 11 11 0 0 0-2.3 2.8l-3.8 8-5.8 12.2a101.8 101.8 0 0 1-31.3 33.3 62 62 0 0 1-28.1 9.5c-4.8.5-9.7.8-14.5 1.2h-3.6l-12.1-1.1c-6-.6-12-1.9-17.7-3.8a306.6 306.6 0 0 0-11.4-3.5c-.5 0-1 .2-1.4.3.2.6.3 1.1.6 1.3 1 .9 2.3 1.7 3.6 2.3 4 1.6 7.9 3.2 12 4.6 4.3 1.4 8.8 2.4 13.4 3a90 90 0 0 0 17.7 1.5 170 170 0 0 0 18.6-1.8 66.7 66.7 0 0 0 31.8-13.5c2.2-1.6 4.2-3.5 6.3-5.3l7.2-6.8 1.2-1 1.9-2.3c3-3.6 5.6-7.3 8-11.2l4.4-7.5 3.2-6.6Z" fill="#2B3D2D"/>
    <path d="M540.4 591.7c-.2 2 .3 4.1 1.3 6 3.4 6.5 8 12.4 13.5 17.3a98.8 98.8 0 0 0 16.8 11.5 61 61 0 0 0 30.2 7.9c3.4-.4 6.7-.9 10-1.6 3-.5 5.8-1.3 8.7-2.1 6.1-1.8 12-4.2 17.7-7.2l.3-.2A99.7 99.7 0 0 0 655 610c4.3-4.9 8-10.3 11-16 3.5-6 6.5-12.2 9.1-18.7.8-2 1.7-3.8 2.6-5.7a27.5 27.5 0 0 0 2.4-11 5.9 5.9 0 0 0-5-5l-1.5-.3a51.4 51.4 0 0 1 10.7-3.9 2.7 2.7 0 0 1 2.4 2.8l-.1 2.6-1.5 7.8c-.6 2.9-1.4 5.7-2.3 8.5-2.5 7.3-4.8 14.6-8 21.6a84.9 84.9 0 0 1-4 7.6l-6.9 11.2a65.6 65.6 0 0 1-21.8 17.5c-2 .8-3.7 2-5.5 3a55 55 0 0 1-19.6 6.3c-.9 0-1.8.4-2.6.4a77.9 77.9 0 0 1-25.9.3c-3.4-.6-6.8-1.5-10.1-2.8l-5.3-1.8c-2.9-.8-5.6-2-8-3.7l-6.1-4a63.1 63.1 0 0 1-25.3-30 3.2 3.2 0 0 1 2-3.2c1.5-.7 3-1.3 4.6-1.8Z" fill="#F1EBDF"/>
    <path d="m655.4 573-1 1.6c-2 1.8-4.5 3-7.2 3.7a2.6 2.6 0 0 1-3.2-1.7 2.5 2.5 0 0 1 1.4-3c2.1-1.1 4.3-2.2 6.6-3a2.5 2.5 0 0 1 3.4 2.3ZM569 606.7c2.1.5 4.2 1.3 6 2.3a2.6 2.6 0 0 1 1.3 3.1 2.7 2.7 0 0 1-3 1.8 14.2 14.2 0 0 1-6.5-2.9 2.4 2.4 0 0 1 2.3-4.1l-.1-.2ZM613 596.3a3 3 0 0 1 1.8-2.8 35 35 0 0 1 5.2-1.8 2.8 2.8 0 0 1 3.3 2 2.8 2.8 0 0 1-1.8 3.4c-1.8.8-3.8 1.1-5.7 1.2-1.3 0-1.6-.2-2.8-2ZM607.9 614.1a2.3 2.3 0 0 1 1.9-2l6.5-1 1.2.3a2.5 2.5 0 0 1 1 4 3 3 0 0 1-1.7.9h-6.5a2.5 2.5 0 0 1-2.4-2.2ZM638.8 610.8c0 2-1.3 3.3-3 3.1-2-.4-4-1.3-5.5-2.6a2.4 2.4 0 0 1-.7-2.9l.7-.8a3.8 3.8 0 0 1 3.7-.8c1.4.4 2.8 1.2 3.8 2.3l1 1.6ZM621 580.5a2.4 2.4 0 0 1-2.2-1.1 2.3 2.3 0 0 1 .3-2.7c1.5-1.6 3.4-2.8 5.4-3.7h1.9a2 2 0 0 1 1.5 2c0 .3 0 .6-.2.9-1.4 2.3-3.7 4-6.4 4.7h-.2ZM569.9 595.8l-4.4-1c-.4 0-.8-.3-1.1-.5a2.3 2.3 0 0 1 .7-4.1h2l4.5.8c.6.1 1 .4 1.5.7a2 2 0 0 1-.2 3.4c-1 .4-2 .6-3 .7ZM653.6 585.7a2.5 2.5 0 0 1 2 2.5c0 2-.4 4.1-1.3 6a2.6 2.6 0 0 1-3.3 1.4 2.5 2.5 0 0 1-1.6-3.2c.6-1.8 1.2-3.5 2-5.2a2.7 2.7 0 0 1 2.2-1.5ZM592.4 605.5c.5-2 1.8-3.8 3.6-5a2.6 2.6 0 0 1 3.9 2.3c0 .4 0 .9-.3 1.3a35 35 0 0 1-2.8 4 2.5 2.5 0 0 1-3 .4 2.8 2.8 0 0 1-1.4-3ZM669.3 558.6l1.4 1.9a3.3 3.3 0 0 1-3 3.3c-.8.1-1.7.2-2.6.1a2.3 2.3 0 0 1-2.3-2 2.3 2.3 0 0 1 1.4-2.7c.8-.3 1.5-.5 2.3-.6h2.8ZM595.6 583.7l-.8 4a2.4 2.4 0 0 1-1.3 1.8 2.3 2.3 0 0 1-3.2-2.1c.2-1.3.5-2.6 1-3.8a2.3 2.3 0 0 1 2.2-1.9c1.2 0 1.8.8 2 2Z" fill="#2B3D2D"/>
  </g>
</svg>