<svg viewBox="0 0 886 664" fill="none" xmlns="http://www.w3.org/2000/svg">
  <mask id="a" style="mask-type:alpha" maskUnits="userSpaceOnUse" x="-27" y="0" width="913" height="664">
    <path fill="#D9D9D9" d="M-27 0h913v664H-27z"/>
  </mask>
  <g mask="url(#a)">
    <path d="M331.6 413.2c.5.6.8 1.3 1.3 1.6 1.3.7 2.5 1.7 3.6 2.8a46 46 0 0 0 7.6 6.8 14 14 0 0 1 2.3 2.1l12.3 12.3c1.1 1 2.1 2.3 3 3.6.5.9 1.2 1.6 2 2.3 2 2 4 4.2 5.6 6.6.7 1 1.5 1.8 2.4 2.6 1.3 1.2 2.4 2.5 3.3 4a193.6 193.6 0 0 0 6.7 7c4 3.9 7.7 8.2 11 12.8a59 59 0 0 1 5.7 7.1c2.6 2.9 5 5.8 7.1 9 1.3 2 3 3.7 4.4 5.6 1.4 2 3 3.8 4.6 5.5 2.6 3 5 6 7.1 9.3l4 5.8 3.9 6A183 183 0 0 1 439 543c1.3 2.6 2.7 5.2 4.2 7.6a29 29 0 0 1 3.8 8.4c2.3 4.4 3.8 9.1 6.2 13.4 2.3 4 4 8.3 5.3 12.7.6 2 1.4 3.9 2.3 5.7 2.9 5.2 5 10.8 6.2 16.7.7 3.5 2.1 6.8 2.8 10.3.6 3 1.5 5.9 2.5 8.8.2 1.8.5 3.7 1 5.5.2 2.5 0 5.1 0 7.7v1.5a3 3 0 0 1-1.6 2c-.4 0-.9 0-1.3-.2a43.2 43.2 0 0 1-10.8-17.7c-2.5-5.2-4.7-10.6-6.7-16-.9-2.2-2-4.3-3-6.5-1.8-4-3.5-8-5.5-12-1-2.4-2.3-4.6-3.6-7-1.2-2.3-2.1-3.8-3.3-5.7l-8.6-13.8a205 205 0 0 0-10-14.9c-2.2-2.8-4.2-5.8-6.3-8.7a117 117 0 0 0-8.3-11c-1-1-1.8-2.4-2.7-3.5l-8.6-10.7c-2.9-3.6-6.2-7.2-9-11-3.4-4.1-6.4-8.5-9-13a30.7 30.7 0 0 0-5.7-7.8l-6.6-6.6c-1.5-1.4-2.8-3-4-4.6-.5-1-1.2-1.7-2-2.4-1.6-1.4-3-3.1-4.2-5-.5-.8-1-1.4-1.7-2-.8-.6-1.5-1.4-2.1-2.2-1.9-2.6-4-5-6.5-7.1-3.8-4-7.7-7.8-11.5-11.6-1.6-1.6-3.3-3-5-4.4a38 38 0 0 1-4.5-4.7c-1.4-1.6-3-3-4.7-4a95.3 95.3 0 0 0-16.5-12.8 64.5 64.5 0 0 1-7.2-5.5 4 4 0 0 1-1.3-2.2c5.5.1 11 .5 16.3 1.2h2c1.7 0 3.4.3 5 .9.6.2 1.3.3 2 .3a12 12 0 0 1 5.5.8c.5.2 1 .2 1.5 0 2.2 0 4.4.3 6.4 1 .4.2.9.4 1.3.4Z" fill="#F5F1E8"/>
    <path d="M416.8 443v.4l4.3 4.5c1.3 1.6 2.2 3 3.5 4.4 2.1 2.2 4 4.6 5.6 7.1 3 4.3 5.5 8.7 8.3 13l20 30.1c2.4 3.6 4.6 7.2 6.5 11 1.1 2.5 2.5 5 4 7.2a72 72 0 0 1 7.8 15.4c2.6 6.2 4.9 12.4 6.8 18.7a66.9 66.9 0 0 1 3.1 16c0 .6.5 1.2.6 2 .2 1 .3 2.3.2 3.5a1.8 1.8 0 0 1-1 1.6 1.2 1.2 0 0 1-1.4-.4 8 8 0 0 1-1.3-1.6c-3.6-6.4-7.5-12.5-11.6-18.6l-1-1.3c-2.4-5-5.5-9.7-7.9-14.8-1.4-3-3.1-5.7-5.2-8.2-.5-.5-.9-1-1.2-1.6a37 37 0 0 0-5.4-8c-2-2.4-3.6-5-5-7.7l-2-3.6c-1.2-1.7-2.1-3.5-2.9-5.4-.8-2.4-2.1-4.6-4-6.3a61.2 61.2 0 0 1-9.1-11.6c-1-1.4-2-2.8-3.2-4l-4-4a97.3 97.3 0 0 1-13.2-15l-2-2.2-5.8-5.8a19.2 19.2 0 0 1-3.3-4c-.7-1-1.4-1.8-2.3-2.6-1.6-1.4-2.9-3-4-4.8a9.4 9.4 0 0 0-2-2.2L378.5 434c-1-1-2-1.7-3.1-2.6-3-2.3-5.7-5-8-8 2.5-.1 5 .2 7.2 1.1l14.3 5.4c5.2 1.9 10.2 4.3 15.4 6.3 2.7 1 5.2 2.4 7.9 3.5a27 27 0 0 1 3.8 2.4 1.4 1.4 0 0 0 1.1 1l-.3-.1Z" fill="#F5F1E8"/>
    <path d="M485.6 483v1c1.2 2.9 2.3 5.7 3.6 8.5 4.1 8.4 8.4 16.7 12.6 25.1 1.9 3.8 3.3 7.8 4.2 12l.7 1.9a66 66 0 0 1 6.4 15.7v5.8c-.8 2-2.3 2.2-4.3 2a35.7 35.7 0 0 1-12-15.2 60.2 60.2 0 0 0-4.3-7.5l-4.4-6.9-8.6-12.6-1.2-1.7a25.3 25.3 0 0 0-6.4-9.1c-1.6-3-4.5-5.1-6.1-8.2l-2.9-4.8c-1.6-2.8-3.5-5.4-5.3-8a269 269 0 0 1-8.1-13c-1.4-2.6-3.1-5-5.2-7-.9-.8-1.7-1.6-2.4-2.6-.4-.6-.6-1.2-.6-1.9 1-.1 2 0 3 .5 1.7.9 3.5 1.6 5.4 2.8 4 2.5 8.2 4.8 12.3 7 4 2.4 7.7 5 11.3 7.8l4.2 3c2.8 1.6 5.5 3.4 8.1 5.5Z" fill="#F5F1E8"/>
    <path d="M538 521c.2 2.9.8 5.7 1.7 8.4.2 1 .5 2 1 2.9a5.1 5.1 0 0 1-1.5 6 6.4 6.4 0 0 1-5.5-2.8l-3-4a37 37 0 0 0-3.9-4.8 65.5 65.5 0 0 0-9-13c-2.7-3-4.6-6.7-5.5-10.7v-1.5l1.6.2c4 3.6 8.7 6.9 13.2 10.3l9.4 7c.6.6 1.1 1.3 1.5 2Z" fill="#F5F1E8"/>
    <path d="M252.1 554.1h-3.7l-3.6-2.9c-1.2-1-2.2-2.1-3.3-3.2a20 20 0 0 0-4.3-3.6c-.9-.5-1.6-1.2-2.3-2l-4.4-4.3a63 63 0 0 1-15.3-10.2c-2.2-1.9-4.6-3.5-6.6-5.6-.8-.6-1.7-1.2-2.6-1.6a77.5 77.5 0 0 1-12.8-8.5c-2.9-2.3-5.6-4.9-8.3-7.5a48 48 0 0 0-4-3c-3.9-3-7.5-6-11.5-8.7-2.8-1.9-5.5-4-8.5-5.7-3-1.6-5.3-3.5-8.2-5.1-1.8-1-3.5-2.2-5-3.6-2-1.6-4-3-6.2-4.3-4.6-2.8-9.5-5.4-14-8.5l-2-1.4a34 34 0 0 0-7.8-5c-7-3.6-14-7.9-21.4-11.2-4.2-2.9-8.8-5-13-8-4.4-3-9-5.7-13.7-8-6.7-3.2-13.2-6.5-19.8-9.8l-4.6-2.4-.3-1.4 19.2-3 13.1-2.2c1.5-.2 3-.2 4.6 0 .2.2.3.6.6.7l3.2 1.7c6.4 2.9 12.3 6.6 18.5 9.8 4 2 7.7 4.4 11.5 6.8l12.4 8c1 .6 2 1.2 3.2 1.7l7.7 4c6.5 3 12.6 6.6 18.6 10.6 4.7 3 9.2 6.4 13.9 9.5 2.4 1.6 4.7 3.5 7.1 5.1 1.6 1.1 3 2.2 4.5 3.6l3.6 3.6c2.1 1.9 4.4 3.7 6.7 5.4 1.6 1 3 2.2 4.3 3.6 3.6 3.5 7.2 7.1 10.5 10.7l9.5 9.4c.6.7 1.2 1.2 1.9 1.7 2.2 1.6 4.3 3.3 6.2 5.4 2.1 2.3 4.5 4.5 7.1 6.4 1.3.9 2.4 2 3.3 3.2l7 9.5c3.4 5 6.4 10.4 9 16a14 14 0 0 1 0 4.3Z" fill="#F5F1E8"/>
    <path d="m.8 427.8 12-2.6 15.2-3.6c1.6-.2 3-.2 4.6-.2v1c.2.4.4.6.7.8 6.2 3.6 12.5 6.8 18.7 10.5 6.2 3.6 13.3 7.7 19.8 11.7 3.5 2.4 7.3 4.9 11.2 7.1 3.8 2.3 7.3 5 11.2 7.2 6.6 3.9 12.8 8.4 19.8 11.6 4.6 3.2 10 5.2 14.6 8.4l14.1 9.2c3.3 2.2 6.5 4.3 9.7 6.6 5.7 3.8 11.2 7.8 16.4 12.2 2.8 1.4 4.5 4.2 7.4 5.5a112 112 0 0 1 8.1 8.2 37 37 0 0 0 7.2 7.1c3.9 3.1 6.8 7.2 8.5 12 .5 1.1.4 2.6 1 3.9a2.3 2.3 0 0 1-1.2 3c-1.1.5-2.4.6-3.6.2a25 25 0 0 1-9.6-4.6 8.8 8.8 0 0 0-6.2-2.6l-4.3-2.8c-.8-1.8-2-3.4-3.6-4.7-1.7-1.6-3.3-3.5-5.2-5-1.8-1.3-3.9-2.6-5.7-4.1-5.7-4.7-12-8.5-17.7-13.1-2.6-2.1-5.5-4-8.2-6a694.4 694.4 0 0 0-41.5-27.9c-6.6-4-13.3-7.7-19.7-11.9l-1.4-.7C63 459 53 453.3 42.6 448.5l-8.8-4c-3-1.3-5.8-2.9-8.9-4-4-1.5-7.7-3.5-11.6-5.1-2.8-1.3-5.6-2.6-8.5-3.6a7.1 7.1 0 0 1-3.8-2.6l-.2-1.4Z" fill="#F5F1E8"/>
    <path d="m-49.6 439.8 1.2-.8c2.4-.8 4.8-1.5 7.1-2l4-1.1c3-.9 6.1-1.6 9.3-2.2 1.6-.6 3.3-1 5-1 .3.4.7.8 1.1 1 6.5 2 13 3.8 19.5 6l10.5 4c1.7.6 3.5 1.5 5.2 2 4.9 1.5 9.6 3.4 14.2 5.6l2.4 1c1.1.3 2.2.8 3.2 1.4 4.8 3.2 10.2 4.7 15.1 7.5 3 1.4 5.8 3 8.6 4.6a88.6 88.6 0 0 1 9.3 5.3c5.8 3 11.4 6.2 16.7 10 3.5 2.2 7.1 4.1 10.3 6.5l14.9 10.7c3.9 3.2 8 6.3 12.1 9 2.5 2.7 5.7 4.3 8.2 7 1.5 1.6 3.5 2.5 5.1 4.2 1.3 1.6 2.8 3 4.4 4.3 4 3 7.5 6.5 10.8 10.2l10.7 10.5c1.3 1.2 2.3 2.8 2.9 4.4v4.2a5.7 5.7 0 0 1-3.8 2.8 4 4 0 0 1-1-.2c-2.4-1-4.6-2.3-6.4-4.1a43.6 43.6 0 0 0-4-3.1c-1.1-1.2-2.3-2.1-3.6-2.9-.5-.2-.9-.6-1.2-1-2.9-3.2-6.6-5.4-9.6-8.4-1.1-1-2.5-1.8-3.6-2.7-3.8-3.2-7.8-6.2-11.6-9.3-3-2.4-6.2-4.7-9.5-6.8-6.6-4.3-12.8-9.2-19.4-13.2-2.7-1.6-5.3-3.2-7.8-5a76.9 76.9 0 0 0-9.5-6 70.7 70.7 0 0 0-7.5-4.4c-3.5-1.5-6.4-3.6-9.7-5.6-1.2-.7-2.3-1.4-3.6-2l-29.3-14.7c-1.7-.8-3.4-1.5-5.2-2.1-4.6-1.7-9.3-3.4-13.8-5.4-6.8-3-14-5.3-21-7.7-2.3-.8-4.6-1.5-6.8-2.5-4.5-2-9.2-3.3-13.7-5.3-3-.4-5.8-1.9-8.8-2.4-.7-.3-1-.2-1.4-.3Z" fill="#F5F1E8"/>
    <path d="M111.7 554v2c-.5.8-1 1.1-1.8 1a29.5 29.5 0 0 1-9.6-5.8l-2.9-3c-4.2-2.5-8.8-4.5-12.8-7.4-5.1-3.6-10.7-6.8-15.8-10.4-5-3.6-10.1-6.8-15.2-10.2-2-1.4-4-2.7-5.8-4.2-3.4-2.6-7-5-10.7-7.1a44 44 0 0 1-4-2.4 49.2 49.2 0 0 0-5.2-3.2 59 59 0 0 1-6.1-3.6c-3.2-2.2-7.2-3.5-10.1-6l-1-.4c-6.3-3-12.2-6.7-18.5-9.8-2-1-4-2-6-2.6a16 16 0 0 1-4.6-2.3 48 48 0 0 0-10.5-5.3 52 52 0 0 1-7.4-3.5 92 92 0 0 0-11.3-5c-2-.8-4-1.8-6.3-2.9l-4.4-4.5a4.7 4.7 0 0 1-.3-3.6c1-2 2.9-2.8 5.2-3.8h3.2a19 19 0 0 1 8 1.2c7.1 2.2 14.3 4.6 21.4 7 2.7 1.3 5.6 2.5 8.5 3.5 2.8 1.2 5.5 2.7 8 4.4a124.2 124.2 0 0 1 17 8.3c3 1.2 5.6 2.7 8.2 4.4 2 1.3 4.1 2.4 6.4 3.3 4 2 8 4.4 11.8 7.1l4.5 3.3c1.4 1.2 3 2.2 4.7 3.1a82 82 0 0 1 10.7 7.1c2.4 1.9 5 3.6 7.1 5.6 3 2.2 5.9 4.6 8.7 7.1 1 1.2 2.1 2.2 3.5 3 .6.3 1.2.7 1.6 1.3l9.7 9.7c5 6 10.4 11.7 16.2 17 2.3 2.3 4.3 4.8 6 7.6Z" fill="#F5F1E8"/>
    <path d="M48 537.5v3.2c-.6 1-1.2 1.7-2 1.8-.9.2-1.8.2-2.6 0l-9-4.7c-.5-.2-.9-.6-1.3-.9-4.2-2.3-8.3-4.7-12.6-6.8-4.3-2-8.4-4.4-12.3-7-4.1-2.8-8.2-5.6-12.6-8-3.3-1.8-6.3-4-9.5-5.9l-4-2.2c-2.2-1-4.3-2.3-6.3-3.6-1-.7-2-1.3-3.1-1.7-2.8-1.1-5.6-2.5-8.4-3.5-2.9-1-4.8-2-7.2-3.2-3.3-1.6-6.7-3.5-10-5a160 160 0 0 1-11.7-5.2 17 17 0 0 0-2.5-.7l-1.9-2a3 3 0 0 1 .6-3.2c1.2-1.2 2.6-2 4.2-2.6 2.6-.4 5.3-.1 7.7.9 7.3 1.7 14.4 4 21.4 6.7 3.5 1.6 7.3 2.9 11 3.8 1 .2 2 .6 2.9 1.2 4.3 2.1 8.6 4.2 12.7 6.5 3.6 2 7.2 4.2 10.5 6.3l2.2 1.4a71 71 0 0 1 12.8 8.4c1.4 1 2.8 2 4.3 2.8 3.3 2 6.3 4.5 9.5 6.9l6.1 4.5c1 .7 1.9 1.5 2.7 2.3l4.8 4.7c1.5 1.3 2.7 3 3.5 4.8Z" fill="#F5F1E8"/>
    <path d="M183.5 405.2c6-.6 12-.6 17.8 0l9.1.7c.7 0 1.4.2 2 .3.5.7 1 1.4 1.7 2 3.5 2.3 6.8 5 10.5 7 4.1 2.4 8 5 11.8 8 1.4 1.3 3 2.4 4.5 3.4 2 1.3 3.9 2.9 5.5 4.6 1.6 1.5 3.6 2.5 5.2 4.1 1.5 1.7 3.2 3.2 5 4.3a19 19 0 0 1 2.7 2.5c1.2 1.2 2.5 2.3 4 3.2 1 .8 2 1.7 3 2.8 2.4 2.6 5.1 5 8 7 1 .8 1.9 1.6 2.6 2.5l2.3 2.2c2.5 1.7 4.9 3.7 6.9 6 6.5 6.4 12.9 12.8 19.2 19.3 2.1 1.8 4 3.8 5.4 6.2.5.6 1 1.3 1.7 1.8 2.5 2.3 4.8 5 6.8 7.7.7 1 1.5 1.8 2.5 2.6 1.6 1.5 3 3.2 4.2 5a1350.6 1350.6 0 0 1 16 20.5c3.7 4.8 7.2 9.7 10.8 14.3l5.4 6.9c1.8 2.2 3.5 4.6 5 7l13.2 20.2a103.7 103.7 0 0 1 7.9 13.1c2.5 3.9 4.7 7.9 7.1 11.8 2.1 3.3 3.8 6.8 5.6 10.3 1.8 3.7 3.4 7.4 4.8 11.3a91.2 91.2 0 0 1 5.3 14.8c1 3.6 2.4 6.8 3.4 10.2.9 3.5 1.6 5.9 2.6 8.8.6 2 1.6 4.1 2.3 6.2.3.6.5 1.3.6 2v5c0 .3-.3.6-.5 1-.5 0-1 0-1.4-.2a23.9 23.9 0 0 1-6.4-8c-4-8.2-8.8-16.1-12.8-24.4l-3.1-5.3c-2.8-4.2-4.8-9-8-13.1l-1.5-2.7c-2.8-5.8-6.4-11.2-9.7-16.7l-4.9-8.5a56.8 56.8 0 0 0-5-7.6c-3-3.7-5.9-7.5-8.4-11.6-3.6-5.8-8-11-11.8-16.6l-2.1-2.3a41.6 41.6 0 0 1-6.4-7.1 17 17 0 0 0-2.5-2.6 23.5 23.5 0 0 1-4.4-5.3l-2-2.2c-2-1.9-3.8-4-5.3-6.2-.9-1.1-1.8-2.1-2.9-3l-18-18.2a15.7 15.7 0 0 1-3.4-3.9 6860 6860 0 0 0-28.5-28.8c-1-1.2-2.2-2.2-3.5-3-.8-.4-1.4-1-2-1.6a35.3 35.3 0 0 0-5.7-5c-1.1-.8-2.1-1.7-3-2.8-1.8-2-4-3.8-6.2-5.3-.7-.5-1.3-1-1.9-1.7-1.5-1.7-3.2-3.1-5-4.3-.5-.2-1-.6-1.2-1-2.6-3-6.2-4.9-9-7.7-3.8-3-7.8-5.9-12-8.4-4.8-3.6-10-6.5-14.8-10.2-2.4-1.8-5-3.5-7.6-5.1l-5.3-3.2a316 316 0 0 1-10.2-6.6c-2.8-1.7-5.3-4-7.2-6.6h4.6c1.6-.2 2.8 1 4.4 1 .8 0 1.7 0 2.2-.8Z" fill="#F5F1E8"/>
    <path d="M237.1 406c2.4.6 4.8 1 7.2.9h15.3c2-.2 4.1 0 6.1.4.2.5.4 1 .7 1.3 5.7 3.6 10.7 7.8 16.3 11.5a218 218 0 0 1 23.3 18.2c2.4 2.7 5 5.1 7.6 7.6 1.6 1.8 3.4 3.4 5.4 4.7a13 13 0 0 1 2.7 2.4l17 17.1a22 22 0 0 1 4.7 5.4c.5.7 1 1.4 1.7 2 1.3 1 2.4 2.4 3.2 3.9.5.7 1 1.4 1.7 2 1.4 1.2 2.6 2.7 3.6 4.3l1 1.2c1.5 1.5 3 3.2 4.2 5 1.1 2 3.1 3.2 4.2 5.2.7 1 1.5 1.9 2.4 2.7 1.4 1.2 2.6 2.7 3.6 4.3.2.5.5.9 1 1.2 3 2.5 4.9 6 7.7 8.9l.9 1.2c2.3 3.5 5.1 7.1 7.8 10.7 3.6 4.6 6.8 9.4 9.9 14.3l9 14.8 4.1 7.1c.8 1.3 1.7 2.6 2.4 4 1.3 2.6 2.7 5.1 3.9 7.8 2.2 4.6 5 8.9 7.5 13.3l.7 1.4a350.4 350.4 0 0 0 10.9 22.6c2 3.6 3 6.5 4.4 9.7l4.1 9.4c1.6 4.3 2.8 8.8 3.6 13.3 1.3 2.8.6 6 1.8 9 .2 1 .2 2 0 3 0 1.5.1 3 .7 4.5.2.8.3 1.7.3 2.5v7l-1.4 4h-1a9.5 9.5 0 0 1-3.6-4.2c-1.7-3-3.2-6-4.2-9.3-1.9-3-2.8-6.6-4.4-9.8-1.8-3.6-3.4-7.4-4.7-11.3 0-.3-.3-.6-.4-1l-6.2-13.4c-1.6-3.6-3-7.1-4.8-10.7-1.6-2.4-3-5-4.3-7.6l-1.8-4.2c-1-2.4-2.2-4.7-3.5-6.9-4.2-6.6-8.1-13.4-12.1-20.1-3-5.1-6.1-10.3-9.3-15.3-1.9-3-4-6-6.2-8.8l-7.1-9.4c-1.2-1.7-2.3-3.6-3.6-5a57.6 57.6 0 0 1-5-7.2l-2-2.3c-1.7-1.5-3.1-3.2-4.3-5-.6-.9-1.3-1.7-2.1-2.3l-7.6-7.7a21.9 21.9 0 0 1-3.5-4.3c-.7-1-1.5-1.9-2.5-2.7l-11.5-11.6a26.2 26.2 0 0 1-4.7-5.4c-.8-1.1-1.7-2.2-2.8-3L304.8 467c-1-1.2-2.3-2.2-3.6-3-.8-.5-1.6-1.2-2.3-2l-7.6-7.6a62 62 0 0 0-6.9-6.1c-2.5-1.8-4.9-3.6-7.1-5.6-5.6-4.2-11.7-7.7-17-12.2-1.2-1-2.5-1.9-3.8-2.6-2.3-1.5-4.6-3-6.7-4.7a48 48 0 0 0-6-3.8 35 35 0 0 1-8-6.3 11 11 0 0 0-2.4-2 21 21 0 0 1-5.6-5.2h9.3Z" fill="#F5F1E8"/>
    <path d="M102.6 410.3c5.8-.6 11.7-1 17.5-2l3.6-.1 4.5-.4h15.3c1.4.2 2.7.5 4 1 2.2.9 4.3 2 6.3 3.2l13.1 8c2.3 1.3 4.6 2.7 6.7 4.3a187.3 187.3 0 0 0 12.2 8.2c2.5 2.8 5.9 4.6 8.5 7.3 1.5 1.4 3.3 2.5 4.8 3.8 1.3 1.4 2.7 2.6 4.3 3.6a95.5 95.5 0 0 0 9.7 8.3c2.6 2.3 5.2 4.5 7.9 6.6l9.5 6.9c.6.5 1.3 1 1.8 1.7 3.2 2.9 6 6 8.6 9.4.9 1.1 1.8 2.1 2.9 3 1 1 1.8 2 2.5 3.2a6 6 0 0 0 1.3 1.6c2 1.9 3.9 3.8 5.7 6 1.7 2.2 3.6 4.4 5.7 6.4l5.8 5.8 4.3 4.4c1.2 1 2.2 2.2 3 3.6.1.5.5.9.8 1.2 2.8 2.4 4.5 5.6 7.2 8.2.9 1 1.7 2.1 2.4 3.3 2 2.3 3.6 4.8 5.9 7a56.8 56.8 0 0 1 5.1 7c2.7 2.7 5 5.7 7.5 8.5a88 88 0 0 1 6 7.6l11 16.6 2.3 4c1.6 3 3 6 5 9 1.9 3.3 3.3 7 4 10.9l-1 2a3.2 3.2 0 0 1-3.6.4 9.7 9.7 0 0 1-3.5-2.2 48 48 0 0 1-7.8-8.8c-2.7-3-5.2-6.1-7.5-9.4l-4.2-5.9c-2.9-4.6-6.3-8.9-10-12.7-1.7-1.6-2.9-3.6-4.3-5.1a48.2 48.2 0 0 1-4.6-4.9c-1.4-1.9-3-3.7-4.7-5.3l-17-17.2a20 20 0 0 1-4-4.6c-.3-.8-1-1.4-1.7-1.9-2.2-1.4-4-3-5.8-5-2.8-2.7-5.5-5.6-8.4-8.3-1.8-2-3.9-3.8-6.1-5.4-1.1-.8-2.1-1.7-3-2.8-1-1.1-2.3-2-3.6-2.9-.8-.5-1.6-1.2-2.3-2-2.2-2.1-4.5-4.2-6.6-6.5a39.8 39.8 0 0 0-9.5-7.6c-1.6-1.5-3.4-2.9-5.2-4.2a48.5 48.5 0 0 0-5.2-4c-3.1-3.6-7.1-5.9-10.3-9.2a80.8 80.8 0 0 0-8-6.4l-2.3-2-7.8-6.6c-1.8-1.3-3.6-2.3-5.6-3.5a322.5 322.5 0 0 0-24.6-15.4 11.6 11.6 0 0 0-5.7-3.2l-1.4-.6c-6.2-3.3-12.7-5.8-19-8.9l-10.7-4.9a3 3 0 0 1-1.7-2Z" fill="#F5F1E8"/>
    <path d="M703.2 697.8a356.6 356.6 0 0 0-22.6-31.8c-4-5-8-9.8-11.8-14.8-1.8-2.4-4-4.6-5.8-7.1-4.2-5.4-8.3-10.7-12.8-15.8-2-2.2-4-4.5-5.8-6.9-.8-1.4-1.9-2.8-3.1-4-.5-.4-1-1-1.3-1.6-.7-1.3-1.7-2.5-2.8-3.5-1-.9-2-1.9-2.8-3a41 41 0 0 0-6-6.9 15 15 0 0 1-2.1-2.2c-2.3-3.1-4.9-6-7.8-8.7-1-.8-2-1.8-2.8-3-1.8-2.5-4-5-6.4-7-.5-.5-1.1-.8-1.7-1.1l-53-46c-.2-.4-.4-1-.8-1.2a47 47 0 0 1-6.9-5.9 40.6 40.6 0 0 0-8.9-6.4c.2 2.9.8 5.7 1.7 8.4.2 1 .5 2 1 3a5.1 5.1 0 0 1-1.5 6 6.4 6.4 0 0 1-5.5-3l-3-4a32.6 32.6 0 0 0-3.9-4.7 59.7 59.7 0 0 0-9-13c-2.7-3-4.6-6.7-5.5-10.7v-1.5c-.5-.7-1-1.3-1.7-1.8a485.7 485.7 0 0 1-19.7-14 21 21 0 0 0-3.8-2.4 4 4 0 0 0-1.5-.3l.2 1c1.2 2.8 2.3 5.7 3.6 8.4l12.6 25.2c2 3.8 3.4 7.8 4.3 12a13.7 13.7 0 0 0 1.2 3.3c2.5 4.5 4.4 9.3 5.8 14.3v5.8c-.8 2-2.3 2.3-4.3 2-4.1-3.1-7.6-7-10-11.6l-2-3.6a58.2 58.2 0 0 0-4.2-7.6l-4.5-6.8-8.6-12.6-1.1-1.7a26 26 0 0 0-6.5-9.1c-1.6-3-4.5-5.1-6-8.1l-3-4.9c-1.6-2.8-3.5-5.4-5.2-8.1-2.9-4.2-5.6-8.6-8.2-13a28.9 28.9 0 0 0-5.2-6.9 17 17 0 0 1-2.4-2.6c-.3-.6-.5-1.2-.6-1.9a1.2 1.2 0 0 1-1-1 1.2 1.2 0 0 1-1-1l-7.2-4c-2.4-1.3-4.5-2.3-6.6-3.8-2-1.3-4.2-2.3-6.4-3.2-.8-.2-1.7-.3-2.5-.3v.5l4.2 4.5c1.3 1.5 2.2 3 3.6 4.3 2 2.2 3.9 4.6 5.6 7.2 2.8 4.2 5.4 8.6 8.2 12.9 6.7 10 13.4 20 20 30.2 2.5 3.5 4.6 7.2 6.5 11 1.2 2.5 2.5 4.9 4 7.1 3.2 4.9 5.9 10 7.8 15.5 2.6 6.1 4.9 12.3 6.9 18.7a73.8 73.8 0 0 1 3 16c0 .6.5 1.2.6 1.9.2 1.1.3 2.3.3 3.5a2 2 0 0 1-1.1 1.7 1.2 1.2 0 0 1-1.3-.5l-1.4-1.5a263.2 263.2 0 0 0-12.5-20c-2.4-5-5.6-9.6-8-14.8a36.8 36.8 0 0 0-6.4-9.8 37 37 0 0 0-5.5-8c-1.8-2.4-3.5-5-5-7.7-.5-1.2-1.3-2.4-2-3.6a33 33 0 0 1-2.8-5.4 15 15 0 0 0-3.9-6.4 57.9 57.9 0 0 1-9.1-11.6c-1-1.4-2-2.8-3.2-4l-4-4a96.9 96.9 0 0 1-13.2-15 25 25 0 0 0-2-2.2c-2-2-4-3.8-5.8-5.8a18.2 18.2 0 0 1-3.3-4c-.7-1-1.5-1.8-2.4-2.6-1.5-1.4-2.8-3-3.9-4.7-.5-.9-1.2-1.7-2-2.3L378.5 434c-1-.9-2-1.8-3.2-2.5-3-2.3-5.6-5-7.8-8a1.4 1.4 0 0 1-1-1c-.6-.4-1.2-.6-1.8-.8-2.2-.3-4.3-.9-6.3-1.8-1.6-.6-3.6-.2-4.9-1.3-1.8 0-3.5-1.4-5.3-1.3-3.2-1-6.4-1.9-9.7-2.6a25 25 0 0 0-6.9-1.4c.4.5.8 1.3 1.3 1.5 1.3.8 2.5 1.8 3.6 2.9 2.3 2.5 4.8 4.8 7.6 6.7.8.6 1.6 1.3 2.2 2.1l12.3 12.4c1.2 1 2.2 2.2 3 3.6a12 12 0 0 0 2 2.3c2.1 2 4 4.2 5.7 6.6.7 1 1.5 1.8 2.4 2.6 1.3 1.1 2.4 2.4 3.3 3.9a147.4 147.4 0 0 0 6.7 7c4 4 7.7 8.3 11 12.9 2 2.2 4 4.6 5.7 7.1 2.6 2.8 5 5.8 7.1 8.9 1.3 2 3 3.7 4.4 5.6 1.4 2 3 3.7 4.6 5.5 2.6 2.9 5 6 7.1 9.3 1.5 1.9 2.7 3.9 4 5.8l3.9 6c3.5 5.5 6.8 11.1 9.7 16.9a63 63 0 0 0 4.2 7.6 29 29 0 0 1 3.7 8.3c2.4 4.4 3.8 9.2 6.2 13.5 2.3 4 4 8.3 5.4 12.7.6 2 1.3 3.8 2.3 5.7a61 61 0 0 1 6.1 16.7c.8 3.5 2.2 6.7 2.8 10.3.6 3 1.5 5.9 2.5 8.8-.2 1.9.9 3.5 1 5.4.2 2.6 0 5.2 0 7.7.1.6.1 1 0 1.6a3 3 0 0 1-1.5 2c-.5 0-1 0-1.4-.3-.5-.3-1-.8-1.5-1.3a42.6 42.6 0 0 1-9.2-16.3c-2.8-5.2-4.5-10.7-6.7-16l-3-6.5-5.5-12.1-3.6-6.9-3.3-5.7c-2.9-4.6-5.7-9.3-8.7-13.9-2.9-4.6-6.3-10-10-14.8-2.2-2.8-4-5.8-6.2-8.7a112 112 0 0 0-8.3-11c-1-1-1.8-2.4-2.7-3.5l-8.6-10.7c-2.9-3.6-6.2-7.2-9-11-3.4-4.2-6.4-8.5-9-13.1a32.1 32.1 0 0 0-5.8-7.8c-2.2-2-4.4-4.3-6.5-6.5a20 20 0 0 1-4-4.7c-.6-.8-1.2-1.6-2-2.3-1.6-1.5-3-3.2-4.2-5-.5-.8-1.1-1.4-1.8-2-.7-.6-1.4-1.4-2-2.2a39 39 0 0 0-6.5-7.1 1166 1166 0 0 0-11.6-11.7c-1.5-1.6-3.2-3-5-4.3-1.7-1.4-3.2-3-4.6-4.7-1.3-1.6-2.9-2.9-4.7-4a92.8 92.8 0 0 0-16.5-12.8 64.8 64.8 0 0 1-7-5.5 3.8 3.8 0 0 1-1.4-2.2l-1.3-.5H282c-3 0-6.1-.3-9.2-.8a15 15 0 0 0-7 0c.1.5.2 1.1.6 1.3 5.7 3.6 10.7 7.8 16.3 11.5a236.5 236.5 0 0 1 23.3 18.2c2.5 2.7 5 5.1 7.6 7.6 1.6 1.8 3.4 3.4 5.5 4.7a3762.8 3762.8 0 0 1 19.7 19.5c1.8 1.6 3.3 3.4 4.6 5.4.5.7 1 1.4 1.7 2a17 17 0 0 1 3.2 3.9c.5.7 1 1.4 1.7 2 1.4 1.2 2.6 2.7 3.6 4.3.2.4.5.8 1 1.2 1.5 1.5 3 3.2 4.2 5 1.1 2 3.1 3.2 4.1 5.2a14 14 0 0 0 2.4 2.7c1.4 1.2 2.6 2.7 3.6 4.3.2.5.6.9 1 1.2 3 2.5 5 6 7.7 8.9l1 1.2c2.3 3.8 5 7.1 7.7 10.7a178 178 0 0 1 9.9 14.2l9 14.9 4.2 7.1 2.3 4 4 7.8c2.1 4.6 5 8.9 7.4 13.4l.8 1.3a395.8 395.8 0 0 0 10.9 22.6c1.9 3.7 3 6.5 4.4 9.8l4 9.3c1.6 4.3 2.8 8.8 3.6 13.3 1.4 2.8.6 6 1.9 9v3c-.1 1.5 0 3 .6 4.5.3.8.4 1.7.3 2.6v6.9l-1.4 4h-1a9.9 9.9 0 0 1-3.6-4.2c-1.7-3-3.1-6-4.2-9.3-1.9-3.1-2.7-6.6-4.4-9.8-1.8-3.7-3.4-7.4-4.7-11.3l-.4-1-6.2-13.4c-1.6-3.6-3-7.1-4.8-10.7-1.6-2.4-3-5-4.3-7.6l-1.7-4.2a65 65 0 0 0-3.6-6.9c-4.1-6.6-8.1-13.4-12.1-20.1-3-5.1-6-10.3-9.3-15.3-1.8-3-4-6-6.2-8.8l-7.1-9.4c-1.1-1.7-2.2-3.6-3.6-5a58 58 0 0 1-5-7.1l-2-2.3a28 28 0 0 1-4.3-5.1c-.6-.8-1.3-1.6-2.1-2.3l-7.6-7.7a21.2 21.2 0 0 1-3.5-4.2c-.7-1-1.5-2-2.4-2.7l-11.6-11.6a27.2 27.2 0 0 1-4.7-5.5 5425.2 5425.2 0 0 0-23.2-23.3c-1-1.1-2.2-2.1-3.5-3-.9-.5-1.6-1.1-2.3-2l-7.6-7.6a62.8 62.8 0 0 0-7-6 98 98 0 0 1-7-5.6c-5.7-4.2-11.7-7.7-17-12.3l-3.8-2.6c-2.4-1.4-4.6-3-6.7-4.6-2-1.5-4-2.7-6-3.9-3-1.7-5.8-3.8-8.1-6.2-.7-.8-1.5-1.5-2.4-2-2.1-1.4-4-3.2-5.5-5.2-5.1-.4-10.3-.4-15.4 0l1.6 1.9c3.6 2.4 6.9 5 10.6 7.1 4.1 2.4 8 5 11.8 8 1.4 1.2 3 2.3 4.5 3.4 2 1.3 3.9 2.8 5.5 4.5 1.6 1.6 3.6 2.5 5.2 4.2 1.5 1.6 3.2 3 5 4.2 1 .8 1.9 1.6 2.7 2.5 1.2 1.2 2.5 2.3 4 3.3 1 .7 2 1.7 3 2.7 2.4 2.6 5.1 5 8 7.1 1 .7 1.8 1.5 2.6 2.4.7.8 1.4 1.5 2.3 2.1 2.5 1.7 4.9 3.8 6.9 6.1a1970 1970 0 0 1 19.2 19.3c2.1 1.7 4 3.8 5.4 6.1.5.7 1 1.4 1.7 2 2.5 2.3 4.8 4.8 6.8 7.6a21 21 0 0 0 2.4 2.6c1.7 1.5 3.2 3.2 4.3 5a49.4 49.4 0 0 1 7.5 9l8.6 11.5c3.6 4.8 7 9.7 10.7 14.3 1.8 2.3 3.6 4.7 5.4 6.8 1.8 2.3 3.5 4.7 5 7.2l13.2 20c2.3 3.4 4.4 7 6.3 10.5l1.5 2.7c2.6 3.8 4.8 7.8 7.2 11.7 2 3.4 3.7 7 5.6 10.4 1.8 3.6 3.4 7.4 4.7 11.2l2 4.8a94 94 0 0 1 3.3 10.1c1 3.4 2.5 6.7 3.6 10.2l2.6 8.7c.7 2.1 1.6 4.2 2.4 6.2l.5 2v5.1c0 .3-.3.6-.5 1s-1 0-1.4-.2a24.6 24.6 0 0 1-6.4-8c-4-8.2-8.8-16.1-12.8-24.4a49 49 0 0 0-3.1-5.3c-2.8-4.3-4.7-9-8-13.2l-1.4-2.6c-2.9-5.8-6.4-11.2-9.8-16.8-1.7-2.7-3.3-5.6-4.9-8.4a49.6 49.6 0 0 0-5-7.7c-3-3.6-5.8-7.5-8.4-11.5-3.5-5.9-8-11-11.8-16.6l-2-2.3a46.3 46.3 0 0 1-6.5-7.1c-.7-1-1.5-1.9-2.4-2.7-1.8-1.4-3.3-3-4.6-4.8l-2-2.3c-2-1.9-3.8-4-5.4-6.2-.8-1.1-1.7-2.1-2.8-3l-18-18.2a18.3 18.3 0 0 1-3.4-3.8c-.7-1-1.4-2-2.4-2.8L267 477.5c-1-1.2-2.2-2.2-3.6-2.9l-2-1.6a35.7 35.7 0 0 0-5.8-5 20 20 0 0 1-3-2.8c-1.8-2-3.9-3.9-6.2-5.4-.7-.5-1.3-1-1.8-1.7-1.5-1.6-3.2-3-5.1-4.3-.5-.2-.9-.6-1.2-1-2.5-3-6.1-4.9-8.9-7.7-3.8-3-7.9-5.9-12-8.4-4.9-3.6-10.1-6.5-14.8-10.2a91.7 91.7 0 0 0-7.5-5c-1.7-1.2-3.5-2.1-5.2-3.2-3.6-2.2-7-4.4-10.3-6.7-2.8-1.7-5.1-4-7-6.6h-2c-3-.3-6.2 0-9.1.8a30 30 0 0 1-8.6 1.1c-2.4 0-4.8 0-7.1.3l-2 .5c1.4.1 2.7.4 4 .9 2.2 1 4.3 2 6.3 3.2l13.1 8a80 80 0 0 1 6.8 4.5c3.6 2.6 7.1 4.8 10.5 7.1l1.7 1.1c2.5 2.9 5.9 4.7 8.6 7.2 1.4 1.4 3.2 2.5 4.7 3.8a19 19 0 0 0 4.4 3.6 91.3 91.3 0 0 0 9.7 8.3c2.5 2.2 5.1 4.4 7.8 6.5l9.4 7a65.8 65.8 0 0 1 10.5 11.2c1 1 1.9 2 2.9 2.8 1 1 1.9 2 2.6 3.2.3.6.7 1.2 1.2 1.6 2 1.9 3.9 3.9 5.7 6 1.7 2.4 3.6 4.6 5.6 6.8l5.8 5.8 4.4 4.3c1.2 1 2.1 2.2 2.9 3.6.2.5.5.9.9 1.2 2.7 2.4 4.4 5.6 7.1 8.2.9 1 1.7 2.1 2.5 3.3 1.9 2.4 3.5 4.9 5.8 7.1a52.9 52.9 0 0 1 5.1 7c2.8 2.6 5 5.6 7.5 8.4 2.1 2.4 4.1 5 6 7.6l11 16.6a88 88 0 0 1 2.3 4c1.6 3 3 6 5 9 2 3.3 3.3 7 4.1 10.9l-1 2a3.3 3.3 0 0 1-3.6.4c-1.4-.5-2.6-1.3-3.6-2.2-3-2.6-5.6-5.6-7.8-8.8-2.7-3-5.3-6.2-7.7-9.5-1.5-1.9-2.8-3.9-4.2-5.8a78 78 0 0 0-10-12.8c-1.7-1.5-2.9-3.6-4.3-5.1a52.9 52.9 0 0 1-4.6-4.9c-1.4-1.9-3-3.7-4.7-5.3l-17-17.2a20.8 20.8 0 0 1-4-4.6c-.3-.8-1-1.4-1.7-1.9-2.2-1.4-4.1-3-5.8-5l-8.4-8.3c-1.8-2-3.9-3.8-6.1-5.4-1.1-.8-2.1-1.7-3-2.7-1-1.2-2.3-2.2-3.6-3-.9-.5-1.6-1.2-2.3-2-2.2-2-4.5-4.2-6.6-6.4a38.9 38.9 0 0 0-9.5-7.7 53.2 53.2 0 0 0-5.2-4.1 44.6 44.6 0 0 0-5.2-4.1c-3.1-3.6-7.1-5.9-10.3-9.2a99 99 0 0 0-8-6.4l-2.3-2-7.8-6.5a48.9 48.9 0 0 0-5.6-3.6 299 299 0 0 0-24.6-15.4 11.3 11.3 0 0 0-5.7-3.2c-.5-.1-1-.3-1.4-.6-6.2-3.3-12.7-5.8-19-8.9l-10.7-4.8a3 3 0 0 1-1.7-1.8h-2c-2.1.6-4.3.9-6.5.8-2 0-4 .3-6 .8-1.7.3-3.4.4-5 .4-.5 0-.8.6-1.2.9.2.2.3.6.6.8l3.2 1.6c6.4 2.9 12.3 6.6 18.5 9.9 4 2 7.7 4.3 11.5 6.7l12.4 8c1 .7 2 1.2 3.2 1.7l7.7 4c6.5 3 12.7 6.6 18.6 10.6 4.7 3.1 9.2 6.4 14 9.5l7 5c1.5 1.2 3 2.3 4.5 3.7l3.6 3.5c2.1 2 4.4 3.8 6.7 5.5 1.6 1 3 2.2 4.3 3.5l10.5 10.7 9.5 9.4c.6.7 1.2 1.3 1.9 1.8a33 33 0 0 1 6.2 5.3 48 48 0 0 0 7.1 6.4c1.3 1 2.4 2 3.3 3.3a104.1 104.1 0 0 1 16 25.5c.2 1.5.2 3 0 4.5l.4.3-4-.8c-1.2-1-2.4-1.8-3.6-2.9-1.2-1-2.2-2.2-3.3-3.2a18.9 18.9 0 0 0-4.3-3.6c-.9-.6-1.7-1.2-2.3-2l-4.4-4.4c-5.6-2.6-10.7-6-15.2-10.1-2.2-1.9-4.6-3.6-6.7-5.6-.8-.7-1.6-1.2-2.6-1.7a73.3 73.3 0 0 1-12.7-8.4c-3-2.4-5.6-5-8.4-7.5-1.2-1.1-2.7-2.1-4-3.1-3.8-2.9-7.4-6-11.4-8.6-2.9-2-5.5-4-8.5-5.7-3-1.7-5.4-3.6-8.2-5.2a32 32 0 0 1-5-3.6c-2.1-1.5-4.3-2.9-6.5-4-4.6-3-9.5-5.5-14-8.6a22 22 0 0 1-2-1.4c-2.4-2-5-3.7-7.8-5-7-3.6-14-7.8-21.4-11.2-4.2-2.9-8.9-5-13-8-4.4-3-9-5.7-13.8-8l-19.7-9.8-4.6-2.4c0-.4 0-1-.3-1.4-2.2 0-4.2 1-6.4 1-1.7.6-3.5 1-5.3 1l-.7 1v1l.6.7c6.3 3.6 12.6 6.8 18.8 10.5 6.1 3.7 13.2 7.7 19.7 11.8 3.6 2.3 7.4 4.8 11.2 7 3.9 2.4 7.4 5 11.2 7.2 6.4 4.3 13 8.2 19.9 11.7 4.6 3.1 10 5.2 14.6 8.3l14.1 9.3c3.3 2.2 6.5 4.3 9.7 6.6 5.8 3.8 11.3 7.9 16.6 12.3 2.8 1.4 4.5 4.2 7.3 5.5 2.8 2.6 5.4 5.2 8 8 2 2.8 4.3 5.2 7 7.2 4 3.1 7 7.2 8.6 12 .5 1.1.4 2.6 1 3.9a2.3 2.3 0 0 1-1.2 3c-1.2.6-2.4.6-3.6.2-3.5-.8-6.8-2.4-9.6-4.6a9 9 0 0 0-6.2-2.6l-4.3-2.9c-.8-1.7-2-3.3-3.6-4.6-1.7-1.6-3.3-3.5-5.2-5-1.8-1.4-4-2.6-5.8-4.1-5.6-4.7-11.9-8.5-17.6-13.1-2.6-2.1-5.5-4-8.3-6A702.4 702.4 0 0 0 94 477c-6.6-3.8-13.2-7.7-19.7-11.8l-1.3-.7c-10.2-5.1-20.1-10.9-30.5-15.7l-8.9-4c-3-1.3-5.7-2.9-8.8-4-4-1.5-7.8-3.6-11.7-5.2-2.8-1.2-5.5-2.5-8.4-3.5a7.4 7.4 0 0 1-3.8-2.7V428c-1.4-.4-2.5.7-3.9.8-1.2.1-2.4.3-3.5.6l-3 .4c-2.9 1-6 1-8.8 2-.8.2-1.7.2-2.5 0-.4 1-1.3 1-2.1 1.2l1.2.8c6.5 2 13 3.9 19.4 6.1 3.6 1.2 7.1 2.7 10.5 4l5.2 2c5 1.5 9.7 3.4 14.3 5.5l2.4 1c1.1.4 2.2.9 3.2 1.5 4.7 3.1 10.2 4.7 15.1 7.5 2.8 1.5 5.9 2.7 8.6 4.5a88.4 88.4 0 0 1 9.3 5.4c5.8 2.9 11.3 6.2 16.6 9.9 3.6 2.3 7.2 4.2 10.4 6.6 5 3.6 10 7.1 14.8 10.7 4 3 7.6 6.3 11.8 9 2.5 2.6 5.8 4.2 8.2 6.9 1.5 1.6 3.6 2.5 5.2 4.2a25 25 0 0 0 4.4 4.3c4 3 7.7 6.5 11 10.2l10.7 10.5c1.3 1.3 2.2 2.8 2.9 4.5v4c-.9 2-2.4 2.3-3.8 3a4 4 0 0 1-1-.3c-2.4-1-4.6-2.3-6.4-4.1-1.3-1.2-2.8-2-4-3.1-1.1-1.2-2.3-2.1-3.6-2.9-.5-.2-1-.5-1.3-1-2.8-3.1-6.5-5.4-9.6-8.4-1-1-2.4-1.8-3.5-2.7-3.8-3.2-7.8-6.2-11.6-9.3-3-2.4-6.3-4.6-9.5-6.8-6.6-4.3-12.8-9.1-19.5-13.2a288.8 288.8 0 0 1-15.5-9.8l-1.7-1.1a63 63 0 0 0-7.5-4.5c-3.5-1.5-6.5-3.7-9.7-5.6-1.2-.6-2.3-1.4-3.6-2L21 465.5a44 44 0 0 0-5.1-2.1C11.2 461.7 6.6 460 2 458c-6.8-3-14-5.3-21-7.7-2.3-.7-4.6-1.5-6.8-2.4-4.5-2-9.2-3.4-13.7-5.4-3.1-.4-5.9-1.8-8.9-2.4h-1c-2.8.1-5.6.6-8.2 1.6-1.4.3-2.8.9-4.2 1.4-5 1.2-10 2.4-14.8 3.9-10.7 3.2-21.4 6.6-32.1 10-1.5.4-4.5 208.2-4.5 208.2v32.7h603.7l132.6.4 80-.5ZM628.6 622a1.6 1.6 0 0 1 2.2-1c2 .7 3.7 2 4.9 3.6.4.5.7 1.1 1 1.8.7 1.5 1.2 3.1 2 4.6 3.7 6.7 6.7 13.7 9.2 20.9v.5c2 5.4 3.6 10.9 4.9 16.5l.3 3 .7 2.3c-.2 1.1-.7 2.1-1.5 2.9l-1.4.2a2.7 2.7 0 0 1-2.6-1.2l-1.2-2.2c-1.8-3.6-3.6-7.2-5.2-10.8-1.7-3.5-2.9-7-4.3-10.7l-.8-2.3c-.3-2.2-1.9-3.6-2.1-5.8l-1.5-5.4c-.5-2-1.1-3.9-1.9-5.8l-2.8-7.4.1-3.7ZM47.9 540.7c-.5 1-1 1.7-2 1.8-.8.2-1.7.2-2.5 0-3-1.5-6-3-9-4.7-.5-.2-.9-.6-1.3-.9-4.2-2.3-8.3-4.7-12.6-6.8-4.3-2-8.4-4.4-12.3-7-4.2-2.8-8.2-5.6-12.6-8-3.3-1.7-6.3-4-9.6-5.9l-4-2.2c-2.1-1-4.2-2.3-6.2-3.6-1-.7-2-1.2-3.1-1.7-2.9-1.1-5.6-2.5-8.5-3.5-2.8-1-4.7-2-7-3.2l-10.2-5c-3.4-1.5-7.8-3.2-11.6-5.2-.8-.3-1.7-.6-2.5-.7l-2-2a3 3 0 0 1 .7-3.2 11 11 0 0 1 4.2-2.6c2.6-.4 5.2 0 7.7.9 7.3 1.7 14.4 4 21.4 6.7a57 57 0 0 0 11 3.8c1 .3 2 .7 2.9 1.2 4.3 2.1 8.6 4.2 12.7 6.5 3.6 2 7.2 4.2 10.5 6.3l2.2 1.4c4.5 2.3 8.8 5.1 12.8 8.4 1.4 1 2.8 2 4.3 2.8 3.2 2.1 6.3 4.5 9.5 6.9l6.1 4.5c1 .7 1.9 1.5 2.7 2.3l4.8 4.7c1.6 1.4 2.8 3.2 3.6 5.2v2.8Zm63.7 15.3c-.5.8-1.1 1.2-1.8.9a29.1 29.1 0 0 1-9.6-5.7l-2.9-3c-4.2-2.5-8.8-4.5-12.8-7.4-5.1-3.5-10.7-6.7-15.8-10.4-5-3.6-10.2-6.8-15.2-10.2-2-1.3-4-2.7-5.8-4.1-3.4-2.7-7-5-10.7-7.2-1.4-.8-2.7-1.5-4-2.4a43.7 43.7 0 0 0-5.2-3.1c-2.1-1.1-4.2-2.3-6.1-3.6-3.3-2.3-7.2-3.6-10.2-6l-.9-.4c-6.3-3-12.2-6.7-18.5-9.8-2-1.1-4-2-6-2.7-1.7-.5-3.3-1.2-4.7-2.2-3.2-2.2-6.7-4-10.4-5.3-2.6-1-5-2.2-7.4-3.5-3.6-2-7.4-3.7-11.2-5.1l-6.3-2.8-4.4-4.6a4.5 4.5 0 0 1-.3-3.6c1.2-1.9 3-3.2 5.2-3.7h3.2c2.7-.2 5.4.2 8 1.1 7.1 2.2 14.3 4.6 21.4 7 2.7 1.3 5.6 2.5 8.5 3.5 2.8 1.2 5.5 2.7 8 4.4.8.5 1.5 1 2.4 1.2 5 2 10 4.4 14.7 7.1a57 57 0 0 1 8.1 4.4c2 1.3 4.2 2.4 6.4 3.3 4.1 2 8 4.4 11.8 7.2l4.5 3.3a41 41 0 0 0 4.7 3 78 78 0 0 1 10.5 7.2c2.5 1.8 5 3.6 7.3 5.5 3 2.2 6 4.6 8.7 7.1 1 1.2 2.2 2.2 3.6 3 .6.3 1 .7 1.5 1.3l9.7 9.7c5 6 10.4 11.7 16.2 17 2.3 2.3 4.3 4.8 6 7.6l-.2 2Z" fill="#F1B5B4"/>
    <path d="M176.9 263.5c-1 2.1-2.4 4.1-4.1 5.7a73 73 0 0 0-5 6.5l-5.4 7.5a109 109 0 0 0-9.6 15.7l-3.9 7.2c-3.4 6.4-6.4 13.2-8.7 20.1-1.3 4.3-2.8 8.4-4.2 12.6-.8 2.6-1.4 5.3-1.8 8-.4 3.6-1 7.1-1.6 10.7l-.3 3c0 1.8-.3 3.5-.7 5.1l-.3 3c0 2.3-.3 4.5-.8 6.7-.2 1.1-.3 2.3-.3 3.5 0 2.3-.3 4.5-.7 6.6-.3 1.7-.4 3.4-.3 5.1 0 3.3-.3 6.5-.8 9.7-.2 2.6-.4 5.2-.3 7.7l-4.4.2H120c-5.8 1-11.7 1.3-17.5 2-.7-.2-1.4-.2-2 0-2.1.6-4.3.9-6.5.8-2 0-4 .2-6 .8-1.7.2-3.4.4-5 .4-.5 0-.8.6-1.2.9h-4.6l-13.1 2.2-19.2 3c-2.2 0-4.2 1-6.4 1-1.7.6-3.5 1-5.3 1l-.7 1a24 24 0 0 0-4.6 0c-5.1 1-10.2 2.3-15.3 3.6L.8 427.3c-1.4-.4-2.5.8-3.9.8-1.3.1-2.3.5-3.5.6l-3 .5c-1-2.3-2.1-4.6-3-7-1.4-3-2.4-6.2-3.1-9.5l3.9-1.5a8.4 8.4 0 0 0 3.2-5.3c-.2-7.9.3-16 0-23.8a7.1 7.1 0 0 0-2.6-3l-2.1-1.4c.7-2.4 1.3-4.8 1.6-7.2 1.3-1.3 2.2-3 2.7-4.8a42 42 0 0 1 6.6-10.2c.5-.7 1-1.4 1.2-2.2 4.4-1.2 8.8-2.4 13.3-3.4 7.3-1.5 14.4-3.6 21.4-6.3a17 17 0 0 0 7.7-6.3c1-1.4 1.8-3 2.7-4.3 1.8-3.1 3.8-6 6-8.9 4 0 8.1 0 12.2-.3l.8-1.4.3-1.5c.2-5.6 1.6-11.1 4-16.2 3.6-8.7 8-16.9 13.3-24.7a48 48 0 0 1 15.4-14 4.5 4.5 0 0 1 4-.4c1.4.4 3 .5 4.4.5h18.4c3.9 0 7.7-1 11-3 2.6-1.3 5-2.9 7-4.8l4.5-4.2c.7-.5 1.4-1 2.2-1.3h5a43 43 0 0 1 20.6 7.3c1.5 1 2.8 2 3.9 3.4Zm-128.7 92a6.6 6.6 0 0 0-5.7-1.6 8.2 8.2 0 0 0-5.8 6.5c0 5.7-.2 11.8 0 17.8l1.9 3.3 3.5 1.8a8.2 8.2 0 0 0 9-6.5v-12.2c0-3.3-1-6.5-2.9-9.1Zm-29.5 23a8.5 8.5 0 0 0-4.1 0 9 9 0 0 0-3.6 3.8 19 19 0 0 0 .7 7.8l.2 1.5c.1 2.2.4 4.4.9 6.5.2 2.4 1 4.6 2.3 6.7l.7.9 2 1c1.6.4 3.3.4 4.9 0l1.4-1.1a6.2 6.2 0 0 0 1.6-7.1c-.2-.7-.4-1.3-.4-2-.8-4.8-1.9-9.6-3.3-14.3l-.6-1.2-2.7-2.5Zm73.5-40.6c1.8.6 3.8.6 5.6 0 1.1-.6 2-1.5 2.5-2.7.3-2.2 0-4.4-.9-6.4l-6-14.7a7.7 7.7 0 0 0-6.3-4.6c-1.4.8-3.2 1-4 3.2-.3 1.9-.3 3.8 0 5.7 2.1 5.6 4 11.2 7 17.6l2 2Zm18.9-28.5 1.1-2.4a4 4 0 0 0 .3-2.4c-1-2.6-.5-5.5-1.5-8-.2-.9-.3-1.7-.3-2.6.1-3.6-.3-7.2-1.3-10.7-.6-1-1.5-2-2.6-2.4a6.1 6.1 0 0 0-4 .4 8 8 0 0 0-2.2 4c.1 2.7-.2 5.4-1 8v2.1c0 2.7.4 5.4 1.1 8 .3 1.6.7 3.1 1.3 4.6a8 8 0 0 0 5.2 3.6c1.5-.4 2.8-1 3.9-2v-.2Zm5.4 63.4c1.2-1.2 2-2.6 2.2-4.2-.6-2.7-1.6-5.3-2.2-8-.5-2.8-1.8-5.4-3.6-7.7a5 5 0 0 0-4.8-1 6.4 6.4 0 0 0-3.6 4.8l.7 3c.5 3.1 1.2 6.3 2.3 9.4.3 1.3 1 2.6 2 3.5 1.2 1 2.7 1.4 4.2 1.5l2.8-1.3ZM62.8 392c-.7 2.8-.3 5.8 1 8.4a8.3 8.3 0 0 0 4.8 3.4h5.1l2.3-2a6.9 6.9 0 0 0 1-7.2l-1.6-4.3-1-1.3-3-1.5H68l-1.2.3a15.5 15.5 0 0 0-4 4.2Zm35.4 2 1.4 3.2c1 2.1 2.5 4 4.4 5.5a6.1 6.1 0 0 0 7.9 1l1.2-.8a5.9 5.9 0 0 0 1.1-6 55 55 0 0 0-5.8-6.1 8.4 8.4 0 0 0-4.5-2.2c-1.6.3-3 1-4.2 2.3l-1.5 3.1ZM137 279a7.6 7.6 0 0 0-4.2-2.2c-1.3.2-2.5.8-3.5 1.6a4 4 0 0 0-.6.8c-1.5 3-2 6.5-1.5 9.9a5.6 5.6 0 0 0 2.9 3c1.5.2 3.1.1 4.6-.4a5.6 5.6 0 0 0 2.4-4.1c.3-1.9.7-3.7 1.2-5.5l-1.3-3Z" fill="#E3544D"/>
    <path d="M-61.9 442.9c.2-1 0-2-.4-3-2.2-4.6-4-9.4-5.6-14.3a56 56 0 0 1-1.9-8c-.6-3-1.1-6-1.3-9-1.8-9.7-.7-19.5-1-29.2.1-1 .2-2 .5-3l.4-2c.1-3.3.6-6.5 1.3-9.7.7-5 1.6-10 2.9-15 .6-2.1 1-4.3 1.7-6.4L-62 331v-2s.4 0 .5-.3c2.2-5.4 5-10.5 7.5-15.7l.3-.4 5.8-10.7c2-3.6 3.4-7.2 5.4-10.5a97 97 0 0 1 7.7-12.7c1.7-3.9 4.9-6.9 7.1-10.7l.6-.8c2.8-2.8 4.8-6.2 7.7-9 1.7-1.8 3.3-3.8 4.7-6 0 0 0-.3.2-.4 4-4.7 8.4-9 13-13 3.3-2.6 6.2-5.5 8.6-8.8 1.7-1.1 3.6-2 5.5-2.7a8.6 8.6 0 0 1 6.7 6.3c1.1 3.2 2.4 6.4 3.8 9.5l5 11.2c1.4 3 2.3 6.4 3.4 9.6 2.4 7.1 5 14.5 7.1 21.8A119 119 0 0 1 42 299c0 .4.5.8.8 1.2l-3.6 6.2c-.1.3-.7.5-1.2.9L34 297a40.2 40.2 0 0 0-6.3-12c-1.4-1-3-1.8-4.8-2.2-3.6 1.2-3.6 1.2-5.7 4.1a95 95 0 0 0 0 10.1c0 3.6 1.6 6.6 1.7 10.2-.5 0-1-.2-1.5-.4-1-.9-2.1-1.8-3-2.8-2-1.9-4.5-3.2-7.2-3.9l-2.8-.8a11 11 0 0 0-5.2 2.4 7.9 7.9 0 0 0-1.6 6.3c.1 1.9 1 3.7 2.2 5 1.2 1.5 2.6 2.7 4 4l3.8 4.1c.2 0 0 .7 0 1.1a6 6 0 0 1-1.4.4c-3.9-.1-7.8.2-11.7 1.1h-2c-.1-1 0-2 .2-3 .7-2 1-4 .8-6 0-.6 0-1 .3-1.6.5-1.4.8-3 .8-4.5.2-1.6.7-3.3 1-5 .3-2.3 1-4.5 1.3-7 .3-1.9.8-3.7 1.5-5.5.5-1.7.4-3.5 1-5.4a44 44 0 0 1 1.2-5.5c-.2-2.1 1-4 1-6a48 48 0 0 1 1.7-8.5l.4-2.5-.4-.8c-.7-.6-1.3-.5-2.2 0-.6.8-1 1.6-1.2 2.5a21 21 0 0 1-1.7 5.3c-1 2.5-1.9 5.1-2.6 7.7a107 107 0 0 1-4 13.9c-.3.6 0 1.3-.9 1.6-.2 0-.4 0-.4-.2l-3-5.2a82.1 82.1 0 0 0-1.8-10.2c-.3-.4-.7-.8-1.1-1a2.4 2.4 0 0 0-3.3 1v11.6c1 2 .8 4.3 1.8 6.3.5 3.6 2 7.1 2.5 11l1.7 2.4c.2 1.4 0 2.8-.3 4.2-.9 2.5-1.4 5.2-1.7 7.9a18 18 0 0 0-1 7.5c0 .5 0 1-.2 1.5-1.2 2.2-.4 4.8-1.7 7a60.7 60.7 0 0 1-1.7 13.6c-.3 1.2-.5 2.4-.5 3.6 0 .3-.3.5-.5.7h-.6c-2.6-1.8-3.5-5-6-7.2-.7-.8-1.4-1.8-2-2.8l-3.8-6c-3-5.5-5.4-11.2-7.1-17.2-1-1-1.6-2-2.9-2l-1.1.7-.7 1.1c-.2 1.8 0 3.6.5 5.3.3.6.4 1.3.4 2 0 2.2.5 4.4 1.3 6.5 1.5 4.3 3.3 8.6 5.5 12.7 2 3.8 4.5 7 6.7 10.7 2.2 3.6 4.8 7 7.9 10l.6 1.4c-1 1.9-1.4 4-1.2 6v1c-.8 2.1-1 4.4-.8 6.6.1 1.5 0 3-.3 4.6-.6 2.1-.9 4.3-.7 6.6V407c0 .8 0 1.6-.2 2.6h-1.6c-2.2-1.7-4-3.7-5.6-6-.5-.8-1.2-1.6-2-2.3a26 26 0 0 1-4.4-5.6c-2.2-3.3-4.1-6.7-6.1-10a52 52 0 0 1-3.1-5.3c-1.2-2.6-2.2-5.3-3.3-8.4-.8-.7-1.7-1.7-2.8-2.5-.4-.4-1-.2-1.3 0l-.4 1c-.3 5.2.6 10.5 2.8 15.3l1.3 3.3c2 5 4.7 9.5 7.8 13.8 1.6 2.4 3.8 4.4 5.3 6.8 2 2.4 4 4.7 6.3 6.8 2.3 1.4 4.4 3.2 6.2 5.3l4 3.5c0 2 1.4 4 1.2 6.3-.4 1-1.2 1-2 1.1-1.8 0-3.4.3-5 1-3.2.5-6.3 1.2-9.4 2.1-1.3.4-2.5.8-3.9 1l-7.3 2-1.2 1c-2.8.1-5.5.7-8.2 1.6-1.6.4-3 1-4.3 1.5Z" fill="#BBCB7D"/>
    <path d="m147.4 252.7-2.2 1.3a99 99 0 0 0-4.4 4.2c-2.1 2-4.5 3.7-7 5.1-3.4 2-7.2 3-11.1 3h-18.4c-1.5 0-3-.2-4.5-.5a4.5 4.5 0 0 0-3.9.4 6.9 6.9 0 0 0-3.6-.8l-13.3-1c-2.2-.2-4.3-1-6.3-2a7.7 7.7 0 0 1-3.8-4.6 5.6 5.6 0 0 1 .6-5c.9-1.7 2.4-3 4.2-3.8a41 41 0 0 1 14.8-3 1.9 1.9 0 0 0-.9-2l-12-8.7-2.4-2a8.1 8.1 0 0 1-2.7-6.4 8.2 8.2 0 0 1 7.3-7.9c3.7-.1 7.3.4 10.8 1.5 2 .7 4 1.6 6.2 2.3l.3-.8-3-6.4a22 22 0 0 1-2-9c.1-1.5.6-3 1.4-4.3a7.3 7.3 0 0 1 9-3c1.4.5 2.7 1.4 3.8 2.5 4.3 3.8 8 8.4 10.7 13.5l1.1 2c.5.2.8.1.9-.3l.2-2.6a58 58 0 0 1 2.4-13c1.5-4 3.2-5.1 7.8-4.9h.6a9.5 9.5 0 0 1 5.5 7c.7 2.9 1.4 5.9 1.9 8.9.6 5.8.9 11.6.7 17.4v7.1h1.1c5-5.6 8.9-12.5 15.3-16.7 4.1-.7 7.5-.4 9.3 3.9 0 .6 0 1.2.2 2 .4 4.4-1 8.9-3.8 12.4-1 1.2-1.7 2.5-2.6 3.8-1.9 2.8-4 5.5-6.4 8a25 25 0 0 0-1.8 2.4Z" fill="#3D6334"/>
    <path d="M-7.5 323.9h2c3.9-1 7.8-1.3 11.7-1.2.5 0 1-.2 1.4-.3v-1.1a138 138 0 0 0-3.9-4l-3.9-4.1a8.1 8.1 0 0 1-2.2-5 7.9 7.9 0 0 1 1.6-6.4 11 11 0 0 1 5.2-2.3l2.8.7c2.7.7 5.1 2 7.1 4l3 2.7c.6.2 1 .4 1.6.4 0-3.6-1.7-6.7-1.7-10.1-.2-3.4-.2-6.8 0-10.1 2-3 2-3 5.7-4.1a11 11 0 0 1 4.8 2.2c2.8 3.6 4.9 7.6 6.3 11.9l3.8 10.2c.6-.4 1.2-.5 1.3-.9l3.6-6.2c1.2-2.1 2.6-3.2 4-4.7A6.6 6.6 0 0 1 52 293a5.3 5.3 0 0 1 5 4.8c.2 1.7.1 3.4-.2 5.1-.7 3.3-1.6 6.6-2.5 10-.9 3.2-2 6.4-3.6 9.5l-.8 2.4a81.5 81.5 0 0 0-6 8.8c-.9 1.4-1.7 2.9-2.7 4.3a17 17 0 0 1-7.7 6.3c-7 2.7-14.1 4.8-21.4 6.3-4.5 1-8.9 2.3-13.3 3.4h-4c-1.7 0-2.8-1.2-4.4-1.3l-.9-2.4a7.1 7.1 0 0 1 2.3-7.9l1.6-1.1c.8-.6 2-.6 2.4-1.7l-4-1c-1.2-.5-2.4-1.1-3.5-1.8a5.9 5.9 0 0 1-2.9-6.1 6.3 6.3 0 0 1 3-4.6c1.3-.9 2.6-1.5 4-2.2Z" fill="#3D6334"/>
    <path d="M-7.5 323.9c-1.4.7-2.7 1.3-4 2.1a6.4 6.4 0 0 0-3.1 4.5 5.9 5.9 0 0 0 2.7 6.3c1.1.7 2.3 1.2 3.5 1.7l4 1c-.5 1.2-1.6 1.2-2.4 1.7l-1.7 1.2a7.1 7.1 0 0 0-2.2 7.9c.2.8.6 1.6 1 2.4l-1 1c0 2.8-.2 5.7-1 8.5-.2.7-.2 1.3 0 2v7.1c-.4 2.5-1 4.8-1.7 7.2-2 1-4.1 1.7-5.2 3.8a15.6 15.6 0 0 0-1.4 8v4c0 .9 0 1.7-.3 2.5-.5 1.3-.7 2.7-.6 4v6.3a10.5 10.5 0 0 0 5.4 6c.7 3.4 1.7 6.6 3 9.7l3.1 6.8c-2.8 1-6 1-8.8 2-.8.2-1.7.2-2.5 0 0-2.2-1.3-4.2-1.2-6.2a81.6 81.6 0 0 1-4-3.6c-1.8-2-3.9-3.9-6.2-5.3-2.3-2-4.4-4.3-6.3-6.7-1.6-2.5-3.6-4.5-5.4-6.8a70.8 70.8 0 0 1-7.7-13.8l-1.3-3.3a32.1 32.1 0 0 1-2.8-15.4c0-.4.2-.7.3-1 .5-.3 1-.5 1.4 0l2.7 2.5c1.2 3 2.1 5.8 3.3 8.4l3.1 5.3c2 3.4 4 6.8 6.1 10 1.3 2.1 2.8 4 4.5 5.6.8.7 1.4 1.5 2 2.4 1.5 2.2 3.4 4.3 5.6 6 .3.2.9 0 1.5 0 0-1 .3-1.9.3-2.7v-11.8c-.2-2.2 0-4.5.7-6.6.3-1.5.4-3 .3-4.6-.3-2.2 0-4.4.8-6.5v-1c-.2-2 .2-4.2 1.2-6l-.7-1.4c-3-3-5.7-6.4-7.8-10.1-2.3-3.6-4.8-7.1-6.7-10.7-2.1-4.1-3.9-8.4-5.3-12.7-.9-2-1.3-4.3-1.3-6.5 0-.7-.1-1.4-.4-2-.6-1.7-.7-3.5-.5-5.3l.6-1c.4-.4.8-.6 1.2-.8 1.3 0 1.9 1 2.8 2 1.7 6 4.1 11.7 7.2 17.1 1.1 2 2.5 4 3.8 6 .5 1.1 1.2 2 2 3 2.4 2 3.4 5.2 6 7h.6c0-.1.4-.3.5-.6 0-1.2.2-2.4.5-3.6a60.6 60.6 0 0 0 1.7-13.7c1.3-2 .5-4.7 1.7-6.9.2-.4.2-1 .2-1.5a18 18 0 0 1 1-7.5c.2-2.7.8-5.4 1.7-8 .3-1.3.4-2.7.3-4.1l-1.7-2.4c-.6-3.6-2-7.2-2.5-11-1-2-.8-4.3-1.8-6.3v-11.6a2.4 2.4 0 0 1 3.2-1 3.6 3.6 0 0 1 1.6 2.5 82 82 0 0 1 1.4 8.7l2.9 5.2.4.2c.9-.3.6-1 .8-1.6 1.7-4.5 3-9 4-13.7.8-2.6 1.6-5.2 2.6-7.7a21 21 0 0 0 1.7-5.3c.3-1 .7-1.8 1.2-2.5 1-.5 1.6-.6 2.2 0 0 .2.4.5.4.8 0 .9-.1 1.7-.3 2.5a48 48 0 0 0-1.7 8.5c0 2-1.3 3.9-1 6a44 44 0 0 0-1.2 5.4c-.7 1.8-.6 3.6-1.1 5.5-.7 1.8-1.2 3.6-1.5 5.4-.2 2.4-1 4.6-1.3 7.1-.2 1.7-.8 3.4-1 5 0 1.5-.2 3-.8 4.5-.2.5-.3 1-.2 1.5 0 2-.2 4.1-.9 6-.2 1-.3 2-.2 3Z" fill="#E6EBAF"/>
    <path d="M48.2 355.5a16 16 0 0 1 2.8 9.2v12.2a8.2 8.2 0 0 1-9 6.4l-3.7-1.7-1.8-3.3v-17.9a8.2 8.2 0 0 1 5.8-6.4 6.6 6.6 0 0 1 5.9 1.5Z" fill="#F6C168"/>
    <path d="m18.7 378.5 2.8 2.6.6 1.2a107.9 107.9 0 0 1 3.7 16.3 6.2 6.2 0 0 1-1.7 7.1l-1.3 1.2a12 12 0 0 1-5 0l-2-1.1a11 11 0 0 1-.7-1c-1.2-2-2-4.2-2.3-6.6a44.9 44.9 0 0 1-1-8 19 19 0 0 1-.7-7.8 9 9 0 0 1 3.6-3.8c1.3-.4 2.6-.4 4-.1Z" fill="#F6C168"/>
    <path d="m92.2 338-2-2c-3-6.4-5-12-7-17.6-.3-2-.3-3.8 0-5.7.8-2.1 2.6-2.4 4-3.2a7.7 7.7 0 0 1 6.3 4.6l6 14.6c1 2 1.2 4.3.9 6.4a5.8 5.8 0 0 1-2.5 2.8c-1.8.5-3.8.6-5.7 0Z" fill="#F6C168"/>
    <path d="M111 309.6a9.6 9.6 0 0 1-4 1.8 8 8 0 0 1-5.3-3.6c-.5-1.5-1-3-1.2-4.6a29 29 0 0 1-1-10c.7-2.7 1-5.4.9-8.2a8 8 0 0 1 2.2-4c1.2-.5 2.6-.6 4-.3 1.1.5 2.2 1.4 2.8 2.6 1 3.6 1.5 7.3 1.4 11 0 .9.1 1.8.4 2.6.9 2.6.4 5.4 1.5 8a4 4 0 0 1-.3 2.4l-1.3 2.3Z" fill="#F6C168"/>
    <path d="M116.5 372.8 114 374c-1.5 0-3-.5-4.2-1.4-1-1-1.7-2.2-2-3.6-1-3-1.8-6.2-2.2-9.4-.2-1-.4-2-.8-3a6.4 6.4 0 0 1 3.6-4.8 5 5 0 0 1 4.9 1c1.8 2.3 3 5 3.5 7.8.7 2.7 1.6 5.2 2.2 8a7.5 7.5 0 0 1-2.4 4.2Z" fill="#F6C168"/>
    <path d="M62.8 392c1-1.5 2.3-3 3.8-4l1.2-.4h3.5l3 1.5 1 1.4 1.6 4.2a6.9 6.9 0 0 1-1 7.1c-.7.8-1.5 1.5-2.3 2.1h-5c-2-.5-3.6-1.7-4.7-3.3a12.1 12.1 0 0 1-1.1-8.5Z" fill="#F6C168"/>
    <path d="m98.2 394.1 1.5-3.1c1.1-1.2 2.6-2 4.2-2.3 1.7.2 3.2 1 4.5 2.2 2 1.9 4 4 5.8 6a5.9 5.9 0 0 1-1.2 6l-1.2 1a6.1 6.1 0 0 1-8-1 14.8 14.8 0 0 1-4.2-5.5l-1.4-3.3Z" fill="#F6C168"/>
    <path d="m137 279 1.4 3c-.6 1.8-1 3.6-1.2 5.5a5.6 5.6 0 0 1-2.4 4.1c-1.6.5-3.1.6-4.7.3a5.6 5.6 0 0 1-2.8-2.9c-.6-3.4-.1-6.8 1.2-10l.6-.7c1-.8 2.3-1.4 3.6-1.6 1.6.2 3.1 1 4.3 2.2Z" fill="#F6C168"/>
    <path d="m326.4 293-.5.5v-.3l.5-.2Z" fill="#E6EBAF"/>
    <path d="M170.3 405c-3-.3-6.1 0-9.1.8-2.8.8-5.7 1.2-8.6 1.1-2.4 0-4.8 0-7.1.3-.7 0-1.4.2-2 .4h-2l-13.4.2c0-2.6 0-5.1.3-7.7.5-3.2.7-6.4.8-9.7 0-1.7 0-3.4.3-5 .4-2.2.7-4.5.7-6.7 0-1.2 0-2.4.3-3.5.5-2.2.7-4.4.8-6.6l.3-3c.4-1.7.6-3.4.7-5.1 0-1 0-2.1.3-3.1.5-3.6 1.2-7.1 1.6-10.7a43 43 0 0 1 1.8-8c1.4-4.2 3-8.4 4.2-12.6 2.3-7 5.3-13.7 8.7-20.2l4-7a109 109 0 0 1 9.5-15.6l5.4-7.5c1.5-2.3 3.2-4.4 5-6.5 1.7-1.6 3.1-3.6 4-5.8.7-.3 1.3-.6 1.8-1 5.1-5 10.7-9.5 16.2-14.3 4.3-3.7 8.8-7 13.7-9.9 3.3-2 6.8-3.9 10.2-5.7a982.5 982.5 0 0 1 29-15c2-.9 4-1.6 5.9-2.1l8.2-2.8c2-.7 4-1 6-.6a4.6 4.6 0 0 1 2.1 4v2.6c0 2 .3 4 .4 6v3.6c-.7 6.2-.4 12.4-.7 18.5 0 2.3-.2 4.7-.6 7-.1 1.1-.1 2.1 0 3.2 0 1.6-.3 3.5-.4 5 0 1.4 0 2.7-.3 4-.5 2.6-.7 5.2-.6 7.7v5.1c.2 6.2-1.2 12.3-1.2 18.4l-.3 1.5a114.3 114.3 0 0 0-.9 8.6c-.6 3-.9 6.1-.7 9.2a2.6 2.6 0 0 0-.8 1.8c-.2 3.4-.6 6.8-1.5 10.1-1.2 7.2-3 14.3-4.5 21.4-2 8.3-4.3 16.5-7.1 24.5-2 7-4.8 13.8-8.2 20.2L237 406h-9.4c-5-.4-10.2-.4-15.3 0l-2-.3-9.2-.7c-5.9-.6-11.9-.6-17.8 0-1-.4-2 0-3-.7a6 6 0 0 1 2-4.9c2 .4 4.1.2 6-.4l16.2-6.6c4.8-2.2 9.5-4.8 14-7.6 5.1-3 10-6.4 14.7-10.2 3.5-3 6.4-6.6 8.4-10.8.2-.3.2-.6.3-1 .2-.6 0-1.1-1.3-1.7-1.5.6-3 1.6-4 3l-3 2.7a421.7 421.7 0 0 1-11.9 9l-15 8.9c-5.5 2.8-11.2 5.2-17 7.1-1 .3-2 .4-3 .3-.6 0-1-.4-1.2-1.2 5.4-14.3 11.2-28.6 17.4-43.2 3.2-.6 6.2-2 8.7-4l5.3-3.2 10.7-6c3.2-1.6 6-3.8 8.5-6.4 3.6-3.8 7.4-7.6 11.2-11.3 2.6-2.2 4.4-5.2 5-8.6l-1.2-.7c-1.6.6-3 1.7-4 3.2a836.1 836.1 0 0 1-10.1 10.9l-7.2 5.8-2 1.5-15.2 8.6c-1.3.7-2.7 1.3-4.2 1.8-.4 0-1 0-1.5-.2l.6-2 10.7-27.8c.6-1.7 1.4-3.3 2.5-4.7l2-1.2a27 27 0 0 0 3.6-2.6c3.9-3.4 7.5-7.1 10.7-11.1 1.5-2 3.2-4 5-6 2.5-3 4.8-6.3 6.6-9.8 1.8-3.3 3.6-6.7 5.1-10 1-2.3 1.5-4.6 1.9-7 0 0 0-.3-.3-.4-.2-.1-.7-.3-.9 0-1.8 1.3-3.2 3-4.3 5l-6.1 10.7c-2 3.4-4.3 6.7-7 9.6l-4.6 5.4a15.7 15.7 0 0 1-5.2 4.2l-1-1 1.1-3.9c1.6-4.3 3-8.6 4.7-13 3-7.6 6-15.2 9.5-22.7 1.4-2.9 2.6-6 3.8-9a1.4 1.4 0 0 0-.4-1.7c-.3 0-.8 0-.9.4a83.1 83.1 0 0 0-5 8.4c-1.5 3.5-3.2 6.7-5 10-.6 1-1.1 2.2-1.6 3.3l-9.6 23.7-4.5 10.7-1.1-.4c-2.4-2-4.4-4.5-6-7.2a64 64 0 0 1-8.2-20.9l-1.2-7.1-1-1a2.1 2.1 0 0 0-1.9 1.7c-.7 2.3-1 4.8-.5 7.1 1.6 9 4.6 17.6 8.9 25.6.7 1.5 1.7 3 2.8 4.2 1.7 2 3.2 4 4.6 6.2l-16.8 39.7c0 .3-.4.4-.7.7-1 0-1.5-.6-2.1-1.2a83.8 83.8 0 0 1-8.8-10.7 38.3 38.3 0 0 1-5.5-11.1c-1.6-5.4-2.8-11-3.5-16.6l-1.3-.4c-.3.4-.5.7-.5 1a51.4 51.4 0 0 0 1 13.7 43.1 43.1 0 0 0 5.8 16.9c.8 1.3 1.6 2.6 2.2 4 2.3 5 5.4 9.5 9.3 13.3 0 1.2-.5 2.5-1.2 3.5l-8.5 19.2c-.6 1.3-1.1 2.5-1.8 3.6a1.6 1.6 0 0 1-1.5 1.1s-.3 0-.5-.2a49.3 49.3 0 0 1-15.5-20c-1.5-3-2.8-6.2-4.2-9.2-1-.7-1.6-.3-2 .5.3 2 .6 3.8.7 5.7.2 2 .6 4 1.2 6 .4 1.5 1.1 2.9 1.5 4.4 1 3.4 2.8 6.6 5.1 9.4a63.3 63.3 0 0 0 10.4 11.6l.2 1c-1.6 4-3.6 8-5.5 12a24 24 0 0 1-1.8 2.3Z" fill="#3D6334"/>
    <path d="M183.5 405.2c-.5.8-1.4.8-2.3.8-1.5 0-2.7-1.3-4.3-1h-6.6a24 24 0 0 0 1.8-2.5c2-4 3.9-8 5.5-11.9a2.4 2.4 0 0 0-1-2A63.2 63.2 0 0 1 167 378c-2.3-2.8-4-6-5-9.4-.5-1.5-1.2-2.9-1.6-4.4-.5-2-.9-3.9-1-6 0-1.8-.5-3.5-.7-5.6.4-.9 1-1.2 2-.5 1.4 3 2.6 6.2 4.1 9.2 1.2 2.5 2.6 4.9 4 7.2a49.3 49.3 0 0 0 12 13 1.6 1.6 0 0 0 1.6-1.1l1.7-3.6 8.6-19.2c.7-1 1-2.3 1.1-3.5a44 44 0 0 1-9.5-13.2c-.6-1.4-1.4-2.7-2.2-4a43 43 0 0 1-6.3-20c-.6-3.6-.8-7.2-.6-10.7 0-.3.3-.6.5-1l1.3.4c.7 5.6 1.9 11.2 3.6 16.6 1.2 4 3 8 5.5 11.4 2.7 3.8 5.6 7.4 8.8 10.7.6.6 1.2 1.3 2.1 1.2l.8-.6 16.7-39.8a46.2 46.2 0 0 0-4.5-6.2 18.6 18.6 0 0 1-2.9-4.2c-4.3-8-7.3-16.6-8.8-25.5-.5-2.4-.3-4.9.5-7.2a2.1 2.1 0 0 1 1.7-1.7l1.1 1 1.3 7.1a64 64 0 0 0 8.1 21c1.6 2.6 3.6 5 6 7 .4.3.8.4 1.2.5l4.4-10.7 9.6-23.7 1.6-3.3c1.9-3.2 3.6-6.6 5-10 1.6-3 3.2-5.9 5-8.7 0-.2.6-.2 1-.4a1.4 1.4 0 0 1 .3 1.8c-1.2 3-2.3 6-3.7 9-3.6 7.3-6.5 15-9.4 22.7-1.7 4.3-3.2 8.6-4.7 13-.5 1.2-.8 2.6-1.2 3.9l-.4.8c0 .6.3 1 .8.7l.7-.6c2-1 3.6-2.6 5-4.3a140.2 140.2 0 0 0 11.5-15l6.2-10.8c1-2 2.5-3.6 4.3-5h.9c.3 0 .2.3.2.4-.3 2.4-1 4.7-1.8 7-1.7 3.3-3.3 6.7-5.1 10-1.8 3.5-4 6.7-6.6 9.7-1.7 2-3.6 4-5 6-3.2 4-6.8 7.7-10.6 11a27 27 0 0 1-3.6 2.7l-2 1.2c-1.1 1.4-2 3-2.5 4.7a2758 2758 0 0 0-10.7 27.7l-.7 2c.6 0 1.2.4 1.6.2 1.4-.4 2.8-1 4.2-1.7l15.1-8.6 2.1-1.6 7.1-5.8c1-.7 1.8-1.6 2.6-2.5l7.6-8.3c1-1.5 2.3-2.6 4-3.3l1.1 1.2c-.4 3.3-2 6.4-4.4 8.6-3.8 3.6-7.5 7.5-11.2 11.3a35.7 35.7 0 0 1-8.6 6.5 796.6 796.6 0 0 0-16 9.1c-2.5 2-5.6 3.3-8.8 3.8-6.3 14.5-12 28.9-17.4 43.2.2.8.6 1.2 1.1 1.2 1 0 2 0 3-.3 6-1.9 11.6-4.3 17.1-7l15-9a418.4 418.4 0 0 0 11.8-9c1.1-.8 2.1-1.7 3-2.8 1.1-1.3 2.5-2.3 4.1-3 1.2.7 1.5 1.2 1.3 2l-.3.9c-2 4.1-4.9 7.8-8.4 10.7-4.7 3.8-9.6 7.2-14.8 10.2-4.4 2.8-9 5.4-13.9 7.6l-16.1 6.6c-2 .6-4 .8-6 .4a6 6 0 0 0-1.9 5.4c.7.7 1.9.2 2.8.6Z" fill="#E6EBAF"/>
    <path d="m227.1 291.4-.7.6c-.5.2-.8 0-.7-.7 0-.3.2-.6.4-.8l1 .9Z" fill="#3D6334"/>
    <path d="m262.1 610.4 1.3.8c2.4.6 4.8 1.5 7.1 2.6 1.4.6 2.9 1 4.3 1.5 6.3 1.6 12 4.9 16.7 9.4 3.2 3.2 6.2 6.7 9 10.4l4 5.3c.2.3.5.5.8.6.4 1.6 1.1 3.2 2.2 4.5a100 100 0 0 1 10.4 22c.3 1.3.9 2.5 1.7 3.5 0 1.9.2 3.7.6 5.5.4 1.6.4 3.2.8 4.8v7.4a1.9 1.9 0 0 0 .9 1.6c-.5 3.6-.8 7.2-1 10.7-.4 3.1-.9 6.1-1.6 9.1a970.3 970.3 0 0 1-9.6 33.9 141.8 141.8 0 0 1-7.1 17.6c-1.3 2.3-2.5 4.8-3.6 7v3.7l-6.9 8.2a94 94 0 0 1-14.7 14.3c-2.5 1.8-4.8 3.8-7.1 5.7a54.4 54.4 0 0 1-14.3 8.7l-3.3 1.4a31 31 0 0 1-15.5 2.5 115.8 115.8 0 0 1-21.6-7.6c-2.8-1.4-5.4-3-7.9-5l-5-3.5c-5.6-3.6-11-7.6-16.1-11.8a101.1 101.1 0 0 1-18.1-20.5 96.1 96.1 0 0 1-16.5-34.9c-1.1-3.9-1.7-8-1.8-12 0-7.4 0-14.7.3-22a7.2 7.2 0 0 0 5.6-1.8c1.3-2 2.2-4.2 2.6-6.5.5-2.8 1.6-5.6 2.4-8.3l.5-2.5c.2-2 .2-4 0-6l-2.9-3.6 1.1-1.6c1.3-3.4 3-6.6 5-9.5 2.7-4.9 6-9.5 9.7-13.7 2.1-2.3 4-4.7 5.9-7.2l3 .5c1.3.4 2.7.4 4 .2 3.6-.7 7.2-1 10.8-.7h12.7c3.1 0 6.2-.4 9-1.3 2.5-.7 5.1-1 7.7-1 5.2-2 10-5 14.2-8.6 1.1-1 2.3-2 3.6-2.8l16.7-11ZM218 741.5l2.2 1c3.4.3 7 0 10.3-.8 4.8-1.1 9.3-3.5 12.9-7 .2-.2.3-.5.4-.9a9.8 9.8 0 0 0 5.8-6.7 23.5 23.5 0 0 0-13.5-14.5 42.2 42.2 0 0 0-10.5-2.6c-3.8.2-7.5.6-11.2 1.2l-2.4.9a21.8 21.8 0 0 0-6.7 4.7c-2.6 2.7-4.6 5.9-6 9.4a4 4 0 0 0-.4 2.8l1.4 1.8c2.3 2.3 4.7 4.4 7.3 6.3 3 2.3 6.6 3.8 10.4 4.4ZM266.4 636l-3.6 1.8a16 16 0 0 0-7.7 9.1 36.6 36.6 0 0 0-2.1 10c0 .8-.1 1.7-.4 2.5a11 11 0 0 0-.5 4v9l1.4 2.3 2.6 1.3h14.2c2 0 4.1-.6 6-1.5 1.7-.9 3.5-2.1 5.3-3.3 0-1.2 0-2.4.4-3.6.6-2.1.9-4.3.8-6.6v-8.2l-.3-3-2-7.4a17.6 17.6 0 0 0-9.2-6.5l-5 .1Zm-88 104.8-1.9 2-1.4 3c.4 1.4 1 2.8 1.6 4.2a38 38 0 0 1 1.7 3.5c1.9 4.4 4 8.7 6.3 12.9a10.3 10.3 0 0 0 6.2 5l3-.1 2.2-2.2c.5-.7.9-1.5 1.1-2.3a3.8 3.8 0 0 0 0-3c-.6-1.5-1.4-3-2.3-4.5a48 48 0 0 1-4.7-9.6l-3-6a6.5 6.5 0 0 0-3-3l-2.8-.2c-.9.1-1.7.3-3 .3Zm99.8-28.3c1-3 1.5-6 1.5-9 0-.7.2-1.3.5-2 1-4 .4-8.1-1.4-11.8a4.1 4.1 0 0 0-2.3-2.3 15 15 0 0 0-5.3 0c-1 .7-2 1.5-2.5 2.5l-1.2 3.8c.1 2.6 0 5.2-.4 7.7a30 30 0 0 0-.7 7.7 8 8 0 0 0 6.7 6.8 7.8 7.8 0 0 0 5.2-3.4Zm20.4-14.5c-.7 1.7-1.2 3.4-1.4 5.3a43 43 0 0 1-1.7 10c-.4 2-.5 4-.3 6l1.6 3.2c1.4 1 3 1.7 4.8 1.7a7.1 7.1 0 0 0 5.4-3.6c1-3 1.5-6.3 1.5-9.5 0-.7.1-1.3.3-2 .8-3.5 1-7.1.4-10.7a8 8 0 0 0-5.4-3.6c-2 .4-3.9 1.5-5.1 3.2h-.1ZM224.2 680a5.4 5.4 0 0 0 3.2-2.2c1.6-2.7 2.2-5.8 1.6-8.9-.5-2.3-.7-4.7-.7-7.1 0-3-.5-6-1.7-8.6l-2.1-1.9c-2.1 0-4.2-.7-6 1.3l-1.4 4a27 27 0 0 1-.7 8.3v8.9c.6 1.9 1.5 3.6 2.7 5.1a8 8 0 0 0 5.2 1v.1Zm-36.3 2.1a22.3 22.3 0 0 0-2.6 7.2c-.8 3.5-1.4 7-2.3 10.4-.6 2-.9 4-.7 6a8.3 8.3 0 0 0 2.2 3.6l3 1.2h.5a8 8 0 0 0 5-3.6c.7-1.3 1-2.7 1.3-4.1 0-3.1 1.4-6 1.3-9.1l.3-1.5c.8-2.8 1-5.8.4-8.8a9.8 9.8 0 0 0-3.5-3.4l-1.2-.3a9.2 9.2 0 0 0-3.7 2.4Zm79.6 50.3c-2.8 1.5-2.8 1.5-4.2 4.5-.2 3.9-.6 7.7-1.3 11.5-.7 1.8-1 3.8-.6 5.7a8.9 8.9 0 0 0 6.6 4.9 9 9 0 0 0 3.6-1.7c.9-1 1.5-2.3 1.8-3.6a50 50 0 0 0 2-16.3c-.5-1.6-1.4-3-2.6-4.1l-1.4-.9h-3.9Z" fill="#E3544D"/>
    <path d="M299.2 772.5V769l3.5-7.2c1.4-2.5 2.6-5.2 3.6-8l3.6-9.6 6-20c1.3-4.6 2.5-9.2 3.5-13.8.8-3 1.3-6 1.6-9l1-10.8 5-2.5c1-.5 1.8-1 2.6-1.7 3-2.8 6.4-5.1 9-8.2.6-.4 1-1 1.4-1.5.7-.7 1.1-1.7 1.1-2.7a1 1 0 0 0-1.3-.5l-3 1.9c-2 1.6-3.8 3.3-6 4.8-2.7 2.3-6 3.8-9.5 4.4v-3l1.6-1.9 3.6-6c4.3-1.7 8.5-3.9 12.3-6.6l8.8-6.2c2.7-1.9 5.1-4.1 7.1-6.8.6-.8 1-1.7 1.4-2.7.3-.7 0-1.3-1.3-1.7a19 19 0 0 0-2.3 2c-2.6 2.7-5.4 5-8.5 7.1-3 2.2-6 4-9.1 5.8-1 .5-1.9.8-2.9 1-.2 0-.5 0-.9-.2v-.4l8.9-19c.2-.5.5-.8.8-1.1l3.5-1.8a35 35 0 0 0 7.5-5.4 80 80 0 0 0 6-7c.7-.8 1.1-1.7 1.5-2.6v-1a1.2 1.2 0 0 0-.4-.9h-1a55 55 0 0 1-12.5 10.6c-.1 0-.5 0-.8-.2v-1c2.1-5 4.3-10 6.7-14.9 1.3-2.6 2.4-5.3 3.6-8a4.3 4.3 0 0 0 0-3.9 1 1 0 0 0-1.4 0l-1.7 2.6-2 4.7-4.4 8c-1.5 2.8-2.3 4.7-3.6 7 0 .2-.5.2-.8.3a2.9 2.9 0 0 1-1.2-2.2 1344.2 1344.2 0 0 0-2.2-12 1 1 0 0 0-1.3-.5c-.7.7-.6 1.5-.6 2.4-.6 6.6.1 13.2 2.1 19.5-2 5.3-4.8 10.2-8.4 14.6l-.8-.5c-2-2.9-3.3-6-4.1-9.3-.8-2-1.2-4-1.2-6-.2-2.5-.6-4.9-1.2-7.2 0-.5-.7-.7-1.8-.6a98.6 98.6 0 0 0-.2 12.9c1 4.5 2.4 8.9 4.2 13.1l1.5 4c-1.8 4-4 7.9-6.3 11.5-.8-1-1.4-2.2-1.6-3.5-2.6-7.7-6.1-15.1-10.5-22-1-1.3-1.8-2.8-2.2-4.5l1-2.3c2-5 4.7-9.6 8.2-13.6 1.9-2.2 3.5-4.6 5.5-6.8a70 70 0 0 1 26.8-17.6c3-1.3 6.2-2 9.4-2.4l3.5 1a5.5 5.5 0 0 1 3.6 4.1 78.2 78.2 0 0 1 .5 31.6l-1.6 9c-.6 3-1.6 6.4-2.4 9.5-.6 2.1-1.2 4.2-2 6.3a64.2 64.2 0 0 1-8.4 18l-4.7 6.8-2 3.5c-2.9 2-5 4.8-7.6 7-2.8 2-5.4 4.3-8 6.6l-.7 1.1c-.4.5-.2 1.4-.3 2.3-.2 6.5-1.2 12.9-2.8 19.2-.4 1.3-.5 2.7-.3 4-1 1.6-1.7 3.4-2 5.2l-4.2 14.7a103.4 103.4 0 0 1-9.8 23.3 5.3 5.3 0 0 1-4 2.8 6.6 6.6 0 0 1-3.7-1.9Z" fill="#3D6334"/>
    <path d="M262.1 610.4c-5.5 3.6-11.1 7.1-16.6 10.9-1.3.8-2.4 1.7-3.6 2.7-4.2 3.7-9 6.6-14.2 8.7a25 25 0 0 0-7.6 1c-3 .9-6 1.3-9 1.2h-12.8c-3.6-.2-7.2 0-10.7.7-1.4.3-2.8.2-4-.2l-3.1-.4-.9-.6a7.9 7.9 0 0 1-4-6 8.7 8.7 0 0 1 6.8-8.1c3.8-1.5 7.8-2.4 11.9-3 .9 0 .9 0 2.2-1.2-2.5-2-5.2-3.8-7.8-5.8l-1.7-1c-2.8-1.8-5-4.2-6.5-7.2-.5-2.3-.5-4.8 0-7.1l1-1.6a6.3 6.3 0 0 1 7.8-2l6.7 2.8 1.2.5c.5-.3.7-.6.5-1l-5-8.3c-2.1-3.5-3.9-7.2-5.3-11a22.9 22.9 0 0 1-.8-10.8 5.3 5.3 0 0 1 3.2-4.3 7.8 7.8 0 0 1 10 1.6 65 65 0 0 1 11 14l2 3.6c0 .3.6.4 1 .6.6-.8.3-1.6.2-2.4-.9-7.8-1-15.7-.5-23.5.2-1.9.4-3.7.8-5.6a7.1 7.1 0 0 1 5.8-6.4c.4 0 .8-.1 1.1-.3a10.2 10.2 0 0 1 7.2 6.4c1.5 3 2.5 6.4 3 9.7.8 5.4 2 10.7 2.3 16.2a2 2 0 0 0 1.4 2.1 72 72 0 0 0 2.6-7.1l2.2-6.3c.6-1.2 1.2-2.4 2-3.5a8 8 0 0 1 4.3-3.6l1.8-.8h3.6l1.7 1a9.2 9.2 0 0 1 4.7 7.5 56 56 0 0 1-1.5 19.8l-1.6 6a1.1 1.1 0 0 0 .5 1.2l.9-.3c1.7-1.4 3.3-3 5-4.3l6-4.8a14.3 14.3 0 0 1 12-2.5 5.8 5.8 0 0 1 3 4.8c-.3 2.3-.9 4.6-1.7 6.7-1 3-2.6 5.6-4.7 7.9a129 129 0 0 1-12.6 12l-1.2 1.4Z" fill="#3D6334"/>
    <path d="M266.4 636h5c3.7 1.1 7 3.4 9.2 6.6.7 2.2 1.4 4.7 2 7.4.3 1 .4 2 .4 3v8.2c0 2.2-.2 4.5-.8 6.6-.3 1.2-.4 2.4-.4 3.6-1.9 1.1-3.6 2.4-5.4 3.3a14 14 0 0 1-5.9 1.5h-14.2l-2.6-1.3-1.3-2.4v-8.9c-.1-1.4 0-2.7.4-4 .3-.9.4-1.7.4-2.5.2-3.4 1-6.8 2-10 1.3-4 4-7.3 7.6-9.3 1.1-.7 2.4-1.3 3.6-1.8Z" fill="#F6C168"/>
    <path d="M319.6 671.1c2.4-3.6 4.5-7.5 6.3-11.4-.4-1.4-.9-2.7-1.5-4a74.4 74.4 0 0 1-4.4-14.2c-.3-4-.3-7.8-.2-11.7 1.2 0 1.7 0 1.8.5.7 2.4 1 4.8 1.3 7.2 0 2 .4 4 1.1 6 .8 3.3 2.2 6.5 4.1 9.3 0 .3.6.4.9.5 3.6-4.3 6.4-9.3 8.3-14.6-2-6.3-2.7-12.9-2.1-19.5 0-.8 0-1.7.6-2.4h.5a1 1 0 0 1 1 1 1344.2 1344.2 0 0 1 2.4 12.8c.2.4.5.7.9 1 .2 0 .6 0 .7-.4l3.6-6.9 4.4-8.1 2-4.6c.5-1 1-1.8 1.7-2.6a1 1 0 0 1 1.4 0 4.3 4.3 0 0 1 0 3.9c-1 2.7-2.1 5.4-3.5 8-2.5 4.9-4.6 9.9-6.7 15v.9l.9.2a55 55 0 0 0 12.5-10.6h.8a1.2 1.2 0 0 1 .5.8v1a13 13 0 0 1-1.5 2.7c-1.9 2.4-4 4.7-6 7a35 35 0 0 1-7.5 5.3l-3.6 1.8-.8 1a9559 9559 0 0 1-8.9 19.4c.3 0 .7.4.9.3 1-.2 2-.6 2.8-1 3.1-2 6.3-3.6 9.1-5.8 3.1-2.1 6-4.5 8.6-7.2a19 19 0 0 1 2.2-2c1.2.5 1.7 1 1.4 1.8l-1.4 2.7c-2 2.6-4.4 4.9-7.1 6.7l-8.9 6.2c-3.8 2.7-7.9 5-12.3 6.6l-3.5 6c-.5.7-1 1.4-1.7 2-.4-1.6-.4-3.3-.8-5-.3-1.8-.4-3.7-.3-5.6Z" fill="#BBCB7D"/>
    <path d="M224.3 680a8 8 0 0 1-5.4-1.1 15.3 15.3 0 0 1-2.7-5.2V667c-.2-.7-.2-1.4 0-2a27 27 0 0 0 .9-8.2l1.4-4c1.8-2 3.9-1.3 6-1.3l2 1.8c1.3 2.7 1.9 5.7 1.8 8.6 0 2.4.2 4.8.7 7.2.6 3 0 6.2-1.6 8.8-.7 1.1-1.8 1.9-3 2.2Z" fill="#F6C168"/>
    <path d="M319.8 42.3a11.9 11.9 0 0 1-1.3 12.4c-9.4 5.4-20.9 5.9-31.5 7.1-3.5.9-7.2 1.2-11 1.1-7 1.3-14.1 2-21.3 2-15.2.7-28.6 9.5-43.6 11.3-19.2 4-39.2 3-57.9-3-30.6-17-84.7 3.6-108-18-8.7-20.4 31-20.8 43-19.2 19.8 1.4 39.8-2.8 59.3 0 22.2 0 44.2-2.2 66.1-4 29.5 0 59-.5 88 2a24.3 24.3 0 0 1 18.2 8.3Z" fill="#F5F1E8"/>
    <path d="M889.8 338.3a11.9 11.9 0 0 1-1.3 12.4c-9.4 5.4-20.9 5.9-31.5 7.1-3.5.9-7.2 1.2-11 1.1-7 1.3-14.1 2-21.3 2-15.2.7-28.6 9.5-43.6 11.3-19.2 4-39.2 3-57.9-3-30.6-17-84.7 3.6-108-18-8.7-20.4 31-20.8 43-19.2 19.8 1.4 39.8-2.8 59.3 0 22.2 0 44.2-2.2 66.1-4 29.5 0 59-.5 88 2a24.3 24.3 0 0 1 18.2 8.3Z" fill="#F5F1E8"/>
    <path d="M530.3 351c6.9-5 11.7-13.3 21-13h51.2c6.5 1.3 13.4.3 19.7 2.3 12.8 5 6 17.8-5.6 18.2a129 129 0 0 0-17 3c-2.4.5-5.2-.4-7.5 1-13.6-1.5-20.8 10-32.5 13.9-6 1.6-12.3 2.5-18.5 2.9-16 1.8-83.2 10-91.7-2.3-3.5-19.7 15.2-17 28.6-19.2 16.7-2.5 36.2-1.7 52.3-6.7Z" fill="#F5F1E8"/>
    <path d="M329.5 188.5c4.3 1.7 7.7 4.6 12 6.1 10.6 3.6 26 0 31 13.5 1.3 9.7-6.1 15.5-15.9 14.3a192.3 192.3 0 0 1-37 0c-32.6-2.8-27.3-40.8 10-34Z" fill="#F5F1E8"/>
    <path d="M607 580.6c-1.2 2.3-2.5 4.7-3.5 7-.2.7-.4 1.4-.4 2a10.1 10.1 0 0 0-2.7 4.3 54.7 54.7 0 0 1-4.6 8c-1 1.3-2.3 2.5-3.3 3.9-2.8 3.6-5.9 7-9.3 10.1a15.4 15.4 0 0 1-5.4 3.8c-2.4.7-2.7-.6-2.4-1.7.9-3.6 4.5-9.1 4.5-13a29 29 0 0 1 .5-7.8c.2-1.2.3-2.4.2-3.5v-17.9a74 74 0 0 0-3.6-20l-1.1-4 .7-1.9 4-4.7 1.4-1.1 1.2-.3a5.9 5.9 0 0 1 7.1 4.4c.8 2 1.3 4.2 1.5 6.5 0 1.3 0 2.7.2 4 .5 0 .8.2 1 0 .5-.3.9-.6 1.2-1A14.5 14.5 0 0 1 605 554a6 6 0 0 1 5.8 4.2l.4 1.5c.6 3.6.4 7.2-.6 10.7l-3.5 10.2Z" fill="#3D6334"/>
    <path d="M570.5 701.7c-4.6-1.2-9.3-1.6-13.8-3a127.4 127.4 0 0 1-21.2-9.5s27.4-69.7 42.1-69.6c2-.8 4-2.1 5.4-3.7 3.4-3.1 6.5-6.5 9.3-10.2 1-1.3 2.3-2.5 3.3-3.9 1.8-2.5 3.3-5.1 4.6-7.9.5-1.6 1.5-3.1 2.7-4.3 2.4 1.7 4.3 4 5.5 6.6a58.3 58.3 0 0 1 7.3 20.5c1 3 .7 6 1.7 9 .2 1 .3 2 .2 3v24.6c-.2 3.2-.7 6.4-1.4 9.5l-.5 3a40 40 0 0 1-1.4 10c-.8 4.4-2 8.6-3.6 12.8a9 9 0 0 0-.3 2 85.3 85.3 0 0 1-5.7 7.6 13.2 13.2 0 0 1-5.8 3.6c-9.5.6-19 .6-28.4 0Z" fill="#E3544D"/>
    <path d="m597.3 629.3-1.2-2.5v-16.3l1.1-2.2c1-1 2.2-1.6 3.6-1.8a7.4 7.4 0 0 1 5.5 4c.2 2.6.2 5.5.2 8.4-.1 1.3 0 2.7.5 4a6.2 6.2 0 0 1-1.2 6.2c-.5.6-1.1 1.2-1.7 1.6a6.4 6.4 0 0 1-6.8-1.4Z" fill="#F6C168"/>
    <path d="M560 530.5s-30.8 18.4-43.5 37.9c-12.8 19.4-25 35.2-27 74.3-2 39 10.7 56.6 10.7 56.6h17.9a78.5 78.5 0 0 0 33.7-26 162.3 162.3 0 0 0 29.4-77.2c3.5-35.6-11.7-67.3-13.7-68.5-2.4 1.1-5 2-7.4 2.9Z" fill="#BBCB7D"/>
    <path d="M548.2 614c1.3-.2 2.1-1.2 3.1-1.8a84 84 0 0 0 10.7-8.1c.7-.6 1.2-1.3 1.7-2 1-1.3 1.9-2.8 3-4.1l1.4-1.4 1.2 1.3c-1.1 3-2.9 5.8-5.2 8.1a78.5 78.5 0 0 1-19.6 16.4l-1.4 3.9c-1.7 5.2-3.6 10.4-5.1 15.6a2 2 0 0 0 .4 2.5l1.8-.6c6.5-3 12.4-7.1 17.5-12.2a52.9 52.9 0 0 1 5.5-5c.6-.3 1.1-.4 1.7-.4a2.5 2.5 0 0 1 0 3.3 46 46 0 0 1-5.6 6.6 82.9 82.9 0 0 1-19.4 13.2l-4.4 1.9a4 4 0 0 0-1 2l-6 18-2 5.2a1.5 1.5 0 0 0 .7 1.9 15 15 0 0 0 1.8-.6c5.9-3 11.5-6.6 16.7-10.7 2.5-2.1 4.8-4.5 6.8-7.2l4.9-6.5c1.3-.3 1.8 0 1.9.8v1c0 .5 0 1-.2 1.5a72.4 72.4 0 0 1-16.3 17 70.5 70.5 0 0 1-19.7 12.2c-2 2.8-2.1 6.1-4.3 8.5-1.5.3-3.1.3-4.6 0-1.3-1-.5-2.3-1.1-3.2l-4.3-4.4a49.6 49.6 0 0 1-8.5-12.1l-4.9-9.6c-1-2.2-1-2.2-.5-5.5a1.6 1.6 0 0 1 1.6 1c.8 1.1 1.4 2.3 2 3.5a61.2 61.2 0 0 0 17 22.2 1.5 1.5 0 0 0 1.4-1.2l3.6-8.5c1.5-3.8 3-7.6 4.3-11.5 1.2-3.2 2-6.5 3.1-9.6-.6-.6-.8-1.1-1.2-1.3a54.6 54.6 0 0 1-21.5-26.5l-1.1-5a1.4 1.4 0 0 1 1.3-.4l1.1 1.5c1.1 2.1 2 4.3 3.2 6.4a42 42 0 0 0 12.5 14.6l2.9 2.3c1.4 1.2 3.1 2 5 2.4 3.5-7.6 6.4-15.5 8.7-23.5l.3-2.2a7.6 7.6 0 0 0-2.7-3.5 41 41 0 0 1-9.5-13.9l-4-10c-.5-1.4-.7-3-.7-4.5.1-.5.2-1 .5-1.4a1.4 1.4 0 0 1 1.8.6l.8 2a54.9 54.9 0 0 0 14.3 23.2l1.3.6c3.3-7 6-14 8-21.4a6.8 6.8 0 0 0-1.5-3.2 21 21 0 0 1-3.6-9.5c0-1.6-.5-3-.8-4.5 0-.4.3-.8.5-1l1.5-.2c2.4 3.6 2.5 8.3 5 11.7.9.2 1-.4 1.1-.8 1-2.3 1.7-4.8 2-7.4a67 67 0 0 1 2.7-10.8c.6-1 1.7-1 2.6 0 .3.3.4.7.6 1-1 4.9-2.1 9.7-3.6 14.4-.7 1.9-1 4-1.6 5.9l-2.3 7.8c-1.2 4.1-2.5 8.2-3.5 12.3-.3.8-.3 1.6-.4 2.5-.1.9-.7.7-.3 1.1.4.4.6-.4 1-.7Z" fill="#3D6334"/>
    <path d="M-39.9 552.3c1-.2 2-.4 3-.8a95.2 95.2 0 0 1 19-5.7c1.5 0 3-.2 4.5-.7 1-.2 2-.3 3-.2H5.2c1.7 0 3.4.1 5 .5 1.7.3 3.4.4 5.1.4 1.6 0 3 0 4.6.3 2.5.8 5 1 7.5 1.6 6 1.8 12 3.6 17.8 5.7a87.5 87.5 0 0 1 20.8 9.8c2.8 1.9 5.5 4 8 6.4 1.8 2 3.7 3.9 5.8 5.7 3.6 2.7 6.6 6 10 8.7.5 1.8-1 3.2-.9 5 1.6 5 3.4 9.9 5.6 14.7 1.4 3.2 2.7 6.3 4.3 9.3 1.6 3.6 4.2 6.7 7.5 8.9h5.2l4-2.2 1.4 2c4.5 8.3 8 17 10.7 25.9l2.6 8.8c.7 3 .8 5.6 1.4 8.5.4 2.4.4 4.8 0 7.1-.2 2.9-.9 5.7-1.4 8.5-.2 1.4-.3 2.7-.6 4-.2.3-.5.5-.6.8-.5 1.1-.8 2.2-1.1 3.4-1.2 4-3 7.9-5.7 11.2a28.6 28.6 0 0 1-8.4 8.4l-.6 1A121.3 121.3 0 0 1 84 723.9c-2 .9-4.2 1.3-6.3 2-6.8 2.2-13.8 3.9-20.8 5.1-3.6.7-7.4 1.3-11 2.1-5.3 1.4-10.7 2-16.2 2h-.5l-.2-5.6-2.2-2.2-4.4-1.5H9.5a125 125 0 0 0-12.7 0c-1.5.8-2.7 2-3.6 3.5v4.2h-2l-7.6-1.1c-2.5-.4-4.3-1-6.4-1.5a77 77 0 0 1-14.1-4.3 73.5 73.5 0 0 1-24.7-15.2c-.2-1.3-1.3-2-2.1-2.8a189 189 0 0 1-14.5-17.8c-.8-1.1-1.3-2.5-2-3.6s-.7-2-1.7-2.5c-1-3-1.8-5.9-3-8.7a77 77 0 0 1-4-13.6c-.2-1-.3-2-.3-3.1V631c0-1.5.3-3 .7-4.5 1-3.8 1.6-7.6 2.5-11.4l21.4-10.7c4.2-2.3 8.2-4.8 12.4-7.2 1.5-.9 2.8-2 3.7-3.5l.8-2.3a65 65 0 0 1 3.5-11.2l.3-1.5 1.7-7.5c1.3-6.2 2-12.5 2.3-18.9Zm16 138.3a3.6 3.6 0 0 0 1.6-3.6v-20.5c0-3.3-.2-6.5-.9-9.7-.4-1.4-.6-2.9-1.2-4.4a15 15 0 0 0-10.7-9.9h-5.4A22 22 0 0 0-55 659.9v26c-.2 1.2 0 2.5.7 3.5 2.2 1 4.6 1.5 7 1.4h21l2.4-.2Zm69.4 3.7a10 10 0 0 0-6.2-7.1c-5.8-2.4-11.8-4.4-17.9-6.4a37.6 37.6 0 0 0-9-.4 7.7 7.7 0 0 0-3.8 5.7 7.9 7.9 0 0 0 4.8 6c2.4 1.3 4.9 2.5 7.4 3.5 4.7 1.6 9.2 3.6 14 5.4h5.6c1.2-.7 2.8-1 3.8-2.7l1.3-4ZM60 633.1a9.5 9.5 0 0 0 3.4 4.8l13 9 3 1.7c2 .2 4 0 6-.4a23 23 0 0 0 2.5-2.4 7.1 7.1 0 0 0 0-9.3 7.1 7.1 0 0 0-1.7-1.8c-4.8-3-9.4-6.2-14.3-9a9.6 9.6 0 0 0-6.4-1.6l-1.1.2-3 2.2A8.1 8.1 0 0 0 60 633Zm-76.2-58c2.7.6 5.2 1.9 7.1 3.9l1.7 1c2.6 2 5.6 3.3 8 5.4 1.5 1 3 1.8 4.6 2.3.5.2 1 .2 1.5 0a7.8 7.8 0 0 0 6.7-6.6c.1-.7 0-1.4-.2-2-.8-2.3-2.4-4.2-4.5-5.5l-9.5-5.9c-2.8-1.8-5.9-3.3-9.1-4.3a4 4 0 0 0-1.2 0l-3.9 1.3-2.4 2.4a8 8 0 0 0-.8 1.3v3.1l2 3.6Zm-12 35.7a13 13 0 0 0 4.3 4.5c1.5 1 3 2.2 4.3 3.5l8.4 8.4c1.7 1.4 3.5 2.6 5.4 3.7h3a9 9 0 0 0 3.6-2.2l.6-1.3a5.2 5.2 0 0 0-.2-5.7 12 12 0 0 0-3.9-4.1 59.5 59.5 0 0 1-6.2-5.4l-2-1.6c-3-2.3-6.1-4.3-9.4-6.1-1.5-.3-3-.3-4.5 0a9 9 0 0 0-3.6 3.5l.2 2.8Zm56.4 43.1c1 1.7 2.3 3 4 4 1.3.7 2.5 1.7 3.5 2.9 2.2 2.4 4.7 4.5 7.5 6.1l3.6 1 3.6-1.1c1.8-1.2 3-3 3.5-5.2.2-1.2.1-2.4-.3-3.5-.5-1.3-1.3-2.5-2.2-3.4-1.6-1.6-3.3-3-4.8-4.7a19.9 19.9 0 0 0-8.6-5.5h-4.6a9.7 9.7 0 0 0-3.9 2.3l-1.4 2.7.1 4.4Zm70 30.7-4.2-2H79.7c-3.2.9-6 2.8-8 5.5l-1.1 3.6a9.6 9.6 0 0 0 4.8 6c1.5.2 3 .2 4.5-.2 1.7-.7 3.6-1 5.5-.8H95.2l3.1-1.6 1.8-3.3a8.4 8.4 0 0 0-2-7.2Zm-37.6-88c-2.1-2.6-4-5-6-7a45.2 45.2 0 0 1-5.9-7 18.2 18.2 0 0 0-5.5-2.8c-1.4.2-2.7.7-3.8 1.6-.7.6-1.3 1.4-1.9 2.1-.3 1.6-.3 3.2 0 4.8a78 78 0 0 0 7 9.4c2 3.3 4.8 6.1 7.8 8.5 1.6.3 3.2.3 4.8 0 1-.7 2.4-1 3.4-2.5l1.1-3.6-1-3.4Z" fill="#E3544D"/>
    <path d="m115.4 619.7-4 2.1h-5.1c-3.4-2-6-5.2-7.6-8.8a151 151 0 0 1-10-24c0-1.8 1.5-3.2 1-5 .8 0 1.7-.2 2.5-.4 1.6-1 3.5-1.1 5.3-.7 2.2 1.7 4 3.9 5.4 6.4 1.3 2.5 3 4.9 4.4 7.3l1.5 2.7 5.4 9.2a21 21 0 0 1 2.3 6.5c0 1-.2 2-.7 3l-.4 1.7Z" fill="#F6C168"/>
    <path d="m-16.2 575.1-1.9-3.6v-2.8c.3-.5.5-1 .9-1.4l2.4-2.4 3.9-1.3h1.1c3.3 1 6.3 2.5 9.2 4.4l9.5 5.9a10 10 0 0 1 4.4 5.4c.2.6.3 1.3.3 2a7.8 7.8 0 0 1-6.8 6.7 3 3 0 0 1-1.5 0 17 17 0 0 1-4.5-2.3c-2.5-2.2-5.5-3.4-8-5.4l-1.7-1.1c-2-2-4.5-3.5-7.3-4.1Z" fill="#F6C168"/>
    <path d="M-28.2 610.7v-2.3a9 9 0 0 1 3.6-3.6c1.5-.3 3-.3 4.5 0 3.3 1.8 6.4 3.8 9.5 6.1l2 1.6c1.9 2 4 3.8 6.1 5.4 1.6 1 3 2.4 3.9 4a5.2 5.2 0 0 1 .2 5.9L1 629a9 9 0 0 1-3.6 2.3h-3c-2-1.1-3.7-2.4-5.4-3.8l-8.4-8.3a28 28 0 0 0-4.3-3.6 13 13 0 0 1-4.5-4.9Z" fill="#F6C168"/>
    <path d="m60.6 596.7 1.2 3.6-1.2 3.5c-1 1.6-2.3 1.8-3.3 2.5a12 12 0 0 1-4.8 0c-3.1-2.4-5.8-5.2-8-8.5a78 78 0 0 1-6.8-9.4c-.4-1.6-.4-3.2 0-4.8.5-.7 1.1-1.4 1.8-2 1.1-1 2.4-1.5 3.8-1.6 2 .5 3.9 1.4 5.6 2.7 1.7 2.4 3.7 4.7 5.8 6.8 2 2.2 3.8 4.5 6 7.2Z" fill="#F6C168"/>
    <path d="M629 625.6v-3.5a1.6 1.6 0 0 1 1.5-1.1l.6.1c2 .7 3.6 1.9 4.8 3.5a8 8 0 0 1 1 1.7c.6 1.5 1.2 3.1 2 4.6a136.3 136.3 0 0 1 14.7 42 5 5 0 0 1-1.5 2.8c-.4.2-.9.2-1.3.3a2.6 2.6 0 0 1-2.6-1.3l-1.2-2.2c-1.7-3.4-3.4-6.7-5-10.2-1.6-3.5-2.8-7-4.2-10.6l-.8-2.3c-.3-2-1.8-3.5-2-5.6-.4-1.8-1-3.5-1.5-5.2-.5-2-1.1-3.8-1.8-5.7l-2.7-7.3Z" fill="#F5F1E8"/>
    <path d="M571.2 659.7c.3.1.6.2.7.4l6.7 10.3v2.6a5.9 5.9 0 0 1-2.3 3.4 7 7 0 0 1-4.6 0 18 18 0 0 1-5.7-8c0-1.5.4-3 1.3-4.1l1.4-2.1 1.3-2.3 1.2-.2Z" fill="#F6C168"/>
    <path d="M580.4 637c2.4-.2 2.4 1.8 3.5 3.2 1.5 2.5 2.6 5.2 3.3 8 .5 1.6.5 3.2.2 4.7l-.5.8-.9.8a6 6 0 0 1-3 0l-1-.7c-1.2-2-2-4.2-2.3-6.5a12 12 0 0 0-1.4-4c0-2.3.7-4.5 2.1-6.3Z" fill="#F6C168"/>
    <path d="M599 659.4c.5-1.4.8-2.7 2.1-3.5a5 5 0 0 1 3.3 0c.8.4 1.5 1 2 1.8.6 4.3.7 8.7.3 13l-.7 1-1.5 1.5h-2.2a7.3 7.3 0 0 1-3-3.2c-.2-1.8-.2-3.6 0-5.4-.4-1.9-.4-3.7-.4-5.2Z" fill="#F6C168"/>
    <path d="M60 632.6a8.3 8.3 0 0 1 1.5-7l3-2.1 1.3-.3c2.3-.2 4.6.3 6.5 1.6 5 3 9.7 6.1 14.6 9.3.6.5 1.2 1.1 1.7 1.9a7.3 7.3 0 0 1 0 9.5c-.8 1-1.7 1.7-2.6 2.5-2 .4-4 .6-6 .3l-3.2-1.6-13.3-9.3a9.7 9.7 0 0 1-3.5-4.8Z" fill="#F6C168"/>
    <path d="M27.4 653.8v-4.5l1.5-2.8a10 10 0 0 1 4-2.4h4.6c3.2 1.2 6.1 3 8.4 5.7l4.9 4.7c1 1 1.7 2.2 2.3 3.5a7 7 0 0 1 .3 3.6c-.5 2.2-1.8 4.1-3.6 5.3l-3.7 1.2-3.6-1a33.5 33.5 0 0 1-7.7-6.3c-1-1.2-2.2-2.2-3.6-3a11 11 0 0 1-3.8-4Z" fill="#F6C168"/>
    <path d="M597.2 98.9c10-7.2 17-19.4 30.6-18.9h74.6c9.3 1.8 19.3.5 28.6 3.3 18.5 7.2 8.7 25.8-8.2 26.3-8.3.9-16.6 2.3-24.7 4.3-3.5.8-7.6-.6-11 1.6-19.7-2.2-30.2 14.4-47.2 20-8.9 2.3-17.9 3.7-27 4.2-23.2 2.6-120.9 14.5-133.3-3.4-5.1-28.4 22.1-24.5 41.6-27.7 24.3-3.6 52.7-2.4 76-9.7Z" fill="#F5F1E8"/>
  </g>
  <g clip-path="url(#b)">
    <path d="M734 252.6c-.6 1.2-1.3 2.4-1.7 3.6-1 2.6-2 5-3.5 7.4l-.8 1.8c-2 2.3-3.7 4.8-5.8 7v.3l-4 3.7c-1 1-2.3 2-3.6 2.7a39.3 39.3 0 0 1-18.3 5.6 70 70 0 0 1-17.1-1.8c-2.2-.7-4.4-1-6.5-1.7l-5.5-2c-1.9-.8-4-1.4-5.8-2.3l-9-4.6c-2.6-1.4-5-3-7.2-5a98 98 0 0 0-8-6.6c-.6-1.1-1.5-2-2.5-2.8a62.7 62.7 0 0 1-16-22.1c-2.4-5.9-4.2-12-5.4-18.2a46.3 46.3 0 0 1-1-14.5v-1.7a5.1 5.1 0 0 0 4.3-1.2l.8-1.4c.5-2 1-4 1.2-6 .4-3.3.5-6.8.7-10.1V180c-.5-1-1.4-2-2.4-2.5a10 10 0 0 1 1.4-3.8l5.3-8.9c1.7 0 3.3.2 5 .3 3.8.2 7.5.3 11.3.2 1.8-.2 3.6-.3 5.5-.3 2.5 0 5-.1 7.4-.6 1 0 2-.4 2.8-1 2-1.3 3.9-2.6 5.7-4 4.8-4.2 9.2-9 12.9-14.1.7-1 1.5-2 2.3-2.8l1.2.1c4 .2 7.8 1 11.4 2.5 3.3 1.2 6.5 2.7 9.7 4 1.2.7 2.5 1.2 3.9 1.5.5 1 1.5 1.2 2.3 1.6 4.4 2.3 8.5 5.3 12 8.8l2.4 1.7c1.1 1.7 2.8 3 3.7 4.8.7 1 1.5 1.8 2.4 2.6 0 .4.2.8.4 1.2 1.5 2.4 2.9 4.8 4.1 7.3l.8 1c0 .6.2 1.2.4 1.9.8 2 1.7 4 2.3 6 .2.6.7 1 1 1.3l.6 1.1c.1 1.6.5 3.3 1 4.8a64.6 64.6 0 0 1 3.4 15c0 3.5.5 7 .6 10.6l-.6 9.4c0 1-.1 1.9-.3 2.8l-2.5 9.4-.4 2.4c-1 2.7-1.8 5.4-2.4 8.3Zm-73.8-50.2c.4-2.5 0-5-1.1-7.3-1.3-3.5-2.3-7-3-10.7l-.8-2.4a7.3 7.3 0 0 0-3.2-3.3l-3-.1c-1 .3-2.1.9-3 1.7l-1 2.5c-.4 1-.5 2.1-.2 3.2.3 1.8.7 3.5 1.2 5.2l2.2 8 1.4 3.4a8.5 8.5 0 0 0 3 3.5l3.8.1 2.6-1.3a8 8 0 0 1 1.2-2.4h-.1Zm35.2 21.8c.2-2.4-.2-4.8-1-7a62.8 62.8 0 0 0-5.2-13l-1.1-1.7-2.3-1.2-3-.2a7.4 7.4 0 0 0-4 4.7l.5 2.4c.3 2.4.8 4.8 1.6 7.2 1.2 3 2 6.3 3 9.4 2 2.5 2.4 3 4 3.5.6.3 1.3.4 2 .3a6.4 6.4 0 0 0 4.2-2.4l1.4-2h-.1Zm22.8 17.7a19 19 0 0 0-5-.3 7.8 7.8 0 0 0-3.6 4.2c0 3.1-.4 6.3-1.2 9.3v.9l-.4 7.5c.2 1.3.9 2.5 1.8 3.5 1 1 2.2 1.6 3.5 1.8l3-.8a5.7 5.7 0 0 0 3-3.7c.6-1.7 1-3.4 1.3-5.2.4-4.4.8-8.8.7-13a6.5 6.5 0 0 0-3-4.2Zm-20.9-58.7c.6-1.8.5-3.7-.1-5.5-1.4-3.9-3.1-7.6-5.1-11.2-1.6-2.8-4-5-6.9-6.4a4 4 0 0 0-3-.2 7.1 7.1 0 0 0-3 2.8c-.2.8-.1 1.6.1 2.3l2.6 6.5.8 1.5c1.3 2.3 2.4 4.7 3.2 7.2.6 1.5 1.4 2.9 2.4 4.2l2.1 1.2c1.4.3 2.8.3 4 0l1.6-1c.7-.6 1.1-1.1 1.4-1.5Zm-36.7 67c.7 2.4 1.7 4.7 2.9 7a19 19 0 0 0 7.9 8.2l2.5 1.4 3.7.2a7.6 7.6 0 0 0 4.2-5.3 7.6 7.6 0 0 0-3.6-5.2 18.5 18.5 0 0 1-5.6-5.6 32.5 32.5 0 0 0-3.9-4.7l-2.9-1a6.4 6.4 0 0 0-5.3 5Zm65.5-40.5 2.4-1c.8-1 1.4-2 1.8-3.2v-1.2c.1-.4 0-1-.1-1.6l-.4-2c.2-2.5-.9-4.9-.6-7.4-.4-1-.6-2-.7-3.2a6 6 0 0 0-3-4.2 9.9 9.9 0 0 0-3.8-.2l-1.6.7c-1.1 1.3-2 3-2.3 4.6-.3 1-.2 2.2.3 3.2v3l.1 2.4c.4 1.6.6 3.2.6 4.8.5 2.1 1.9 4 3.7 5.1l3.6.2Zm-81.6 22.6c-1.9-5.6-4-11.1-6.6-16.5l-2.4-1.4c-1-.2-2.1-.2-3.1 0a5 5 0 0 0-2.1 2c-.5 2.1-.4 4.4.3 6.5 1.1 3.8 2.7 7.5 4 11.2a8.7 8.7 0 0 0 2.8 3.8l1 .6c1.2.3 2.5.3 3.7 0a5 5 0 0 0 2.3-2.2v-4Z" fill="#E3544D"/>
    <path d="m780 146.2-1.2 5.7c-1 5.4-2.3 10.8-4 16l-.5 2a117 117 0 0 0-15.5 6l-3.5 1.4a72 72 0 0 0-17.5 10.3l-2.9 2.3-.6-1.1c2.3-5.3 4-10.8 6.5-15.7 1.2-1 2.5-1.7 3.9-2.2 2.5-1.3 5-2.7 7.4-3.8l4.4-2.4a51 51 0 0 0 6.1-3.8c1.5-1 2.8-2.2 3.8-3.7.3-1.1.7-2.2-.4-3.2h-1.2a3 3 0 0 0-1.2.3c-1.4.6-2.8 1.2-4.1 2l-11.2 6.6-2.2 1.1c-.8.4-.6 0-.8-.3l.3-1c2.4-5.8 4.5-11.7 7.2-17.5 1-2.4 2-4.8 2.8-7.3 1-2.8 1.5-5.7 2.1-8.4l.2-2.9c0-.4-.2-.8-.4-1.2h-1.2c-.8.4-1.3 1.1-1.6 2-.9 2-1.9 4-3 5.8-1 1.9-1.9 3.7-2.7 5.6l-3.6 8.5c-.3.5-.6 1-1 1.3h-.7c-.6-1.2-.2-2.5-.5-3.7-.4-2-.6-4-.4-6.1l.1-2.5c0-1.1-.4-2.2-1.2-3-1.4-.5-2.1.2-2.7 1.4-.2 2.4-.6 4.8-1 7.2a7.4 7.4 0 0 0 0 3.7c.2 1.8.3 3.6.2 5.3v3c.4 1.4.5 3 .4 4.4 0 1.3 0 2.6.5 3.8-1.3 3.5-3.3 6.6-4.8 10l-3.8 7.8-.8-.9c-1.2-2.5-2.6-5-4.1-7.4l-.4-1V168c-.8-4.6-1.3-9.2-2-13.8a2.4 2.4 0 0 0-1.8-1.5c-.5 0-1 .3-1.4.7-.4.4-.6 1-.6 1.5l-.4 8.1-2.3-1.7a50.4 50.4 0 0 0-12.1-8.8c-.8-.4-1.9-.7-2.3-1.6a82.8 82.8 0 0 1 19.8-23.4l4.7-4.1c5.3-5 11.2-9.3 17.5-12.9l3.2-2 5.4-3c5.5-3 11-5.7 16.4-8.6 2.3-1.4 4.8-2.6 7.4-3.5a2.7 2.7 0 0 1 1 2.3c.4 2.3.9 4.6 1.7 6.8a92.7 92.7 0 0 1 1.9 28.5l-.3 4.5c0 2.2-.3 4.4-.7 6.6l-.4 4Z" fill="#3D6334"/>
    <path d="M676.3 142.4c-.7 1-1.5 2-2.3 2.8-3.7 5.2-8 9.9-12.9 14a73 73 0 0 1-5.7 4.2c-.8.5-1.7.8-2.7 1-2.5.4-5 .6-7.5.5-1.8 0-3.6 0-5.4.3l-11.3-.2-5-.3-6.7-1.2c-1.7-.4-3.5-1-5-2a4.9 4.9 0 0 1-2.4-5.3 5 5 0 0 1 3.6-4.3c1.2-.4 2.4-.7 3.7-.8l5.3-.8c.5-.8-.1-1-.5-1.3l-5-2.3-4.2-2-2.5-1.5c-2.8-1.9-3.3-2.7-4-6.5l.4-1.4c.4-1.2 1.2-2.1 2.2-2.8 1-.6 2.2-1 3.4-.8 3.5 0 7 .7 10.3 1.8l9.2 3a1 1 0 0 0 1.2-.3l-.5-1-3.8-4c-2.6-2.5-5-5.2-7.1-8a6 6 0 0 1-1.3-4.3 6 6 0 0 1 2-3.8c1.2-1 2.7-1.5 4.2-1.5a6 6 0 0 1 3.2 1c2.4 1.2 4.7 2.8 6.8 4.7 1.5 1.5 3.2 2.8 4.7 4.2l4.3 4.4c.7 0 .7-.6.6-.9l-1.5-7.3c-.7-2.8-1-5.8-.7-8.7.2-2 .5-4 1-6 .2-1.3.8-2.5 1.7-3.3.9-.9 2-1.4 3.3-1.6l.9-.1a7 7 0 0 1 6 4.6l1.7 4.6c2 6.9 3.6 13.9 4.6 21 .5.2.7 0 1-.3l7.7-9.8c1.7-2.5 4-4.4 6.7-5.8h1.5a5.2 5.2 0 0 1 4 1.5 5 5 0 0 1 1.3 4 27.7 27.7 0 0 1-2.5 10l-4.4 9.3c-.6 1.3-1 2.3-1.6 3.3Z" fill="#3D6334"/>
    <path d="M612.2 201.6c-1.1-.5-2.1-1.2-2.9-2.1a11 11 0 0 1-.3-7.7c.4-1.8.6-3.5.6-5.3.2-2.3.6-4.6 1.4-6.7l.7-1.5 1-.8 4 .2c1 .5 2 1.4 2.4 2.4v2.7l-.6 10.2c-.3 2-.8 4-1.3 6l-.8 1.3a5 5 0 0 1-4.2 1.3Z" fill="#F6C168"/>
    <path d="m612.7 177.4-1 .9c.1-.3.2-.5.4-.6l.6-.3Z" fill="#F5F1E8"/>
    <path d="m735 189.9 2.9-2.4a72 72 0 0 1 17.5-10.2l3.5-1.4a117 117 0 0 1 15.5-6l2.4-.6 2-.4c1.6-.3 3-1 4.5-1 1.5-.2 3-.7 4.5-.7 1.6 0 2.4-.7 3.7-.6 3.8-1.5 8-1.3 11.9-2.5 1 0 2 0 3 .2a1.6 1.6 0 0 1 .6 1.5l-.4 8.3c0 1.7-.3 3.4-1 5a4 4 0 0 0 0 1.6c-.1 1-.2 1.9-.5 2.8l-1.9 6.3c-.7 2-1.7 4-2.5 6-.2.7-.3 1.3-.3 2-.2.2-.6.3-.6.5-.5 2.2-2.4 3.7-2.3 6l-.6.6c-.5 1.5-1.3 3-2.2 4.3l-3 5.4c-.5.8-.8 1.8-.8 2.8-.4.2-.8.3-1 .6a64.4 64.4 0 0 0-6.2 9c-.5.2-1 .6-1.3 1-1.4 1.7-2.7 3.6-4.1 5.5l-1.7 1.1a25.5 25.5 0 0 1-5.3 4l-2 1.6c-2 1.9-4.3 3.4-6.9 4.5-1.3.7-2.6 1.6-4 2.1a65.8 65.8 0 0 1-13.6 4.1c-2.3.4-4.6.9-6.9 1.6-1.2.3-2.4.4-3.7.3.5-2.8 1.3-5.5 2.2-8.1 1.7 0 3.4-.2 5-.7 2.5-.3 5-.8 7.3-1.6 2.4-.8 4.7-1.8 7-2.5 2.5-1 4.8-2.4 6.8-4 .4-.3.3-.6-.3-1.4-2 .5-4.1.8-6.2 1-2 .7-3.8 1.7-6 2.3-1.6-.2-3.3 0-4.8.5a3 3 0 0 1-1.3 0c-.6 0-1-.3-1.2-1.2l2.8-3.4c2.3-2.4 4.5-4.9 6.5-7.5 2-2.3 3.7-4.8 5.6-7.2l1.6-1.4a51.3 51.3 0 0 1 7.9-1c4.5-1.4 9.2-1.9 13.9-3.4.8-.8 2-1.4 2.4-2.4.2-.3.3-.7.2-1-.1-.4-.3-.8-.7-1a11 11 0 0 0-5.3.4c-3.7 1-7.3 1.9-11 2.7-.6.2-1 0-1.4-1l6.7-8 5-6c1.8-1.6 3.2-3.5 4.2-5.6.4-.9.8-1.7 1.4-2.5.5-.6 1-1.3 1.3-2.1.2-.5.3-1 .3-1.6 0-.7-.4-1-1.2-1-.6.3-1 .7-1.5 1.2a24 24 0 0 1-4.7 4.8 18.2 18.2 0 0 0-3.9 4.2 15.5 15.5 0 0 1-3.6 4c-.6.5-.7 1.5-1.8 1.6l.1-2.9.3-1.2 2.5-7.8c-1-1.5-1-1.5-2.9-1.3a149 149 0 0 0-3.3 7 8.5 8.5 0 0 0-1 3.5c0 .8-.2 1.6-.5 2.4l-2.8 9.1c-2.2 3-4.7 5.7-7.3 8.3-1.2 1.5-2.9 2.6-4 4.2 0 0-.5 0-.8.2V220c.3-1.9.1-3.9-.5-5.7 0-1.3 0-2.5.4-3.7.4-1.3.7-2.7.7-4 0-.9.1-1.7.4-2.5.7-2 1-4 .8-6 0-.4-.2-.6-.3-.9l-1.1-.3c-.8 0-1.3.6-1.9 1.6.1 1.7-.3 3.3-1.2 4.8-.6 1.4-.6 3-1.2 4.3-.6 1.5-.9 3.2-.8 4.8-.3 2.2-.8 4.3-1.6 6.4-.3.6-.7 1.1-1.2 1.6-.1-3.5-.5-7-.6-10.6a64.6 64.6 0 0 0-3.3-15c-.7-1.6-1.2-3.3-1.3-5Z" fill="#F3F7C6"/>
    <path d="M740 220.4c.4-.5.8-1 1.1-1.7.9-2 1.4-4.1 1.6-6.3 0-1.7.3-3.3.9-4.8.5-1.4.5-2.9 1.2-4.4.8-1.4 1.2-3 1.2-4.7.5-1 1-1.5 1.8-1.6.4 0 .8.1 1.1.3l.4.8c.1 2-.1 4.1-.9 6-.2.9-.4 1.7-.3 2.5 0 1.4-.3 2.8-.8 4-.3 1.3-.4 2.5-.3 3.7.6 1.9.7 3.9.4 5.8v1.2l.9-.1c1-1.7 2.8-2.7 4-4.2 2.6-2.6 5-5.4 7.2-8.3 1-2.8 1.8-6 2.9-9.2.3-.7.5-1.5.5-2.3 0-1.3.4-2.5 1-3.6 1-2.4 2-4.7 3.2-7 2-.1 2-.1 3 1.4l-2.5 7.8-.4 1.2-.1 2.8c1.1.1 1.2-1 1.9-1.5a15.5 15.5 0 0 0 3.6-4c1-1.6 2.4-3 3.9-4.3a24 24 0 0 0 4.6-4.7c.5-.5 1-1 1.5-1.3.8 0 1.2.4 1.2 1s0 1.2-.2 1.7c-.4.7-.8 1.4-1.4 2.1-.5.8-1 1.6-1.3 2.5-1 2-2.5 4-4.2 5.7a72 72 0 0 0-5.1 6c-2.1 2.7-4.4 5.2-6.6 7.9.3.9.7 1.2 1.4 1 3.6-.9 7.3-1.7 10.9-2.7a11 11 0 0 1 5.4-.4c.3.2.5.5.6.9.1.4 0 .7-.1 1-.5 1-1.7 1.7-2.5 2.4-4.6 1.6-9.4 2.1-13.9 3.6l-1.2.2c-2.2 0-4.5.3-6.7.7l-1.5 1.4-5.7 7.2c-2 2.6-4.2 5.1-6.5 7.5-1 1-1.9 2.2-2.7 3.4 0 .9.6 1 1.2 1.1h1.2c1.6-.4 3.2-.6 4.9-.4 2.1-.6 4-1.6 6-2.3 2-.2 4-.6 6.1-1 .7.7.8 1 .4 1.3-2 1.7-4.3 3-6.8 4l-7 2.6c-2.4.8-4.9 1.3-7.4 1.6-1.6.5-3.3.7-5 .6l.5-2.4 2.5-9.3.3-3 .6-9.4Z" fill="#BBCB7D"/>
    <path d="M730.6 179.5c1.3-2.6 2.7-5.2 3.8-7.8 1.6-3.4 3.6-6.6 4.8-10-.4-1.3-.5-2.5-.5-3.8.2-1.5 0-3-.3-4.5v-2.9c0-1.8 0-3.6-.4-5.3a7.4 7.4 0 0 1 0-3.7c.6-2.4 1-4.8 1.1-7.3.6-1 1.4-1.8 2.8-1.3.7.8 1.2 1.9 1.2 3l-.2 2.4c-.1 2 0 4.2.4 6.2.4 1.2 0 2.5.5 3.6h.8c.4-.3.7-.7 1-1.2l3.5-8.5 2.8-5.6 3-5.9c.2-.8.8-1.5 1.5-2l1.2.1.4 1.2-.1 2.9c-.7 2.8-1.2 5.7-2.1 8.4-.8 2.5-1.8 4.9-2.9 7.3-2.6 5.6-4.8 11.7-7.2 17.5l-.3 1c.2.4.5.5.8.3.3-.1 1.5-.7 2.2-1.2l11.2-6.5c1.3-.8 2.7-1.4 4.1-2a3 3 0 0 1 1.2-.3h1.2c1.1 1 .7 2 .5 3.1-1 1.5-2.3 2.8-3.9 3.8a51 51 0 0 1-6 3.7c-1.5.7-3 1.6-4.4 2.4-2.5 1.3-5 2.7-7.5 3.8-1.4.6-2.7 1.3-3.9 2.3-2.5 4.8-4.2 10.4-6.5 15.7-.3-.4-.8-.8-1-1.3-.6-2-1.5-4-2.3-6l-.5-1.6Z" fill="#BBCB7D"/>
    <path d="m660.3 202.5-1.5 2.4-2.6 1.3-3.7-.2c-1.4-.8-2.4-2-3.1-3.4l-1.4-3.4-2.2-8a61 61 0 0 1-1.2-5.2c-.3-1-.3-2.2.1-3.3l1.1-2.4c.9-.8 1.9-1.4 3-1.7l3.3.1c1.3.8 2.5 2 3.1 3.3.4.8.6 1.6.8 2.4.7 3.6 1.7 7.2 3 10.7 1.2 2.3 1.6 4.8 1.3 7.4Z" fill="#F6C168"/>
    <path d="m695.5 224.2-1.1 2a6.3 6.3 0 0 1-4.3 2.4c-.6 0-1.3 0-2-.3-1.6-.6-2-1-4-3.5-1-3.1-1.8-6.3-3-9.4-.7-2.4-1.3-4.8-1.6-7.2l-.4-2.4a7.2 7.2 0 0 1 4.1-4.6l3 .1 2.2 1.3 1.1 1.7a63 63 0 0 1 5.3 13c.7 2.2 1 4.6.7 7Z" fill="#F6C168"/>
    <path d="M718.4 241.9a6.7 6.7 0 0 1 3.1 4.3c0 4.1-.4 8.6-.6 13l-1.3 5.1a5.5 5.5 0 0 1-3.1 3.7l-3 .8a6.8 6.8 0 0 1-5.3-5.3l.4-7.5v-.9c.8-3 1.2-6.2 1.2-9.3a7.8 7.8 0 0 1 3.5-4.2 19 19 0 0 1 5 .3Z" fill="#F6C168"/>
    <path d="M697.4 183.1a15.3 15.3 0 0 1-2.8 2.5c-1.3.2-2.6.2-4 0l-2.2-1.3c-1-1.3-1.7-2.8-2.3-4.3a34.9 34.9 0 0 0-4-8.6l-2.6-6.5c-.3-.7-.3-1.6-.1-2.3a7.1 7.1 0 0 1 3-2.8c1-.3 2-.2 3 .2 2.9 1.4 5.3 3.6 6.8 6.4 2 3.6 3.8 7.3 5.1 11.2.7 1.8.7 3.7.1 5.5Z" fill="#F6C168"/>
    <path d="M660.6 250.2c.2-1.3.9-2.4 1.8-3.3 1-1 2.1-1.5 3.4-1.8l2.9 1c1.4 1.5 2.8 3 4 4.8 1.3 2.2 3.2 4.1 5.5 5.6a7.7 7.7 0 0 1 3.6 5.2 7.4 7.4 0 0 1-4.3 5.3l-3.5-.2-2.5-1.4a19 19 0 0 1-7.9-8.3 36.6 36.6 0 0 1-3-7Z" fill="#F6C168"/>
    <path d="m726.1 209.7-3.6-.1a8.9 8.9 0 0 1-3.8-5.1c0-1.6 0-3.3-.5-4.9-.1-.8-.2-1.6 0-2.4l-.1-3c-.5-1-.6-2-.3-3.1.4-1.7 1.2-3.3 2.3-4.6l1.6-.8a10 10 0 0 1 3.9.2l1 .7a6 6 0 0 1 2 3.6c0 1 .2 2.1.6 3.2-.2 2.5.7 4.9.6 7.3 0 .7.2 1.4.4 2l.2 1.7v1.1c-.5 1.2-1 2.3-2 3.2l-2.3 1Z" fill="#F6C168"/>
    <path d="m644.5 232.3-.2 4a5 5 0 0 1-2.3 2.2c-1.3.3-2.5.3-3.7 0l-1-.6a8.7 8.7 0 0 1-2.8-3.8c-1.3-3.7-2.9-7.4-4-11.2-.8-2.1-.9-4.4-.3-6.5a5 5 0 0 1 2-2c1-.2 2-.2 3.1 0l2.4 1.4c2.6 5.4 4.9 10.9 6.8 16.5Z" fill="#F6C168"/>
    <path d="m719.2 162.7.4-8.2c0-.6.2-1.1.6-1.5.4-.4 1-.7 1.5-.7a2.4 2.4 0 0 1 1.8 1.6c.7 4.5 1.2 9.1 2 13.7v2.4c-1-.8-1.7-1.6-2.5-2.6-1.1-1.7-2.7-3-3.8-4.7Z" fill="#BBCB7D"/>
  </g>
  <defs>
    <clipPath id="b">
      <path fill="#fff" d="m608.4 85 202 10.2L800 300.6l-202-10.3z"/>
    </clipPath>
  </defs>
</svg>